<svg xmlns="http://www.w3.org/2000/svg" width="305.546" height="260" viewBox="0 0 305.546 260"><defs><style>.a{fill:#ccf7ef;}.b{fill:none;}.c{opacity:0.2;}.ae,.d,.w,.x,.y{fill:#52e5cc;}.e{fill:#96aac9;}.f{fill:#06bc99;}.g{isolation:isolate;}.h{fill:#00d8ae;}.i{fill:#f7f7f7;}.ad,.j,.y{opacity:0.5;}.k,.m,.o,.p,.r,.t,.v{fill:#fff;}.k{opacity:0.6;}.l{opacity:0.833;}.m,.n{opacity:0.667;}.o{opacity:0.733;}.p{opacity:0.8;}.q{opacity:0.333;}.r{opacity:0.867;}.s{opacity:0.167;}.t{opacity:0.933;}.u{opacity:0;}.w{opacity:0.7;}.x{opacity:0.4;}.z{fill:#6afce5;}.aa{opacity:0.1;}.ab{fill:#53d5ea;}.ac,.ae{opacity:0.3;}.ad{fill:#d4fcf4;}.af{fill:#2afbfe;}.ag{fill:#460689;}.ah{fill:#efb185;}.ai{fill:#111114;}.aj{fill:#43008d;}.ak{fill:#37007f;}.al{fill:#5d0ca6;}.am{fill:#feffff;}.an{fill:#dd9569;}.ao{fill:#f2b78f;}.ap{fill:#e6a376;}.aq{fill:#9a45f4;}.ar{fill:#8c2ddf;}.as{fill:#b4b9bc;}.at{fill:#7d8183;}.au{fill:#e3e5e5;}.av{fill:#bdbbbb;}.aw{fill:#d2d0d0;}.ax{fill:#d5dfe6;}.ay{fill:#e9f0f4;}.az{fill:#e8a476;}.ba{fill:#db9669;}.bb{fill:#f1b287;}</style></defs><g transform="translate(-916 -80)"><path class="a" d="M1419.6,451.014c28.121-26.845,34.84-81.653,8.793-119.76-21.71-31.762-61.7-64.433-112.089-73.957s-94.538-9.513-113.63,3.069c-15.624,10.3-8.361,24.637-3.461,36.822,6.541,16.268,7.5,29.183-19.4,52.815-30.717,26.976-39.031,37.1-40.57,63.188-1.252,21.216,16.46,49.752,39.7,53.841,32.356,5.694,44.366-9.344,76.021-19.48,25.394-8.132,43.006-4.329,66.03,11.255S1378.335,490.408,1419.6,451.014Z" transform="translate(-223.179 -153.5)"/><g transform="translate(719.875 -316)"><rect class="b" width="260" height="260" transform="translate(219.124 396)"/><g transform="translate(265.638 424.416)"><g class="c" transform="translate(1.415 113.069)"><path d="M527.432,454.434c30.757,17.762,30.918,46.549.373,64.3-30.562,17.767-80.259,17.767-111.022,0s-30.929-46.545-.362-64.307C446.968,436.674,496.671,436.674,527.432,454.434Z" transform="translate(-393.604 -441.113)"/></g><g transform="translate(13.325 89.604)"><g transform="translate(0.054)"><path class="d" d="M520,442.529c27.8,16.049,27.954,42.071.327,58.126s-72.553,16.053-100.356,0-27.95-42.077-.329-58.126S492.2,426.474,520,442.529Z" transform="translate(-399.021 -430.487)"/></g><g transform="translate(13.904 6.589)"><path class="e" d="M502.654,443.12c-10.771-6.221-25-9.649-40.081-9.649S433.3,436.9,422.592,443.12c-11.173,6.5-17.314,15.3-17.3,24.785,0,.214,0,.435.015.649.287,9.3,6.493,17.9,17.539,24.282,10.773,6.214,25.008,9.644,40.081,9.644s29.277-3.43,39.986-9.649c10.881-6.325,16.989-14.843,17.283-24.052.009-.241.011-.484.011-.729C520.2,458.5,513.963,449.65,502.654,443.12Zm11.755,26.325c.011,7.332-5.108,14.35-14.41,19.754-10.2,5.928-23.621,8.889-37.071,8.889s-26.905-2.961-37.177-8.893c-9.441-5.448-14.644-12.526-14.655-19.916,0-.245,0-.486.011-.724-.007-.219-.011-.439-.011-.658-.011-7.334,5.1-14.353,14.41-19.761,10.2-5.925,23.624-8.885,37.066-8.885s26.914,2.964,37.179,8.893c9.441,5.448,14.646,12.522,14.657,19.916,0,.228-.007.457-.015.693v.013C514.4,469,514.409,469.219,514.409,469.444Z" transform="translate(-405.293 -433.471)"/><g transform="translate(0 1.389)"><path class="f" d="M520.2,468.019c-.287-9.3-6.493-17.9-17.544-24.275-10.771-6.221-25-9.644-40.081-9.644s-29.277,3.423-39.981,9.649c-10.881,6.323-16.992,14.838-17.283,24.045-.011.247-.015.488-.015.735.015,9.549,6.248,18.4,17.555,24.929,10.773,6.217,25.008,9.646,40.081,9.646s29.277-3.43,39.986-9.649c11.168-6.493,17.31-15.291,17.294-24.781C520.209,468.459,520.206,468.242,520.2,468.019Zm-109.09-.225c.32-7.074,5.4-13.8,14.4-19.03,10.2-5.93,23.624-8.889,37.066-8.889s26.914,2.964,37.179,8.893c9.145,5.276,14.32,12.082,14.642,19.224v.013c.009.23.015.453.015.678.011,7.332-5.108,14.35-14.41,19.754-10.2,5.927-23.621,8.889-37.071,8.889s-26.905-2.962-37.177-8.893c-9.441-5.448-14.644-12.526-14.655-19.916C411.1,468.273,411.1,468.032,411.108,467.794Z" transform="translate(-405.293 -434.1)"/></g></g><g transform="translate(0 40.901)"><g class="g"><g class="g"><path class="h" d="M540.977,449.412l-.051,17.323c-.035,10.453-6.906,20.89-20.627,28.864-27.623,16.051-72.556,16.051-100.358,0-13.99-8.078-20.98-18.683-20.945-29.268l.055-17.323c-.029,10.585,6.957,21.188,20.947,29.266,27.8,16.053,72.732,16.053,100.355,0C534.076,470.3,540.95,459.865,540.977,449.412Z" transform="translate(-398.997 -449.008)"/></g></g></g></g><g transform="translate(6.475 0)"><g transform="translate(39.235 112.892)"><path class="i" d="M474.631,447.1c14,8.087,14.079,21.21.155,29.3s-36.561,8.083-50.562,0c-14.017-8.092-14.092-21.214-.177-29.3S460.619,439.011,474.631,447.1Z" transform="translate(-413.661 -441.033)"/></g><g class="j" transform="translate(31.179 107.781)"><path class="i" d="M484.72,446.155c17.157,9.9,17.248,25.98.19,35.892s-44.8,9.907-61.955,0c-17.173-9.916-17.263-25.993-.219-35.9C439.8,436.24,467.547,436.24,484.72,446.155Z" transform="translate(-410.013 -438.718)"/></g><g transform="translate(46.277 115.484)"><path class="a" d="M465.811,447.077c11.248,6.495,11.307,17.029.126,23.526s-29.363,6.5-40.6,0c-11.256-6.5-11.316-17.031-.144-23.526S454.557,440.582,465.811,447.077Z" transform="translate(-416.85 -442.206)"/></g><g transform="translate(50.711 34.34)"><g transform="translate(0 83.452)"><path class="k" d="M426.027,447.362c-9.56,5.548-9.523,14.417-.106,19.893s24.779,5.556,34.352,0c9.492-5.477,9.543-14.4.11-19.893C450.931,441.881,435.521,441.881,426.027,447.362Z" transform="translate(-418.858 -443.251)"/></g><g class="l" transform="translate(0 69.543)"><path class="m" d="M426.027,441.065c-9.56,5.545-9.523,14.417-.106,19.893,9.43,5.492,24.779,5.554,34.352,0,9.492-5.477,9.543-14.4.11-19.893C450.931,435.583,435.521,435.583,426.027,441.065Z" transform="translate(-418.858 -436.954)"/></g><g class="n" transform="translate(0 55.634)"><path class="o" d="M426.027,434.771c-9.56,5.537-9.523,14.41-.106,19.891s24.779,5.548,34.352,0c9.492-5.481,9.543-14.4.11-19.891C450.931,429.283,435.521,429.283,426.027,434.771Z" transform="translate(-418.858 -430.655)"/></g><g class="j" transform="translate(0 41.725)"><path class="p" d="M426.027,428.473c-9.56,5.536-9.523,14.41-.106,19.891s24.779,5.545,34.352,0c9.492-5.481,9.543-14.4.11-19.891C450.931,422.985,435.521,422.985,426.027,428.473Z" transform="translate(-418.858 -424.357)"/></g><g class="q" transform="translate(0 27.818)"><path class="r" d="M426.027,422.174c-9.56,5.534-9.523,14.41-.106,19.894s24.779,5.541,34.352,0c9.492-5.484,9.543-14.4.11-19.894C450.931,416.689,435.521,416.689,426.027,422.174Z" transform="translate(-418.858 -418.06)"/></g><g class="s" transform="translate(0 13.909)"><path class="t" d="M426.027,415.879c-9.56,5.528-9.523,14.406-.106,19.894s24.779,5.536,34.352,0c9.492-5.488,9.543-14.408.11-19.894C450.931,410.389,435.521,410.389,426.027,415.879Z" transform="translate(-418.858 -411.761)"/></g><g class="u"><path class="v" d="M426.027,409.581c-9.56,5.525-9.523,14.408-.106,19.894s24.779,5.534,34.352,0c9.492-5.486,9.543-14.406.11-19.894C450.931,404.091,435.521,404.091,426.027,409.581Z" transform="translate(-418.858 -405.464)"/></g></g><path class="w" d="M470.878,400.678s-2.153,14.712-17.93,23.144v13.6s17.292-9.7,18.16-19.867Z" transform="translate(-326.95 -376.906)"/><path class="x" d="M419.817,430.65s-19.77-9.309-22.5-30.492L395.9,414.97s0,17.177,24.277,26.468Z" transform="translate(-395.895 -377.535)"/><path class="x" d="M417.422,393.975l-.02,5.117s13.114-4.5,36.907-2.465V392.21A90.473,90.473,0,0,0,417.422,393.975Z" transform="translate(-369.905 -388.471)"/><path class="y" d="M396.418,447.009c3.282-6.336,11.53-15.651,20.393-20.439,9.11-4.923,20.83-9.9,32.318-11.318l-.146-19.776c-11.486,1.413-22.4,4.549-31.5,9.472C398.885,415,394.179,429.339,396.418,447.009Z" transform="translate(-395.886 -383.194)"/><path class="y" d="M484.12,448.47c4.613-17.171-.314-31.629-18.489-42.892a85.23,85.23,0,0,0-22.641-9.523l-.669,21.623a85.159,85.159,0,0,1,22.641,9.523C473.687,432.6,481.2,441.845,484.12,448.47Z" transform="translate(-339.792 -382.493)"/><path class="y" d="M460.355,418.284l.667-21.623a119.166,119.166,0,0,0-37.868-.8l-.669,21.623A119.183,119.183,0,0,1,460.355,418.284Z" transform="translate(-363.763 -384.104)"/><g transform="translate(25.777 18.364)"><g transform="translate(8.356)"><path class="f" d="M499.4,445.9c1.221-20-23.842-59.352-66.77-44.33-24.56,8.6-30.3,22.442-4.207,41.521,0,0-.28,10.662,20.2,8.979,0,0,13.187-.561,22.091,6.173C480.144,465.369,498.849,454.926,499.4,445.9Z" transform="translate(-411.351 -398.229)"/></g><g transform="translate(16.336 3.553)"><path class="z" d="M416.172,409.979c.069-.066,6.826-6.919,16.049-7.321a88.654,88.654,0,0,1,9.914.389c7.621.574,16.859.883,24.43-2.3l-2.014-.91c-7.2,3.023-14.865,2.091-22.292,1.53a89.559,89.559,0,0,0-10.11-.393c-9.9.433-16.89,7.533-17.184,7.833Z" transform="translate(-414.964 -399.838)"/></g><g transform="translate(45.241 0.403)"><path class="z" d="M428.292,403.906l1.444-.236a3.308,3.308,0,0,1,.09-.919c.347-.579,3.176-2.626,10.543-3.8l-2.719-.543c-6.323,1-8.577,1.864-9.414,3.748A1.885,1.885,0,0,0,428.292,403.906Z" transform="translate(-428.052 -398.412)"/></g><g transform="translate(52.05 5.67)"><path class="z" d="M446.75,413.65l1.667-1.208c-2.617-3.843-9.781-9.313-13.955-11.124-.859-.375-.307-.113-1.195-.521l-2.131.888c.9.415,1.784.8,2.652,1.177C437.907,404.653,444.406,410.209,446.75,413.65Z" transform="translate(-431.136 -400.797)"/></g><g transform="translate(65.668 16.834)"><path class="z" d="M463.448,417.7l-.923-1.787a38.38,38.38,0,0,1-6.771-1.959,9.529,9.529,0,0,1-4.055-3.408c-1.374-1.685-2.937-3.6-5.883-4.395a7.62,7.62,0,0,0-8.514,3.107l1.435.879a5.932,5.932,0,0,1,6.632-2.363c2.432.656,3.695,2.2,5.029,3.834a10.984,10.984,0,0,0,4.784,3.929A46.487,46.487,0,0,0,463.448,417.7Z" transform="translate(-437.302 -405.852)"/></g><g transform="translate(73.561 9.944)"><path class="z" d="M450.081,417.919c4.282-8.26-7.893-14.9-8.408-15.187l-.8,1.484c.108.062,11.234,6.139,7.712,12.928Z" transform="translate(-440.876 -402.732)"/></g><g transform="translate(73.618 25.984)"><path class="z" d="M456.394,441.937c.353-.316,7.738-6.486,4.441-13.147a23.428,23.428,0,0,0-5.19-6.6c-1.791-1.74-3.085-2.99-3.037-4.746.075-2.8-2.533-5.486-5.146-6.689-2.533-1.164-4.927-.987-6.561.486l1.124,1.248c1.579-1.424,3.832-.616,4.735-.2,2.383,1.1,4.212,3.348,4.167,5.117-.068,2.489,1.606,4.114,3.542,5.991a21.836,21.836,0,0,1,4.854,6.142c2.732,5.517-5.709,13.871-5.786,13.935Z" transform="translate(-440.902 -409.995)"/></g><g transform="translate(84.477 33.412)"><path class="z" d="M456.57,417.635l-.7-2.372c-4.178-3.456-9.741-1.177-10.048-1.058l.61,1.57C446.486,415.749,453.621,413.4,456.57,417.635Z" transform="translate(-445.819 -413.358)"/></g><g transform="translate(83.006 40.961)"><path class="z" d="M445.981,430.633c7.12-6.616,6.915-13.445,6.888-13.5l-1.756-.356h0l.186.958c.066.181-2.133,7.319-6.146,10.861Z" transform="translate(-445.153 -416.777)"/></g><path class="aa" d="M470.706,455.078c-8.9-6.733-22.091-6.173-22.091-6.173-20.479,1.683-20.2-8.979-20.2-8.979-16.689-12.2-20.342-22.261-14.388-30.18a59.384,59.384,0,0,1,12.005-5.556c42.919-15.022,67.989,24.332,66.767,44.33a10.061,10.061,0,0,1-2.12,5.2C484.369,457.511,476.048,459.115,470.706,455.078Z" transform="translate(-402.989 -395.064)"/><g transform="translate(0 9.42)"><path class="d" d="M491.348,449.568c1.224-20-18.8-57.512-66.77-44.328-10.062,2.765-30.3,22.447-4.211,41.521,0,0-.276,10.662,20.2,8.975a75.6,75.6,0,0,1,21.715,10.616C476.8,477.05,490.8,458.6,491.348,449.568Z" transform="translate(-407.567 -402.495)"/></g><g transform="translate(61.134 63.618)"><path class="ab" d="M442.844,430.2l1.188-1.2a7.655,7.655,0,0,0-8.783-1.045l.755,1.506A5.919,5.919,0,0,1,442.844,430.2Z" transform="translate(-435.249 -427.036)"/></g><g class="ac" transform="translate(0 13.2)"><g transform="translate(16.899 3.048)"><path class="f" d="M429.971,419.448l1.652-.327c-.029-.144-3-14.152-16.4-13.513l.084,1.676C427.31,406.681,429.867,418.931,429.971,419.448Z" transform="translate(-415.219 -405.586)"/></g><g transform="translate(10.294)"><path class="f" d="M413.25,443.566l1.484,1.126c-.024-.046-1.747-5.007-.117-7.6.857-1.365,2.767-1.994,5.662-1.895l1.226.049c6.824.263,11.323.435,13.549-2.208,1.469-1.742,1.723-4.439.811-8.743-1.656-7.824-1.263-13.2,1.159-15.969,1.63-1.859,4.3-2.657,7.928-2.385,7.376.561,10.09,5.453,11.166,20.119.225,3.028,2.937,6.274,6.91,8.273,3.1,1.566,9.832,5.437,20.514-1.334l-.568-1.608c-9.958,6.309-16.345,2.869-19.191,1.44-3.933-1.979-5.835-4.887-5.983-6.9-1-13.5-3.317-20.958-12.72-21.671-4.183-.314-7.323.678-9.322,2.955-2.831,3.24-3.337,8.938-1.541,17.427.78,3.692.638,6.016-.446,7.308-1.7,2.014-6.106,1.848-12.2,1.612l-1.23-.049c-3.527-.124-5.947.773-7.151,2.688C411.049,439.615,413.136,443.348,413.25,443.566Z" transform="translate(-412.228 -404.206)"/></g><g transform="translate(23.595 29.473)"><path class="f" d="M433.063,428.623l1.672-.161c-1.115-11.672-16.336-10.912-16.484-10.894l.095,1.681C418.9,419.219,432.1,418.572,433.063,428.623Z" transform="translate(-418.251 -417.552)"/></g><g transform="translate(14.24 5.324)"><path class="f" d="M415.629,414.907c1.9-6.484,9.682-6.608,9.759-6.612l-.013-1.678c-.091,0-9.11.148-11.36,7.811Z" transform="translate(-414.015 -406.617)"/></g><g transform="translate(53.189 20.361)"><path class="f" d="M444.546,437.1l.614-1.566c-16.3-6.362-11.2-20.912-10.972-21.528l-1.583-.583C432.547,413.594,426.728,430.153,444.546,437.1Z" transform="translate(-431.651 -413.426)"/></g><g transform="translate(53.98 35.001)"><path class="f" d="M435.01,433.767l1.142-1.239c-4.737-4.357-1.1-11.627-1.065-11.7l-1.5-.771C433.411,420.4,429.343,428.555,435.01,433.767Z" transform="translate(-432.01 -420.055)"/></g><g transform="translate(41.607 7.298)"><path class="f" d="M438.149,414.072l1.369-.969c-.057-.082-5.7-7.875-13.111-4.925l.621,1.566C433.229,407.279,438.1,414.008,438.149,414.072Z" transform="translate(-426.407 -407.511)"/></g><g transform="translate(60.06 34.678)"><path class="f" d="M438.118,443.23c7.657-.7,7.928-6.616,9.6-12,.59-1.928.97-3.86,1.9-5.141,2.977-4.094,5.625-4.353,8.527-4.494l-.287-1.67a10.2,10.2,0,0,0-9.724,5.367,32.112,32.112,0,0,0-2.029,5.444c-1.672,5.4-4.806,11.654-11.34,12.248Z" transform="translate(-434.763 -419.909)"/></g><g transform="translate(60.669 19.818)"><path class="f" d="M435.068,422.846l1.676-.152c-.561-6.44,10.112-7.833,10.218-7.847l-.205-1.667C446.247,413.24,434.364,414.805,435.068,422.846Z" transform="translate(-435.038 -413.18)"/></g><g transform="translate(63.094 10.242)"><path class="f" d="M437.409,422.24l1.433-.883c-3.065-4.982,1.818-11.422,1.864-11.486l-1.329-1.027C439.145,409.144,433.741,416.275,437.409,422.24Z" transform="translate(-436.137 -408.844)"/></g><g transform="translate(4.905 12.989)"><path class="f" d="M419.728,427.773l1.522-.724c-1.555-3.271-2.456-3.9-5.448-5.981-.6-.408-1.274-.888-2.076-1.458-4.154-2.975-1.283-8.695-1.254-8.75l-1.5-.773c-1.252,2.436-2.487,7.842,1.773,10.9.806.572,1.5,1.051,2.1,1.471C417.76,424.48,418.367,424.9,419.728,427.773Z" transform="translate(-409.788 -410.088)"/></g><g transform="translate(0 20.089)"><path class="f" d="M411.86,418.581a8.851,8.851,0,0,0,4.543-1.48l-.958-1.383c-.022.015-2.317,1.572-4.457,1.082-1.06-.243-2.734-2.308-3.421-3.5l.157,2.639c.928,1.621,1.358,2.153,2.9,2.5A5.488,5.488,0,0,0,411.86,418.581Z" transform="translate(-407.567 -413.303)"/></g><g transform="translate(30.81 33.174)"><path class="f" d="M428.89,435.31c.188,0,.3-.13.47-.3.583-.612-.033-1.208-.294-1.462l-.029.031c-.367-.32-1.349-1.2-3.986-3.624a4.737,4.737,0,0,1-1.835-3.852c.241-3,3.878-5.439,3.918-5.461l-.928-1.411c-.179.117-4.364,2.926-4.671,6.738a6.318,6.318,0,0,0,2.374,5.225c2.1,1.928,3.291,3.023,4.01,3.593.046.042.137.128.181.172l.022-.022A1.5,1.5,0,0,0,428.89,435.31Z" transform="translate(-421.518 -419.228)"/></g><g transform="translate(22.93 39.36)"><path class="f" d="M419.377,426.369a5.258,5.258,0,0,1,3.24-2.562,5.4,5.4,0,0,1,3.666.693l.921-1.4a6.971,6.971,0,0,0-4.942-.932,6.87,6.87,0,0,0-4.311,3.313Z" transform="translate(-417.95 -422.029)"/></g><g transform="translate(32.943 17.859)"><path class="f" d="M423.716,418.207c.038-.04,4.006-4.227,7.816-4.227h.044a4.637,4.637,0,0,1,3.531,1.669l1.243-1.126a6.334,6.334,0,0,0-4.768-2.231c-4.5.013-8.918,4.567-9.1,4.761Z" transform="translate(-422.484 -412.293)"/></g><g transform="translate(18.297 7.722)"><path class="f" d="M417.164,420.07c4.616-4.408.336-12.043.148-12.367l-1.46.832c.035.064,3.814,6.82.152,10.313Z" transform="translate(-415.852 -407.703)"/></g><g transform="translate(47.232 39.584)"><path class="f" d="M430.438,426.2c1.5-2.814,6.051-2.356,6.1-2.352l.185-1.67c-.234-.024-5.746-.594-7.769,3.231Z" transform="translate(-428.954 -422.13)"/></g></g><path class="ad" d="M491.347,443.061c-.55,9.028-13.864,26.161-26.223,18.522a150.147,150.147,0,0,0-24.556-12.354c-20.479,1.687-20.2-8.975-20.2-8.975-16.429-12.012-14.481-24.257-8.284-32.376-4.154,13.03,9.518,24.271,13.781,28.941,4.666,5.117,10.349,4,17.508,3.189s6.312,3.083,23.427,8.472c14.185,4.468,22.19-5.793,24.52-9.443A30.719,30.719,0,0,1,491.347,443.061Z" transform="translate(-407.566 -386.568)"/></g><path class="y" d="M396.675,410.809c-2.8,22.239,1.965,39.893,25.194,52.742a104.993,104.993,0,0,0,22.581,9.037V446.579a105,105,0,0,1-22.581-9.037C410.72,431.378,400.6,418.653,396.675,410.809Z" transform="translate(-395.82 -364.664)"/><path class="y" d="M484.569,410.809c-3.805,7.763-14.425,19.224-25.309,25.393a99.467,99.467,0,0,1-16.669,7.4l.21,26a98.336,98.336,0,0,0,16.671-7.4C482.3,449.271,486.307,430.641,484.569,410.809Z" transform="translate(-339.466 -364.664)"/><path class="ae" d="M463.532,452.741V426.693A154.377,154.377,0,0,1,420,429.5v25.991A154.57,154.57,0,0,0,463.532,452.741Z" transform="translate(-366.761 -345.469)"/><path class="w" d="M425.58,400.652S407.8,405.488,399.644,415.9v-9.834s6.793-6.932,25.936-14.167Z" transform="translate(-391.365 -387.514)"/><path class="w" d="M438.474,389.914V399.5s18.412.689,41.046,16.042V403.476S465.446,393.788,438.474,389.914Z" transform="translate(-344.441 -389.914)"/><path class="af" d="M401.308,413.423a47.118,47.118,0,0,1,4.322-3.149,92.422,92.422,0,0,1,12.343-6.851c2.666-1.212,5.6-2.427,8.761-3.558a93.484,93.484,0,0,1,10.123-3,107.548,107.548,0,0,1,11.115-2.058,106.282,106.282,0,0,1,11.643-.841,104.729,104.729,0,0,1,11.66.521c1.921.152,3.807.484,5.678.713,1.868.267,3.688.663,5.495.987a100.582,100.582,0,0,1,10.216,2.67c1.612.462,3.151,1,4.627,1.553s2.935,1.014,4.28,1.6c2.692,1.142,5.183,2.136,7.286,3.242,2.124,1.058,4,1.919,5.472,2.787,2.964,1.67,4.66,2.628,4.66,2.628s-1.747-.855-4.806-2.343c-1.5-.793-3.416-1.566-5.576-2.522-2.144-.994-4.669-1.86-7.365-2.935-1.349-.539-2.807-.947-4.287-1.458s-3.019-1-4.633-1.409c-3.189-.932-6.608-1.683-10.148-2.425-1.787-.294-3.589-.678-5.435-.919-1.848-.208-3.71-.517-5.607-.652a103.99,103.99,0,0,0-11.49-.411,102.092,102.092,0,0,0-22.464,2.65,110.946,110.946,0,0,0-18.836,6.02c-2.655,1.162-5.086,2.253-7.184,3.335s-3.907,2.074-5.36,2.946C402.874,412.265,401.308,413.423,401.308,413.423Z" transform="translate(-389.354 -385.036)"/><path class="af" d="M406.19,427.038s1.561.992,4.448,2.429a98.824,98.824,0,0,0,12.305,5.106c2.615.864,5.461,1.769,8.533,2.482,3.056.753,6.327,1.376,9.721,1.866a94.07,94.07,0,0,0,10.532.932,90.609,90.609,0,0,0,10.9-.371l2.73-.241,2.71-.384c1.809-.212,3.584-.6,5.353-.945a91.81,91.81,0,0,0,10.205-2.747c3.246-1.122,6.367-2.264,9.238-3.558.727-.316,1.438-.625,2.14-.928.689-.347,1.358-.687,2.023-1.014,1.321-.682,2.637-1.268,3.825-1.963,2.379-1.389,4.629-2.553,6.493-3.8,1.888-1.208,3.576-2.208,4.861-3.18l4.156-2.915s-1.442,1.155-3.966,3.173c-1.241,1.036-2.882,2.118-4.72,3.43-1.806,1.354-4.006,2.635-6.371,4.1-1.179.733-2.487,1.369-3.8,2.1-.66.353-1.334.711-2.012,1.082-.7.327-1.413.665-2.133,1a84.45,84.45,0,0,1-9.278,3.816,94.693,94.693,0,0,1-10.349,2.9c-1.791.362-3.593.777-5.431,1.014l-2.756.413-2.778.272a90.579,90.579,0,0,1-11.093.269,95.47,95.47,0,0,1-10.693-1.053,80.492,80.492,0,0,1-9.81-2.118c-3.087-.815-5.932-1.82-8.542-2.765a87.378,87.378,0,0,1-12.144-5.689A45.361,45.361,0,0,1,406.19,427.038Z" transform="translate(-383.454 -356.21)"/><path class="af" d="M499.426,424.795a22.93,22.93,0,0,1-1.515,3.291,38.489,38.489,0,0,1-2.231,3.529,23.923,23.923,0,0,1-1.544,2.058c-.583.693-1.142,1.473-1.851,2.173-.689.715-1.413,1.462-2.155,2.233-.757.769-1.628,1.46-2.471,2.226a59.68,59.68,0,0,1-5.7,4.366q-1.6.957-3.255,1.946a31.111,31.111,0,0,1-3.405,1.868,67.072,67.072,0,0,1-7.23,3.229c-1.243.457-2.491.914-3.73,1.371-1.25.433-2.535.726-3.787,1.089s-2.5.693-3.735,1.031c-1.226.364-2.484.517-3.7.78-2.438.444-4.781.983-7.043,1.2s-4.393.448-6.363.647a42.1,42.1,0,0,1-5.389.289c-1.6.029-3.006.055-4.158.073-2.3.022-3.617.031-3.617.031l3.6-.347,4.13-.362c1.592-.137,3.392-.272,5.333-.594,1.948-.285,4.052-.587,6.283-.914a32.4,32.4,0,0,0,3.39-.665c1.155-.241,2.332-.492,3.531-.746,1.193-.276,2.436-.444,3.639-.815q1.815-.53,3.664-1.076c1.23-.373,2.489-.68,3.712-1.12l3.642-1.394a65.721,65.721,0,0,0,7.135-3.068,29.884,29.884,0,0,0,3.363-1.78c1.082-.632,2.158-1.252,3.213-1.864q1.5-1.037,2.955-2.036c.481-.336.978-.647,1.435-.987.444-.362.89-.72,1.321-1.067.863-.716,1.742-1.363,2.515-2.078s1.5-1.429,2.208-2.1c.731-.651,1.294-1.411,1.919-2.049a22.215,22.215,0,0,0,1.656-1.915,38.747,38.747,0,0,0,2.44-3.326c.6-.972,1.089-1.734,1.36-2.286C499.294,425.1,499.426,424.795,499.426,424.795Z" transform="translate(-358.853 -347.763)"/></g><g transform="translate(112.409 98.953)"><path class="ag" d="M456.536,441.129a3.509,3.509,0,0,0-3.26,3.611c-.168,3.485,1.807,18.767,5.249,22.058s3.951-3.821,3.951-3.821S462.028,440.809,456.536,441.129Z" transform="translate(-432.5 -426.981)"/><path class="ah" d="M463.277,455.562s4.15,1.139,7.122.181,2.294-1.1,2.107-1.561c-.4-.985-4.225-1.04-4.909-1.281s.643-.7.974-1.153,1.038-.97.824-1.146-.791-.389-1.928.375a23.1,23.1,0,0,1-3.931,1.689Z" transform="translate(-420.403 -415.733)"/><path class="ag" d="M473.575,452.819a7.364,7.364,0,0,0-.378,1.86,4.265,4.265,0,0,0,.424,2.213s-13.97,1.621-17.318-.439c0,0-2.944-5.484,2.334-6.44Z" transform="translate(-429.82 -416.243)"/><path class="ag" d="M460.14,466.574a2.015,2.015,0,0,1-1.106-.448.313.313,0,0,0-.051-.022l-.007-.027a3.975,3.975,0,0,1-.451-.367c-3.443-3.291-5.417-18.573-5.249-22.058a4.254,4.254,0,0,1,.4-1.628c.8,3.964,4.569,22.159,6.153,22.608,1.451.408,12.224.658,16.1.742a4.142,4.142,0,0,0,.373,1.168S464.756,467.875,460.14,466.574Z" transform="translate(-432.5 -425.894)"/><g transform="translate(7.077 42.875)"><path class="ai" d="M461.648,473.027s-.784,2.752,1.151,3.445a16.85,16.85,0,0,1,4.273,2.109c.74.583,9.066,4.125,10.095,2.451s-1.455-3.571-2.087-4.154-6.307-5.486-6.307-5.486Z" transform="translate(-429.638 -433.28)"/><path class="ai" d="M458.6,475.2s-.782,2.752,1.159,3.449a16.869,16.869,0,0,1,4.267,2.1c.744.592,9.066,4.125,10.09,2.456s-1.46-3.567-2.08-4.154-6.307-5.486-6.307-5.486Z" transform="translate(-433.32 -430.658)"/><path class="aj" d="M458.114,454.135s20.41,12.831,21,16.1.466,22.488.466,22.488-5.234,2.253-7.751.846l-2.114-18.116s-16.064-11.853-16.766-12.288S458.114,454.135,458.114,454.135Z" transform="translate(-440.035 -454.135)"/><path class="ak" d="M452.946,460.2c.7.435,16.766,12.288,16.766,12.288l2.113,18.116c1.217.682,3.065.5,4.644.144-.716-5.5-2.332-17.612-2.917-20.682-.762-4.008-17.23-13.485-17.23-13.485l-3.352,3.132C452.877,459.974,452.855,460.146,452.946,460.2Z" transform="translate(-440.034 -451.176)"/><path class="aj" d="M465.169,454.355s-2.356,7.005-3.584,8.538c0,0,16.311,8.635,17.146,12.807s1.855,22.036,1.855,22.036a10.21,10.21,0,0,1-8.56.634s-1.824-13.716-2.016-19.242c0,0-24.666-6.526-22.846-20.035C447.163,459.092,456.607,462.849,465.169,454.355Z" transform="translate(-447.068 -453.869)"/><path class="ak" d="M470,476.157c.192,5.526,2.016,19.242,2.016,19.242a11.221,11.221,0,0,0,2.4.561c-.137-2.144-.311-4.96-.526-8.67-.815-13.84-2.95-13.577-2.95-13.577-15.649-7.06-18.816-13.807-18.816-13.807l-5.024-3.092C446.192,469.847,470,476.157,470,476.157Z" transform="translate(-447.057 -450.899)"/></g><path class="al" d="M455.333,442.558s-7.783,3.969-7.977,4.567-2.213,2.045.669,8.887c0,0,3.867,7.431,1.932,14.854a46.3,46.3,0,0,1-2.135,6.557s3.454,5.126,13.169,1.553c1.961-.72,5.256-3.4,6.257-5.548a50.411,50.411,0,0,1,.307-13.767c1.212-7.418,1.9-17.047-2.314-18.323C465.24,441.337,464.173,440.038,455.333,442.558Z" transform="translate(-440.691 -427.13)"/><path class="am" d="M451.733,440.629s5.658,2.979,3.138,7.246l2.659,1.462S460.14,441.87,451.733,440.629Z" transform="translate(-434.353 -427.581)"/><path class="ah" d="M450.09,439.268s2.381,3.613.49,6.06c-1.056,1.358,1.431,4.6,5.671,4.34,0,0,1.89-.466,1.7-1.153-.439-1.561.188-2.44.866-3.633S450.09,439.268,450.09,439.268Z" transform="translate(-436.338 -429.226)"/><path class="an" d="M450.433,445.2a1.1,1.1,0,0,0-.221.561c1.594-1.623,4.638-1.742,4.638-1.742l-4.028-4.456c-.155-.073-.292-.135-.4-.19l-.126.393C450.875,440.9,451.84,443.381,450.433,445.2Z" transform="translate(-436.191 -429.099)"/><path class="ao" d="M455.11,446.292c-.4-2.476.188-2.44.866-3.633.186-.331-.393-.9-1.325-1.553a2.8,2.8,0,0,0-.685.777,7.584,7.584,0,0,0-1.435,5.561,4.513,4.513,0,0,0,.881,0C453.92,447.366,455.232,447.056,455.11,446.292Z" transform="translate(-433.499 -427.004)"/><g transform="translate(12.199 0.086)"><path class="ah" d="M449.855,442.568s1.036,4.788,4.326,6.961c2.919,1.919,6.316,3.182,6.937-.3.5-2.769,1.86-9.812-.585-11.232-3.149-1.82-4.3-4.072-7.95-2.725C452.582,435.269,448.415,437.18,449.855,442.568Z" transform="translate(-449.187 -434.64)"/><path class="ap" d="M449.855,441.725a10.756,10.756,0,0,0,4.313,7.021,13.994,13.994,0,0,0,2.763,1.471,13.134,13.134,0,0,1-2.882-2.864c-1.195-1.387,1.773-.852-.254-4.39-.682-1.208,2.685.345,3.441.325,4.49-.108,4.154-2.683,4.245-3.765a7.709,7.709,0,0,0-.371-1.329l-.426-.819c-.051-.077-.1-.155-.15-.221a15.143,15.143,0,0,0-1.46-1.594c-1.919.038-7.385.159-7.5.185-.077.02-1.014,1.294-1.886,2.5A7.281,7.281,0,0,0,449.855,441.725Z" transform="translate(-449.188 -433.797)"/><path class="aq" d="M452.026,447.324a8.648,8.648,0,0,1-2.372-8.125,5.607,5.607,0,0,1,4.951-4.366c2.045-.241,5.974-.113,7.531,4.011.484,1.283.155,4.108-4.9,2.791-.729-.194-2.648-.444-3.326.172a2.644,2.644,0,0,0-.426,2.743c.289.859-.473.95-.576.769s-1.073-2.63-1.985-1.674C450.1,444.508,451.933,447.156,452.026,447.324Z" transform="translate(-449.387 -434.76)"/><path class="ar" d="M452.026,446.4c-.093-.168-1.928-2.816-1.1-3.679.912-.956,1.882,1.493,1.985,1.674s.866.091.576-.769a2.644,2.644,0,0,1,.426-2.743c.618-.557,2.3-.272,3.326-.172-.844-.539-2.513-.724-3.109-2.122a4.93,4.93,0,0,0-2.977-3.07,5.768,5.768,0,0,0-1.5,2.756A8.649,8.649,0,0,0,452.026,446.4Z" transform="translate(-449.387 -433.839)"/></g><path class="am" d="M451.247,441.48a7.381,7.381,0,0,0,5.691,5.366l-1.38,3.368S446.892,445.877,451.247,441.48Z" transform="translate(-436.419 -426.553)"/><path class="ag" d="M447.356,444.025c-.194.605-2.213,2.045.669,8.887,0,0,3.251,7.372,1.561,14.785-.727,3.182-1.071,2.416-2.284,5.121-.7,1.544,2.575,3.933,5.8,4.218,1.661-3.931,1.2-3.9,1.9-8.2.943-5.9.28-10.748-4.556-16.663-4.245-5.207-2.458-7.228-2.553-8.6A1.648,1.648,0,0,0,447.356,444.025Z" transform="translate(-440.691 -424.03)"/><path class="aq" d="M461.265,438.891s.742,4.6-5.121,2.939a6.757,6.757,0,0,1-4.114-3.5,2.659,2.659,0,0,0-1.921-1.643s1.564-2.217,5.6-1.937c1.9.139,3.876,1.985,4.355,2.288S459.768,439.257,461.265,438.891Z" transform="translate(-436.316 -434.721)"/><g transform="translate(14.957 36.9)"><g transform="translate(0 6.198)"><g class="g"><g transform="translate(0 9.2)"><path class="as" d="M450.694,458.4l-.058.742,10.712,7.635.065-.742Z" transform="translate(-450.636 -458.402)"/></g><g transform="translate(10.712 7.639)"><path class="at" d="M455.551,466.891l-.065.742,20.01-9.2.065-.742Z" transform="translate(-455.486 -457.695)"/></g><g transform="translate(0.058)"><path class="au" d="M450.662,463.437l10.719,7.635,20.01-9.2-10.71-7.639Z" transform="translate(-450.662 -454.236)"/></g></g></g><g transform="translate(9.856)"><g class="g"><g transform="translate(0 9.606)"><path class="av" d="M459.233,456.521l-.794-.742L455.1,469.168l.8.742Z" transform="translate(-455.099 -455.779)"/></g><g transform="translate(3.341)"><path class="aw" d="M478.32,452.167l-.8-.738-20.911,9.606.794.742Z" transform="translate(-456.611 -451.43)"/></g><g transform="translate(0.798 0.738)"><path class="ax" d="M458.8,461.374l-3.336,13.389,20.913-9.619,3.338-13.38Z" transform="translate(-455.46 -451.764)"/></g><g transform="translate(4.134 0.738)"><path class="ay" d="M456.971,461.374h0l17.577,3.77,3.338-13.38Z" transform="translate(-456.971 -451.764)"/></g></g></g></g><g transform="translate(0 18.871)"><path class="ah" d="M452.56,460.277s3.858,4.658,8.513,4.631c0,0,.217-1.168-1.7-1.983a3.592,3.592,0,0,1-2.319-2.714c.064-.227,1.65-.064,2.354.031s1.734-.693.044-1.126-4.465-1.639-6.188-1.592C453.269,457.524,451.281,458.979,452.56,460.277Z" transform="translate(-433.872 -426.038)"/><path class="al" d="M453.761,443.266s-3.927.15-5.47,3.282-5.821,17.939-3.973,22.321,18.339,9.653,18.339,9.653a4.7,4.7,0,0,1,1.407-4.585l-13.418-8.876S457.1,445.388,453.761,443.266Z" transform="translate(-443.863 -443.266)"/><path class="al" d="M448.2,464.575l13.418,8.876a4.973,4.973,0,0,0-.742.872c-3.26-1.859-13.988-8.063-14.88-9.73-.974-1.813,5.02-18.363,5.961-20.925C453.611,448.072,448.2,464.575,448.2,464.575Z" transform="translate(-441.417 -442.78)"/></g></g><g transform="translate(0 102.751)"><path d="M400.878,472.027a9.715,9.715,0,0,1-1.442,4.379c-1.215,1.535-6.884,5.115-6.449,6.672s4.521,1.632,7.056-.991,3.218-3.032,4.309-3.282,2.63-1.643,1.464-4.026C405.816,474.779,402.313,473.84,400.878,472.027Z" transform="translate(-392.963 -393.437)"/><path d="M404.774,474.4a10.171,10.171,0,0,1-1.8,4.5c-1.385,1.53-7.555,4.889-7.2,6.55s4.622,2.019,7.458-.561,3.575-2.964,4.731-3.151,2.869-1.553,1.809-4.117C409.767,477.624,406.158,476.4,404.774,474.4Z" transform="translate(-389.589 -390.567)"/><path class="ak" d="M419.181,455.148s-20.461,11.471-21.7,15.088c-1.776,5.185-1.444,8.706-.585,21.563l-.057,3.023s2.628,2.135,5.492.691c.886-.444-.024-8.911,1.4-13.622,0,0,.448-5.594.013-7.078,0,0,16.51-5.729,20.371-9.271S419.181,455.148,419.181,455.148Z" transform="translate(-389.057 -413.834)"/><path class="aj" d="M432.759,458.763s3.255,7.358-5.413,11.837c-9.194,4.744-18.922,10.486-18.922,10.486a49.181,49.181,0,0,1-.47,9.324c-.978,4.742-2.414,10.932-2.414,10.932s-3.942,1.59-6.166-.57c0,0-.21-22.8,2.469-25.364s16.075-12.758,16.075-12.758l-2.573-7.5Z" transform="translate(-385.221 -413.834)"/><path class="ak" d="M424.874,468.818c-9.194,4.744-18.922,10.486-18.922,10.486a49.18,49.18,0,0,1-.47,9.324c-.978,4.741-1.672,10.711-1.672,10.711a12.114,12.114,0,0,1-2.394.5c1.36-6.117,1.966-19.739,2.591-22.25.775-3.1,10.475-6.426,17.369-10.07a13.809,13.809,0,0,0,7.206-10.892l1.7.358S433.542,464.339,424.874,468.818Z" transform="translate(-382.749 -412.052)"/><path class="aj" d="M396.438,491.382c-.855-12.864-.493-15.96,1.283-21.146,1.241-3.617,21.7-15.088,21.7-15.088a27.843,27.843,0,0,1,2.392,2.171c-5.521,2.721-18.752,9.593-21.221,14.229-2.833,5.318-.711,20.143-1,24.388a13.488,13.488,0,0,1-2.979-.751Z" transform="translate(-389.298 -413.834)"/><path class="ah" d="M406.325,453.191s-2.875-.484-4.117.552-2.211,1.367-2.752,2.449.1,1.634,1.056,1.583a9.458,9.458,0,0,0,3.973-1.458,3.523,3.523,0,0,1,2.155-.773C407.109,455.468,407.7,454.078,406.325,453.191Z" transform="translate(-385.356 -416.336)"/><path class="ag" d="M415.7,443.076c-1.4-.159-3.653.638-3.573,4.357s.448,14.136.448,14.136-9.635,2.862-10.691,3.372a2.555,2.555,0,0,1,1.469,2.889s11.142.221,13.142-2.454S421.433,443.723,415.7,443.076Z" transform="translate(-382.181 -428.444)"/><path class="al" d="M427.146,450.643s-3.339-5.777-16.607-7.67c0,0-2.113-.883-1.915,5.987.033.987-1,2.679-1.692,3.571s-2.54,4.335,1.5,8.449c0,0,1.561,6.122-.3,10.073-1.672,3.534,7.058,6.983,14.487,6.272.912-.09,2.942-.7,2.14-3.874s-2.685-8.774-1.2-14.644S428.144,453.627,427.146,450.643Z" transform="translate(-377.324 -428.591)"/><path class="ag" d="M420.537,448.327c1,2.984-2.089,2.29-3.587,8.165s.4,11.453,1.2,14.644-1.228,3.783-2.14,3.874a23.413,23.413,0,0,1-3.734.031c2.606-5.707-.731-16.051-.894-21.766-.177-6.047,5.307-8.416,5.307-8.421A11.861,11.861,0,0,1,420.537,448.327Z" transform="translate(-370.715 -426.275)"/><g transform="translate(31.651)"><path class="aq" d="M411.232,440.172s.87,6.857,1.285,13.4a2.19,2.19,0,0,1-2.69,2.153s-4.962-7.756-.994-15.45A7.374,7.374,0,0,1,419.808,438Z" transform="translate(-407.295 -436.439)"/><g transform="translate(2.532 8.892)"><path class="az" d="M408.442,444.3s2.379,2.774,1.283,5.755c-.3.828-1.042,4.192,4.055,2.8,0,0,5.294-2.7,3.7-4.3-1.067-1.058-2.1-2.6-.561-8.087Z" transform="translate(-408.442 -440.467)"/><path class="ba" d="M416.889,448.24a.884.884,0,0,1,.267.53,9.543,9.543,0,0,1-8.226-2.423l6.3-5.621h0s.322.219.806.581C414.948,445.864,415.9,447.257,416.889,448.24Z" transform="translate(-407.852 -440.153)"/></g><path class="bb" d="M410.131,438.259s-1.369.475-1.4,4.545c0,.455-.724,1.049-.908,2.166-.188,1.137-.42,5.662,2.206,6.142a8.1,8.1,0,0,0,8.162-5.453C419.751,441.092,415.831,435.222,410.131,438.259Z" transform="translate(-406.786 -435.254)"/><path class="aq" d="M408.93,440.869s11.678,4.258,2.935,19.306c0,0,6.091.583,8.792-4.658,1.3-2.529.78-7.612.382-12.458,0,0-1.358-7.462-7.6-6.332C413.44,436.728,409.308,438.311,408.93,440.869Z" transform="translate(-405.32 -436.234)"/><path class="aq" d="M410.589,441.075s-2.047-.38-3.032,3.377c0,0,.316-10.609,10.366-7.409C417.923,437.042,411.938,437.34,410.589,441.075Z" transform="translate(-406.979 -436.441)"/><path class="bb" d="M411.78,442.432s.709-2.253,2.005-1.561c.413.212.857.68.232,1.837s-1.893,2.222-2.915,2.1Z" transform="translate(-402.695 -431.246)"/></g><g transform="translate(7.043 35.979)"><g transform="translate(3.433 5.172)"><g class="g"><g transform="translate(16.678 7.669)"><path class="as" d="M414.185,458.547l.052.612-8.926,6.362-.052-.613Z" transform="translate(-405.259 -458.547)"/></g><g transform="translate(0 6.366)"><path class="at" d="M414.385,465.622l.052.613-16.675-7.665-.054-.613Z" transform="translate(-397.707 -457.957)"/></g><path class="au" d="M423.311,462.743l-8.926,6.362-16.678-7.665,8.926-6.367Z" transform="translate(-397.707 -455.074)"/></g></g><g class="g"><g transform="translate(17.43 8.01)"><path class="av" d="M404.045,456.976l.666-.617,2.778,11.159-.66.617Z" transform="translate(-404.045 -456.359)"/></g><path class="aw" d="M396.152,453.349l.664-.617,17.432,8.01-.666.617Z" transform="translate(-396.152 -452.732)"/><g transform="translate(0 0.617)"><path class="ax" d="M413.583,461.022l2.784,11.159-17.433-8.014-2.782-11.154Z" transform="translate(-396.152 -453.012)"/></g><g transform="translate(0 0.617)"><path class="ay" d="M413.583,461.022h0l-14.648,3.144-2.782-11.154Z" transform="translate(-396.152 -453.012)"/></g></g></g><g transform="translate(28.48 20.515)"><path class="ah" d="M412.027,455.609s-2.886.393-3.777,1.74-2.127,2.785-2.328,3.966.068,1.575.967,1.257a16.709,16.709,0,0,0,4.293-3.434,3.479,3.479,0,0,1,1.833-1.363C413.446,457.554,413.608,456.053,412.027,455.609Z" transform="translate(-405.859 -433.791)"/><path class="ba" d="M412.641,457.187a3.479,3.479,0,0,0-1.833,1.363,16.708,16.708,0,0,1-4.293,3.434,3.053,3.053,0,0,1-.345.082c.643-.841,1.742-2.266,2.723-3.472a8.881,8.881,0,0,1,3.973-2.5A1,1,0,0,1,412.641,457.187Z" transform="translate(-405.484 -433.203)"/><path class="al" d="M422.692,445.757c-1.4-.19-3.662.565-3.651,4.291s.168,14.132.168,14.132-9.682,2.688-10.755,3.176a2.029,2.029,0,0,1,1.391,2.557s11.161.784,13.213-1.842S428.407,446.512,422.692,445.757Z" transform="translate(-402.724 -445.73)"/><path class="al" d="M408.454,467.355c1.073-.488,10.755-3.176,10.755-3.176s-.155-10.408-.168-14.132,2.253-4.481,3.651-4.291a2.393,2.393,0,0,1,1,.367l.1.144s-3.18,1.8-2.955,8.586,3.187,10.53-2.392,11.694c-3.326.691-6.608,1.385-8.732,1.833A2.32,2.32,0,0,0,408.454,467.355Z" transform="translate(-402.724 -445.73)"/></g></g></g></g></g></svg>