<svg xmlns="http://www.w3.org/2000/svg" width="24" height="24" viewBox="0 0 24 24"><defs><style>.a{fill:#333;}.b{fill:none;}</style></defs><g transform="translate(-3766 -3901)"><g transform="translate(3765.37 3902)"><g transform="translate(1.63 0)"><path class="a" d="M20.339,3.271a10.916,10.916,0,0,0-18.7,7.976A10.4,10.4,0,0,0,2.381,14.9a10.814,10.814,0,0,0,1.544,2.7l-.9,2.135A1.618,1.618,0,0,0,4.8,21.975l4.168-.72A10.93,10.93,0,0,0,20.339,3.271ZM11.746,15.286H8.89a.823.823,0,1,1,0-1.647h2.856a.829.829,0,0,1,.823.823A.813.813,0,0,1,11.746,15.286ZM16.2,11.942H8.89a.829.829,0,0,1-.823-.823.813.813,0,0,1,.823-.823H16.2a.823.823,0,0,1,0,1.647Zm0-3.37H8.89a.823.823,0,0,1,0-1.647H16.2a.829.829,0,0,1,.823.823A.847.847,0,0,1,16.2,8.571Z" transform="translate(-1.63 0)"/></g></g><rect class="b" width="24" height="24" transform="translate(3766 3901)"/></g></svg>