<svg xmlns="http://www.w3.org/2000/svg" width="265.908" height="292.667" viewBox="0 0 265.908 292.667"><defs><style>.a,.n{opacity:0.2;}.aa,.ab,.ac,.ae,.af,.ag,.ah,.ai,.aj,.ak,.al,.am,.an,.ao,.b,.p,.q,.r,.s,.t,.u,.v,.w,.x,.y,.z{fill:#27debf;}.c,.d,.e,.f{fill:#fff;}.ae,.c,.l,.o{opacity:0.5;}.d{opacity:0.65;}.e{opacity:0.8;}.g{fill:#455a64;}.h{fill:#37474f;}.i{fill:#263238;}.j{fill:#52e5cc;}.k,.m{opacity:0.05;}.l{fill:#ccf7ef;}.ap,.p{opacity:0.3;}.q{opacity:0.277;}.r{opacity:0.254;}.s{opacity:0.231;}.t{opacity:0.208;}.u{opacity:0.185;}.v{opacity:0.162;}.w{opacity:0.138;}.x{opacity:0.115;}.y{opacity:0.092;}.z{opacity:0.069;}.aa{opacity:0.046;}.ab{opacity:0.023;}.ac{opacity:0;}.ad{opacity:0.7;}.af{opacity:0.462;}.ag{opacity:0.423;}.ah{opacity:0.385;}.ai{opacity:0.346;}.aj{opacity:0.308;}.ak{opacity:0.269;}.al{opacity:0.192;}.am{opacity:0.154;}.an{opacity:0.077;}.ao{opacity:0.038;}.aq{fill:#f0f0f0;}.ar{opacity:0.15;}.as{fill:#f28f8f;}.at{fill:#e0e0e0;}.au{opacity:0.4;}.av{fill:#ffa8a7;}.aw{fill:#00d8ae;}.ax{opacity:0.1;}.ay{fill:#f5f5f5;}</style></defs><g transform="translate(-5448.274 -465)"><g transform="translate(5448.274 563.995)"><path class="a" d="M366.512,284.919,241.774,356.88a12.886,12.886,0,0,1-11.63,0l-124.71-71.951c-1.61-.916-2.415-2.125-2.415-3.355a3.435,3.435,0,0,1,1.275-2.526,5.785,5.785,0,0,1,1.141-.828l124.739-71.938a12.839,12.839,0,0,1,11.629,0l124.71,71.928C369.711,280.066,369.711,283.085,366.512,284.919Z" transform="translate(-103.019 -173.629)"/><path class="b" d="M235.959,328.267V352.51a11.913,11.913,0,0,1-5.792-1.365l-124.732-71.95c-1.61-.939-2.415-2.147-2.415-3.355v-21a3.438,3.438,0,0,1,1.275-2.527l18.049,10.422Z" transform="translate(-103.019 -178.155)"/><path class="c" d="M235.959,328.267V352.51a11.913,11.913,0,0,1-5.792-1.365l-124.732-71.95c-1.61-.939-2.415-2.147-2.415-3.355v-21a3.438,3.438,0,0,1,1.275-2.527l18.049,10.422Z" transform="translate(-103.019 -178.155)"/><path class="b" d="M249.984,328.266v24.243a11.913,11.913,0,0,0,5.792-1.365l124.762-71.96c1.61-.94,2.415-2.147,2.415-3.355v-21a3.438,3.438,0,0,0-1.275-2.527l-18.049,10.422Z" transform="translate(-117.044 -178.154)"/><path class="d" d="M249.984,328.266v24.243a11.913,11.913,0,0,0,5.792-1.365l124.762-71.96c1.61-.94,2.415-2.147,2.415-3.355v-21a3.438,3.438,0,0,0-1.275-2.527l-18.049,10.422Z" transform="translate(-117.044 -178.154)"/><path class="b" d="M366.512,250.361l-124.738,71.96a12.886,12.886,0,0,1-11.63,0l-124.71-71.95c-1.61-.917-2.415-2.125-2.415-3.355a3.438,3.438,0,0,1,1.275-2.527,5.816,5.816,0,0,1,1.141-.827l124.739-71.938a12.839,12.839,0,0,1,11.629,0l124.71,71.928C369.711,245.508,369.711,248.526,366.512,250.361Z" transform="translate(-103.019 -170.331)"/><path class="e" d="M366.512,250.361l-124.738,71.96a12.886,12.886,0,0,1-11.63,0l-124.71-71.95c-1.61-.917-2.415-2.125-2.415-3.355a3.438,3.438,0,0,1,1.275-2.527,5.816,5.816,0,0,1,1.141-.827l124.739-71.938a12.839,12.839,0,0,1,11.629,0l124.71,71.928C369.711,245.508,369.711,248.526,366.512,250.361Z" transform="translate(-103.019 -170.331)"/><path class="f" d="M235.979,171.77a10.549,10.549,0,0,1,5.1,1.2L365.789,244.9c1.071.621,1.683,1.395,1.682,2.121s-.612,1.485-1.678,2.1L241.049,321.078a11.473,11.473,0,0,1-10.185,0L106.147,249.12c-1.073-.611-1.688-1.378-1.688-2.1a2.085,2.085,0,0,1,.814-1.472,4.417,4.417,0,0,1,.88-.636L230.9,172.968a10.45,10.45,0,0,1,5.084-1.2m0-1.439a11.822,11.822,0,0,0-5.806,1.392L105.435,243.661a5.761,5.761,0,0,0-1.142.827,3.438,3.438,0,0,0-1.275,2.527c0,1.23.805,2.438,2.416,3.355l124.709,71.95a12.886,12.886,0,0,0,11.63,0l124.738-71.96c3.2-1.834,3.2-4.853,0-6.709L241.8,171.723a11.918,11.918,0,0,0-5.823-1.392Z" transform="translate(-103.019 -170.331)"/><path class="g" d="M234.865,187.922,133.507,246.379c-2.139,1.236-2.139,3.238,0,4.473L234.838,309.3a8.565,8.565,0,0,0,7.748,0l101.358-58.458c2.139-1.235,2.139-3.237,0-4.473L242.613,187.922A8.56,8.56,0,0,0,234.865,187.922Z" transform="translate(-105.775 -171.921)"/><path class="h" d="M355.215,246.369l-101.33-58.447A7.919,7.919,0,0,0,250.01,187v3.936l104.536,60.3.669-.386C357.354,249.607,357.354,247.6,355.215,246.369Z" transform="translate(-117.047 -171.921)"/><path class="i" d="M238.74,187a7.92,7.92,0,0,0-3.875.926L133.507,246.379c-2.139,1.236-2.139,3.238,0,4.473l.668.386L238.74,190.932Z" transform="translate(-105.775 -171.921)"/></g><g transform="translate(-314.13 -19.288)"><path class="j" d="M337.642,203.378s3.562,3.542,1.087,10.106c-2.376,6.381-10.146,7.448-10.146,7.448s1.027,10.448-15.9,11.736a10.332,10.332,0,0,0-.039-2.194s7.79-.3,7.911-12.4c.141-12.079-8.958-13.951-8.958-13.951A11.1,11.1,0,0,0,313,194.4c-2.215-6.623-6.9-5.918-6.9-5.918s3.4-2.5,1.912-8.677c-1.39-5.737-5.7-6.481-5.7-6.481s3.2-5.718-2.638-13.427c-5.857-7.71-11.816-6.522-11.816-6.522a17.374,17.374,0,0,0-4.127-10.327c-4.147-4.831-10.69-4.146-10.69-4.146a16.816,16.816,0,0,0-5.476-12.984c-6.2-5.858-12.421-5.6-12.421-5.6a9.933,9.933,0,0,0-4.187-8.637,11.424,11.424,0,0,0-11.233-1.611s-1.066-7.588-7.63-9.038c-8.575-1.872-12.822,3.181-12.822,3.181s-2.859-3.765-9.381-4.831a33.372,33.372,0,0,1,8.676-7.912C226.3,86.742,238,89.761,238,89.761A15.124,15.124,0,0,1,248.2,86.943a11.586,11.586,0,0,1,8.676,5.093s3.584-2.638,12.26-2.074,10.75,7.348,10.75,7.348a21.064,21.064,0,0,1,12.079,3.4c6.421,3.965,6.421,12.46,6.421,12.46s7.75-2.073,14.534,4.912c6.8,6.985,3.784,13.588,3.784,13.588a15.341,15.341,0,0,1,12.079,22.647,6.811,6.811,0,0,1,4.328,4.147c1.328,3.4,0,5.475,0,5.475s6.6,2.819,8.314,9.8c1.691,6.985-1.711,11.132-1.711,11.132a10.89,10.89,0,0,1,5.476,9.824C345.191,201.868,337.642,203.378,337.642,203.378Z" transform="translate(5643.354 397.409)"/><path class="k" d="M337.642,203.378s3.562,3.542,1.087,10.106c-2.376,6.381-10.146,7.448-10.146,7.448s1.027,10.448-15.9,11.736a10.332,10.332,0,0,0-.039-2.194s7.79-.3,7.911-12.4c.141-12.079-8.958-13.951-8.958-13.951A11.1,11.1,0,0,0,313,194.4c-2.215-6.623-6.9-5.918-6.9-5.918s3.4-2.5,1.912-8.677c-1.39-5.737-5.7-6.481-5.7-6.481s3.2-5.718-2.638-13.427c-5.857-7.71-11.816-6.522-11.816-6.522a17.374,17.374,0,0,0-4.127-10.327c-4.147-4.831-10.69-4.146-10.69-4.146a16.816,16.816,0,0,0-5.476-12.984c-6.2-5.858-12.421-5.6-12.421-5.6a9.933,9.933,0,0,0-4.187-8.637,11.424,11.424,0,0,0-11.233-1.611s-1.066-7.588-7.63-9.038c-8.575-1.872-12.822,3.181-12.822,3.181a11.661,11.661,0,0,0-2.839-2.416,4.792,4.792,0,0,0-.543-.322,17.026,17.026,0,0,0-6-2.093,33.372,33.372,0,0,1,8.676-7.912C226.3,86.742,238,89.761,238,89.761A15.124,15.124,0,0,1,248.2,86.943a11.586,11.586,0,0,1,8.676,5.093s3.584-2.638,12.26-2.074,10.75,7.348,10.75,7.348a21.064,21.064,0,0,1,12.079,3.4c6.421,3.965,6.421,12.46,6.421,12.46s7.75-2.073,14.534,4.912c6.8,6.985,3.784,13.588,3.784,13.588a15.341,15.341,0,0,1,12.079,22.647,6.811,6.811,0,0,1,4.328,4.147c1.328,3.4,0,5.475,0,5.475s6.6,2.819,8.314,9.8c1.691,6.985-1.711,11.132-1.711,11.132a10.89,10.89,0,0,1,5.476,9.824C345.191,201.868,337.642,203.378,337.642,203.378Z" transform="translate(5643.354 397.409)"/><path class="a" d="M314.567,202.381a12.96,12.96,0,0,0,.423-9.283c-1.26-3.784-3.392-5.736-5.387-6.644a11.832,11.832,0,0,0,.448-7.779,10.526,10.526,0,0,0-5.123-7.159c.651-2.686.863-7.646-3.572-13.5-4.38-5.776-8.966-7.107-11.6-7.339a19.655,19.655,0,0,0-4.419-9.607,14.627,14.627,0,0,0-10.219-4.832,19.26,19.26,0,0,0-6.088-12.447,21.9,21.9,0,0,0-11.839-6,12.036,12.036,0,0,0-4.954-8.391,13.514,13.514,0,0,0-10.987-2.528c-.923-2.778-3.225-7.267-8.644-8.458-6.592-1.449-10.976.759-13.165,2.386a18.278,18.278,0,0,0-7.989-3.859,36.647,36.647,0,0,0-2.837,3.618c6.234.671,8.987,4.03,9.133,4.217a2.02,2.02,0,0,0,1.543.789,2.044,2.044,0,0,0,1.593-.7c.148-.166,3.674-4.107,10.858-2.522,5.091,1.119,6.049,7.1,6.086,7.344a2.024,2.024,0,0,0,2.842,1.539,9.384,9.384,0,0,1,9.174,1.407,7.926,7.926,0,0,1,3.394,6.784,2.02,2.02,0,0,0,.521,1.595,1.808,1.808,0,0,0,1.549.652c.2-.007,5.518-.094,10.958,5.044a14.819,14.819,0,0,1,4.867,11.334,2.02,2.02,0,0,0,2.206,2.2c.056-.011,5.573-.49,8.94,3.44a15.54,15.54,0,0,1,3.647,9.016,2.037,2.037,0,0,0,2.373,1.979c.2-.028,4.928-.728,9.849,5.761,4.9,6.464,2.579,11.074,2.489,11.246a2.014,2.014,0,0,0-.051,1.822,2.047,2.047,0,0,0,1.442,1.137c.126.026,3.074.674,4.107,4.966,1.128,4.679-1.083,6.527-1.142,6.576a2,2,0,0,0-.665,2.343,2.061,2.061,0,0,0,2.107,1.278c.315-.037,3.16-.175,4.732,4.553a9.058,9.058,0,0,1-1.085,7.88,2.019,2.019,0,0,0,1.177,3.191c.307.069,7.474,1.777,7.368,11.96-.1,9.883-5.772,10.388-5.984,10.4a2.022,2.022,0,0,0-1.911,2.314,8.723,8.723,0,0,1,.043,1.567,5.154,5.154,0,0,0,1.989.328c.721-.054,1.367-.147,2.024-.233.005-.13.019-.277.022-.4,2.85-.979,7.74-4.1,7.843-13.938C322.744,208.7,318.256,204.206,314.567,202.381Z" transform="translate(5643.271 398.066)"/><path class="f" d="M315.774,229.724s7.791-.306,7.917-12.393-8.96-13.95-8.96-13.95a11.127,11.127,0,0,0,1.4-9.738c-2.2-6.614-6.895-5.915-6.895-5.915s3.4-2.492,1.91-8.673c-1.383-5.745-5.7-6.474-5.7-6.474s3.195-5.733-2.645-13.437-11.813-6.528-11.813-6.528a17.383,17.383,0,0,0-4.13-10.327c-4.131-4.82-10.671-4.13-10.671-4.13a16.9,16.9,0,0,0-5.489-13c-6.2-5.852-12.412-5.593-12.412-5.593a9.938,9.938,0,0,0-4.2-8.639,11.409,11.409,0,0,0-11.221-1.612s-1.081-7.584-7.647-9.027c-8.572-1.883-12.819,3.182-12.819,3.182s-5.8-7.668-19.758-4.272c-11.708,2.85-12.551,11.6-12.551,11.6s-12.016-2.252-17.524,6.01-3.786,18.933-3.786,18.933-6.884,4.82-6.54,12.048,3.442,11.36,3.442,11.36-6.884,11.7-2.066,21.343a22.341,22.341,0,0,0,13.425,11.7s0,10.327,4.82,15.491,13.425,4.82,13.425,4.82a18.557,18.557,0,0,0,9.294,10.671c7.229,3.442,14.8.688,14.8.688a18.585,18.585,0,0,0,8.606,5.852c5.508,1.722,12.393,0,12.393,0a8.869,8.869,0,0,0,7.229,7.229c6.54,1.376,9.982-2.754,9.982-2.754s2.066,4.474,6.885,4.818a9.645,9.645,0,0,0,7.572-2.754s2.754,8.606,14.115,8.95,14.147-4.554,14.147-4.554,5.475,3.879,10.982-.258A11.8,11.8,0,0,0,315.774,229.724Z" transform="translate(5640.22 398.157)"/><path class="l" d="M315.774,229.724s7.791-.306,7.917-12.393-8.96-13.95-8.96-13.95a11.127,11.127,0,0,0,1.4-9.738c-2.2-6.614-6.895-5.915-6.895-5.915s3.4-2.492,1.91-8.673c-1.383-5.745-5.7-6.474-5.7-6.474s3.195-5.733-2.645-13.437-11.813-6.528-11.813-6.528a17.383,17.383,0,0,0-4.13-10.327c-4.131-4.82-10.671-4.13-10.671-4.13a16.9,16.9,0,0,0-5.489-13c-6.2-5.852-12.412-5.593-12.412-5.593a9.938,9.938,0,0,0-4.2-8.639,11.409,11.409,0,0,0-11.221-1.612s-1.081-7.584-7.647-9.027c-8.572-1.883-12.819,3.182-12.819,3.182s-5.8-7.668-19.758-4.272c-11.708,2.85-12.551,11.6-12.551,11.6s-12.016-2.252-17.524,6.01-3.786,18.933-3.786,18.933-6.884,4.82-6.54,12.048,3.442,11.36,3.442,11.36-6.884,11.7-2.066,21.343a22.341,22.341,0,0,0,13.425,11.7s0,10.327,4.82,15.491,13.425,4.82,13.425,4.82a18.557,18.557,0,0,0,9.294,10.671c7.229,3.442,14.8.688,14.8.688a18.585,18.585,0,0,0,8.606,5.852c5.508,1.722,12.393,0,12.393,0a8.869,8.869,0,0,0,7.229,7.229c6.54,1.376,9.982-2.754,9.982-2.754s2.066,4.474,6.885,4.818a9.645,9.645,0,0,0,7.572-2.754s2.754,8.606,14.115,8.95,14.147-4.554,14.147-4.554,5.475,3.879,10.982-.258A11.8,11.8,0,0,0,315.774,229.724Z" transform="translate(5640.22 398.157)"/><g class="m" transform="translate(5806.059 509.971)"><path d="M222.8,130.022a34.392,34.392,0,0,0-4.247-6.34c-1.225-1.4-3.14-3.463-5.212-3.242-.594.063-.207,1.029.213,1.106,1.865.338,3.158,1.918,4.2,3.383a42.978,42.978,0,0,1,2.947,4.95,34.184,34.184,0,0,1,4,14.5c.165,4.26-.88,8.617-4.953,10.719-4.789,2.472-10.964.911-15.474-1.386a12.633,12.633,0,0,1-7.165-9.635c-.078-.531-.9-.986-.892-.2a12.886,12.886,0,0,0,1.671,6.572,13.53,13.53,0,0,0,4.881,4.449c4.629,2.7,10.231,4.217,15.546,2.885C230.826,154.646,227.257,138.295,222.8,130.022Z" transform="translate(-163.598 -110.371)"/><path d="M209.124,136.339a11.64,11.64,0,0,0-1.717-4.88,15.726,15.726,0,0,0-3.4-3.949,12.374,12.374,0,0,0-4.6-2.667c-.732-.193-.68.842-.232,1.132a26.9,26.9,0,0,1,3.933,2.618,14.378,14.378,0,0,1,2.877,3.62,10.292,10.292,0,0,1,1.184,6.537c-.1.747-.3,1.457-.413,2.2-.052.339.379,1.07.763.684A6.82,6.82,0,0,0,209.124,136.339Z" transform="translate(-163.426 -110.084)"/><path d="M216.2,112.181a34.138,34.138,0,0,0-11.624-1.1,21.135,21.135,0,0,0-10.3,3.609c-5.42,3.588-9.486,8.927-10.511,15.437-.566,3.593-.878,8.087,2.306,10.608.379.3,1.075.134.857-.461a14.993,14.993,0,0,1-1.232-6.418,28.631,28.631,0,0,1,.851-5.541,20.193,20.193,0,0,1,6.024-9.524,21.527,21.527,0,0,1,10.816-5.614,28.3,28.3,0,0,1,6.5-.164,35.474,35.474,0,0,0,6.492.312C216.97,113.253,216.574,112.292,216.2,112.181Z" transform="translate(-164.435 -110.987)"/><path d="M193.156,150.347c-3.256-5.224-9.436-9.4-15.709-9.278-4.918.1-12.5,2.849-11.8,8.994a11.015,11.015,0,0,0,4.8,7.571,3.984,3.984,0,0,0,3.948.222c1.467-.835,1.621-2.691,2.012-4.147.065-.241-.2-.755-.47-.469-1.214,1.3-2.4,4.488-4.645,2.909a9.727,9.727,0,0,1-3.508-5.589c-.894-4.742,4.588-7.026,8.363-7.565,5.249-.751,10.071,2.016,13.491,5.823,2.217,2.468,5.14,7.592,1.537,10.152a5.53,5.53,0,0,1-4.092.96c-1.666-.328-1.826-1.6-2.152-3.051-.161-.712-1.445-1.015-1.691-.222a3.8,3.8,0,0,0,2.007,4.5,7.062,7.062,0,0,0,5.383.261,6.262,6.262,0,0,0,4.023-3.48C195.615,155.472,194.47,152.455,193.156,150.347Z" transform="translate(-165.598 -109.022)"/><path d="M240.451,208.773c-2.743-5.285-7.879-8.94-13.163-11.392-.879-.408-1.771-.781-2.667-1.138a15.317,15.317,0,0,0,2.7-3.209,27.425,27.425,0,0,0,3.512-7.582,9.316,9.316,0,0,0-1.007-7.791,8.378,8.378,0,0,0-2.99-2.743c-1.207-.645-3.248-1.35-4.58-.741-.538.246.063,1.038.411,1.122,1.38.333,2.574.337,3.78,1.2a6.16,6.16,0,0,1,2.188,3,9.446,9.446,0,0,1-.254,6.167,27.069,27.069,0,0,1-3.016,6.2,13.747,13.747,0,0,1-2.08,2.549,6.283,6.283,0,0,1-1.27.845c-4.537-1.591-9.225-2.765-13.809-4.209-6.66-2.1-12.734-5.4-17.447-10.655a22.917,22.917,0,0,1-5.826-10.986,23.774,23.774,0,0,1-.318-5.234c.061-1.431.183-3.311,1.229-4.4.5-.524-.453-1.578-1.037-1.2-2.2,1.434-2.168,4.978-2.182,7.311a21.578,21.578,0,0,0,2.649,10.557,35.039,35.039,0,0,0,15.572,14.28c11.055,5.289,25.134,5.407,34.067,14.7a17,17,0,0,1,4.763,8.648,13.764,13.764,0,0,1,.012,5.434c-.378,1.686-1.446,2.91-1.993,4.485-.143.413.445,1.157.9.939,2.609-1.253,3.518-4.783,3.709-7.459A16.653,16.653,0,0,0,240.451,208.773Z" transform="translate(-164.486 -107.882)"/><path d="M225.9,207c-3.029-2.185-6.718-2.726-10.27-3.544s-7.108-1.534-10.587-2.582a46.443,46.443,0,0,1-5.108-1.862c-2.38-1.033-4.456-2.6-6.8-3.653a.519.519,0,0,0-.721.678c.705,1.5,2.51,2.61,3.88,3.455a28.077,28.077,0,0,0,4.327,2.123,66.783,66.783,0,0,0,9.757,2.868c3.981.919,8.305,1.372,12.142,2.787a13.245,13.245,0,0,1,3.3,1.811c1.211.894,2.989,2.293,3.119,3.9.04.517.932,1,1.025.27C230.311,210.567,227.92,208.453,225.9,207Z" transform="translate(-163.85 -105.479)"/><path d="M179.053,180.116c-.922-2.05-2.6-3.648-4.1-5.271-2.163-2.338-3.7-4.789-3.691-8.1a29,29,0,0,1,.675-5.18c.328-1.755.893-3.778.2-5.495-.118-.294-.544-.539-.745-.185a7.86,7.86,0,0,0-.613,2.589q-.209,1.2-.451,2.394a35.843,35.843,0,0,0-.765,4.763,11.742,11.742,0,0,0,2.418,8.075c1.347,1.765,3.026,3.249,4.349,5.032a7.4,7.4,0,0,1,1.356,2.7c.384,1.661-.182,3.206-.55,4.815-.055.244.2.979.555.664A5.834,5.834,0,0,0,179.053,180.116Z" transform="translate(-165.341 -108.065)"/><path d="M299.038,170.013c-1.7.38-3.053,1.391-4.6,2.142a14.985,14.985,0,0,1-5.332,1.464c-3.3.248-6.5-.826-9.794-.8a10.139,10.139,0,0,0-7.643,3.377,12.829,12.829,0,0,0-1.894,2.616c-.662-.744-1.351-1.462-2.08-2.137a27.451,27.451,0,0,0-9.413-5.75,58.933,58.933,0,0,0-12.052-2.5c-3.686-.492-7.257-.967-10.613-2.657-2.786-1.4-6.039-3.374-6.884-6.613-.144-.552-1.01-.721-.951.005.228,2.789,2.319,4.9,4.419,6.541a20.71,20.71,0,0,0,7.837,3.78c7.439,1.763,15.406,1.555,22.027,5.891a24.493,24.493,0,0,1,11.019,16.216c.994,5.612,1.434,12.63-3,16.932a47.594,47.594,0,0,1-10.477,7.375c-.887.485-1.857,1.035-2.8,1.652a24.782,24.782,0,0,0,1.02-5.131,26.929,26.929,0,0,0-.895-10.595,24.132,24.132,0,0,0-5.04-8.74c-2.687-3.005-6.033-4.991-9.253-7.348a22.789,22.789,0,0,1-5.038-4.891c-1.6-2.175-2.927-4.58-4.343-6.872-.28-.455-.6.135-.451.466,1.621,3.6,3.185,7.224,5.914,10.166,2.681,2.892,6.2,4.843,9.112,7.477a23.851,23.851,0,0,1,7.921,17.7,22.678,22.678,0,0,1-.747,6.373c-.386,1.408-.969,2.767-1.395,4.165a6.524,6.524,0,0,0-1.458,3.061c-.085.534.839,1.358,1.276.81a23.573,23.573,0,0,1,3.751-3.965,27.452,27.452,0,0,1,4.217-2.608,49.573,49.573,0,0,0,9.6-6.575A14.444,14.444,0,0,0,275.8,203.4a27.073,27.073,0,0,0,.377-9.219A29.442,29.442,0,0,0,274,185.175a23.964,23.964,0,0,0-2.362-4.022,8.977,8.977,0,0,1,.665-1.735,11.142,11.142,0,0,1,2.409-2.755c2.228-1.858,5.17-1.677,7.879-1.309,3.107.421,6.2.848,9.289.038a18.747,18.747,0,0,0,4.369-1.776,11.269,11.269,0,0,0,3.479-2.551C300.046,170.663,299.516,169.907,299.038,170.013Z" transform="translate(-161.536 -107.872)"/><path d="M289.028,161.165c-1.815-4.31-6.565-6.13-10.655-7.588a59.663,59.663,0,0,1-13.18-6.049,22.043,22.043,0,0,1-5.132-4.546,19.284,19.284,0,0,1-3.724-9.833c-.079-.577-1.392-1.17-1.542-.369-1.653,8.876,5.659,15.25,12.764,18.9,3.824,1.962,7.878,3.163,11.876,4.691,3.252,1.242,8.3,3.75,7.6,8.069-.342,2.088-2.281,2.758-4.106,3.165a30,30,0,0,1-7.469.624,71.093,71.093,0,0,1-15.293-2.477,36.293,36.293,0,0,1-22.19-16.493,34.66,34.66,0,0,1-4.709-15.59,37.152,37.152,0,0,1,.418-8.187c.484-3.185,1.1-6.664,2.931-9.407.119-.179-.041-.723-.292-.488-1.739,1.621-2.5,3.942-3.071,6.191a56.619,56.619,0,0,0-1.4,7.28,34.194,34.194,0,0,0,1.915,16.194,37.994,37.994,0,0,0,19.976,20.575,62.376,62.376,0,0,0,14.7,3.795c5.3.857,10.959,1.221,16.2-.223a6.511,6.511,0,0,0,4.443-3.23A6.145,6.145,0,0,0,289.028,161.165Z" transform="translate(-161.286 -110.691)"/><path d="M270.762,159.9c-1.9-.65-3.96-.858-5.884-1.482a41.652,41.652,0,0,1-5.723-2.231,25.84,25.84,0,0,1-8.6-6.978,25.546,25.546,0,0,1-5.454-10.914c-.777-4.244.4-8.354.623-12.576.019-.349-.587-1.217-.844-.588a25.891,25.891,0,0,0-1.79,14.522,26.269,26.269,0,0,0,5.744,11.209,24.931,24.931,0,0,0,9.557,7.286,38.075,38.075,0,0,0,6.4,1.927c1.789.384,4.245,1.141,6.062.627C271.219,160.6,271.044,159.994,270.762,159.9Z" transform="translate(-160.561 -110.078)"/><path d="M299.909,191.314c-4.059-3.784-11.386-4.918-12.675-11.2-.079-.386-.822-.8-.877-.187-.465,5.228,5.744,8.567,9.52,10.814A11.7,11.7,0,0,1,301,196.529c1.232,3.03.793,5.881-.244,8.875-.122.355.292.939.666.681C306.5,202.581,303.5,194.66,299.909,191.314Z" transform="translate(-157.711 -106.503)"/><path d="M309.674,213.563c-2.182,1.952-4.338,3.441-7.343,3.571A14.56,14.56,0,0,1,295,215.359a7.886,7.886,0,0,1-4.577-6.061,12.938,12.938,0,0,1,.268-4.766,26.064,26.064,0,0,0,.973-4.626c.068.054.145.1.214.154a12.734,12.734,0,0,1,2.973,4.2c.124.227.658.55.849.194.924-1.717-.411-3.567-1.627-4.756a22.384,22.384,0,0,0-4.369-3.157,44.206,44.206,0,0,1-5.12-3.364,20.82,20.82,0,0,1-2.309-2.088c-1.04-1.114-1.843-2.395-2.82-3.548-.181-.214-.414.026-.4.24.119,2.034,1.873,4.034,3.247,5.395a28.676,28.676,0,0,0,5.252,3.978c.837.515,1.676,1.038,2.5,1.584a.756.756,0,0,0-.344.515c-.307,1.573-.906,3.084-1.316,4.632a14.514,14.514,0,0,0-.474,4.491,9.417,9.417,0,0,0,2.671,6.572,16.624,16.624,0,0,0,13.592,4.073,10.344,10.344,0,0,0,3.626-1.3,5.258,5.258,0,0,0,2.693-3.475C310.6,213.838,310.061,213.216,309.674,213.563Z" transform="translate(-158.186 -105.991)"/><path d="M294.212,229.353a7.124,7.124,0,0,0-.627-2.1,19.957,19.957,0,0,0-2.413-4.065,11.289,11.289,0,0,0-3.763-3.035,14.284,14.284,0,0,0-2.268-.946l-.459-.145a7.356,7.356,0,0,0,.483-2.182,21.149,21.149,0,0,0-.853-6.822c-.614-2.187-1.59-4.448-3.769-5.447-.874-.4-.924.854-.313,1.234.941.586,1.421,2.393,1.74,3.377a20.912,20.912,0,0,1,.851,3.9c.237,1.936.411,4.035-.466,5.789a.294.294,0,0,0-.152.272,5.072,5.072,0,0,1-.369.572c-1.739,2.247-4.646,3.238-7.111,4.439-2.419,1.178-5.184,2.664-5.554,5.577-.059.463.653,1.117,1.029.646a16.833,16.833,0,0,1,6.154-4.75,25.142,25.142,0,0,0,6.242-3.576,8.512,8.512,0,0,0,1.279-1.474l.171.042c.3.082.606.175.9.276a13.246,13.246,0,0,1,1.759.737,8.939,8.939,0,0,1,2.855,2.264,22.119,22.119,0,0,1,1.692,2.395,17.139,17.139,0,0,1,.979,1.825,15.062,15.062,0,0,1,.729,1.719,4.063,4.063,0,0,0,.387,1c.076.12.257.315.425.235C294.377,230.822,294.271,229.911,294.212,229.353Z" transform="translate(-158.832 -104.876)"/><path d="M276.78,207.752c-.054-.343-.519-.741-.62-.191a9.66,9.66,0,0,1-2.425,5.065,25.105,25.105,0,0,1-4.249,3.4,23.633,23.633,0,0,0-4.154,3.414,8.332,8.332,0,0,0-1.555,2.295,4.377,4.377,0,0,0-.184,2.805c.04.189.345.723.6.435a23.363,23.363,0,0,0,1.913-2.985,11.084,11.084,0,0,1,1.708-2.05A36.511,36.511,0,0,1,271.8,216.9a14.345,14.345,0,0,0,3.908-3.693A8.041,8.041,0,0,0,276.78,207.752Z" transform="translate(-159.206 -104.696)"/><path d="M226.932,166.855a14.689,14.689,0,0,0-4.65-1.347,39.672,39.672,0,0,0-14.009.742,49.308,49.308,0,0,0-10.8,3.453,26.929,26.929,0,0,0-5.081,3.049c-1.069.827-3.218,2.349-2.6,3.9.1.241.386.581.688.493,1.546-.444,2.738-2.1,4.022-3.046a24.8,24.8,0,0,1,4.35-2.5,47.643,47.643,0,0,1,9.435-3.094,44.93,44.93,0,0,1,12.158-1.3,26.48,26.48,0,0,1,4.2.49,9.482,9.482,0,0,1,3.733,1.762c.124.086.347.1.421-.065C229.3,168.222,227.8,167.309,226.932,166.855Z" transform="translate(-164.025 -107.447)"/><path d="M204.69,157.651a5.6,5.6,0,0,0-1.628,1.3c-.59.567-1.2,1.119-1.834,1.636a19.968,19.968,0,0,1-4.2,2.664,17.448,17.448,0,0,1-4.482,1.4,19.921,19.921,0,0,1-2.195.232,7.516,7.516,0,0,0-2.075.173c-.533.2-.239.916.119,1.135,1.38.841,3.6.512,5.111.252a17.639,17.639,0,0,0,4.9-1.64,20.635,20.635,0,0,0,4.2-2.8,16.8,16.8,0,0,0,1.8-1.828,2.958,2.958,0,0,0,.96-1.91C205.373,157.953,205.043,157.5,204.69,157.651Z" transform="translate(-164.136 -107.941)"/></g><g class="m" transform="translate(5884.432 488.836)"><path d="M279.78,100.04c-.177-.2-.388,0-.425.186-.2,1.008-.023,2.126-.14,3.157a12.246,12.246,0,0,1-1.257,4.1c-1.252,2.489-3.391,5.011-6.14,5.863-6.76,2.1-12.553-2.317-17.244-6.625a24.6,24.6,0,0,0-.948-2.535,22.65,22.65,0,0,0-3.848-5.854,38.33,38.33,0,0,0-4.711-4.625,14.955,14.955,0,0,0-2.838-1.848,4.579,4.579,0,0,0-2.765-.655c-.535.122-.27.946.152,1.054a11.072,11.072,0,0,1,4.533,2.883,46.55,46.55,0,0,1,3.982,4.217,20.508,20.508,0,0,1,3.445,5.408,19.18,19.18,0,0,1,1.1,3.685c.108.558.2,1.121.316,1.678a9.943,9.943,0,0,0,.809,2.016c.115.262.52.561.718.2a5.247,5.247,0,0,0,.569-2.562,18.117,18.117,0,0,0,5.825,4.418,16.5,16.5,0,0,0,11.267,1.269,12.094,12.094,0,0,0,7.045-5.661C280.925,107.014,282.177,102.811,279.78,100.04Z" transform="translate(-239.165 -91.149)"/><path d="M292.615,121.131c-2.387-1.806-5.448-3.466-8.516-3.385-.607.016-.179,1.127.3,1.164,2.175.176,4.506,1.585,6.229,2.845,1.44,1.054,3.675,2.848,3.632,4.855-.062,2.805-4.862,3.257-6.818,3.219-3.794-.07-7.392-1.783-10.449-3.92a21.568,21.568,0,0,1-4.279-3.812c-1.433-1.733-2.031-3.81-3.051-5.773-.157-.3-.749-.584-.808-.053-.258,2.315.855,4.873,2.105,6.771a18.734,18.734,0,0,0,4.484,4.578,21.216,21.216,0,0,0,12.01,4.418c2.974.055,8.326-.989,9.019-4.563C296.978,124.852,294.477,122.541,292.615,121.131Z" transform="translate(-237.229 -89.527)"/><path d="M321.352,149.145c-1.265-.358-2.823.126-4.1.321-1.527.234-3.049.492-4.587.652a27.822,27.822,0,0,1-9.061-.4,22.179,22.179,0,0,1-6.943-2.829,29.531,29.531,0,0,1-6.364-5.966c-.329-.373-.805-.211-.782.29a7.756,7.756,0,0,0,1.678,3.712,13.9,13.9,0,0,0,2.862,2.932,22.7,22.7,0,0,0,7.789,3.674,28.075,28.075,0,0,0,9.763.812,53.694,53.694,0,0,0,5.431-.81c.922-.176,1.831-.393,2.745-.6.62-.141,1.647-.182,2.016-.773A.713.713,0,0,0,321.352,149.145Z" transform="translate(-235.876 -87.91)"/><path d="M311.906,134.1c-.647.02-.13,1.027.245,1.13,1.692.463,2.2,4.081,1.462,5.5-1.118,2.139-4.579,2.218-6.636,2.237a18.948,18.948,0,0,1-9.5-2.458c-2.739-1.567-4.93-3.832-7.567-5.534-.44-.284-.555.393-.325.667,2.466,2.935,5.035,5.893,8.562,7.569a20.576,20.576,0,0,0,11.761,1.667c2.637-.4,5.826-1.557,6.091-4.638C316.211,137.809,314.813,134.005,311.906,134.1Z" transform="translate(-235.879 -88.343)"/><path d="M323.595,158.178a3.354,3.354,0,0,0-.409-.172,4.907,4.907,0,0,0-.627-.169,8.257,8.257,0,0,0-1.219-.16,11.971,11.971,0,0,0-2.66.177,23.517,23.517,0,0,0-5.734,1.722,10.682,10.682,0,0,0-4.049,2.931,10.221,10.221,0,0,0-1.782,5.746,7.119,7.119,0,0,0,.821,4,6.375,6.375,0,0,0,5.363,3.163.873.873,0,0,0,.52-.14.636.636,0,0,0,.109-.771,1.881,1.881,0,0,0-.578-.6,11.68,11.68,0,0,1-2.6-2.5,6.685,6.685,0,0,1,2.166-9.292,21.47,21.47,0,0,1,5.352-2.068,14.425,14.425,0,0,1,3.31-.48,13.926,13.926,0,0,1,2.808.487c.24.043.437-.211.429-.428C324.8,159.281,323.883,158.324,323.595,158.178Z" transform="translate(-234.727 -86.804)"/><path d="M328.553,181.574c-2.137-4.588-7.289-7.4-12.112-8.212-2.629-.443-7.222-.631-8.942,1.862a.8.8,0,0,0-.181.46.61.61,0,0,0,.48.524,1.731,1.731,0,0,0,.756-.026c2.143-.4,4.014-1.091,6.247-.9,3.939.335,8.392,2.524,10.642,5.864,1.784,2.651,2.26,7.043.23,9.719-1.736,2.292-4.9,2.306-7.419,1.613a7.951,7.951,0,0,1-3.9-2.042c-.9-1.064-.277-2.223.5-3.145.412-.491-.328-1.578-.914-1.2-1.749,1.136-3.2,2.985-2,5.069a7.617,7.617,0,0,0,3.971,2.916c3.484,1.341,7.728,1.659,10.8-.835C329.995,190.587,330.227,185.166,328.553,181.574Z" transform="translate(-234.713 -85.795)"/><path d="M323.235,202.392a12.194,12.194,0,0,0-3.294-4.269,6.3,6.3,0,0,0-4.851-1.609c-.586.1-.225,1.018.246,1.054,3.012.219,5.028,3.129,6.052,5.692a12.928,12.928,0,0,1,.911,3.992,11.9,11.9,0,0,1-.057,1.967c-.024.239-.086.471-.118.707a4.274,4.274,0,0,0-.123,1.379c.086.368.388.776.81.608.709-.281,1.23-1.389,1.448-2.067a7.412,7.412,0,0,0,.294-2.582A12.519,12.519,0,0,0,323.235,202.392Z" transform="translate(-234.225 -84.27)"/></g><g class="n" transform="translate(5812.314 500.776)"><path class="j" d="M227.376,125.3c-.745-.128-1.472.339-1.893,1.686-.952,3.047.038,8.1.31,11.21a84.117,84.117,0,0,0,2.238,13.255c.889,3.525,2.063,7.094,4.408,9.874a21.075,21.075,0,0,0,8.461,5.606c8.642,3.462,18.362,3.981,26.6,8.317,1.01.532,2.314,1.1,3.195.373a1.876,1.876,0,0,0,.224-2.363,4.579,4.579,0,0,0-2-1.584c-3.285-1.615-6.959-2.217-10.5-3.164a42.7,42.7,0,0,1-16.375-8.165,29.988,29.988,0,0,1-9.974-15.162c-.992-3.782-1.1-7.706-1.636-11.562-.283-2.034-.147-4.324-.969-6.245A3.257,3.257,0,0,0,227.376,125.3Z" transform="translate(-167.968 -100.859)"/><path class="j" d="M210.8,140.4a7.666,7.666,0,0,1-6.719,6.668,2.6,2.6,0,0,0-1.822.515c-.82.9.266,2.246,1.27,2.932,3.324,2.269,7.314,4.389,11.2,3.338,4.061-1.1,6.542-5.489,6.723-9.692.151-3.534-2.179-22.053-9.336-16.421C208.737,130.392,211.216,136.85,210.8,140.4Z" transform="translate(-169.477 -100.768)"/><path class="j" d="M204.078,140.137c2.713-9.456-14.873-20.036-15.544-7.783a8.6,8.6,0,0,0,.769,4.709c2.679,4.762,7.234-2.644,10.98,1.978a10.944,10.944,0,0,0,1.407,1.76,1.536,1.536,0,0,0,2.043.063A1.855,1.855,0,0,0,204.078,140.137Z" transform="translate(-170.357 -100.759)"/><path class="j" d="M242.508,178.738a8.16,8.16,0,0,0,2.146,1.934c7.388,5.309,13.654,13.106,14.4,22.173.161,1.948.349,4.366,2.157,5.109a3.865,3.865,0,0,0,3.244-.473c3.455-1.9,5.406-5.885,5.643-9.818s-1.015-7.817-2.7-11.381c-2.314-4.908-6.2-9.159-11.585-10.582C253.613,175.117,238.9,173.339,242.508,178.738Z" transform="translate(-166.866 -97.614)"/><path class="j" d="M199.511,176.956c2.216.325,4.412,1.814,6.739,2.059,2.867.3,6.214.031,8.628-1.7a26.455,26.455,0,0,1,2.424-1.952,4.789,4.789,0,0,1,5.589,1.158,7.971,7.971,0,0,1,1.861,5.694,8.2,8.2,0,0,1-3.164,6.6c-2.771,1.893-6.5,1.192-9.721.231-5.086-1.519-10.134-3.564-14.153-7.032a5.6,5.6,0,0,1-1.644-2.021,2.25,2.25,0,0,1,.375-2.446,3.015,3.015,0,0,1,1.894-.639A5.464,5.464,0,0,1,199.511,176.956Z" transform="translate(-169.875 -97.618)"/><path class="j" d="M242.872,152.211c4.42,4.9,10.475,8.017,16.636,10.38,5.855,2.246,15.061,5.514,21.286,2.881,1.916-.811,3.524-2.752,3.247-4.815-.263-1.964-2.05-3.34-3.795-4.278-6.193-3.332-13.32-4.662-19.6-7.816-1.209-.607-2.842-1.152-3.765-.162-.853.916-.322,2.475.607,3.314a22.453,22.453,0,0,0,5,3.374c2.361,1.113,7.033,1.449,8.872,3.213,1.856,1.78.257,3.008-1.955,2.677-6.212-.933-12.424-2.661-17.664-6.126a24.144,24.144,0,0,1-9.575-11.738,34.107,34.107,0,0,1-1.549-5.439c-.192-1.089.211-4.052-.759-4.816-3.052-2.4-2.734,7.037-2.531,8.233A22.439,22.439,0,0,0,242.872,152.211Z" transform="translate(-167.175 -100.389)"/><path class="j" d="M235.019,106.9a8.924,8.924,0,0,0-7.817-3.511,14.937,14.937,0,0,0-8.153,3.363,19.3,19.3,0,0,0-15.181-4.192c-4.01.58-8.168,2.383-10.613,5.763-.461.638-.811,1.627-.2,2.123a1.564,1.564,0,0,0,.931.261c4.164.192,8.343-1.7,12.682-1.616a25.218,25.218,0,0,1,12.882,3.455c2.493,1.547,4.679,3.65,7.429,4.677A6.854,6.854,0,0,0,235.019,106.9Z" transform="translate(-170.081 -102.357)"/><path class="j" d="M175.869,117.486a19.835,19.835,0,0,0-4.4,12.068c-.079,4.781,1.945,8.715,7.265,8.752a3.147,3.147,0,0,0,1.49-.281c1.45-.762,1.342-2.822,1.2-4.454a23.35,23.35,0,0,1,3.209-13.963c.708-1.184,1.561-2.515,1.162-3.836a3.064,3.064,0,0,0-2.556-1.937C180.211,113.386,177.681,115.255,175.869,117.486Z" transform="translate(-171.47 -101.611)"/><path class="j" d="M251.112,214.514a31.335,31.335,0,0,0-.7-11.092,22.827,22.827,0,0,0-8.793-13.344c-2.273-1.622-6.779-4.236-9.5-2.344-2.6,1.808-1.956,5.619-.319,7.862,1.65,2.261,4.125,3.782,5.949,5.905a17.776,17.776,0,0,1,3.829,9.735c.338,3.131-.731,5.8-.63,8.761a2.931,2.931,0,0,0,3.181,3.135,6.674,6.674,0,0,0,5.355-3.55A14.044,14.044,0,0,0,251.112,214.514Z" transform="translate(-167.622 -96.822)"/><path class="j" d="M202.951,198.281l15.015,4.984a38.225,38.225,0,0,1,8.23,3.466,12.861,12.861,0,0,1,5.672,6.685c.444,1.374.777,3.089,2.14,3.57a2.532,2.532,0,0,0,3-1.837,5.764,5.764,0,0,0-.492-3.819c-2.609-6.265-8.641-10.478-14.9-13.1s-12.978-4.015-19.239-6.632a53.106,53.106,0,0,1-16.795-11.225c-2.248-2.22-4.708-2.629-4.473,1.218C181.728,191.779,195.017,195.648,202.951,198.281Z" transform="translate(-170.841 -97.37)"/><path class="j" d="M284.409,182.118c-1.608-2.068-3.72-.5-3.806,2.386-.091,2.97,2.072,5.557,4.5,7.273s5.23,2.889,7.484,4.826a18.511,18.511,0,0,1,3.051,3.142c1.084,1.581,1.667,6.633,4.582,3.8,2.074-2.016.989-6.692-.409-8.674-1.722-2.44-4.416-3.975-7.012-5.45-2.752-1.565-6.416-3.59-7.874-6.479A5.024,5.024,0,0,0,284.409,182.118Z" transform="translate(-164.34 -97.208)"/><path class="j" d="M293.537,217.259a12.368,12.368,0,0,1-7.059-6.617c-.19-.487-.551-1.109-1.048-.946-.438.143-.452.751-.379,1.207.28,1.759.313,3.691,1.209,5.244a16.631,16.631,0,0,0,3.8,4.3,10.569,10.569,0,0,1,2.931,3.533c.634,1.449.547,3.1,1.475,4.459A4.5,4.5,0,0,0,296.453,230a5.866,5.866,0,0,0,7.475-3.262C306.445,219.851,298.454,219.1,293.537,217.259Z" transform="translate(-164.052 -95.346)"/><path class="j" d="M177.38,144.55a8.118,8.118,0,0,0-3.153.5,3.433,3.433,0,0,0-2.082,2.29c-.333,1.533.79,3.06,2.165,3.816a19.478,19.478,0,0,0,4.487,1.366,17.032,17.032,0,0,1,6.642,3.494c.839.719,1.9,1.58,2.916,1.147a2.429,2.429,0,0,0,1.136-2.232,8.543,8.543,0,0,0-1.123-4.646C186.039,146.243,181.772,144.524,177.38,144.55Z" transform="translate(-171.43 -99.6)"/></g><g transform="translate(5861.778 488.035)"><path class="j" d="M251.522,98.638c2.365,3.17,4.359,6.688,7.345,9.283s7.373,4.1,10.946,2.406a8.14,8.14,0,0,0,4.357-5.975c.564-3.378-1.029-8.15-3.944-10.087a11.165,11.165,0,0,0-12.627.43,1.909,1.909,0,0,1-.859.464,1.766,1.766,0,0,1-1.106-.373c-1.9-1.172-6.159-5.1-8.541-4.279C243.9,91.61,250.635,97.45,251.522,98.638Z" transform="translate(-216.049 -90.396)"/><path class="j" d="M278.85,113.191a1.1,1.1,0,0,0-.1.9,1.083,1.083,0,0,0,.774.447c2.047.482,4.142.753,6.169,1.309a22.735,22.735,0,0,1,10.19,6.007c1.81,1.855,3.349,4.168,3.5,6.754s-1.5,5.394-4.049,5.834c-.4,1.3.834,2.492,1.976,3.231a33.733,33.733,0,0,0,5.787,2.99c2.234.895,5.249,1.345,6.646-.615,1.037-1.454.509-3.589-.706-4.9a11.821,11.821,0,0,0-4.614-2.629c3.1-3.343,3-8.936.3-12.609s-7.5-5.452-12.049-5.179a4.321,4.321,0,0,1-2.649-.332c-1.68-1.1-.874-3.63-.974-5.262-.181-2.915-2.376-7.341-5.863-5.049C280.444,105.9,280.011,110.388,278.85,113.191Z" transform="translate(-213.929 -89.543)"/><path class="j" d="M277.174,119.345a2.4,2.4,0,0,0-2.24.834c-.516.908.242,2,1.016,2.7A16.071,16.071,0,0,0,279.5,125.3a16.437,16.437,0,0,0,8.339,1.73,2.54,2.54,0,0,0,1.07-.239c2.609-1.421-.46-5.719-2.224-6.42C283.986,119.3,280.034,119.409,277.174,119.345Z" transform="translate(-214.185 -88.505)"/><path class="j" d="M299.373,152.821a1.974,1.974,0,0,0-1.606.257,1.384,1.384,0,0,0-.113,1.668c.668,1.174,1.762,2.16,2.473,3.34a9.564,9.564,0,0,1,1.38,4.887c0,1.37-.27,2.844.413,4.031.369.64.981,1.117,1.318,1.776.2.393.294.835.5,1.228a1.254,1.254,0,0,0,1.01.757c.7.005,1.08-.812,1.26-1.491.653-2.464.6-5.318,1.7-7.624,1.249-2.614,3.586-3.353,6.039-4.32,2.834-1.118,5.886-1.293,8.821-2.016a3.209,3.209,0,0,0,1.148-.458,1.2,1.2,0,0,0,.535-1.059c-.168-1.421-3.006-1.1-3.891-.964A72.229,72.229,0,0,1,299.373,152.821Z" transform="translate(-212.704 -86.326)"/><path class="j" d="M312.791,170.025c0-4.028,5.552-6.86,9.024-6.872a13.709,13.709,0,0,1,7.443,2.434c2.792,1.829,3.822,6.44,3.1,9.506a4.837,4.837,0,0,1-1.348,2.547,2.5,2.5,0,0,1-2.71.489,4.561,4.561,0,0,1-1.354-1.337,14.437,14.437,0,0,0-10.677-5.351C314.927,171.4,313.2,171.3,312.791,170.025Z" transform="translate(-211.701 -85.643)"/><path class="j" d="M319.553,178.561a13.208,13.208,0,0,0-6.485-.914,4.137,4.137,0,0,0-2.351.86,1.789,1.789,0,0,0-.4,2.285,2.784,2.784,0,0,0,.969.717,41.1,41.1,0,0,1,5.154,3.308,4.122,4.122,0,0,1,1.457,1.6,13.232,13.232,0,0,0,.591,2.074,3.31,3.31,0,0,0,2.492,1.141,3.454,3.454,0,0,0,1.9-.089,2.849,2.849,0,0,0,1.379-2.072,7.7,7.7,0,0,0-7.548-9.419" transform="translate(-211.88 -84.701)"/><path class="j" d="M274.671,130.578a1.159,1.159,0,0,0-1.037.153.784.784,0,0,0,.018.994,2.259,2.259,0,0,0,.888.6,36.822,36.822,0,0,1,7.1,3.832,10.2,10.2,0,0,1,4.208,6.646c.076.668.12,1.455.685,1.821a1.371,1.371,0,0,0,1.763-.519,3.981,3.981,0,0,0,.519-1.943c.278-3.1,1.041-7.872-2.59-9.3a25.26,25.26,0,0,0-4.181-.705C279.578,131.655,277.151,131.017,274.671,130.578Z" transform="translate(-214.27 -87.774)"/><path class="j" d="M219.689,93.979c-.863.552-1.824,1.294-1.788,2.318a2.081,2.081,0,0,0,1.779,1.768,6.829,6.829,0,0,0,2.68-.234c5.975-1.257,12.917-.7,17.129,3.72a14.644,14.644,0,0,0,2.442,2.412c2.645,1.71,6.125,1.412,9.036,2.168a2.828,2.828,0,0,0-.426-1.728C245.121,93.973,230.151,87.292,219.689,93.979Z" transform="translate(-217.9 -90.338)"/><path class="j" d="M322.141,195.795c-.654.117-1.409.4-1.554,1.05-.133.6.334,1.147.766,1.583l1.979,1.993a8.6,8.6,0,0,1,1.268,1.488c.865,1.4.852,3.151,1.19,4.764.1.5.36,1.088.867,1.118a1.08,1.08,0,0,0,.742-.341c1.577-1.407,1.733-3.781,1.731-5.895C329.125,196.958,326.607,195,322.141,195.795Z" transform="translate(-211.193 -83.522)"/></g><g class="m" transform="translate(5815.132 489.97)"><path d="M229.806,160.077a2.2,2.2,0,1,1-2.2-2.2A2.2,2.2,0,0,1,229.806,160.077Z" transform="translate(-170.764 -87.923)"/><path d="M215.5,120.558a2.2,2.2,0,1,1-2.2-2.2A2.2,2.2,0,0,1,215.5,120.558Z" transform="translate(-171.699 -90.505)"/><path d="M198.548,142.611a2.2,2.2,0,1,1-2.2-2.2A2.2,2.2,0,0,1,198.548,142.611Z" transform="translate(-172.806 -89.064)"/><path d="M178.511,153.783a2.2,2.2,0,1,1-2.2-2.2A2.2,2.2,0,0,1,178.511,153.783Z" transform="translate(-174.115 -88.334)"/><path d="M221.682,173.229a2.2,2.2,0,1,1-2.2-2.2A2.2,2.2,0,0,1,221.682,173.229Z" transform="translate(-171.295 -87.064)"/><path d="M190.42,177.729a2.2,2.2,0,1,1-2.2-2.2A2.2,2.2,0,0,1,190.42,177.729Z" transform="translate(-173.337 -86.77)"/><path d="M269.083,179.12a2.2,2.2,0,1,1-2.2-2.2A2.2,2.2,0,0,1,269.083,179.12Z" transform="translate(-168.198 -86.679)"/><path d="M254.18,219.531a2.2,2.2,0,1,1-2.2-2.2A2.2,2.2,0,0,1,254.18,219.531Z" transform="translate(-169.172 -84.039)"/><path d="M272.084,158.144a2.2,2.2,0,1,1-2.2-2.2A2.2,2.2,0,0,1,272.084,158.144Z" transform="translate(-168.002 -88.049)"/><path d="M271.939,116.439a2.2,2.2,0,1,1-2.2-2.2A2.2,2.2,0,0,1,271.939,116.439Z" transform="translate(-168.011 -90.774)"/><path d="M309.651,144.043a2.2,2.2,0,1,1-2.2-2.2A2.2,2.2,0,0,1,309.651,144.043Z" transform="translate(-165.547 -88.971)"/><path d="M315.251,174.463a2.2,2.2,0,1,1-2.2-2.2A2.2,2.2,0,0,1,315.251,174.463Z" transform="translate(-165.182 -86.983)"/><path d="M247.1,94.411a2.2,2.2,0,1,1-2.2-2.2A2.2,2.2,0,0,1,247.1,94.411Z" transform="translate(-169.634 -92.213)"/><path d="M248.572,125.637a2.2,2.2,0,1,1-2.2-2.2A2.2,2.2,0,0,1,248.572,125.637Z" transform="translate(-169.538 -90.173)"/><circle cx="2.198" cy="2.198" r="2.198" transform="translate(77.532 102.435)"/><path d="M293.445,199.427a2.2,2.2,0,1,1-2.2-2.2A2.2,2.2,0,0,1,293.445,199.427Z" transform="translate(-166.606 -85.352)"/><path d="M195.538,197.228a2.2,2.2,0,1,1-2.2-2.2A2.2,2.2,0,0,1,195.538,197.228Z" transform="translate(-173.003 -85.496)"/><path d="M229.808,212.134a2.2,2.2,0,1,1-2.2-2.2A2.2,2.2,0,0,1,229.808,212.134Z" transform="translate(-170.764 -84.522)"/><path d="M285.6,218.981a2.2,2.2,0,1,1-2.2-2.2A2.2,2.2,0,0,1,285.6,218.981Z" transform="translate(-167.119 -84.075)"/></g></g><g transform="translate(5474.253 465.499)"><g class="o" transform="translate(106.843)"><path class="p" d="M256.986,299.765a12.364,12.364,0,0,1-7.121,1.671c-.038,0,.039,0,0,0,.035,0-.035,0,0,0V315.5a8.88,8.88,0,0,0,4.776-1.416l99.338-57.353c1.849-1.02,2.74-1.919,2.74-3.16V242.2Z" transform="translate(-249.854 -78.693)"/><path class="q" d="M256.986,285.86a12.364,12.364,0,0,1-7.121,1.672c-.038,0,.039-.005,0,0,.035,0-.035,0,0,0V301.6a8.882,8.882,0,0,0,4.776-1.417l99.338-57.353c1.849-1.019,2.74-1.919,2.74-3.16V228.3Z" transform="translate(-249.854 -77.367)"/><path class="r" d="M256.986,271.956a12.365,12.365,0,0,1-7.121,1.671c-.038,0,.039,0,0,0,.035,0-.035,0,0,0v14.066a8.874,8.874,0,0,0,4.776-1.417l99.338-57.352c1.849-1.02,2.74-1.92,2.74-3.16V214.393Z" transform="translate(-249.854 -76.04)"/><path class="s" d="M256.986,258.051a12.371,12.371,0,0,1-7.121,1.672c-.038,0,.039-.005,0,0,.035,0-.035,0,0,0v14.067a8.882,8.882,0,0,0,4.776-1.417l99.338-57.353c1.849-1.019,2.74-1.92,2.74-3.16v-11.37Z" transform="translate(-249.854 -74.713)"/><path class="t" d="M256.986,244.147a12.364,12.364,0,0,1-7.121,1.671c-.038,0,.039,0,0,0,.035,0-.035,0,0,0v14.066a8.874,8.874,0,0,0,4.776-1.417l99.338-57.352c1.849-1.02,2.74-1.919,2.74-3.161v-11.37Z" transform="translate(-249.854 -73.386)"/><path class="u" d="M256.986,230.242a12.371,12.371,0,0,1-7.121,1.672c-.038,0,.039-.005,0,0,.035,0-.035,0,0,0v14.066a8.872,8.872,0,0,0,4.776-1.416l99.338-57.353c1.849-1.019,2.74-1.919,2.74-3.16V172.68Z" transform="translate(-249.854 -72.059)"/><path class="v" d="M256.986,216.338a12.364,12.364,0,0,1-7.121,1.671c-.038,0,.039,0,0,0,.035,0-.035,0,0,0v14.067a8.874,8.874,0,0,0,4.776-1.417l99.338-57.353c1.849-1.019,2.74-1.919,2.74-3.16v-11.37Z" transform="translate(-249.854 -70.732)"/><path class="w" d="M256.986,202.433a12.365,12.365,0,0,1-7.121,1.671c-.038,0,.039,0,0,0,.035,0-.035,0,0,0V218.17a8.866,8.866,0,0,0,4.776-1.417L353.979,159.4c1.849-1.02,2.74-1.92,2.74-3.16V144.87Z" transform="translate(-249.854 -69.405)"/><path class="x" d="M256.986,188.528a12.372,12.372,0,0,1-7.121,1.672c-.038,0,.039,0,0,0,.035,0-.035,0,0,0v14.067a8.882,8.882,0,0,0,4.776-1.417L353.979,145.5c1.849-1.019,2.74-1.92,2.74-3.16v-11.37Z" transform="translate(-249.854 -68.078)"/><path class="y" d="M256.986,174.624a12.365,12.365,0,0,1-7.121,1.671c-.038,0,.039,0,0,0,.035,0-.035.005,0,0v14.066a8.874,8.874,0,0,0,4.776-1.417l99.338-57.352c1.849-1.02,2.74-1.919,2.74-3.16V117.061Z" transform="translate(-249.854 -66.751)"/><path class="z" d="M256.986,160.719a12.372,12.372,0,0,1-7.121,1.672c-.038,0,.039-.005,0,0,.035,0-.035,0,0,0v14.067a8.882,8.882,0,0,0,4.776-1.417l99.338-57.353c1.849-1.019,2.74-1.919,2.74-3.16v-11.37Z" transform="translate(-249.854 -65.424)"/><path class="aa" d="M256.986,146.815a12.364,12.364,0,0,1-7.121,1.671c-.038,0,.039,0,0,0,.035,0-.035,0,0,0v14.066a8.874,8.874,0,0,0,4.776-1.417l99.338-57.352c1.849-1.02,2.74-1.92,2.74-3.16V89.252Z" transform="translate(-249.854 -64.097)"/><path class="ab" d="M256.986,132.91a12.372,12.372,0,0,1-7.121,1.672c-.038,0,.039-.005,0,0,.035,0-.035,0,0,0v14.067a8.882,8.882,0,0,0,4.776-1.417l99.338-57.353c1.849-1.019,2.74-1.919,2.74-3.16V75.348Z" transform="translate(-249.854 -62.77)"/><path class="ac" d="M256.986,119.006a12.364,12.364,0,0,1-7.121,1.671c-.038,0,.039,0,0,0,.035,0-.035,0,0,0v14.066a8.874,8.874,0,0,0,4.776-1.417l99.338-57.352c1.849-1.02,2.74-1.92,2.74-3.161V61.443Z" transform="translate(-249.854 -61.443)"/></g><g class="ad"><path class="ae" d="M231.472,299.765a12.364,12.364,0,0,0,7.121,1.671c.039,0-.038,0,0,0-.035,0,.035,0,0,0V315.5a8.88,8.88,0,0,1-4.776-1.416l-99.338-57.353c-1.849-1.02-2.74-1.919-2.74-3.16V242.2Z" transform="translate(-131.739 -78.693)"/><path class="af" d="M231.472,285.86a12.364,12.364,0,0,0,7.121,1.672c.039,0-.038-.005,0,0-.035,0,.035,0,0,0V301.6a8.882,8.882,0,0,1-4.776-1.417l-99.338-57.353c-1.849-1.019-2.74-1.919-2.74-3.16V228.3Z" transform="translate(-131.739 -77.367)"/><path class="ag" d="M231.472,271.956a12.365,12.365,0,0,0,7.121,1.671c.039,0-.038,0,0,0-.035,0,.035,0,0,0v14.066a8.874,8.874,0,0,1-4.776-1.417l-99.338-57.352c-1.849-1.02-2.74-1.92-2.74-3.16V214.393Z" transform="translate(-131.739 -76.04)"/><path class="ah" d="M231.472,258.051a12.371,12.371,0,0,0,7.121,1.672c.039,0-.038-.005,0,0-.035,0,.035,0,0,0v14.067a8.882,8.882,0,0,1-4.776-1.417l-99.338-57.353c-1.849-1.019-2.74-1.92-2.74-3.16v-11.37Z" transform="translate(-131.739 -74.713)"/><path class="ai" d="M231.472,244.147a12.364,12.364,0,0,0,7.121,1.671c.039,0-.038,0,0,0-.035,0,.035,0,0,0v14.066a8.874,8.874,0,0,1-4.776-1.417l-99.338-57.352c-1.849-1.02-2.74-1.919-2.74-3.161v-11.37Z" transform="translate(-131.739 -73.386)"/><path class="aj" d="M231.472,230.242a12.371,12.371,0,0,0,7.121,1.672c.039,0-.038-.005,0,0-.035,0,.035,0,0,0v14.066a8.873,8.873,0,0,1-4.776-1.416L134.479,187.21c-1.849-1.019-2.74-1.919-2.74-3.16V172.68Z" transform="translate(-131.739 -72.059)"/><path class="ak" d="M231.472,216.338a12.364,12.364,0,0,0,7.121,1.671c.039,0-.038,0,0,0-.035,0,.035,0,0,0v14.067a8.874,8.874,0,0,1-4.776-1.417l-99.338-57.353c-1.849-1.019-2.74-1.919-2.74-3.16v-11.37Z" transform="translate(-131.739 -70.732)"/><path class="s" d="M231.472,202.433a12.364,12.364,0,0,0,7.121,1.671c.039,0-.038,0,0,0-.035,0,.035,0,0,0V218.17a8.866,8.866,0,0,1-4.776-1.417L134.479,159.4c-1.849-1.02-2.74-1.92-2.74-3.16V144.87Z" transform="translate(-131.739 -69.405)"/><path class="al" d="M231.472,188.528a12.372,12.372,0,0,0,7.121,1.672c.039,0-.038,0,0,0-.035,0,.035,0,0,0v14.067a8.882,8.882,0,0,1-4.776-1.417L134.479,145.5c-1.849-1.019-2.74-1.92-2.74-3.16v-11.37Z" transform="translate(-131.739 -68.078)"/><path class="am" d="M231.472,174.624a12.365,12.365,0,0,0,7.121,1.671c.039,0-.038,0,0,0-.035,0,.035.005,0,0v14.066a8.874,8.874,0,0,1-4.776-1.417l-99.338-57.352c-1.849-1.02-2.74-1.919-2.74-3.16V117.061Z" transform="translate(-131.739 -66.751)"/><path class="x" d="M231.472,160.719a12.372,12.372,0,0,0,7.121,1.672c.039,0-.038-.005,0,0-.035,0,.035,0,0,0v14.067a8.882,8.882,0,0,1-4.776-1.417l-99.338-57.353c-1.849-1.019-2.74-1.919-2.74-3.16v-11.37Z" transform="translate(-131.739 -65.424)"/><path class="an" d="M231.472,146.815a12.364,12.364,0,0,0,7.121,1.671c.039,0-.038,0,0,0-.035,0,.035,0,0,0v14.066a8.874,8.874,0,0,1-4.776-1.417l-99.338-57.352c-1.849-1.02-2.74-1.92-2.74-3.16V89.252Z" transform="translate(-131.739 -64.097)"/><path class="ao" d="M231.472,132.91a12.372,12.372,0,0,0,7.121,1.672c.039,0-.038-.005,0,0-.035,0,.035,0,0,0v14.067a8.882,8.882,0,0,1-4.776-1.417L134.479,89.878c-1.849-1.019-2.74-1.919-2.74-3.16V75.348Z" transform="translate(-131.739 -62.77)"/><path class="ac" d="M231.472,119.006a12.364,12.364,0,0,0,7.121,1.671c.039,0-.038,0,0,0-.035,0,.035,0,0,0v14.066a8.874,8.874,0,0,1-4.776-1.417L134.479,75.974c-1.849-1.02-2.74-1.92-2.74-3.161V61.443Z" transform="translate(-131.739 -61.443)"/></g></g><g transform="translate(5457.134 635.555)"><g transform="translate(183.055 0)"><ellipse class="a" cx="23.657" cy="13.658" rx="23.657" ry="13.658" transform="translate(14.023 94.578)"/><g transform="translate(16.105 32.503)"><path class="b" d="M343.841,324.176l-10.5.731-.36.479,9,17.72,9.991-1.663Z" transform="translate(-332.984 -321.702)"/><path class="ap" d="M343.841,324.176l-10.5.731-.36.479,9,17.72,9.991-1.663Z" transform="translate(-332.984 -321.702)"/><path class="b" d="M344.239,323.647l-10.857,1.21,9,17.72,9.99-1.663Z" transform="translate(-333.022 -321.651)"/><path class="aq" d="M344.349,325.508l-9.108,1.015,7.509,14.5,8.381-1.4Z" transform="translate(-333.2 -321.829)"/><path class="ar" d="M342.8,326.161l-.374-.727c-.206-.4-1.055-.657-1.894-.57l-1.607.166c-.839.087-1.352.483-1.145.885l.374.727Z" transform="translate(-333.437 -321.766)"/><g transform="translate(2.908)"><path class="h" d="M341.786,323.247a.872.872,0,0,0-.857-.368l-.623.085a2.815,2.815,0,0,0-2.289-1.522c-1.474.052-.67,1.8-.67,1.8l-.659.1c-.365.055-.57.3-.459.544l.2.444,5.593-.622S341.914,323.5,341.786,323.247Z" transform="translate(-336.199 -321.441)"/><path class="i" d="M341.432,324c-.526.036-.725.082-.407.7.364.707.668,1.237.668,1.237l-2.473.28s-.448-.892-.633-1.242a.837.837,0,0,0-.832-.558l-.231-.3,3.919-.37Z" transform="translate(-336.325 -321.661)"/><path class="h" d="M342.946,326.268l-.374-.727c-.206-.4-1.055-.657-1.894-.57l-1.607.167c-.839.087-1.353.483-1.146.885l.374.727Z" transform="translate(-336.359 -321.776)"/></g><path class="as" d="M348.892,332.727s.282-1.612-.2-2.168-2.471-.474-3.448-.908c-1.048-.466-.9.74-.384,1.118C345.976,331.59,348.207,331.977,348.892,332.727Z" transform="translate(-334.08 -322.214)"/></g><path class="at" d="M367.146,309.689c1.614.084,3.1,1.275,4.735,5.335s5,12.968,4.46,14.475c-.375,1.051-12.412,4.2-12.412,4.2l-1.741-3.682,7.988-3.578-4.528-10.449Z" transform="translate(-319.667 -287.816)"/><g transform="translate(22.788)"><g transform="translate(0 44.443)"><g transform="translate(0 63.869)"><path class="b" d="M354.612,406.771s.365,1.11.563,2.08a5.623,5.623,0,0,1,.111,2.64c-.271.58-1.323.954-2.956.942a9.589,9.589,0,0,0-3.834,1.34,10.137,10.137,0,0,1-4.823.765c-1.453-.171-2.958-1.013-3.193-1.615s-.432-1.427,3.5-2.686c.033-.011,4.76-1.551,6.417-3.379Z" transform="translate(-340.373 -405.392)"/><path class="au" d="M354.612,406.771s.365,1.11.563,2.08a5.623,5.623,0,0,1,.111,2.64c-.271.58-1.323.954-2.956.942a9.589,9.589,0,0,0-3.834,1.34,10.137,10.137,0,0,1-4.823.765c-1.453-.171-2.958-1.013-3.193-1.615s-.432-1.427,3.5-2.686c.033-.011,4.76-1.551,6.417-3.379Z" transform="translate(-340.373 -405.392)"/><path class="av" d="M354.9,406.881l-.751-.093-3.464.071c-1.657,1.828-6.384,3.369-6.417,3.379-.223.071-.432.141-.63.21-.682.551-.1,1.489,1.52,1.634s6.68-1.557,7.8-2.1A3.346,3.346,0,0,0,354.9,406.881Z" transform="translate(-340.657 -405.394)"/><path class="av" d="M355.669,405.247s-.005.946,0,1.487-.634,1.348-2.289,1.288c-1.161-.042-1.972-.354-1.926-1.31v-1.379Z" transform="translate(-341.43 -405.247)"/></g><g transform="translate(16.806 53.439)"><path class="b" d="M367.49,399.305c.3.122.358.7.374,1.837.011.863.155,2.372-.862,2.645a3.16,3.16,0,0,1-3.117-.75c-.78-1.036-1.3-1.943-2.421-3.211a8.727,8.727,0,0,1-2.387-3.646c-.328-1.37-.009-1.951.93-2.321.889-.351,1.786-.066,3.085,1.017a6.005,6.005,0,0,0,1.154.611C365.1,395.75,367.193,399.183,367.49,399.305Z" transform="translate(-358.951 -393.717)"/><path class="au" d="M367.49,399.305c.3.122.358.7.374,1.837.011.863.155,2.372-.862,2.645a3.16,3.16,0,0,1-3.117-.75c-.78-1.036-1.3-1.943-2.421-3.211a8.727,8.727,0,0,1-2.387-3.646c-.328-1.37-.009-1.951.93-2.321.889-.351,1.786-.066,3.085,1.017a6.005,6.005,0,0,0,1.154.611C365.1,395.75,367.193,399.183,367.49,399.305Z" transform="translate(-358.951 -393.717)"/><path class="av" d="M368.015,398.578l-.038,1.4s-.936,1.831-3.536,0c-.057-.136-.29-2.841-.29-2.841Z" transform="translate(-359.448 -394.043)"/><path class="av" d="M364.417,395.6a6.007,6.007,0,0,1-1.154-.611h0c-1.048-.336-3.257.053-2.261,1.576a11.821,11.821,0,0,0,3.116,3.2c1.176.581,1.588-.138,1.588-.138l-.416-3.279A2.575,2.575,0,0,0,364.417,395.6Z" transform="translate(-359.123 -393.827)"/></g><path class="aw" d="M368.358,373.268a33.107,33.107,0,0,0-1.513-7.237s.88-6.173,1.573-12.1c1.626-13.9.543-14.127-1.424-18.96,0,0-17.823-2.293-18.568,5.119-.928,9.231-.509,27.13-.351,30.4a112.55,112.55,0,0,0,1.393,11.614c.74,5.219,1.441,16.631,1.441,16.631a4.5,4.5,0,0,0,4.586-.233s2.233-14.036,2.182-17.81a32.209,32.209,0,0,0-1.208-8.268s1.515-15.043,1.9-17.434c0,0,.429,4.8.586,8.07s1.043,6.422,1.825,12.516c.678,5.287,1.8,16.326,1.8,16.326a4.961,4.961,0,0,0,3.969.735S368.875,377.853,368.358,373.268Z" transform="translate(-341.086 -334.64)"/><path class="ax" d="M359.483,356.288l.97-6.2a13.645,13.645,0,0,0,5.508-1.916,7.4,7.4,0,0,1-4.42,2.591l-.99,7.187-.4,7.527Z" transform="translate(-342.197 -335.931)"/></g><path class="av" d="M356.484,305.721l.654,6.928,6.086-.385-.487-7.684Z" transform="translate(-341.91 -287.328)"/><g transform="translate(6.898 21.396)"><path class="g" d="M367.883,312.1c-.619-1.835-1.88-2.907-4.664-2.939l-1.028.033c-.2,1.021-3.193,1.85-6.155.8-.418.108-1.563.319-2.209.405l-1.417.207c-2.157.706-3.109,4.451-3.316,10.389s-1.1,18.637-1.1,18.637,4.638,2.485,11.957,1.523a14.557,14.557,0,0,0,8.872-4.241,45.172,45.172,0,0,0-3.382-9.514C368.9,318.929,368.8,314.823,367.883,312.1Z" transform="translate(-347.999 -309.161)"/><path class="h" d="M357.208,342.258a25.5,25.5,0,0,0,3.627-.217,14.2,14.2,0,0,0,8.866-4.273,45.364,45.364,0,0,0-3.376-9.482,38.934,38.934,0,0,0,2.864-9.885c-.284,1.776-2.91,8.658-6.346,10.722a6.116,6.116,0,0,1,3.6,2.578C368.1,333.974,366.739,341.77,357.208,342.258Z" transform="translate(-348.878 -310.043)"/></g><g transform="translate(8.871)"><g transform="translate(1.334 0.952)"><path class="i" d="M352.841,295.4s-2.3-2.74-.5-5.41c2.124-3.145,5.868-4.21,10.49-2.836a9.36,9.36,0,0,1,5.823,8.28c.131,3.42-9.46,5.682-9.305,8.027Z" transform="translate(-351.654 -286.561)"/></g><g transform="translate(0 10.79)"><path class="as" d="M351.368,297.436s-1.348,2.038-1.172,2.253a3.233,3.233,0,0,0,1.033.445Z" transform="translate(-350.18 -297.436)"/></g><g transform="translate(0.978 3.797)"><path class="av" d="M355.589,290.242c-1.311.677-3.575,1.928-4.157,6.753-.6,4.955.506,6.677,1.181,7.326.456.438,2.809.6,4.035.216,1.536-.477,4.862-2.12,6.421-4.677,1.834-3.009,2.213-7.019.1-8.591A7.912,7.912,0,0,0,355.589,290.242Z" transform="translate(-351.261 -289.706)"/></g><g transform="translate(4.473 2.753)"><path class="i" d="M355.571,290.339s-1.142,4.519.226,7.376c0,0,.8-1.764,2.317-1.257s1.386,2.545.185,3.584a2.273,2.273,0,0,1-2.366.5,4.121,4.121,0,0,0,2.178,3.491s4.471,2.139,8.51-2.178c3.664-3.918,3.191-10.935-2.211-12.734A9.277,9.277,0,0,0,355.571,290.339Z" transform="translate(-355.124 -288.552)"/></g><path class="i" d="M372.77,290.266a4.758,4.758,0,1,1-4.758-4.758A4.758,4.758,0,0,1,372.77,290.266Z" transform="translate(-351.427 -285.508)"/><path class="i" d="M351.642,288.088c-2.012,2.047-2.126,7.955,3.7,9.408l3.815-10.461C356.938,285.591,353.437,286.261,351.642,288.088Z" transform="translate(-350.2 -285.579)"/><path class="i" d="M355.138,300.236a1.153,1.153,0,0,1,.783-2.168Z" transform="translate(-350.58 -286.7)"/></g></g><g transform="translate(0 13.926)"><path class="av" d="M349.726,309.756s-.953-.132-4.526.821-11.99,2.887-11.99,2.887-9.891-4.763-10.322-5.282-.188-1.568-.071-2.146.315-1.86.443-2.221c.225-.629-.706-.459-1.254.129s-.792,1.738-1.066,1.935-2.355-2.2-3.365-3.35-1.483-1.964-2.16-1.487c-.488.344-.175,1.029.549,2.019a12.763,12.763,0,0,1,.935,1.311c.087.177-.181.318-.287.413-.2.175-.544.463-.568.737a2.385,2.385,0,0,1-.028.449c-.094.328-.5.483-.617.806-.083.233.009.495-.038.738-.03.156-.117.3-.145.456a1.09,1.09,0,0,0,.324.849,8.177,8.177,0,0,0,2.609,1.682c.773.428,1.572.615,2.462,1.01s11.2,7.745,13.059,7.582c2.1-.184,14.894-2.474,14.894-2.474C351.926,314.334,349.726,309.756,349.726,309.756Z" transform="translate(-315.181 -300.903)"/></g><path class="ay" d="M363.12,309.16a6.77,6.77,0,0,1,3.019.536c1.415.662,2.285,2.249,2.364,5.767s-2.691,12.137-2.691,12.137,2.966,7.009,3.518,10.08-.2,12.243-.2,12.243-5.826,4.764-17.428,2.692c-.229-.041-.424-10.9-.659-10.943-.207-.042-.452,10.727-.663,10.681-1.092-.236-2.231-.531-3.417-.9,0,0,.246-9.015.285-12.952s.315-18.779,1.615-22.6a15.225,15.225,0,0,1,3.107-5.607l2.477-.011Z" transform="translate(-318.213 -287.764)"/><path class="at" d="M351.515,310.429c-5.091-.378-11.535,2.428-17.426,3.933l-8.161-4.045s-2.551,2.742-1.08,4.693c0,0,7.559,5.411,9.358,5.785s15.107-2.346,15.107-2.346a4.911,4.911,0,0,0,2.975-4.1C352.674,311.135,351.515,310.429,351.515,310.429Z" transform="translate(-316.06 -287.876)"/><path class="at" d="M356.556,308a.68.68,0,0,0-.554.4c-.211.4-.772,1.7-.772,1.7s1.391,1.8,4.676,1.4,4-2.533,4-2.533-.343-1.881-1.144-1.8l-.006.366s-.315.724-2.261.974C357.74,308.861,356.556,308,356.556,308Z" transform="translate(-319.003 -287.575)"/><g transform="translate(37.015 39.748)"><path class="aq" d="M356.447,330.085s5.721,1.438,9.217-.636c.53.482.49,1.025-.026,1.936,0,0-3.425,2.025-9.19.552A1.41,1.41,0,0,1,356.447,330.085Z" transform="translate(-356.101 -329.449)"/><path class="at" d="M357.541,331.25a.512.512,0,1,1-.511-.512A.511.511,0,0,1,357.541,331.25Z" transform="translate(-356.141 -329.572)"/><path class="at" d="M366.616,330.684a.512.512,0,1,1-.512-.512A.512.512,0,0,1,366.616,330.684Z" transform="translate(-357.007 -329.518)"/></g></g><g transform="translate(0 0.432)"><ellipse class="a" cx="23.657" cy="13.658" rx="23.657" ry="13.658" transform="translate(0 94.363)"/><g transform="translate(8.745)"><g transform="translate(1.046 45.622)"><g transform="translate(1.404 50.539)"><path class="b" d="M125.581,390.447c-.294.119-.356.687-.376,1.811-.014.852-.164,2.341.839,2.615a3.119,3.119,0,0,0,3.08-.727c.774-1.019,1.293-1.911,2.4-3.158A8.621,8.621,0,0,0,133.9,387.4c.329-1.351.017-1.926-.907-2.3-1.272-.508-3.211,1.29-4.191,1.588C127.956,386.949,125.875,390.327,125.581,390.447Z" transform="translate(-125.188 -385.014)"/></g><path class="au" d="M125.55,390.465c-.295.119-.357.687-.376,1.812-.015.851-.164,2.34.839,2.614a3.119,3.119,0,0,0,3.08-.726c.774-1.018,1.294-1.912,2.4-3.159a8.622,8.622,0,0,0,2.372-3.588c.33-1.35.017-1.926-.907-2.3-1.272-.508-3.21,1.29-4.191,1.588C127.924,386.967,125.844,390.346,125.55,390.465Z" transform="translate(-123.781 -334.477)"/><g transform="translate(1.773 54.345)"><path class="av" d="M125.6,389.807l.032,1.38a3.38,3.38,0,0,0,3.49.016c.057-.135.317-1.983.317-1.983Z" transform="translate(-125.596 -389.221)"/></g><g transform="translate(12.381 63.664)"><path class="b" d="M138.095,399.534s-.368,1.209-.558,2.263a6.078,6.078,0,0,0-.056,2.859c.307.621,1.455,1,3.222.947a10.378,10.378,0,0,1,4.182,1.357,10.967,10.967,0,0,0,5.237.71c1.569-.22,3.177-1.169,3.416-1.825s-.113-1.325-3.853-2.82c-.034-.014-5.189-1.562-7.026-3.5Z" transform="translate(-137.324 -399.524)"/></g><path class="au" d="M138.095,399.534s-.368,1.209-.558,2.263a6.078,6.078,0,0,0-.056,2.859c.307.621,1.455,1,3.222.947a10.378,10.378,0,0,1,4.182,1.357,10.967,10.967,0,0,0,5.237.71c1.569-.22,3.177-1.169,3.416-1.825s-.113-1.325-3.853-2.82c-.034-.014-5.189-1.562-7.026-3.5Z" transform="translate(-124.942 -335.86)"/><g transform="translate(13.119 62.173)"><path class="av" d="M138.139,397.884s.028,1.024.036,1.61.719,1.442,2.507,1.338c1.256-.073,2.126-.431,2.052-1.465l-.033-1.492Z" transform="translate(-138.139 -397.875)"/></g><path class="aw" d="M124.1,365.779c.53-4.524.809-7.326.809-7.326s-.65-5.446-1.019-11.321c-.4-6.345-.323-13.883.212-16.56,0,0,20.4-4.609,20.932,2.725s-.223,26.049-.393,29.28-.663,6.1-1.211,11.339c-.542,5.174-2.11,17.4-2.11,17.4a4.843,4.843,0,0,1-4.563.009s-1.773-14.648-1.705-18.373a31.79,31.79,0,0,1,1.228-8.155s-.526-6.045-.987-11.3-.882-7.779-1.013-10.068l-.446-.208s-.245,9.095-.414,12.325-.613,6.336-1.411,12.347c-.693,5.215-2.856,16.266-2.856,16.266a3.076,3.076,0,0,1-3.742-.082S123.568,370.3,124.1,365.779Z" transform="translate(-123.636 -329.143)"/><g transform="translate(3.077 9.792)"><path class="ax" d="M134.6,344.459a42.873,42.873,0,0,1-7.565-4.491,16.454,16.454,0,0,0,5.449,4.578s1.332,11.261,1.322,11.038l.372-11.132Z" transform="translate(-127.038 -339.968)"/></g></g><g transform="translate(0 2.864)"><path class="av" d="M138.5,298.509l-1.062,6.7-6.039-.3.7-7.839Z" transform="translate(-123.332 -283.324)"/><g transform="translate(0 9.924)"><path class="at" d="M129.3,301.487s-4.194-1.077-5.989,1.928-.122,9.5-.122,9.5Z" transform="translate(-122.48 -293.651)"/><path class="ay" d="M123.463,305.631c.556-1.828,3.558-4.5,5.872-4.128q.806.13,1.57.266c.278,1.13,3.167,2,6.125,1.305q1.338.351,2.451.721c2.126.706,4.089,2.486,4.42,9.42,0,0,1.875,20.534,1.9,30.887a19.818,19.818,0,0,1-3.76,1.139c-.139.028-.679-12.582-.819-12.556-.2.036,0,12.707-.194,12.739a33.994,33.994,0,0,1-9.957-.032,19.6,19.6,0,0,1-8.224-3.114s0-13.223.942-19.749c-.427-4.474-.517-7.445-.717-9.037A17.573,17.573,0,0,1,123.463,305.631Z" transform="translate(-122.514 -293.668)"/><g transform="translate(1.955 28.739)"><path class="aq" d="M134.158,326.67s-5.875.536-9.007-2.054c-.6.393-.643.936-.274,1.917,0,0,3.07,2.53,8.994,1.967A1.412,1.412,0,0,0,134.158,326.67Z" transform="translate(-124.641 -324.616)"/><path class="at" d="M133.831,327.8a.512.512,0,1,0,.585-.427A.512.512,0,0,0,133.831,327.8Z" transform="translate(-125.518 -324.879)"/><path class="at" d="M124.954,325.836a.512.512,0,1,0,.585-.427A.512.512,0,0,0,124.954,325.836Z" transform="translate(-124.671 -324.691)"/></g><path class="at" d="M138.106,300.791s.291-.078.5.319a15.7,15.7,0,0,1,.558,2.186s-1.275,1.459-4.561,1.062a4.505,4.505,0,0,1-4-2.792s.412-1.934,1.212-1.857l-.062.678s.314.725,2.261.975A6.14,6.14,0,0,0,138.106,300.791Z" transform="translate(-123.256 -293.499)"/><g transform="translate(28.342)"><path class="b" d="M159.815,293.148l12.579,6.564-6.25,17.09L154.4,310.226Z" transform="translate(-153.869 -292.874)"/><path class="ap" d="M159.815,293.148l12.579,6.564-6.25,17.09L154.4,310.226Z" transform="translate(-153.869 -292.874)"/><path class="b" d="M159.223,292.845l12.579,6.564-6.25,17.09-11.739-6.576Z" transform="translate(-153.813 -292.845)"/><path class="ay" d="M160.082,294.754l10.553,5.507L165.1,314.954l-9.848-5.517Z" transform="translate(-153.951 -293.027)"/><path class="ar" d="M163.485,296.68l.2-.523c.113-.289.991-.117,1.962.384l1.858.96c.971.5,1.666,1.141,1.553,1.429l-.2.523Z" transform="translate(-154.736 -293.147)"/><g transform="translate(8.626 1.277)"><path class="h" d="M163.7,294.421c.07-.181.451-.151.854.066l.727.393s.448-1.129,2.122-.347,1.291,2.09,1.291,2.09l.773.426c.427.234.731.573.678.757l-.094.333-6.479-3.381S163.628,294.6,163.7,294.421Z" transform="translate(-163.37 -294.256)"/><path class="i" d="M164.475,295.25c.6.3.84.439.667.884-.2.508-.383.874-.383.874l2.867,1.5s.238-.646.343-.9.314-.369.77-.13l.17-.179-4.52-2.3Z" transform="translate(-163.448 -294.327)"/><path class="h" d="M163.349,296.71l.2-.523c.113-.289.991-.117,1.962.384l1.858.96c.971.5,1.666,1.141,1.553,1.43l-.2.522Z" transform="translate(-163.349 -294.427)"/></g></g><g transform="translate(17.319 10.272)"><path class="av" d="M141.626,304.2c2.406.722,3.872.853,6.531,4.943s8.678,11.758,9.255,12.732a5.169,5.169,0,0,1,.261,4.665c-.647,1.164-2.2.479-4.84-1.837-2.552-2.239-7.936-8.4-7.936-8.4A43.564,43.564,0,0,1,141.626,304.2Z" transform="translate(-141.626 -304.2)"/></g><path class="av" d="M158.4,327.273c2.225-.27,7.031-7,8.51-9.306a16.439,16.439,0,0,1,4.5-4.753c2.356-1.74,2.014-4.415.985-6.867-.355-.849-1.563-.3-1.563-.3l-.425,1.163-.736,2.014c-.5.463-.783.614-.817.476-.063-.26.366-1.343.356-2.472-.013-1.359-.964-.466-1.248.011a16.912,16.912,0,0,0-1,2.244c-.474,1.216-.279,2.446-.856,3.275s-8.335,8.26-8.335,8.26Z" transform="translate(-125.849 -294.088)"/><path class="at" d="M141.14,304.041a12.627,12.627,0,0,1,3.644,1.18c1.917.96,2.551,2.6,5.312,6.181s6.346,8.493,6.346,8.493l6.451-5.669a3.7,3.7,0,0,0,2.941,2.691,39.681,39.681,0,0,1-5.574,8.282c-3.195,3.423-3.215,3.258-6.127,1.549s-9.609-9.928-9.609-9.928S137.839,311.564,141.14,304.041Z" transform="translate(-124.174 -293.913)"/></g><g transform="translate(19.641 6.962)"><path class="as" d="M144.193,289.57s1.584,2.4,1.4,2.64-1.346.45-1.346.45Z" transform="translate(-144.193 -289.57)"/></g><g transform="translate(17.013 4.732)"><path class="i" d="M141.288,288.992a1.887,1.887,0,1,1,1.887,1.888A1.889,1.889,0,0,1,141.288,288.992Zm.42,0a1.467,1.467,0,1,0,1.467-1.467A1.469,1.469,0,0,0,141.708,288.992Z" transform="translate(-141.288 -287.105)"/></g><g transform="translate(5.367)"><path class="av" d="M138.29,282.188c3.2.676,4.13,2.085,4.432,7.176.316,5.32-.228,6.992-.926,7.709-.472.483-3.094.571-4.417.206-1.655-.457-5.4-1.782-7.148-4.458-2.061-3.149-2.6-7.416-.4-9.166C132.94,281.191,136.986,281.913,138.29,282.188Z" transform="translate(-128.414 -281.874)"/></g><path class="i" d="M144.664,288.755l-5.7.737.23.4,5.469-.71Z" transform="translate(-124.054 -282.531)"/></g><g transform="translate(2.733)"><path class="i" d="M142.8,283.549c-.032.033-.064.064-.1.095-.616.584-1.406.956-2.051,1.51a4.77,4.77,0,0,0-1.455,2.318c-.213.737-.3,1.611-1.1,1.953,0,0-.507-1.966-2.164-1.72s-1.893,2.375-.842,3.668,2.032.8,2.032.8a8.714,8.714,0,0,1-1.3,4.4,8.5,8.5,0,0,1-4.024-.1c-1.6-.342-3.868-2.345-4.82-4.465-2.014-4.486-2.156-8.522.708-9.732.309-2.067,1.938-2.994,3.793-3.42,2.774-.638,5.369,1.01,8.114.4.574-.128,1.133-.335,1.719-.407a.352.352,0,0,1,.2.016c.139.071.13.271.09.422a3.586,3.586,0,0,1-.807,1.482,8.533,8.533,0,0,0,3.11-.393A4,4,0,0,1,142.8,283.549Z" transform="translate(-125.501 -278.708)"/><g transform="translate(0.222 2.583)"><path class="i" d="M127.665,283.242l-1.918-1.131a1.113,1.113,0,1,1,1.918,1.131Z" transform="translate(-125.747 -281.563)"/></g><g transform="translate(12.572 9.613)"><path class="i" d="M139.459,291.56l-.059-2.225a1.113,1.113,0,1,1,.059,2.225Z" transform="translate(-139.4 -289.335)"/></g></g></g></g></g></g></svg>