<svg xmlns="http://www.w3.org/2000/svg" width="24" height="24" viewBox="0 0 24 24"><defs><style>.a{fill:none;}.b{fill:#333;}</style></defs><g transform="translate(-10403 -440)"><rect class="a" width="24" height="24" transform="translate(10403 440)"/><path class="b" d="M63.19,20.581h-1.4V3.194a.71.71,0,0,0-.71-.71H55.758V.71a.71.71,0,0,0-.71-.71H50.125a.71.71,0,0,0-.71.71V2.484h-.577a.71.71,0,0,0-.71.71V20.581h-1.4a.723.723,0,0,0-.729.676A.71.71,0,0,0,46.71,22h5.056a.355.355,0,0,0,.355-.355V17.565h-.29a.723.723,0,0,1-.729-.675.71.71,0,0,1,.709-.744h6.278a.723.723,0,0,1,.729.675.71.71,0,0,1-.709.744H57.8v4.081a.355.355,0,0,0,.355.355H63.21a.71.71,0,0,0,.709-.744A.723.723,0,0,0,63.19,20.581Zm-9.96-5.9h-.8a.71.71,0,1,1,0-1.419h.8a.71.71,0,1,1,0,1.419Zm0-2.661h-.8a.71.71,0,1,1,0-1.419h.8a.71.71,0,1,1,0,1.419Zm0-2.661h-.8a.71.71,0,1,1,0-1.419h.8a.71.71,0,1,1,0,1.419Zm0-2.661h-.8a.71.71,0,1,1,0-1.419h.8a.71.71,0,1,1,0,1.419Zm4.214,7.984h-.8a.71.71,0,1,1,0-1.419h.8a.71.71,0,1,1,0,1.419Zm0-2.661h-.8a.71.71,0,1,1,0-1.419h.8a.71.71,0,1,1,0,1.419Zm0-2.661h-.8a.71.71,0,1,1,0-1.419h.8a.71.71,0,1,1,0,1.419Zm0-2.661h-.8a.71.71,0,1,1,0-1.419h.8a.71.71,0,1,1,0,1.419Zm-3.9,14.948V17.919a.355.355,0,0,1,.355-.355h2.129a.355.355,0,0,1,.355.355v3.726a.355.355,0,0,1-.355.355H53.9A.355.355,0,0,1,53.54,21.645Z" transform="translate(10360 441)"/></g></svg>