<svg xmlns="http://www.w3.org/2000/svg" width="38" height="38" viewBox="0 0 38 38"><defs><style>.a{fill:none;}.b{fill:#00d8ae;}</style></defs><g transform="translate(-139 -240)"><rect class="a" width="38" height="38" transform="translate(139 240)"/><g transform="translate(75.427 243)"><g transform="translate(70.573)"><path class="b" d="M82.162,0A11.6,11.6,0,0,0,70.573,11.589c0,7.931,10.371,19.573,10.813,20.065a1.044,1.044,0,0,0,1.553,0c.442-.492,10.813-12.134,10.813-20.065A11.6,11.6,0,0,0,82.162,0Zm0,17.42a5.831,5.831,0,1,1,5.831-5.831A5.837,5.837,0,0,1,82.162,17.42Z" transform="translate(-70.573)"/></g></g></g></svg>