<svg xmlns="http://www.w3.org/2000/svg" width="38" height="38" viewBox="0 0 38 38"><defs><style>.a{fill:#00d8ae;}.b{fill:none;}</style></defs><g transform="translate(-139 -240)"><g transform="translate(143 244)"><g transform="translate(0 0)"><path class="a" d="M27.593,19.692a17.033,17.033,0,0,1-5.349-.852,2.445,2.445,0,0,0-2.378.5l-3.373,2.546a18.641,18.641,0,0,1-8.381-8.38l2.471-3.285a2.425,2.425,0,0,0,.6-2.457,17.059,17.059,0,0,1-.855-5.358A2.41,2.41,0,0,0,7.917,0H2.407A2.41,2.41,0,0,0,0,2.407,27.624,27.624,0,0,0,27.593,30,2.41,2.41,0,0,0,30,27.593V22.1A2.41,2.41,0,0,0,27.593,19.692Z" transform="translate(0 0)"/></g></g><rect class="b" width="38" height="38" transform="translate(139 240)"/></g></svg>