<svg xmlns="http://www.w3.org/2000/svg" width="24" height="24" viewBox="0 0 24 24"><defs><style>.a{fill:none;}.b{fill:#333;}</style></defs><g transform="translate(-10403 -440)"><rect class="a" width="24" height="24" transform="translate(10403 440)"/><g transform="translate(10344.002 442)"><g transform="translate(63.998)"><path class="b" d="M78.665,2.417a.58.58,0,0,0-.583,0A4.647,4.647,0,0,1,75.8,3a4.353,4.353,0,0,1-3.133-1.233A5.027,5.027,0,0,0,69.041.333,5.22,5.22,0,0,0,66,1.28V1a1,1,0,1,0-2,0V19a1,1,0,0,0,2,0V10.333a.583.583,0,0,0,.3-.12,4.52,4.52,0,0,1,2.74-.88,4.36,4.36,0,0,1,3.14,1.233A5.023,5.023,0,0,0,75.8,12a5.21,5.21,0,0,0,2.913-.85A.667.667,0,0,0,79,10.583V3A.667.667,0,0,0,78.665,2.417Z" transform="translate(-63.998)"/></g></g></g></svg>