<svg xmlns="http://www.w3.org/2000/svg" width="24" height="24" viewBox="0 0 24 24"><defs><style>.a{fill:#333;}.b{fill:none;}</style></defs><g transform="translate(-155 -3409)"><g transform="translate(156 3333)"><g transform="translate(0 80)"><g transform="translate(0 0)"><path class="a" d="M20.625,80H1.375A1.375,1.375,0,0,0,0,81.375v.782l11,4.658,11-4.66v-.781A1.375,1.375,0,0,0,20.625,80Z" transform="translate(0 -80)"/></g></g><g transform="translate(0 83.651)"><g transform="translate(0 0)"><path class="a" d="M11.268,169.5a.681.681,0,0,1-.536,0L0,164.96v10.1a1.376,1.376,0,0,0,1.375,1.375h19.25A1.376,1.376,0,0,0,22,175.059v-10.1Z" transform="translate(0 -164.96)"/></g></g></g><rect class="b" width="24" height="24" transform="translate(155 3409)"/></g></svg>