<svg xmlns="http://www.w3.org/2000/svg" width="728" height="658.49" viewBox="0 0 728 658.49"><defs><style>.a{opacity:0.06;}.b{fill:#333;}.c{fill:#52e5cc;}.ag,.d,.l{opacity:0.5;}.aa,.ab,.ac,.ad,.ae,.ag,.ah,.ai,.aj,.ak,.al,.am,.an,.ao,.ap,.aq,.bh,.e,.j,.s,.t,.u,.v,.w,.x,.y,.z{fill:#27debf;}.as,.f,.l,.m,.n,.o{fill:#fff;}.f{opacity:0.9;}.g,.i{fill:none;}.g{stroke-miterlimit:10;}.ax,.g,.h,.j{opacity:0.3;}.i{stroke:#fff;stroke-linecap:round;stroke-linejoin:round;stroke-dasharray:2 4;}.as,.au,.k{opacity:0.2;}.m{opacity:0.65;}.n{opacity:0.8;}.p{fill:#455a64;}.q{fill:#37474f;}.r{fill:#263238;}.s{opacity:0.277;}.t{opacity:0.254;}.u{opacity:0.231;}.v{opacity:0.208;}.w{opacity:0.185;}.x{opacity:0.162;}.y{opacity:0.138;}.z{opacity:0.115;}.aa{opacity:0.092;}.ab{opacity:0.069;}.ac{opacity:0.046;}.ad{opacity:0.023;}.ae{opacity:0;}.af{opacity:0.7;}.ah{opacity:0.462;}.ai{opacity:0.423;}.aj{opacity:0.385;}.ak{opacity:0.346;}.al{opacity:0.308;}.am{opacity:0.269;}.an{opacity:0.192;}.ao{opacity:0.154;}.ap{opacity:0.077;}.aq{opacity:0.038;}.ar,.at{opacity:0.05;}.av{fill:#fafafa;}.aw{fill:#f0f0f0;}.ay{opacity:0.15;}.az{fill:#f28f8f;}.ba{fill:#e0e0e0;}.bb{opacity:0.4;}.bc{fill:#ffa8a7;}.bd{fill:#00d8ae;}.be{opacity:0.1;}.bf{fill:#f5f5f5;}.bg,.bh{stroke:none;}</style></defs><g transform="translate(-696 -167.534)"><g transform="translate(696 405.713)"><g class="a" transform="translate(0 0)"><ellipse class="b" cx="364" cy="210.155" rx="364" ry="210.155"/></g><g transform="translate(0.138 0.027)"><path class="c" d="M75.113,360.2,128.2,329.557l-.774-1.339L74.7,358.657H51.341L21.765,375.731c.211.475.418.949.633,1.423L51.755,360.2Z" transform="translate(-10.524 -113.392)"/><path class="c" d="M83.622,368.889l-.774-1.339L47.282,388.083H35.013c.4.516.8,1.033,1.2,1.548H47.7Z" transform="translate(-3.262 -91.832)"/><path class="c" d="M123.153,342.3l-.774-1.339L30.837,393.808c.293.427.573.858.872,1.285Z" transform="translate(-5.551 -106.409)"/><path class="c" d="M260.887,244.236l85.214-49.2c-.8-.135-1.608-.262-2.412-.395L260.113,242.9Z" transform="translate(120.132 -186.615)"/><path class="c" d="M305.666,192.463q-1.282-.156-2.565-.3l-18.933,10.93.774,1.339Z" transform="translate(133.318 -187.976)"/><path class="c" d="M211.953,213.118l-26.07,15.05a7.87,7.87,0,0,0-4.866.2l-36.156-20.876c-.686.2-1.369.4-2.053.6l36.749,21.216a1.78,1.78,0,0,0-.094,2.562l-21.029,12.141,33.625,19.414.774-1.341-31.3-18.073,19.337-11.162a7.809,7.809,0,0,0,5.2.215l29.29,16.911.774-1.339L187.7,232.226a1.9,1.9,0,0,0-.122-3.248l27.472-15.859L187.3,197.093c-.76.155-1.513.32-2.271.477Z" transform="translate(55.829 -185.271)"/><path class="c" d="M228.968,214.109V191.126c-.517.048-1.034.091-1.548.141v21.947L190.034,234.8a7.62,7.62,0,0,0-5.934.39c-1.879,1.085-1.879,2.844,0,3.929a7.526,7.526,0,0,0,6.8,0c1.612-.932,1.83-2.355.676-3.428l37-21.362Z" transform="translate(77.691 -188.542)"/><path class="c" d="M689.234,508.975c.392-.372.784-.742,1.17-1.113L671.314,496.84V473.006L505.364,377.2l-.681-1.178-.68.393-.678-.393-.181-.1H465.3L504,353.574c3.959,2.284,135.487,78.221,213.107,123.036q.439-.643.872-1.285c-73.184-42.253-194.41-112.244-211.315-122,6.556-.237,23.545.026,34.721.3l.218,0,2.609-1.5L727.963,458.215c.232-.463.455-.929.683-1.393L545.759,351.231l13.37-7.719,2.516,1.452h0l.133.076.046.026h0L688.681,418.02c-1.13,1.068-.907,2.482.7,3.406a7.516,7.516,0,0,0,6.8,0c1.878-1.084,1.878-2.842,0-3.928a7.634,7.634,0,0,0-5.963-.382L564.93,345.068h36.128l.062.105.183-.105h20.671l105.2,60.739,0,34.351,6.939,4.005c.184-.494.352-.989.53-1.483l-5.92-3.417V404.913L690,382.557l6.338-3.66V361.6l32.536-18.784q-.337-.7-.683-1.393l-33.015,19.061-.387.221V378l-6.337,3.661L659.947,365.2v-13.11l27.166-15.683.387-.221V310.882l14.036-8.1c-.353-.392-.7-.787-1.054-1.178L625.132,345.1l-2.564-1.48-.18-.1h-18.4l87.938-50.771c-.381-.373-.783-.74-1.169-1.112L600.889,343.52H562.237l-1.561-.9,47.461-27.4-.774-1.341L559.13,341.726,535.2,327.908h2.009l65.167-37.625h30.508a2.908,2.908,0,0,0,1.2,1.191,7.517,7.517,0,0,0,6.8,0c1.612-.931,1.83-2.355.677-3.426l26.816-15.482c-.446-.339-.879-.681-1.33-1.019l-27.034,15.607a7.624,7.624,0,0,0-5.932.392,2.915,2.915,0,0,0-1.2,1.189H601.962L536.795,326.36h-4.279l-26.965-15.568,74.931-43.262h44.432l19.578-11.3c-.5-.308-.986-.619-1.488-.927L624.5,265.982H580.069L504,309.9l-22.688-13.1,94.4-54.506a7.884,7.884,0,0,0,5.211-.05L605.791,256.6l19.628-11.331c-.536-.286-1.068-.576-1.607-.859l-18.021,10.4-23.38-13.5a1.824,1.824,0,0,0-.079-2.835l13.147-7.591c-.591-.254-1.172-.517-1.765-.768l-12.929,7.465a7.915,7.915,0,0,0-4.912-.046L549.479,222.3l9.2-5.313c-.656-.217-1.308-.438-1.966-.652l-8.786,5.072-11.347-6.552c1.05-1.061.811-2.432-.759-3.338a7.527,7.527,0,0,0-6.8,0c-1.612.93-1.83,2.355-.676,3.426l-94.406,54.5-5.821-3.361-.18-.1H396.87l51.3-29.621h23.36l51.432-29.694c-.724-.181-1.454-.35-2.18-.528L471.12,234.812h-23.36L394.679,265.46l.3.522H383.507l-27.926-16.123,51.754-29.88.387-.221V190.124c-.517-.023-1.033-.053-1.548-.074v28.811l-52.141,30.1-4.81-2.777-.774,1.339,4.036,2.332-24.545,14.17-4.812-2.778-.774,1.339,4.038,2.332L299.937,280.2l-.387.221v1l-5.672-3.276-.774,1.341,6.447,3.722v13.793l-13.263-7.657-.774,1.339,14.037,8.1v1.92l-21.843,12.61-19.734-11.393-.774,1.339L276.16,314.2l-21.747,12.557-19.736-11.394-.774,1.339,18.962,10.949-93.181,53.8H124.777L61.709,417.865V394.7l312.446-180.39.387-.223V189.457l-1.548.009V213.2L128.8,354.182H80.359l-65.74,37.955c-.037.616-.087,1.234-.115,1.852L80.773,355.73h45.347L60.548,393.588l-.387.221v24.949l-38.65,22.317c.172.494.35.988.528,1.482L125.19,383H160.1l94.316-54.454,10.791,6.231-26.1,15.068a7.605,7.605,0,0,0-6.231.269c-1.879,1.085-1.879,2.844,0,3.929a7.631,7.631,0,0,0,5.933.39l6.51,3.759-19.171,11.069-.387.221v20.281L119.52,451.1l-.387.223v29.889L95.221,495.023a7.627,7.627,0,0,0-5.934.392,2.913,2.913,0,0,0-1.2,1.191H55.38q.7.776,1.413,1.548h31.3a2.381,2.381,0,0,0,.519.686L68.842,510.253q.592.55,1.189,1.1l20.126-11.619a7.627,7.627,0,0,0,5.934-.392c1.612-.93,1.831-2.355.678-3.426l23.524-13.582.387-.223V452.222l106.239-61.337.387-.223V370.381l19.558-11.292,37.511,21.657L152.7,456.769l-.387.223v32.8L88.442,526.673c.447.339.881.681,1.331,1.019l63.7-36.778.387-.223v-32.8l132.062-76.247,16.835,9.721-23.089,13.331-.387.221v34.351L120.831,530.745,148.3,546.6a1.9,1.9,0,0,0-.122,3.248l-11.712,6.762c.547.28,1.1.557,1.646.836l11.7-6.756a7.808,7.808,0,0,0,5.2-.215l19.337,11.162-12.187,7.038q.889.381,1.782.759l13.5-7.8L156.417,549.5a1.78,1.78,0,0,0-.094-2.562l42.355-24.453.387-.223V504.97L349.3,418.23l19.81,11.438L234.3,507.5l-.387.221v23.153l-27.166,15.683-.387.223V572.09l-14.115,8.15c.646.221,1.291.446,1.94.666l143.672-82.948.387-.223V473.9l53.74-31.028,1.449.838v34.349l21.349,12.326-26.2,15.126H370.134L223.9,589.936q1.057.286,2.112.568L370.549,507.06H389l27.331-15.781L436.1,502.7l-46.25,26.7c-1.474.231-15.9.351-23.453.345h-.209l-115.716,66.65c.755.162,1.517.317,2.276.477L366.606,531.29c3.171.012,23.063,0,23.933-.5.407-.237,19.4-11.2,47.112-27.2l19.81,11.438-69.347,40.039H359.361l-46.794,27.252H299.993L269.2,600.1q1.18.214,2.363.423l28.849-16.654h12.577l46.795-27.252h28.75L459.01,515.92l38.079,21.986H447.674l-66.059,38.139a7.624,7.624,0,0,0-5.925.395c-1.879,1.084-1.879,2.843,0,3.928a7.514,7.514,0,0,0,6.8,0c1.615-.932,1.831-2.359.673-3.431l64.922-37.483h93.819l-46.1,26.618H447.363L378.7,605.715l.774,1.341,68.307-39.437h45.346l-65.571,37.858.774,1.339L545,539.453h14.915l8.343,4.816-24.888,14.369a7.62,7.62,0,0,0-5.934.39c-1.879,1.085-1.879,2.844,0,3.929a7.526,7.526,0,0,0,6.8,0c1.612-.93,1.83-2.355.677-3.426l24.888-14.369,33.8,19.515q.864-.395,1.725-.791l-44.821-25.878v0h0l-.133-.077-.045-.025h0l-110.07-63.3c1.147-1.071.926-2.491-.683-3.42a7.517,7.517,0,0,0-6.8,0c-1.878,1.084-1.878,2.842,0,3.928a7.626,7.626,0,0,0,5.942.389l108.508,62.4H500.184l-105.2-60.741V442.815l-1.448-.836,13.7-7.91L619.3,556.508l.18.105h.782q1.5-.771,2.988-1.548h-3.355L408.778,433.176l19.81-11.438c78.93,45.572,187.9,108.483,188.881,109.052,1.553.9,26.831.379,37.885.108l3.979,2.3c.466-.325.947-.646,1.409-.972l-4.991-2.883-.218,0c-13.562.336-35.7.655-37.289.1-.983-.567-109.241-63.069-188.109-108.6l17.293-9.984a3.482,3.482,0,0,0,.788.622,7.616,7.616,0,0,0,5.933.392l164.684,95.079.18.105h39.92l19.693,11.368c.421-.353.834-.709,1.251-1.064l-20.349-11.749-.18-.1h-39.92L471.755,420.251h44.293l86.769,50.1c-1.153,1.071-.935,2.5.677,3.426a7.517,7.517,0,0,0,6.8,0c1.88-1.085,1.88-2.844,0-3.928a7.628,7.628,0,0,0-5.934-.392l-87.721-50.645-.18-.105h-47.39L455.7,410.982c1.154-1.073.934-2.5-.678-3.426a5.634,5.634,0,0,0-1.079-.455L504,378.2l165.763,95.7v23.834ZM658.4,364.31l-9.806-5.662,9.806-5.66Zm27.553-52.534v23.517l-38.906,22.462L626.679,346ZM462.721,375.623l-19.811-11.438L463.8,352.126l2.42,1.4.189.108.218,0c11.209-.277,28.256-.542,34.741-.316ZM341.03,348.036,313.216,364.1v-3.387l-34.58-19.962,41.873-24.176v19.62Zm-15.595-34.31,37.511,21.657-20.368,11.76-20.521-11.85V315.676Zm-3.378.162v-2.113l1.83,1.057Zm29.925,58.8a6.386,6.386,0,0,0-2.372-.745l0-5.846,11.353-6.555,43.448,25.083-18.5,10.681-33.245-19.194C353.813,375.042,353.594,373.62,351.982,372.689Zm52.04-29.169h-18.4l-2.742,1.584-16.835-9.721,11.944-6.9Zm-24.489-15.926L398.052,316.9h4.736l44.542,25.717-1.562.9H407.117Zm1.8,18.4-20.368,11.758-16.835-9.719,20.368-11.758ZM359.413,358.65l-9.8,5.66V352.989Zm3.1,0,20.368-11.76,43.445,25.085-20.366,11.758ZM384.425,346l1.608-.929H406.7l33.111,19.117-11.942,6.9Zm25.373-.929h36.383l2.7-1.556,13.372,7.719-20.886,12.06Zm40.627-2.449L475.9,327.908h26.361l.192.11L463.8,350.338Zm-1.548-.893-43-24.825H446.5l2.619-1.511,21.5,12.415.18.1h2.011Zm.237-28.124-22.673-13.09,29.1-16.8L478.22,296.8Zm-1.547.893-1.486.858H403.2l-1.232-.711,22.927-13.237ZM377.985,326.7l-37.511-21.657,25.478-14.711a2.959,2.959,0,0,0,1.172,1.141,7.513,7.513,0,0,0,6.8,0,2.907,2.907,0,0,0,1.2-1.191h30.508l17.714,10.227Zm-1.547.893-11.944,6.9-37.512-21.657,11.944-6.9Zm-63.223,38.289,29.363-16.952,5.482,3.164V365.2l-28.506,16.459L313.216,378Zm34.845,1.109,0,4.912a6.667,6.667,0,0,0-2.883.785c-1.879,1.084-1.879,2.842,0,3.928a7.627,7.627,0,0,0,5.934.392c5.056,2.918,17.027,9.829,33.245,19.194l-19.81,11.438L321.1,382.557Zm37.847,30.1,19.81,11.438-19.81,11.438L366.1,408.534Zm1.548-.893,18.5-10.682,8.818,5.092.774-1.339-8.046-4.646,20.366-11.758,19.81,11.438-40.415,23.334Zm41.963-24.229,11.944-6.9,19.812,11.438-11.944,6.9Zm111.787-19.9c-10.272-.251-32.811-.717-37.2-.06-4.38-.658-26.929-.19-37.2.06l-1.458-.841L504,328.913l38.661,22.32Zm16.376-9.455-13.37,7.719L505.551,328.02l.192-.112H532.1ZM504,311.685l25.418,14.675H505.33l-1.327.765-1.144-.661-.18-.1H478.587Zm-1.548-.893L475.49,326.36h-4.279l-20.549-11.865,29.106-16.8Zm-35.763-33.518v-24.95l63.2-36.489a7.879,7.879,0,0,0,5.21-.05l39.155,22.606a1.859,1.859,0,0,0-.085,3.008l-94.406,54.5-22.673-13.09,9.212-5.32Zm-1.548-24.057v23.162l-9.6,5.541-20.058-11.58Zm-31.205,18.016L454,282.815l-29.1,16.8-18.666-10.778-.18-.1h-2.423Zm-79.906-20.481,29.059,16.778h44.432l4.866,2.81-30.73,17.74H374.635a3.627,3.627,0,0,0-.707-.534,7.624,7.624,0,0,0-5.933-.392l-38.506-22.23ZM301.1,281.315l26.842-15.5,38.506,22.23a2.67,2.67,0,0,0-.39.438l-27.13,15.663L301.1,282.309Zm0,2.781,36.28,20.947-11.944,6.9L301.1,297.888Zm-.387,17.722.387-.221v-1.921l19.411,11.207v3.9l-43.422,25.068-8.787-5.072,23.3-13.451-12.34-7.125Zm-44.75,25.837L277.708,315.1l10.791,6.23-21.747,12.556Zm-15.607,25.889a1.813,1.813,0,0,0,.176-2.731l26.221-15.14,8.787,5.073L246.864,357.3Zm8.058,4.652,28.675-16.556,34.58,19.964v3.386l-25.745,14.864Zm39.059,22.551,24.2-13.969V378.9l6.337,3.66-13.7,7.908ZM197.9,503.852l-.387.223v17.293l-42.652,24.627a7.881,7.881,0,0,0-4.869-.2l-26.068-15.05L280.443,440.38l.387-.221V405.808l23.476-13.554,43.446,25.083ZM305.856,391.36l13.7-7.91L363,408.534l-13.7,7.908Zm44.993,25.977,13.7-7.908,19.81,11.438-13.7,7.908Zm-13.768,55.446-.387.223V496.84L207.906,571.2V547.679L301.4,493.7l-.774-1.339-65.167,37.622V508.622l135.2-78.06,19.776,11.418Zm54.9-31.7-19.778-11.418,13.7-7.908,19.778,11.418Zm15.246-8.8-19.778-11.419,19.81-11.438,19.778,11.419Zm43.614-25.5a6.558,6.558,0,0,0-2.629.771,2.436,2.436,0,0,0-1.393,1.869l-18.233,10.528-19.778-11.419L449.226,385.2l1.618.933Zm1.548-.576V385.237l-1.618-.934,11.944-6.9.093.054h39.372Z" transform="translate(-14.504 -189.457)"/><path class="c" d="M89.153,290.981,28.464,326.02c-.454.853-.91,1.706-1.344,2.562l63.785-36.826h44.021l21.438,12.376-14.736,8.507a7.628,7.628,0,0,0-5.934.39,2.921,2.921,0,0,0-1.2,1.191H78.74L18.714,348.875c-.237.728-.463,1.455-.686,2.183l61.125-35.291H134.5a2.913,2.913,0,0,0,1.2,1.191,7.527,7.527,0,0,0,6.8,0c1.612-.93,1.83-2.355.678-3.426l14.736-8.507,11.3,6.524.774-1.341-10.526-6.077L184,289.96l11.3,6.524.774-1.339-10.526-6.078,27.7-16,11.3,6.524.774-1.339L214.8,272.177l11.946-6.9,5.4,3.116.774-1.341-4.626-2.669,16.959-9.792-.774-1.339L226.748,263.5l-20.555-11.868c1.259-1.081,1.064-2.556-.59-3.511a7.627,7.627,0,0,0-6.083-.341l-1.6-.921V221.547l-18.313-10.572c-.629.234-1.259.463-1.886.7l18.651,10.767v23.517l-42.459-24.512c-.579.259-1.147.529-1.723.791l45.846,26.469c-1.05,1.061-.81,2.431.759,3.336a7.616,7.616,0,0,0,5.779.438L225.2,264.388l-11.946,6.9-74.182-42.827c-.551.274-1.095.559-1.644.836l74.28,42.884-27.706,16-35.71-20.617-.18-.105H117.106a3.063,3.063,0,0,0-1.129-1.057,7.611,7.611,0,0,0-5.772-.44l-17.284-9.978c-.461.33-.912.664-1.37,1l17.038,9.836c-1.265,1.081-1.073,2.559.584,3.516a7.527,7.527,0,0,0,6.8,0A2.832,2.832,0,0,0,117.243,269H147.7l34.756,20.067L157.91,303.238l-22.571-13.031H90.907l-23.49-13.564c-.4.368-.777.742-1.17,1.112Z" transform="translate(-12.572 -177.661)"/><path class="c" d="M80.552,234.622a7.527,7.527,0,0,0,6.8,0c1.878-1.085,1.878-2.844,0-3.929a7.034,7.034,0,0,0-3.714-.768c-1.5.879-3,1.757-4.471,2.647A2.3,2.3,0,0,0,80.552,234.622Z" transform="translate(20.943 -167.278)"/></g><g class="d" transform="translate(0.138 0.027)"><path class="c" d="M689.234,508.975c.392-.372.784-.742,1.17-1.113L671.314,496.84V473.006L505.364,377.2l-.681-1.178-.68.393-.678-.393-.181-.1H465.3L504,353.574c3.959,2.284,135.487,78.221,213.107,123.036q.439-.643.872-1.285c-73.184-42.253-194.41-112.244-211.315-122,6.556-.237,23.545.026,34.721.3l.218,0,2.609-1.5L727.963,458.215c.232-.463.455-.929.683-1.393L545.759,351.231l13.37-7.719,2.516,1.452h0l.133.076.046.026h0L688.681,418.02c-1.13,1.068-.907,2.482.7,3.406a7.516,7.516,0,0,0,6.8,0c1.878-1.084,1.878-2.842,0-3.928a7.634,7.634,0,0,0-5.963-.382L564.93,345.068h36.128l.062.105.183-.105h20.671l105.2,60.739,0,34.351,6.939,4.005c.184-.494.352-.989.53-1.483l-5.92-3.417V404.913L690,382.557l6.338-3.66V361.6l32.536-18.784q-.337-.7-.683-1.393l-33.015,19.061-.387.221V378l-6.337,3.661L659.947,365.2v-13.11l27.166-15.683.387-.221V310.882l14.036-8.1c-.353-.392-.7-.787-1.054-1.178L625.132,345.1l-2.564-1.48-.18-.1h-18.4l87.938-50.771c-.381-.373-.783-.74-1.169-1.112L600.889,343.52H562.237l-1.561-.9,47.461-27.4-.774-1.341L559.13,341.726,535.2,327.908h2.009l65.167-37.625h30.508a2.908,2.908,0,0,0,1.2,1.191,7.517,7.517,0,0,0,6.8,0c1.612-.931,1.83-2.355.677-3.426l26.816-15.482c-.446-.339-.879-.681-1.33-1.019l-27.034,15.607a7.624,7.624,0,0,0-5.932.392,2.915,2.915,0,0,0-1.2,1.189H601.962L536.795,326.36h-4.279l-26.965-15.568,74.931-43.262h44.432l19.578-11.3c-.5-.308-.986-.619-1.488-.927L624.5,265.982H580.069L504,309.9l-22.688-13.1,94.4-54.506a7.884,7.884,0,0,0,5.211-.05L605.791,256.6l19.628-11.331c-.536-.286-1.068-.576-1.607-.859l-18.021,10.4-23.38-13.5a1.824,1.824,0,0,0-.079-2.835l13.147-7.591c-.591-.254-1.172-.517-1.765-.768l-12.929,7.465a7.915,7.915,0,0,0-4.912-.046L549.479,222.3l9.2-5.313c-.656-.217-1.308-.438-1.966-.652l-8.786,5.072-11.347-6.552c1.05-1.061.811-2.432-.759-3.338a7.527,7.527,0,0,0-6.8,0c-1.612.93-1.83,2.355-.676,3.426l-94.406,54.5-5.821-3.361-.18-.1H396.87l51.3-29.621h23.36l51.432-29.694c-.724-.181-1.454-.35-2.18-.528L471.12,234.812h-23.36L394.679,265.46l.3.522H383.507l-27.926-16.123,51.754-29.88.387-.221V190.124c-.517-.023-1.033-.053-1.548-.074v28.811l-52.141,30.1-4.81-2.777-.774,1.339,4.036,2.332-24.545,14.17-4.812-2.778-.774,1.339,4.038,2.332L299.937,280.2l-.387.221v1l-5.672-3.276-.774,1.341,6.447,3.722v13.793l-13.263-7.657-.774,1.339,14.037,8.1v1.92l-21.843,12.61-19.734-11.393-.774,1.339L276.16,314.2l-21.747,12.557-19.736-11.394-.774,1.339,18.962,10.949-93.181,53.8H124.777L61.709,417.865V394.7l312.446-180.39.387-.223V189.457l-1.548.009V213.2L128.8,354.182H80.359l-65.74,37.955c-.037.616-.087,1.234-.115,1.852L80.773,355.73h45.347L60.548,393.588l-.387.221v24.949l-38.65,22.317c.172.494.35.988.528,1.482L125.19,383H160.1l94.316-54.454,10.791,6.231-26.1,15.068a7.605,7.605,0,0,0-6.231.269c-1.879,1.085-1.879,2.844,0,3.929a7.631,7.631,0,0,0,5.933.39l6.51,3.759-19.171,11.069-.387.221v20.281L119.52,451.1l-.387.223v29.889L95.221,495.023a7.627,7.627,0,0,0-5.934.392,2.913,2.913,0,0,0-1.2,1.191H55.38q.7.776,1.413,1.548h31.3a2.381,2.381,0,0,0,.519.686L68.842,510.253q.592.55,1.189,1.1l20.126-11.619a7.627,7.627,0,0,0,5.934-.392c1.612-.93,1.831-2.355.678-3.426l23.524-13.582.387-.223V452.222l106.239-61.337.387-.223V370.381l19.558-11.292,37.511,21.657L152.7,456.769l-.387.223v32.8L88.442,526.673c.447.339.881.681,1.331,1.019l63.7-36.778.387-.223v-32.8l132.062-76.247,16.835,9.721-23.089,13.331-.387.221v34.351L120.831,530.745,148.3,546.6a1.9,1.9,0,0,0-.122,3.248l-11.712,6.762c.547.28,1.1.557,1.646.836l11.7-6.756a7.808,7.808,0,0,0,5.2-.215l19.337,11.162-12.187,7.038q.889.381,1.782.759l13.5-7.8L156.417,549.5a1.78,1.78,0,0,0-.094-2.562l42.355-24.453.387-.223V504.97L349.3,418.23l19.81,11.438L234.3,507.5l-.387.221v23.153l-27.166,15.683-.387.223V572.09l-14.115,8.15c.646.221,1.291.446,1.94.666l143.672-82.948.387-.223V473.9l53.74-31.028,1.449.838v34.349l21.349,12.326-26.2,15.126H370.134L223.9,589.936q1.057.286,2.112.568L370.549,507.06H389l27.331-15.781L436.1,502.7l-46.25,26.7c-1.474.231-15.9.351-23.453.345h-.209l-115.716,66.65c.755.162,1.517.317,2.276.477L366.606,531.29c3.171.012,23.063,0,23.933-.5.407-.237,19.4-11.2,47.112-27.2l19.81,11.438-69.347,40.039H359.361l-46.794,27.252H299.993L269.2,600.1q1.18.214,2.363.423l28.849-16.654h12.577l46.795-27.252h28.75L459.01,515.92l38.079,21.986H447.674l-66.059,38.139a7.624,7.624,0,0,0-5.925.395c-1.879,1.084-1.879,2.843,0,3.928a7.514,7.514,0,0,0,6.8,0c1.615-.932,1.831-2.359.673-3.431l64.922-37.483h93.819l-46.1,26.618H447.363L378.7,605.715l.774,1.341,68.307-39.437h45.346l-65.571,37.858.774,1.339L545,539.453h14.915l8.343,4.816-24.888,14.369a7.62,7.62,0,0,0-5.934.39c-1.879,1.085-1.879,2.844,0,3.929a7.526,7.526,0,0,0,6.8,0c1.612-.93,1.83-2.355.677-3.426l24.888-14.369,33.8,19.515q.864-.395,1.725-.791l-44.821-25.878v0h0l-.133-.077-.045-.025h0l-110.07-63.3c1.147-1.071.926-2.491-.683-3.42a7.517,7.517,0,0,0-6.8,0c-1.878,1.084-1.878,2.842,0,3.928a7.626,7.626,0,0,0,5.942.389l108.508,62.4H500.184l-105.2-60.741V442.815l-1.448-.836,13.7-7.91L619.3,556.508l.18.105h.782q1.5-.771,2.988-1.548h-3.355L408.778,433.176l19.81-11.438c78.93,45.572,187.9,108.483,188.881,109.052,1.553.9,26.831.379,37.885.108l3.979,2.3c.466-.325.947-.646,1.409-.972l-4.991-2.883-.218,0c-13.562.336-35.7.655-37.289.1-.983-.567-109.241-63.069-188.109-108.6l17.293-9.984a3.482,3.482,0,0,0,.788.622,7.616,7.616,0,0,0,5.933.392l164.684,95.079.18.105h39.92l19.693,11.368c.421-.353.834-.709,1.251-1.064l-20.349-11.749-.18-.1h-39.92L471.755,420.251h44.293l86.769,50.1c-1.153,1.071-.935,2.5.677,3.426a7.517,7.517,0,0,0,6.8,0c1.88-1.085,1.88-2.844,0-3.928a7.628,7.628,0,0,0-5.934-.392l-87.721-50.645-.18-.105h-47.39L455.7,410.982c1.154-1.073.934-2.5-.678-3.426a5.634,5.634,0,0,0-1.079-.455L504,378.2l165.763,95.7v23.834ZM658.4,364.31l-9.806-5.662,9.806-5.66Zm27.553-52.534v23.517l-38.906,22.462L626.679,346ZM462.721,375.623l-19.811-11.438L463.8,352.126l2.42,1.4.189.108.218,0c11.209-.277,28.256-.542,34.741-.316ZM341.03,348.036,313.216,364.1v-3.387l-34.58-19.962,41.873-24.176v19.62Zm-15.595-34.31,37.511,21.657-20.368,11.76-20.521-11.85V315.676Zm-3.378.162v-2.113l1.83,1.057Zm29.925,58.8a6.386,6.386,0,0,0-2.372-.745l0-5.846,11.353-6.555,43.448,25.083-18.5,10.681-33.245-19.194C353.813,375.042,353.594,373.62,351.982,372.689Zm52.04-29.169h-18.4l-2.742,1.584-16.835-9.721,11.944-6.9Zm-24.489-15.926L398.052,316.9h4.736l44.542,25.717-1.562.9H407.117Zm1.8,18.4-20.368,11.758-16.835-9.719,20.368-11.758ZM359.413,358.65l-9.8,5.66V352.989Zm3.1,0,20.368-11.76,43.445,25.085-20.366,11.758ZM384.425,346l1.608-.929H406.7l33.111,19.117-11.942,6.9Zm25.373-.929h36.383l2.7-1.556,13.372,7.719-20.886,12.06Zm40.627-2.449L475.9,327.908h26.361l.192.11L463.8,350.338Zm-1.548-.893-43-24.825H446.5l2.619-1.511,21.5,12.415.18.1h2.011Zm.237-28.124-22.673-13.09,29.1-16.8L478.22,296.8Zm-1.547.893-1.486.858H403.2l-1.232-.711,22.927-13.237ZM377.985,326.7l-37.511-21.657,25.478-14.711a2.959,2.959,0,0,0,1.172,1.141,7.513,7.513,0,0,0,6.8,0,2.907,2.907,0,0,0,1.2-1.191h30.508l17.714,10.227Zm-1.547.893-11.944,6.9-37.512-21.657,11.944-6.9Zm-63.223,38.289,29.363-16.952,5.482,3.164V365.2l-28.506,16.459L313.216,378Zm34.845,1.109,0,4.912a6.667,6.667,0,0,0-2.883.785c-1.879,1.084-1.879,2.842,0,3.928a7.627,7.627,0,0,0,5.934.392c5.056,2.918,17.027,9.829,33.245,19.194l-19.81,11.438L321.1,382.557Zm37.847,30.1,19.81,11.438-19.81,11.438L366.1,408.534Zm1.548-.893,18.5-10.682,8.818,5.092.774-1.339-8.046-4.646,20.366-11.758,19.81,11.438-40.415,23.334Zm41.963-24.229,11.944-6.9,19.812,11.438-11.944,6.9Zm111.787-19.9c-10.272-.251-32.811-.717-37.2-.06-4.38-.658-26.929-.19-37.2.06l-1.458-.841L504,328.913l38.661,22.32Zm16.376-9.455-13.37,7.719L505.551,328.02l.192-.112H532.1ZM504,311.685l25.418,14.675H505.33l-1.327.765-1.144-.661-.18-.1H478.587Zm-1.548-.893L475.49,326.36h-4.279l-20.549-11.865,29.106-16.8Zm-35.763-33.518v-24.95l63.2-36.489a7.879,7.879,0,0,0,5.21-.05l39.155,22.606a1.859,1.859,0,0,0-.085,3.008l-94.406,54.5-22.673-13.09,9.212-5.32Zm-1.548-24.057v23.162l-9.6,5.541-20.058-11.58Zm-31.205,18.016L454,282.815l-29.1,16.8-18.666-10.778-.18-.1h-2.423Zm-79.906-20.481,29.059,16.778h44.432l4.866,2.81-30.73,17.74H374.635a3.627,3.627,0,0,0-.707-.534,7.624,7.624,0,0,0-5.933-.392l-38.506-22.23ZM301.1,281.315l26.842-15.5,38.506,22.23a2.67,2.67,0,0,0-.39.438l-27.13,15.663L301.1,282.309Zm0,2.781,36.28,20.947-11.944,6.9L301.1,297.888Zm-.387,17.722.387-.221v-1.921l19.411,11.207v3.9l-43.422,25.068-8.787-5.072,23.3-13.451-12.34-7.125Zm-44.75,25.837L277.708,315.1l10.791,6.23-21.747,12.556Zm-15.607,25.889a1.813,1.813,0,0,0,.176-2.731l26.221-15.14,8.787,5.073L246.864,357.3Zm8.058,4.652,28.675-16.556,34.58,19.964v3.386l-25.745,14.864Zm39.059,22.551,24.2-13.969V378.9l6.337,3.66-13.7,7.908ZM197.9,503.852l-.387.223v17.293l-42.652,24.627a7.881,7.881,0,0,0-4.869-.2l-26.068-15.05L280.443,440.38l.387-.221V405.808l23.476-13.554,43.446,25.083ZM305.856,391.36l13.7-7.91L363,408.534l-13.7,7.908Zm44.993,25.977,13.7-7.908,19.81,11.438-13.7,7.908Zm-13.768,55.446-.387.223V496.84L207.906,571.2V547.679L301.4,493.7l-.774-1.339-65.167,37.622V508.622l135.2-78.06,19.776,11.418Zm54.9-31.7-19.778-11.418,13.7-7.908,19.778,11.418Zm15.246-8.8-19.778-11.419,19.81-11.438,19.778,11.419Zm43.614-25.5a6.558,6.558,0,0,0-2.629.771,2.436,2.436,0,0,0-1.393,1.869l-18.233,10.528-19.778-11.419L449.226,385.2l1.618.933Zm1.548-.576V385.237l-1.618-.934,11.944-6.9.093.054h39.372Z" transform="translate(-14.504 -189.457)"/></g></g><g transform="translate(701.754 167.534)"><g transform="translate(0)"><path class="e" d="M34.294,180.857,237.938,64.03c2.862-1.652,5.183-.313,5.183,2.993V217.636a11.452,11.452,0,0,1-5.183,8.975L34.3,343.439c-2.862,1.652-5.182.313-5.182-2.991V189.834A11.455,11.455,0,0,1,34.294,180.857Z" transform="translate(-29.113 -63.322)"/><path class="f" d="M34.294,180.857,237.938,64.03c2.862-1.652,5.183-.313,5.183,2.993V217.636a11.452,11.452,0,0,1-5.183,8.975L34.3,343.439c-2.862,1.652-5.182.313-5.182-2.991V189.834A11.455,11.455,0,0,1,34.294,180.857Z" transform="translate(-29.113 -63.322)"/><g class="g" transform="translate(-29.113 -63.322)"><path class="bg" d="M34.294,180.857,237.938,64.03c2.862-1.652,5.183-.313,5.183,2.993V217.636a11.452,11.452,0,0,1-5.183,8.975L34.3,343.439c-2.862,1.652-5.182.313-5.182-2.991V189.834A11.455,11.455,0,0,1,34.294,180.857Z"/><path class="bh" d="M 240.2524261474609 64.32177734375 C 239.7154998779297 64.32177734375 239.0879211425781 64.52017211914063 238.4352722167969 64.89688110351563 L 34.79396057128906 181.7231903076172 C 33.559814453125 182.4359130859375 32.38880920410156 183.6796417236328 31.49668884277344 185.2252655029297 C 30.60438537597656 186.7711029052734 30.11300659179688 188.4077606201172 30.11300659179688 189.8338012695313 L 30.11300659179688 340.447509765625 C 30.11300659179688 341.3509216308594 30.31277465820313 342.0786437988281 30.69065856933594 342.552001953125 C 31.00553894042969 342.9464111328125 31.43949890136719 343.1463623046875 31.98054504394531 343.1463623046875 C 32.51750183105469 343.1463623046875 33.14515686035156 342.9479370117188 33.79788208007813 342.5712280273438 L 237.4377746582031 225.7447662353516 C 238.6724548339844 225.0320739746094 239.8439178466797 223.7884216308594 240.7363433837891 222.2428741455078 C 241.6287231445313 220.6974182128906 242.1201934814453 219.0612945556641 242.1201934814453 217.6358795166016 L 242.1201934814453 67.02224731445313 C 242.1201934814453 66.11810302734375 241.9204254150391 65.389892578125 241.5424194335938 64.91629028320313 C 241.2275695800781 64.52178955078125 240.7935333251953 64.32177734375 240.2524261474609 64.32177734375 M 240.25244140625 63.32177734375 C 241.9529876708984 63.32177734375 243.1201934814453 64.67691040039063 243.1201934814453 67.02224731445313 L 243.1201934814453 217.6358795166016 C 243.1201934814453 220.9403076171875 240.8001556396484 224.9586029052734 237.9376525878906 226.61083984375 L 34.29550170898438 343.4385986328125 C 33.46351623535156 343.9188232421875 32.67723083496094 344.1463623046875 31.98056030273438 344.1463623046875 C 30.28025817871094 344.1463623046875 29.11300659179688 342.7914428710938 29.11300659179688 340.447509765625 L 29.11300659179688 189.8338012695313 C 29.11300659179688 186.5278015136719 31.43299865722656 182.5094146728516 34.29385375976563 180.8572235107422 L 237.9376525878906 64.02947998046875 C 238.7694702148438 63.54937744140625 239.5558624267578 63.32177734375 240.25244140625 63.32177734375 Z"/></g><g class="h" transform="translate(24.433 84.153)"><path class="e" d="M43.931,270.408a334.857,334.857,0,0,1,2.493-35.557c1.52-12.822,4.628-34.447,16.994-41.585s17,5.763,18.789,12.116c2.318,8.243,14.406,3.022,16.1-10.561s2.773-56.846,17.259-65.209S134.734,141.383,136.381,147c3.237,11.038,12.759,8,15.866.678s11.565-9.1,14.763,1.19,5.179,22.1,15.539,16.032c9.087-5.319,4.912-15.021,13.78-19.62,7.009-3.633,10.269,13.679,10.269,31.21Z" transform="translate(-43.931 -105.761)"/><path class="e" d="M44.819,169.208c0,1.885,1.693,2.435,3.783,1.23l20.522-11.818c2.088-1.207,3.781-3.713,3.781-5.6s-1.693-2.437-3.781-1.23L48.6,163.61C46.512,164.816,44.819,167.322,44.819,169.208Z" transform="translate(-43.355 -90.481)"/><path class="e" d="M79.663,132.412c0,1.886,1.693,2.437,3.783,1.23l20.521-11.818c2.089-1.205,3.783-3.712,3.783-5.6s-1.693-2.435-3.783-1.23L83.446,126.814C81.356,128.021,79.663,130.527,79.663,132.412Z" transform="translate(-20.745 -114.358)"/><path class="e" d="M104.154,137.208c0,1.885,1.693,2.435,3.783,1.23l20.522-11.818c2.089-1.207,3.783-3.713,3.783-5.6s-1.7-2.437-3.783-1.23L107.937,131.61C105.847,132.816,104.154,135.322,104.154,137.208Z" transform="translate(-4.852 -111.246)"/><path class="e" d="M127.049,142.463c0,1.885,1.693,2.435,3.783,1.23l20.521-11.818c2.089-1.207,3.783-3.713,3.783-5.6s-1.693-2.437-3.783-1.23l-20.521,11.818C128.742,138.071,127.049,140.577,127.049,142.463Z" transform="translate(10.004 -107.836)"/></g><line class="i" y2="66.203" transform="translate(43.919 171.657)"/><line class="i" y2="61.873" transform="translate(139.535 120.647)"/><line class="i" x2="0.068" y2="37.25" transform="translate(176.873 123.673)"/><line class="i" y2="99.185" transform="translate(99.347 106.536)"/></g><g transform="translate(502.483)"><path class="e" d="M549.657,180.857,346.013,64.03c-2.862-1.652-5.182-.313-5.182,2.993V217.636a11.452,11.452,0,0,0,5.182,8.975L549.657,343.439c2.861,1.652,5.181.313,5.181-2.991l0-150.614A11.457,11.457,0,0,0,549.657,180.857Z" transform="translate(-340.831 -63.322)"/><path class="f" d="M549.657,180.857,346.013,64.03c-2.862-1.652-5.182-.313-5.182,2.993V217.636a11.452,11.452,0,0,0,5.182,8.975L549.657,343.439c2.861,1.652,5.181.313,5.181-2.991l0-150.614A11.457,11.457,0,0,0,549.657,180.857Z" transform="translate(-340.831 -63.322)"/><g class="g" transform="translate(-340.831 -63.322)"><path class="bg" d="M549.657,180.857,346.013,64.03c-2.862-1.652-5.182-.313-5.182,2.993V217.636a11.452,11.452,0,0,0,5.182,8.975L549.657,343.439c2.861,1.652,5.181.313,5.181-2.991l0-150.614A11.457,11.457,0,0,0,549.657,180.857Z"/><path class="bh" d="M 343.6983032226563 64.32177734375 C 343.1574096679688 64.32177734375 342.7235107421875 64.52178955078125 342.40869140625 64.91635131835938 C 342.0307006835938 65.38998413085938 341.8309326171875 66.11822509765625 341.8309326171875 67.02224731445313 L 341.8309326171875 217.6358795166016 C 341.8309326171875 219.0612945556641 342.3223876953125 220.6974182128906 343.2147216796875 222.2428741455078 C 344.107177734375 223.7884216308594 345.2786254882813 225.0320739746094 346.5110473632813 225.7434539794922 L 550.1572875976563 342.5726318359375 C 550.8072509765625 342.947998046875 551.4345092773438 343.1463623046875 551.97119140625 343.1463623046875 C 552.5119018554688 343.1463623046875 552.9456787109375 342.9464111328125 553.260498046875 342.5520324707031 C 553.638427734375 342.0786437988281 553.838134765625 341.3509216308594 553.838134765625 340.447509765625 L 553.8397216796875 189.8338012695313 C 553.8397216796875 188.4079895019531 553.3480224609375 186.7713775634766 552.455322265625 185.2254180908203 C 551.5628662109375 183.6797943115234 550.3914794921875 182.43603515625 549.1596069335938 181.724609375 L 345.5134887695313 64.89556884765625 C 344.8632202148438 64.52023315429688 344.2356567382813 64.32183837890625 343.6985473632813 64.32177734375 L 343.6983032226563 64.32177734375 M 343.6986694335938 63.32177734375 C 344.395263671875 63.32183837890625 345.181640625 63.54937744140625 346.013427734375 64.02947998046875 L 549.6572265625 180.8572235107422 C 552.5181884765625 182.5094146728516 554.8397216796875 186.5278015136719 554.8397216796875 189.8338012695313 L 554.838134765625 340.447509765625 C 554.838134765625 342.7914428710938 553.6708984375 344.1463623046875 551.97119140625 344.1463623046875 C 551.2747192382813 344.1463623046875 550.48876953125 343.9188232421875 549.6572265625 343.4385986328125 L 346.013427734375 226.61083984375 C 343.1510009765625 224.9586029052734 340.8309326171875 220.9403076171875 340.8309326171875 217.6358795166016 L 340.8309326171875 67.02224731445313 C 340.8309326171875 64.67691040039063 341.9981689453125 63.32156372070313 343.6986694335938 63.32177734375 Z"/></g><path class="j" d="M349.336,169.714V163l20.093-19.336,15.047,31.9,15.137-17.41,12.22,22.186,35.551-45.915,14.581,32.9,22.51-34.345,30.284,87.36,22.117,27.735v29.915Z" transform="translate(-335.312 -18.121)"/><line class="i" y2="112.927" transform="translate(149.163 117.335)"/><line class="i" y2="88.221" transform="translate(112.208 119.12)"/><line class="i" y2="34.343" transform="translate(34.117 128.842)"/><line class="i" y2="37.808" transform="translate(63.88 142.717)"/><path class="j" d="M375.677,138.708c0,1.886-1.693,2.437-3.783,1.232l-11.963-6.97c-2.089-1.207-3.783-3.713-3.781-5.6s1.693-2.437,3.781-1.23l11.963,6.97C373.984,134.317,375.677,136.823,375.677,138.708Z" transform="translate(-330.89 -22.973)"/><path class="j" d="M393.577,151.992c0,1.885-1.693,2.437-3.781,1.23l-11.963-6.97c-2.089-1.205-3.783-3.712-3.783-5.6s1.693-2.435,3.783-1.23l11.963,6.97C391.884,147.6,393.577,150.106,393.577,151.992Z" transform="translate(-319.275 -14.353)"/><path class="j" d="M422.486,135.7c0,1.885-1.693,2.437-3.783,1.23l-11.961-6.97c-2.089-1.205-3.783-3.712-3.783-5.6s1.693-2.437,3.783-1.232L418.7,130.1C420.793,131.305,422.486,133.81,422.486,135.7Z" transform="translate(-300.516 -24.928)"/><path class="j" d="M446.04,135.226c0,1.885-1.693,2.435-3.783,1.23l-11.961-6.97c-2.089-1.205-3.783-3.712-3.783-5.6s1.693-2.435,3.783-1.23l11.961,6.97C444.347,130.834,446.04,133.34,446.04,135.226Z" transform="translate(-285.231 -25.233)"/></g></g><g transform="translate(818.275 192.822)"><g transform="translate(0 179.93)"><path class="k" d="M583.33,350.772,355.95,481.947a23.489,23.489,0,0,1-21.2,0L107.422,350.79c-2.935-1.67-4.4-3.873-4.4-6.116a6.261,6.261,0,0,1,2.323-4.605,10.546,10.546,0,0,1,2.079-1.509L334.8,207.427c5.829-3.384,15.328-3.384,21.2,0L583.33,338.542C589.16,341.926,589.16,347.43,583.33,350.772Z" transform="translate(-103.019 -147.906)"/><path class="e" d="M345.349,390.767v44.192a21.715,21.715,0,0,1-10.558-2.488L107.422,301.316c-2.935-1.711-4.4-3.914-4.4-6.116V256.919a6.267,6.267,0,0,1,2.323-4.607l32.9,19Z" transform="translate(-103.019 -117.134)"/><path class="l" d="M345.349,390.767v44.192a21.715,21.715,0,0,1-10.558-2.488L107.422,301.316c-2.935-1.711-4.4-3.914-4.4-6.116V256.919a6.267,6.267,0,0,1,2.323-4.607l32.9,19Z" transform="translate(-103.019 -117.134)"/><path class="e" d="M249.984,390.774v44.192a21.715,21.715,0,0,0,10.558-2.488L487.965,301.3c2.935-1.713,4.4-3.914,4.4-6.116V256.908a6.267,6.267,0,0,0-2.323-4.607l-32.9,19Z" transform="translate(-7.654 -117.141)"/><path class="m" d="M249.984,390.774v44.192a21.715,21.715,0,0,0,10.558-2.488L487.965,301.3c2.935-1.713,4.4-3.914,4.4-6.116V256.908a6.267,6.267,0,0,0-2.323-4.607l-32.9,19Z" transform="translate(-7.654 -117.141)"/><path class="e" d="M583.33,316.214,355.95,447.387a23.489,23.489,0,0,1-21.2,0L107.422,316.232c-2.935-1.672-4.4-3.873-4.4-6.116a6.267,6.267,0,0,1,2.323-4.607A10.6,10.6,0,0,1,107.422,304L334.8,172.869c5.829-3.384,15.328-3.384,21.2,0L583.33,303.984C589.16,307.368,589.16,312.87,583.33,316.214Z" transform="translate(-103.019 -170.331)"/><path class="n" d="M583.33,316.214,355.95,447.387a23.489,23.489,0,0,1-21.2,0L107.422,316.232c-2.935-1.672-4.4-3.873-4.4-6.116a6.267,6.267,0,0,1,2.323-4.607A10.6,10.6,0,0,1,107.422,304L334.8,172.869c5.829-3.384,15.328-3.384,21.2,0L583.33,303.984C589.16,307.368,589.16,312.87,583.33,316.214Z" transform="translate(-103.019 -170.331)"/><path class="o" d="M345.387,172.954a19.23,19.23,0,0,1,9.3,2.186L582.012,306.253c1.952,1.133,3.069,2.543,3.065,3.867s-1.116,2.708-3.059,3.82L354.628,445.122a20.914,20.914,0,0,1-18.566-.007L108.721,313.952c-1.956-1.113-3.077-2.511-3.077-3.835a3.8,3.8,0,0,1,1.484-2.683,8.049,8.049,0,0,1,1.6-1.159L336.12,175.138a19.05,19.05,0,0,1,9.267-2.183m0-2.623a21.55,21.55,0,0,0-10.584,2.538L107.423,304a10.5,10.5,0,0,0-2.081,1.507,6.267,6.267,0,0,0-2.323,4.607c0,2.243,1.468,4.444,4.4,6.116L334.75,447.387a23.489,23.489,0,0,0,21.2,0L583.33,316.214c5.83-3.344,5.83-8.846,0-12.23L356,172.869a21.724,21.724,0,0,0-10.614-2.538Z" transform="translate(-103.019 -170.331)"/><path class="p" d="M319.589,188.685,134.827,295.243c-3.9,2.252-3.9,5.9,0,8.154L319.54,409.939a15.613,15.613,0,0,0,14.123,0l184.761-106.56c3.9-2.251,3.9-5.9,0-8.154L333.712,188.685A15.6,15.6,0,0,0,319.589,188.685Z" transform="translate(-84.277 -159.517)"/><path class="q" d="M441.784,295.225,257.073,188.684A14.435,14.435,0,0,0,250.011,187l0,7.174L440.564,304.083l1.22-.7C445.684,301.128,445.684,297.477,441.784,295.225Z" transform="translate(-7.637 -159.517)"/><path class="r" d="M326.653,187a14.437,14.437,0,0,0-7.064,1.689L134.827,295.243c-3.9,2.252-3.9,5.9,0,8.154l1.219.7L326.653,194.17Z" transform="translate(-84.277 -159.517)"/></g><g transform="translate(47.356 0.385)"><g class="d" transform="translate(194.76)"><path class="j" d="M262.854,347.131a22.538,22.538,0,0,1-12.98,3.045c-.069,0,.071-.008,0-.007.064,0-.064.008,0,.007v25.64a16.187,16.187,0,0,0,8.706-2.581L439.659,268.69c3.37-1.86,4.995-3.5,4.995-5.76V242.2Z" transform="translate(-249.854 55.851)"/><path class="s" d="M262.854,333.226c-3.69,2.351-8.221,3.206-12.98,3.047-.069,0,.071-.01,0-.008.064,0-.064.008,0,.007v25.642a16.19,16.19,0,0,0,8.706-2.582L439.659,254.784c3.37-1.858,4.995-3.5,4.995-5.76V228.3Z" transform="translate(-249.854 46.829)"/><path class="t" d="M262.854,319.322a22.538,22.538,0,0,1-12.98,3.046c-.069,0,.071-.008,0-.007.064,0-.064.008,0,.007v25.64a16.175,16.175,0,0,0,8.706-2.582L439.659,240.881c3.37-1.86,4.995-3.5,4.995-5.76V214.393Z" transform="translate(-249.854 37.806)"/><path class="u" d="M262.854,305.417a22.552,22.552,0,0,1-12.98,3.047c-.069,0,.071-.01,0-.008.064,0-.064.008,0,.007V334.1a16.19,16.19,0,0,0,8.706-2.582L439.659,226.975c3.37-1.858,4.995-3.5,4.995-5.76V200.489Z" transform="translate(-249.854 28.784)"/><path class="v" d="M262.854,291.513a22.538,22.538,0,0,1-12.98,3.046c-.069,0,.071-.008,0-.008.064,0-.064.008,0,.008V320.2a16.176,16.176,0,0,0,8.706-2.582L439.659,213.072c3.37-1.86,4.995-3.5,4.995-5.761V186.584Z" transform="translate(-249.854 19.761)"/><path class="w" d="M262.854,277.608a22.552,22.552,0,0,1-12.98,3.047c-.069,0,.071-.01,0-.008.064,0-.064.008,0,.007v25.64a16.174,16.174,0,0,0,8.706-2.581L439.659,199.166c3.37-1.858,4.995-3.5,4.995-5.76V172.68Z" transform="translate(-249.854 10.738)"/><path class="x" d="M262.854,263.7a22.538,22.538,0,0,1-12.98,3.046c-.069,0,.071-.008,0-.008.064,0-.064.008,0,.007V292.39a16.176,16.176,0,0,0,8.706-2.582L439.659,185.261c3.37-1.858,4.995-3.5,4.995-5.76V158.775Z" transform="translate(-249.854 1.716)"/><path class="y" d="M262.854,249.8a22.538,22.538,0,0,1-12.98,3.046c-.069,0,.071-.008,0-.007.064,0-.064.008,0,.007v25.64a16.161,16.161,0,0,0,8.706-2.582L439.659,171.358c3.37-1.86,4.995-3.5,4.995-5.76V144.87Z" transform="translate(-249.854 -7.307)"/><path class="z" d="M262.854,235.894a22.552,22.552,0,0,1-12.98,3.047c-.069,0,.071-.008,0-.008.064,0-.064.008,0,.007v25.642A16.19,16.19,0,0,0,258.58,262L439.659,157.452c3.37-1.858,4.995-3.5,4.995-5.76V130.966Z" transform="translate(-249.854 -16.33)"/><path class="aa" d="M262.854,221.99a22.539,22.539,0,0,1-12.98,3.046c-.069,0,.071-.008,0-.008.064,0-.064.01,0,.008v25.64a16.175,16.175,0,0,0,8.706-2.582L439.659,143.549c3.37-1.86,4.995-3.5,4.995-5.76V117.061Z" transform="translate(-249.854 -25.353)"/><path class="ab" d="M262.854,208.085a22.552,22.552,0,0,1-12.98,3.047c-.069,0,.071-.01,0-.008.064,0-.064.008,0,.007v25.642a16.19,16.19,0,0,0,8.706-2.582L439.659,129.643c3.37-1.858,4.995-3.5,4.995-5.76V103.157Z" transform="translate(-249.854 -34.375)"/><path class="ac" d="M262.854,194.181a22.538,22.538,0,0,1-12.98,3.046c-.069,0,.071-.008,0-.008.064,0-.064.008,0,.008v25.64a16.176,16.176,0,0,0,8.706-2.582L439.659,115.74c3.37-1.86,4.995-3.5,4.995-5.76V89.252Z" transform="translate(-249.854 -43.398)"/><path class="ad" d="M262.854,180.276a22.552,22.552,0,0,1-12.98,3.047c-.069,0,.071-.01,0-.008.064,0-.064.008,0,.007v25.642a16.19,16.19,0,0,0,8.706-2.582L439.659,101.834c3.37-1.858,4.995-3.5,4.995-5.76V75.348Z" transform="translate(-249.854 -52.42)"/><path class="ae" d="M262.854,166.372a22.538,22.538,0,0,1-12.98,3.046c-.069,0,.071-.008,0-.008.064,0-.064.008,0,.008v25.64a16.176,16.176,0,0,0,8.706-2.582L439.659,87.931c3.37-1.86,4.995-3.5,4.995-5.761V61.443Z" transform="translate(-249.854 -61.443)"/></g><g class="af"><path class="ag" d="M313.538,347.131a22.538,22.538,0,0,0,12.98,3.045c.071,0-.069-.008,0-.007-.064,0,.064.008,0,.007v25.64a16.188,16.188,0,0,1-8.706-2.581L136.734,268.69c-3.37-1.86-4.995-3.5-4.995-5.76V242.2Z" transform="translate(-131.739 55.851)"/><path class="ah" d="M313.538,333.226c3.69,2.351,8.221,3.206,12.98,3.047.071,0-.069-.01,0-.008-.064,0,.064.008,0,.007v25.642a16.19,16.19,0,0,1-8.706-2.582L136.734,254.784c-3.37-1.858-4.995-3.5-4.995-5.76V228.3Z" transform="translate(-131.739 46.829)"/><path class="ai" d="M313.538,319.322a22.538,22.538,0,0,0,12.98,3.046c.071,0-.069-.008,0-.007-.064,0,.064.008,0,.007v25.64a16.175,16.175,0,0,1-8.706-2.582L136.734,240.881c-3.37-1.86-4.995-3.5-4.995-5.76V214.393Z" transform="translate(-131.739 37.806)"/><path class="aj" d="M313.538,305.417a22.552,22.552,0,0,0,12.98,3.047c.071,0-.069-.01,0-.008-.064,0,.064.008,0,.007V334.1a16.19,16.19,0,0,1-8.706-2.582L136.734,226.975c-3.37-1.858-4.995-3.5-4.995-5.76V200.489Z" transform="translate(-131.739 28.784)"/><path class="ak" d="M313.538,291.513a22.538,22.538,0,0,0,12.98,3.046c.071,0-.069-.008,0-.008-.064,0,.064.008,0,.008V320.2a16.176,16.176,0,0,1-8.706-2.582L136.734,213.072c-3.37-1.86-4.995-3.5-4.995-5.761V186.584Z" transform="translate(-131.739 19.761)"/><path class="al" d="M313.538,277.608a22.552,22.552,0,0,0,12.98,3.047c.071,0-.069-.01,0-.008-.064,0,.064.008,0,.007v25.64a16.174,16.174,0,0,1-8.706-2.581L136.734,199.166c-3.37-1.858-4.995-3.5-4.995-5.76V172.68Z" transform="translate(-131.739 10.738)"/><path class="am" d="M313.538,263.7a22.538,22.538,0,0,0,12.98,3.046c.071,0-.069-.008,0-.008-.064,0,.064.008,0,.007V292.39a16.176,16.176,0,0,1-8.706-2.582L136.734,185.261c-3.37-1.858-4.995-3.5-4.995-5.76V158.775Z" transform="translate(-131.739 1.716)"/><path class="u" d="M313.538,249.8a22.538,22.538,0,0,0,12.98,3.046c.071,0-.069-.008,0-.007-.064,0,.064.008,0,.007v25.64a16.161,16.161,0,0,1-8.706-2.582L136.734,171.358c-3.37-1.86-4.995-3.5-4.995-5.76V144.87Z" transform="translate(-131.739 -7.307)"/><path class="an" d="M313.538,235.894a22.552,22.552,0,0,0,12.98,3.047c.071,0-.069-.008,0-.008-.064,0,.064.008,0,.007v25.642A16.19,16.19,0,0,1,317.812,262L136.734,157.452c-3.37-1.858-4.995-3.5-4.995-5.76V130.966Z" transform="translate(-131.739 -16.33)"/><path class="ao" d="M313.538,221.99a22.538,22.538,0,0,0,12.98,3.046c.071,0-.069-.008,0-.008-.064,0,.064.01,0,.008v25.64a16.176,16.176,0,0,1-8.706-2.582L136.734,143.549c-3.37-1.86-4.995-3.5-4.995-5.76V117.061Z" transform="translate(-131.739 -25.353)"/><path class="z" d="M313.538,208.085a22.552,22.552,0,0,0,12.98,3.047c.071,0-.069-.01,0-.008-.064,0,.064.008,0,.007v25.642a16.19,16.19,0,0,1-8.706-2.582L136.734,129.643c-3.37-1.858-4.995-3.5-4.995-5.76V103.157Z" transform="translate(-131.739 -34.375)"/><path class="ap" d="M313.538,194.181a22.538,22.538,0,0,0,12.98,3.046c.071,0-.069-.008,0-.008-.064,0,.064.008,0,.008v25.64a16.176,16.176,0,0,1-8.706-2.582L136.734,115.74c-3.37-1.86-4.995-3.5-4.995-5.76V89.252Z" transform="translate(-131.739 -43.398)"/><path class="aq" d="M313.538,180.276a22.552,22.552,0,0,0,12.98,3.047c.071,0-.069-.01,0-.008-.064,0,.064.008,0,.007v25.642a16.19,16.19,0,0,1-8.706-2.582L136.734,101.834c-3.37-1.858-4.995-3.5-4.995-5.76V75.348Z" transform="translate(-131.739 -52.42)"/><path class="ae" d="M313.538,166.372a22.538,22.538,0,0,0,12.98,3.046c.071,0-.069-.008,0-.008-.064,0,.064.008,0,.008v25.64a16.176,16.176,0,0,1-8.706-2.582L136.734,87.931c-3.37-1.86-4.995-3.5-4.995-5.761V61.443Z" transform="translate(-131.739 -61.443)"/></g></g><g transform="translate(72.651)"><path class="e" d="M442.762,299.24s6.494,6.457,1.981,18.421c-4.331,11.632-18.5,13.576-18.5,13.576s1.872,19.045-28.989,21.393a18.832,18.832,0,0,0-.072-4s14.2-.551,14.421-22.6c.256-22.018-16.33-25.43-16.33-25.43a20.231,20.231,0,0,0,2.569-17.724c-4.037-12.073-12.586-10.788-12.586-10.788s6.2-4.55,3.486-15.817c-2.534-10.457-10.386-11.815-10.386-11.815s5.834-10.423-4.808-24.476c-10.677-14.054-21.538-11.889-21.538-11.889a31.671,31.671,0,0,0-7.523-18.825c-7.56-8.807-19.485-7.558-19.485-7.558a30.654,30.654,0,0,0-9.982-23.668c-11.3-10.679-22.641-10.2-22.641-10.2a18.106,18.106,0,0,0-7.632-15.743,20.825,20.825,0,0,0-20.476-2.936s-1.944-13.833-13.908-16.475c-15.631-3.412-23.373,5.8-23.373,5.8s-5.212-6.863-17.1-8.807A60.832,60.832,0,0,1,225.708,95.25c14.091-8.622,35.411-3.119,35.411-3.119A27.57,27.57,0,0,1,279.724,87a21.121,21.121,0,0,1,15.815,9.284s6.533-4.808,22.348-3.781,19.6,13.394,19.6,13.394,10.347-1.027,22.018,6.2c11.7,7.228,11.7,22.713,11.7,22.713s14.128-3.779,26.494,8.954c12.4,12.733,6.9,24.77,6.9,24.77a27.752,27.752,0,0,1,22.018,14.421c7.89,14.128,0,26.861,0,26.861a12.415,12.415,0,0,1,7.89,7.56c2.422,6.2,0,9.98,0,9.98s12.036,5.138,15.155,17.872c3.082,12.733-3.119,20.291-3.119,20.291s9.982,4.845,9.982,17.909S442.762,299.24,442.762,299.24Z" transform="translate(-116.713 -86.88)"/><path class="ar" d="M442.762,299.24s6.494,6.457,1.981,18.421c-4.331,11.632-18.5,13.576-18.5,13.576s1.872,19.045-28.989,21.393a18.832,18.832,0,0,0-.072-4s14.2-.551,14.421-22.6c.256-22.018-16.33-25.43-16.33-25.43a20.231,20.231,0,0,0,2.569-17.724c-4.037-12.073-12.586-10.788-12.586-10.788s6.2-4.55,3.486-15.817c-2.534-10.457-10.386-11.815-10.386-11.815s5.834-10.423-4.808-24.476c-10.677-14.054-21.538-11.889-21.538-11.889a31.671,31.671,0,0,0-7.523-18.825c-7.56-8.807-19.485-7.558-19.485-7.558a30.654,30.654,0,0,0-9.982-23.668c-11.3-10.679-22.641-10.2-22.641-10.2a18.106,18.106,0,0,0-7.632-15.743,20.825,20.825,0,0,0-20.476-2.936s-1.944-13.833-13.908-16.475c-15.631-3.412-23.373,5.8-23.373,5.8a21.257,21.257,0,0,0-5.175-4.4,8.736,8.736,0,0,0-.99-.586,31.037,31.037,0,0,0-10.935-3.816A60.832,60.832,0,0,1,225.708,95.25c14.091-8.622,35.411-3.119,35.411-3.119A27.57,27.57,0,0,1,279.724,87a21.121,21.121,0,0,1,15.815,9.284s6.533-4.808,22.348-3.781,19.6,13.394,19.6,13.394,10.347-1.027,22.018,6.2c11.7,7.228,11.7,22.713,11.7,22.713s14.128-3.779,26.494,8.954c12.4,12.733,6.9,24.77,6.9,24.77a27.752,27.752,0,0,1,22.018,14.421c7.89,14.128,0,26.861,0,26.861a12.415,12.415,0,0,1,7.89,7.56c2.422,6.2,0,9.98,0,9.98s12.036,5.138,15.155,17.872c3.082,12.733-3.119,20.291-3.119,20.291s9.982,4.845,9.982,17.909S442.762,299.24,442.762,299.24Z" transform="translate(-116.713 -86.88)"/><path class="k" d="M401.751,289.14a23.623,23.623,0,0,0,.771-16.922c-2.3-6.9-6.183-10.455-9.82-12.112,1.431-3.185,2.34-7.844.818-14.18-1.835-7.6-6.113-11.3-9.339-13.05,1.187-4.9,1.573-13.937-6.511-24.6-7.983-10.529-16.343-12.955-21.146-13.378a35.827,35.827,0,0,0-8.055-17.512c-5.871-6.847-13.875-8.486-18.627-8.809a35.108,35.108,0,0,0-11.1-22.69c-8.385-7.923-16.876-10.257-21.581-10.933a21.94,21.94,0,0,0-9.03-15.295,24.634,24.634,0,0,0-20.027-4.608c-1.682-5.065-5.878-13.246-15.757-15.417-12.017-2.641-20.008,1.383-24,4.35a33.319,33.319,0,0,0-14.563-7.034,66.811,66.811,0,0,0-5.171,6.595c11.364,1.223,16.382,7.346,16.648,7.686a3.681,3.681,0,0,0,2.812,1.439,3.725,3.725,0,0,0,2.9-1.272c.27-.3,6.7-7.486,19.792-4.6,9.281,2.039,11.026,12.935,11.094,13.388a3.689,3.689,0,0,0,5.181,2.806c.334-.151,8.3-3.663,16.722,2.565a14.449,14.449,0,0,1,6.187,12.366,3.682,3.682,0,0,0,.95,2.907,3.3,3.3,0,0,0,2.824,1.188c.363-.014,10.059-.171,19.975,9.2,9.758,9.222,8.914,20.216,8.873,20.66a3.681,3.681,0,0,0,4.022,4.014c.1-.019,10.158-.893,16.3,6.271a28.327,28.327,0,0,1,6.647,16.435,3.713,3.713,0,0,0,4.327,3.608c.361-.05,8.984-1.326,17.953,10.5,8.925,11.784,4.7,20.187,4.536,20.5a3.672,3.672,0,0,0-.093,3.321,3.732,3.732,0,0,0,2.629,2.072c.229.047,5.6,1.229,7.486,9.051,2.057,8.529-1.975,11.9-2.082,11.988a3.642,3.642,0,0,0-1.212,4.27,3.757,3.757,0,0,0,3.841,2.33c.575-.068,5.76-.319,8.626,8.3a16.512,16.512,0,0,1-1.977,14.365,3.68,3.68,0,0,0,2.146,5.816c.559.126,13.625,3.239,13.431,21.8-.19,18.016-10.522,18.936-10.908,18.965a3.687,3.687,0,0,0-3.484,4.218,15.9,15.9,0,0,1,.078,2.857,9.4,9.4,0,0,0,3.626.6c1.315-.1,2.492-.268,3.69-.425.01-.237.035-.5.041-.726,5.195-1.785,14.108-7.465,14.3-25.407C416.657,300.667,408.476,292.466,401.751,289.14Z" transform="translate(-117.917 -77.398)"/><path class="e" d="M442.382,337.84s14.2-.557,14.432-22.591-16.334-25.43-16.334-25.43a20.282,20.282,0,0,0,2.548-17.751c-4.008-12.056-12.568-10.782-12.568-10.782s6.195-4.542,3.482-15.809c-2.521-10.473-10.384-11.8-10.384-11.8s5.824-10.45-4.822-24.494-21.534-11.9-21.534-11.9a31.686,31.686,0,0,0-7.529-18.825c-7.531-8.785-19.453-7.529-19.453-7.529a30.813,30.813,0,0,0-10-23.69c-11.294-10.667-22.626-10.2-22.626-10.2a18.116,18.116,0,0,0-7.647-15.747,20.8,20.8,0,0,0-20.455-2.938s-1.971-13.825-13.939-16.454c-15.625-3.433-23.367,5.8-23.367,5.8s-10.574-13.978-36.015-7.787c-21.342,5.195-22.878,21.152-22.878,21.152s-21.9-4.105-31.943,10.955-6.9,34.512-6.9,34.512-12.549,8.785-11.922,21.962S168.8,209.2,168.8,209.2s-12.549,21.336-3.765,38.905S189.5,269.443,189.5,269.443s0,18.825,8.785,28.238,24.472,8.785,24.472,8.785,3.763,13.176,16.942,19.453,26.981,1.254,26.981,1.254a33.878,33.878,0,0,0,15.687,10.667c10.04,3.138,22.591,0,22.591,0a16.167,16.167,0,0,0,13.178,13.178c11.922,2.509,18.2-5.02,18.2-5.02s3.766,8.156,12.551,8.783a17.582,17.582,0,0,0,13.8-5.02s5.02,15.687,25.729,16.314,25.787-8.3,25.787-8.3,9.98,7.071,20.02-.47S442.382,337.84,442.382,337.84Z" transform="translate(-161.91 -76.09)"/><path class="as" d="M442.382,337.84s14.2-.557,14.432-22.591-16.334-25.43-16.334-25.43a20.282,20.282,0,0,0,2.548-17.751c-4.008-12.056-12.568-10.782-12.568-10.782s6.195-4.542,3.482-15.809c-2.521-10.473-10.384-11.8-10.384-11.8s5.824-10.45-4.822-24.494-21.534-11.9-21.534-11.9a31.686,31.686,0,0,0-7.529-18.825c-7.531-8.785-19.453-7.529-19.453-7.529a30.813,30.813,0,0,0-10-23.69c-11.294-10.667-22.626-10.2-22.626-10.2a18.116,18.116,0,0,0-7.647-15.747,20.8,20.8,0,0,0-20.455-2.938s-1.971-13.825-13.939-16.454c-15.625-3.433-23.367,5.8-23.367,5.8s-10.574-13.978-36.015-7.787c-21.342,5.195-22.878,21.152-22.878,21.152s-21.9-4.105-31.943,10.955-6.9,34.512-6.9,34.512-12.549,8.785-11.922,21.962S168.8,209.2,168.8,209.2s-12.549,21.336-3.765,38.905S189.5,269.443,189.5,269.443s0,18.825,8.785,28.238,24.472,8.785,24.472,8.785,3.763,13.176,16.942,19.453,26.981,1.254,26.981,1.254a33.878,33.878,0,0,0,15.687,10.667c10.04,3.138,22.591,0,22.591,0a16.167,16.167,0,0,0,13.178,13.178c11.922,2.509,18.2-5.02,18.2-5.02s3.766,8.156,12.551,8.783a17.582,17.582,0,0,0,13.8-5.02s5.02,15.687,25.729,16.314,25.787-8.3,25.787-8.3,9.98,7.071,20.02-.47S442.382,337.84,442.382,337.84Z" transform="translate(-161.91 -76.09)"/><g class="at" transform="translate(7.162 46.816)"><path d="M244.667,137.919a62.691,62.691,0,0,0-7.743-11.557c-2.233-2.556-5.723-6.313-9.5-5.909-1.084.115-.377,1.876.388,2.016,3.4.616,5.756,3.5,7.657,6.168a78.357,78.357,0,0,1,5.371,9.022,62.313,62.313,0,0,1,7.3,26.44c.3,7.766-1.6,15.708-9.028,19.54-8.729,4.505-19.987,1.66-28.207-2.526-7.111-3.624-11.9-9.572-13.062-17.563-.142-.967-1.649-1.8-1.625-.373a23.49,23.49,0,0,0,3.047,11.98,24.663,24.663,0,0,0,8.9,8.11c8.438,4.927,18.651,7.686,28.339,5.259C259.305,182.806,252.8,153,244.667,137.919Z" transform="translate(-136.759 -102.099)"/><path d="M217.583,145.819a21.218,21.218,0,0,0-3.13-8.9,28.665,28.665,0,0,0-6.2-7.2,22.556,22.556,0,0,0-8.381-4.861c-1.334-.351-1.239,1.534-.423,2.064,2.447,1.59,4.993,2.754,7.17,4.771a26.209,26.209,0,0,1,5.245,6.6,18.761,18.761,0,0,1,2.157,11.916c-.181,1.361-.542,2.657-.754,4.012-.1.618.691,1.95,1.39,1.247C217.088,153.025,217.859,149.151,217.583,145.819Z" transform="translate(-134.282 -97.958)"/><path d="M243.185,113.164A62.229,62.229,0,0,0,222,111.156a38.527,38.527,0,0,0-18.779,6.579c-9.881,6.54-17.291,16.274-19.159,28.139-1.031,6.55-1.6,14.741,4.2,19.336.691.548,1.959.245,1.561-.841-1.447-3.948-2.519-7.422-2.245-11.7a52.19,52.19,0,0,1,1.552-10.1,36.808,36.808,0,0,1,10.982-17.361c5.492-5.035,12.3-9.022,19.717-10.234a51.586,51.586,0,0,1,11.852-.3c3.847.266,7.993,1.029,11.834.569C244.593,115.117,243.873,113.366,243.185,113.164Z" transform="translate(-148.831 -110.987)"/><path d="M215.832,157.984c-5.935-9.523-17.2-17.138-28.636-16.912-8.964.175-22.793,5.193-21.515,16.394.583,5.1,4.255,11.186,8.745,13.8a7.262,7.262,0,0,0,7.2.4c2.674-1.523,2.956-4.905,3.668-7.56.118-.439-.367-1.377-.856-.854-2.214,2.363-4.373,8.181-8.467,5.3a17.73,17.73,0,0,1-6.395-10.187c-1.629-8.644,8.364-12.807,15.244-13.79,9.568-1.369,18.357,3.674,24.593,10.615,4.041,4.5,9.37,13.838,2.8,18.5a10.081,10.081,0,0,1-7.459,1.75c-3.037-.6-3.328-2.925-3.923-5.562-.293-1.3-2.633-1.851-3.082-.4a6.922,6.922,0,0,0,3.659,8.2,12.873,12.873,0,0,0,9.813.476,11.414,11.414,0,0,0,7.333-6.344C220.314,167.327,218.226,161.827,215.832,157.984Z" transform="translate(-165.598 -82.654)"/><path d="M288.033,250.131c-5-9.634-14.363-16.3-23.995-20.765-1.6-.744-3.228-1.423-4.861-2.074a27.923,27.923,0,0,0,4.917-5.849,49.992,49.992,0,0,0,6.4-13.821,16.982,16.982,0,0,0-1.835-14.2,15.271,15.271,0,0,0-5.451-5c-2.2-1.175-5.921-2.46-8.348-1.352-.981.449.115,1.891.75,2.045,2.515.608,4.692.614,6.89,2.194a11.229,11.229,0,0,1,3.989,5.474c1.3,3.746.761,7.576-.462,11.242a49.342,49.342,0,0,1-5.5,11.31,25.059,25.059,0,0,1-3.791,4.647,11.456,11.456,0,0,1-2.315,1.54c-8.271-2.9-16.815-5.039-25.172-7.673-12.141-3.826-23.212-9.844-31.8-19.423-5.115-5.705-9.218-12.4-10.62-20.025a43.337,43.337,0,0,1-.579-9.541c.111-2.608.334-6.036,2.241-8.014.919-.955-.825-2.876-1.89-2.185-4.018,2.614-3.952,9.075-3.977,13.328a39.333,39.333,0,0,0,4.83,19.245c6.232,11.368,16.759,20.468,28.385,26.03,20.152,9.642,45.816,9.855,62.1,26.8,4.28,4.453,7.544,9.634,8.682,15.765a25.09,25.09,0,0,1,.021,9.906c-.689,3.074-2.635,5.305-3.633,8.176-.26.753.812,2.109,1.641,1.711,4.756-2.284,6.412-8.719,6.762-13.6A30.355,30.355,0,0,0,288.033,250.131Z" transform="translate(-149.56 -66.221)"/><path d="M253.506,216.625c-5.521-3.983-12.246-4.969-18.72-6.461-6.451-1.488-12.957-2.8-19.3-4.707a84.663,84.663,0,0,1-9.312-3.395c-4.338-1.884-8.123-4.731-12.394-6.659a.947.947,0,0,0-1.315,1.235c1.286,2.734,4.575,4.758,7.073,6.3a51.183,51.183,0,0,0,7.888,3.87,121.73,121.73,0,0,0,17.786,5.228c7.257,1.676,15.139,2.5,22.132,5.08a24.143,24.143,0,0,1,6.016,3.3c2.208,1.629,5.449,4.179,5.686,7.117.074.942,1.7,1.825,1.868.491C261.538,223.125,257.178,219.272,253.506,216.625Z" transform="translate(-140.388 -31.564)"/><path d="M186.883,200.2c-1.68-3.736-4.736-6.649-7.475-9.609-3.942-4.263-6.746-8.729-6.729-14.763a52.873,52.873,0,0,1,1.231-9.442c.6-3.2,1.627-6.886.369-10.017-.216-.536-.992-.983-1.357-.338-.8,1.41-.843,3.14-1.117,4.719q-.382,2.188-.821,4.364a65.335,65.335,0,0,0-1.394,8.682A21.4,21.4,0,0,0,174,188.515c2.455,3.218,5.515,5.923,7.927,9.172a13.483,13.483,0,0,1,2.472,4.923c.7,3.027-.332,5.843-1,8.778-.1.445.363,1.785,1.012,1.21A10.634,10.634,0,0,0,186.883,200.2Z" transform="translate(-161.889 -68.86)"/><path d="M357.672,179.344c-3.1.693-5.566,2.536-8.382,3.905a27.317,27.317,0,0,1-9.719,2.668c-6.008.452-11.856-1.505-17.852-1.466a18.481,18.481,0,0,0-13.932,6.156,23.384,23.384,0,0,0-3.453,4.769c-1.206-1.355-2.462-2.664-3.791-3.9A50.041,50.041,0,0,0,283.384,181c-7.1-2.523-14.533-3.565-21.969-4.558-6.719-.9-13.229-1.763-19.346-4.843-5.078-2.556-11.009-6.15-12.549-12.054-.262-1.006-1.841-1.315-1.734.01.416,5.084,4.228,8.941,8.055,11.924a37.75,37.75,0,0,0,14.285,6.89c13.561,3.214,28.083,2.835,40.152,10.739,10.479,6.863,17.891,17.182,20.086,29.56,1.812,10.23,2.614,23.022-5.472,30.865a86.757,86.757,0,0,1-19.1,13.444c-1.618.884-3.385,1.888-5.107,3.012a45.174,45.174,0,0,0,1.858-9.352,49.086,49.086,0,0,0-1.631-19.313,43.99,43.99,0,0,0-9.187-15.932c-4.9-5.478-11-9.1-16.868-13.394a41.542,41.542,0,0,1-9.184-8.915c-2.911-3.965-5.335-8.348-7.917-12.528-.511-.829-1.093.247-.821.849,2.956,6.564,5.806,13.168,10.78,18.532,4.888,5.272,11.3,8.828,16.609,13.629a43.478,43.478,0,0,1,14.438,32.258,41.339,41.339,0,0,1-1.361,11.617c-.7,2.567-1.767,5.043-2.542,7.593a11.893,11.893,0,0,0-2.659,5.579c-.155.973,1.53,2.476,2.326,1.476a42.965,42.965,0,0,1,6.838-7.228,50.041,50.041,0,0,1,7.686-4.754,90.365,90.365,0,0,0,17.493-11.986c4.373-3.88,7.379-8.174,8.772-13.91a49.351,49.351,0,0,0,.687-16.806,53.669,53.669,0,0,0-3.969-16.423,43.682,43.682,0,0,0-4.305-7.331,16.365,16.365,0,0,1,1.212-3.163,20.312,20.312,0,0,1,4.391-5.022c4.061-3.387,9.424-3.057,14.363-2.387,5.663.767,11.3,1.546,16.932.07a34.173,34.173,0,0,0,7.964-3.237c2.231-1.243,4.752-2.622,6.343-4.651C359.509,180.529,358.544,179.15,357.672,179.344Z" transform="translate(-107.025 -66.069)"/><path d="M336.278,198.72c-3.309-7.857-11.966-11.174-19.423-13.833-8.286-2.956-16.658-6.127-24.026-11.026a40.18,40.18,0,0,1-9.354-8.286c-4.181-5.257-5.9-11.327-6.789-17.924-.144-1.053-2.538-2.132-2.81-.672-3.014,16.18,10.316,27.8,23.266,34.446,6.972,3.577,14.361,5.766,21.649,8.55,5.929,2.264,15.136,6.836,13.848,14.708-.623,3.806-4.158,5.028-7.484,5.77a54.685,54.685,0,0,1-13.615,1.138c-9.436-.287-18.755-2.194-27.877-4.515a66.157,66.157,0,0,1-40.449-30.065,63.182,63.182,0,0,1-8.583-28.419,67.726,67.726,0,0,1,.761-14.924c.882-5.806,2.014-12.147,5.342-17.147.217-.326-.074-1.319-.532-.889-3.169,2.956-4.552,7.185-5.6,11.285a103.2,103.2,0,0,0-2.544,13.271,62.33,62.33,0,0,0,3.492,29.52c6.327,16.47,20.27,30.529,36.413,37.5,8.374,3.62,17.823,5.471,26.793,6.917,9.669,1.561,19.977,2.225,29.523-.406,3.381-.932,6.513-2.608,8.1-5.888A11.2,11.2,0,0,0,336.278,198.72Z" transform="translate(-103.422 -106.713)"/><path d="M293.854,188.691c-3.464-1.185-7.218-1.563-10.725-2.7a75.935,75.935,0,0,1-10.432-4.066,47.1,47.1,0,0,1-15.683-12.72c-4.564-5.663-8.624-12.689-9.943-19.9-1.416-7.737.728-15.229,1.136-22.925.035-.637-1.07-2.218-1.538-1.072-3.336,8.162-5.022,17.728-3.262,26.471,1.507,7.5,5.632,14.6,10.471,20.433A45.447,45.447,0,0,0,271.3,185.5a69.4,69.4,0,0,0,11.667,3.513c3.261.7,7.739,2.08,11.05,1.144C294.687,189.963,294.369,188.866,293.854,188.691Z" transform="translate(-92.974 -97.876)"/><path d="M311.08,200.936c-7.4-6.9-20.756-8.964-23.105-20.408-.144-.7-1.5-1.455-1.6-.342-.847,9.529,10.471,15.617,17.353,19.713a21.334,21.334,0,0,1,9.345,10.543c2.245,5.523,1.445,10.72-.445,16.178-.223.647.532,1.711,1.214,1.241C323.1,221.475,317.623,207.036,311.08,200.936Z" transform="translate(-51.874 -46.338)"/><path d="M334.872,235.041c-3.977,3.558-7.908,6.272-13.386,6.509a26.539,26.539,0,0,1-13.368-3.235c-4.531-2.42-7.653-5.855-8.343-11.048a23.584,23.584,0,0,1,.489-8.688c.684-2.82,1.6-5.523,1.773-8.432.124.1.264.181.39.282,2.639,2.175,3.814,4.733,5.42,7.659.225.414,1.2,1,1.548.353,1.684-3.13-.75-6.5-2.965-8.669a40.8,40.8,0,0,0-7.964-5.754,80.591,80.591,0,0,1-9.333-6.133,37.942,37.942,0,0,1-4.208-3.806c-1.9-2.031-3.36-4.366-5.14-6.467-.33-.39-.755.047-.732.437.217,3.707,3.414,7.354,5.919,9.834a52.272,52.272,0,0,0,9.574,7.251c1.526.938,3.055,1.891,4.552,2.888a1.378,1.378,0,0,0-.627.938c-.559,2.868-1.651,5.622-2.4,8.444a26.46,26.46,0,0,0-.864,8.187c.219,4.533,1.542,8.756,4.868,11.98,6.139,5.952,16.406,8.871,24.775,7.424a18.856,18.856,0,0,0,6.61-2.379,9.584,9.584,0,0,0,4.909-6.335C336.554,235.542,335.577,234.41,334.872,235.041Z" transform="translate(-58.731 -38.953)"/><path d="M314.822,249.776a12.984,12.984,0,0,0-1.144-3.826,36.38,36.38,0,0,0-4.4-7.41,20.579,20.579,0,0,0-6.859-5.533,26.034,26.034,0,0,0-4.134-1.724c-.272-.087-.555-.177-.837-.264a13.411,13.411,0,0,0,.88-3.977,38.553,38.553,0,0,0-1.555-12.436c-1.119-3.987-2.9-8.108-6.871-9.929-1.592-.73-1.684,1.557-.571,2.249,1.715,1.068,2.591,4.362,3.171,6.156a38.11,38.11,0,0,1,1.552,7.115c.431,3.529.75,7.356-.849,10.553a.536.536,0,0,0-.278.5,9.242,9.242,0,0,1-.672,1.043c-3.169,4.1-8.469,5.9-12.963,8.092-4.41,2.148-9.449,4.857-10.123,10.166-.107.845,1.19,2.037,1.876,1.177a30.686,30.686,0,0,1,11.219-8.659c3.927-1.876,8.106-3.569,11.378-6.519a15.519,15.519,0,0,0,2.332-2.688l.311.076c.553.15,1.1.318,1.647.5a24.152,24.152,0,0,1,3.206,1.344,16.294,16.294,0,0,1,5.2,4.127,40.3,40.3,0,0,1,3.084,4.366,31.232,31.232,0,0,1,1.785,3.327,27.444,27.444,0,0,1,1.328,3.134,7.409,7.409,0,0,0,.7,1.82c.138.219.468.575.775.429C315.123,252.454,314.929,250.793,314.822,249.776Z" transform="translate(-68.044 -22.871)"/><path d="M287.749,208.134c-.1-.625-.946-1.352-1.13-.348a17.608,17.608,0,0,1-4.42,9.232,45.757,45.757,0,0,1-7.744,6.193,43.085,43.085,0,0,0-7.572,6.224,15.187,15.187,0,0,0-2.835,4.183,7.977,7.977,0,0,0-.336,5.113c.074.344.629,1.319,1.1.792,1.451-1.627,2.305-3.626,3.488-5.441a20.2,20.2,0,0,1,3.113-3.736,66.552,66.552,0,0,1,7.259-5.529,26.148,26.148,0,0,0,7.123-6.733A14.657,14.657,0,0,0,287.749,208.134Z" transform="translate(-73.428 -20.276)"/><path d="M257.584,168.238a26.778,26.778,0,0,0-8.477-2.455c-8.488-1.288-17.184-.394-25.537,1.354a89.877,89.877,0,0,0-19.693,6.294,49.086,49.086,0,0,0-9.261,5.558c-1.948,1.507-5.867,4.282-4.733,7.1.177.439.7,1.058,1.255.9,2.818-.81,4.991-3.824,7.331-5.552a45.2,45.2,0,0,1,7.929-4.55,86.842,86.842,0,0,1,17.2-5.639,81.9,81.9,0,0,1,22.162-2.371,48.269,48.269,0,0,1,7.655.893,17.285,17.285,0,0,1,6.8,3.212c.225.157.633.19.767-.118C261.907,170.73,259.169,169.066,257.584,168.238Z" transform="translate(-142.913 -59.946)"/><path d="M218.433,157.674a10.21,10.21,0,0,0-2.967,2.379c-1.076,1.033-2.19,2.039-3.344,2.983a36.4,36.4,0,0,1-7.649,4.857,31.808,31.808,0,0,1-8.17,2.556,36.319,36.319,0,0,1-4,.423,13.7,13.7,0,0,0-3.783.315c-.971.357-.435,1.67.218,2.068,2.515,1.532,6.566.934,9.317.46a32.154,32.154,0,0,0,8.923-2.989,37.617,37.617,0,0,0,7.663-5.111,30.622,30.622,0,0,0,3.288-3.332c.891-1.043,1.75-2.049,1.75-3.482C219.678,158.226,219.076,157.408,218.433,157.674Z" transform="translate(-144.508 -67.06)"/></g><g class="at" transform="translate(150.026 8.291)"><path d="M313.2,107.357c-.322-.373-.707,0-.775.34-.365,1.837-.043,3.876-.254,5.754a22.327,22.327,0,0,1-2.291,7.467c-2.282,4.536-6.181,9.135-11.191,10.687-12.322,3.822-22.882-4.224-31.434-12.077a44.837,44.837,0,0,0-1.728-4.622,41.289,41.289,0,0,0-7.014-10.671,69.872,69.872,0,0,0-8.587-8.43,27.263,27.263,0,0,0-5.173-3.369c-1.443-.7-3.4-1.571-5.039-1.194-.975.223-.491,1.724.278,1.921,3.224.825,5.855,3.043,8.263,5.255a84.855,84.855,0,0,1,7.259,7.686,37.383,37.383,0,0,1,6.28,9.857,34.957,34.957,0,0,1,2.014,6.717c.2,1.018.369,2.043.577,3.059a18.125,18.125,0,0,0,1.474,3.674c.21.478.948,1.023,1.309.363a9.564,9.564,0,0,0,1.037-4.67,33.026,33.026,0,0,0,10.619,8.053,30.067,30.067,0,0,0,20.538,2.313c5.538-1.455,9.916-5.5,12.842-10.32C315.287,120.069,317.569,112.408,313.2,107.357Z" transform="translate(-239.165 -91.149)"/><path d="M312.2,125.374c-4.352-3.292-9.931-6.317-15.524-6.17-1.107.029-.326,2.055.54,2.123,3.966.32,8.214,2.89,11.355,5.187,2.626,1.921,6.7,5.191,6.62,8.849-.113,5.113-8.863,5.937-12.428,5.869-6.915-.128-13.475-3.251-19.047-7.146a39.316,39.316,0,0,1-7.8-6.948c-2.612-3.16-3.7-6.944-5.562-10.523-.285-.55-1.365-1.064-1.472-.1-.47,4.22,1.559,8.882,3.837,12.343a34.148,34.148,0,0,0,8.174,8.345c6.241,4.667,14.033,7.908,21.892,8.053,5.422.1,15.176-1.8,16.44-8.317C320.154,132.157,315.595,127.943,312.2,125.374Z" transform="translate(-211.239 -67.764)"/><path d="M347.548,156.076c-2.305-.652-5.146.229-7.469.585-2.783.427-5.558.9-8.362,1.189a50.717,50.717,0,0,1-16.516-.722,40.43,40.43,0,0,1-12.656-5.158c-4.736-2.995-7.943-6.733-11.6-10.875-.6-.68-1.468-.385-1.425.528.109,2.334,1.724,4.933,3.059,6.766a25.345,25.345,0,0,0,5.216,5.344,41.371,41.371,0,0,0,14.2,6.7,51.177,51.177,0,0,0,17.8,1.48,97.877,97.877,0,0,0,9.9-1.476c1.68-.32,3.338-.717,5-1.093,1.13-.256,3-.332,3.674-1.41A1.3,1.3,0,0,0,347.548,156.076Z" transform="translate(-191.737 -44.454)"/><path d="M330.365,134.1c-1.179.037-.237,1.872.447,2.06,3.084.845,4.018,7.44,2.664,10.03-2.037,3.9-8.346,4.043-12.1,4.078a34.538,34.538,0,0,1-17.311-4.48c-4.993-2.857-8.987-6.985-13.794-10.088-.8-.519-1.012.717-.592,1.216,4.5,5.35,9.178,10.743,15.607,13.8a37.506,37.506,0,0,0,21.439,3.039c4.806-.722,10.621-2.839,11.1-8.455C338.213,140.861,335.665,133.929,330.365,134.1Z" transform="translate(-191.779 -50.693)"/><path d="M337.169,158.6a6.119,6.119,0,0,0-.746-.313,8.948,8.948,0,0,0-1.144-.309,15.056,15.056,0,0,0-2.222-.291,21.824,21.824,0,0,0-4.849.322,42.869,42.869,0,0,0-10.452,3.138,19.471,19.471,0,0,0-7.381,5.342c-2.288,2.826-3.041,6.927-3.249,10.475a12.976,12.976,0,0,0,1.5,7.294c1.938,3.319,5.925,5.9,9.776,5.766a1.591,1.591,0,0,0,.948-.254,1.16,1.16,0,0,0,.2-1.406,3.429,3.429,0,0,0-1.055-1.1,21.292,21.292,0,0,1-4.746-4.558c-3.783-5.494-1.744-13.666,3.948-16.938A39.138,39.138,0,0,1,327.45,162a26.291,26.291,0,0,1,6.034-.876,25.384,25.384,0,0,1,5.119.888c.437.078.8-.385.783-.781C339.36,160.615,337.7,158.869,337.169,158.6Z" transform="translate(-175.177 -28.498)"/><path d="M346.027,188.552c-3.9-8.364-13.287-13.491-22.078-14.969-4.793-.808-13.165-1.15-16.3,3.395a1.463,1.463,0,0,0-.33.839,1.111,1.111,0,0,0,.876.955,3.155,3.155,0,0,0,1.379-.047c3.907-.721,7.317-1.989,11.388-1.643,7.179.61,15.3,4.6,19.4,10.688,3.253,4.832,4.119,12.838.419,17.716-3.165,4.177-8.923,4.2-13.524,2.94-2.427-.664-5.422-1.748-7.1-3.723-1.649-1.94-.5-4.053.909-5.733.752-.9-.6-2.876-1.666-2.181-3.189,2.07-5.832,5.441-3.649,9.24,1.507,2.624,4.509,4.263,7.238,5.315,6.35,2.445,14.087,3.024,19.7-1.523C348.654,204.981,349.078,195.1,346.027,188.552Z" transform="translate(-174.969 -13.961)"/><path d="M330.188,207.283a22.229,22.229,0,0,0-6-7.781c-2.441-1.956-5.651-3.5-8.844-2.932-1.068.19-.41,1.856.449,1.921,5.49.4,9.166,5.7,11.032,10.376a23.56,23.56,0,0,1,1.66,7.277,21.68,21.68,0,0,1-.1,3.585c-.045.435-.157.858-.216,1.289a7.787,7.787,0,0,0-.223,2.513c.157.67.707,1.414,1.476,1.109,1.293-.513,2.243-2.532,2.639-3.767a13.513,13.513,0,0,0,.536-4.707A22.82,22.82,0,0,0,330.188,207.283Z" transform="translate(-167.935 8.038)"/></g><g class="au" transform="translate(18.565 30.056)"><path class="o" d="M229.267,125.321c-1.357-.233-2.684.618-3.451,3.074-1.736,5.554.07,14.77.565,20.435a153.329,153.329,0,0,0,4.08,24.162c1.621,6.426,3.761,12.931,8.036,18,4.016,4.762,9.64,7.9,15.423,10.219,15.753,6.311,33.471,7.257,48.49,15.161,1.841.969,4.218,2,5.824.68a3.42,3.42,0,0,0,.408-4.307,8.346,8.346,0,0,0-3.651-2.888c-5.989-2.944-12.685-4.041-19.132-5.768-10.826-2.9-21.241-7.708-29.85-14.883s-15.339-16.8-18.181-27.638c-1.808-6.894-2-14.046-2.983-21.076-.517-3.707-.268-7.882-1.767-11.384C232.2,127.04,230.714,125.568,229.267,125.321Z" transform="translate(-120.974 -80.761)"/><path class="o" d="M218.063,151.686c-.734,6.195-6.026,11.714-12.248,12.155-1.179.083-2.525.064-3.321.938-1.5,1.637.485,4.094,2.315,5.344,6.059,4.136,13.331,8,20.412,6.084,7.4-2.006,11.925-10,12.256-17.668.276-6.441-3.971-40.2-17.017-29.933C214.307,133.449,218.826,145.221,218.063,151.686Z" transform="translate(-142.742 -79.449)"/><path class="o" d="M216.893,151.095c4.946-17.237-27.112-36.522-28.335-14.188-.161,2.934-.039,6.02,1.4,8.583,4.884,8.68,13.186-4.82,20.016,3.606a19.949,19.949,0,0,0,2.565,3.208c1.068.864,2.818,1.146,3.725.115A3.382,3.382,0,0,0,216.893,151.095Z" transform="translate(-155.425 -79.314)"/><path class="o" d="M242.974,181.856a14.875,14.875,0,0,0,3.911,3.525c13.467,9.677,24.89,23.89,26.253,40.418.293,3.552.637,7.958,3.932,9.314,1.9.786,4.105.128,5.913-.862,6.3-3.455,9.853-10.727,10.287-17.9s-1.851-14.25-4.913-20.746c-4.218-8.947-11.306-16.695-21.119-19.289C263.217,175.255,236.4,172.014,242.974,181.856Z" transform="translate(-105.09 -33.978)"/><path class="o" d="M202.5,178.653c4.039.592,8.042,3.307,12.285,3.754,5.226.552,11.327.056,15.728-3.1,1.54-1.105,2.759-2.643,4.418-3.558,3.272-1.8,7.638-.618,10.187,2.111s3.5,6.645,3.393,10.38c-.134,4.614-1.958,9.42-5.768,12.025-5.051,3.451-11.858,2.173-17.72.421-9.271-2.769-18.474-6.5-25.8-12.819a10.215,10.215,0,0,1-3-3.684,4.1,4.1,0,0,1,.684-4.459,5.5,5.5,0,0,1,3.453-1.165A9.962,9.962,0,0,1,202.5,178.653Z" transform="translate(-148.481 -34.032)"/><path class="o" d="M247.534,168.455c8.057,8.931,19.1,14.613,30.326,18.92,10.673,4.094,27.453,10.052,38.8,5.251,3.493-1.478,6.424-5.016,5.919-8.778-.48-3.581-3.736-6.088-6.917-7.8-11.289-6.074-24.28-8.5-35.728-14.248-2.2-1.107-5.181-2.1-6.863-.3-1.555,1.67-.586,4.511,1.107,6.041a40.93,40.93,0,0,0,9.114,6.15c4.3,2.029,12.821,2.641,16.172,5.857,3.383,3.245.468,5.484-3.563,4.88-11.323-1.7-22.647-4.851-32.2-11.166-7.758-5.129-14.314-12.557-17.454-21.4a62.178,62.178,0,0,1-2.824-9.914c-.35-1.985.384-7.387-1.383-8.78-5.564-4.381-4.983,12.827-4.614,15.007A40.9,40.9,0,0,0,247.534,168.455Z" transform="translate(-109.548 -73.993)"/><path class="o" d="M269.819,110.64c-3.078-4.488-8.815-6.694-14.25-6.4s-10.556,2.8-14.862,6.131c-7.517-6.453-17.94-9.048-27.673-7.642-7.309,1.056-14.889,4.344-19.346,10.506-.841,1.163-1.478,2.965-.363,3.87a2.852,2.852,0,0,0,1.7.476c7.591.35,15.207-3.1,23.117-2.946,8.207.161,16.444,1.932,23.482,6.3,4.544,2.82,8.529,6.653,13.541,8.525C266.533,133.7,276.827,120.85,269.819,110.64Z" transform="translate(-151.445 -102.357)"/><path class="o" d="M179.488,120.546a36.156,36.156,0,0,0-8.014,22c-.144,8.716,3.546,15.887,13.242,15.953a5.738,5.738,0,0,0,2.717-.513c2.643-1.389,2.447-5.144,2.183-8.119a42.564,42.564,0,0,1,5.849-25.453c1.291-2.158,2.845-4.585,2.119-6.993a5.586,5.586,0,0,0-4.659-3.53C187.4,113.072,182.792,116.48,179.488,120.546Z" transform="translate(-171.47 -91.609)"/><path class="o" d="M268.185,237.093a57.121,57.121,0,0,0-1.272-20.22,41.611,41.611,0,0,0-16.029-24.325c-4.144-2.958-12.357-7.721-17.326-4.272-4.748,3.3-3.565,10.242-.581,14.332,3.008,4.121,7.519,6.894,10.844,10.764,4.2,4.9,6.288,11.329,6.979,17.746.616,5.707-1.332,10.574-1.148,15.971a5.343,5.343,0,0,0,5.8,5.715c4.082-.074,7.713-2.94,9.762-6.471A25.6,25.6,0,0,0,268.185,237.093Z" transform="translate(-115.995 -22.558)"/><path class="o" d="M220.938,214.4l27.37,9.084c5.162,1.713,10.378,3.451,15,6.317s8.667,7.01,10.339,12.186c.81,2.505,1.416,5.632,3.9,6.507,2.253.794,4.771-1.06,5.463-3.348s.021-4.758-.9-6.962c-4.756-11.421-15.751-19.1-27.158-23.888s-23.657-7.319-35.07-12.089a96.8,96.8,0,0,1-30.615-20.462c-4.1-4.047-8.581-4.793-8.154,2.22C182.253,202.548,206.477,209.6,220.938,214.4Z" transform="translate(-162.408 -30.454)"/><path class="o" d="M287.543,182.895c-2.93-3.769-6.781-.909-6.939,4.35-.165,5.414,3.777,10.129,8.2,13.258s9.533,5.267,13.642,8.8a33.738,33.738,0,0,1,5.562,5.727c1.977,2.882,3.039,12.091,8.352,6.929,3.781-3.674,1.8-12.2-.746-15.811-3.138-4.447-8.049-7.245-12.782-9.935-5.016-2.853-11.7-6.544-14.353-11.811A9.162,9.162,0,0,0,287.543,182.895Z" transform="translate(-68.675 -28.115)"/><path class="o" d="M300.548,223.5a22.545,22.545,0,0,1-12.867-12.061c-.346-.887-1-2.022-1.911-1.724-.8.26-.823,1.369-.691,2.2.511,3.206.571,6.729,2.2,9.558a30.316,30.316,0,0,0,6.927,7.847,19.267,19.267,0,0,1,5.342,6.439c1.155,2.641,1,5.655,2.69,8.129a8.208,8.208,0,0,0,3.622,2.839,10.693,10.693,0,0,0,13.627-5.946C324.077,228.229,309.51,226.868,300.548,223.5Z" transform="translate(-64.514 -1.273)"/><path class="o" d="M181.736,144.55a14.8,14.8,0,0,0-5.748.917,6.259,6.259,0,0,0-3.795,4.175c-.608,2.794,1.441,5.577,3.946,6.956s5.416,1.752,8.179,2.49a31.048,31.048,0,0,1,12.108,6.37c1.53,1.311,3.463,2.88,5.315,2.091,1.478-.631,1.99-2.464,2.07-4.068a15.573,15.573,0,0,0-2.047-8.469C197.52,147.636,189.743,144.5,181.736,144.55Z" transform="translate(-170.89 -62.613)"/></g><g transform="translate(108.73 6.83)"><path class="e" d="M255.869,105.421c4.311,5.779,7.946,12.192,13.39,16.922s13.44,7.482,19.954,4.385a14.837,14.837,0,0,0,7.943-10.892c1.027-6.158-1.876-14.856-7.189-18.386a20.353,20.353,0,0,0-23.018.785,3.48,3.48,0,0,1-1.565.847,3.22,3.22,0,0,1-2.016-.68c-3.461-2.136-11.226-9.294-15.569-7.8C241.967,92.609,254.252,103.253,255.869,105.421Z" transform="translate(-191.206 -90.396)"/><path class="e" d="M278.983,121.2a2.009,2.009,0,0,0-.175,1.649,1.974,1.974,0,0,0,1.412.816c3.731.878,7.55,1.373,11.246,2.387A41.443,41.443,0,0,1,310.041,137c3.3,3.381,6.105,7.6,6.379,12.312s-2.727,9.832-7.382,10.634c-.732,2.369,1.521,4.542,3.6,5.89a61.491,61.491,0,0,0,10.549,5.451c4.072,1.631,9.568,2.453,12.114-1.121,1.889-2.651.928-6.542-1.288-8.927s-5.369-3.626-8.411-4.793c5.649-6.094,5.471-16.289.55-22.985s-13.669-9.939-21.963-9.44c-1.651.1-3.445.3-4.83-.606-3.062-2-1.592-6.616-1.775-9.591-.33-5.313-4.331-13.382-10.687-9.2C281.888,107.916,281.1,116.087,278.983,121.2Z" transform="translate(-160.641 -78.09)"/><path class="e" d="M279.156,119.346c-1.528-.033-3.33.19-4.084,1.521-.94,1.655.441,3.651,1.853,4.927a29.3,29.3,0,0,0,6.48,4.416,29.963,29.963,0,0,0,15.2,3.154,4.63,4.63,0,0,0,1.95-.435c4.756-2.591-.839-10.424-4.055-11.7C291.575,119.271,284.37,119.463,279.156,119.346Z" transform="translate(-164.337 -63.13)"/><path class="e" d="M300.971,152.918a3.6,3.6,0,0,0-2.928.468,2.523,2.523,0,0,0-.206,3.041c1.218,2.14,3.212,3.938,4.507,6.088a17.434,17.434,0,0,1,2.515,8.908c.006,2.5-.491,5.185.753,7.348.672,1.167,1.789,2.037,2.4,3.237.367.716.536,1.522.907,2.239a2.286,2.286,0,0,0,1.841,1.381c1.284.01,1.969-1.48,2.3-2.719,1.19-4.492,1.1-9.694,3.1-13.9,2.276-4.766,6.537-6.111,11.009-7.875,5.166-2.037,10.729-2.358,16.079-3.674a5.852,5.852,0,0,0,2.093-.835,2.187,2.187,0,0,0,.975-1.93c-.307-2.591-5.48-2.01-7.092-1.757C326.259,154.969,313.93,154.615,300.971,152.918Z" transform="translate(-142.986 -31.706)"/><path class="e" d="M312.791,175.681c0-7.343,10.121-12.5,16.45-12.528a24.989,24.989,0,0,1,13.568,4.437c5.09,3.334,6.968,11.739,5.647,17.328A8.819,8.819,0,0,1,346,189.562a4.555,4.555,0,0,1-4.94.891,8.314,8.314,0,0,1-2.468-2.437,26.316,26.316,0,0,0-19.462-9.754C316.685,178.184,313.543,178.009,312.791,175.681Z" transform="translate(-128.518 -21.863)"/><path class="e" d="M327.371,179.38a24.075,24.075,0,0,0-11.821-1.666,7.541,7.541,0,0,0-4.286,1.567,3.262,3.262,0,0,0-.738,4.165,5.076,5.076,0,0,0,1.767,1.307,74.906,74.906,0,0,1,9.4,6.03,7.513,7.513,0,0,1,2.657,2.915c.5,1.218.383,2.662,1.078,3.781.911,1.462,2.835,1.839,4.542,2.08a6.294,6.294,0,0,0,3.457-.163c1.431-.645,2.163-2.249,2.513-3.777a14.031,14.031,0,0,0-13.759-17.169" transform="translate(-131.098 -8.287)"/><path class="e" d="M275.664,130.617a2.113,2.113,0,0,0-1.889.28,1.429,1.429,0,0,0,.033,1.812,4.119,4.119,0,0,0,1.62,1.1c4.457,2.064,9.036,4,12.935,6.985s7.112,7.234,7.671,12.114c.138,1.218.219,2.653,1.249,3.319a2.5,2.5,0,0,0,3.214-.946,7.259,7.259,0,0,0,.946-3.542c.507-5.657,1.9-14.349-4.721-16.957-2.311-.913-5.193-.792-7.622-1.286C284.608,132.581,280.184,131.417,275.664,130.617Z" transform="translate(-165.561 -52.592)"/><path class="e" d="M221.16,96.187c-1.573,1.006-3.325,2.359-3.259,4.226.058,1.645,1.627,2.911,3.243,3.224a12.447,12.447,0,0,0,4.886-.427c10.892-2.292,23.546-1.278,31.225,6.781,1.443,1.515,2.694,3.26,4.451,4.4,4.822,3.117,11.164,2.573,16.472,3.952a5.155,5.155,0,0,0-.777-3.15C267.521,96.178,240.232,84,221.16,96.187Z" transform="translate(-217.9 -89.55)"/><path class="e" d="M323.439,195.936c-1.192.214-2.569.732-2.833,1.915-.243,1.091.61,2.091,1.4,2.886q1.806,1.818,3.608,3.633a15.677,15.677,0,0,1,2.311,2.713c1.577,2.558,1.554,5.744,2.169,8.684.19.907.656,1.983,1.581,2.037a1.97,1.97,0,0,0,1.352-.621c2.874-2.565,3.16-6.892,3.156-10.745C336.17,198.057,331.579,194.488,323.439,195.936Z" transform="translate(-121.196 8.721)"/></g><g transform="translate(23.701 10.357)"><path class="av" d="M233.423,161.886a4.007,4.007,0,1,1-4.006-4.008A4.006,4.006,0,0,1,233.423,161.886Z" transform="translate(-125.799 -30.36)"/><path class="av" d="M219.117,122.366a4.007,4.007,0,1,1-4.008-4.006A4.008,4.008,0,0,1,219.117,122.366Z" transform="translate(-139.274 -67.584)"/><path class="av" d="M202.164,144.419a4.006,4.006,0,1,1-4.006-4.006A4.006,4.006,0,0,1,202.164,144.419Z" transform="translate(-155.241 -46.811)"/><path class="av" d="M182.127,155.592a4.006,4.006,0,1,1-4.006-4.008A4.006,4.006,0,0,1,182.127,155.592Z" transform="translate(-174.115 -36.289)"/><path class="av" d="M225.3,175.037a4.007,4.007,0,1,1-4.006-4.006A4.006,4.006,0,0,1,225.3,175.037Z" transform="translate(-133.451 -17.97)"/><path class="av" d="M194.036,179.537a4.006,4.006,0,1,1-4.006-4.006A4.008,4.008,0,0,1,194.036,179.537Z" transform="translate(-162.897 -13.732)"/><path class="av" d="M272.7,180.928a4.007,4.007,0,1,1-4.008-4.006A4.008,4.008,0,0,1,272.7,180.928Z" transform="translate(-88.802 -12.421)"/><path class="av" d="M257.8,221.339a4.007,4.007,0,1,1-4.008-4.006A4.008,4.008,0,0,1,257.8,221.339Z" transform="translate(-102.84 25.644)"/><path class="av" d="M275.7,159.953a4.007,4.007,0,1,1-4.006-4.008A4.007,4.007,0,0,1,275.7,159.953Z" transform="translate(-85.975 -32.181)"/><path class="aw" d="M275.556,118.248a4.007,4.007,0,1,1-4.006-4.008A4.006,4.006,0,0,1,275.556,118.248Z" transform="translate(-86.112 -71.465)"/><path class="aw" d="M313.267,145.852a4.006,4.006,0,1,1-4.006-4.008A4.006,4.006,0,0,1,313.267,145.852Z" transform="translate(-50.588 -45.463)"/><path class="aw" d="M318.867,176.272a4.006,4.006,0,1,1-4.006-4.008A4.006,4.006,0,0,1,318.867,176.272Z" transform="translate(-45.313 -16.809)"/><path class="aw" d="M250.713,96.219a4.007,4.007,0,1,1-4.008-4.006A4.008,4.008,0,0,1,250.713,96.219Z" transform="translate(-109.512 -92.213)"/><path class="av" d="M252.188,127.445a4.006,4.006,0,1,1-4.006-4.006A4.006,4.006,0,0,1,252.188,127.445Z" transform="translate(-108.121 -62.8)"/><circle class="av" cx="4.007" cy="4.007" r="4.007" transform="translate(141.331 186.725)"/><path class="av" d="M297.062,201.236a4.007,4.007,0,1,1-4.008-4.008A4.007,4.007,0,0,1,297.062,201.236Z" transform="translate(-65.854 6.706)"/><path class="av" d="M199.155,199.036a4.007,4.007,0,1,1-4.006-4.006A4.008,4.008,0,0,1,199.155,199.036Z" transform="translate(-158.077 4.635)"/><path class="av" d="M233.425,213.943a4.007,4.007,0,1,1-4.008-4.008A4.007,4.007,0,0,1,233.425,213.943Z" transform="translate(-125.797 18.675)"/><path class="av" d="M289.213,220.789a4.007,4.007,0,1,1-4.006-4.006A4.008,4.008,0,0,1,289.213,220.789Z" transform="translate(-73.247 25.126)"/></g></g><g transform="translate(16.149 311.161)"><g transform="translate(0 -12)"><ellipse class="k" cx="43.123" cy="24.897" rx="43.123" ry="24.897" transform="translate(359.246 183.615)"/><g transform="translate(333.684 11.213)"><g transform="translate(29.356 59.249)"><path class="e" d="M352.774,324.176l-19.134,1.333-.657.872,16.406,32.3,18.211-3.031Z" transform="translate(-332.984 -319.666)"/><path class="ax" d="M352.774,324.176l-19.134,1.333-.657.872,16.406,32.3,18.211-3.031Z" transform="translate(-332.984 -319.666)"/><path class="e" d="M353.173,323.647l-19.79,2.2,16.407,32.3L368,355.122Z" transform="translate(-332.726 -320.009)"/><path class="aw" d="M351.844,325.508l-16.6,1.85,13.689,26.428,15.278-2.543Z" transform="translate(-331.52 -318.801)"/><path class="ay" d="M346.966,327.243l-.681-1.326c-.376-.732-1.923-1.2-3.453-1.039l-2.93.3c-1.53.158-2.465.881-2.088,1.613l.681,1.326Z" transform="translate(-329.904 -319.23)"/><g transform="translate(5.3)"><path class="q" d="M346.383,324.734a1.59,1.59,0,0,0-1.561-.671l-1.136.155s-1.486-2.869-4.172-2.775-1.222,3.29-1.222,3.29l-1.2.185c-.664.1-1.039.546-.836.991l.366.81,10.2-1.134S346.617,325.191,346.383,324.734Z" transform="translate(-336.199 -321.441)"/><path class="r" d="M344.648,324.211c-.958.066-1.321.15-.742,1.278.663,1.289,1.217,2.254,1.217,2.254l-4.508.51s-.816-1.626-1.154-2.264a1.525,1.525,0,0,0-1.517-1.017l-.42-.549,7.143-.674Z" transform="translate(-335.339 -319.943)"/><path class="q" d="M347.115,327.35l-.681-1.326c-.376-.732-1.923-1.2-3.453-1.039l-2.928.3c-1.53.158-2.467.88-2.089,1.613l.681,1.326Z" transform="translate(-335.107 -319.161)"/></g><path class="az" d="M352.535,335.346s.514-2.938-.361-3.952-4.5-.864-6.286-1.655c-1.911-.849-1.636,1.349-.7,2.038C347.221,333.273,351.287,333.977,352.535,335.346Z" transform="translate(-325.535 -316.181)"/></g><path class="ba" d="M371.226,309.689c2.942.153,5.647,2.325,8.632,9.725s9.108,23.639,8.131,26.386c-.683,1.916-22.626,7.651-22.626,7.651l-3.174-6.713,14.562-6.523-8.254-19.046Z" transform="translate(-284.677 -269.817)"/><g transform="translate(41.539)"><g transform="translate(0 81.013)"><g transform="translate(0 116.424)"><path class="e" d="M366.328,406.771s.666,2.023,1.026,3.791c.285,1.406.7,3.755.2,4.813s-2.412,1.74-5.389,1.716c-1.928-.015-4.934,1.294-6.99,2.442-2.125,1.186-6.544,1.659-8.792,1.395-2.648-.312-5.392-1.847-5.821-2.943s-.788-2.6,6.383-4.9c.059-.02,8.676-2.828,11.7-6.16Z" transform="translate(-340.373 -404.258)"/><path class="bb" d="M366.328,406.771s.666,2.023,1.026,3.791c.285,1.406.7,3.755.2,4.813s-2.412,1.74-5.389,1.716c-1.928-.015-4.934,1.294-6.99,2.442-2.125,1.186-6.544,1.659-8.792,1.395-2.648-.312-5.392-1.847-5.821-2.943s-.788-2.6,6.383-4.9c.059-.02,8.676-2.828,11.7-6.16Z" transform="translate(-340.373 -404.258)"/><path class="bc" d="M364.394,406.958l-1.369-.17-6.314.13c-3.021,3.332-11.638,6.141-11.7,6.16-.407.13-.788.257-1.148.383-1.243,1-.191,2.714,2.77,2.978s12.177-2.838,14.217-3.822A6.1,6.1,0,0,0,364.394,406.958Z" transform="translate(-338.438 -404.247)"/><path class="bc" d="M359.139,405.247s-.01,1.725,0,2.711-1.156,2.457-4.172,2.348c-2.117-.076-3.595-.645-3.51-2.388V405.4Z" transform="translate(-333.183 -405.247)"/></g><g transform="translate(30.634 97.412)"><path class="e" d="M374.516,403.9c.542.223.653,1.27.681,3.349.02,1.573.282,4.323-1.571,4.821s-4.543.145-5.682-1.367c-1.421-1.888-2.373-3.542-4.412-5.853-1.769-2-3.69-3.883-4.351-6.647-.6-2.5-.017-3.557,1.7-4.231,1.621-.64,3.255-.12,5.623,1.853a10.943,10.943,0,0,0,2.1,1.113C370.158,397.424,373.975,403.681,374.516,403.9Z" transform="translate(-358.951 -393.717)"/><path class="bb" d="M374.516,403.9c.542.223.653,1.27.681,3.349.02,1.573.282,4.323-1.571,4.821s-4.543.145-5.682-1.367c-1.421-1.888-2.373-3.542-4.412-5.853-1.769-2-3.69-3.883-4.351-6.647-.6-2.5-.017-3.557,1.7-4.231,1.621-.64,3.255-.12,5.623,1.853a10.943,10.943,0,0,0,2.1,1.113C370.158,397.424,373.975,403.681,374.516,403.9Z" transform="translate(-358.951 -393.717)"/><path class="bc" d="M371.2,399.766l-.069,2.548s-1.707,3.337-6.446,0c-.1-.247-.529-5.179-.529-5.179Z" transform="translate(-355.577 -391.5)"/><path class="bc" d="M367.435,396.191a10.938,10.938,0,0,1-2.1-1.113h0c-1.911-.612-5.938.1-4.122,2.872a21.547,21.547,0,0,0,5.68,5.829c2.144,1.059,2.894-.252,2.894-.252l-.759-5.977A4.7,4.7,0,0,0,367.435,396.191Z" transform="translate(-357.785 -392.966)"/></g><path class="bd" d="M385.238,405.053a60.347,60.347,0,0,0-2.757-13.193s1.6-11.252,2.867-22.049c2.965-25.342.989-25.752-2.6-34.561,0,0-32.488-4.18-33.847,9.331-1.692,16.827-.928,49.454-.64,55.421s.767,8.667,2.539,21.17c1.349,9.514,2.627,30.317,2.627,30.317,4.261,2.454,8.36-.425,8.36-.425s4.071-25.586,3.977-32.465a58.715,58.715,0,0,0-2.2-15.071s2.762-27.421,3.469-31.779c0,0,.782,8.742,1.068,14.711s1.9,11.705,3.327,22.814c1.235,9.638,3.29,29.759,3.29,29.759,4.261,2.454,7.235,1.341,7.235,1.341S386.181,413.411,385.238,405.053Z" transform="translate(-335.525 -334.64)"/><path class="be" d="M359.483,362.97l1.768-11.31a24.875,24.875,0,0,0,10.04-3.492s-2.206,3.334-8.057,4.723l-1.806,13.1-.729,13.72Z" transform="translate(-327.972 -325.861)"/></g><path class="bc" d="M356.484,306.659l1.191,12.629,11.094-.7-.888-14.007Z" transform="translate(-329.918 -273.132)"/><g transform="translate(12.575 39.001)"><path class="p" d="M384.245,314.518c-1.128-3.344-3.426-5.3-8.5-5.357l-1.873.059c-.356,1.862-5.821,3.372-11.219,1.466-.762.2-2.849.582-4.027.739l-2.584.378c-3.933,1.286-5.667,8.114-6.045,18.938s-2,33.972-2,33.972,8.454,4.529,21.8,2.777c11.94-1.57,16.585-8.632,16.172-7.73a82.345,82.345,0,0,0-6.165-17.343C386.09,326.967,385.917,319.481,384.245,314.518Z" transform="translate(-347.999 -309.161)"/><path class="q" d="M357.208,361.889a46.489,46.489,0,0,0,6.612-.4c10.888-1.431,15.707-7.427,16.161-7.789a82.688,82.688,0,0,0-6.154-17.284c3.177-7.806,4.7-13.577,5.22-18.019-.518,3.238-5.3,15.782-11.567,19.544,0,0,3.534.549,6.558,4.7S374.581,361,357.208,361.889Z" transform="translate(-342.023 -303.165)"/></g><g transform="translate(16.171)"><g transform="translate(2.431 1.736)"><path class="r" d="M353.817,302.666s-4.192-4.995-.905-9.862c3.872-5.733,10.7-7.674,19.122-5.169,4.177,1.242,10.306,7.009,10.614,15.094.239,6.234-17.244,10.358-16.962,14.632Z" transform="translate(-351.654 -286.561)"/></g><g transform="translate(0 19.668)"><path class="az" d="M352.345,297.436s-2.457,3.715-2.137,4.107a5.891,5.891,0,0,0,1.883.811Z" transform="translate(-350.18 -297.436)"/></g><g transform="translate(1.783 6.922)"><path class="bc" d="M359.151,290.684c-2.389,1.233-6.516,3.514-7.578,12.311-1.088,9.033.922,12.171,2.153,13.354.831.8,5.12,1.088,7.356.394,2.8-.869,8.863-3.865,11.706-8.526,3.344-5.484,4.035-12.794.175-15.66C367.531,288.524,361.173,289.64,359.151,290.684Z" transform="translate(-351.261 -289.706)"/></g><g transform="translate(8.154 5.019)"><path class="r" d="M355.938,291.81s-2.081,8.238.412,13.445c0,0,1.461-3.215,4.224-2.292,2.782.928,2.526,4.638.338,6.533a4.143,4.143,0,0,1-4.314.917s.074,4.558,3.971,6.363c0,0,8.151,3.9,15.513-3.971,6.678-7.141,5.817-19.933-4.03-23.212S355.938,291.81,355.938,291.81Z" transform="translate(-355.124 -288.552)"/></g><path class="r" d="M380.6,294.181a8.673,8.673,0,1,1-8.673-8.673A8.673,8.673,0,0,1,380.6,294.181Z" transform="translate(-341.696 -285.508)"/><path class="r" d="M352.67,289.6c-3.667,3.732-3.875,14.5,6.751,17.149l6.953-19.07C362.325,285.047,355.942,286.269,352.67,289.6Z" transform="translate(-350.041 -285.025)"/><path class="r" d="M355.764,302.077a2.1,2.1,0,0,1,1.428-3.952Z" transform="translate(-347.456 -277.403)"/></g></g><g transform="translate(0 25.385)"><path class="bc" d="M378.153,317.041s-1.738-.241-8.251,1.5-21.856,5.262-21.856,5.262-18.031-8.682-18.816-9.628-.343-2.858-.129-3.911.574-3.39.808-4.048c.411-1.146-1.286-.836-2.285.236-1.024,1.1-1.444,3.168-1.942,3.527s-4.292-4-6.134-6.108-2.7-3.58-3.938-2.711c-.89.627-.318,1.876,1,3.68a23.281,23.281,0,0,1,1.7,2.389c.158.323-.33.58-.523.754-.356.32-.991.844-1.036,1.344a4.351,4.351,0,0,1-.051.818c-.171.6-.915.881-1.125,1.469-.152.425.016.9-.069,1.346-.054.285-.213.544-.264.831a1.987,1.987,0,0,0,.59,1.548c1.293,1.538,3.06,2.127,4.755,3.065,1.41.78,2.866,1.121,4.488,1.842s20.415,14.118,23.805,13.821c3.824-.335,27.149-4.51,27.149-4.51C382.163,325.386,378.153,317.041,378.153,317.041Z" transform="translate(-315.181 -300.903)"/></g><path class="bf" d="M376.419,309.168a12.34,12.34,0,0,1,5.5.976c2.579,1.207,4.165,4.1,4.309,10.512s-4.905,22.123-4.905,22.123,5.407,12.777,6.413,18.375-.373,22.318-.373,22.318-10.621,8.685-31.769,4.907c-.417-.074-.773-19.863-1.2-19.947-.378-.076-.824,19.554-1.209,19.47-1.99-.43-4.066-.968-6.228-1.632,0,0,.448-16.433.519-23.609s.574-34.231,2.943-41.191,5.664-10.22,5.664-10.22l4.515-.02Z" transform="translate(-294.56 -270.167)"/><path class="ba" d="M373.835,310.522c-9.28-.689-21.027,4.426-31.766,7.169l-14.876-7.374s-4.65,5-1.969,8.555c0,0,13.778,9.864,17.058,10.545s27.538-4.277,27.538-4.277a8.953,8.953,0,0,0,5.423-7.481C375.947,311.808,373.835,310.522,373.835,310.522Z" transform="translate(-309.204 -269.409)"/><path class="ba" d="M357.647,308.69a1.24,1.24,0,0,0-1.009.725c-.384.722-1.407,3.1-1.407,3.1s2.536,3.278,8.523,2.554,7.3-4.617,7.3-4.617-.625-3.43-2.086-3.29l-.012.668s-.574,1.319-4.122,1.776C359.8,310.258,357.647,308.69,357.647,308.69Z" transform="translate(-289.192 -271.456)"/><g transform="translate(67.473 72.454)"><path class="aw" d="M356.733,330.608s10.429,2.622,16.8-1.159c.966.879.894,1.868-.048,3.529,0,0-6.243,3.692-16.753,1.006A2.57,2.57,0,0,1,356.733,330.608Z" transform="translate(-356.101 -329.449)"/><path class="ba" d="M358.383,331.671a.932.932,0,1,1-.932-.933A.932.932,0,0,1,358.383,331.671Z" transform="translate(-355.83 -328.613)"/><path class="ba" d="M367.458,331.105a.933.933,0,1,1-.933-.933A.933.933,0,0,1,367.458,331.105Z" transform="translate(-349.942 -328.98)"/></g></g></g><ellipse class="k" cx="43.123" cy="24.897" rx="43.123" ry="24.897" transform="translate(0 172.01)"/><g transform="translate(15.941)"><g transform="translate(1.906 83.162)"><g transform="translate(2.559 92.125)"><path class="e" d="M125.9,394.918c-.536.218-.65,1.252-.686,3.3-.026,1.553-.3,4.267,1.53,4.767s4.483.163,5.615-1.326c1.411-1.857,2.356-3.484,4.38-5.756,1.756-1.972,3.661-3.817,4.325-6.541.6-2.462.031-3.511-1.654-4.185-2.318-.927-5.854,2.351-7.639,2.9C130.233,388.541,126.439,394.7,125.9,394.918Z" transform="translate(-125.188 -385.013)"/></g><path class="bb" d="M125.873,394.936c-.538.218-.651,1.252-.686,3.3-.028,1.552-.3,4.266,1.529,4.765s4.483.163,5.615-1.324c1.411-1.857,2.358-3.486,4.381-5.758,1.754-1.97,3.659-3.817,4.323-6.541.6-2.462.031-3.51-1.654-4.185-2.318-.927-5.852,2.351-7.639,2.9C130.2,388.559,126.409,394.72,125.873,394.936Z" transform="translate(-122.65 -292.877)"/><g transform="translate(3.231 99.063)"><path class="bc" d="M125.6,390.289l.058,2.516a6.162,6.162,0,0,0,6.361.03c.1-.246.579-3.614.579-3.614Z" transform="translate(-125.596 -389.221)"/></g><g transform="translate(22.569 116.051)"><path class="e" d="M138.729,399.542s-.671,2.2-1.017,4.125c-.275,1.529-.661,4.081-.1,5.212s2.653,1.824,5.873,1.726c2.086-.063,5.369,1.281,7.623,2.473,2.328,1.232,7.12,1.634,9.545,1.294,2.859-.4,5.791-2.13,6.226-3.328s-.206-2.416-7.024-5.141c-.063-.025-9.458-2.848-12.807-6.381Z" transform="translate(-137.324 -399.524)"/></g><path class="bb" d="M138.729,399.542s-.671,2.2-1.017,4.125c-.275,1.529-.661,4.081-.1,5.212s2.653,1.824,5.873,1.726c2.086-.063,5.369,1.281,7.623,2.473,2.328,1.232,7.12,1.634,9.545,1.294,2.859-.4,5.791-2.13,6.226-3.328s-.206-2.416-7.024-5.141c-.063-.025-9.458-2.848-12.807-6.381Z" transform="translate(-114.755 -283.473)"/><g transform="translate(23.914 113.332)"><path class="bc" d="M138.139,397.891s.051,1.866.066,2.935,1.311,2.628,4.571,2.439c2.289-.134,3.875-.787,3.741-2.671l-.061-2.719Z" transform="translate(-138.139 -397.875)"/></g><path class="bd" d="M124.48,395.925c.966-8.246,1.474-13.354,1.474-13.354s-1.186-9.928-1.858-20.636c-.726-11.567-.589-25.307.386-30.186,0,0,37.188-8.4,38.156,4.968s-.406,47.483-.716,53.373-1.209,11.112-2.208,20.669c-.988,9.432-3.847,31.717-3.847,31.717a8.828,8.828,0,0,1-8.317.017s-3.232-26.7-3.108-33.491a57.948,57.948,0,0,1,2.239-14.865s-.958-11.02-1.8-20.6-1.608-14.18-1.847-18.352l-.813-.379s-.447,16.578-.755,22.466-1.118,11.549-2.572,22.507c-1.263,9.506-5.206,29.65-5.206,29.65-4.216,2.4-6.821-.15-6.821-.15S123.512,404.171,124.48,395.925Z" transform="translate(-123.636 -329.143)"/><g transform="translate(5.609 17.849)"><path class="be" d="M140.828,348.155s-9.163-4.261-13.79-8.187c0,0,4.345,5.839,9.933,8.345,0,0,2.429,20.527,2.411,20.12l.678-20.291Z" transform="translate(-127.038 -339.968)"/></g></g><g transform="translate(0 5.221)"><path class="bc" d="M144.347,299.7l-1.936,12.217-11.009-.555,1.285-14.29Z" transform="translate(-116.691 -272.015)"/><g transform="translate(0 18.09)"><path class="ba" d="M134.912,301.642s-7.644-1.964-10.917,3.514-.223,17.315-.223,17.315Z" transform="translate(-122.48 -287.358)"/><path class="bf" d="M123.978,309.057c1.014-3.332,6.485-8.21,10.7-7.524q1.469.237,2.863.485c.506,2.06,5.773,3.649,11.165,2.379q2.439.641,4.469,1.314c3.875,1.286,7.453,4.531,8.057,17.172,0,0,3.418,37.43,3.456,56.3a36.12,36.12,0,0,1-6.854,2.076c-.254.051-1.238-22.934-1.492-22.888-.363.066.007,23.164-.355,23.221a61.961,61.961,0,0,1-18.149-.058,35.724,35.724,0,0,1-14.992-5.676s.007-24.1,1.716-36c-.778-8.155-.943-13.572-1.308-16.474C122.251,315.39,123.282,311.345,123.978,309.057Z" transform="translate(-122.249 -287.249)"/><g transform="translate(3.563 52.388)"><path class="aw" d="M141.989,328.361s-10.71.976-16.418-3.745c-1.092.717-1.172,1.707-.5,3.494,0,0,5.6,4.612,16.395,3.586A2.575,2.575,0,0,0,141.989,328.361Z" transform="translate(-124.641 -324.616)"/><path class="ba" d="M133.836,328.157a.933.933,0,1,0,1.067-.778A.933.933,0,0,0,133.836,328.157Z" transform="translate(-118.682 -322.831)"/><path class="ba" d="M124.959,326.193a.933.933,0,1,0,1.067-.778A.933.933,0,0,0,124.959,326.193Z" transform="translate(-124.442 -324.105)"/></g><path class="ba" d="M144.278,301.683s.531-.142.917.582a28.611,28.611,0,0,1,1.017,3.985s-2.325,2.66-8.314,1.936-7.295-5.09-7.295-5.09.75-3.525,2.21-3.385l-.112,1.237s.572,1.321,4.121,1.777C141.848,303.371,144.278,301.683,144.278,301.683Z" transform="translate(-117.209 -288.392)"/><g transform="translate(51.664)"><path class="e" d="M164.267,293.148,187.2,305.113,175.8,336.266l-21.4-11.987Z" transform="translate(-153.429 -292.648)"/><path class="ax" d="M164.267,293.148,187.2,305.113,175.8,336.266l-21.4-11.987Z" transform="translate(-153.429 -292.648)"/><path class="e" d="M163.675,292.845,186.6,304.811l-11.394,31.152-21.4-11.987Z" transform="translate(-153.813 -292.845)"/><path class="bf" d="M164.054,294.754l19.236,10.039-10.083,26.782-17.952-10.057Z" transform="translate(-152.877 -291.605)"/><path class="ay" d="M163.485,297.225l.373-.953c.206-.526,1.807-.213,3.577.7l3.387,1.749c1.769.912,3.037,2.079,2.831,2.605l-.373.953Z" transform="translate(-147.537 -290.786)"/><g transform="translate(15.724 2.328)"><path class="q" d="M163.8,294.556c.127-.33.823-.275,1.557.12l1.326.716s.816-2.058,3.868-.633,2.353,3.809,2.353,3.809l1.408.777c.778.427,1.332,1.045,1.237,1.38l-.171.607-11.811-6.164S163.676,294.884,163.8,294.556Z" transform="translate(-163.206 -294.256)"/><path class="r" d="M164.546,295.459c1.1.539,1.532.8,1.215,1.611-.361.927-.7,1.593-.7,1.593l5.225,2.732s.434-1.177.625-1.633.572-.673,1.4-.237l.31-.326-8.24-4.2Z" transform="translate(-162.675 -293.776)"/><path class="q" d="M163.349,297.255s.167-.427.373-.953,1.807-.213,3.576.7l3.387,1.749c1.769.914,3.037,2.079,2.831,2.607l-.373.951Z" transform="translate(-163.349 -293.094)"/></g></g><g transform="translate(31.569 18.724)"><path class="bc" d="M141.626,304.2c4.386,1.316,7.059,1.555,11.9,9.011s15.82,21.432,16.87,23.208c1.463,2.473,1.74,6.233.477,8.5-1.179,2.122-4.013.872-8.823-3.349-4.652-4.081-14.466-15.3-14.466-15.3A79.411,79.411,0,0,1,141.626,304.2Z" transform="translate(-141.626 -304.2)"/></g><path class="bc" d="M158.922,344.882c4.056-.491,12.817-12.764,15.513-16.964a29.964,29.964,0,0,1,8.21-8.663c4.3-3.173,3.67-8.048,1.8-12.517-.648-1.548-2.849-.541-2.849-.541l-.775,2.12-1.342,3.672c-.91.844-1.428,1.12-1.489.867-.115-.473.668-2.449.65-4.506-.023-2.477-1.758-.849-2.275.02a30.829,30.829,0,0,0-1.83,4.091c-.864,2.216-.508,4.459-1.56,5.969s-15.193,15.058-15.193,15.058Z" transform="translate(-99.577 -284.39)"/><path class="ba" d="M141.894,304.041a23.017,23.017,0,0,1,6.642,2.15c3.494,1.75,4.65,4.732,9.682,11.267s11.567,15.482,11.567,15.482l11.76-10.334a6.753,6.753,0,0,0,5.361,4.905s-4.337,8.858-10.161,15.1-5.86,5.939-11.168,2.823-17.516-18.1-17.516-18.1S135.876,317.755,141.894,304.041Z" transform="translate(-110.966 -285.579)"/></g><g transform="translate(35.802 12.69)"><path class="az" d="M144.193,289.57s2.887,4.381,2.559,4.811-2.454.819-2.454.819Z" transform="translate(-144.193 -289.57)"/></g><g transform="translate(31.012 8.625)"><path class="r" d="M141.288,290.545a3.44,3.44,0,1,1,3.44,3.441A3.444,3.444,0,0,1,141.288,290.545Zm.765,0a2.675,2.675,0,1,0,2.674-2.674A2.678,2.678,0,0,0,142.053,290.545Z" transform="translate(-141.288 -287.105)"/></g><g transform="translate(9.784)"><path class="bc" d="M146.417,282.446c5.842,1.232,7.529,3.8,8.08,13.081.575,9.7-.416,12.746-1.688,14.052-.861.881-5.639,1.04-8.052.376-3.017-.833-9.836-3.248-13.03-8.126-3.756-5.74-4.744-13.518-.722-16.708C136.665,280.629,144.039,281.945,146.417,282.446Z" transform="translate(-128.414 -281.874)"/></g><path class="r" d="M149.353,288.755,138.966,290.1l.419.73,9.969-1.294Z" transform="translate(-111.783 -277.409)"/></g><g transform="translate(4.981)"><path class="r" d="M157.031,287.533c-.058.059-.117.117-.176.173-1.123,1.065-2.562,1.743-3.738,2.752a8.7,8.7,0,0,0-2.653,4.224c-.388,1.344-.539,2.937-2,3.56,0,0-.923-3.585-3.944-3.135-3.041.455-3.451,4.33-1.535,6.686s3.7,1.451,3.7,1.451-.1,5.125-2.364,8.025c0,0-2.584.836-7.334-.176-2.92-.623-7.051-4.274-8.787-8.139-3.672-8.177-3.929-15.534,1.291-17.74.564-3.768,3.532-5.458,6.914-6.235,5.057-1.162,9.788,1.84,14.791.721,1.047-.234,2.066-.61,3.133-.742a.641.641,0,0,1,.361.03c.254.129.237.495.163.77a6.536,6.536,0,0,1-1.471,2.7,15.556,15.556,0,0,0,5.669-.716A7.3,7.3,0,0,1,157.031,287.533Z" transform="translate(-125.501 -278.708)"/><g transform="translate(0.405 4.709)"><path class="r" d="M129.243,284.623l-3.5-2.061a2.029,2.029,0,1,1,3.5,2.061Z" transform="translate(-125.747 -281.563)"/></g><g transform="translate(22.918 17.523)"><path class="r" d="M139.507,293.392l-.107-4.056a2.029,2.029,0,1,1,.107,4.056Z" transform="translate(-139.4 -289.335)"/></g></g></g></g></g></g></svg>