<?xml version="1.0"?>
<svg xmlns="http://www.w3.org/2000/svg" id="Layer_5" enable-background="new 0 0 64 64" height="512px" viewBox="0 0 64 64" width="512px"><g><g><path d="m40.17 29.001-5.527-.001-1.398-5h-2.724l-1.377 4.995-5.547.008-.945 2.361 4.864 3.198-2.246 5.169 2.067 1.539 4.547-3.738 4.548 3.738 2.066-1.539-2.246-5.169 4.865-3.198z" data-original="#000000" class="active-path" data-old_color="#000000" fill="#52E5CC"/><path d="m46 43c-.551 0-1 .448-1 1s.449 1 1 1z" data-original="#000000" class="active-path" data-old_color="#000000" fill="#52E5CC"/><path d="m16 14v-2h-.764c-1.522 0-3.046-.339-4.427-.982-.46.089-.809.496-.809.982v2c0 1.654 1.346 3 3 3s3-1.346 3-3z" data-original="#000000" class="active-path" data-old_color="#000000" fill="#52E5CC"/><path d="m8 10h.78c.55-.609 1.337-1 2.22-1h.236l.211.105c1.171.586 2.481.895 3.789.895h1.764 1c.523 0 1.007.146 1.435.382.354-.368.565-.858.565-1.382 0-.842-.542-1.597-1.347-1.877l-.718-.25.065-.908c0-1.068-.897-1.965-2-1.965-.139 0-.288.021-.468.064l-.606.146-.398-.479c-.772-.93-2.283-.93-3.056 0l-.398.479-.605-.146c-.181-.043-.33-.064-.469-.064-1.103 0-2 .897-2 2l.016.113.049.759-.718.25c-.805.281-1.347 1.036-1.347 1.878 0 .524.211 1.014.565 1.382.428-.236.912-.382 1.435-.382z" data-original="#000000" class="active-path" data-old_color="#000000" fill="#52E5CC"/><path d="m18 12v2c.551 0 1-.449 1-1s-.449-1-1-1z" data-original="#000000" class="active-path" data-old_color="#000000" fill="#52E5CC"/><path d="m57 41c0-3.309-2.691-6-6-6s-6 2.691-6 6v.184c.314-.112.648-.184 1-.184v-1h1c1.153 0 2.309-.272 3.342-.789l.658-.329.658.329c1.033.517 2.189.789 3.342.789h1v1c.352 0 .686.072 1 .184z" data-original="#000000" class="active-path" data-old_color="#000000" fill="#52E5CC"/><path d="m56 43v2c.551 0 1-.448 1-1s-.449-1-1-1z" data-original="#000000" class="active-path" data-old_color="#000000" fill="#52E5CC"/><path d="m55.576 47c-.297.676-.748 1.262-1.296 1.743.257.438.669.774 1.171.918l.825.166c.467-.868.724-1.83.724-2.827v-.184c-.314.112-.648.184-1 .184z" data-original="#000000" class="active-path" data-old_color="#000000" fill="#52E5CC"/><path d="m45 47c0 .996.256 1.957.722 2.824l.905-.182c.446-.13.842-.462 1.094-.897-.549-.481-1-1.067-1.297-1.744h-.424c-.352 0-.686-.072-1-.184z" data-original="#000000" class="active-path" data-old_color="#000000" fill="#52E5CC"/><path d="m48 41.946v3.054c0 1.654 1.346 3 3 3s3-1.346 3-3v-3.054c-1.036-.111-2.055-.393-3-.832-.945.44-1.964.721-3 .832z" data-original="#000000" class="active-path" data-old_color="#000000" fill="#52E5CC"/><path d="m11.461 18.732c-.082.142-.17.278-.268.408l1.807 2.259 1.809-2.261c-.098-.129-.187-.266-.269-.406-.488.16-.999.268-1.54.268-.54 0-1.051-.108-1.539-.268z" data-original="#000000" class="active-path" data-old_color="#000000" fill="#52E5CC"/><path d="m43.698 50.232c-.45-1.013-.698-2.106-.698-3.232v-.765c-3.043 2.355-6.854 3.765-11 3.765-9.941 0-18-8.059-18-18 0-.677.051-1.342.124-2h-6.124v5.266l2.359.74.121.572c.558 2.636 1.59 5.125 3.068 7.397l.319.49-1.147 2.196 4.619 4.617 2.196-1.147.49.319c2.271 1.479 4.76 2.511 7.396 3.068l.572.121.741 2.361h6.531l.74-2.359.572-.121c1.106-.234 2.196-.567 3.253-.97.714-1.091 1.833-1.906 3.179-2.178z" data-original="#000000" class="active-path" data-old_color="#000000" fill="#52E5CC"/><path d="m43.406 52.332c-1.394.281-2.406 1.519-2.406 2.94v5.728h7.749l-2.105-9.325z" data-original="#000000" class="active-path" data-old_color="#000000" fill="#52E5CC"/><path d="m52.541 49.732c-.489.16-1 .268-1.541.268s-1.052-.108-1.54-.268c-.248.429-.568.81-.952 1.12l.26 1.148h4.464l.261-1.158c-.386-.31-.706-.687-.952-1.11z" data-original="#000000" class="active-path" data-old_color="#000000" fill="#52E5CC"/><path d="m50.799 61h.402l1.58-7h-3.562z" data-original="#000000" class="active-path" data-old_color="#000000" fill="#52E5CC"/><path d="m58.594 52.332-3.239-.653-2.104 9.321h7.749v-5.728c0-1.421-1.012-2.659-2.406-2.94z" data-original="#000000" class="active-path" data-old_color="#000000" fill="#52E5CC"/><path d="m18 16h-.424c-.297.676-.748 1.262-1.296 1.743.256.438.668.774 1.17.917l2.054.413c3.239-3.131 7.635-5.073 12.496-5.073 9.941 0 18 8.059 18 18 0 .361-.011.719-.032 1.074.339-.044.681-.074 1.032-.074 1.891 0 3.629.663 5 1.765v-6.031l-2.359-.74-.121-.572c-.558-2.636-1.59-5.125-3.068-7.396l-.319-.49 1.147-2.196-4.619-4.619-2.196 1.147-.49-.319c-2.272-1.479-4.761-2.511-7.396-3.068l-.572-.121-.741-2.36h-6.531l-.741 2.359-.572.121c-2.264.479-4.417 1.327-6.425 2.492 0 .01.003.019.003.028 0 1.654-1.346 3-3 3z" data-original="#000000" class="active-path" data-old_color="#000000" fill="#52E5CC"/><path d="m23 24.273c0-1.422-1.012-2.659-2.406-2.941l-3.617-.73c-.209-.059-.408-.136-.6-.223l-3.377 4.222-3.37-4.213c-.171.076-.348.143-.531.195l-3.692.749c-1.395.282-2.407 1.519-2.407 2.941v3.727h20z" data-original="#000000" class="active-path" data-old_color="#000000" fill="#52E5CC"/><path d="m8 14v-2c-.551 0-1 .449-1 1s.449 1 1 1z" data-original="#000000" class="active-path" data-old_color="#000000" fill="#52E5CC"/><path d="m7.707 53.707-1.414-1.414-4.707 4.707 4.707 4.707 1.414-1.414-2.293-2.293h12.586v-2h-12.586z" data-original="#000000" class="active-path" data-old_color="#000000" fill="#52E5CC"/><path d="m20 56h2v2h-2z" data-original="#000000" class="active-path" data-old_color="#000000" fill="#52E5CC"/><path d="m56.293 10.293 1.414 1.414 4.707-4.707-4.707-4.707-1.414 1.414 2.293 2.293h-12.586v2h12.586z" data-original="#000000" class="active-path" data-old_color="#000000" fill="#52E5CC"/><path d="m42 6h2v2h-2z" data-original="#000000" class="active-path" data-old_color="#000000" fill="#52E5CC"/></g></g> </svg>
