<svg xmlns="http://www.w3.org/2000/svg" width="31.472" height="31.472" viewBox="0 0 31.472 31.472"><defs><style>.a{fill:#00d8ae;}</style></defs><path class="a" d="M1666.723-36.256a13.938,13.938,0,0,1-9.984-4.32,13.848,13.848,0,0,1-3.753-14.005,19.3,19.3,0,0,1,8.882-10.782,19.566,19.566,0,0,1,10.049-2.357c4.929.122,7.623.279,7.735.285l3.726.22.22,3.725c.006.113.164,2.806.286,7.736a19.669,19.669,0,0,1-2.358,10.049,19.277,19.277,0,0,1-10.783,8.881A14.905,14.905,0,0,1,1666.723-36.256Z" transform="translate(-1652.418 67.728)"/></svg>