<svg xmlns="http://www.w3.org/2000/svg" width="174.823" height="44" viewBox="0 0 174.823 44"><defs><style>.a{fill:#00d8ae;}</style></defs><g transform="translate(-1107.708 -223.932)"><g transform="translate(1107.708 242.661)"><path class="a" d="M1107.708,334.891V315.537h3.583a1.361,1.361,0,0,1,1.418.97l.317,1.045a10.758,10.758,0,0,1,1.008-.924,6.509,6.509,0,0,1,1.129-.728,6.134,6.134,0,0,1,2.846-.662,4.545,4.545,0,0,1,2.9.905,5.646,5.646,0,0,1,1.745,2.417,5.722,5.722,0,0,1,1.185-1.53,6.384,6.384,0,0,1,1.512-1.027,7.334,7.334,0,0,1,1.717-.578,8.9,8.9,0,0,1,1.8-.187,8.178,8.178,0,0,1,2.949.495,5.616,5.616,0,0,1,2.156,1.437,6.222,6.222,0,0,1,1.316,2.314,10.01,10.01,0,0,1,.448,3.108v12.3h-5.786v-12.3q0-3-2.576-3a2.645,2.645,0,0,0-1.95.775,3.019,3.019,0,0,0-.775,2.23v12.3h-5.786v-12.3a3.312,3.312,0,0,0-.653-2.333,2.566,2.566,0,0,0-1.923-.672,3.238,3.238,0,0,0-1.483.355,5.405,5.405,0,0,0-1.316.952v14Z" transform="translate(-1107.708 -309.919)"/><path class="a" d="M1234.6,316.372v19.354h-5.786V316.372Z" transform="translate(-1196.915 -310.754)"/><path class="a" d="M1271.495,317.627a14.261,14.261,0,0,1,1.157-.97,6.8,6.8,0,0,1,1.279-.756,7.588,7.588,0,0,1,1.474-.485,7.917,7.917,0,0,1,1.727-.178,6.78,6.78,0,0,1,2.808.551,5.82,5.82,0,0,1,2.062,1.531,6.606,6.606,0,0,1,1.269,2.333,9.675,9.675,0,0,1,.429,2.939v12.3h-5.786v-12.3a3.386,3.386,0,0,0-.653-2.212,2.346,2.346,0,0,0-1.922-.793,4.047,4.047,0,0,0-1.783.4,7.2,7.2,0,0,0-1.614,1.092v13.811h-5.786V315.537h3.583a1.36,1.36,0,0,1,1.418.97Z" transform="translate(-1224.425 -309.919)"/><path class="a" d="M1348.751,320.313a6.829,6.829,0,0,1-2.436-.4,4.7,4.7,0,0,1-2.864-2.921,6.88,6.88,0,0,1-.373-2.333v-10h-1.643a1.044,1.044,0,0,1-1.082-1.138v-2.258l3.08-.6,1.138-4.722a1.15,1.15,0,0,1,1.269-.9h3.023V300.7h4.8v3.956h-4.8v9.612a1.808,1.808,0,0,0,.327,1.111,1.1,1.1,0,0,0,.943.438,1.858,1.858,0,0,0,.532-.065,2.106,2.106,0,0,0,.373-.15q.158-.083.3-.149a.762.762,0,0,1,.327-.065.675.675,0,0,1,.42.121,1.5,1.5,0,0,1,.327.383l1.754,2.743a7.989,7.989,0,0,1-2.519,1.26A10.025,10.025,0,0,1,1348.751,320.313Z" transform="translate(-1279.078 -295.042)"/><g transform="translate(75.457 5.469)"><path d="M1423.488,317.047,1417.4,336.2h-3.7q-.635,0-.878-.821l-3.434-11.068q-.168-.559-.308-1.111t-.234-1.11q-.112.56-.252,1.129t-.307,1.129l-3.491,11.03a.966.966,0,0,1-.989.821h-3.546l-6.066-19.149h3.677a1.485,1.485,0,0,1,.859.243,1.133,1.133,0,0,1,.466.616l2.744,10.228q.205.84.364,1.642t.271,1.605q.2-.8.438-1.605t.495-1.642l3.173-10.265a1.168,1.168,0,0,1,.439-.616,1.29,1.29,0,0,1,.793-.243h2.034a1.412,1.412,0,0,1,.831.243,1.142,1.142,0,0,1,.457.616l3.079,10.265q.242.84.457,1.652t.42,1.614a31.026,31.026,0,0,1,.691-3.266l2.818-10.228a1.263,1.263,0,0,1,.467-.616,1.334,1.334,0,0,1,.8-.243Z" transform="translate(-1394.204 -316.693)"/><path d="M1519.707,316.018a10.438,10.438,0,0,1,3.873.691,8.485,8.485,0,0,1,2.986,1.96,8.6,8.6,0,0,1,1.913,3.1,12.83,12.83,0,0,1,0,8.194,8.788,8.788,0,0,1-1.913,3.117,8.355,8.355,0,0,1-2.986,1.978,10.438,10.438,0,0,1-3.873.691,10.566,10.566,0,0,1-3.9-.691,8.332,8.332,0,0,1-3-1.978,8.9,8.9,0,0,1-1.923-3.117,12.66,12.66,0,0,1,0-8.194,8.711,8.711,0,0,1,1.923-3.1,8.46,8.46,0,0,1,3-1.96A10.566,10.566,0,0,1,1519.707,316.018Zm0,16.182a4.055,4.055,0,0,0,3.537-1.605,8.052,8.052,0,0,0,1.147-4.7,8.144,8.144,0,0,0-1.147-4.722,4.038,4.038,0,0,0-3.537-1.624,4.118,4.118,0,0,0-3.593,1.633,8.049,8.049,0,0,0-1.167,4.713,7.955,7.955,0,0,0,1.167,4.694A4.136,4.136,0,0,0,1519.707,332.2Z" transform="translate(-1479.655 -315.962)"/><path d="M1599.872,319.483a8.268,8.268,0,0,1,2.128-2.7,4.536,4.536,0,0,1,2.912-.98,3.564,3.564,0,0,1,2.128.578l-.3,3.453a.9.9,0,0,1-.271.476.75.75,0,0,1-.476.14,5.421,5.421,0,0,1-.831-.093,6.416,6.416,0,0,0-1.073-.094,3.864,3.864,0,0,0-1.363.224,3.421,3.421,0,0,0-1.073.644,4.384,4.384,0,0,0-.839,1.017,9.933,9.933,0,0,0-.682,1.363v11.8h-4.61V316.16h2.706a1.115,1.115,0,0,1,1.363,1.157Z" transform="translate(-1542.5 -315.806)"/><path d="M1659.427,336.3h-4.442a1.211,1.211,0,0,1-.812-.261,2.456,2.456,0,0,1-.513-.6l-4.05-6.663a5.383,5.383,0,0,1-.215.6,4.284,4.284,0,0,1-.271.522l-3.584,5.543a2.971,2.971,0,0,1-.5.588,1.069,1.069,0,0,1-.747.271h-4.125l6.57-9.873-6.308-9.276h4.442a1.545,1.545,0,0,1,.747.14,1.234,1.234,0,0,1,.429.457l4.013,6.383a5.93,5.93,0,0,1,.578-1.251l3.229-5.039a1.215,1.215,0,0,1,1.064-.691h4.237l-6.29,9.071Z" transform="translate(-1575.385 -316.797)"/><path d="M1730.239,320.05a1.235,1.235,0,0,1-.391.42,1.015,1.015,0,0,1-.522.121,1.643,1.643,0,0,1-.719-.187c-.256-.124-.551-.264-.886-.42a8.137,8.137,0,0,0-1.148-.42,5.506,5.506,0,0,0-1.521-.187,3.5,3.5,0,0,0-2.137.579,1.8,1.8,0,0,0-.775,1.512,1.44,1.44,0,0,0,.4,1.036,3.6,3.6,0,0,0,1.064.737,10.439,10.439,0,0,0,1.5.569q.841.252,1.708.551t1.708.681a6,6,0,0,1,1.5.971,4.512,4.512,0,0,1,1.063,1.409,4.465,4.465,0,0,1,.4,1.979,6.458,6.458,0,0,1-.495,2.548,5.507,5.507,0,0,1-1.465,2.016,6.918,6.918,0,0,1-2.4,1.325,11.233,11.233,0,0,1-5.226.3,11.4,11.4,0,0,1-1.811-.494,9.977,9.977,0,0,1-1.605-.747,7.739,7.739,0,0,1-1.3-.933l1.063-1.754a1.511,1.511,0,0,1,.485-.485,1.36,1.36,0,0,1,.709-.168,1.491,1.491,0,0,1,.812.243q.382.243.886.523a7.92,7.92,0,0,0,1.186.523,5.216,5.216,0,0,0,1.726.243,4.475,4.475,0,0,0,1.409-.2,2.97,2.97,0,0,0,.971-.513,1.93,1.93,0,0,0,.56-.737,2.217,2.217,0,0,0,.177-.868,1.55,1.55,0,0,0-.4-1.1,3.53,3.53,0,0,0-1.064-.746,10.277,10.277,0,0,0-1.512-.569q-.85-.253-1.736-.55a15.95,15.95,0,0,1-1.736-.7,5.9,5.9,0,0,1-1.512-1.017,4.611,4.611,0,0,1-1.064-1.512,5.277,5.277,0,0,1-.4-2.165,5.515,5.515,0,0,1,.466-2.24,5.253,5.253,0,0,1,1.372-1.857,6.811,6.811,0,0,1,2.259-1.269,9.407,9.407,0,0,1,3.126-.476,9.575,9.575,0,0,1,3.6.653,8.144,8.144,0,0,1,2.706,1.717Z" transform="translate(-1632.125 -315.962)"/></g></g><path class="a" d="M1211.687,245.687a10.1,10.1,0,0,1-9.494-12.667,13.331,13.331,0,0,1,6.14-7.454,13.567,13.567,0,0,1,6.946-1.629c3.407.084,5.269.192,5.347.2l2.575.152.152,2.575c0,.078.113,1.94.2,5.348a13.6,13.6,0,0,1-1.629,6.946h0a13.332,13.332,0,0,1-7.453,6.139A10.311,10.311,0,0,1,1211.687,245.687Zm3.211-15.948a7.33,7.33,0,0,0-7.112,4.843,4.217,4.217,0,0,0,5.119,5.12,7.35,7.35,0,0,0,4.841-7.351c-.024-.976-.05-1.823-.075-2.534-.711-.025-1.559-.051-2.535-.075Q1215.015,229.739,1214.9,229.739Z" transform="translate(-69.311 0)"/></g></svg>