<svg xmlns="http://www.w3.org/2000/svg" xmlns:xlink="http://www.w3.org/1999/xlink" width="318.447" height="278" viewBox="0 0 318.447 278"><defs><style>.a{fill:#06bc99;}.b{fill:#efe2dd;}.c{fill:#fdf4f5;}.d{fill:#fabe3d;}.e{isolation:isolate;}.f{clip-path:url(#a);}.g{fill:#00c09b;}.h{fill:#00d8ae;}.i{fill:#fed29a;}.j{fill:#fd9126;}</style><clipPath id="a"><path class="a" d="M2229.223,279.282l29.193-6.294a27.257,27.257,0,0,0-7.656,2.837c-9.56,5.409-16.417,15.876-18.247,23.42-2.356,9.725-.545,18.2,5.716,26.654,4.547,6.145,9.354,9.463,14.8,10.129a19.152,19.152,0,0,0,6.438-.362l-29.193,6.294a19.183,19.183,0,0,1-6.437.362c-5.446-.667-10.253-3.984-14.8-10.13-6.261-8.458-8.072-16.929-5.716-26.654,1.83-7.544,8.687-18.012,18.247-23.42A27.262,27.262,0,0,1,2229.223,279.282Z" transform="translate(-2202.327 -272.988)"/></clipPath></defs><g transform="translate(-7036 -4796)"><g transform="translate(7036 4796)"><path class="b" d="M2388.325,331.625l-118.273-40.994v82.61Z" transform="translate(-2110.836 -241.206)"/><path class="c" d="M2079.892,331.625l118.273,41.616v-82.61Z" transform="translate(-2038.949 -241.206)"/><path class="d" d="M2388.325,356.541l40.958,48.448-120.5,43.79-38.732-50.622Z" transform="translate(-2110.836 -266.122)"/><g transform="translate(86.291 0)"><g class="e"><g class="e" transform="translate(30.802 38.451)"><g class="f"><path class="a" d="M2258.136,335.915q-.945.146-1.864.2-.739.046-1.463.033-.622-.011-1.233-.066-.275-.024-.547-.058t-.536-.075q-.5-.077-.994-.186-.466-.1-.926-.232-.443-.125-.88-.275t-.853-.319q-.423-.172-.841-.367t-.841-.421q-.43-.229-.855-.485-.444-.267-.883-.563-.468-.316-.932-.665-.509-.385-1.013-.81-.565-.476-1.121-1-.665-.629-1.319-1.331-.847-.908-1.679-1.939-.567-.7-1.126-1.457-.643-.868-1.223-1.737a33.006,33.006,0,0,1-4.431-9.358q-.316-1.121-.538-2.255-.166-.852-.279-1.712-.1-.741-.154-1.489-.053-.689-.073-1.384-.019-.663-.007-1.334t.052-1.322q.041-.667.111-1.34.072-.689.174-1.386.105-.725.245-1.459.146-.773.33-1.556.037-.161.076-.323.092-.382.2-.772.149-.534.33-1.082.2-.62.447-1.258.276-.725.6-1.469.376-.858.815-1.733.509-1.014,1.1-2.04.69-1.2,1.488-2.393c.63-.943,1.309-1.881,2.034-2.8a43.8,43.8,0,0,1,2.958-3.385,37.091,37.091,0,0,1,8.271-6.485,27.261,27.261,0,0,1,7.656-2.837l-29.193,6.294a27.259,27.259,0,0,0-7.656,2.837,37.079,37.079,0,0,0-8.272,6.485,43.57,43.57,0,0,0-2.957,3.386c-.725.92-1.4,1.857-2.034,2.8q-.8,1.193-1.489,2.393-.591,1.024-1.1,2.041-.438.873-.815,1.733-.325.744-.6,1.47-.242.637-.447,1.258-.181.549-.33,1.082-.11.391-.2.772c-.026.108-.052.215-.077.323q-.183.784-.329,1.556-.14.734-.246,1.458-.1.7-.174,1.386-.071.674-.111,1.34t-.052,1.322q-.011.671.008,1.335.019.7.072,1.384.058.748.155,1.489.113.86.279,1.711.222,1.134.539,2.255a32.978,32.978,0,0,0,4.431,9.359q.58.869,1.223,1.736.56.758,1.126,1.458.833,1.031,1.679,1.938.655.7,1.319,1.331.557.527,1.121,1,.5.425,1.013.81.464.35.932.666.439.3.883.563.426.257.855.485t.841.421q.419.2.841.367t.854.319q.437.15.879.275.46.13.926.232.494.108.995.187.267.041.536.075t.547.058q.612.054,1.234.065.723.013,1.463-.033.919-.057,1.864-.2.657-.1,1.33-.249l29.193-6.294Q2258.795,335.813,2258.136,335.915Z" transform="translate(-2202.327 -272.988)"/></g></g><path class="g" d="M2338.122,279.382c0-.091,0-.182,0-.273.018-1.125.022-2.254.006-3.387q-.014-1.007-.028-1.987c0-.254-.008-.5-.012-.754-.006-.407-.012-.815-.019-1.215,0-.239-.007-.471-.011-.707-.006-.395-.012-.791-.019-1.179,0-.266-.009-.525-.013-.787-.006-.346-.012-.694-.018-1.034,0-.284-.01-.56-.015-.84-.006-.31-.011-.621-.017-.925,0-.287-.01-.567-.016-.85s-.011-.588-.016-.876c-.005-.267-.01-.527-.015-.79-.006-.294-.012-.588-.018-.877,0-.264-.01-.522-.016-.781s-.011-.536-.017-.8-.01-.5-.016-.747c-.006-.285-.012-.568-.018-.846,0-.223-.01-.441-.015-.66-.006-.261-.012-.521-.017-.776s-.012-.492-.018-.735-.011-.475-.017-.707-.011-.449-.016-.67-.01-.445-.016-.664q-.008-.355-.017-.7c-.006-.211-.011-.42-.016-.626s-.01-.4-.016-.595c-.007-.248-.013-.49-.019-.731,0-.153-.008-.307-.012-.457-.006-.241-.012-.478-.019-.712,0-.165-.009-.329-.013-.49,0-.07,0-.144-.006-.213,0-.115-.006-.222-.009-.335-.006-.206-.012-.411-.017-.611,0-.172-.01-.339-.015-.506-.006-.192-.011-.382-.016-.567,0-.167-.01-.329-.015-.491s-.01-.34-.015-.506-.009-.3-.014-.453c-.006-.188-.011-.37-.017-.55,0-.108-.007-.215-.01-.32-.006-.175-.011-.345-.017-.512,0-.131-.008-.26-.013-.386,0-.147-.009-.288-.013-.428,0-.106-.008-.211-.011-.313-.006-.174-.012-.339-.017-.5l-.006-.172c-.006-.164-.011-.319-.016-.471,0-.075-.005-.149-.008-.22,0-.137-.009-.265-.014-.392,0-.048,0-.1-.005-.146-.006-.169-.012-.327-.017-.476v-.015c-.006-.152-.01-.293-.015-.424v-.028c-.005-.126-.009-.241-.013-.346v-.033q-.019-.482-.026-.669c0-.049,0-.086,0-.1l-.7-16.751-29.193,6.294.7,16.751,0,.1c0,.058.006.144.01.246,0,.079.007.17.011.276,0,.049,0,.093.006.147l0,.035c0,.1.008.213.012.333,0,.041,0,.087.005.131,0,.086.006.174.01.268s.006.173.01.262.005.157.009.241.007.182.01.275.007.2.011.3.007.2.011.305.008.222.011.339c0,.093.007.19.01.285.005.145.01.292.015.446,0,.1.007.209.011.316,0,.138.009.279.014.424l.013.389c.005.167.011.336.016.511,0,.106.007.215.01.323.006.177.012.359.018.545,0,.151.009.3.014.458s.01.332.015.5.01.328.015.5c.006.184.011.373.017.563,0,.168.01.336.014.509.006.2.012.4.018.609.006.182.01.364.015.55,0,.16.009.323.014.486.006.235.012.472.019.715,0,.15.008.3.012.456.007.241.013.485.019.733,0,.187.01.377.015.568q.008.354.018.717c0,.188.009.379.014.572q.009.372.019.753c0,.208.01.418.015.631.006.262.012.528.019.8,0,.2.009.4.014.6.006.284.013.573.019.865.005.208.009.417.014.629.006.278.012.562.019.846.005.248.011.5.016.747s.011.532.017.8.01.517.016.78c.006.289.012.583.017.877.006.262.011.523.016.79.006.289.011.583.017.876s.01.562.016.849c.006.3.01.616.016.925.006.279.011.556.016.84.006.34.012.688.017,1.035,0,.263.01.521.014.787.006.387.012.783.019,1.178,0,.236.008.468.012.707.006.4.012.809.019,1.216,0,.252.007.5.011.754q.014.98.028,1.987c.016,1.133.011,2.261-.006,3.387q-.018,1.167-.059,2.328c0,.134-.006.269-.011.4q-.054,1.4-.143,2.78c-.015.247-.036.492-.053.739q-.07,1-.156,2c-.027.312-.057.622-.087.932q-.09.944-.2,1.881c-.031.271-.06.543-.093.814q-.152,1.257-.33,2.5c-.006.042-.011.086-.017.129-.126.863-.265,1.719-.411,2.569-.043.249-.088.5-.133.745q-.171.952-.357,1.891c-.047.238-.094.477-.143.715-.171.828-.349,1.653-.539,2.467-.011.045-.022.089-.033.134q-.272,1.156-.572,2.289c-.06.228-.121.454-.182.681q-.26.963-.539,1.911c-.048.162-.094.327-.143.488q-.347,1.156-.722,2.285c-.058.175-.118.348-.177.521q-.308.91-.634,1.8c-.071.194-.141.389-.213.582q-.41,1.1-.845,2.164c-.037.091-.076.18-.114.271q-.393.949-.807,1.872-.12.27-.242.536c-.315.688-.636,1.369-.968,2.035-.076.152-.157.3-.234.454q-.372.733-.758,1.458c-.113.211-.229.42-.344.63q-.328.6-.666,1.193-.179.313-.361.624-.46.787-.936,1.561c-.084.138-.167.277-.252.414q-.6.956-1.219,1.89c-.082.122-.165.241-.246.363q-.693,1.029-1.414,2.031c-.069.1-.136.193-.205.287q-.774,1.062-1.579,2.087-.218.279-.437.555-.319.4-.643.8c-.179.218-.358.435-.539.651q-.328.392-.662.777-.273.317-.548.631c-.225.255-.452.507-.68.758-.185.2-.37.409-.557.611-.232.25-.466.5-.7.742-.182.191-.364.383-.548.572q-.56.575-1.129,1.132c-.086.085-.172.172-.259.257q-.7.679-1.412,1.332c-.134.124-.271.243-.406.364-.344.312-.69.621-1.039.923-.175.151-.351.3-.526.449q-.476.4-.956.8c-.182.149-.365.3-.548.444q-.5.4-1,.781c-.167.128-.333.258-.5.384q-.647.485-1.3.948c-.07.05-.139.1-.209.152q-.758.535-1.524,1.037c-.151.1-.3.193-.454.291q-.545.352-1.093.69c-.187.114-.376.226-.563.338q-.506.3-1.015.592-.287.163-.577.323c-.354.2-.709.384-1.065.569-.171.089-.343.181-.514.268q-.721.366-1.446.7l-.132.063c-.527.243-1.055.473-1.583.694-.163.068-.326.131-.489.2-.369.149-.738.295-1.108.432-.195.073-.389.142-.584.211q-.518.185-1.036.354c-.2.064-.393.128-.589.189-.365.113-.73.219-1.1.321-.17.047-.339.1-.509.142-.532.141-1.063.272-1.594.387l29.192-6.294c.531-.116,1.063-.247,1.595-.387.17-.045.339-.1.509-.143.366-.1.731-.207,1.1-.32.2-.061.392-.125.588-.189q.517-.17,1.036-.354c.2-.07.39-.139.585-.212.369-.137.738-.283,1.106-.432.164-.066.327-.129.49-.2.529-.221,1.057-.451,1.583-.694l.132-.063q.725-.338,1.447-.7c.172-.087.343-.179.515-.269.356-.185.71-.373,1.065-.568.193-.106.385-.215.577-.324q.508-.288,1.014-.59c.188-.113.376-.225.564-.34.365-.224.729-.455,1.092-.689.152-.1.3-.192.454-.292q.766-.5,1.525-1.037c.07-.049.139-.1.209-.151q.653-.465,1.3-.949c.168-.127.335-.257.5-.386q.5-.383,1-.778c.185-.147.368-.3.552-.447q.48-.392.954-.8c.176-.149.351-.3.527-.45q.524-.454,1.041-.924c.134-.121.269-.239.4-.362q.712-.654,1.413-1.333c.087-.085.172-.172.259-.257q.569-.558,1.129-1.132c.049-.049.1-.1.146-.146.135-.139.267-.284.4-.424.235-.247.47-.494.7-.745.187-.2.371-.406.556-.61q.342-.377.68-.759.276-.314.549-.633.331-.384.659-.774.274-.327.544-.657.321-.392.638-.79c.092-.114.185-.225.275-.34.056-.072.109-.146.164-.218q.8-1.026,1.577-2.085c.07-.1.137-.193.207-.29q.721-1,1.412-2.028c.053-.08.111-.156.164-.236.029-.042.055-.086.083-.129q.621-.933,1.218-1.888c.086-.138.169-.278.254-.417q.475-.773.934-1.559c.06-.1.123-.2.182-.3s.118-.214.179-.32q.338-.592.665-1.192c.115-.211.232-.42.345-.633q.386-.721.756-1.454c.057-.112.117-.221.174-.334l.062-.124c.332-.666.653-1.347.968-2.035q.121-.266.241-.534c.083-.185.169-.368.251-.555.19-.434.373-.876.557-1.318.037-.091.077-.18.115-.271q.363-.887.708-1.793c.047-.123.09-.249.136-.372.072-.192.142-.386.212-.58q.326-.892.634-1.8c.059-.174.12-.346.178-.521.028-.085.059-.168.086-.253.052-.158.1-.324.146-.483q.428-1.333.819-2.7c.049-.17.106-.335.154-.506.068-.246.132-.5.2-.743.062-.226.123-.451.182-.679.2-.757.391-1.519.572-2.289.01-.045.022-.089.032-.134l.007-.028q.282-1.208.533-2.44c.048-.237.1-.476.143-.715.06-.3.124-.605.182-.911.061-.325.116-.654.175-.98.044-.249.09-.5.133-.746.145-.843.283-1.691.408-2.547l0-.022c.007-.043.012-.086.018-.129.12-.828.228-1.662.33-2.5.032-.271.062-.542.093-.814.039-.345.082-.687.118-1.032.029-.282.052-.567.079-.85q.045-.466.087-.932.088-1,.156-2c.017-.247.037-.492.053-.74,0-.074.011-.148.015-.222q.079-1.273.127-2.557c.006-.134.007-.269.012-.4C2338.087,280.754,2338.109,280.07,2338.122,279.382Z" transform="translate(-2193.412 -216.117)"/><path class="a" d="M2312.479,216.654l-.118-.022-.051-.01-.261-.05-.133-.025-.088-.017-.175-.033-.126-.024-.186-.035-.151-.028-.2-.038-.218-.04-.179-.033-.235-.044-.244-.045-.27-.049-.134-.025-.964-.175-.3-.054-.684-.123-.319-.057-.286-.051-.47-.083-.272-.048-.491-.086-.383-.067-.417-.073-.448-.078-.443-.077-.427-.074-.54-.093-.381-.065-.591-.1-.435-.074-.542-.092-.509-.086-.547-.092-.542-.091-.554-.092-.854-.142-.858-.142-.559-.092-.668-.109-.519-.085-.787-.128-.524-.085-.751-.121-.7-.111-.647-.1-.723-.115-.7-.111-.731-.116-.735-.116-.708-.111-.3-.048-.34-.053-1.353-.21-.624-.1-1.956-.3q-.979-.149-1.955-.269-1.072-.132-2.14-.226c-.088-.008-.177-.012-.265-.019-.3-.026-.608-.044-.912-.065-.523-.037-1.045-.072-1.567-.1-.329-.015-.657-.025-.985-.035-.289-.009-.579-.026-.867-.031-.192,0-.382,0-.573,0-.4,0-.8,0-1.195,0q-.672.007-1.34.027-.594.019-1.184.05c-.22.011-.442.014-.661.027-.2.012-.391.036-.587.05q-.755.054-1.505.128c-.385.037-.77.076-1.152.121-.5.058-1,.127-1.5.2-.246.035-.5.06-.743.1-.178.028-.354.062-.531.091l-.54.092c-.73.128-1.456.264-2.175.419l-29.193,6.294c.718-.155,1.445-.292,2.174-.419q.271-.048.542-.093c.421-.07.846-.128,1.271-.188.5-.072,1-.14,1.5-.2.382-.045.766-.083,1.149-.12q.752-.074,1.509-.129c.414-.029.829-.056,1.245-.077q.592-.03,1.186-.05c.445-.014.892-.022,1.339-.027.4,0,.8-.006,1.195,0q.72.007,1.441.03c.328.011.656.02.985.035.521.024,1.042.059,1.565.1.3.022.609.04.915.066.8.068,1.6.147,2.4.245q.977.12,1.955.269l1.985.3.547.085,1.41.218.636.1.708.111.735.115.729.116.706.112.7.111.74.118.58.093.792.128.552.089.69.113.587.1.975.16.218.036,1.174.194.539.09.588.1.573.1.514.086.55.093.475.08.539.092.479.082.442.076.515.088.41.071.52.091.33.057.531.093.326.057.415.073.391.069.346.062.368.065.555.1.106.019.65.117.031.006.557.1.141.026.406.074.193.035.255.047.236.044.26.048.084.016.3.055.121.022.2.037.121.023.192.036.063.012.147.028.256.049.051.01.119.023,13.656,2.657,29.192-6.294Z" transform="translate(-2182.951 -211.166)"/><g transform="translate(0 6.285)"><path class="h" d="M2268.327,280.885c.224,16.294-2.949,31.868-8.927,43.847-8.917,17.85-24.531,31.53-39.785,34.853a44,44,0,0,1-14.762.73c-13.512-1.655-26.123-9.791-36.486-23.794-14.061-19.007-18.808-41.832-13.369-64.278,4.373-18.031,17.274-35.382,32.867-44.2,9.955-5.633,22.293-7.842,34.963-6.291q.977.12,1.955.269c18.069,2.755,27.942,4.667,28.354,4.746l13.656,2.657.7,16.751C2267.516,246.682,2268.021,258.8,2268.327,280.885Zm-35.613,22.061c1.875-3.751,4.993-11.978,4.811-24.911-.087-6.33-.193-11.829-.3-16.441-3.766-.622-8.261-1.344-13.441-2.133-.426-.063-.848-.121-1.26-.171-9.891-1.212-16.54,1.5-19.681,3.278-9.56,5.409-16.417,15.876-18.247,23.42-2.356,9.724-.545,18.2,5.716,26.654,4.547,6.146,9.354,9.463,14.8,10.13a19.166,19.166,0,0,0,6.438-.363c6.377-1.386,15.7-8.521,21.162-19.463" transform="translate(-2152.803 -221.27)"/></g></g></g><g transform="translate(0 90.393)"><g transform="translate(0 0.025)"><path class="d" d="M2198.165,544.119V398.239l.084-.03-.037-.013,0,0-118.314-41.66h0V506.612l118.273,37.51,116.519-36.954Z" transform="translate(-2038.949 -356.54)"/><path class="i" d="M2055.007,356.541l-40.943,48.448,120.5,43.79,38.718-50.622Z" transform="translate(-2014.064 -356.54)"/></g><g transform="translate(159.216)"><path class="j" d="M2270.052,398.224V544.1L2388.325,506.6V356.525l-.075-.026Z" transform="translate(-2270.052 -356.499)"/><path class="d" d="M2388.325,356.541l40.958,48.448-120.5,43.79-38.732-50.622Z" transform="translate(-2270.052 -356.515)"/></g></g></g></g></svg>