<svg xmlns="http://www.w3.org/2000/svg" viewBox="0 0 27 27" width="27" height="27">
	<style>
		tspan { white-space:pre }
		.shp0 { fill: #ffffff } 
	</style>
	<path id="Layer" fill-rule="evenodd" class="shp0" d="M6.61 24.7C4.99 23.86 3.58 22.67 2.49 21.21C1.4 19.75 0.65 18.07 0.3 16.28C-0.05 14.49 0.01 12.65 0.47 10.88C0.78 9.95 1.17 9.04 1.65 8.17C2.13 7.31 2.68 6.49 3.31 5.73C3.94 4.97 4.63 4.27 5.39 3.63C6.15 3 6.96 2.44 7.82 1.96C8.46 1.61 9.11 1.31 9.79 1.06C10.46 0.8 11.15 0.59 11.85 0.42C12.55 0.26 13.26 0.14 13.98 0.07C14.7 0 15.42 -0.02 16.14 0.01C20.22 0.11 22.45 0.24 22.54 0.24L25.63 0.42L25.81 3.51C25.81 3.6 25.94 5.83 26.04 9.91C26.07 10.63 26.05 11.35 25.98 12.07C25.91 12.78 25.79 13.5 25.62 14.2C25.46 14.9 25.25 15.59 24.99 16.26C24.74 16.94 24.43 17.59 24.09 18.23C23.61 19.09 23.05 19.9 22.41 20.66C21.78 21.41 21.08 22.11 20.32 22.74C19.56 23.37 18.74 23.92 17.87 24.4C17.01 24.87 16.1 25.27 15.17 25.58C14.9 25.66 14.62 25.72 14.35 25.78C14.07 25.84 13.8 25.89 13.52 25.93C13.24 25.97 12.96 26 12.68 26.02C12.4 26.04 12.12 26.05 11.84 26.05C10.02 26 8.23 25.54 6.61 24.7ZM15.68 6.95C14.76 6.92 13.85 7.04 12.96 7.3C12.08 7.56 11.24 7.95 10.48 8.47C9.72 8.99 9.05 9.62 8.49 10.35C7.92 11.08 7.48 11.89 7.17 12.75C6.95 13.6 6.96 14.49 7.2 15.33C7.43 16.17 7.88 16.94 8.49 17.56C9.11 18.17 9.88 18.62 10.72 18.85C11.56 19.09 12.45 19.1 13.3 18.88C14.18 18.56 15.02 18.1 15.76 17.52C16.5 16.93 17.14 16.24 17.66 15.45C18.18 14.66 18.57 13.79 18.81 12.88C19.06 11.97 19.15 11.03 19.1 10.08C19.07 8.91 19.04 7.9 19.01 7.05C18.16 7.02 17.14 6.99 15.97 6.96C15.87 6.96 15.78 6.95 15.68 6.95L15.68 6.95Z" />
</svg>