<svg xmlns="http://www.w3.org/2000/svg" xmlns:xlink="http://www.w3.org/1999/xlink" width="264.725" height="259" viewBox="0 0 264.725 259"><defs><style>.a{fill:#f6f6f6;}.b{clip-path:url(#a);}.c{fill:url(#b);}.d{fill:#f5f7ff;}.e{fill:#e6e6e6;}.f{fill:#78c2ff;}.g{fill:#f3f3f3;}.h{fill:#eef0f7;}.i{fill:#e0e0e0;}.j{fill:#b8b8b8;}.k{fill:#d9d9d9;}.l{fill:url(#c);}.m{fill:#eea886;}.n{fill:#db9c7c;}.o{fill:#323657;}.p{fill:#4da8f2;}.q{fill:#efaa88;}.r{fill:#424773;}.s{fill:#292c47;}.t{fill:#d88a51;}.u{fill:#e2d2ca;}.v{fill:#dfe1e8;}.w{fill:#de9673;}.x{fill:#2f4563;}.y{fill:#1e2d40;}.z{fill:#23344a;}.aa{fill:#41608a;}.ab{fill:#eea987;}.ac{fill:#eb4747;}.ad{fill:#464240;}.ae{fill:#a77860;}.af{fill:#6e6760;}.ag{fill:#5c544d;}.ah{fill:#3c4145;}.ai{fill:#33373b;}.aj{fill:#fccca2;}.ak{fill:#d6d6d6;}.al{fill:#c98462;}.am{fill:#de9d7d;}</style><clipPath id="a"><rect class="a" width="264.725" height="192.434" rx="4" transform="translate(264.725 192.434) rotate(180)"/></clipPath><linearGradient id="b" y1="0.5" x2="1" y2="0.5" gradientUnits="objectBoundingBox"><stop offset="0" stop-color="#40d5e6"/><stop offset="1" stop-color="#57f"/></linearGradient><linearGradient id="c" x1="1.11" y1="0.5" x2="0.09" y2="0.5" xlink:href="#b"/></defs><g transform="translate(-5100 -1799.12)"><g class="b" transform="translate(5100 1799.12)"><g transform="translate(0 0)"><rect class="a" width="264.725" height="192.434" transform="translate(264.725 192.434) rotate(180)"/></g><g transform="translate(0.523 0.256)"><rect class="c" width="264.725" height="23.243" transform="translate(264.725 23.243) rotate(180)"/></g><path class="d" d="M4.391,0H33.366a4.391,4.391,0,0,1,4.391,4.391v0a4.391,4.391,0,0,1-4.391,4.391H4.391A4.391,4.391,0,0,1,0,4.391v0A4.391,4.391,0,0,1,4.391,0Z" transform="translate(11.579 7.486)"/><rect class="e" width="138.6" height="4.764" transform="translate(19.917 104.482)"/><rect class="e" width="102.798" height="4.764" transform="translate(19.917 113.062)"/><rect class="e" width="65.182" height="4.764" transform="translate(19.917 131.707)"/><rect class="e" width="117.105" height="4.764" transform="translate(19.917 140.288)"/><rect class="e" width="109.702" height="4.764" transform="translate(19.917 160.79)"/><rect class="e" width="133.958" height="4.764" transform="translate(19.917 169.37)"/><rect class="f" width="3.483" height="13.344" transform="translate(13.154 104.482)"/><rect class="f" width="3.483" height="13.344" transform="translate(13.154 131.707)"/><rect class="f" width="3.483" height="13.345" transform="translate(13.154 160.79)"/><g transform="translate(189.453 161.054)"><path class="f" d="M9.545,0h0A9.545,9.545,0,0,1,19.09,9.545v0A9.544,9.544,0,0,1,9.546,19.09h0A9.545,9.545,0,0,1,0,9.545v0A9.545,9.545,0,0,1,9.545,0Z"/><g transform="translate(3.788 5.34)"><path class="g" d="M1352.328,1243.291l-4.826-4.207a.951.951,0,0,1,1.249-1.433l3.413,2.975,4.866-5.428a.951.951,0,1,1,1.416,1.269Z" transform="translate(-1347.176 -1234.881)"/></g></g><g transform="translate(189.444 131.961)"><path class="f" d="M1346.051,1109.966h-10.408a4.354,4.354,0,0,1-4.35-4.35v-10.407a4.355,4.355,0,0,1,4.35-4.351h10.408a4.355,4.355,0,0,1,4.35,4.351v10.407A4.355,4.355,0,0,1,1346.051,1109.966Zm-10.408-17.9a3.143,3.143,0,0,0-3.138,3.139v10.407a3.142,3.142,0,0,0,3.138,3.139h10.408a3.142,3.142,0,0,0,3.139-3.139v-10.407a3.142,3.142,0,0,0-3.139-3.139Z" transform="translate(-1331.294 -1090.858)"/></g><g transform="translate(218.185 161.044)"><path class="f" d="M1466.271,1231.614h-10.408a4.356,4.356,0,0,1-4.351-4.35v-10.407a4.355,4.355,0,0,1,4.351-4.35h10.408a4.354,4.354,0,0,1,4.349,4.35v10.407A4.354,4.354,0,0,1,1466.271,1231.614Zm-10.408-17.9a3.144,3.144,0,0,0-3.14,3.139v10.407a3.143,3.143,0,0,0,3.14,3.139h10.408a3.142,3.142,0,0,0,3.138-3.139v-10.407a3.142,3.142,0,0,0-3.138-3.139Z" transform="translate(-1451.512 -1212.506)"/></g><g transform="translate(218.195 131.971)"><rect class="f" width="19.09" height="19.09" rx="9.545"/><g transform="translate(3.788 5.34)"><path class="g" d="M1472.55,1121.644l-4.826-4.207a.951.951,0,1,1,1.249-1.433l3.413,2.975,4.867-5.428a.95.95,0,1,1,1.415,1.269Z" transform="translate(-1467.398 -1113.235)"/></g></g><g transform="translate(218.185 102.879)"><path class="f" d="M1466.271,988.321h-10.408a4.356,4.356,0,0,1-4.351-4.35V973.564a4.356,4.356,0,0,1,4.351-4.351h10.408a4.355,4.355,0,0,1,4.349,4.351v10.407A4.354,4.354,0,0,1,1466.271,988.321Zm-10.408-17.9a3.144,3.144,0,0,0-3.14,3.139v10.407a3.143,3.143,0,0,0,3.14,3.139h10.408a3.142,3.142,0,0,0,3.138-3.139V973.564a3.142,3.142,0,0,0-3.138-3.139Z" transform="translate(-1451.512 -969.213)"/></g><g transform="translate(189.453 102.888)"><rect class="f" width="19.09" height="19.09" rx="9.545"/><g transform="translate(3.788 5.34)"><path class="g" d="M1352.328,1000l-4.826-4.207a.951.951,0,1,1,1.249-1.433l3.413,2.975,4.866-5.428a.951.951,0,1,1,1.416,1.269Z" transform="translate(-1347.176 -991.589)"/></g></g><g transform="translate(184.944 33.366)"><path class="h" d="M1368.725,706.583a28.126,28.126,0,1,1-28.125-28.127A28.017,28.017,0,0,1,1368.725,706.583Z" transform="translate(-1312.473 -678.456)"/><path class="f" d="M1379.4,760.936a3.429,3.429,0,0,0-.472-.277.286.286,0,0,0-.026-.018l0,0a59.624,59.624,0,0,0-11.99-4.528h-.006c-1.295-.395-2.273-.652-2.61-.738l-.6-.963a29.794,29.794,0,0,1-.049-3.386,11.994,11.994,0,0,0,2.422-5.832c.163.122.289-.145.289-.145-.09-.16,1.357-3.694,1.1-4.491-.148-.452-.448-.4-.683-.263.035-.207.071-.42.108-.648,0,0,.573-5.418-2.169-8.437a3.029,3.029,0,0,0-1.293-.34c-4.4-1.348-7.047-.746-8.7-.038-2.452,2.009-2.638,5.428-2.526,7.311.049.446.1.895.15,1.331,0,.009,0,.013,0,.013.02.174.041.344.061.513-.229-.142-.529-.214-.7.234-.293.786.777,4.314.911,4.532,0,0,.231.362.412.2a.063.063,0,0,0,0-.008,12.965,12.965,0,0,0,2.376,6.191c-.07,1.258-.252,2.738-.379,3.683l-1.089,1.137h0l-.173.058v-.007c-12.311,3.285-15.791,5.572-15.791,5.572a3.25,3.25,0,0,0-.944,1.459,28.129,28.129,0,0,0,43.792.9A11.571,11.571,0,0,0,1379.4,760.936Z" transform="translate(-1331.154 -717.729)"/></g><g transform="translate(14.975 33.471)"><g transform="translate(0 5.857)"><rect class="i" width="0.504" height="47.529"/></g><g transform="translate(35.813 5.857)"><rect class="i" width="0.504" height="47.529"/></g><g transform="translate(71.627 5.857)"><rect class="i" width="0.504" height="47.529"/></g><g transform="translate(107.44 5.857)"><rect class="i" width="0.504" height="47.529"/></g><g transform="translate(143.253 5.857)"><rect class="i" width="0.504" height="47.529"/></g><rect class="j" width="5.698" height="1.652" transform="translate(0.252 56.202)"/><rect class="k" width="8.578" height="1.239" transform="translate(0.252)"/><rect class="k" width="12.168" height="1.239" transform="translate(0.252 2.29)"/><rect class="k" width="10.071" height="1.239" transform="translate(35.679)"/><rect class="k" width="6.439" height="1.239" transform="translate(35.679 2.29)"/><rect class="k" width="6.241" height="1.239" transform="translate(72.13)"/><rect class="k" width="7.274" height="1.239" transform="translate(72.13 2.29)"/><rect class="k" width="9.09" height="1.239" transform="translate(107.944)"/><rect class="k" width="7.274" height="1.239" transform="translate(107.944 2.29)"/><rect class="k" width="5.43" height="1.239" transform="translate(143.505)"/><rect class="k" width="4.345" height="1.239" transform="translate(143.505 2.29)"/><rect class="j" width="5.698" height="1.652" transform="translate(36.065 56.202)"/><rect class="j" width="5.698" height="1.652" transform="translate(72.13 56.202)"/><rect class="j" width="5.698" height="1.652" transform="translate(107.944 56.202)"/><rect class="j" width="5.698" height="1.652" transform="translate(143.757 56.202)"/><g transform="translate(0.252 18.179)"><path class="l" d="M733.429,776.022c-11.171,0-20.881-4.344-31-8.871-12.5-5.589-25.42-11.369-42.638-9.786-10.995,1.011-17.9,5.038-23.984,8.591-5.513,3.217-10.725,6.046-17.784,6.288-11.408.39-15.366-3.986-15.432-4.253v-2.809h0c.014.049,2.5,4.96,15.42,4.9,6.36-.029,11.054-2.768,16.49-5.94,6.316-3.686,13.476-7.864,25.047-8.928,17.908-1.646,31.148,4.275,43.951,10,13.4,5.992,26.181,11.611,42.346,6.736v2.309A40.256,40.256,0,0,1,733.429,776.022Z" transform="translate(-602.587 -754.937)"/></g><g transform="translate(0.252 11.744)"><path class="c" d="M666.379,755c-8.245,0-14.785-4.987-21.187-9.869-4.855-3.7-9.891-7.487-15.7-9.354-17.742-5.7-26.82,4.706-26.9,4.8v-3.165c.1-.108,1.715-2,6.4-3.8,4.265-1.644,11.421-2.955,21.29.133,6.253,1.956,11.446,5.916,16.468,9.746,10.188,7.768,18.986,14.478,34.266,3.969,11.573-7.96,22.482-15.545,33.216-18.316,10.5-2.71,21.444-.726,31.69,8.489l-.076,2.874c-21.763-19.661-40.294-7.2-63.372,8.668C676.355,753.375,671.089,755,666.379,755Z" transform="translate(-602.587 -728.022)"/></g></g></g><g transform="translate(5125.902 1935.885)"><g transform="translate(90.349 1.136)"><g transform="translate(0.035 55.307)"><path class="m" d="M984.469,1477.737a3.91,3.91,0,0,1,.507,1.34,6.432,6.432,0,0,0,.619,1.583,15.068,15.068,0,0,1,.752,2.638,12.117,12.117,0,0,0-.355,1.766c.06.382.279,1.139-.064,1.189s-.732-.57-.732-.57a.5.5,0,0,1-.258.486.851.851,0,0,1-.863.031s-.208.387-.469.439a1.063,1.063,0,0,1-.859-.116,1.038,1.038,0,0,1-.652.209.854.854,0,0,1-.723-.45s-.645.13-.832-.171a2.883,2.883,0,0,1-.232-.894,10.413,10.413,0,0,1,.818-4.509,4,4,0,0,0-.213-3.5Z" transform="translate(-980.282 -1477.206)"/></g><g transform="translate(0 60.297)"><path class="n" d="M985.1,1512.567s.058-2.209-.524-2.68-.648.327-.648.327.079-.788-.556-.895-.662.83-.662.83a.614.614,0,0,0-.772-.483c-.668.125-.509.9-.509.9s-.637-.761-1.051-.03a3.255,3.255,0,0,0-.025,2.69s.2.334.832.17a.878.878,0,0,0,1.375.241s.973.536,1.328-.323A.806.806,0,0,0,985.1,1512.567Z" transform="translate(-980.06 -1509.311)"/></g><path class="o" d="M992.567,1247.759s-3.782,12.607-5.06,17.257c-.4,1.458-1.371,15.386-1.542,15.947s-4.969,1.329-4.969,1.329.581-17.423.636-18.374,5.294-20.407,6.817-21.1c1.141-.52,1.744-.09,3.183.978C993.651,1245.294,992.567,1247.759,992.567,1247.759Z" transform="translate(-980.85 -1223.75)"/><g transform="translate(48.605 0.682)"><rect class="p" width="10.348" height="0.768" transform="matrix(0.837, -0.548, 0.548, 0.837, 0, 5.667)"/></g><path class="q" d="M1322.563,1132.33a2.254,2.254,0,0,1-.223.686s-.283.338-.47.59a2.166,2.166,0,0,0-.136.2,4.132,4.132,0,0,1-.715,1.112c-.412.418-2.018,1.749-2.018,1.749l-1.376-1.168-1.429-.641a26.89,26.89,0,0,1,1.139-3.911,1.42,1.42,0,0,1,.1-.119,5.267,5.267,0,0,1,.9-.616c.07-.058.8-.588,1.067-.519a.883.883,0,0,1,.66.551,2.114,2.114,0,0,1,.978.629,1.314,1.314,0,0,1,.851.789S1322.535,1131.92,1322.563,1132.33Z" transform="translate(-1263.956 -1128.39)"/><g transform="translate(4.117 109.777)"><path class="r" d="M1011.083,1828s-.345,2.393-.388,2.753-3.836-.212-3.836-.212l-.307-2.849S1010.609,1827.662,1011.083,1828Z" transform="translate(-1006.553 -1827.691)"/></g><g transform="translate(3.525 112.372)"><path class="s" d="M1007.515,1844.552a10.239,10.239,0,0,0,2.364,2.07c1.162.629,2.989.878,3.676,1.528.5.47,1.807,2.492-3.02,2.451s-7.154.286-7.671-.49.748-5.722.748-5.722A10.221,10.221,0,0,0,1007.515,1844.552Z" transform="translate(-1002.739 -1844.39)"/></g><g transform="translate(31.291 109.777)"><path class="r" d="M1185.934,1828s-.345,2.393-.388,2.753-3.836-.212-3.836-.212l-.307-2.849S1185.459,1827.662,1185.934,1828Z" transform="translate(-1181.403 -1827.691)"/></g><g transform="translate(30.698 112.372)"><path class="s" d="M1182.365,1844.552a10.243,10.243,0,0,0,2.364,2.07c1.162.629,5.439,1.145,6.126,1.8.5.469,1.321,2.36-5.47,2.183-4.825-.125-7.154.286-7.671-.49s.748-5.722.748-5.722A9.274,9.274,0,0,0,1182.365,1844.552Z" transform="translate(-1177.589 -1844.39)"/></g><g transform="translate(3.525 48.59)"><path class="s" d="M1011,1433.983s-3.564,5.661-3.3,10.78-1.292,10.705-1.827,16.051c-.6,5.96-3.039,20.07-3.128,23.258s.379,13.369.379,13.369l4.889.112s4.106-24.667,5.169-27.184,6.337-20.461,6.514-22.474S1011,1433.983,1011,1433.983Z" transform="translate(-1002.739 -1433.983)"/></g><g transform="translate(9.995 47.614)"><path class="s" d="M1064.926,1429.448s2.686,14.027,3.04,17.16.591,15.158.768,17.116,1.656,25.559,2.127,28.527h-6.25s-4.8-17.2-4.8-25.339-3.707-17.692-6.1-23.062-7.869-5.5-9.34-15.459C1044.374,1428.391,1062.935,1426.288,1064.926,1429.448Z" transform="translate(-1044.374 -1427.705)"/></g><g transform="translate(14.741 0.551)"><path class="m" d="M1077.907,1125.314s4.783-1.786,6.989,1.855,1.993,10.93-.418,11.826-6.033.428-7.267-1.851a18.241,18.241,0,0,1-2.3-7.773A4.8,4.8,0,0,1,1077.907,1125.314Z" transform="translate(-1074.913 -1124.876)"/></g><g transform="translate(16.104 10.297)"><path class="m" d="M1091.362,1192.127a4.136,4.136,0,0,0,.13,1.928c.329.636-6.2.653-6.2.653a43.026,43.026,0,0,0-1.534-6.384C1082.756,1185.4,1091.362,1192.127,1091.362,1192.127Z" transform="translate(-1083.679 -1187.588)"/></g><g transform="translate(14.343)"><path class="t" d="M1074.194,1132.364s.45.743,2.289.455,4.081-2.734,4.849-3,.775-.719.775-.719l.48.7.815.052s-.744-2.188.378-3.08-1.164-7.082-7.06-5.021c0,0-4.529,1.248-4.364,3.824S1073.181,1131.081,1074.194,1132.364Z" transform="translate(-1072.353 -1121.331)"/></g><g transform="translate(16.974 14.9)"><path class="u" d="M1096.611,1218.993s-.021-1.215-.571-1.332-6.081-.648-6.758-.383v1.416S1090.585,1219.5,1096.611,1218.993Z" transform="translate(-1089.282 -1217.205)"/></g><g transform="translate(22.258 5.89)"><path class="m" d="M1125,1160.17c-.1-.432-1.2-1.667-1.622-.345s.636,3.1,1.225,2.947S1125.257,1161.265,1125,1160.17Z" transform="translate(-1123.276 -1159.231)"/></g><g transform="translate(6.657 5.889)"><path class="o" d="M1049.686,1171.862c-3.792-.5-9.147-1.84-9.147-1.84l-7.329-.3a71.343,71.343,0,0,0-9.376,2.677c-.251.113-.252,6-.942,7.545l2.2,4.633s1.269,9.179,1.532,13.261c.121,1.874-2.617,17.572-2.617,17.572a50.622,50.622,0,0,0,7.935,1.415c5,.551,17.5-.2,17.579-.79s-2.42-22-2.531-23.108c-.17-1.7.587-10.744.587-10.744,1.155-.9,11.3-5.6,14.062-8.056.74-.656,3.865-3.7,4.753-4.75a85.4,85.4,0,0,0,6.038-7.6c.356-.391-3.418-2.443-3.76-2.557-.3-.1-4.552,5.409-6.188,7.182a45.808,45.808,0,0,1-3.763,3S1052.058,1172,1049.686,1171.862Z" transform="translate(-1022.892 -1159.222)"/></g><g transform="translate(13.606 1.419)"><path class="t" d="M1070.373,1130.461s-6.1.477-.187,9.614Z" transform="translate(-1067.606 -1130.461)"/></g><path class="v" d="M1348.939,1125.71l.5-.763-.921.12Z" transform="translate(-1291.255 -1124.385)"/></g><g transform="translate(0 5.18)"><path class="w" d="M561.9,1403a15.167,15.167,0,0,1,3.8.641c.831.462,6.441-1.305,6.545-1.714a.922.922,0,0,0,0-.609H561.231Z" transform="translate(-535.972 -1361.852)"/><g transform="translate(5.797 27.523)"><path class="w" d="M442.817,1324.99s-.946,7.438,0,8.412c3.616,3.724,17.016,3.428,17.016,3.428l-.005,1.514s-20.369,2.54-22.262-1.41c-2.274-4.748-1.392-12.489-1.392-12.489Z" transform="translate(-436.006 -1324.446)"/></g><g transform="translate(3.066 102.781)"><path class="x" d="M421.254,1812.361l1.21-1.379-2.184-2.285-1.845,1.292Z" transform="translate(-418.435 -1808.697)"/></g><g transform="translate(0.131 104.073)"><path class="y" d="M402.482,1817.012s2.493,1.878,3.186,1.953,1.021.385.938,1.441,1.013,5.506,1.777,5.578,3.362.086,3.834,1.8-8.246,1.354-8.786-.052-4.293-8.217-3.848-8.765A5.342,5.342,0,0,1,402.482,1817.012Z" transform="translate(-399.547 -1817.012)"/></g><g transform="translate(4.388 49.36)"><path class="z" d="M441.613,1466.435s16.287,28.372,9.676,34.243c-2.593,2.3-5.088,4.384-8.676,7.465a88.544,88.544,0,0,0-6.939,6.376l-.113.119c-1.947,2.029-3.553,3.744-4.048,4.275-.018.017-.033.034-.047.049l-.055.059-1.813,1.729-2.66-2.338a78.852,78.852,0,0,0,4.715-7.376c2.386-4.5,6.4-9.783,8.25-11.258,3.178-2.526,4.051-3.022,4.051-5.437,0-2.591-14.928-17.063-14.928-17.063s-2.166-9.058,3.008-11.428A10.681,10.681,0,0,1,441.613,1466.435Z" transform="translate(-426.938 -1464.955)"/></g><path class="aa" d="M421.842,1846.232a8.067,8.067,0,0,1,.118-2.142c.221-.835-3.372-.356-3.372-.356a31.154,31.154,0,0,0-.329,4.289C418.393,1848.822,421.842,1846.232,421.842,1846.232Z" transform="translate(-415.199 -1735.392)"/><g transform="translate(2.175 49.781)"><path class="x" d="M417.838,1526.587l-4.845.873s-.349-6.182-.286-10.918c.068-5.09-.189-9.093,1.366-13.144,1.454-3.79,1.123-5.234,1.25-7.821s-1.242-15.911-1.242-15.911-1.655-5.965,2.176-10.173c3.732-4.1,13.388-.017,13.388-.017s-2.011,18.2-6.841,29.46c-1.367,3.186-.628,5.122-2.371,10.045C420.434,1508.981,417.787,1519.718,417.838,1526.587Z" transform="translate(-412.7 -1467.665)"/></g><g transform="translate(5.074 11.951)"><path class="ab" d="M437.809,1227.9a5.6,5.6,0,0,0-.574,1.557,13.331,13.331,0,0,0-.266,1.662,19.43,19.43,0,0,0-.1,2.116s-6.462-1.407-5.4-2.914.436-6.075.436-6.075S438.646,1226.491,437.809,1227.9Z" transform="translate(-431.352 -1224.248)"/></g><g transform="translate(3.839 2.011)"><path class="m" d="M434.734,1161.431s1.654,1.437.915,5.576c0,0,.366,3.3.87,3.872s-1.355.787-1.551,1.2a8.223,8.223,0,0,1-1.862,3.52c-1.3,1.168-7.715-2.353-8.028-4.342s-4.76-10.515,2.279-10.905S434.734,1161.431,434.734,1161.431Z" transform="translate(-423.406 -1160.286)"/></g><g transform="translate(3.379 18.302)"><path class="ac" d="M436.664,1280.506c-.131.415.362,6.784.318,7.333a42.067,42.067,0,0,0,.838,9.228c.073.388.113.586.113.586-6.978,3.413-16.683,3.114-16.683,3.114.035-.264,1.39-3.543,1.424-3.794.575-4.1,1.423-5.967,1.192-8.738h0a17.321,17.321,0,0,0-1.345-5.2,23.791,23.791,0,0,1-1.854-12.9,15.755,15.755,0,0,1,1.345-5.023l5.9.633c1.251,1.386,2.365,2.125,5.921,5.282C437.612,1274.39,438.274,1275.409,436.664,1280.506Z" transform="translate(-420.449 -1265.115)"/></g><g transform="translate(2.469 110.47)"><path class="z" d="M414.964,1859.425s3.41-.969,3.511-1.065.124-.3.594-.114.665.9,1.127,1.126,3.275,1.048,4.817,1.807c.557.274,2.915,1.173,3.255,1.924s.234,1.879-3.816,1.611-8.481.3-9.368-.139S414.731,1860.6,414.964,1859.425Z" transform="translate(-414.59 -1858.171)"/></g><g transform="translate(3.695)"><path class="ad" d="M435.041,1154.592s.792-8.594-7.541-7.06-4.038,10.927-2.915,13.989c0,0-.136-4.755,3.876-4.91S433.3,1155.528,435.041,1154.592Z" transform="translate(-422.479 -1147.349)"/></g><g transform="translate(6.984 7.611)"><path class="ab" d="M445.685,1196.767a1.148,1.148,0,0,0-2.025.922c.2,1.329,1.575,2.656,2.032,2.013A2.577,2.577,0,0,0,445.685,1196.767Z" transform="translate(-443.644 -1196.322)"/></g><g transform="translate(3.379 24.217)"><path class="ab" d="M426.284,1303.9s-.687,7.362.26,8.337c3.616,3.724,17.882,3.8,17.882,3.8l.681,2.14s-21.206,1.444-23.1-2.507c-2.274-4.748-1.392-12.489-1.392-12.489Z" transform="translate(-420.448 -1303.174)"/></g><path class="ad" d="M404.779,1155.32s-3.209-3.079-5.49.409,2.71,8.351,4.734,5.464A6.433,6.433,0,0,0,404.779,1155.32Z" transform="translate(-398.704 -1153.022)"/><path class="ae" d="M447.368,1245.242a13.327,13.327,0,0,0-.266,1.662c-2.147-.979-3.752-3.968-3.752-3.968a16.531,16.531,0,0,0,4.017,2.305Z" transform="translate(-436.411 -1228.081)"/><rect class="af" width="20.225" height="1.129" transform="translate(21.406 39.213)"/><rect class="af" width="20.225" height="1.129" transform="translate(40.623 39.833) rotate(-63.226)"/><path class="ab" d="M551.929,1380.925s2.967-.228,3.8-.817,6.441,1.662,6.545,2.182a1.473,1.473,0,0,1,0,.776H551.26Z" transform="translate(-527.551 -1343.853)"/><path class="ac" d="M430.509,1258.987l.415-1.128,5.662,1.128v1Z" transform="translate(-425.566 -1240.685)"/><g transform="translate(3.546 20.372)"><path class="ab" d="M427.181,1283.1s.608-4.268-2.363-4.642-3.3,3.838-3.3,3.838Z" transform="translate(-421.521 -1278.431)"/></g></g><g transform="translate(183.481)"><g transform="translate(45.173 110.354)"><path class="ag" d="M1703.315,1824.411s.345,2.416.388,2.779,3.835-.214,3.835-.214l.307-2.876S1703.789,1824.07,1703.315,1824.411Z" transform="translate(-1703.315 -1824.099)"/></g><g transform="translate(38.94 112.974)"><path class="ah" d="M1669.789,1841.119a10.274,10.274,0,0,1-2.363,2.09c-1.162.635-2.988.886-3.675,1.543-.5.474-1.807,2.515,3.02,2.474s7.153.288,7.67-.494-.748-5.776-.748-5.776A10.125,10.125,0,0,1,1669.789,1841.119Z" transform="translate(-1663.209 -1840.955)"/></g><g transform="translate(18.004 110.354)"><path class="ag" d="M1528.493,1824.411s.345,2.416.388,2.779,3.835-.214,3.835-.214l.307-2.876S1528.967,1824.07,1528.493,1824.411Z" transform="translate(-1528.493 -1824.099)"/></g><g transform="translate(9.542 112.974)"><path class="ah" d="M1482.853,1841.119a10.276,10.276,0,0,1-2.364,2.09c-1.162.635-5.438,1.156-6.125,1.812-.5.474-1.321,2.383,5.469,2.2,4.824-.127,7.153.288,7.67-.494s-.748-5.776-.748-5.776A9.189,9.189,0,0,1,1482.853,1841.119Z" transform="translate(-1474.044 -1840.955)"/></g><g transform="translate(33.334 48.299)"><path class="ai" d="M1637.625,1424.8a35.723,35.723,0,0,1,1.752,11.161c-.266,5.166,1.044,10.819,1.579,16.216.6,6.016,3.038,20.259,3.127,23.477s-.379,13.495-.379,13.495l-4.888.113s-4.105-24.9-5.169-27.441-6.336-20.653-6.513-22.686S1637.625,1424.8,1637.625,1424.8Z" transform="translate(-1627.132 -1424.799)"/></g><g transform="translate(17.343 47.607)"><path class="ah" d="M1530.177,1422.1s-2.685,14.159-3.04,17.321-.591,15.3-.768,17.277-1.182,25.86-2.127,28.8h6.249s4.8-17.362,4.8-25.577,3.706-17.859,6.1-23.279,7.868-5.549,9.339-15.6C1550.726,1421.038,1532.168,1418.915,1530.177,1422.1Z" transform="translate(-1524.243 -1420.346)"/></g><g transform="translate(27.204 0.524)"><path class="m" d="M1596.465,1117.844s-4.926-1.84-7.2,1.91-2.053,11.257.431,12.18,6.213.44,7.484-1.906a18.79,18.79,0,0,0,2.364-8.005A4.939,4.939,0,0,0,1596.465,1117.844Z" transform="translate(-1587.692 -1117.393)"/></g><g transform="translate(29.895 10.296)"><path class="m" d="M1605.152,1184.806a4.137,4.137,0,0,1-.13,1.927c-.329.636,6.2.652,6.2.652a43,43,0,0,1,1.534-6.383C1613.755,1178.08,1605.152,1184.806,1605.152,1184.806Z" transform="translate(-1605.01 -1180.267)"/></g><g transform="translate(27.776)"><path class="aj" d="M1601.231,1125.052s-.45.743-2.289.455-4.081-2.734-4.848-3-.775-.719-.775-.719l-.481.7-.815.052s.744-2.188-.378-3.08,1.164-7.081,7.059-5.021c0,0,4.528,1.248,4.363,3.823S1602.245,1123.77,1601.231,1125.052Z" transform="translate(-1591.37 -1114.02)"/></g><g transform="translate(29.52 14.898)"><path class="u" d="M1602.595,1211.667s.021-1.215.571-1.332,6.081-.648,6.756-.382v1.416S1608.62,1212.17,1602.595,1211.667Z" transform="translate(-1602.595 -1209.879)"/></g><g transform="translate(29.703 5.889)"><path class="m" d="M1603.913,1152.854c.1-.432,1.2-1.666,1.622-.344s-.635,3.1-1.224,2.947S1603.652,1153.949,1603.913,1152.854Z" transform="translate(-1603.768 -1151.915)"/></g><g transform="translate(9.01 16.387)"><path class="ac" d="M1491.134,1219.76s-3.031,1.09-6.542,2.582a7.37,7.37,0,0,0-4.476,5.968c-.232,2.368-2.753,14.933-3.226,16s-6.062,18.143-6.26,18.5,4.562,2.33,4.877,2.173,5.413-15.578,5.925-16.721c0,0,2.934-9.246,3.013-10.625,0,0,.084,3.929.242,5.031s-2.609,22.513-2.531,23.1,12.575,1.341,17.576.79a61.243,61.243,0,0,0,9.037-1.7s-3.935-16.9-3.814-18.771c.263-4.081,1.627-11.769,1.627-11.769l4.078,7.688-5.22,13.429,1.2,4.081s9.7-14.658,10.015-16-.476-3.045-.987-4.147-3.875-9.5-4.662-10.676-2.118-5.913-5.335-7.229a50.251,50.251,0,0,0-7.2-2Z" transform="translate(-1470.624 -1219.461)"/></g><g transform="translate(0 45.67)"><rect class="ak" width="23.59" height="16.457" transform="matrix(0.969, 0.248, -0.248, 0.969, 4.088, 0)"/></g><g transform="translate(6.093 63.216)"><path class="al" d="M1452.783,1520.783s-.653,1.056-.891,1.356.586.49.94.185S1452.783,1520.783,1452.783,1520.783Z" transform="translate(-1451.849 -1520.783)"/></g><g transform="translate(6.975 59.375)"><path class="am" d="M1462.335,1503.515a2.538,2.538,0,0,0,.469-.66s.115-.481.217-.819a2.393,2.393,0,0,1,.09-.257,4.639,4.639,0,0,0,.523-1.388c.1-.651.385-3.575.385-3.575l-1.77-.446-1.422-.3s-3.072,3.064-3.236,3.66a1.525,1.525,0,0,0-.037.172,5.912,5.912,0,0,0,.044,1.219c-.005.1.009,1.118.246,1.309a.992.992,0,0,0,.938.226,2.374,2.374,0,0,0,1.222.46,1.475,1.475,0,0,0,1.28.238S1461.946,1503.763,1462.335,1503.515Z" transform="translate(-1457.524 -1496.07)"/></g><g transform="translate(9.016 46.474)"><path class="ac" d="M1480.341,1414.917s-4.056,12.282-4.8,13.571a13.375,13.375,0,0,1-4.877-2.172l4.453-13.255Z" transform="translate(-1470.663 -1413.061)"/></g></g></g></g></svg>