<svg xmlns="http://www.w3.org/2000/svg" xmlns:xlink="http://www.w3.org/1999/xlink" width="163" height="163" viewBox="0 0 163 163"><defs><style>.a{fill:#eee;opacity:0.5;}.b{fill:#71abec;}.c{fill:url(#a);}.d{fill:url(#b);}.e{fill:url(#c);}.f{fill:url(#f);}.g{fill:url(#g);}.h{fill:url(#h);}.i{fill:url(#i);}.j{fill:url(#j);}.k{fill:#fff;}.l,.q,.t{fill:#f6f6f6;}.m{fill:#d9d9d9;}.n{fill:#6f79d6;}.o{fill:#4d56ab;}.p{fill:#7baef3;}.q{opacity:0.75;}.r{fill:#ca65a4;}.s{fill:#9e5182;}.t{opacity:0.74;}.u{fill:#99a552;}.v{fill:#c8d969;}.w{fill:#dba585;}.x{fill:#c99a7d;}.y{fill:#363957;}.z{fill:#454971;}.aa{fill:#2e3048;}.ab{fill:#dcd0c8;}.ac{fill:#dca787;}.ad{fill:#90c0fc;}.ae{fill:#4d7fc7;}.af{fill:#4d59be;}.ag{fill:#e4e4e4;}.ah{fill:#2c323d;}.ai{fill:#e9c463;}.aj{fill:#dfd1cb;}.ak{fill:#434881;}.al{fill:#c44858;}.am{fill:#263643;}.an{fill:#997761;}.ao{fill:#504e59;}.ap{fill:#a09292;}.aq{fill:#dba686;}.ar{fill:#2c3d54;}.as{fill:#353d67;}.at{fill:#e6d8d1;}.au{fill:#cfc3bc;}.av{fill:#f3e4dc;}.aw{fill:url(#k);}.ax{fill:url(#l);}.ay{fill:#f0c782;}.az{fill:#2d374b;}.ba{fill:#cb4949;}.bb{fill:#943737;}.bc{fill:#e39f4e;}.bd{fill:#9e6e33;}.be{fill:none;}</style><linearGradient id="a" y1="0.5" x2="1" y2="0.5" gradientUnits="objectBoundingBox"><stop offset="0" stop-color="#293371"/><stop offset="1" stop-color="#79b8db"/></linearGradient><linearGradient id="b" y1="0.5" x2="1" y2="0.5" gradientUnits="objectBoundingBox"><stop offset="0" stop-color="#465f92"/><stop offset="0.995" stop-color="#94ffe9"/></linearGradient><linearGradient id="c" x1="-0.272" y1="1.088" x2="1.226" y2="-0.161" xlink:href="#b"/><linearGradient id="f" x1="0.494" y1="0.579" x2="0.444" y2="-0.361" gradientUnits="objectBoundingBox"><stop offset="0" stop-color="#3e4a91"/><stop offset="1" stop-color="#586cd9"/></linearGradient><linearGradient id="g" x1="0.5" y1="0.8" x2="0.5" y2="0.077" gradientUnits="objectBoundingBox"><stop offset="0" stop-color="#76a2fb"/><stop offset="1" stop-color="#5782fa"/></linearGradient><linearGradient id="h" x1="0.5" y1="1.172" x2="0.5" y2="-1.125" xlink:href="#g"/><linearGradient id="i" x1="0.5" y1="1.595" x2="0.5" y2="0.34" xlink:href="#a"/><linearGradient id="j" y1="0.5" x2="1" y2="0.5" gradientUnits="objectBoundingBox"><stop offset="0" stop-color="#7baef3"/><stop offset="1" stop-color="#7acdc0"/></linearGradient><linearGradient id="k" y1="0.5" x2="1" y2="0.5" gradientUnits="objectBoundingBox"><stop offset="0" stop-color="#9bc7fc"/><stop offset="1" stop-color="#87d7c4"/></linearGradient><linearGradient id="l" y1="0.5" x2="1" y2="0.5" gradientUnits="objectBoundingBox"><stop offset="0" stop-color="#f1cc82"/><stop offset="1" stop-color="#db6479"/></linearGradient></defs><g transform="translate(-741 -1649)"><g transform="translate(-3183 689)"><path class="a" d="M1279.3,350.695c14.052-13.414,17.409-40.8,4.393-59.843-10.849-15.871-30.83-32.2-56.01-36.956s-47.24-4.754-56.78,1.533c-7.807,5.145-4.178,12.311-1.73,18.4,3.268,8.129,3.75,14.582-9.7,26.391-15.349,13.48-19.5,18.54-20.273,31.574-.626,10.6,8.225,24.86,19.839,26.9,16.168,2.845,22.169-4.669,37.987-9.734,12.689-4.063,21.49-2.163,32.994,5.624S1258.683,370.38,1279.3,350.695Z" transform="translate(2785.821 734.5)"/><g transform="translate(3929.779 982)"><g transform="translate(0 0)"><g transform="translate(45.641 22.441)"><path class="b" d="M1700.536,491.312l-.017-.275c.044,0,4.418-.326,5.929-4.327a18.6,18.6,0,0,0,.762-2.984c.695-3.5,1.413-7.125,8.233-9.593a21.76,21.76,0,0,1,10.167-1.085c3.982.333,6.614.553,9.971-6.106l.246.124c-3.44,6.825-6.145,6.6-10.24,6.257a21.522,21.522,0,0,0-10.05,1.069c-6.673,2.415-7.376,5.959-8.057,9.387a18.778,18.778,0,0,1-.774,3.028C1705.131,490.978,1700.582,491.309,1700.536,491.312Z" transform="translate(-1700.519 -466.943)"/></g><g transform="translate(105.133 83.483)"><path class="c" d="M2432.816,1151.382a25.717,25.717,0,0,1-5.2-2.585,3.224,3.224,0,0,1-1.124-1.229.845.845,0,0,1,.262-1.006s.224-.091.791.144c.84.349,2.434,1.415,5.169,4.561Z" transform="translate(-2420.715 -1146.545)"/><path class="d" d="M2401.11,1151.557l-.191.934s-6.686,1.669-8.81-.51c-.032-.032-.062-.065-.09-.1a1.738,1.738,0,0,1-.369-.658c-.6-2.068,3.4-4.489,3.4-4.489-.092.116-.067.277.045.471a3.114,3.114,0,0,0,.548.638A39.521,39.521,0,0,0,2401.11,1151.557Z" transform="translate(-2389.01 -1146.721)"/><path class="e" d="M2396.264,1152.624a3.906,3.906,0,0,0-1.791,1.458c-.416.89-.648,1.647-1.223,1.919a1.505,1.505,0,0,0-.609.66,1.742,1.742,0,0,1-.369-.658,2.089,2.089,0,0,1,.476-1.1,16.7,16.7,0,0,0,1.827-2.11c.08-.277.794-.645,1.141-.809a3.137,3.137,0,0,0,.548.638Z" transform="translate(-2389.63 -1151.497)"/><path class="c" d="M2520.262,1151.382a25.717,25.717,0,0,0,5.2-2.585,3.227,3.227,0,0,0,1.123-1.229.847.847,0,0,0-.262-1.006s-.225-.091-.791.144c-.84.349-2.434,1.415-5.169,4.561Z" transform="translate(-2506.125 -1146.545)"/><path class="d" d="M2520.262,1151.557l.191.934s6.686,1.669,8.81-.51c.031-.032.061-.065.089-.1a1.731,1.731,0,0,0,.369-.658c.6-2.068-3.4-4.489-3.4-4.489.091.116.067.277-.046.471a3.106,3.106,0,0,1-.548.638A39.465,39.465,0,0,1,2520.262,1151.557Z" transform="translate(-2506.125 -1146.721)"/><path class="f" d="M2493.732,1196s.312-.354.531-.215.531-.265.865-.1.37-.286.774-.039a1.175,1.175,0,0,1,.346,1.459c-.3.4-.462-.081-.612,0s-.427.441-.889.163-1.143.253-1.1-.094A3.453,3.453,0,0,1,2493.732,1196Z" transform="translate(-2481.885 -1191.165)"/><rect class="g" width="24.501" height="19.245" transform="translate(0.869 5.738)"/><rect class="h" width="26.239" height="6.678" transform="translate(0 5.738)"/><rect class="i" width="5.271" height="19.245" transform="translate(10.484 5.738)"/></g><path class="j" d="M28.841,0h0A28.841,28.841,0,0,1,57.682,28.841V55.17A28.841,28.841,0,0,1,28.841,84.01h0A28.837,28.837,0,0,1,0,55.173V28.841A28.841,28.841,0,0,1,28.841,0Z" transform="translate(53.239 24.584)"/><g transform="translate(21.891 45.796)"><path class="b" d="M1458.949,727.112l-5.74-.148a1.448,1.448,0,0,0-.91.292l-15.626,11.8a1.447,1.447,0,0,0-.283,2.027l4.312,5.71a1.447,1.447,0,0,0,2.027.283l15.626-11.8a1.446,1.446,0,0,0,.53-.8l1.429-5.562A1.447,1.447,0,0,0,1458.949,727.112Zm.384,2.1a.774.774,0,1,1,.151-1.085A.774.774,0,0,1,1459.333,729.211Z" transform="translate(-1436.098 -726.964)"/><g transform="translate(5.799 6.443)"><path class="k" d="M1503.291,849.972a2.546,2.546,0,0,1-.753.394,2.04,2.04,0,0,1-.791.1l-.018-.852a.551.551,0,0,0,.191.026,1.777,1.777,0,0,0,.315-.026,1.9,1.9,0,0,0,.377-.107,1.585,1.585,0,0,0,.38-.214.821.821,0,0,0,.332-.422.439.439,0,0,0-.082-.393.292.292,0,0,0-.169-.112.618.618,0,0,0-.234-.006,1.776,1.776,0,0,0-.292.071q-.16.052-.349.121a1.789,1.789,0,0,1-.729.132.7.7,0,0,1-.514-.306,1.378,1.378,0,0,1-.271-.6,1.5,1.5,0,0,1,.02-.615,1.677,1.677,0,0,1,.264-.574,2.151,2.151,0,0,1,.464-.478,1.868,1.868,0,0,1,.668-.333,2.118,2.118,0,0,1,.627-.07l0,.816a.476.476,0,0,0-.154-.022,1.289,1.289,0,0,0-.256.022,1.647,1.647,0,0,0-.3.086,1.225,1.225,0,0,0-.3.166.782.782,0,0,0-.326.435.5.5,0,0,0,.1.424.3.3,0,0,0,.142.107.422.422,0,0,0,.2.012,1.363,1.363,0,0,0,.251-.062q.139-.047.319-.117a3.278,3.278,0,0,1,.423-.138,1.284,1.284,0,0,1,.374-.039.779.779,0,0,1,.327.091.881.881,0,0,1,.282.253,1.379,1.379,0,0,1,.282.624,1.341,1.341,0,0,1-.04.6,1.631,1.631,0,0,1-.291.544A2.6,2.6,0,0,1,1503.291,849.972Z" transform="translate(-1500.664 -841.488)"/><path class="k" d="M1537.9,832.738a1.045,1.045,0,0,1-.421.2.987.987,0,0,1-.43-.006,1.161,1.161,0,0,1-.408-.189,1.6,1.6,0,0,1-.353-.347,1.935,1.935,0,0,1-.327-.659,2.059,2.059,0,0,1-.074-.7,1.809,1.809,0,0,1,.172-.653,1.361,1.361,0,0,1,.411-.506.878.878,0,0,1,.524-.192.812.812,0,0,1,.5.156l-.222-.487.621-.469.926,1.977a.4.4,0,0,0,.049.094c.049.065.112.071.188.018l.287.612c-.048.052-.091.1-.128.134a1.04,1.04,0,0,1-.1.091.537.537,0,0,1-.309.125.3.3,0,0,1-.252-.137,1.11,1.11,0,0,1-.105-.2,1.47,1.47,0,0,1-.151.663A1.342,1.342,0,0,1,1537.9,832.738Zm-.121-.738a.669.669,0,0,0,.146-.158.918.918,0,0,0,.109-.217,1.322,1.322,0,0,0,.059-.248,1,1,0,0,0,0-.257l-.317-.67a.718.718,0,0,0-.418-.216.533.533,0,0,0-.411.1.741.741,0,0,0-.229.293,1.029,1.029,0,0,0-.089.387,1.309,1.309,0,0,0,.05.413,1.107,1.107,0,0,0,.184.373.783.783,0,0,0,.434.3A.541.541,0,0,0,1537.776,832Z" transform="translate(-1532.715 -826.168)"/><path class="k" d="M1561.528,810.19a.67.67,0,0,1-.443.164.492.492,0,0,1-.361-.218.9.9,0,0,1-.058-.087c-.018-.03-.037-.064-.056-.1l-1.527-3.275.616-.465,1.414,3.018a.585.585,0,0,0,.028.052.552.552,0,0,0,.032.048.21.21,0,0,0,.333.046.583.583,0,0,0,.1-.108,1,1,0,0,0,.092-.143l.338.487a1.7,1.7,0,0,1-.234.321A2.059,2.059,0,0,1,1561.528,810.19Z" transform="translate(-1553.834 -805.531)"/><path class="k" d="M1586.089,801.915a1.331,1.331,0,0,1-.472.237,1.119,1.119,0,0,1-.915-.152,1.509,1.509,0,0,1-.377-.359,1.775,1.775,0,0,1-.314-.661,1.9,1.9,0,0,1-.034-.719,1.956,1.956,0,0,1,.241-.691,1.9,1.9,0,0,1,.513-.577,1.29,1.29,0,0,1,.759-.3.736.736,0,0,1,.613.326q.591.782-.807,1.839l-.171.129c-.059.044-.123.088-.192.131l.045.06a.829.829,0,0,0,.412.314.509.509,0,0,0,.467-.113.914.914,0,0,0,.283-.352.851.851,0,0,0,.077-.443l.606-.218a1.623,1.623,0,0,1-.033.428,1.86,1.86,0,0,1-.142.424,2.044,2.044,0,0,1-.238.383A1.765,1.765,0,0,1,1586.089,801.915Zm-1.11-2.4a.805.805,0,0,0-.213.237.873.873,0,0,0-.106.288,1.183,1.183,0,0,0-.013.315,1.391,1.391,0,0,0,.067.32c.052-.034.1-.069.147-.1l.144-.108a3.244,3.244,0,0,0,.36-.308,1.091,1.091,0,0,0,.2-.258.424.424,0,0,0,.055-.212.322.322,0,0,0-.069-.177.282.282,0,0,0-.254-.125A.591.591,0,0,0,1584.978,799.511Z" transform="translate(-1576.476 -798.692)"/></g></g><rect class="k" width="54.534" height="73.908" transform="translate(54.813 29.045)"/><g transform="translate(60.542 37.637)"><path class="l" d="M20.443,0h2.669A20.442,20.442,0,0,1,43.554,20.442v0A20.443,20.443,0,0,1,23.111,40.886H20.443A20.443,20.443,0,0,1,0,20.443v0A20.443,20.443,0,0,1,20.443,0Z"/><g transform="translate(5.164 30.671)"><rect class="m" width="16.88" height="1.681"/></g><g transform="translate(29.149 8.333)"><rect class="m" width="5.918" height="1.681"/></g><g transform="translate(29.149 12.016)"><rect class="m" width="8.44" height="1.681"/></g><g transform="translate(29.149 15.699)"><rect class="m" width="6.919" height="1.681"/></g><g transform="translate(29.149 19.072)"><rect class="m" width="8.2" height="1.681"/></g><g transform="translate(5.164 34.234)"><rect class="m" width="26.328" height="1.681"/></g><g transform="translate(5.164 5.001)"><path class="n" d="M1926.989,692.757a11.772,11.772,0,0,1,3.584-.853c.195-.019.385-.036.572-.053.279-.022.549-.039.8-.05a1.913,1.913,0,0,0,3.8,0c.251.011.521.028.8.05.184.017.376.034.568.053,1.894.2,4.046.683,4.883,1.829,1.629,2.231,1.952,7.948,1.721,18.916h-.349v.561H1941.1v-.561h-.45v-2.789h-.872v1.147h-11.866v-1.147h-.874v2.789h-.4v.561h-2.268v-.561h-.4c-.231-10.968.095-16.685,1.721-18.916a3.192,3.192,0,0,1,1.2-.929Z" transform="translate(-1923.902 -691.801)"/><g transform="translate(7.242)"><path class="o" d="M2009.927,691.851a2.7,2.7,0,0,1-5.4,0c.279-.022.55-.039.8-.05a1.913,1.913,0,0,0,3.8,0C2009.378,691.812,2009.648,691.829,2009.927,691.851Z" transform="translate(-2004.528 -691.801)"/></g></g><g transform="translate(34.107 29.81)"><path class="p" d="M2253.1,971.488a3.483,3.483,0,1,1-3.483-3.483A3.483,3.483,0,0,1,2253.1,971.488Z" transform="translate(-2246.134 -968.006)"/></g><g transform="translate(35.709 32.012)"><path class="k" d="M2265.509,995.425l-1.541-1.541.679-.68.862.861,1.542-1.542.68.679Z" transform="translate(-2263.968 -992.524)"/></g></g><g transform="translate(34.774 64.938)"><path class="q" d="M1600.441,940.08H1581.03a1.5,1.5,0,0,0-1.5,1.5v17.671a1.5,1.5,0,0,0,1.5,1.5h19.411a1.5,1.5,0,0,0,1.5-1.5V941.576A1.5,1.5,0,0,0,1600.441,940.08Z" transform="translate(-1579.533 -940.08)"/><g transform="translate(2.656 15.41)"><rect class="m" width="8.683" height="0.865"/></g><g transform="translate(2.656 17.242)"><rect class="m" width="13.543" height="0.865"/></g><g transform="translate(17.544 14.967)"><path class="p" d="M1778.444,1108.5a1.792,1.792,0,1,1-1.792-1.791A1.791,1.791,0,0,1,1778.444,1108.5Z" transform="translate(-1774.861 -1106.711)"/></g><g transform="translate(18.391 16.122)"><path class="k" d="M1785.057,1121l-.77-.77.3-.3.466.466.816-.816.3.3Z" transform="translate(-1784.287 -1119.575)"/></g><g transform="translate(5.526 2.301)"><path class="r" d="M1652.406,970.345h-1.854v6.178h-7.645v-6.178h-1.854c0-3.9,1.328-3.751,1.854-4.055a8.511,8.511,0,0,1,1.971-.517c.13-.024.258-.048.384-.069a1.485,1.485,0,0,0,2.935,0c.127.021.255.045.385.069a8.509,8.509,0,0,1,1.971.517C1651.077,966.593,1652.406,966.449,1652.406,970.345Z" transform="translate(-1641.053 -965.703)"/><g transform="translate(3.825)"><path class="s" d="M1687.337,965.772a1.853,1.853,0,0,1-3.7,0c.13-.024.258-.048.384-.069a1.485,1.485,0,0,0,2.935,0C1687.08,965.724,1687.208,965.748,1687.337,965.772Z" transform="translate(-1683.634 -965.703)"/></g></g></g><g transform="translate(107.751 38.45)"><path class="t" d="M9.142,0h1.193a9.142,9.142,0,0,1,9.142,9.142v0a9.141,9.141,0,0,1-9.141,9.141H9.141A9.141,9.141,0,0,1,0,9.142v0A9.142,9.142,0,0,1,9.142,0Z"/><rect class="m" width="3.667" height="0.752" transform="translate(11.758 3.726)"/><rect class="m" width="2.688" height="0.752" transform="translate(11.758 5.373)"/><rect class="m" width="4.502" height="0.752" transform="translate(11.758 7.02)"/><rect class="m" width="4.502" height="0.752" transform="translate(11.758 10.037)"/><rect class="m" width="3.261" height="0.752" transform="translate(11.758 8.528)"/><circle class="p" cx="1.557" cy="1.557" r="1.557" transform="translate(12.846 12.518) rotate(-1.59)"/><g transform="translate(13.605 13.459)"><path class="k" d="M2544.17,796.323l-.688-.689.3-.3.385.385.69-.69.3.3Z" transform="translate(-2543.481 -795.026)"/></g><g transform="translate(2.75 2.465)"><rect class="u" width="1.103" height="0.753" transform="translate(4.966 12.601)"/><rect class="u" width="1.103" height="0.753" transform="translate(0.199 12.601)"/><rect class="u" width="4.721" height="0.635" transform="translate(0.772)"/><path class="v" d="M2428.237,676.156h-4.95s-.707,10.188-.655,12.807h1.493s.76-8.73,1.637-8.73,1.637,8.73,1.637,8.73h1.493C2428.944,686.344,2428.237,676.156,2428.237,676.156Z" transform="translate(-2422.63 -675.838)"/></g></g><g transform="translate(96.901 59.521)"><g transform="translate(26.376 27.826)"><path class="w" d="M2565.817,1189.835a1.967,1.967,0,0,0-.254.673,3.245,3.245,0,0,1-.311.8,7.556,7.556,0,0,0-.377,1.325,6.216,6.216,0,0,1,.178.887c-.031.192-.14.572.032.6s.367-.286.367-.286a.253.253,0,0,0,.13.244.427.427,0,0,0,.434.016s.1.195.236.221a.535.535,0,0,0,.431-.058.525.525,0,0,0,.327.105.432.432,0,0,0,.364-.226s.324.065.418-.086a1.443,1.443,0,0,0,.116-.449,5.225,5.225,0,0,0-.411-2.265,2.007,2.007,0,0,1,.107-1.759Z" transform="translate(-2564.875 -1189.568)"/></g><g transform="translate(26.908 30.333)"><path class="x" d="M2570.8,1219.11s-.028-1.11.264-1.346.325.164.325.164-.04-.4.28-.449.333.417.333.417a.309.309,0,0,1,.388-.243c.336.063.255.453.255.453s.321-.382.529-.015a1.657,1.657,0,0,1,.027,1.348s-.114.171-.433.089a.441.441,0,0,1-.692.132s-.492.272-.669-.16A.408.408,0,0,1,2570.8,1219.11Z" transform="translate(-2570.795 -1217.474)"/></g><path class="y" d="M2531.979,988.247s1.9,6.333,2.542,8.669c.2.733.689,7.729.775,8.011s2.5.667,2.5.667-.292-8.753-.32-9.23-2.659-10.251-3.425-10.6c-.573-.261-.876-.045-1.6.492A1.691,1.691,0,0,0,2531.979,988.247Z" transform="translate(-2508.425 -976.143)"/><g transform="translate(25.096 55.188)"><path class="z" d="M2550.621,1494.354s.173,1.2.2,1.383,1.927-.107,1.927-.107l.154-1.431A11.264,11.264,0,0,0,2550.621,1494.354Z" transform="translate(-2550.621 -1494.199)"/></g><g transform="translate(21.965 56.492)"><path class="aa" d="M2519.063,1508.792a5.139,5.139,0,0,1-1.187,1.04c-.583.316-1.5.441-1.846.768-.249.236-.907,1.252,1.517,1.231s3.594.144,3.854-.246-.376-2.875-.376-2.875A5.127,5.127,0,0,1,2519.063,1508.792Z" transform="translate(-2515.758 -1508.711)"/></g><g transform="translate(11.446 55.188)"><path class="z" d="M2398.648,1494.354s.173,1.2.194,1.383,1.927-.107,1.927-.107l.154-1.431A11.261,11.261,0,0,0,2398.648,1494.354Z" transform="translate(-2398.648 -1494.199)"/></g><g transform="translate(7.194 56.492)"><path class="aa" d="M2355.741,1508.792a5.139,5.139,0,0,1-1.187,1.04c-.584.316-2.732.575-3.078.9-.249.236-.664,1.185,2.748,1.1,2.424-.063,3.594.144,3.854-.246s-.376-2.875-.376-2.875A4.649,4.649,0,0,1,2355.741,1508.792Z" transform="translate(-2351.315 -1508.711)"/></g><g transform="translate(19.148 24.452)"><path class="aa" d="M2488.764,1152a11.1,11.1,0,0,1,1.656,5.415c-.133,2.571.65,5.378.918,8.063.3,2.994,1.527,10.082,1.571,11.683s-.19,6.715-.19,6.715l-2.456.057s-2.063-12.391-2.6-13.656-3.183-10.278-3.272-11.289S2488.764,1152,2488.764,1152Z" transform="translate(-2484.393 -1152)"/></g><g transform="translate(11.114 23.962)"><path class="aa" d="M2397.934,1147.42s-1.349,7.046-1.528,8.62-.3,7.614-.386,8.6-.832,12.84-1.068,14.33h3.14s2.41-8.64,2.41-12.728,1.862-8.888,3.063-11.585,3.954-2.761,4.692-7.765C2408.258,1146.889,2398.934,1145.833,2397.934,1147.42Z" transform="translate(-2394.953 -1146.545)"/></g><g transform="translate(16.252 0.32)"><path class="w" d="M2456.438,883.556s-2.4-.9-3.511.931-1,5.491.211,5.941,3.03.215,3.651-.93a9.155,9.155,0,0,0,1.152-3.9A2.408,2.408,0,0,0,2456.438,883.556Z" transform="translate(-2452.158 -883.336)"/></g><g transform="translate(17.421 5.216)"><path class="w" d="M2465.236,940.123a2.082,2.082,0,0,1-.065.968c-.165.32,3.112.328,3.112.328a21.579,21.579,0,0,1,.771-3.207C2469.559,936.744,2465.236,940.123,2465.236,940.123Z" transform="translate(-2465.166 -937.843)"/></g><g transform="translate(16.355 0.043)"><path class="y" d="M2458.261,885.8s-.226.373-1.15.228-2.05-1.373-2.436-1.508-.389-.361-.389-.361l-.242.353-.41.026s.373-1.1-.19-1.547.584-3.557,3.546-2.522c0,0,2.275.627,2.192,1.921A7.193,7.193,0,0,1,2458.261,885.8Z" transform="translate(-2453.307 -880.253)"/></g><g transform="translate(17.232 7.528)"><path class="ab" d="M2463.065,964.481s.011-.611.287-.669a19.74,19.74,0,0,1,3.395-.192v.711S2466.093,964.734,2463.065,964.481Z" transform="translate(-2463.065 -963.583)"/></g><g transform="translate(17.323 3.002)"><path class="w" d="M2464.158,913.667c.052-.217.6-.837.815-.173s-.319,1.557-.615,1.481S2464.027,914.217,2464.158,913.667Z" transform="translate(-2464.085 -913.195)"/></g><g transform="translate(6.195 15.64)"><path class="y" d="M2340.2,1053.9h0C2340.183,1053.9,2340.181,1053.9,2340.2,1053.9Z" transform="translate(-2340.187 -1053.895)"/></g><g transform="translate(21.216 0.756)"><path class="y" d="M2507.42,888.19s3.063.239.094,4.83Z" transform="translate(-2507.42 -888.19)"/></g><path class="ac" d="M2271.555,881.459a.66.66,0,0,1,.427-.4,1.057,1.057,0,0,1,.49-.316c.005-.015.014-.028.021-.042-.217-.233-.848-.67-.885-.752-.045-.1-.033-.111.089-.178a7.49,7.49,0,0,1,1.477.842c.084.053.153.1.167.115a2.643,2.643,0,0,1,.449.309.68.68,0,0,1,.052.059,13.5,13.5,0,0,1,.572,1.965l-.718.322-.691.587s-.807-.668-1.014-.878a2.087,2.087,0,0,1-.359-.558.967.967,0,0,0-.068-.1c-.094-.127-.236-.3-.236-.3a1.139,1.139,0,0,1-.113-.344C2271.231,881.587,2271.555,881.459,2271.555,881.459Z" transform="translate(-2271.216 -879.77)"/><g transform="translate(1.202 3.002)"><path class="y" d="M2296.029,919.538c1.9-.251,4.595-.925,4.595-.925l3.682-.15a35.8,35.8,0,0,1,4.709,1.345c.126.057.128,3.014.474,3.79l-1.1,2.328s-.637,4.61-.769,6.661c-.062.941,1.314,8.827,1.314,8.827a25.467,25.467,0,0,1-3.986.711c-2.513.277-8.792-.1-8.83-.4s1.215-11.051,1.271-11.608c.085-.855-.294-5.4-.294-5.4-.581-.45-5.675-2.814-7.064-4.046-.372-.33-1.942-1.859-2.388-2.387a42.813,42.813,0,0,1-3.033-3.817c-.179-.2,1.717-1.227,1.889-1.284.151-.05,2.287,2.717,3.108,3.608a23.023,23.023,0,0,0,1.89,1.505S2294.838,919.606,2296.029,919.538Z" transform="translate(-2284.594 -913.188)"/></g></g><g transform="translate(116.607 25.443)"><path class="ad" d="M2500.684,502.313l-.3,3.461-9.785-.839.391-4.564,8.681.745.043.051.921,1.093Z" transform="translate(-2490.602 -500.371)"/><path class="ae" d="M2591.747,509.957l-1.1-.094.094-1.094.018.021.041.048.874,1.037Z" transform="translate(-2581.665 -508.015)"/><path class="ae" d="M2536.753,519.757a1.056,1.056,0,1,1-.962-1.143A1.057,1.057,0,0,1,2536.753,519.757Z" transform="translate(-2530.688 -516.972)"/><path class="ae" d="M2573.1,528.525a.447.447,0,1,1-.407-.483A.447.447,0,0,1,2573.1,528.525Z" transform="translate(-2564.879 -525.555)"/><path class="ae" d="M2510.658,523.168a.447.447,0,1,1,.407.483A.447.447,0,0,1,2510.658,523.168Z" transform="translate(-2508.856 -520.749)"/></g><g transform="translate(129.283 20.122)"><path class="ad" d="M2640.91,441.579l1.64,3.062-8.657,4.637-2.163-4.038,7.681-4.114.064.019,1.369.414Z" transform="translate(-2631.73 -441.126)"/><path class="ae" d="M2718.864,441.616l-.969.519-.518-.968.027.008.061.018,1.3.392Z" transform="translate(-2709.685 -441.163)"/><path class="ae" d="M2681.438,472.785a1.056,1.056,0,1,1-1.43-.433A1.056,1.056,0,0,1,2681.438,472.785Z" transform="translate(-2675.164 -469.434)"/><path class="ae" d="M2714.309,464.668a.447.447,0,1,1-.6-.183A.446.446,0,0,1,2714.309,464.668Z" transform="translate(-2706.127 -462.339)"/><path class="ae" d="M2659.063,494.26a.447.447,0,1,1,.6.183A.447.447,0,0,1,2659.063,494.26Z" transform="translate(-2656.559 -488.889)"/></g><g transform="translate(121.302 9.811)"><path class="ad" d="M2552.81,333.122l-2.089,2.775-7.845-5.907,2.755-3.659,6.961,5.24.009.066.2,1.416Z" transform="translate(-2542.875 -326.33)"/><path class="ae" d="M2644.586,386.353l-.878-.661.661-.877,0,.028.009.063.19,1.343Z" transform="translate(-2634.651 -379.561)"/><path class="ae" d="M2591.348,369a1.056,1.056,0,1,1-.208-1.48A1.057,1.057,0,0,1,2591.348,369Z" transform="translate(-2585.265 -363.628)"/><path class="ae" d="M2621.718,393.393a.446.446,0,1,1-.088-.625A.446.446,0,0,1,2621.718,393.393Z" transform="translate(-2613.906 -386.718)"/><path class="ae" d="M2571.648,355.7a.447.447,0,1,1,.089.625A.447.447,0,0,1,2571.648,355.7Z" transform="translate(-2568.982 -352.897)"/></g><g transform="translate(131.871)"><path class="ad" d="M2669.385,217.426l1.891,2.914-8.238,5.346-2.493-3.842,7.309-4.743.066.014,1.4.3Z" transform="translate(-2660.544 -217.1)"/><path class="ae" d="M2743.577,217.453l-.922.6-.6-.921.027.006.062.013,1.326.282Z" transform="translate(-2734.736 -217.127)"/><path class="ae" d="M2709.752,250.712a1.056,1.056,0,1,1-1.462-.311A1.057,1.057,0,0,1,2709.752,250.712Z" transform="translate(-2703.564 -247.254)"/><path class="ae" d="M2741.335,240.409a.447.447,0,1,1-.618-.131A.447.447,0,0,1,2741.335,240.409Z" transform="translate(-2733.332 -238.13)"/><path class="ae" d="M2688.759,274.523a.447.447,0,1,1,.618.132A.447.447,0,0,1,2688.759,274.523Z" transform="translate(-2686.16 -268.738)"/></g><g transform="translate(52.398 22.065)"><path class="b" d="M1775.745,462.758v9.416s1.592,2.653,3.492,0h3.492s1.592,2.653,3.492,0h3.492s1.591,2.653,3.492,0h3.492s1.591,2.653,3.492,0h3.492s1.592,2.653,3.492,0h3.492s1.592,2.653,3.492,0h3.492s1.592,2.653,3.492,0h3.492s1.592,2.653,3.492,0h3.492s1.592,2.653,3.492,0v-9.416Z" transform="translate(-1775.745 -462.758)"/><g transform="translate(3.492)"><path class="af" d="M1814.621,472.174s1.592,2.653,3.492,0v-9.416h-3.492Z" transform="translate(-1814.621 -462.758)"/><path class="af" d="M1892.377,472.174s1.591,2.653,3.492,0v-9.416h-3.492Z" transform="translate(-1885.393 -462.758)"/><path class="af" d="M1970.134,472.174s1.592,2.653,3.492,0v-9.416h-3.492Z" transform="translate(-1956.166 -462.758)"/><path class="af" d="M2047.89,472.174s1.592,2.653,3.492,0v-9.416h-3.492Z" transform="translate(-2026.937 -462.758)"/><path class="af" d="M2125.643,472.174s1.592,2.653,3.492,0v-9.416h-3.492Z" transform="translate(-2097.707 -462.758)"/><path class="af" d="M2203.4,472.174s1.592,2.653,3.492,0v-9.416H2203.4Z" transform="translate(-2168.477 -462.758)"/><path class="af" d="M2281.153,472.174s1.591,2.653,3.492,0v-9.416h-3.492Z" transform="translate(-2239.249 -462.758)"/><path class="af" d="M2358.91,462.758v9.416s1.592,2.653,3.492,0v-9.416Z" transform="translate(-2310.022 -462.758)"/></g></g><path class="p" d="M2.719,0H14.711A2.719,2.719,0,0,1,17.43,2.719v0a2.719,2.719,0,0,1-2.719,2.719H2.719A2.719,2.719,0,0,1,0,2.719v0A2.719,2.719,0,0,1,2.719,0Z" transform="translate(84.365 83.848)"/><path class="ag" d="M1907.29,1150.613h-13.108a2.161,2.161,0,0,0-2.161,2.161v1.115a2.162,2.162,0,0,0,2.161,2.161h13.108a2.161,2.161,0,0,0,2.161-2.161v-1.115A2.161,2.161,0,0,0,1907.29,1150.613Z" transform="translate(-1829.179 -1066.765)"/><path class="p" d="M1928.255,1254.676H1894.74a2.719,2.719,0,0,1-2.719-2.719h0a2.719,2.719,0,0,1,2.719-2.719h33.515a2.719,2.719,0,0,1,2.719,2.719h0A2.719,2.719,0,0,1,1928.255,1254.676Z" transform="translate(-1829.179 -1156.531)"/><rect class="k" width="11.295" height="1.293" transform="translate(65.91 85.921)"/><path class="k" d="M2165.164,1174.977H2159.5a.646.646,0,0,1-.647-.646h0a.647.647,0,0,1,.647-.647h5.668a.646.646,0,0,1,.646.647h0A.646.646,0,0,1,2165.164,1174.977Z" transform="translate(-2072.041 -1087.763)"/><path class="m" d="M1900.5,658.506h-5.3a.647.647,0,0,1-.647-.647h0a.647.647,0,0,1,.647-.647h5.3a.647.647,0,0,1,.646.647h0A.646.646,0,0,1,1900.5,658.506Z" transform="translate(-1831.487 -617.682)"/><path class="k" d="M2275.395,1162.161h-1a.646.646,0,0,1-.646-.647h0a.646.646,0,0,1,.646-.646h1a.646.646,0,0,1,.646.646h0A.646.646,0,0,1,2275.395,1162.161Z" transform="translate(-2176.618 -1076.099)"/><path class="p" d="M1929.44,1263.972a1.533,1.533,0,1,1-1.533-1.533A1.533,1.533,0,0,1,1929.44,1263.972Z" transform="translate(-1860.446 -1168.547)"/><g transform="translate(148.484 101.858)"><path class="ah" d="M2847.471,1355.707a2.321,2.321,0,1,1,1.971-2.295A2.154,2.154,0,0,1,2847.471,1355.707Zm0-4.406a2.141,2.141,0,1,0,1.788,2.111A1.973,1.973,0,0,0,2847.471,1351.3Z" transform="translate(-2845.499 -1351.118)"/></g><g transform="translate(145.51 104.152)"><rect class="af" width="9.89" height="14.347"/></g><g transform="translate(138.295 98.433)"><path class="ah" d="M2734.442,1318.518a2.8,2.8,0,1,1,2.377-2.767A2.6,2.6,0,0,1,2734.442,1318.518Zm0-5.313a2.582,2.582,0,1,0,2.157,2.546A2.379,2.379,0,0,0,2734.442,1313.2Z" transform="translate(-2732.065 -1312.985)"/></g><g transform="translate(134.709 101.199)"><rect class="ai" width="11.925" height="17.3"/></g><g transform="translate(0 59.716)"><path class="aj" d="M1199.567,1509.239a5.383,5.383,0,0,1-.6,1.1c-.275.311-1.326.867-1.331,1.791-.006,1,1.772.724,2.467.687s.748-.572,1.041-1.139.588-.471.643-.929a5.828,5.828,0,0,0-.224-1.482Z" transform="translate(-1197.164 -1452.894)"/><g transform="translate(16.379 56.345)"><path class="aj" d="M1377.149,1509.418a4.744,4.744,0,0,0,1.952,1.23c.983.213,1.671.485,1.678,1.068s-2.829.968-3.954.38c-1.679-.878-1.85-.614-2.036-1.052s.224-1.613.212-1.752A9.035,9.035,0,0,1,1377.149,1509.418Z" transform="translate(-1374.74 -1509.239)"/></g><g transform="translate(1.908 25.045)"><path class="ak" d="M1227.924,1162.88s1.017,7.389,1.432,9.887c.486,2.92.651,5.333.786,6.845.171,1.9.5,11.9.617,12.454s-2.661.279-2.661.279-2.017-12.963-2.525-14.988c-.472-1.885-1.772-9.658-2.2-9.143s-3.139,9.609-3.458,11.1-3.4,13.128-3.4,13.128-2.3.495-2.887.029c0,0,2.008-10.7,2.212-13.483.077-1.062.707-12.666,2.5-17.367C1219.292,1159.132,1227.924,1162.88,1227.924,1162.88Z" transform="translate(-1213.627 -1160.766)"/></g><path class="al" d="M1261.262,986.1a17.341,17.341,0,0,1,3.011.839,13.78,13.78,0,0,1,.995,4.071,31.677,31.677,0,0,1-.671,5.529,54.107,54.107,0,0,0-.112,8.994,38.165,38.165,0,0,1-10.728.363s.921-5.791.708-7.541c-.273-2.242-.931-7.409-.931-7.409s.712-3.479,1.187-3.88a19.586,19.586,0,0,1,3.773-1.055Z" transform="translate(-1248.042 -976.663)"/><path class="w" d="M1300.141,892.8s3.238-1.2,3.035,3.1-.961,4.74-3.091,4.139-2.308-3.317-2.586-4.623S1299.082,892.984,1300.141,892.8Z" transform="translate(-1288.032 -891.681)"/><path class="w" d="M1307.307,948.753s-1.682,1.364-3.3-.771a11.444,11.444,0,0,0-.424-3.35c-.5-1.618,3.39,2.157,3.39,2.157-.041.029-.048.19-.025.416a4.6,4.6,0,0,0,.125.669C1307.212,948.415,1307.179,948.319,1307.307,948.753Z" transform="translate(-1293.553 -938.634)"/><path class="am" d="M1293.641,888.4s-.009-1.149.469-1.255.724.559.724.559l.385-.02s-.344-1.165.111-1.432,3.182-.032,3.524-.424-.154-2.721-.9-2.95-2.776-.692-4.066.457a1.223,1.223,0,0,0-1.153,1.393A10.771,10.771,0,0,0,1293.641,888.4Z" transform="translate(-1283.724 -882.526)"/><path class="an" d="M1313.585,965.844c-2.51-.422-2.885-1.849-2.89-1.872a3.668,3.668,0,0,0,2.766,1.2A4.6,4.6,0,0,0,1313.585,965.844Z" transform="translate(-1300.068 -956.603)"/><path class="w" d="M1305.179,925.424c-.143-.379-.951-.331-.868.27s.75,1.527,1.018,1.353S1305.376,925.947,1305.179,925.424Z" transform="translate(-1294.252 -921.297)"/><path class="w" d="M1299.025,984.808s1.518,3.068,3.752,2.82.94-2.39.726-2.731C1303.5,984.9,1302.162,984.037,1299.025,984.808Z" transform="translate(-1289.446 -975.276)"/><g transform="translate(14.866 9.994)"><path class="al" d="M1363.989,1001.971c1.253.58,6.05,1.773,6.05,1.773l.33-1.979s-2.428-.947-4.1-1.376a13.52,13.52,0,0,1-1.747-.569c-.13-.067-2.8-3.306-3-3.663a7.984,7.984,0,0,0-1.389-2.164,3.545,3.545,0,0,0-1.595-.8c-1.767,1.494.623,4.321.623,4.321S1362.233,1001.158,1363.989,1001.971Z" transform="translate(-1357.889 -993.199)"/></g><path class="ao" d="M15.522,0h10.94a15.52,15.52,0,0,1,15.52,15.52v0A15.519,15.519,0,0,1,26.463,31.041H15.519A15.519,15.519,0,0,1,0,15.522v0A15.522,15.522,0,0,1,15.522,0Z" transform="translate(0 16.167)"/><g transform="translate(1.17 17.013)"><path class="ap" d="M1242.791,1100.7h-.575v-.143h.575Zm-1.149,0h-.575v-.143h.575Zm-1.15,0h-.575v-.143h.575Zm-1.15,0h-.575v-.143h.575Zm-1.15,0h-.574v-.143h.574Zm-1.149,0h-.575v-.143h.575Zm-1.15,0h-.574v-.143h.574Zm-1.149,0h-.575v-.143h.575Zm-1.15,0h-.575v-.143h.575Zm-1.15,0h-.575v-.143h.575Zm-1.149,0h-.575v-.143h.575Zm-1.15,0h-.575v-.143h.575Zm-1.15,0h-.575v-.143H1229Zm-1.149,0h-.575v-.143h.575Zm-1.149,0h-.575v-.143h.575Zm-1.15,0h-.575v-.143h.575Zm-1.15,0h-.575v-.143h.575Zm-1.149,0h-.575v-.143h.575Zm-1.149,0h-.575v-.143h.575Zm-1.15,0h-.575v-.143h.575Zm-1.149,0h-.575v-.143h.575Zm-1.15,0h-.575v-.143h.575Zm-1.15,0h-.575v-.143h.575Zm-1.15,0h-.574v-.143h.574Zm-1.149,0h-.575v-.143h.575Zm-1.149,0h-.575v-.143h.575Zm-1.15,0h-.575v-.143h.575Zm-1.15,0h-.575v-.143h.575Zm-1.149,0h-.575v-.143h.575Zm-1.149,0h-.575v-.143h.575Zm-1.15,0h-.575v-.143h.575Zm-1.15,0a1.755,1.755,0,0,1-.587-.1l.048-.135a1.611,1.611,0,0,0,.539.1Zm36.214,0-.007-.143a1.59,1.59,0,0,0,.535-.118l.055.133A1.752,1.752,0,0,1,1243.37,1100.694Zm-37.319-.4a1.769,1.769,0,0,1-.391-.45l.122-.074a1.625,1.625,0,0,0,.36.414Zm38.407-.048-.1-.107a1.621,1.621,0,0,0,.342-.428l.125.069A1.766,1.766,0,0,1,1244.457,1100.25Zm-39.016-.956a1.765,1.765,0,0,1-.037-.36v-.227h.143v.227a1.623,1.623,0,0,0,.034.33Zm39.583-.073-.141-.023a1.646,1.646,0,0,0,.021-.264v-.3h.143v.3A1.812,1.812,0,0,1,1245.024,1099.221Zm-39.477-1.089h-.143v-.575h.143Zm39.5-.071h-.143v-.575h.143Zm-39.5-1.078h-.143v-.575h.143Zm39.5-.071h-.143v-.574h.143Zm-39.5-1.078h-.143v-.575h.143Zm39.5-.071h-.143v-.575h.143Zm-39.5-1.078h-.143v-.575h.143Zm39.5-.071h-.143v-.575h.143Zm-39.5-1.079h-.143v-.575h.143Zm39.5-.071h-.143v-.575h.143Zm-39.5-1.078h-.143v-.575h.143Zm39.5-.071h-.143v-.575h.143Zm-39.5-1.078h-.143v-.575h.143Zm39.5-.072h-.143v-.574h.143Zm-39.5-1.078h-.143v-.575h.143Zm39.5-.071h-.143v-.575h.143Zm-39.5-1.079h-.143v-.574h.143Zm39.5-.071h-.143v-.575h.143Zm-39.5-1.078h-.143v-.575h.143Zm39.5-.072h-.143v-.575h.143Zm-39.5-1.078h-.143v-.575h.143Zm39.5-.072h-.143v-.574h.143Zm-39.5-1.078h-.143v-.574h.143Zm39.5-.071h-.143v-.575h.143Zm-39.5-1.078h-.143v-.575h.143Zm39.5-.071h-.143v-.575h.143Zm-39.5-1.078h-.143v-.575h.143Zm39.5-.071h-.143v-.575h.143Zm-39.5-1.078h-.143v-.575h.143Zm39.5-.071h-.143v-.575h.143Zm-39.5-1.078h-.143v-.575h.143Zm39.5-.071h-.143v-.575h.143Zm-39.5-1.078h-.143v-.575h.143Zm39.5-.071h-.143v-.575h.143Zm-39.5-1.079h-.143v-.575h.143Zm39.5-.071h-.143v-.575h.143Zm-39.5-1.078h-.143v-.575h.143Zm39.5-.072h-.143v-.574h.143Zm-39.5-1.078h-.143v-.575h.143Zm39.5-.071h-.143v-.575h.143Zm-39.5-1.079h-.143v-.575h.143Zm39.5-.071h-.143v-.575h.143Zm-39.5-1.078h-.143v-.575h.143Zm39.5-.071h-.143v-.575h.143Zm-39.48-1.066-.142-.022a1.75,1.75,0,0,1,.192-.564l.126.068A1.584,1.584,0,0,0,1205.567,1072.855Zm39.3-.067a1.6,1.6,0,0,0-.2-.511l.123-.073a1.749,1.749,0,0,1,.215.556Zm-38.79-.882-.1-.106a1.753,1.753,0,0,1,.5-.319l.055.132A1.63,1.63,0,0,0,1206.082,1071.907Zm38.235-.044a1.618,1.618,0,0,0-.475-.273l.049-.134a1.753,1.753,0,0,1,.516.3Zm-37.238-.369-.007-.143.094,0h.484v.143h-.484Zm36.224,0h-.593v-.143h.6Zm-1.168,0h-.575v-.143h.575Zm-1.149,0h-.575v-.143h.575Zm-1.15,0h-.575v-.143h.575Zm-1.149,0h-.575v-.143h.575Zm-1.15,0h-.575v-.143h.575Zm-1.149,0h-.575v-.143h.575Zm-1.15,0h-.575v-.143h.575Zm-1.149,0h-.575v-.143h.575Zm-1.15,0h-.575v-.143h.575Zm-1.149,0h-.575v-.143h.575Zm-1.15,0h-.575v-.143h.575Zm-1.15,0h-.575v-.143h.575Zm-1.15,0h-.574v-.143h.574Zm-1.149,0h-.575v-.143h.575Zm-1.15,0h-.575v-.143h.575Zm-1.15,0h-.575v-.143h.575Zm-1.149,0h-.575v-.143h.575Zm-1.15,0h-.575v-.143h.575Zm-1.149,0h-.575v-.143h.575Zm-1.15,0h-.575v-.143h.575Zm-1.15,0h-.575v-.143h.575Zm-1.15,0h-.575v-.143H1218Zm-1.149,0h-.575v-.143h.575Zm-1.15,0h-.575v-.143h.575Zm-1.15,0h-.575v-.143h.575Zm-1.15,0h-.575v-.143h.575Zm-1.15,0h-.575v-.143h.575Zm-1.149,0h-.575v-.143h.575Zm-1.15,0h-.575v-.143h.575Zm-1.149,0h-.575v-.143h.575Z" transform="translate(-1205.404 -1071.348)"/></g><g transform="translate(54.567 0.013)"><path class="am" d="M1801.325,882.277a1.563,1.563,0,0,1,2.1.551c.995,1.258.637,2.467.429,3.6s-1.209,3.683-.783,4.812a1.66,1.66,0,0,1-.119,1.717s-3.42.876-3.021-4.269S1801.325,882.277,1801.325,882.277Z" transform="translate(-1799.897 -882.078)"/></g><path class="aq" d="M1577.623,1115.6a14.468,14.468,0,0,1,3.132-1.551c.76-.068,2.617-.358,2.741.172s.042.88-.772,1.044-2.3-.319-2.794-.187S1577.33,1116.262,1577.623,1115.6Z" transform="translate(-1542.995 -1093.07)"/><path class="aq" d="M1630.227,1099.377a11.432,11.432,0,0,0,3.062-1.385c.822-.716.878,1.439.878,1.439l-3.087.867Z" transform="translate(-1590.899 -1078.453)"/><g transform="translate(40.293 9.904)"><path class="ai" d="M1655.217,992.224a3.349,3.349,0,0,0-2.176.477,8.427,8.427,0,0,0-1.739,2.268c-.267.385-3.389,3.83-3.544,3.893s-2.1,1.134-3.407,2-3.37,1.909-3.37,1.909l1.119,1.372s5.51-1.973,6.656-3.039c1.224-1.139,6.885-6.792,6.885-6.792S1657.062,993.163,1655.217,992.224Z" transform="translate(-1640.98 -992.202)"/></g><g transform="translate(43.821 54.838)"><path class="ar" d="M1681.485,1495.47s-1.408,1.9-1.215,2.2,1.675.344,2.576,0,.923-2.566,1.331-3.521c.171-.4-.195-1.58-.709-1.666a2.171,2.171,0,0,0-1.073.166A2.752,2.752,0,0,1,1681.485,1495.47Z" transform="translate(-1680.252 -1492.462)"/></g><g transform="translate(44.589 54.811)"><path class="w" d="M1690.171,1492.354a8.96,8.96,0,0,0-.4,1.579c-.09.64-1,2-.961,2.169a1.659,1.659,0,0,0,1.675-.116,5.2,5.2,0,0,0,.88-2.5,6.165,6.165,0,0,1,.219-1.072S1690.622,1491.882,1690.171,1492.354Z" transform="translate(-1688.804 -1492.158)"/></g><g transform="translate(47.527 56.354)"><path class="ar" d="M1721.77,1509.348v1.985h-.257V1509.8Z" transform="translate(-1721.513 -1509.348)"/></g><g transform="translate(56.133 54.839)"><path class="ar" d="M1818.515,1495.511s-1.358,1.865-1.165,2.166,1.675.344,2.577,0,.923-2.566,1.331-3.521c.171-.4-.194-1.58-.708-1.666a2.31,2.31,0,0,0-1.116.184A2.787,2.787,0,0,1,1818.515,1495.511Z" transform="translate(-1817.332 -1492.473)"/></g><g transform="translate(56.902 54.768)"><path class="w" d="M1827.224,1491.961a12.665,12.665,0,0,1-.279,1.5c-.172.623-1.095,2.04-1.052,2.212a1.658,1.658,0,0,0,1.675-.115,4.629,4.629,0,0,0,.88-2.5,4.136,4.136,0,0,0-.107-1.282A1.049,1.049,0,0,0,1827.224,1491.961Z" transform="translate(-1825.891 -1491.69)"/></g><g transform="translate(59.84 56.354)"><path class="ar" d="M1858.856,1509.348v1.985h-.258V1509.8Z" transform="translate(-1858.598 -1509.348)"/></g><g transform="translate(45.805 20.063)"><path class="as" d="M1707.986,1109.4s-1.209,5.624-1.486,7.04-1.055,8.273-1.139,9.44-1.261,5.56-1.206,5.976-1.813,8.681-1.813,8.681,1.923.523,2.247.171c.275-.3,3.038-7.856,3.038-9.938,0-2.878,2.171-6.542,2.446-7.187,2.551-5.982,2.006-7.9,2.339-8.292s.362.24.557,1.1.61,8.3.86,9.246.056,4.137.195,5.747.3,8.826.3,8.826a4.313,4.313,0,0,0,2.055.012c.191-.089.673-8.038.7-9.953s.057-4.557.111-5.386c.515-7.938,1.779-9.072-.212-14.691C1713.248,1099.669,1707.986,1109.4,1707.986,1109.4Z" transform="translate(-1702.343 -1105.3)"/></g><g transform="translate(50.325 9.113)"><path class="at" d="M1756.924,983.454a13.184,13.184,0,0,1-1.7.683,9.39,9.39,0,0,0-2.436,3.1c-.3.806,0,2.015.614,3.435s.035,1.893.315,3.312a33.008,33.008,0,0,1,.473,5.214c-.052.789,7.088.938,8.718-.5,0,0-1.638-2.453-1.848-2.8a6.482,6.482,0,0,1,.158-2.752c.193-.491,1.475-4.663,1.475-4.663s1.05-3.205.1-3.941c-.824-.64-3.069-.868-3.472-1.008A6.879,6.879,0,0,0,1756.924,983.454Z" transform="translate(-1752.672 -983.388)"/></g><g transform="translate(53.408 8.73)"><path class="au" d="M1787.758,982.387l-.767-.9.666-2.364A15.6,15.6,0,0,1,1787.758,982.387Z" transform="translate(-1786.991 -979.125)"/></g><g transform="translate(53.976 5.995)"><path class="w" d="M1793.31,950.409a30.058,30.058,0,0,1,.2,3.068s1.311,1.314,2.8-1.533a3.912,3.912,0,0,1-.155-2.773C1796.629,947.572,1793.31,950.409,1793.31,950.409Z" transform="translate(-1793.31 -948.682)"/></g><g transform="translate(54.175 10.791)"><path class="w" d="M1795.527,1002.072v1.2l1.509-1.128Z" transform="translate(-1795.527 -1002.072)"/></g><g transform="translate(54.175 9.113)"><path class="au" d="M1795.527,986.267l.627-.776,2.11-2.1.683.657Z" transform="translate(-1795.527 -983.389)"/></g><g transform="translate(55.342 9.314)"><path class="ai" d="M1810.389,985.626s-1.771,2.688-1.855,3.871a107.3,107.3,0,0,0,1.253,12.876c.595,2.845,4.893-.321,4.893-.321s-2.888-4.675-1.78-8.418,1.512-5.24,1.512-5.24-.381-2.084-1.733-2.378C1811.493,985.759,1810.389,985.626,1810.389,985.626Z" transform="translate(-1808.527 -985.626)"/></g><g transform="translate(50.289 9.593)"><path class="ai" d="M1752.3,992.471s-.32,1.13.925,3.629c0,0-.02,3.2-.055,4.2s-.741,4.591-.741,4.591l1.7.905a.347.347,0,0,0,.52-.342c-.349-2.874-1.482-13.779.967-16.71l-.983.29A7.954,7.954,0,0,0,1752.3,992.471Z" transform="translate(-1752.262 -988.741)"/></g><g transform="translate(52.442 8.73)"><path class="av" d="M1777.2,981.489l-.967.267,1.632-2.631Z" transform="translate(-1776.234 -979.125)"/></g><g transform="translate(54.801 9.113)"><path class="av" d="M1802.5,985.492l.882,1.157,1.8-3.021-.575-.238Z" transform="translate(-1802.504 -983.389)"/></g><g transform="translate(54.028 7.228)"><path class="an" d="M1793.89,963.41l.043.455s1.043.2,2.406-1.459A2.961,2.961,0,0,1,1793.89,963.41Z" transform="translate(-1793.89 -962.406)"/></g><g transform="translate(51.998 0.177)"><path class="aq" d="M1773.589,892c-.411-.015-1.556-.149-2.122-2.789-.691-3.225.835-4.9,2.142-5.208a2.564,2.564,0,0,1,3.181,1.83,5.888,5.888,0,0,1-.3,3.655C1775.692,891.828,1774.028,892.015,1773.589,892Z" transform="translate(-1771.295 -883.91)"/></g><g transform="translate(51.811)"><path class="am" d="M1772.738,884.295s-1.755.109-3.386,2.56c0,0-.764-2.949,1.232-4.294a2.723,2.723,0,0,1,3.88.4s.7.161.72,1.486.913,3.325-1.042,4.273a6.5,6.5,0,0,0,.014-1.859C1773.985,886.512,1773.388,886.746,1772.738,884.295Z" transform="translate(-1769.208 -881.934)"/></g><g transform="translate(56.505 4.115)"><path class="aq" d="M1821.625,927.965c.089-.229.329-.322.462-.076s-.025,1.2-.379,1.3S1821.445,928.43,1821.625,927.965Z" transform="translate(-1821.466 -927.743)"/></g><path class="aw" d="M10.9,0H24.223a10.9,10.9,0,0,1,10.9,10.9v0a10.9,10.9,0,0,1-10.9,10.9H10.9A10.9,10.9,0,0,1,0,10.9v0A10.9,10.9,0,0,1,10.9,0Z" transform="translate(2.551 18.567)"/><rect class="ao" width="38.953" height="19.29" transform="translate(1.216 22.81)"/><path class="ax" d="M9.266,0H25.858a9.267,9.267,0,0,1,9.267,9.267v0a9.268,9.268,0,0,1-9.268,9.268H9.268A9.268,9.268,0,0,1,0,9.267v0A9.266,9.266,0,0,1,9.266,0Z" transform="translate(2.551 25.045)"/><path class="ay" d="M1488.166,1181.2a4.344,4.344,0,1,1-4.344-4.344A4.344,4.344,0,0,1,1488.166,1181.2Z" transform="translate(-1453.691 -1150.37)"/><rect class="ao" width="38.524" height="15.963" transform="translate(1.645 29.288)"/><path class="ac" d="M1231.51,1199.934a1.318,1.318,0,0,1-.1-.409s.036-.255.051-.438a1.314,1.314,0,0,0,.005-.141,2.412,2.412,0,0,1,.012-.772c.075-.334.462-1.489.462-1.489l1.042.155.906-.123a15.751,15.751,0,0,1,.641,2.291c0,.031-.009.062-.015.091a3.065,3.065,0,0,1-.254.581c-.017.05-.218.539-.369.586a.517.517,0,0,1-.5-.07,1.235,1.235,0,0,1-.679-.01.767.767,0,0,1-.665-.129S1231.651,1200.129,1231.51,1199.934Z" transform="translate(-1227.903 -1168.414)"/><path class="al" d="M1231.116,995.564c.353.136.727.99.449,2.665a7.218,7.218,0,0,1-1.13,2.984,24.623,24.623,0,0,0-1.707,3.634c.014,1.079-.011,3.926.023,4.143.058.372.3,4.662.3,4.662l-2.277.551s-.449-4.837-.652-6.3a15.5,15.5,0,0,1-.054-3.8,31.91,31.91,0,0,1,1.467-5.238C1227.683,998.595,1228.782,994.66,1231.116,995.564Z" transform="translate(-1222.955 -985.235)"/><path class="aq" d="M1607.1,1126.768c-.222.105-.474.478-.193.467s1.119-.309,1.329-.312S1607.1,1126.768,1607.1,1126.768Z" transform="translate(-1569.557 -1104.777)"/><g transform="translate(52.025 28.827)"><g transform="translate(8.092)"><path class="az" d="M1865.075,1205.581l-3.388-.555.017-.085a3.7,3.7,0,0,1,.246-.725,2.471,2.471,0,0,1,.937-1.127,1.788,1.788,0,0,1,1.517-.091,1.31,1.31,0,0,1,.837.725,2.553,2.553,0,0,1-.139,1.8Zm-3.187-.691,3.087.506a2.334,2.334,0,0,0,.112-1.607,1.151,1.151,0,0,0-.736-.632,1.628,1.628,0,0,0-1.381.078A2.805,2.805,0,0,0,1861.888,1204.89Z" transform="translate(-1861.687 -1202.874)"/></g><g transform="translate(2.554 0.944)"><path class="ba" d="M1800.035,1224.052l10.851,1.412,1.84-9.937-11.319-2.145Z" transform="translate(-1800.035 -1213.382)"/></g><g transform="translate(0 0.944)"><path class="bb" d="M1771.6,1223.324l3.926-9.942-1.372,10.67-1.136-.665Z" transform="translate(-1771.596 -1213.382)"/></g></g><g transform="translate(53.46 28.826)"><g transform="translate(6.925)"><path class="az" d="M1868.294,1205.479l-3.628.007,0-.092a3.91,3.91,0,0,1,.132-.8,2.608,2.608,0,0,1,.781-1.336,1.888,1.888,0,0,1,1.566-.358,1.385,1.385,0,0,1,1,.611,2.694,2.694,0,0,1,.167,1.9Zm-3.442-.17,3.306-.006a2.462,2.462,0,0,0-.161-1.695,1.217,1.217,0,0,0-.876-.532,1.721,1.721,0,0,0-1.427.32A2.965,2.965,0,0,0,1864.851,1205.309Z" transform="translate(-1864.666 -1202.867)"/></g><g transform="translate(2.381 2.296)"><path class="bc" d="M1814.493,1239.574l13.3-.424-1.546-10.657-12.161-.062Z" transform="translate(-1814.086 -1228.431)"/></g><g transform="translate(0 2.296)"><path class="bd" d="M1787.572,1239.257l2.381-10.826.406,11.143-1.3-.5Z" transform="translate(-1787.572 -1228.431)"/></g></g><path class="ac" d="M1877.135,1188.892a1.1,1.1,0,0,0,.084-.339s-.03-.211-.042-.363a1.021,1.021,0,0,1,0-.117,2.016,2.016,0,0,0-.01-.64c-.063-.277-.383-1.234-.383-1.234l-.864.128-.751-.1a12.994,12.994,0,0,0-.531,1.9.686.686,0,0,0,.012.075,2.575,2.575,0,0,0,.211.482c.014.042.181.447.306.486a.428.428,0,0,0,.412-.058,1.02,1.02,0,0,0,.563-.009.635.635,0,0,0,.551-.107S1877.018,1189.053,1877.135,1188.892Z" transform="translate(-1813.352 -1158.87)"/><path class="ai" d="M1830.568,986.94a4.211,4.211,0,0,1,3.082,1.072c1.029,1.2.973,2.621,1.235,3.238s.861,3.276.992,3.707.259,2.851.446,4.8.149,5.582.149,5.582l-1.964-.356s-.08-3.466-.129-5.475-1.685-5.56-2.3-7.114S1829,987.915,1830.568,986.94Z" transform="translate(-1772.778 -977.505)"/></g></g></g></g><rect class="be" width="163" height="163" transform="translate(741 1649)"/></g></svg>