<svg xmlns="http://www.w3.org/2000/svg" xmlns:xlink="http://www.w3.org/1999/xlink" width="358.339" height="268.455" viewBox="0 0 358.339 268.455"><defs><style>.a{fill:#eee;opacity:0.5;}.b{fill:#71abec;}.c{fill:url(#a);}.d{fill:url(#b);}.e{fill:url(#c);}.f{fill:url(#f);}.g{fill:url(#g);}.h{fill:url(#h);}.i{fill:url(#i);}.j{fill:url(#j);}.k{fill:#fff;}.l,.q,.t{fill:#f6f6f6;}.m{fill:#d9d9d9;}.n{fill:#6f79d6;}.o{fill:#4d56ab;}.p{fill:#7baef3;}.q{opacity:0.75;}.r{fill:#ca65a4;}.s{fill:#9e5182;}.t{opacity:0.74;}.u{fill:#99a552;}.v{fill:#c8d969;}.w{fill:#dba585;}.x{fill:#c99a7d;}.y{fill:#363957;}.z{fill:#454971;}.aa{fill:#2e3048;}.ab{fill:#dcd0c8;}.ac{fill:#dca787;}.ad{fill:#90c0fc;}.ae{fill:#4d7fc7;}.af{fill:#4d59be;}.ag{fill:#e4e4e4;}.ah{fill:#2c323d;}.ai{fill:#e9c463;}.aj{fill:#dfd1cb;}.ak{fill:#434881;}.al{fill:#c44858;}.am{fill:#263643;}.an{fill:#997761;}.ao{fill:#504e59;}.ap{fill:#a09292;}.aq{fill:#dba686;}.ar{fill:#2c3d54;}.as{fill:#353d67;}.at{fill:#e6d8d1;}.au{fill:#cfc3bc;}.av{fill:#f3e4dc;}.aw{fill:url(#k);}.ax{fill:url(#l);}.ay{fill:#f0c782;}.az{fill:#2d374b;}.ba{fill:#cb4949;}.bb{fill:#943737;}.bc{fill:#e39f4e;}.bd{fill:#9e6e33;}</style><linearGradient id="a" y1="0.5" x2="1" y2="0.5" gradientUnits="objectBoundingBox"><stop offset="0" stop-color="#293371"/><stop offset="1" stop-color="#79b8db"/></linearGradient><linearGradient id="b" y1="0.5" x2="1" y2="0.5" gradientUnits="objectBoundingBox"><stop offset="0" stop-color="#465f92"/><stop offset="0.995" stop-color="#94ffe9"/></linearGradient><linearGradient id="c" x1="-0.272" y1="1.088" x2="1.226" y2="-0.161" xlink:href="#b"/><linearGradient id="f" x1="0.494" y1="0.579" x2="0.444" y2="-0.361" gradientUnits="objectBoundingBox"><stop offset="0" stop-color="#3e4a91"/><stop offset="1" stop-color="#586cd9"/></linearGradient><linearGradient id="g" x1="0.5" y1="0.8" x2="0.5" y2="0.077" gradientUnits="objectBoundingBox"><stop offset="0" stop-color="#76a2fb"/><stop offset="1" stop-color="#5782fa"/></linearGradient><linearGradient id="h" x1="0.5" y1="1.172" x2="0.5" y2="-1.125" xlink:href="#g"/><linearGradient id="i" x1="0.5" y1="1.595" x2="0.5" y2="0.34" xlink:href="#a"/><linearGradient id="j" y1="0.5" x2="1" y2="0.5" gradientUnits="objectBoundingBox"><stop offset="0" stop-color="#7baef3"/><stop offset="1" stop-color="#7acdc0"/></linearGradient><linearGradient id="k" y1="0.5" x2="1" y2="0.5" gradientUnits="objectBoundingBox"><stop offset="0" stop-color="#9bc7fc"/><stop offset="1" stop-color="#87d7c4"/></linearGradient><linearGradient id="l" y1="0.5" x2="1" y2="0.5" gradientUnits="objectBoundingBox"><stop offset="0" stop-color="#f1cc82"/><stop offset="1" stop-color="#db6479"/></linearGradient></defs><g transform="translate(-3925 -982)"><path class="a" d="M1452.656,474.648c31.436-30.009,38.946-91.277,9.829-133.876-24.269-35.506-68.971-72.028-125.3-82.675s-105.681-10.635-127.023,3.43c-17.466,11.51-9.347,27.541-3.869,41.163,7.312,18.185,8.389,32.623-21.69,59.04-34.337,30.156-43.631,41.477-45.352,70.636-1.4,23.716,18.4,55.616,44.381,60.187,36.17,6.365,49.595-10.445,84.981-21.777,28.387-9.09,48.075-4.84,73.813,12.582S1406.524,518.685,1452.656,474.648Z" transform="translate(2785.821 738.211)"/><g transform="translate(3935.691 982)"><g transform="translate(0 0)"><g transform="translate(102.105 50.203)"><path class="b" d="M1700.558,521.46l-.039-.615c.1-.007,9.884-.73,13.264-9.679a41.643,41.643,0,0,0,1.7-6.676c1.554-7.837,3.161-15.94,18.417-21.46,9.714-3.515,16.938-2.911,22.745-2.427,8.909.744,14.8,1.236,22.306-13.66l.55.277c-7.7,15.268-13.748,14.763-22.908,14-5.745-.479-12.9-1.077-22.482,2.392-14.929,5.4-16.5,13.331-18.023,21a42.03,42.03,0,0,1-1.732,6.773C1710.837,520.711,1700.66,521.454,1700.558,521.46Z" transform="translate(-1700.519 -466.943)"/></g><g transform="translate(235.195 186.762)"><path class="c" d="M2440.723,1157.366s-7.492-2.724-11.63-5.782a7.209,7.209,0,0,1-2.515-2.75,1.893,1.893,0,0,1,.587-2.25s.5-.2,1.77.323c1.88.78,5.446,3.166,11.564,10.2Z" transform="translate(-2413.652 -1146.545)"/><path class="d" d="M2412.888,1157.52l-.427,2.09s-14.957,3.734-19.707-1.14c-.071-.072-.138-.144-.2-.218a3.882,3.882,0,0,1-.826-1.472c-1.342-4.627,7.6-10.043,7.6-10.043-.2.26-.15.621.1,1.055a6.99,6.99,0,0,0,1.226,1.427C2404.181,1152.549,2412.888,1157.52,2412.888,1157.52Z" transform="translate(-2385.817 -1146.699)"/><path class="e" d="M2401.2,1153.413s-3.079,1.271-4.008,3.263-1.45,3.685-2.735,4.293a3.358,3.358,0,0,0-1.363,1.477,3.888,3.888,0,0,1-.826-1.472,4.674,4.674,0,0,1,1.065-2.456c1.914-2.264,3.851-3.9,4.088-4.721.179-.619,1.776-1.443,2.553-1.811a6.994,6.994,0,0,0,1.227,1.427Z" transform="translate(-2386.362 -1150.893)"/><path class="c" d="M2520.262,1157.366s7.492-2.724,11.63-5.782a7.2,7.2,0,0,0,2.514-2.75,1.893,1.893,0,0,0-.587-2.25s-.5-.2-1.769.323c-1.88.78-5.447,3.166-11.564,10.2Z" transform="translate(-2488.634 -1146.545)"/><path class="d" d="M2520.262,1157.52l.427,2.09s14.958,3.734,19.709-1.14c.07-.072.137-.144.2-.218a3.882,3.882,0,0,0,.826-1.472c1.342-4.627-7.6-10.043-7.6-10.043.2.26.15.621-.1,1.055a6.974,6.974,0,0,1-1.226,1.427C2528.969,1152.549,2520.262,1157.52,2520.262,1157.52Z" transform="translate(-2488.634 -1146.699)"/><path class="f" d="M2493.856,1196.539s.7-.791,1.188-.481,1.188-.594,1.937-.232.827-.639,1.732-.087a2.627,2.627,0,0,1,.775,3.264c-.672.9-1.034-.181-1.369,0s-.956.988-1.989.364-2.558.565-2.454-.209A7.752,7.752,0,0,1,2493.856,1196.539Z" transform="translate(-2467.355 -1185.718)"/><rect class="g" width="54.812" height="43.052" transform="translate(1.944 12.837)"/><rect class="h" width="58.699" height="14.939" transform="translate(0 12.837)"/><rect class="i" width="11.791" height="43.052" transform="translate(23.454 12.837)"/></g><path class="j" d="M29.241,0H99.8a29.241,29.241,0,0,1,29.241,29.241V158.7A29.241,29.241,0,0,1,99.8,187.941H29.237A29.237,29.237,0,0,1,0,158.7V29.241A29.241,29.241,0,0,1,29.241,0Z" transform="translate(119.102 54.997)"/><g transform="translate(48.972 102.452)"><path class="b" d="M1487.219,727.3l-12.842-.331a3.241,3.241,0,0,0-2.035.653l-34.958,26.4a3.238,3.238,0,0,0-.633,4.535l9.646,12.773a3.238,3.238,0,0,0,4.535.632l34.958-26.4a3.235,3.235,0,0,0,1.185-1.779l3.2-12.442A3.238,3.238,0,0,0,1487.219,727.3Zm.859,4.7a1.733,1.733,0,1,1,.339-2.426A1.732,1.732,0,0,1,1488.079,731.992Z" transform="translate(-1436.097 -726.964)"/><g transform="translate(12.974 14.413)"><path class="k" d="M1506.542,855.243a5.694,5.694,0,0,1-1.685.881,4.564,4.564,0,0,1-1.77.231l-.04-1.905a1.235,1.235,0,0,0,.427.059,3.963,3.963,0,0,0,.7-.059,4.214,4.214,0,0,0,.844-.239,3.555,3.555,0,0,0,.849-.479,1.836,1.836,0,0,0,.743-.944.983.983,0,0,0-.183-.878.652.652,0,0,0-.378-.252,1.387,1.387,0,0,0-.522-.013,3.973,3.973,0,0,0-.653.159q-.359.117-.779.271a4,4,0,0,1-1.631.3,1.572,1.572,0,0,1-1.151-.684,3.089,3.089,0,0,1-.606-1.34,3.365,3.365,0,0,1,.044-1.375,3.762,3.762,0,0,1,.592-1.284,4.814,4.814,0,0,1,1.038-1.069,4.183,4.183,0,0,1,1.494-.745,4.74,4.74,0,0,1,1.4-.157l0,1.825a1.068,1.068,0,0,0-.346-.048,2.864,2.864,0,0,0-.572.05,3.671,3.671,0,0,0-.676.193,2.737,2.737,0,0,0-.664.37,1.749,1.749,0,0,0-.729.974,1.126,1.126,0,0,0,.23.949.659.659,0,0,0,.318.239.943.943,0,0,0,.437.028,3.063,3.063,0,0,0,.562-.139q.311-.105.713-.262a7.272,7.272,0,0,1,.946-.308,2.871,2.871,0,0,1,.837-.087,1.742,1.742,0,0,1,.731.2,1.962,1.962,0,0,1,.63.565,3.086,3.086,0,0,1,.63,1.395,3.006,3.006,0,0,1-.09,1.346,3.645,3.645,0,0,1-.651,1.216A5.8,5.8,0,0,1,1506.542,855.243Z" transform="translate(-1500.663 -836.263)"/><path class="k" d="M1540.394,837.511a2.333,2.333,0,0,1-.943.443,2.2,2.2,0,0,1-.962-.014,2.606,2.606,0,0,1-.914-.424,3.607,3.607,0,0,1-.791-.777,4.345,4.345,0,0,1-.731-1.474,4.6,4.6,0,0,1-.165-1.576,4.064,4.064,0,0,1,.384-1.462,3.039,3.039,0,0,1,.918-1.133,1.962,1.962,0,0,1,1.172-.429,1.819,1.819,0,0,1,1.11.349l-.5-1.089,1.388-1.048,2.071,4.422a.915.915,0,0,0,.109.21.272.272,0,0,0,.421.04l.643,1.368c-.108.116-.2.215-.286.3a2.185,2.185,0,0,1-.228.2,1.2,1.2,0,0,1-.692.279.678.678,0,0,1-.565-.306,2.5,2.5,0,0,1-.235-.44,3.287,3.287,0,0,1-.337,1.483A3.011,3.011,0,0,1,1540.394,837.511Zm-.271-1.65a1.5,1.5,0,0,0,.328-.353,2.046,2.046,0,0,0,.244-.485,2.966,2.966,0,0,0,.133-.556,2.228,2.228,0,0,0,.006-.574l-.709-1.5a1.606,1.606,0,0,0-.934-.482,1.194,1.194,0,0,0-.921.223,1.657,1.657,0,0,0-.513.656,2.318,2.318,0,0,0-.2.867,2.944,2.944,0,0,0,.112.924,2.478,2.478,0,0,0,.412.836,1.75,1.75,0,0,0,.97.682A1.209,1.209,0,0,0,1540.123,835.861Z" transform="translate(-1528.802 -822.813)"/><path class="k" d="M1564.554,815.118a1.5,1.5,0,0,1-.991.366,1.1,1.1,0,0,1-.808-.488,2.047,2.047,0,0,1-.13-.195c-.04-.068-.082-.144-.125-.231l-3.417-7.325,1.378-1.04,3.164,6.752a1.207,1.207,0,0,0,.063.116,1.285,1.285,0,0,0,.073.107.47.47,0,0,0,.746.1,1.3,1.3,0,0,0,.233-.241,2.24,2.24,0,0,0,.207-.319l.756,1.089a3.817,3.817,0,0,1-.523.719A4.612,4.612,0,0,1,1564.554,815.118Z" transform="translate(-1547.343 -804.696)"/><path class="k" d="M1588.725,805.9a2.986,2.986,0,0,1-1.056.529,2.5,2.5,0,0,1-2.047-.341,3.379,3.379,0,0,1-.843-.8,3.972,3.972,0,0,1-.7-1.479A4.251,4.251,0,0,1,1584,802.2a4.383,4.383,0,0,1,.54-1.547,4.254,4.254,0,0,1,1.148-1.29,2.889,2.889,0,0,1,1.7-.672,1.649,1.649,0,0,1,1.372.729q1.322,1.75-1.807,4.113l-.383.289q-.2.148-.43.292l.1.135a1.856,1.856,0,0,0,.922.7,1.138,1.138,0,0,0,1.045-.253,2.047,2.047,0,0,0,.633-.787,1.9,1.9,0,0,0,.171-.991l1.356-.487a3.652,3.652,0,0,1-.073.958,4.158,4.158,0,0,1-.317.947,4.536,4.536,0,0,1-.532.857A3.927,3.927,0,0,1,1588.725,805.9Zm-2.484-5.379a1.8,1.8,0,0,0-.477.531,1.963,1.963,0,0,0-.238.643,2.647,2.647,0,0,0-.029.7,3.087,3.087,0,0,0,.15.716c.116-.076.226-.154.329-.232l.321-.242a7.275,7.275,0,0,0,.806-.689,2.45,2.45,0,0,0,.442-.578.948.948,0,0,0,.122-.475.72.72,0,0,0-.153-.4.631.631,0,0,0-.568-.279A1.322,1.322,0,0,0,1586.241,800.525Z" transform="translate(-1567.22 -798.692)"/></g></g><rect class="k" width="122" height="165.341" transform="translate(122.623 64.976)"/><g transform="translate(135.439 84.197)"><path class="l" d="M32.68,0H64.757A32.679,32.679,0,0,1,97.436,32.679V58.786a32.68,32.68,0,0,1-32.68,32.68H32.68A32.68,32.68,0,0,1,0,58.786V32.68A32.68,32.68,0,0,1,32.68,0Z"/><g transform="translate(11.552 68.615)"><rect class="m" width="37.762" height="3.761"/></g><g transform="translate(65.211 18.642)"><rect class="m" width="13.239" height="3.761"/></g><g transform="translate(65.211 26.881)"><rect class="m" width="18.882" height="3.761"/></g><g transform="translate(65.211 35.121)"><rect class="m" width="15.478" height="3.761"/></g><g transform="translate(65.211 42.666)"><rect class="m" width="18.344" height="3.761"/></g><g transform="translate(11.552 76.585)"><rect class="m" width="58.898" height="3.761"/></g><g transform="translate(11.552 11.188)"><path class="n" d="M1930.808,693.941a26.341,26.341,0,0,1,8.016-1.909c.437-.044.861-.081,1.279-.119.624-.049,1.23-.087,1.8-.112a4.28,4.28,0,0,0,8.491,0c.562.025,1.166.063,1.791.112.412.037.842.075,1.273.119,4.236.443,9.052,1.529,10.923,4.092,3.644,4.991,4.367,17.78,3.849,42.317h-.782V739.7h-5.075v-1.254h-1.005V732.2h-1.95v2.567H1932.87V732.2h-1.956v6.238h-.9V739.7h-5.075v-1.254h-.885c-.518-24.536.212-37.326,3.85-42.317a7.141,7.141,0,0,1,2.688-2.077Z" transform="translate(-1923.902 -691.801)"/><g transform="translate(16.201)"><path class="o" d="M2016.607,691.913a6.04,6.04,0,0,1-12.079,0c.624-.049,1.23-.087,1.8-.112a4.28,4.28,0,0,0,8.491,0C2015.377,691.826,2015.982,691.863,2016.607,691.913Z" transform="translate(-2004.528 -691.801)"/></g></g><g transform="translate(76.301 66.689)"><path class="p" d="M2261.717,975.8a7.791,7.791,0,1,1-7.792-7.791A7.792,7.792,0,0,1,2261.717,975.8Z" transform="translate(-2246.134 -968.006)"/></g><g transform="translate(79.885 71.616)"><path class="k" d="M2267.415,999.014l-3.447-3.447,1.519-1.52,1.927,1.927,3.449-3.449,1.52,1.52Z" transform="translate(-2263.969 -992.524)"/></g></g><g transform="translate(77.794 145.275)"><path class="q" d="M1626.305,940.08h-43.424a3.348,3.348,0,0,0-3.348,3.348V982.96a3.348,3.348,0,0,0,3.348,3.348h43.424a3.349,3.349,0,0,0,3.349-3.348V943.428A3.348,3.348,0,0,0,1626.305,940.08Z" transform="translate(-1579.533 -940.08)"/><g transform="translate(5.943 34.473)"><rect class="m" width="19.425" height="1.935"/></g><g transform="translate(5.943 38.573)"><rect class="m" width="30.297" height="1.935"/></g><g transform="translate(39.249 33.483)"><path class="p" d="M1782.876,1110.719a4.008,4.008,0,1,1-4.008-4.008A4.007,4.007,0,0,1,1782.876,1110.719Z" transform="translate(-1774.861 -1106.711)"/></g><g transform="translate(41.143 36.068)"><path class="k" d="M1786.01,1122.76l-1.723-1.722.68-.68,1.043,1.042,1.825-1.825.679.68Z" transform="translate(-1784.287 -1119.575)"/></g><g transform="translate(12.362 5.149)"><path class="r" d="M1666.45,976.087H1662.3v13.822h-17.1V976.087h-4.147c0-8.714,2.972-8.392,4.147-9.072a19.03,19.03,0,0,1,4.409-1.157c.29-.054.577-.107.86-.154a3.322,3.322,0,0,0,6.565,0c.283.047.569.1.86.154a19.024,19.024,0,0,1,4.409,1.157C1663.478,967.695,1666.45,967.372,1666.45,976.087Z" transform="translate(-1641.053 -965.703)"/><g transform="translate(8.556)"><path class="s" d="M1691.919,965.857a4.145,4.145,0,0,1-8.285,0c.29-.054.576-.107.86-.154a3.322,3.322,0,0,0,6.565,0C1691.342,965.75,1691.628,965.8,1691.919,965.857Z" transform="translate(-1683.634 -965.703)"/></g></g></g><g transform="translate(241.052 86.018)"><path class="t" d="M14.613,0H28.959A14.613,14.613,0,0,1,43.571,14.613V26.289A14.612,14.612,0,0,1,28.959,40.9H14.612A14.612,14.612,0,0,1,0,26.289V14.613A14.613,14.613,0,0,1,14.613,0Z"/><rect class="m" width="8.203" height="1.682" transform="translate(26.305 8.337)"/><rect class="m" width="6.013" height="1.682" transform="translate(26.305 12.021)"/><rect class="m" width="10.072" height="1.682" transform="translate(26.305 15.705)"/><rect class="m" width="10.072" height="1.682" transform="translate(26.305 22.453)"/><rect class="m" width="7.295" height="1.682" transform="translate(26.305 19.079)"/><circle class="p" cx="3.484" cy="3.484" r="3.484" transform="translate(28.739 28.005) rotate(-1.59)"/><g transform="translate(30.437 30.11)"><path class="k" d="M2545.022,797.928l-1.541-1.542.679-.68.861.862,1.543-1.542.68.679Z" transform="translate(-2543.481 -795.026)"/></g><g transform="translate(6.153 5.514)"><rect class="u" width="2.468" height="1.684" transform="translate(11.11 28.19)"/><rect class="u" width="2.468" height="1.684" transform="translate(0.446 28.19)"/><rect class="u" width="10.561" height="1.421" transform="translate(1.727)"/><path class="v" d="M2435.174,676.156H2424.1s-1.582,22.791-1.464,28.651h3.34s1.7-19.531,3.662-19.531,3.662,19.531,3.662,19.531h3.34C2436.756,698.947,2435.174,676.156,2435.174,676.156Z" transform="translate(-2422.63 -675.445)"/></g></g><g transform="translate(216.78 133.156)"><g transform="translate(59.007 62.25)"><path class="w" d="M2566.984,1190.164a4.4,4.4,0,0,0-.569,1.506,7.229,7.229,0,0,1-.7,1.779,16.952,16.952,0,0,0-.845,2.964,13.747,13.747,0,0,1,.4,1.985c-.068.429-.313,1.28.073,1.336s.823-.64.823-.64a.565.565,0,0,0,.29.546.956.956,0,0,0,.97.035s.233.435.527.494a1.2,1.2,0,0,0,.965-.13,1.169,1.169,0,0,0,.733.235.961.961,0,0,0,.813-.505s.725.147.935-.192a3.25,3.25,0,0,0,.26-1,11.713,11.713,0,0,0-.918-5.067,4.487,4.487,0,0,1,.239-3.936Z" transform="translate(-2564.874 -1189.568)"/></g><g transform="translate(60.197 67.858)"><path class="x" d="M2570.8,1221.133s-.064-2.484.589-3.012.727.367.727.367-.088-.886.626-1.005.744.933.744.933a.691.691,0,0,1,.867-.543c.75.14.571,1.012.571,1.012s.717-.855,1.182-.034a3.7,3.7,0,0,1,.062,3.016s-.254.382-.969.2a.988.988,0,0,1-1.548.3s-1.1.608-1.5-.357A.912.912,0,0,1,2570.8,1221.133Z" transform="translate(-2570.796 -1217.474)"/></g><path class="y" d="M2532.159,991.456s4.251,14.167,5.687,19.393c.45,1.639,1.541,17.291,1.734,17.922s5.584,1.493,5.584,1.493-.654-19.58-.715-20.648-5.949-22.933-7.662-23.714c-1.283-.584-1.96-.1-3.577,1.1C2530.943,988.685,2532.159,991.456,2532.159,991.456Z" transform="translate(-2479.466 -964.378)"/><g transform="translate(56.143 123.463)"><path class="z" d="M2550.621,1494.546s.387,2.69.436,3.093,4.311-.238,4.311-.238l.345-3.2S2551.154,1494.167,2550.621,1494.546Z" transform="translate(-2550.621 -1494.199)"/></g><g transform="translate(49.138 126.379)"><path class="aa" d="M2523.154,1508.893a11.5,11.5,0,0,1-2.656,2.327c-1.306.707-3.358.986-4.131,1.717-.557.528-2.03,2.8,3.394,2.754s8.04.321,8.621-.55-.841-6.431-.841-6.431A11.476,11.476,0,0,1,2523.154,1508.893Z" transform="translate(-2515.758 -1508.711)"/></g><g transform="translate(25.606 123.463)"><path class="z" d="M2398.648,1494.546s.387,2.69.436,3.093,4.311-.238,4.311-.238l.344-3.2S2399.18,1494.167,2398.648,1494.546Z" transform="translate(-2398.648 -1494.199)"/></g><g transform="translate(16.095 126.379)"><path class="aa" d="M2361.217,1508.893a11.5,11.5,0,0,1-2.656,2.327c-1.306.707-6.112,1.287-6.885,2.017-.558.528-1.485,2.652,6.147,2.454,5.423-.141,8.04.321,8.621-.55s-.841-6.431-.841-6.431S2364.393,1509.205,2361.217,1508.893Z" transform="translate(-2351.315 -1508.711)"/></g><g transform="translate(42.835 54.702)"><path class="aa" d="M2494.171,1152s4,6.363,3.706,12.114,1.453,12.031,2.054,18.039c.67,6.7,3.415,22.554,3.514,26.137s-.426,15.023-.426,15.023l-5.493.126s-4.615-27.721-5.81-30.55-7.122-22.994-7.32-25.256S2494.171,1152,2494.171,1152Z" transform="translate(-2484.393 -1152)"/></g><g transform="translate(24.863 53.605)"><path class="aa" d="M2401.623,1148.5s-3.018,15.763-3.417,19.283-.663,17.035-.862,19.235-1.861,28.724-2.391,32.058h7.024s5.392-19.33,5.392-28.475,4.165-19.883,6.854-25.917,8.844-6.177,10.5-17.372C2424.719,1147.315,2403.859,1144.953,2401.623,1148.5Z" transform="translate(-2394.953 -1146.545)"/></g><g transform="translate(36.358 0.716)"><path class="w" d="M2461.732,883.828s-5.375-2.008-7.854,2.084-2.239,12.283.47,13.29,6.779.481,8.166-2.08,2.64-6.262,2.58-8.735A5.388,5.388,0,0,0,2461.732,883.828Z" transform="translate(-2452.159 -883.336)"/></g><g transform="translate(38.972 11.669)"><path class="w" d="M2465.325,942.945a4.65,4.65,0,0,1-.146,2.166c-.369.715,6.963.734,6.963.734a48.339,48.339,0,0,1,1.724-7.174C2475,935.385,2465.325,942.945,2465.325,942.945Z" transform="translate(-2465.166 -937.843)"/></g><g transform="translate(36.589 0.097)"><path class="y" d="M2464.391,892.653s-.506.835-2.572.51-4.586-3.073-5.449-3.375-.871-.808-.871-.808l-.54.789-.917.058s.836-2.459-.425-3.462,1.309-7.959,7.934-5.643c0,0,5.089,1.4,4.9,4.3S2465.53,891.211,2464.391,892.653Z" transform="translate(-2453.307 -880.253)"/></g><g transform="translate(38.55 16.841)"><path class="ab" d="M2463.065,965.592s.024-1.366.642-1.5,6.834-.729,7.594-.43v1.592S2469.837,966.158,2463.065,965.592Z" transform="translate(-2463.065 -963.583)"/></g><g transform="translate(38.755 6.716)"><path class="w" d="M2464.248,914.25c.116-.485,1.35-1.872,1.823-.387s-.714,3.483-1.376,3.313S2463.954,915.481,2464.248,914.25Z" transform="translate(-2464.085 -913.195)"/></g><g transform="translate(13.859 34.988)"><path class="y" d="M2340.212,1053.9h.01C2340.179,1053.914,2340.174,1053.916,2340.212,1053.9Z" transform="translate(-2340.186 -1053.895)"/></g><g transform="translate(47.462 1.692)"><path class="y" d="M2507.42,888.19s6.853.536.21,10.8Z" transform="translate(-2507.42 -888.19)"/></g><path class="ac" d="M2271.974,883.547a1.478,1.478,0,0,1,.956-.887,2.369,2.369,0,0,1,1.1-.707.991.991,0,0,1,.046-.094c-.486-.522-1.9-1.5-1.981-1.683-.1-.225-.075-.25.2-.4.229-.125,2.535,1.375,3.3,1.884.188.119.342.23.373.256a5.883,5.883,0,0,1,1.006.692,1.4,1.4,0,0,1,.116.133,30.174,30.174,0,0,1,1.28,4.395l-1.6.72-1.547,1.312s-1.805-1.495-2.269-1.965a4.672,4.672,0,0,1-.8-1.249,2.367,2.367,0,0,0-.152-.226c-.21-.284-.528-.664-.528-.664a2.547,2.547,0,0,1-.251-.771C2271.249,883.835,2271.974,883.547,2271.974,883.547Z" transform="translate(-2271.217 -879.77)"/><g transform="translate(2.688 6.715)"><path class="y" d="M2310.176,927.393c4.261-.562,10.28-2.068,10.28-2.068l8.236-.336s7.56,1.664,10.536,3.008c.282.128.284,6.744,1.059,8.479l-2.468,5.207s-1.427,10.314-1.722,14.9c-.136,2.106,2.941,19.747,2.941,19.747a56.947,56.947,0,0,1-8.918,1.59c-5.621.619-19.667-.224-19.755-.888s2.719-24.722,2.844-25.968c.191-1.912-.658-12.074-.658-12.074-1.3-1.006-12.694-6.3-15.8-9.052-.833-.738-4.344-4.158-5.343-5.339a95.81,95.81,0,0,1-6.785-8.539c-.4-.44,3.842-2.745,4.226-2.873.336-.113,5.115,6.079,6.954,8.071a51.5,51.5,0,0,0,4.229,3.368S2307.511,927.545,2310.176,927.393Z" transform="translate(-2284.594 -913.188)"/></g></g><g transform="translate(260.863 56.92)"><path class="ad" d="M2513.156,504.716l-.665,7.742L2490.6,510.58l.875-10.21,19.42,1.666.1.114,2.061,2.446Z" transform="translate(-2490.603 -500.371)"/><path class="ae" d="M2593.1,511.427l-2.449-.21.21-2.448.04.048.092.109,1.954,2.32Z" transform="translate(-2570.548 -507.082)"/><path class="ae" d="M2539.362,521.176a2.363,2.363,0,1,1-2.152-2.557A2.363,2.363,0,0,1,2539.362,521.176Z" transform="translate(-2525.794 -514.945)"/><path class="ae" d="M2574.2,529.125a1,1,0,1,1-.911-1.081A1,1,0,0,1,2574.2,529.125Z" transform="translate(-2555.812 -522.48)"/><path class="ae" d="M2510.661,523.674a1,1,0,1,1,.91,1.081A1,1,0,0,1,2510.661,523.674Z" transform="translate(-2506.627 -518.261)"/></g><g transform="translate(289.221 45.016)"><path class="ad" d="M2652.267,442.14l3.668,6.849-19.366,10.373-4.838-9.033,17.182-9.2.144.043,3.062.925Z" transform="translate(-2631.73 -441.126)"/><path class="ae" d="M2720.7,442.172l-2.167,1.161-1.159-2.166.06.018.135.041,2.9.877Z" transform="translate(-2700.167 -441.159)"/><path class="ae" d="M2683.9,473.476a2.363,2.363,0,1,1-3.2-.968A2.363,2.363,0,0,1,2683.9,473.476Z" transform="translate(-2669.861 -465.978)"/><path class="ae" d="M2715.349,464.96a1,1,0,1,1-1.353-.409A1,1,0,0,1,2715.349,464.96Z" transform="translate(-2697.045 -459.749)"/><path class="ae" d="M2659.128,495.074a1,1,0,1,1,1.353.409A1,1,0,0,1,2659.128,495.074Z" transform="translate(-2653.528 -483.058)"/></g><g transform="translate(271.367 21.949)"><path class="ad" d="M2565.1,341.523l-4.674,6.207-17.552-13.215,6.163-8.186,15.572,11.724.021.148.447,3.168Z" transform="translate(-2542.875 -326.33)"/><path class="ae" d="M2645.672,388.256l-1.964-1.479,1.478-1.963.009.062.02.141.425,3Z" transform="translate(-2623.447 -373.063)"/><path class="ae" d="M2593.7,371.094a2.363,2.363,0,1,1-.467-3.31A2.363,2.363,0,0,1,2593.7,371.094Z" transform="translate(-2580.089 -359.075)"/><path class="ae" d="M2622.712,394.278a1,1,0,1,1-.2-1.4A1,1,0,0,1,2622.712,394.278Z" transform="translate(-2605.233 -379.346)"/><path class="ae" d="M2571.76,355.917a1,1,0,1,1,.2,1.4A1,1,0,0,1,2571.76,355.917Z" transform="translate(-2565.795 -349.654)"/></g><g transform="translate(295.011)"><path class="ad" d="M2680.323,217.829l4.229,6.518-18.429,11.959-5.578-8.6L2676.9,217.1l.147.031,3.128.665Z" transform="translate(-2660.545 -217.1)"/><path class="ae" d="M2745.457,217.852l-2.062,1.338-1.337-2.061.061.013.139.03,2.968.631Z" transform="translate(-2725.679 -217.123)"/><path class="ae" d="M2712.156,251.307a2.364,2.364,0,1,1-3.269-.7A2.363,2.363,0,0,1,2712.156,251.307Z" transform="translate(-2698.312 -243.573)"/><path class="ae" d="M2742.351,240.661a1,1,0,1,1-1.382-.294A1,1,0,0,1,2742.351,240.661Z" transform="translate(-2724.444 -235.563)"/><path class="ae" d="M2688.849,275.377a1,1,0,1,1,1.382.295A1,1,0,0,1,2688.849,275.377Z" transform="translate(-2683.033 -262.434)"/></g><g transform="translate(117.22 49.362)"><path class="b" d="M1775.745,462.758v21.066s3.561,5.935,7.812,0h7.813s3.561,5.935,7.812,0h7.813s3.56,5.935,7.812,0h7.812s3.561,5.935,7.812,0h7.812s3.561,5.935,7.812,0h7.812s3.561,5.935,7.812,0h7.812s3.561,5.935,7.812,0h7.812s3.561,5.935,7.812,0h7.812s3.561,5.935,7.813,0V462.758Z" transform="translate(-1775.745 -462.758)"/><g transform="translate(7.812)"><path class="af" d="M1814.621,483.824s3.561,5.935,7.813,0V462.758h-7.812Z" transform="translate(-1814.621 -462.758)"/><path class="af" d="M1892.377,483.824s3.56,5.935,7.812,0V462.758h-7.812Z" transform="translate(-1876.753 -462.758)"/><path class="af" d="M1970.134,483.824s3.56,5.935,7.812,0V462.758h-7.812Z" transform="translate(-1938.885 -462.758)"/><path class="af" d="M2047.89,483.824s3.56,5.935,7.812,0V462.758h-7.812Z" transform="translate(-2001.017 -462.758)"/><path class="af" d="M2125.643,483.824s3.56,5.935,7.812,0V462.758h-7.812Z" transform="translate(-2063.146 -462.758)"/><path class="af" d="M2203.4,483.824s3.561,5.935,7.812,0V462.758H2203.4Z" transform="translate(-2125.277 -462.758)"/><path class="af" d="M2281.154,483.824s3.56,5.935,7.812,0V462.758h-7.812Z" transform="translate(-2187.409 -462.758)"/><path class="af" d="M2358.911,462.758v21.066s3.561,5.935,7.812,0V462.758Z" transform="translate(-2249.542 -462.758)"/></g></g><path class="p" d="M6.082,0H32.911a6.082,6.082,0,0,1,6.082,6.082v0a6.083,6.083,0,0,1-6.083,6.083H6.082A6.082,6.082,0,0,1,0,6.083v0A6.082,6.082,0,0,1,6.082,0Z" transform="translate(188.735 187.579)"/><path class="ag" d="M1926.18,1150.613h-29.324a4.835,4.835,0,0,0-4.835,4.834v2.5a4.835,4.835,0,0,0,4.835,4.835h29.324a4.835,4.835,0,0,0,4.834-4.835v-2.5A4.835,4.835,0,0,0,1926.18,1150.613Z" transform="translate(-1751.436 -963.034)"/><path class="p" d="M1973.082,1261.4H1898.1a6.083,6.083,0,0,1-6.083-6.083h0a6.082,6.082,0,0,1,6.083-6.082h74.978a6.082,6.082,0,0,1,6.082,6.082h0A6.082,6.082,0,0,1,1973.082,1261.4Z" transform="translate(-1751.436 -1041.841)"/><rect class="k" width="25.268" height="2.893" transform="translate(147.448 192.215)"/><path class="k" d="M2172.975,1176.577H2160.3a1.446,1.446,0,0,1-1.447-1.446h0a1.446,1.446,0,0,1,1.447-1.447h12.679a1.446,1.446,0,0,1,1.447,1.447h0A1.446,1.446,0,0,1,2172.975,1176.577Z" transform="translate(-1964.649 -981.469)"/><path class="m" d="M1907.859,660.106H1896a1.446,1.446,0,0,1-1.446-1.446h0a1.446,1.446,0,0,1,1.446-1.447h11.856a1.446,1.446,0,0,1,1.446,1.447h0A1.446,1.446,0,0,1,1907.859,660.106Z" transform="translate(-1753.463 -568.777)"/><path class="k" d="M2277.433,1163.761h-2.24a1.446,1.446,0,0,1-1.446-1.447h0a1.446,1.446,0,0,1,1.446-1.447h2.24a1.446,1.446,0,0,1,1.446,1.447h0A1.446,1.446,0,0,1,2277.433,1163.761Z" transform="translate(-2056.458 -971.228)"/><path class="p" d="M1933.234,1265.869a3.43,3.43,0,1,1-3.43-3.43A3.43,3.43,0,0,1,1933.234,1265.869Z" transform="translate(-1778.886 -1052.39)"/><g transform="translate(332.176 227.868)"><path class="ah" d="M2849.91,1361.384c-2.432,0-4.41-2.3-4.41-5.133s1.979-5.132,4.41-5.132,4.41,2.3,4.41,5.132S2852.342,1361.384,2849.91,1361.384Zm0-9.857c-2.207,0-4,2.119-4,4.723s1.8,4.725,4,4.725,4-2.12,4-4.725S2852.116,1351.527,2849.91,1351.527Z" transform="translate(-2845.5 -1351.118)"/></g><g transform="translate(325.524 233.001)"><rect class="af" width="22.124" height="32.096"/></g><g transform="translate(309.382 220.206)"><path class="ah" d="M2737.383,1325.362c-2.932,0-5.318-2.776-5.318-6.189s2.385-6.188,5.318-6.188,5.317,2.776,5.317,6.188S2740.315,1325.362,2737.383,1325.362Zm0-11.886c-2.661,0-4.826,2.556-4.826,5.7s2.165,5.7,4.826,5.7,4.825-2.556,4.825-5.7S2740.043,1313.477,2737.383,1313.477Z" transform="translate(-2732.065 -1312.985)"/></g><g transform="translate(301.361 226.394)"><rect class="ai" width="26.678" height="38.703"/></g><g transform="translate(0 133.591)"><path class="aj" d="M1201.956,1509.239a12.023,12.023,0,0,1-1.342,2.451c-.615.7-2.965,1.94-2.978,4.006-.014,2.241,3.964,1.619,5.519,1.537s1.673-1.279,2.328-2.548,1.315-1.054,1.438-2.077a13.02,13.02,0,0,0-.5-3.314Z" transform="translate(-1196.58 -1383.189)"/><g transform="translate(36.643 126.05)"><path class="aj" d="M1380.13,1509.641a10.616,10.616,0,0,0,4.366,2.752c2.2.477,3.738,1.085,3.755,2.39s-6.33,2.166-8.847.849c-3.757-1.964-4.139-1.372-4.555-2.354s.5-3.608.473-3.92C1375.289,1508.973,1380.13,1509.641,1380.13,1509.641Z" transform="translate(-1374.74 -1509.239)"/></g><g transform="translate(4.269 56.028)"><path class="ak" d="M1245.612,1165.5s2.275,16.529,3.2,22.117c1.087,6.534,1.455,11.932,1.758,15.314.381,4.253,1.113,26.617,1.38,27.861s-5.954.624-5.954.624-4.512-29-5.648-33.53c-1.057-4.218-3.965-21.606-4.929-20.455s-7.021,21.5-7.736,24.823-7.6,29.37-7.6,29.37-5.149,1.106-6.458.063c0,0,4.493-23.926,4.948-30.162.173-2.377,1.581-28.336,5.6-38.852C1226.3,1157.111,1245.612,1165.5,1245.612,1165.5Z" transform="translate(-1213.627 -1160.765)"/></g><path class="al" d="M1270.823,986.212s6.022,1.245,6.736,1.878c.776.674,2.144,7.269,2.225,9.106a70.876,70.876,0,0,1-1.5,12.369c-.776,2.858-.6,17.773-.251,20.12a85.388,85.388,0,0,1-24,.811s2.061-12.954,1.583-16.87c-.611-5.016-2.082-16.574-2.082-16.574s1.593-7.782,2.654-8.681,8.44-2.359,8.44-2.359Z" transform="translate(-1241.246 -965.098)"/><path class="w" d="M1303.443,892.986s7.243-2.681,6.791,6.945-2.15,10.6-6.915,9.259-5.164-7.419-5.784-10.342S1301.074,893.406,1303.443,892.986Z" transform="translate(-1276.355 -890.491)"/><path class="w" d="M1311.972,954.35s-3.763,3.052-7.388-1.725a25.593,25.593,0,0,0-.949-7.494c-1.109-3.619,7.585,4.826,7.585,4.826-.091.064-.108.426-.057.93a10.246,10.246,0,0,0,.279,1.5C1311.759,953.593,1311.685,953.378,1311.972,954.35Z" transform="translate(-1281.201 -931.712)"/><path class="am" d="M1294.758,895.586s-.02-2.571,1.049-2.809,1.62,1.25,1.62,1.25l.861-.046s-.769-2.606.25-3.2,7.118-.072,7.884-.95-.344-6.087-2.008-6.6-6.209-1.548-9.1,1.022c0,0-2.585.017-2.579,3.116A24.1,24.1,0,0,0,1294.758,895.586Z" transform="translate(-1272.573 -882.454)"/><path class="an" d="M1317.161,968.159c-5.614-.944-6.453-4.137-6.466-4.187,2.183,2.814,6.188,2.69,6.188,2.69A10.261,10.261,0,0,0,1317.161,968.159Z" transform="translate(-1286.921 -947.487)"/><path class="w" d="M1306.26,925.724c-.32-.848-2.127-.742-1.942.6s1.679,3.415,2.278,3.027S1306.7,926.893,1306.26,925.724Z" transform="translate(-1281.815 -916.492)"/><path class="w" d="M1299.025,985.206s3.4,6.864,8.395,6.309,2.1-5.346,1.624-6.11C1309.044,985.405,1306.044,983.48,1299.025,985.206Z" transform="translate(-1277.596 -963.88)"/><g transform="translate(33.257 22.357)"><path class="al" d="M1371.536,1012.823c2.8,1.3,13.533,3.966,13.533,3.966l.739-4.427s-5.431-2.118-9.169-3.078a30.231,30.231,0,0,1-3.909-1.272c-.291-.15-6.26-7.4-6.709-8.194s-1.526-3.405-3.107-4.84a7.927,7.927,0,0,0-3.568-1.779c-3.954,3.342,1.393,9.667,1.393,9.667S1367.606,1011,1371.536,1012.823Z" transform="translate(-1357.889 -993.199)"/></g><path class="ao" d="M20.956,0H72.965A20.955,20.955,0,0,1,93.92,20.955V48.489A20.953,20.953,0,0,1,72.967,69.442H20.953A20.953,20.953,0,0,1,0,48.489V20.956A20.956,20.956,0,0,1,20.956,0Z" transform="translate(0 36.168)"/><g transform="translate(2.617 38.061)"><path class="ap" d="M1289.044,1137h-1.286v-.32h1.286Zm-2.572,0h-1.286v-.32h1.286Zm-2.572,0h-1.286v-.32h1.286Zm-2.572,0h-1.286v-.32h1.286Zm-2.571,0h-1.286v-.32h1.286Zm-2.572,0H1274.9v-.32h1.286Zm-2.572,0h-1.285v-.32h1.285Zm-2.572,0h-1.286v-.32h1.286Zm-2.571,0h-1.286v-.32h1.286Zm-2.572,0h-1.286v-.32h1.286Zm-2.571,0h-1.286v-.32h1.286Zm-2.572,0h-1.286v-.32h1.286Zm-2.572,0H1256.9v-.32h1.286Zm-2.571,0h-1.286v-.32h1.286Zm-2.572,0h-1.286v-.32h1.286Zm-2.572,0h-1.286v-.32h1.286Zm-2.572,0h-1.285v-.32h1.285Zm-2.571,0h-1.286v-.32h1.286Zm-2.572,0h-1.286v-.32h1.286Zm-2.572,0H1238.9v-.32h1.286Zm-2.572,0h-1.286v-.32h1.286Zm-2.572,0h-1.286v-.32h1.286Zm-2.572,0h-1.286v-.32h1.286Zm-2.572,0h-1.286v-.32h1.286Zm-2.572,0h-1.286v-.32h1.286Zm-2.572,0h-1.286v-.32h1.286Zm-2.572,0H1220.9v-.32h1.286Zm-2.572,0h-1.285v-.32h1.285Zm-2.572,0h-1.286v-.32h1.286Zm-2.571,0h-1.286v-.32h1.286Zm-2.572,0h-1.286v-.32h1.286Zm-2.573,0a3.924,3.924,0,0,1-1.313-.232l.108-.3a3.6,3.6,0,0,0,1.207.213Zm81.014,0-.015-.32a3.573,3.573,0,0,0,1.2-.264l.122.3A3.9,3.9,0,0,1,1290.338,1137Zm-83.487-.885a3.952,3.952,0,0,1-.875-1.006l.273-.166a3.644,3.644,0,0,0,.8.925Zm85.921-.108-.214-.239a3.63,3.63,0,0,0,.764-.957l.281.154A3.943,3.943,0,0,1,1292.771,1136.006Zm-87.284-2.139a3.946,3.946,0,0,1-.083-.805v-.507h.32v.507a3.636,3.636,0,0,0,.076.74Zm88.553-.163-.317-.052a3.6,3.6,0,0,0,.048-.59v-.667h.321v.667A4.045,4.045,0,0,1,1294.039,1133.7Zm-88.315-2.435h-.32v-1.286h.32Zm88.367-.159h-.321v-1.286h.321Zm-88.367-2.413h-.32v-1.286h.32Zm88.367-.159h-.321v-1.286h.321Zm-88.367-2.412h-.32v-1.286h.32Zm88.367-.16h-.321v-1.286h.321Zm-88.367-2.412h-.32v-1.286h.32Zm88.367-.159h-.321v-1.286h.321Zm-88.367-2.413h-.32V1119.7h.32Zm88.367-.159h-.321v-1.286h.321Zm-88.367-2.413h-.32v-1.285h.32Zm88.367-.159h-.321v-1.286h.321Zm-88.367-2.412h-.32v-1.286h.32Zm88.367-.16h-.321v-1.285h.321Zm-88.367-2.412h-.32v-1.286h.32Zm88.367-.159h-.321v-1.286h.321Zm-88.367-2.413h-.32v-1.286h.32Zm88.367-.159h-.321v-1.286h.321Zm-88.367-2.412h-.32v-1.286h.32Zm88.367-.16h-.321v-1.286h.321Zm-88.367-2.412h-.32v-1.285h.32Zm88.367-.16h-.321v-1.286h.321Zm-88.367-2.412h-.32V1101.7h.32Zm88.367-.159h-.321v-1.286h.321Zm-88.367-2.412h-.32v-1.286h.32Zm88.367-.159h-.321v-1.286h.321Zm-88.367-2.412h-.32v-1.286h.32Zm88.367-.159h-.321v-1.286h.321Zm-88.367-2.412h-.32v-1.286h.32Zm88.367-.16h-.321v-1.286h.321Zm-88.367-2.412h-.32v-1.286h.32Zm88.367-.16h-.321v-1.285h.321Zm-88.367-2.412h-.32v-1.286h.32Zm88.367-.159h-.321v-1.286h.321Zm-88.367-2.413h-.32v-1.286h.32Zm88.367-.159h-.321v-1.286h.321Zm-88.367-2.412h-.32v-1.286h.32Zm88.367-.16h-.321v-1.286h.321Zm-88.367-2.412h-.32v-1.286h.32Zm88.367-.159h-.321v-1.286h.321Zm-88.367-2.413h-.32v-1.286h.32Zm88.367-.159h-.321v-1.286h.321Zm-88.367-2.413h-.32v-1.285h.32Zm88.367-.159h-.321v-1.286h.321Zm-88.322-2.385-.317-.05a3.924,3.924,0,0,1,.428-1.263l.282.153A3.567,3.567,0,0,0,1205.769,1074.72Zm87.93-.149a3.608,3.608,0,0,0-.443-1.142l.275-.164a3.911,3.911,0,0,1,.483,1.244Zm-86.778-1.972-.215-.238a3.935,3.935,0,0,1,1.127-.713l.123.3A3.615,3.615,0,0,0,1206.922,1072.6Zm85.536-.1a3.614,3.614,0,0,0-1.061-.611l.11-.3a3.934,3.934,0,0,1,1.155.665Zm-83.306-.826-.016-.32c.07,0,.14-.006.211-.006h1.083v.32h-1.083C1209.281,1071.668,1209.216,1071.67,1209.151,1071.674Zm81.038,0h-1.327v-.32h1.333Zm-2.612,0h-1.286v-.32h1.286Zm-2.572,0h-1.286v-.32h1.286Zm-2.571,0h-1.286v-.32h1.286Zm-2.572,0h-1.286v-.32h1.286Zm-2.572,0h-1.286v-.32h1.286Zm-2.572,0h-1.285v-.32h1.285Zm-2.571,0h-1.286v-.32h1.286Zm-2.572,0h-1.286v-.32h1.286Zm-2.572,0h-1.286v-.32H1267Zm-2.571,0h-1.286v-.32h1.286Zm-2.572,0h-1.286v-.32h1.286Zm-2.571,0H1258v-.32h1.286Zm-2.572,0h-1.285v-.32h1.285Zm-2.571,0h-1.286v-.32h1.286Zm-2.572,0h-1.286v-.32h1.286Zm-2.572,0h-1.286v-.32H1249Zm-2.571,0h-1.286v-.32h1.286Zm-2.572,0h-1.286v-.32h1.286Zm-2.572,0H1240v-.32h1.286Zm-2.572,0h-1.286v-.32h1.286Zm-2.572,0h-1.286v-.32h1.286Zm-2.572,0h-1.286v-.32h1.286Zm-2.572,0h-1.286v-.32H1231Zm-2.572,0h-1.285v-.32h1.285Zm-2.572,0h-1.286v-.32h1.286Zm-2.572,0H1222v-.32h1.286Zm-2.572,0h-1.286v-.32h1.286Zm-2.571,0h-1.286v-.32h1.286Zm-2.572,0h-1.286v-.32h1.286Zm-2.571,0h-1.286v-.32H1213Z" transform="translate(-1205.404 -1071.348)"/></g><g transform="translate(122.073 0.029)"><path class="am" d="M1803.093,882.522s2.468-1.583,4.693,1.232,1.425,5.52.96,8.047c-.461,2.505-2.7,8.239-1.751,10.765s-.265,3.84-.265,3.84-7.652,1.959-6.76-9.55S1803.093,882.522,1803.093,882.522Z" transform="translate(-1799.897 -882.078)"/></g><path class="aq" d="M1577.657,1117.689s5.306-3.317,7.006-3.47,5.855-.8,6.133.385.093,1.968-1.728,2.335-5.151-.714-6.25-.418S1577,1119.177,1577.657,1117.689Z" transform="translate(-1500.191 -1067.293)"/><path class="aq" d="M1630.227,1101.27s5.011-1.5,6.85-3.1,1.965,3.22,1.965,3.22l-6.905,1.94Z" transform="translate(-1542.247 -1054.462)"/><g transform="translate(90.141 22.157)"><path class="ai" d="M1672.829,992.252a7.493,7.493,0,0,0-4.869,1.067c-1.956,1.465-3.293,4.212-3.89,5.073s-7.581,8.569-7.928,8.709-4.695,2.538-7.623,4.475-7.54,4.271-7.54,4.271l2.5,3.069s12.326-4.413,14.89-6.8c2.739-2.548,15.4-15.194,15.4-15.194S1676.958,994.351,1672.829,992.252Z" transform="translate(-1640.98 -992.202)"/></g><g transform="translate(98.032 122.679)"><path class="ar" d="M1683.011,1499.191s-3.151,4.243-2.719,4.915,3.747.768,5.764,0,2.065-5.741,2.978-7.878c.381-.895-.436-3.535-1.585-3.726a4.847,4.847,0,0,0-2.4.371S1686.242,1495.883,1683.011,1499.191Z" transform="translate(-1680.252 -1492.462)"/></g><g transform="translate(99.751 122.618)"><path class="w" d="M1691.862,1492.6a19.986,19.986,0,0,0-.905,3.532c-.2,1.431-2.246,4.469-2.15,4.854s2.69.732,3.747-.258,1.737-3.872,1.969-5.595a13.763,13.763,0,0,1,.491-2.4S1692.87,1491.539,1691.862,1492.6Z" transform="translate(-1688.804 -1492.158)"/></g><g transform="translate(106.323 126.072)"><path class="ar" d="M1722.089,1509.348v4.442h-.576v-3.433Z" transform="translate(-1721.513 -1509.348)"/></g><g transform="translate(125.577 122.681)"><path class="ar" d="M1819.979,1499.269s-3.038,4.172-2.606,4.845,3.747.769,5.764,0,2.065-5.741,2.977-7.877c.383-.895-.435-3.534-1.585-3.726a5.164,5.164,0,0,0-2.5.412S1823.209,1495.961,1819.979,1499.269Z" transform="translate(-1817.332 -1492.473)"/></g><g transform="translate(127.297 122.524)"><path class="w" d="M1828.872,1492.3a28.337,28.337,0,0,1-.625,3.362c-.384,1.394-2.449,4.563-2.353,4.948s2.69.732,3.747-.258,1.873-3.859,1.969-5.595a9.239,9.239,0,0,0-.24-2.869A2.347,2.347,0,0,0,1828.872,1492.3Z" transform="translate(-1825.891 -1491.69)"/></g><g transform="translate(133.869 126.072)"><path class="ar" d="M1859.175,1509.348v4.442h-.576v-3.433Z" transform="translate(-1858.599 -1509.348)"/></g><g transform="translate(102.471 44.883)"><path class="as" d="M1714.969,1114.472s-2.7,12.581-3.326,15.749-2.361,18.509-2.547,21.117-2.822,12.438-2.7,13.37-4.056,19.42-4.056,19.42,4.3,1.17,5.026.381c.615-.669,6.8-17.575,6.8-22.233,0-6.439,4.857-14.637,5.471-16.078,5.707-13.383,4.488-17.682,5.234-18.551s.809.537,1.245,2.462,1.366,18.572,1.924,20.683.125,9.254.436,12.857.669,19.743.669,19.743,3.115.716,4.6.025c.427-.2,1.5-17.98,1.566-22.266s.129-10.2.249-12.05c1.151-17.76,3.979-20.3-.475-32.865C1726.74,1092.7,1714.969,1114.472,1714.969,1114.472Z" transform="translate(-1702.343 -1105.3)"/></g><g transform="translate(112.584 20.386)"><path class="at" d="M1762.185,983.536a29.5,29.5,0,0,1-3.8,1.529c-.981.2-4.783,5.137-5.45,6.94s0,4.508,1.372,7.684.078,4.234.705,7.41a73.871,73.871,0,0,1,1.058,11.664c-.117,1.764,15.858,2.1,19.5-1.118,0,0-3.664-5.489-4.135-6.272s-.078-5.058.353-6.156,3.3-10.433,3.3-10.433,2.348-7.17.227-8.817c-1.843-1.431-6.865-1.941-7.767-2.255A15.389,15.389,0,0,0,1762.185,983.536Z" transform="translate(-1752.672 -983.388)"/></g><g transform="translate(119.48 19.529)"><path class="au" d="M1788.706,986.422l-1.715-2.009,1.49-5.288A34.9,34.9,0,0,1,1788.706,986.422Z" transform="translate(-1786.991 -979.125)"/></g><g transform="translate(120.75 13.412)"><path class="w" d="M1793.31,952.546a67.433,67.433,0,0,1,.446,6.864s2.933,2.94,6.269-3.43a8.75,8.75,0,0,1-.347-6.2C1800.734,946.2,1793.31,952.546,1793.31,952.546Z" transform="translate(-1793.31 -948.682)"/></g><g transform="translate(121.195 24.14)"><path class="w" d="M1795.527,1002.072v2.686l3.376-2.523Z" transform="translate(-1795.527 -1002.072)"/></g><g transform="translate(121.195 20.386)"><path class="au" d="M1795.527,989.829l1.4-1.735,4.721-4.705,1.528,1.471Z" transform="translate(-1795.527 -983.389)"/></g><g transform="translate(123.808 20.836)"><path class="ai" d="M1812.693,985.626s-3.962,6.013-4.151,8.659,1.473,22.443,2.8,28.806,10.946-.718,10.946-.718-6.461-10.458-3.981-18.832,3.382-11.722,3.382-11.722-.854-4.663-3.878-5.319C1815.163,985.925,1812.693,985.626,1812.693,985.626Z" transform="translate(-1808.527 -985.626)"/></g><g transform="translate(112.502 21.462)"><path class="ai" d="M1752.344,997.085s-.715,2.528,2.069,8.118c0,0-.045,7.153-.123,9.388s-1.658,10.27-1.658,10.27l3.8,2.026a.778.778,0,0,0,1.165-.765c-.78-6.43-3.316-30.825,2.163-37.382l-2.2.648A17.794,17.794,0,0,0,1752.344,997.085Z" transform="translate(-1752.262 -988.741)"/></g><g transform="translate(117.319 19.529)"><path class="av" d="M1778.4,984.413l-2.161.6,3.651-5.886Z" transform="translate(-1776.234 -979.125)"/></g><g transform="translate(122.597 20.386)"><path class="av" d="M1802.5,988.094l1.974,2.588,4.033-6.759-1.286-.533Z" transform="translate(-1802.504 -983.389)"/></g><g transform="translate(120.866 16.17)"><path class="an" d="M1793.89,964.652l.1,1.017s2.333.457,5.383-3.263A6.622,6.622,0,0,1,1793.89,964.652Z" transform="translate(-1793.89 -962.406)"/></g><g transform="translate(116.326 0.397)"><path class="aq" d="M1776.427,902c-.919-.034-3.482-.334-4.747-6.24-1.546-7.215,1.869-10.957,4.792-11.651s5.62.323,7.117,4.095c0,0,1.095,2.94-.682,8.178S1777.41,902.041,1776.427,902Z" transform="translate(-1771.295 -883.91)"/></g><g transform="translate(115.907)"><path class="am" d="M1777.105,887.215s-3.926.244-7.575,5.726c0,0-1.708-6.6,2.756-9.607s7.592-.423,8.681.89c0,0,1.563.359,1.611,3.323s2.042,7.438-2.331,9.56c0,0,.417-3.384.032-4.158S1778.557,892.7,1777.105,887.215Z" transform="translate(-1769.209 -881.934)"/></g><g transform="translate(126.408 9.205)"><path class="aq" d="M1821.821,928.239c.2-.513.737-.72,1.034-.17s-.056,2.684-.849,2.917S1821.42,929.279,1821.821,928.239Z" transform="translate(-1821.466 -927.743)"/></g><path class="aw" d="M19.9,0H58.677a19.9,19.9,0,0,1,19.9,19.9v8.975a19.9,19.9,0,0,1-19.9,19.9H19.9A19.9,19.9,0,0,1,0,28.877V19.9A19.9,19.9,0,0,1,19.9,0Z" transform="translate(5.706 41.536)"/><rect class="ao" width="87.143" height="43.155" transform="translate(2.719 51.028)"/><path class="ax" d="M18.347,0H60.23A18.349,18.349,0,0,1,78.579,18.349v4.766A18.351,18.351,0,0,1,60.228,41.466H18.351A18.351,18.351,0,0,1,0,23.115V18.347A18.347,18.347,0,0,1,18.347,0Z" transform="translate(5.706 56.028)"/><path class="ay" d="M1498.914,1186.578a9.718,9.718,0,1,1-9.718-9.718A9.718,9.718,0,0,1,1498.914,1186.578Z" transform="translate(-1421.789 -1117.598)"/><rect class="ao" width="86.182" height="35.712" transform="translate(3.68 65.52)"/><path class="ac" d="M1231.636,1203.953a2.941,2.941,0,0,1-.226-.915s.081-.57.114-.979a2.949,2.949,0,0,0,.012-.317,5.394,5.394,0,0,1,.027-1.727c.169-.748,1.033-3.331,1.033-3.331l2.332.347,2.027-.275s1.51,4.408,1.434,5.124a1.848,1.848,0,0,1-.033.2,6.9,6.9,0,0,1-.568,1.3c-.038.113-.488,1.207-.826,1.312a1.156,1.156,0,0,1-1.113-.156,2.761,2.761,0,0,1-1.519-.024,1.716,1.716,0,0,1-1.488-.289S1231.95,1204.389,1231.636,1203.953Z" transform="translate(-1223.567 -1133.439)"/><path class="al" d="M1237.479,995.731c.789.305,1.626,2.216,1,5.963a16.15,16.15,0,0,1-2.528,6.677c-.533.939-3.831,7.2-3.819,8.129.032,2.413-.024,8.782.052,9.269.13.833.668,10.429.668,10.429l-5.094,1.233s-1-10.821-1.458-14.092a34.675,34.675,0,0,1-.122-8.5,71.449,71.449,0,0,1,3.281-11.719C1229.8,1002.511,1232.259,993.709,1237.479,995.731Z" transform="translate(-1219.222 -972.624)"/><path class="aq" d="M1607.488,1126.768c-.5.236-1.061,1.069-.431,1.045s2.5-.691,2.974-.7S1607.488,1126.768,1607.488,1126.768Z" transform="translate(-1523.509 -1077.571)"/><g transform="translate(116.387 64.489)"><g transform="translate(18.103)"><path class="az" d="M1869.267,1208.93l-7.58-1.242.038-.19a8.32,8.32,0,0,1,.551-1.621,5.526,5.526,0,0,1,2.1-2.52,4,4,0,0,1,3.395-.2,2.932,2.932,0,0,1,1.871,1.621c.739,1.72-.268,3.935-.311,4.029Zm-7.13-1.547,6.906,1.132a5.22,5.22,0,0,0,.252-3.6,2.578,2.578,0,0,0-1.646-1.414,3.644,3.644,0,0,0-3.09.175A6.274,6.274,0,0,0,1862.137,1207.383Z" transform="translate(-1861.687 -1202.874)"/></g><g transform="translate(5.715 2.111)"><path class="ba" d="M1800.035,1237.251l24.274,3.158,4.116-22.23-25.321-4.8Z" transform="translate(-1800.035 -1213.382)"/></g><g transform="translate(0 2.111)"><path class="bb" d="M1771.6,1235.624l8.784-22.242-3.069,23.869-2.542-1.488Z" transform="translate(-1771.596 -1213.382)"/></g></g><g transform="translate(119.597 64.488)"><g transform="translate(15.491)"><path class="az" d="M1872.782,1208.709l-8.116.016.006-.2a8.794,8.794,0,0,1,.294-1.785,5.84,5.84,0,0,1,1.749-2.989,4.224,4.224,0,0,1,3.5-.8,3.1,3.1,0,0,1,2.23,1.366c1.069,1.665.4,4.148.373,4.253Zm-7.7-.38,7.394-.014a5.505,5.505,0,0,0-.36-3.791,2.721,2.721,0,0,0-1.96-1.19,3.85,3.85,0,0,0-3.191.716C1865.464,1205.285,1865.144,1207.626,1865.081,1208.329Z" transform="translate(-1864.666 -1202.867)"/></g><g transform="translate(5.328 5.137)"><path class="bc" d="M1815,1253.359l29.753-.948-3.458-23.84-27.2-.138Z" transform="translate(-1814.086 -1228.432)"/></g><g transform="translate(0 5.137)"><path class="bd" d="M1787.572,1252.65l5.328-24.219.91,24.927-2.906-1.112Z" transform="translate(-1787.572 -1228.432)"/></g></g><path class="ac" d="M1880.23,1192.223a2.464,2.464,0,0,0,.187-.759s-.067-.473-.095-.812a2.212,2.212,0,0,1-.01-.262,4.489,4.489,0,0,0-.023-1.431c-.14-.62-.856-2.761-.856-2.761l-1.932.288-1.679-.228a29.069,29.069,0,0,0-1.188,4.247,1.56,1.56,0,0,0,.027.168,5.767,5.767,0,0,0,.471,1.078c.031.093.4,1,.684,1.087a.958.958,0,0,0,.922-.129,2.284,2.284,0,0,0,1.258-.02,1.421,1.421,0,0,0,1.233-.239S1879.969,1192.583,1880.23,1192.223Z" transform="translate(-1737.542 -1125.06)"/><path class="ai" d="M1831.2,986.945s4.593-.283,6.9,2.4,2.177,5.863,2.764,7.245,1.927,7.329,2.22,8.292.58,6.377,1,10.733.334,12.489.334,12.489l-4.393-.8s-.178-7.753-.289-12.248-3.769-12.438-5.152-15.914S1827.7,989.125,1831.2,986.945Z" transform="translate(-1701.92 -965.837)"/></g></g></g></g></svg>