<svg xmlns="http://www.w3.org/2000/svg" width="26.051" height="26.052" viewBox="0 0 26.051 26.052"><defs><style>.a{fill:#00d8ae;}</style></defs><path class="a" d="M1213.64,249.984a12.1,12.1,0,0,1-11.369-15.169,15.964,15.964,0,0,1,7.353-8.926,16.247,16.247,0,0,1,8.318-1.951c4.08.1,6.31.23,6.4.235l3.084.182.182,3.084c.006.093.136,2.323.236,6.4a16.286,16.286,0,0,1-1.951,8.319h0a15.966,15.966,0,0,1-8.925,7.352A12.348,12.348,0,0,1,1213.64,249.984Zm3.845-19.1a8.778,8.778,0,0,0-8.517,5.8,5.051,5.051,0,0,0,6.13,6.131,8.8,8.8,0,0,0,5.8-8.8c-.028-1.169-.06-2.184-.089-3.034-.851-.03-1.866-.062-3.036-.09Q1217.626,230.886,1217.485,230.886Z" transform="translate(-1201.801 -223.932)"/></svg>