<svg xmlns="http://www.w3.org/2000/svg" width="24" height="24" viewBox="0 0 24 24"><defs><style>.a{fill:none;}.b{fill:#333;}</style></defs><g transform="translate(-155 -3409)"><rect class="a" width="24" height="24" transform="translate(155 3409)"/><g transform="translate(156 3410)"><path class="b" d="M20.235,14.44a12.491,12.491,0,0,1-3.923-.625,1.793,1.793,0,0,0-1.744.368l-2.474,1.867A13.67,13.67,0,0,1,5.948,9.906L7.761,7.5a1.778,1.778,0,0,0,.437-1.8,12.51,12.51,0,0,1-.627-3.929A1.767,1.767,0,0,0,5.806,0H1.765A1.767,1.767,0,0,0,0,1.765,20.257,20.257,0,0,0,20.235,22,1.767,1.767,0,0,0,22,20.235V16.206A1.767,1.767,0,0,0,20.235,14.44Z"/></g></g></svg>