<svg xmlns="http://www.w3.org/2000/svg" width="357" height="357" viewBox="0 0 357 357"><defs><style>.a{fill:none;}.b{fill:#ececec;opacity:0.54;mix-blend-mode:multiply;isolation:isolate;}.c{fill:#ccc;}.d{fill:#929292;}.e{fill:#00d8ae;}.f{fill:#ccf7ef;}.g{fill:#52e5cc;}.h,.n{fill:#333;}.h{opacity:0.22;}.i{fill:#509ea2;}.j{fill:#0a3e60;}.k{fill:#63c0c5;}.l{fill:#fdc985;}.m{fill:#b0d9c7;}.o{fill:#92b5a7;}.p{fill:#f8a247;}.q{fill:#dc5942;}.r{fill:#14527c;}.s{fill:#56a7ac;}</style></defs><g transform="translate(-219 -606)"><rect class="a" width="357" height="357" transform="translate(219 606)"/><g transform="translate(-5244 -818)"><path class="b" d="M159.665,174.5s18.383,9.432,57.942-9.912,81.461-23.649,116.384,8.906,43.513,90.272,16.174,128.545c-24.916,34.88-90.173,70.147-180.354,48.936S33.254,262.23,49.568,218.728C63.839,180.673,92.395,156.139,159.665,174.5Z" transform="translate(5435.659 1339.432)"/><g transform="translate(5482 1453)"><g transform="translate(0 0)"><path class="c" d="M517.809,390.99c0,3.751-17.95,6.791-40.094,6.791s-40.095-3.04-40.095-6.791,17.951-6.792,40.095-6.792S517.809,387.239,517.809,390.99Z" transform="translate(-310.033 -98.731)"/><path class="c" d="M390.8,385.729c0,3.75-17.95,6.791-40.094,6.791s-40.095-3.041-40.095-6.791,17.95-6.792,40.095-6.792S390.8,381.978,390.8,385.729Z" transform="translate(-310.611 -98.755)"/><path class="c" d="M629.469,376.386c0,3.414-15.251,6.183-34.064,6.183s-34.064-2.769-34.064-6.183,15.25-6.183,34.064-6.183S629.469,372.971,629.469,376.386Z" transform="translate(-309.469 -98.795)"/><path class="d" d="M430.3,265.334a15.473,15.473,0,1,1,25.988-14.484l24.271-24.271L456.66,202.685A15.473,15.473,0,1,0,438.674,184.7l-24.84-24.84L358.4,215.292a15.963,15.963,0,0,0,0,22.574L413.835,293.3l23.858-23.858A15.369,15.369,0,0,1,430.3,265.334Z" transform="translate(-310.415 -99.753)"/><path class="e" d="M523.158,269.153a15.473,15.473,0,1,1-17.677-17.676l-25.2-25.2-24.271,24.271a15.473,15.473,0,1,0-18.59,18.589L413.562,293l55.432,55.432a15.962,15.962,0,0,0,22.574,0L547,293Z" transform="translate(-310.142 -99.45)"/><path class="f" d="M531.486,189.454a15.407,15.407,0,0,0-9.36-4.447L547,160.132,491.569,104.7a15.963,15.963,0,0,0-22.574,0l-55.432,55.432,24.84,24.84a15.474,15.474,0,1,1,17.986,17.985l23.894,23.894,24.875-24.875a15.471,15.471,0,1,0,26.329-12.523Z" transform="translate(-310.142 -100.025)"/><path class="g" d="M602.13,237.867a15.961,15.961,0,0,0,0-22.574L546.7,159.86l-24.875,24.875a15.473,15.473,0,1,1-16.969,16.97l-24.875,24.875,25.2,25.2a15.473,15.473,0,1,0,17.677,17.676L546.7,293.3Z" transform="translate(-309.84 -99.753)"/><g transform="translate(54.411 82.99)"><path class="h" d="M602.031,237.6c-1.964-2.867-4.128-6.635-4.734-10.035-1.183-6.622-4.02-17.026-14.662-17.026a12.3,12.3,0,0,0-4.414.738c-5.334-9.221-10.248-17.766-10.248-17.766s-.512.323-1.248.806c.595-3.989-.708-8.891-1.547-9.7a3.662,3.662,0,0,0-2.295-1.013,2.869,2.869,0,0,0-2.5.038s-1.057-1.125-1.987-.737-.751,1.637-.751,1.637-1,.525-1.165,1.251,2.961,5.7,2.961,5.7c-1.081-.675-3.462-1.037-3.785-.162s1.223,1.038,3.114,2.362A12.754,12.754,0,0,1,562,197.506s.032.058.091.149a3.851,3.851,0,0,0-.975,1.061c-.335.84,6.962,12.89,11.219,19.8-1.24,4.579-.809,10.047-1.05,13.3a35.27,35.27,0,0,1-.74,4.862c-3.537-5.194-10.54-15.409-14.158-20.234-4.967-6.621-10.878-18.445-10.878-18.445s-.32.117-.809.308a12.035,12.035,0,0,1-.177-4.5c.455-2.263,1.463-3.448.625-3.857s-2.311,1.493-2.629,2.727c0,0-1.167-5.758-1.787-6.169a2.481,2.481,0,0,0-1.706-.1s-.733-1.028-1.675-.666-.929,1.9-.929,1.9a2.867,2.867,0,0,0-1.837,1.7,3.667,3.667,0,0,0-.963,2.316c-.055,1.289,2.944,6.6,6.626,8.808a2.394,2.394,0,0,0-.651.61c-.709,1.182,8.75,26.958,14.9,35.472s11.824,28.851,13.715,34.763c.01.03.019.065.029.1l33.648-33.648C601.938,237.71,601.981,237.653,602.031,237.6Z" transform="translate(-364.006 -182.638)"/><path class="i" d="M516.807,284.661a2.956,2.956,0,0,0-.765-.392c3.243-2.749,5.391-8.257,5.161-9.5a3.665,3.665,0,0,0-1.275-2.16,2.87,2.87,0,0,0-2.056-1.427s-.2-1.529-1.184-1.756-1.565.893-1.565.893a2.484,2.484,0,0,0-1.675.336c-.557.493-.913,6.358-.913,6.358-.486-1.178-2.21-2.86-2.982-2.337s.39,1.555,1.154,3.733a12.758,12.758,0,0,1,.4,4.981s-.006.058-.011.15c-.507.033-.857.127-.913.3-.237.709-1.656,15.134-4.967,28.258s-17.026,16.081-17.026,16.081a20.028,20.028,0,0,1-2.058-3.731,3.783,3.783,0,0,0,.669-.466c4.393-3.987,5.41-11.765,5.41-11.765s2.246,2.6,2.482,1.065-2.246-6.858-2.246-6.858,2.01-1.774,1.3-2.719-4.139-.946-4.139-.946,1.656-1.655.355-2.483-4.493,0-4.493,0,1.3-2.246-.355-2.365c-2.852-.2-7.685,4.02-7.685,4.02s-.237-1.773-1.3-1.419-2.719,3.074-2.719,3.074-3.075.946-3.075,1.656,2.72.828,2.72.828c-1.655,1.537-3.9,8.513-2.956,8.513s1.892-1.537,1.892-1.537.709,8.366,5.055,11.292a4.964,4.964,0,0,0,1.071.519c-.219.844-.571,2.1-1.041,3.442-19.628-.237-26.368-37.363-26.959-37.955a1.9,1.9,0,0,0-1.018-.2,11.434,11.434,0,0,1,.475-4.05c.764-2.178,1.927-3.211,1.154-3.733s-2.5,1.158-2.983,2.337c0,0-.357-5.865-.913-6.358a2.479,2.479,0,0,0-1.676-.336s-.584-1.12-1.565-.893-1.184,1.756-1.184,1.756a2.869,2.869,0,0,0-2.056,1.427,3.662,3.662,0,0,0-1.275,2.16c-.206,1.115,1.5,5.64,4.181,8.55-.208.094-.338.189-.354.282-.544,3.268,2.956,20.692,7.567,29.205s14.78,18.682,15.017,22.465a12.1,12.1,0,0,1-.091,1.8l3.478,3.477a15.962,15.962,0,0,0,22.574,0l8-8c2.667-3.843,13.232-15.656,14.284-24.592C514.916,305.59,517.99,285.608,516.807,284.661Z" transform="translate(-364.437 -182.244)"/><path class="h" d="M418.546,197.17a.55.55,0,0,0-.318-.357c1.99-3.9,1.321-10.432.494-11.49A3.663,3.663,0,0,0,416.595,184a2.872,2.872,0,0,0-2.483-.315s-.887-1.262-1.863-1.01-.975,1.515-.975,1.515-1.064.379-1.33,1.073,2.129,6.06,2.129,6.06c-.976-.821-3.282-1.515-3.725-.694s1.064,1.2,2.749,2.778a11.2,11.2,0,0,1,2.219,3.221c-.412.04-.682.072-.682.072s-5.912,21.52-8.514,29.56c-1.307,4.04-5.36,7.96-9.071,10.861-.439-.95-.894-1.959-1.334-3.058-2.365-5.912,1.893-19.391-8.277-20.809-14.551-2.031-14.188,11.824-14.425,17.973-.172,4.465-4.566,8.067-6.238,12.962l29.378,29.379c1.269-8.964,2.748-17.461,4.055-19.876,3.074-5.675,10.405-12.3,14.425-21.52S418.782,198.352,418.546,197.17Z" transform="translate(-364.775 -182.639)"/></g><g transform="translate(0.881 83.326)"><path class="j" d="M372.515,375.89s2.483,10.641,7.686,11,8.868-2.01,8.159-4.138-4.375-2.719-5.557-2.247-3.784-4.256-4.612-6.5S372.515,375.89,372.515,375.89Z" transform="translate(-311.21 -182.107)"/><path class="k" d="M355.13,291.955s-7.33,19.864-10.877,29.441-22.229,36.773-22.82,39.138,4.139,3.665,5.676,3.547,16.2-13.953,21.756-22.23,15.667-25.894,15.667-25.894.887,19.392,1.359,27.668,5.676,32.634,6.267,33.935,6.148-.237,6.976-.828,2.838-26.959,3.547-38.428,2.838-40.556,2.838-42.566S355.13,291.955,355.13,291.955Z" transform="translate(-311.443 -182.478)"/><path class="l" d="M343.364,286.806s-4.789,1.242-6.917,4.434-1.862,6.119-1.508,7.006a1.52,1.52,0,0,0,1.153.975s.178,1.33,1.153,1.33,1.33-1.242,1.33-1.242a2.254,2.254,0,0,0,.975-1.064c.177-.621-.355-1.153.088-2.838a3.151,3.151,0,0,1,1.685-2.395c.532-.266.356,2.217-.089,3.193s.266,1.419,1.508.444,1.064-2.395,1.242-3.547,1.418-3.37,1.507-4.524A1.766,1.766,0,0,0,343.364,286.806Z" transform="translate(-311.382 -182.501)"/><path class="l" d="M409.558,197.968a12.747,12.747,0,0,0-2.66-4.229c-1.686-1.578-3.193-1.957-2.75-2.778s2.75-.127,3.725.694c0,0-2.395-5.365-2.129-6.059s1.33-1.074,1.33-1.074,0-1.262.976-1.515,1.862,1.011,1.862,1.011a2.868,2.868,0,0,1,2.483.315,3.661,3.661,0,0,1,2.129,1.326c.886,1.136,1.6,8.585-.976,12.309S409.558,197.968,409.558,197.968Z" transform="translate(-311.066 -182.974)"/><path class="m" d="M362.369,247.576s-5.912,7.567-8.04,16.553S342.5,286.358,341.8,287.3s3.31,4.02,3.31,4.02,9.46-10.641,15.845-19.628c0,0-5.44,15.372-8.04,20.574a33.722,33.722,0,0,0,34.289,6.621s4.02-39.256,7.094-44.931,10.405-12.3,14.425-21.52,6.148-33.816,5.912-35-5.912-.472-5.912-.472-5.912,21.52-8.514,29.56-16.08,15.607-16.08,15.607Z" transform="translate(-311.35 -182.911)"/><path class="n" d="M381.45,213.448c-14.551-2.03-14.188,11.824-14.425,17.972s-8.513,10.641-6.621,19.155-10.878,25.54,7.094,29.323,24.121-4.966,22.939-13.952.709-11.114,2.6-16.789-.946-8.987-3.311-14.9S391.62,214.867,381.45,213.448Z" transform="translate(-311.277 -182.836)"/><path class="j" d="M323.791,359.022a27.042,27.042,0,0,0-9.764,8.189c-1.891,2.835-3.99,7.139-1.155,9.554s7.035-1.154,10.08-3.989,4.83-9.975,4.83-11.55S325.47,358.287,323.791,359.022Z" transform="translate(-311.488 -182.173)"/><path class="o" d="M345.307,289c-.444-.408-.977-.7-1.432-1.095s-.835-.908-1.283-1.333a.212.212,0,0,0-.331.256,4.744,4.744,0,0,0,2.766,2.654C345.29,289.527,345.537,289.209,345.307,289Z" transform="translate(-311.347 -182.502)"/><path class="o" d="M385.3,295.553c-2.49,2.068-7.7,1.751-10.793,1.954-7.674.5-12.948-4.4-19.8-6.829-.307-.108-.516.386-.222.526,4.067,1.954,7.814,4.61,11.958,6.376a19.3,19.3,0,0,0,8.827,1.046c2.354-.15,9.848.138,10.9-2.566C386.374,295.525,385.651,295.258,385.3,295.553Z" transform="translate(-311.292 -182.483)"/><path class="o" d="M414.147,198.323a4.921,4.921,0,0,0-2.506-.36,20.7,20.7,0,0,0-3.232.239.25.25,0,0,0,0,.48,17.4,17.4,0,0,0,2.433.1,24.633,24.633,0,0,0,3.131.178A.346.346,0,0,0,414.147,198.323Z" transform="translate(-311.047 -182.906)"/><path class="i" d="M362.637,301.2a20.284,20.284,0,0,0-3.258-.982,15.769,15.769,0,0,1-3.759-1.683c-.213-.129-.464.183-.269.348a14.133,14.133,0,0,0,7.074,3.1A.424.424,0,0,0,362.637,301.2Z" transform="translate(-311.288 -182.448)"/><path class="i" d="M379.665,303.778a12.556,12.556,0,0,0-2.958-.043,21.079,21.079,0,0,1-3.651-.317c-.271-.041-.484.33-.2.476a11.219,11.219,0,0,0,6.81.729A.441.441,0,0,0,379.665,303.778Z" transform="translate(-311.209 -182.425)"/><path class="i" d="M324.674,356.61a2.472,2.472,0,0,0-.794.97c-.118.225.184.488.366.282a6,6,0,0,0,.746-.934C325.1,356.736,324.873,356.475,324.674,356.61Z" transform="translate(-311.431 -182.183)"/><path class="i" d="M325.736,357.326a1.076,1.076,0,0,0-.427.362.261.261,0,0,0,.369.369,1.077,1.077,0,0,0,.362-.427A.223.223,0,0,0,325.736,357.326Z" transform="translate(-311.425 -182.18)"/><path class="i" d="M329.091,356.782a6.788,6.788,0,0,0-2.154,1.834.205.205,0,0,0,.29.289c.682-.617,1.535-1.069,2.152-1.75A.239.239,0,0,0,329.091,356.782Z" transform="translate(-311.417 -182.182)"/><path class="i" d="M329.849,358.871a4.163,4.163,0,0,0-1.361.938c-.23.193.067.559.316.409a4.127,4.127,0,0,0,1.32-.989C330.253,359.053,330.04,358.812,329.849,358.871Z" transform="translate(-311.41 -182.173)"/><path class="i" d="M329.06,361.4a.212.212,0,0,0-.393-.105l-.057.059c-.232.081-.213.491.062.457l.144-.018a.254.254,0,0,0,.248-.249Z" transform="translate(-311.41 -182.162)"/><path class="i" d="M372.832,374.765a.206.206,0,0,0-.4.055c-.01.533.107,1.063.15,1.6.023.294.473.3.465,0A5,5,0,0,0,372.832,374.765Z" transform="translate(-311.21 -182.101)"/><path class="i" d="M374.469,371.751c-.056-.287-.5-.215-.5.067.009,1.36.058,2.724.167,4.079a.266.266,0,0,0,.531,0A13.431,13.431,0,0,0,374.469,371.751Z" transform="translate(-311.203 -182.115)"/><path class="i" d="M376.209,373.455a.256.256,0,0,0-.466.2,5.979,5.979,0,0,1,.157,1.529c-.019.3.469.366.523.07A2.49,2.49,0,0,0,376.209,373.455Z" transform="translate(-311.195 -182.107)"/><path class="i" d="M377.842,373.784a.307.307,0,0,0-.568.154,3.248,3.248,0,0,1-.058.964.377.377,0,0,0,.726.2A1.615,1.615,0,0,0,377.842,373.784Z" transform="translate(-311.188 -182.106)"/><path class="i" d="M383.144,302.755c-1.693,10.872-1.724,21.985-2.391,32.95-.357,5.864-1.282,11.7-1.362,17.57-.073,5.421-1.771,10.566-1.594,16.019a.133.133,0,0,0,.266,0c.252-4.993,1.6-9.756,1.842-14.717.28-5.855.909-11.651,1.322-17.5.808-11.433,1.107-22.871,2.135-34.292C383.373,302.661,383.164,302.632,383.144,302.755Z" transform="translate(-311.186 -182.429)"/><path class="i" d="M362.4,315.945c-4.547,8.616-9.01,16.7-15.469,24.047-2.972,3.382-5.4,7.2-8.512,10.464-2.5,2.617-5.463,4.589-7.479,7.662-.17.258.243.5.411.241,2.42-3.688,6.207-6.1,9.1-9.371,2.958-3.351,5.47-7.078,8.432-10.44,5.893-6.688,9.744-14.563,13.8-22.441C362.77,315.924,362.494,315.762,362.4,315.945Z" transform="translate(-311.399 -182.369)"/></g><g transform="translate(126.921 171.268)"><path class="p" d="M451.4,380.939s-6.149,2.247-4.493,5.321,8.04,1.892,10.76.709S451.4,380.939,451.4,380.939Z" transform="translate(-436.912 -270.014)"/><path class="p" d="M502.837,384.823s6.149,2.247,4.493,5.321-8.04,1.891-10.76.709S502.837,384.823,502.837,384.823Z" transform="translate(-436.687 -269.996)"/><path class="j" d="M458.854,367.786s-6.621-9.932-11.587-5.557-1.419,21.284,11.587,28.851,30.978,7.213,41.738-1.182,13.243-17.972,9.815-23.057-12.77,2.128-12.77,2.128l-28.023,1.3Z" transform="translate(-436.919 -270.104)"/><path class="l" d="M476.1,324.685a44.378,44.378,0,0,1-1.3,4.493c-.828,2.365,1.419,5.084,1.419,5.084l9.7-1.656V329.06s-2.365-3.311-2.483-5.439S476.1,324.685,476.1,324.685Z" transform="translate(-436.785 -270.278)"/><path class="l" d="M508.685,284.511a12.736,12.736,0,0,0-.405-4.981c-.764-2.178-1.927-3.211-1.154-3.734s2.5,1.159,2.983,2.338c0,0,.357-5.865.913-6.358a2.478,2.478,0,0,1,1.676-.337s.584-1.12,1.565-.893,1.184,1.756,1.184,1.756a2.869,2.869,0,0,1,2.057,1.427,3.666,3.666,0,0,1,1.275,2.16c.261,1.417-2.552,8.351-6.554,10.465S508.685,284.511,508.685,284.511Z" transform="translate(-436.638 -270.517)"/><path class="l" d="M447.066,292.163a12.736,12.736,0,0,1,.4-4.981c.765-2.178,1.927-3.211,1.154-3.734s-2.5,1.158-2.983,2.338c0,0-.357-5.866-.913-6.358a2.481,2.481,0,0,0-1.676-.338s-.584-1.119-1.565-.892-1.184,1.756-1.184,1.756a2.869,2.869,0,0,0-2.056,1.428,3.662,3.662,0,0,0-1.275,2.159c-.261,1.417,2.552,8.352,6.554,10.465S447.066,292.163,447.066,292.163Z" transform="translate(-436.956 -270.482)"/><path class="n" d="M474.8,325.327c-4.345-2.927-5.055-11.292-5.055-11.292s-.945,1.537-1.892,1.537,1.3-6.977,2.956-8.514c0,0-2.719-.118-2.719-.827s3.074-1.655,3.074-1.655,1.655-2.72,2.719-3.075,1.3,1.419,1.3,1.419,4.833-4.224,7.686-4.02c1.655.117.355,2.365.355,2.365s3.192-.828,4.492,0-.355,2.483-.355,2.483,3.43,0,4.139.945-1.3,2.719-1.3,2.719,2.483,5.321,2.247,6.858-2.483-1.064-2.483-1.064-1.016,7.778-5.41,11.764C482.513,326.828,476.989,326.8,474.8,325.327Z" transform="translate(-436.816 -270.388)"/><path class="p" d="M474.955,329.353s6.266,2.719,11.114-.119c0,0,13.715-2.956,17.026-16.081s4.73-27.55,4.966-28.259,5.439-.119,6.621.828-1.892,20.929-3.074,30.978-14.425,23.767-14.9,25.658-.236,22.7.946,26.958c0,0-6.977,6.385-20.692,6.385s-18.091-7.567-18.091-7.567,4.729-20.337,4.493-24.12-10.405-13.952-15.017-22.466-8.112-25.938-7.567-29.205c.119-.709,6.622-1.537,7.213-.945S455.327,329.116,474.955,329.353Z" transform="translate(-436.939 -270.453)"/><path class="q" d="M447.276,292.5a4.359,4.359,0,0,0-2.9.353,29.03,29.03,0,0,0-2.875,1.184.329.329,0,0,0,.165.61,11.747,11.747,0,0,0,2.676-.708c.954-.317,2.028-.269,2.932-.637A.42.42,0,0,0,447.276,292.5Z" transform="translate(-436.936 -270.417)"/><path class="q" d="M514.175,287.448c-.744-1.5-4.311-1.55-5.642-1.082a.185.185,0,0,0,0,.354,14.846,14.846,0,0,0,2.579.215,9.188,9.188,0,0,1,2.707.976C514.1,288.028,514.283,287.665,514.175,287.448Z" transform="translate(-436.631 -270.446)"/><path class="q" d="M486.581,330.223a12.832,12.832,0,0,1-5.917,1.667,13,13,0,0,1-6.6-1.892.178.178,0,0,0-.215.278c2.705,2.68,10.727,4.175,13.178.394C487.223,330.372,486.855,330.1,486.581,330.223Z" transform="translate(-436.789 -270.246)"/><path class="q" d="M495.638,367.718c-4.32,4.45-11.573,5.361-17.459,5.53-6.637.19-13.75-.48-18.146-6.023-.183-.231-.548.066-.4.309,3.688,6.1,11.113,7.046,17.635,7.026,6.445-.019,14.6-.962,19.163-6.05C496.909,367.976,496.144,367.2,495.638,367.718Z" transform="translate(-436.853 -270.077)"/><path class="r" d="M469.641,378.733a.756.756,0,0,0-.726-.554c-2.559-.146-5.419-.517-7.135-2.629a.463.463,0,0,0-.76.166.384.384,0,0,0-.46.242c-1.5,3.835-2.835,10.39,2.877,11.254.463.069.975-.508.517-.89-1.471-1.227-3.1-1.229-3.637-3.452-.5-2.1.394-4.5.914-6.543,1.724,2.165,4.39,2.7,6.992,3.232.093,1.682-1.046,3.149-.969,4.834a.586.586,0,0,0,1.085.293A9.814,9.814,0,0,0,469.641,378.733Z" transform="translate(-436.855 -270.039)"/><path class="r" d="M466.3,385.949a7.93,7.93,0,0,0-1.714.693c-.493.246-.061.942.425.727a11.647,11.647,0,0,0,1.566-.762A.362.362,0,0,0,466.3,385.949Z" transform="translate(-436.832 -269.991)"/><path class="r" d="M493.858,376.055a.7.7,0,0,0-.948-.248c-2.4,1.324-5.155,3.239-7.986,3.1a.339.339,0,0,0-.089.664c2.913.688,5.444-1.457,8.092-2.332.986,1.819,2.484,4.647,1.619,6.515-.838,1.807-3.668,2.165-5.059,3.423a.575.575,0,0,0,.555.954c2.171-.637,4.985-1.855,5.976-4.031C497.12,381.683,495.01,378.109,493.858,376.055Z" transform="translate(-436.739 -270.038)"/><path class="r" d="M488.945,384.83a6.779,6.779,0,0,1-2.559-1.453,5.585,5.585,0,0,1-1.469-2.65c-.107-.463-.758-.254-.7.192.279,1.956,2.3,5.4,4.722,4.766A.447.447,0,0,0,488.945,384.83Z" transform="translate(-436.741 -270.016)"/><path class="r" d="M478.633,385.164c-.239-2.531-1.042-4.975-1.113-7.519a.188.188,0,0,0-.377,0c0,2.544.705,4.988.9,7.519a37.439,37.439,0,0,0,1.115,8.17.311.311,0,0,0,.6-.165A70.406,70.406,0,0,1,478.633,385.164Z" transform="translate(-436.773 -270.03)"/><path class="r" d="M459,370.208c-.285,1.209-.806,1.6-1.774.728a14.62,14.62,0,0,1-2.066-2.547c-.879-1.253-1.7-3.353-3.04-4.177a.43.43,0,0,0-.584.585,36.279,36.279,0,0,0,4.325,5.969c1.355,1.45,3.151,2,3.492-.461C459.388,370.079,459.059,369.971,459,370.208Z" transform="translate(-436.89 -270.09)"/><path class="r" d="M505.164,367.2c-2.528.956-6.373,6.738-9.247,4.24-.256-.222-.714.072-.5.383,2.484,3.544,8.136-2.345,10.133-3.956A.4.4,0,0,0,505.164,367.2Z" transform="translate(-436.69 -270.077)"/></g><g transform="translate(227.54 81.969)"><path class="j" d="M578.972,371.827c-.089-.355-3.1-3.1-5.5-1.685s-3.193,5.409.8,7.094,6.119,1.685,7.8.621,1.951-5.232.621-5.942S578.972,371.827,578.972,371.827Z" transform="translate(-536.963 -180.766)"/><path class="l" d="M578.144,359.561s-.591,9.9-.118,12.267,3.547,2.365,4.729.946,3.074-16.317,3.074-16.317Z" transform="translate(-536.934 -180.826)"/><path class="j" d="M616.6,373.254c-.206-.3-3.986-1.838-5.742.321s-1.123,6.18,3.2,6.38,6.323-.536,7.536-2.119.019-5.583-1.474-5.789S616.6,373.254,616.6,373.254Z" transform="translate(-536.788 -180.755)"/><path class="l" d="M612.293,362.34s2.564,9.583,3.759,11.678,4.112,1.124,4.787-.6-2.233-16.454-2.233-16.454Z" transform="translate(-536.777 -180.824)"/><path class="p" d="M576.26,292.328s.939,65.934,1.419,69.052c.472,3.075,5.675,3.547,7.567,1.893s10.168-40.2,9.932-48.715c0,0,14.662,46.35,17.026,48.951s7.567,1.655,8.514,0-3.784-35.472-6.622-48.951-6.621-26.722-6.621-26.722Z" transform="translate(-536.941 -181.139)"/><path class="l" d="M565.4,196.3a12.753,12.753,0,0,0-3.231-3.812c-1.891-1.324-3.437-1.487-3.113-2.362s2.7-.512,3.785.162c0,0-3.127-4.974-2.963-5.7s1.166-1.251,1.166-1.251-.178-1.25.752-1.637,1.986.737,1.986.737a2.87,2.87,0,0,1,2.5-.037,3.661,3.661,0,0,1,2.293,1.012c1.039,1,2.792,8.275.771,12.324S565.4,196.3,565.4,196.3Z" transform="translate(-537.02 -181.622)"/><path class="l" d="M548.312,197.582a12.741,12.741,0,0,1-.29-4.988c.455-2.263,1.462-3.448.625-3.858s-2.312,1.494-2.629,2.728c0,0-1.167-5.759-1.787-6.17a2.482,2.482,0,0,0-1.707-.1s-.733-1.028-1.673-.667-.929,1.9-.929,1.9a2.871,2.871,0,0,0-1.838,1.7,3.669,3.669,0,0,0-.962,2.316c-.062,1.441,3.687,7.916,7.943,9.455S548.312,197.582,548.312,197.582Z" transform="translate(-537.119 -181.61)"/><path class="k" d="M576.175,238.61s-11.352-16.79-16.317-23.411-10.878-18.446-10.878-18.446-5.2,1.893-5.912,3.074,8.75,26.959,14.9,35.472,11.824,28.851,13.716,34.763,3.311,24.121,3.311,24.121,20.1,9.459,35.945-3.311c0,0-8.277-17.735-9.223-29.56s-5.2-26.485-6.858-28.85-23.411-40.2-23.411-40.2-6.385,4.019-6.858,5.2,14.188,24.594,14.188,24.594l2.6,12.533Z" transform="translate(-537.092 -181.574)"/><path class="n" d="M585.979,209.21c-13.007,0-10.878,14.9-11.351,21.283a50.388,50.388,0,0,1-3.31,13.243s4.966,9.459,18.918,7.567S608.916,240.9,608.916,240.9s-7.094-8.039-8.276-14.661S596.62,209.21,585.979,209.21Z" transform="translate(-536.964 -181.497)"/><path class="s" d="M549.211,198.672a10.415,10.415,0,0,0-5.106,1.656c-.251.165-.094.617.214.506.822-.292,1.618-.619,2.462-.851a17.9,17.9,0,0,0,2.582-.753C549.643,199.105,549.494,198.665,549.211,198.672Z" transform="translate(-537.088 -181.545)"/><path class="s" d="M571.561,194.466a13.213,13.213,0,0,0-2.65,1.571c-.665.407-2.005.9-2.329,1.661a.1.1,0,0,0,.085.151c.829.026,1.891-.834,2.6-1.208a6.97,6.97,0,0,0,2.61-1.767A.279.279,0,0,0,571.561,194.466Z" transform="translate(-536.985 -181.564)"/><path class="s" d="M608.528,288.9c-2.308.8-4.467,1.947-6.744,2.833a27.788,27.788,0,0,1-8.858,1.56c-5.181.24-11.279.469-16.126-1.513-.269-.11-.449.334-.2.466,4.86,2.525,10.984,2.234,16.322,2.16a34.374,34.374,0,0,0,15.974-4.625A.484.484,0,0,0,608.528,288.9Z" transform="translate(-536.94 -181.134)"/><path class="s" d="M575.035,274.339c-1.337-6.2-3.138-12.289-4.981-18.351a.033.033,0,0,0-.064.018c3.223,11.259,6.564,23,7.1,34.754a.205.205,0,0,0,.41,0C577.849,285.237,576.188,279.689,575.035,274.339Z" transform="translate(-536.97 -181.284)"/><path class="q" d="M579.768,331.023c-.063-5.588-.442-11.181-.691-16.763-.216-4.849-.019-9.726-1.035-14.5-.02-.1-.168-.056-.15.041,1.012,5.207.666,10.588.807,15.866.137,5.117.383,10.235.449,15.354.131,10.167-.845,20.519-.139,30.658a.2.2,0,0,0,.4,0C580.16,351.57,579.882,341.16,579.768,331.023Z" transform="translate(-536.934 -181.085)"/><path class="q" d="M610.386,352.468c-1.515-4.074-3.008-8.15-4.35-12.286-2.724-8.4-5.121-16.9-8.471-25.087-.088-.215-.44-.124-.353.1,3.255,8.216,5.555,16.742,8.182,25.168,2.441,7.83,6.348,15.367,8.319,23.3.112.451.8.26.7-.192C613.516,359.612,611.757,356.159,610.386,352.468Z" transform="translate(-536.846 -181.015)"/><path class="q" d="M592.212,300.143a15.159,15.159,0,0,1-8.52.612c-.347-.059-.5.457-.148.534,2.891.642,6.3,1.221,8.947-.488C592.818,300.59,592.611,299.993,592.212,300.143Z" transform="translate(-536.909 -181.083)"/><path class="q" d="M605.991,297.2a51.946,51.946,0,0,1-6.913,2.145c-.367.079-.207.62.154.555,2.313-.413,5.043-.725,6.994-2.144C606.485,297.564,606.339,297.067,605.991,297.2Z" transform="translate(-536.838 -181.096)"/></g></g></g></g></g></svg>