<svg xmlns="http://www.w3.org/2000/svg" width="357" height="357" viewBox="0 0 357 357"><defs><style>.a,.e,.n,.t{fill:none;}.b{fill:#ececec;opacity:0.54;}.b,.c,.v{mix-blend-mode:multiply;isolation:isolate;}.c,.v{fill:#424261;}.c{opacity:0.1;}.d{fill:#00d8ae;}.e{stroke:#52e5cc;stroke-width:0.925px;}.e,.n,.t{stroke-miterlimit:10;}.f{fill:#06bc99;}.g{fill:#52e5cc;}.h{fill:#f0b7b5;}.i{fill:#333;}.j{fill:#e1e1e1;}.k{fill:#ffc3bf;}.l{fill:#393f5c;}.m{fill:#fff;}.n,.t{stroke:#3e3838;}.n{stroke-width:1.044px;}.o{fill:#f5b097;}.p{fill:#fbb99d;}.q{fill:#3e3838;}.r{fill:#06122f;}.s,.u{fill:#e69a82;}.t{stroke-width:1.109px;}.u{opacity:0.66;}.v{opacity:0.2;}.w{fill:#ffbe63;}.x{fill:#ccf7ef;}.y{fill:#ffc240;}.z{fill:#ff4f72;}.aa{fill:#6138fb;}</style></defs><g transform="translate(-219 -606)"><rect class="a" width="357" height="357" transform="translate(219 606)"/><g transform="translate(-5316 -648.154)"><path class="b" d="M163.207,175.282s18.958,9.727,59.753-10.221,84.006-24.388,120.021,9.184,44.873,93.093,16.68,132.562c-25.694,35.97-92.991,72.339-185.99,50.465s-140.825-91.521-124-136.382C64.386,181.646,93.834,156.345,163.207,175.282Z" transform="translate(5502.659 1196.058)"/><ellipse class="c" cx="141.703" cy="2.815" rx="141.703" ry="2.815" transform="translate(5570.492 1566.409)"/><g transform="translate(5582.098 1331.594)"><g transform="translate(10.894 171.497)"><path class="d" d="M152.957,397.646A110.688,110.688,0,0,0,147,362.487c-.684-2-1.752-4.266-3.827-4.664-1.986-.38-3.888,1.32-4.47,3.255a12.477,12.477,0,0,0,.208,6q-2.227-7.037-4.454-14.075c-.689-2.169-1.536-4.561-4.236-5a4.931,4.931,0,0,0-4.637,2.067c-2.27,3.084-1.626,6.881-.955,10.39l-14.7-15.032c-1.276-1.3-3.2-2.7-4.73-1.7-1.183.775-1.2,2.484-1,3.885a33.058,33.058,0,0,0,9.445,18.657c-2.242-1.238-4.592-2.507-7.153-2.6s-5.375,1.378-5.906,3.884c-.476,2.245.947,4.417,2.386,6.2A68.014,68.014,0,0,0,120.6,389.208c-2.3-.317-4.716-.621-6.867.245s-3.834,3.349-2.985,5.506c.7,1.791,2.74,2.61,4.582,3.164a72.738,72.738,0,0,0,23.884,2.983,35.282,35.282,0,0,0,13.747-3.46Z" transform="translate(-100.489 -343.389)"/><path class="e" d="M106.283,343.81s31.741,46.406,45.928,54.073" transform="translate(-101.576 -343.468)"/></g><g transform="translate(28.531 66.212)"><path class="d" d="M151.845,271.271c-.231-8.152-1.2-20.417-3.456-28.255a26.777,26.777,0,0,0-2.432-6.032,37.039,37.039,0,0,0-4.343-5.684c-5.667-6.5-11.508-13.142-19.11-17.214,4.719,7.171,7.637,15.346,10.559,23.417a107.231,107.231,0,0,0,6.511,13.74c4.173,6.991,7.09,12.627,12.27,20.028" transform="translate(-122.255 -213.853)"/><path class="f" d="M122.277,214.2c8.755,7.526,16.159,17.02,19.41,28.178a305.461,305.461,0,0,0,11.012,30.8c.117.284.586.16.467-.128-4.61-11.188-8.046-22.664-11.967-34.081-3.341-9.73-10.856-18.471-18.581-25.11-.235-.2-.579.139-.342.342Z" transform="translate(-122.197 -213.799)"/></g><g transform="translate(0 98.192)"><path class="g" d="M155.548,324.437s-13.478-43.619-25.477-54.206c-9.638-8.5-15.181-13.561-27.617-14.757s-14.77-1.7-14.77-1.7,4.436,4.366,12.006,12.332,24.867,16.277,31.245,22.795c5.591,5.715,10.136,5.1,23.081,38.134Z" transform="translate(-87.193 -253.277)"/><path class="f" d="M87.437,254.146c17.034,4.194,34.413,13.639,45.1,27.718,9.695,12.773,16.4,28.454,21.007,43.759a.5.5,0,0,0,.968-.267c-4.723-15.674-11.645-31.922-21.753-44.864-10.807-13.836-28.136-23.148-45.054-27.314-.627-.154-.9.813-.267.968Z" transform="translate(-87.08 -253.162)"/></g><g transform="translate(24.26 0)"><path class="g" d="M147.634,206.062c-.661-3.5-6.859-35.19-18.406-57.055-14.125-26.746-12.2-13.351-12.2-13.351.1,1.625,1.635,9.506,7.859,23.849,5.819,13.41,13.3,34.243,21.16,44.822,2.616,9.87,12.238,46.367,13.758,55l1.075-.189C159.442,250.975,150.826,218.135,147.634,206.062Z" transform="translate(-116.939 -132.302)"/><path class="f" d="M117.633,132.673a413.57,413.57,0,0,1,29.094,71.646c5.59,18.353,9.317,37.469,13.948,56.092.08.324.566.134.487-.188-4.631-18.623-8.359-37.739-13.949-56.092a413.592,413.592,0,0,0-29.093-71.646c-.154-.294-.642-.11-.487.188Z" transform="translate(-117.064 -132.308)"/></g><g transform="translate(27.028 128.111)"><path class="d" d="M124.023,290.763c-.545-.176-1.085-.428-1.627-.649-.8-.327-2.12-.294-2.047,3.549.1,5.369,8.2,36.3,29.869,49.361a22.243,22.243,0,0,1,2.584,1.861c1.5,1.23,3.914,2.564,2.891-2.736C154.273,334.8,143.42,297.039,124.023,290.763Z" transform="translate(-120.346 -289.987)"/><path class="f" d="M155.242,345.963c-8.935-17.291-33.735-55.058-33.985-55.436l.507-.334c.249.38,25.067,38.174,34.017,55.492Z" transform="translate(-120.517 -290.026)"/></g></g><g transform="translate(5762.974 1294.155)"><g transform="translate(6.879 88.084)"><path class="d" d="M320.691,246.9c2.7-8.6,7.439-21.341,12.2-29a29.671,29.671,0,0,1,4.405-5.679,40.912,40.912,0,0,1,6.331-4.732c7.984-5.2,16.2-10.5,25.506-12.535-7.179,6.2-12.747,14.01-18.288,21.709a118.308,118.308,0,0,1-11.066,12.642c-6.545,6.174-11.346,11.285-19.086,17.591" transform="translate(-318.65 -194.698)"/><path class="d" d="M368.524,194.666c-9.772,4.516-19.925,11.156-26.43,19.85-8.256,11.036-15.287,22.934-23.853,33.806-.21.267.166.648.379.378q11.524-14.625,21.552-30.315c6.681-10.47,17.437-18.088,28.623-23.257.312-.145.041-.606-.271-.462Z" transform="translate(-318.179 -194.638)"/></g><g transform="translate(6.942 49.974)"><path class="g" d="M318.256,222.208s6.77-42.089,16.483-53.443c7.8-9.121,12.267-14.519,23.609-17.248s13.435-3.5,13.435-3.5-3.531,4.616-9.491,12.969-20.867,18.295-25.914,25.153c-4.425,6.013-8.707,6.036-16.365,38.27Z" transform="translate(-318.256 -147.784)"/><path class="f" d="M371.951,147.75c-14.9,5.985-29.619,16.709-37.786,30.689-7.8,13.354-12.079,29.372-14.421,44.6-.048.31.439.337.486.029,2.322-15.093,6.606-31.116,14.34-44.356,8.125-13.907,22.766-24.568,37.6-30.525.291-.116.07-.55-.219-.434Z" transform="translate(-318.535 -147.73)"/></g><g transform="translate(0 0)"><path class="d" d="M323.49,154.413c.7-3.252,7.185-32.7,18.45-52.851,13.78-24.654,11.685-12.192,11.685-12.192-.13,1.515-1.738,8.837-7.866,22.089-5.73,12.39-13.175,31.67-20.748,41.371-2.661,9.155-12.455,43.011-14.065,51.031l-1-.2C311.469,196.077,320.241,165.613,323.49,154.413Z" transform="translate(-309.756 -86.22)"/><path class="d" d="M352.764,86.355a389.291,389.291,0,0,0-28.724,66.106c-5.677,17.053-9.566,34.9-14.318,52.238a.243.243,0,0,0,.469.13c4.744-17.308,8.68-35.072,14.284-52.115A382.416,382.416,0,0,1,353.184,86.6c.152-.274-.268-.52-.42-.245Z" transform="translate(-309.712 -86.223)"/></g></g><path class="h" d="M319.538,294.531s-2.417.636-5.568-1.6a2.906,2.906,0,0,0-1.624-.507s-3.371-.145-4.026,1.648c0,0,1.444,3.786,3.52,4.22a20.587,20.587,0,0,0,5.247.067Z" transform="translate(5453.523 1169.261)"/><g transform="translate(5765.706 1412.825)"><path class="i" d="M369.819,259.02c1.182-7.329,4.7-13.278-.971-20.607-3.628-4.686-12.463-11.5-20.132.959-1.587,2.579-9.4,5.463-5.376,15.63s-6.621,12.767-2.129,26.716,34.991,21.752,40.665,5.2S368.637,266.35,369.819,259.02Z" transform="translate(-318.139 -232.286)"/><g transform="translate(0 30.729)"><path class="h" d="M344.962,270.791c-.964-.392-5.979,1.35-12.251,19.286,0,0-13.455-1.856-18.822-.443l-.816,3.87s13.553,1.588,20.816,1.2C341,294.323,350.451,273.021,344.962,270.791Z" transform="translate(-313.073 -270.228)"/><path class="j" d="M353.146,270.148s-8.406-1.144-12.714,8.908l-3.805,8.9,7.019,4.1,3.17-6.646Z" transform="translate(-317.491 -270.109)"/></g><g transform="translate(18.304 59.252)"><g transform="translate(0 86.643)"><path class="k" d="M348.8,411.861l.258,11.989-13.327.234h0a2.613,2.613,0,0,1,2.485-2.935l5.135-.211.024-8.971Z" transform="translate(-335.622 -411.861)"/><path class="l" d="M348.973,423.125l-5.647-.092-5.561.224a2.253,2.253,0,0,0-2.06,2.922h0l13.327-.234Z" transform="translate(-335.603 -413.956)"/></g><g transform="translate(33.388 84.213)"><path class="k" d="M385.739,408.869l4,11.3-12.583,4.4h0a2.613,2.613,0,0,1,1.441-3.566l4.81-1.81-2.788-8.527Z" transform="translate(-376.737 -408.869)"/><path class="l" d="M388.761,419.509l-5.391,1.682-5.21,1.956a2.253,2.253,0,0,0-1.041,3.42h0l12.583-4.4Z" transform="translate(-376.698 -410.865)"/></g><g transform="translate(3.376)"><path class="g" d="M346.852,305.216a90.829,90.829,0,0,0-3.381,10.554,114.336,114.336,0,0,0-3.5,36.122l2.745,45.239,7.806.336h0l-1.3-36.842a31.225,31.225,0,0,1,.639-7.467l9.926-47.548Z" transform="translate(-339.758 -305.216)"/><path class="g" d="M366.351,305.814s.726,2.254,1.908,8.064a198.539,198.539,0,0,1,3.278,23.075l.012.149a169.946,169.946,0,0,0,6.179,33.316l7.1,24.385-7.614,2.269s-15.239-41-18.913-57.525l-1.951-10.465-.377-23.618Z" transform="translate(-342.798 -305.263)"/><path class="d" d="M351.788,361.34l1.35-22.142,3.268.142Z" transform="translate(-342.014 -311.589)"/></g></g><path class="m" d="M356.364,269.981c-4.256-.122-8.231.093-11.214,4.06-2.4,3.191-3.855,10.962-.45,15.377,0,0,3.138,7.037,2.943,9.185l16.265.552,3.9-23.922c.327-2.058-1.888-4.127-3.9-4.512C363.9,270.721,358.059,270.029,356.364,269.981Z" transform="translate(-318.628 -239.351)"/><g transform="translate(26.343 3.436)"><ellipse class="i" cx="9.573" cy="8.232" rx="9.573" ry="8.232" transform="translate(3.259)"/><line class="n" y1="0.43" x2="6.196" transform="translate(0.665 12.919)"/><path class="o" d="M361.3,270.409h0a2.524,2.524,0,0,1-2.523-2.524v-7.706h5.048v7.706A2.524,2.524,0,0,1,361.3,270.409Z" transform="translate(-347.988 -240.953)"/><path class="p" d="M367.154,249.827c.8,5.826-3.788,12.089-7.227,12.388-4.009.35-9.741-3.483-10.537-9.309s1.83-10.992,7.657-11.789S366.359,244,367.154,249.827Z" transform="translate(-346.201 -237.358)"/><g transform="translate(0 8.71)"><path class="q" d="M349.617,256.309a4.463,4.463,0,0,1-4.12-4.477h0A4.485,4.485,0,0,1,349.9,247.3a4.323,4.323,0,0,1,3.126,1.3,4.537,4.537,0,0,1-3.1,7.715C349.821,256.318,349.719,256.315,349.617,256.309Zm-3.329-4.482a3.625,3.625,0,1,0,7.249-.037,3.7,3.7,0,0,0-1.068-2.611,3.556,3.556,0,0,0-2.565-1.071,3.682,3.682,0,0,0-3.616,3.719Z" transform="translate(-345.497 -247.248)"/><path class="q" d="M361.609,256.245a4.329,4.329,0,0,1-2.814-1.294,4.521,4.521,0,0,1-1.3-3.182h0a4.417,4.417,0,1,1,4.426,4.486C361.816,256.255,361.712,256.253,361.609,256.245Zm.544-8.193c-.084-.006-.167-.008-.252-.007a3.68,3.68,0,0,0-3.615,3.719h0a3.7,3.7,0,0,0,1.068,2.611,3.572,3.572,0,0,0,5.125-.027,3.724,3.724,0,0,0,1.055-2.622A3.661,3.661,0,0,0,362.153,248.053Z" transform="translate(-347.747 -247.236)"/><path class="q" d="M355.88,252.465l0-.809,1.707-.009,0,.809Z" transform="translate(-347.444 -248.063)"/></g><g transform="translate(3.919 12.145)"><path class="r" d="M360.639,251.691a.729.729,0,1,0,1.017-.033A.72.72,0,0,0,360.639,251.691Z" transform="translate(-352.222 -251.463)"/><path class="r" d="M350.322,252.45a.729.729,0,1,0,.7-.742A.719.719,0,0,0,350.322,252.45Z" transform="translate(-350.321 -251.509)"/></g><path class="s" d="M356.963,253.611l-1.552,1.446c-.335.249-.319.423.146.554l1.889.417-.483-2.417Z" transform="translate(-347.313 -239.722)"/><g transform="translate(2.396 2.764)"><path class="i" d="M361.1,240.764a14.546,14.546,0,0,1-12.25,8.377S344.985,238.032,361.1,240.764Z" transform="translate(-348.446 -239.995)"/><path class="i" d="M363.159,240.252s2.389,8.162,6.86,7.484a6.543,6.543,0,0,0-.414-5.6C367.671,238.741,363.159,240.252,363.159,240.252Z" transform="translate(-351.206 -239.917)"/></g><path class="t" d="M367.946,251.993l2.792-.384a.481.481,0,0,1,.489.692" transform="translate(-349.707 -239.345)"/><g transform="translate(19.889 10.814)"><path class="p" d="M374.026,252.234A2.056,2.056,0,1,1,372,249.826,2.245,2.245,0,0,1,374.026,252.234Z" transform="translate(-369.978 -249.826)"/><path class="u" d="M371.364,253.7s.134-3.281,1.275-2.224c1.7,1.574-.35,1.2-.35,1.2S371.864,252.548,371.364,253.7Z" transform="translate(-370.238 -250.096)"/></g><path class="m" d="M0,.2S3.388,5.646,5.851,0Z" transform="translate(14.58 21.233) rotate(180)"/></g></g><g transform="translate(5826.126 1411.201)"><g transform="translate(0 0)"><path class="d" d="M417,256.536l-13.92-.383a10.734,10.734,0,0,1-10.422-11.34h0A11.385,11.385,0,0,1,404.755,234.1l17.431,1.115a8.689,8.689,0,0,1,8.111,9.314h0A12.972,12.972,0,0,1,417,256.536Z" transform="translate(-392.643 -234.074)"/><path class="d" d="M398.838,253.881l-4.42,9.042,14.286-9.042Z" transform="translate(-392.556 -233.102)"/></g><g transform="translate(8.022 8.326)"><path class="m" d="M414,244.5a2.487,2.487,0,1,1-2.486-2.487A2.486,2.486,0,0,1,414,244.5Z" transform="translate(-399.861 -242.011)"/><path class="m" d="M405.265,244.5a2.487,2.487,0,1,1-2.487-2.487A2.486,2.486,0,0,1,405.265,244.5Z" transform="translate(-400.29 -242.011)"/><path class="m" d="M422.661,244.5a2.487,2.487,0,1,1-2.487-2.487A2.487,2.487,0,0,1,422.661,244.5Z" transform="translate(-399.436 -242.011)"/></g></g><g transform="translate(5639.15 1311.102)"><g transform="translate(0 0)"><path class="i" d="M295.057,347.909c.818,8.722-6.169,15.709-14.788,15.709H172.908A15.606,15.606,0,0,1,157.3,348.012V122.686a15.606,15.606,0,0,1,15.606-15.606H280.269c8.619,0,15.606,6.987,14.788,15.5Z" transform="translate(-157.302 -107.08)"/><rect class="m" width="125.071" height="194.713" transform="translate(7.106 29.846)"/><g transform="translate(44.773 14.612)"><path class="m" d="M217.613,127.608a2.6,2.6,0,1,1-2.6-2.6A2.6,2.6,0,0,1,217.613,127.608Z" transform="translate(-212.411 -125.007)"/><rect class="m" width="38.374" height="3.553" rx="1.601" transform="translate(9.232 0.812)"/></g><path class="m" d="M9.884,0A9.884,9.884,0,1,1,0,9.884,9.884,9.884,0,0,1,9.884,0Z" transform="translate(58.693 229.117)"/></g><g transform="translate(14.942 45.943)"><g transform="translate(2.421 38.175)"><path class="v" d="M286.624,301.856l-.236-72.073H187.305v72.073Z" transform="translate(-180.293 -214.211)"/><rect class="g" width="99.151" height="79.613" transform="translate(2.222 2.53)"/><path class="d" d="M0,0H103.594V9.973H0Z" transform="translate(0 72.943)"/><rect class="d" width="103.594" height="9.973"/><g transform="translate(33.071 28.537)"><rect class="m" width="37.402" height="24.795" rx="3.194"/><path class="g" d="M248.11,258.69l-9.517-5.495a.95.95,0,0,0-1.425.823v10.989a.95.95,0,0,0,1.425.823l9.517-5.495a.951.951,0,0,0,0-1.646l-9.517-5.495a.95.95,0,0,0-1.425.823v10.989a.95.95,0,0,0,1.425.823l9.517-5.495A.951.951,0,0,0,248.11,258.69Z" transform="translate(-222.715 -247.115)"/></g></g><g transform="translate(0 133.29)"><rect class="d" width="109.969" height="31.165"/><g transform="translate(14.091 9.643)"><path class="w" d="M199.415,339.558l1.971,3.993,4.407.64L202.6,347.3l.753,4.389-3.942-2.072-3.942,2.072.753-4.389-3.189-3.108,4.407-.64Z" transform="translate(-193.037 -339.558)"/><path class="m" d="M221.206,339.558l1.971,3.993,4.407.64-3.189,3.108.753,4.389-3.942-2.072-3.942,2.072.753-4.389-3.189-3.108,4.407-.64Z" transform="translate(-197.124 -339.558)"/><path class="m" d="M243,339.558l1.971,3.993,4.407.64-3.189,3.108.753,4.389L243,349.617l-3.942,2.072.752-4.389-3.189-3.108,4.407-.64Z" transform="translate(-201.211 -339.558)"/><path class="m" d="M264.789,339.558l1.971,3.993,4.407.64-3.189,3.108.753,4.389-3.942-2.072-3.942,2.072.753-4.389-3.189-3.108,4.407-.64Z" transform="translate(-205.298 -339.558)"/><path class="m" d="M286.58,339.558l1.971,3.993,4.407.64-3.189,3.108.753,4.389-3.942-2.072-3.941,2.072.753-4.389-3.189-3.108,4.407-.64Z" transform="translate(-209.385 -339.558)"/></g></g><rect class="x" width="109.969" height="31.165"/><g transform="translate(10.633 13.198)"><path class="i" d="M189.091,186.908l-.311-.95,12.86-4.21,15.066,2.487,17.316-3.745,12.525,1.858,14.035-2.474.107.028,10.544,2.81,6.512-2.247.326.944-6.8,2.346-.148-.039L260.54,180.9l-14.058,2.453-12.515-1.856-17.233,3.761-.094-.016-14.92-2.463Z" transform="translate(-188.781 -179.873)"/><path class="y" d="M205.8,182.359a1.583,1.583,0,1,1-1.333-1.8A1.583,1.583,0,0,1,205.8,182.359Z" transform="translate(-191.382 -179.999)"/><path class="z" d="M260.823,182.782a1.234,1.234,0,1,1-1.077-1.373A1.233,1.233,0,0,1,260.823,182.782Z" transform="translate(-201.831 -180.16)"/><path class="aa" d="M291.208,183.229a1.234,1.234,0,1,1-1.077-1.373A1.233,1.233,0,0,1,291.208,183.229Z" transform="translate(-207.53 -180.243)"/></g></g></g><g transform="translate(5773.977 1444.252)"><g transform="translate(0 1.325)"><path class="k" d="M366.482,272.67c-4.936.8-5.5,16.329-6.433,20.506,0,0-13.486,2.29-19.7,2.372l-.372,3.937s19.158.908,22.562-1.655C371.727,290.912,375.053,271.271,366.482,272.67Z" transform="translate(-326.39 -272.599)"/><path class="k" d="M339.79,300.369s-2.481.3-5.3-2.346a2.909,2.909,0,0,0-1.54-.725l-9.7-1.549s-.167,1.7,5.486,2.631c0,0,.912,3.948,2.908,4.662a20.586,20.586,0,0,0,5.189.785Z" transform="translate(-323.254 -276.941)"/></g><path class="m" d="M367.231,271.031s8.236-1.23,9.155,7.128a13.577,13.577,0,0,1-.838,6.192l-3.49,9.4-8.794-2.658Z" transform="translate(-330.758 -270.968)"/></g></g></g></svg>