<svg xmlns="http://www.w3.org/2000/svg" xmlns:xlink="http://www.w3.org/1999/xlink" width="357" height="357" viewBox="0 0 357 357"><defs><style>.a{fill:#a5dcf0;}.b{clip-path:url(#a);}.c{fill:#ccf7ef;}.d{fill:#d8edee;}.e{fill:#fff;}.f{fill:#f05a2a;}.g{fill:#f8ec3a;}.h{fill:#52e5cc;}.i,.m{fill:none;}.i{stroke:#403f41;stroke-linecap:round;stroke-miterlimit:10;stroke-width:2px;}.j{fill:#a6a8ab;}.k{fill:#221f1f;}.l{fill:#403f41;}</style><clipPath id="a"><path class="a" d="M210.21,88.723a142.2,142.2,0,1,0,142.2,142.2A142.2,142.2,0,0,0,210.21,88.723Z" transform="translate(-68.018 -88.723)"/></clipPath></defs><g transform="translate(-219 -606)"><g transform="translate(-5347 -235)"><g class="b" transform="translate(5602 895.608)"><path class="c" d="M233.846,88.723A165.832,165.832,0,1,0,399.681,254.554,165.832,165.832,0,0,0,233.846,88.723Z" transform="translate(-91.519 -88.723)"/><g transform="translate(-20.923 166.794)"><path class="d" d="M442.655,450.662a24.729,24.729,0,0,0-47.145-10,21.307,21.307,0,0,0-31.4,3.4,24.058,24.058,0,1,0-.807,44.929c-.02.091-.042.18-.06.272a23.013,23.013,0,0,0,3.923,18.024A166.27,166.27,0,0,0,442.655,450.662Z" transform="translate(-146.3 -352.921)"/><path class="d" d="M123.273,442.094a19.539,19.539,0,1,0,12.8-36.464c.142-.246.29-.5.424-.756a20.306,20.306,0,0,0-26.268-28.028,17.807,17.807,0,0,0-27.635-8.324,17.2,17.2,0,0,0-10.952-5.829,165.231,165.231,0,0,0,37.647,78.993,17.682,17.682,0,0,0,8.435-3.982A19.508,19.508,0,0,0,123.273,442.094Zm-22.084-34.639c-.006-.575-.043-1.152-.1-1.727.3.516.632,1.006.98,1.491C101.768,407.289,101.475,407.369,101.189,407.455Z" transform="translate(-71.638 -334.596)"/><path class="d" d="M281.508,324.52,259.934,446.67l66.857-4.035L301.351,323.24Z" transform="translate(-125.836 -323.24)"/><path class="d" d="M346.679,463.664a11.1,11.1,0,0,0-5.348-13.656,16.249,16.249,0,1,0-27.414-16.346,16.55,16.55,0,0,0-.75,2.844,17.641,17.641,0,0,0-2.227-.994,17.335,17.335,0,0,0-15.521,30.726,14.934,14.934,0,0,0-.968,22.116A17.108,17.108,0,0,0,293.1,491.2a16.865,16.865,0,1,0,32.395,2.466c.062.022.12.048.182.07a16.176,16.176,0,0,0,17.945-25.565A11.062,11.062,0,0,0,346.679,463.664Z" transform="translate(-133.823 -351.942)"/><path class="d" d="M487.5,369.077a16.471,16.471,0,0,0-1.531,2.477,16.709,16.709,0,0,0-1.82-1.585,17.152,17.152,0,0,0-23.553,24.6,14.774,14.774,0,0,0-7.3,20.654,16.684,16.684,0,0,0,13.341,28.878,165.3,165.3,0,0,0,39.589-80.339A16.085,16.085,0,0,0,487.5,369.077Z" transform="translate(-179.926 -334.586)"/><path class="d" d="M265.111,445.107a15.035,15.035,0,0,0,1.935-4.066c2.165-7.131-1.206-14.467-7.53-16.384-5.723-1.741-11.9,1.559-14.629,7.487-5.323-.166-10.5,3.7-12.3,9.655a13.481,13.481,0,0,0,2.591,12.975,9.761,9.761,0,0,0-5.727,6.37c-1.51,4.969.84,10.081,5.246,11.42a7.462,7.462,0,0,0,1.173.246c-.01.033-.026.066-.035.1-1.624,5.347.905,10.85,5.647,12.289s9.9-1.728,11.527-7.076a11.273,11.273,0,0,0,.48-2.893c.123.041.239.084.362.12,7.583,2.3,15.836-2.765,18.432-11.32C274.654,456.208,271.472,448.183,265.111,445.107Z" transform="translate(-116.929 -352.298)"/><path class="d" d="M211.568,495.507a24.059,24.059,0,1,0-9.185-43.988c0-.093,0-.184,0-.278a23.078,23.078,0,0,0-43.318-10.452,15.837,15.837,0,0,0-22.905,12.538A23.192,23.192,0,0,0,117.4,454.56a166.217,166.217,0,0,0,74.237,53.854c.3,0,.6.016.907.007A21.311,21.311,0,0,0,211.568,495.507Z" transform="translate(-84.811 -353.618)"/><path class="e" d="M439.425,466.161a24.737,24.737,0,0,0-35.132,3.993,21.3,21.3,0,0,0-31.362-3.716,24.059,24.059,0,1,0-10.84,43.61c-.039.083-.081.166-.12.251a23.005,23.005,0,0,0-2.03,9.7A166.031,166.031,0,0,0,439.425,466.161Z" transform="translate(-147.468 -362.779)"/><path class="e" d="M130.625,460.3c.083-.042.164-.082.247-.127a23.076,23.076,0,0,0-10.237-43.367A15.839,15.839,0,0,0,99.1,402.033a23.184,23.184,0,0,0-23.271-20.475,166.068,166.068,0,0,0,65.976,93.7,24.129,24.129,0,0,0-11.183-14.96Z" transform="translate(-72.845 -340.026)"/><path class="e" d="M287.2,357.134l-16.734,85.435,51.858-2.821-19.731-83.51Z" transform="translate(-128.867 -332.738)"/><path class="e" d="M325.5,510.792c.062.021.12.047.182.07A16.175,16.175,0,0,0,343.625,485.3a11.1,11.1,0,0,0-2.293-18.16,16.249,16.249,0,1,0-27.414-16.346,16.317,16.317,0,0,0-.75,2.844,17.558,17.558,0,0,0-2.227-.994,17.335,17.335,0,0,0-15.522,30.725,14.936,14.936,0,0,0-.967,22.117,16.826,16.826,0,0,0-.65,16c1.089.02,2.178.041,3.271.041a166.944,166.944,0,0,0,27.955-2.358A16.782,16.782,0,0,0,325.5,510.792Z" transform="translate(-133.823 -356.872)"/><path class="e" d="M502.16,384.008a17.163,17.163,0,0,0-12.929,16.8A14.777,14.777,0,0,0,470.6,412.322a17.01,17.01,0,0,0-3.076.481,16.688,16.688,0,0,0,5.029,32.837,165.39,165.39,0,0,0,32.554-62.11A17.463,17.463,0,0,0,502.16,384.008Z" transform="translate(-181.965 -340.594)"/><path class="e" d="M272.084,458.656a15.013,15.013,0,0,0,.339-4.489c-.546-7.434-6.332-13.064-12.924-12.577-5.964.438-10.541,5.739-10.951,12.252-5.026,1.76-8.459,7.23-8,13.434a13.483,13.483,0,0,0,7.088,11.175,9.766,9.766,0,0,0-3.052,8.005c.381,5.18,4.415,9.1,9,8.765a7.71,7.71,0,0,0,1.185-.193c0,.035,0,.069,0,.105.41,5.574,4.75,9.8,9.693,9.432s8.616-5.177,8.206-10.751a11.376,11.376,0,0,0-.592-2.872c.127-.007.252-.008.38-.017,7.905-.582,13.779-8.28,13.124-17.2C284.983,465.578,279.124,459.236,272.084,458.656Z" transform="translate(-120.244 -357.297)"/><path class="e" d="M232.419,523.839a24.062,24.062,0,1,0-13.666-44.292c0-.093,0-.184,0-.277a23.076,23.076,0,0,0-43.317-10.452,15.837,15.837,0,0,0-22.906,12.538,23.131,23.131,0,0,0-12.53-.965,165.335,165.335,0,0,0,87.649,43.757c.1-.205.2-.4.29-.612A24.258,24.258,0,0,0,232.419,523.839Z" transform="translate(-91.315 -361.686)"/><path class="e" d="M334.579,516.657A23.946,23.946,0,0,0,322.2,520.47c0-.093,0-.185,0-.276a23.077,23.077,0,0,0-43.318-10.453,15.838,15.838,0,0,0-22.905,12.538,23.178,23.178,0,0,0-26.538,7.874A166.276,166.276,0,0,0,350.834,522.4,23.968,23.968,0,0,0,334.579,516.657Z" transform="translate(-117.059 -373.465)"/></g><path class="e" d="M430.806,203.824a8.275,8.275,0,0,0-1.828.584,9.637,9.637,0,0,0-.146-1.085,9.458,9.458,0,0,0-17.515-2.849,8.451,8.451,0,0,0-14.345,4.4,9.374,9.374,0,0,0-10.744,7.189h54.431a8.269,8.269,0,0,0-9.853-8.24Zm-18.8,7.7c.088-.115.174-.233.255-.352.176.213.364.417.556.612C412.55,211.682,412.278,211.6,412,211.521Z" transform="translate(-183.111 -119.728)"/><path class="e" d="M189.4,255.006a6.5,6.5,0,0,0-1.427.456,7.094,7.094,0,0,0-.114-.847,7.384,7.384,0,0,0-13.674-2.226,6.6,6.6,0,0,0-11.2,3.437,7.316,7.316,0,0,0-8.388,5.612H197.09a6.32,6.32,0,0,0-.12-1.333A6.454,6.454,0,0,0,189.4,255.006Zm-14.679,6.009c.068-.089.135-.181.2-.275.135.166.283.325.434.479C175.145,261.14,174.932,261.074,174.719,261.015Z" transform="translate(-116.44 -134.974)"/></g><g transform="translate(5680.7 860)"><g transform="translate(46.597 193.447)"><path class="f" d="M300.462,379.313c6.568-16.469,21.406-37.26,21.168-46.6s-11.041-22.341-22.908-22.041-22,13.667-21.762,23.173S300.462,379.313,300.462,379.313Z" transform="translate(-276.956 -310.665)"/><path class="g" d="M301.778,367.733c5.366-13.459,17.5-30.449,17.3-38.085s-9.023-18.258-18.721-18.013-17.984,11.17-17.786,18.937S301.778,367.733,301.778,367.733Z" transform="translate(-278.571 -310.943)"/><path class="e" d="M303.1,354.752c4.135-10.371,13.479-23.464,13.333-29.347S309.475,311.336,302,311.523s-13.857,8.609-13.7,14.594S303.1,354.752,303.1,354.752Z" transform="translate(-280.22 -310.911)"/></g><g transform="translate(41.769 198.174)"><path class="f" d="M278.912,362.308c6.662-9.727,19.317-21.06,20.525-27.157s-3.91-16.1-11.655-17.64-16.268,5.665-17.5,11.866S278.912,362.308,278.912,362.308Z" transform="translate(-270.177 -317.302)"/><path class="g" d="M281.71,354.767c5.441-7.952,15.789-17.212,16.774-22.194s-3.2-13.163-9.527-14.416-13.295,4.629-14.3,9.7S281.71,354.767,281.71,354.767Z" transform="translate(-271.442 -317.499)"/><path class="e" d="M284.72,346.311c4.193-6.129,12.167-13.264,12.927-17.1s-2.463-10.143-7.34-11.109-10.247,3.569-11.021,7.474S284.72,346.311,284.72,346.311Z" transform="translate(-272.78 -317.494)"/></g><g transform="translate(57.5 195.915)"><path class="f" d="M309.239,341.332c-.037-7.491,2.481-17.985.908-21.606s-7.863-7-12.461-5-6.455,8.839-4.855,12.521S309.239,341.332,309.239,341.332Z" transform="translate(-292.266 -314.13)"/><path class="g" d="M307.69,336.888c-.027-6.121,2.028-14.7.742-17.657s-6.427-5.722-10.186-4.088-5.27,7.223-3.964,10.235S307.69,336.888,307.69,336.888Z" transform="translate(-292.713 -314.282)"/><path class="e" d="M305.915,331.9c-.021-4.716,1.565-11.324.573-13.605s-4.954-4.408-7.85-3.149-4.064,5.566-3.055,7.887S305.915,331.9,305.915,331.9Z" transform="translate(-293.118 -314.315)"/></g><g transform="translate(0 0)"><path class="h" d="M338.784,102.663c-33.119,43.868-45.321,5.966-63.628,6.1-9.588.072-16.558,39.511-63.631-6.1a63.629,63.629,0,1,1,127.258,0Z" transform="translate(-211.526 -39.033)"/><path class="h" d="M211.526,116.985c6.976,39.7,26.15,44.554,36.609,86.049,22.707,15.116,20.964,11.627,57.531,2.98,5.224-38.191,33.119-61.226,33.119-89.029C340.526,75.433,216.759,83.575,211.526,116.985Z" transform="translate(-211.526 -53.355)"/><g transform="translate(34.872 75.721)"><path class="i" d="M260.492,145.358s12.061,27.688,15.7,37.959,3.75,34.8,3.75,34.8" transform="translate(-260.492 -145.358)"/><path class="i" d="M339.565,145.359s-12.055,27.688-15.7,37.958-3.75,34.8-3.75,34.8" transform="translate(-277.653 -145.358)"/></g><path class="j" d="M272.618,276.169v19.636c0,6.038,3.918,10.933,8.753,10.932h26.253c4.824,0,8.743-4.893,8.743-10.932V276.17Z" transform="translate(-229.11 -107.289)"/><path class="k" d="M257.315,242.351V274.19a10.932,10.932,0,0,0,10.927,10.933h43.691A10.932,10.932,0,0,0,322.86,274.19V242.351Z" transform="translate(-224.706 -97.555)"/><g transform="translate(40.44 77.511)"><path class="i" d="M281,156.2c0,4.6-2.844,8.332-6.348,8.332s-6.344-3.73-6.344-8.332,2.838-8.324,6.344-8.325S281,151.6,281,156.2Z" transform="translate(-268.31 -147.871)"/><path class="i" d="M298.826,156.2c0,4.6-2.838,8.332-6.349,8.331s-6.346-3.729-6.346-8.331,2.844-8.324,6.348-8.324S298.828,151.6,298.826,156.2Z" transform="translate(-273.439 -147.872)"/><path class="i" d="M316.658,156.2c0,4.6-2.844,8.332-6.349,8.331s-6.35-3.729-6.352-8.331,2.843-8.324,6.352-8.324S316.658,151.6,316.658,156.2Z" transform="translate(-278.57 -147.872)"/><path class="i" d="M334.482,156.2c0,4.6-2.839,8.332-6.344,8.332s-6.348-3.73-6.348-8.332,2.841-8.325,6.349-8.324S334.482,151.6,334.482,156.2Z" transform="translate(-283.704 -147.872)"/></g><path class="c" d="M269.918,53.293c15.7-11.587,43.715-1.733,54.091,5.807,14.424,10.477,25.072,33.616,23.408,48.576s-7.99,22.851-13.873,36.774c-2.092,4.95,7.152-15.088-4.086-42.1-8.39-20.16-32.642-25.3-48.723-27.163C269.485,73.883,254.3,64.821,269.918,53.293Z" transform="translate(-226.411 -41.606)"/><path class="l" d="M324.056,254.086a1.533,1.533,0,0,1-1.494,1.572H255.257a1.533,1.533,0,0,1-1.493-1.571v-2.731a1.534,1.534,0,0,1,1.493-1.572h67.305a1.537,1.537,0,0,1,1.5,1.572Z" transform="translate(-223.683 -99.694)"/><path class="l" d="M324.058,267.28a1.538,1.538,0,0,1-1.5,1.574H255.257a1.536,1.536,0,0,1-1.493-1.574v-2.73a1.535,1.535,0,0,1,1.493-1.572h67.305a1.534,1.534,0,0,1,1.494,1.572Z" transform="translate(-223.683 -103.492)"/><path class="l" d="M324.274,280.475a1.535,1.535,0,0,1-1.494,1.572h-67.3a1.535,1.535,0,0,1-1.5-1.572v-2.73a1.538,1.538,0,0,1,1.5-1.576h67.3a1.537,1.537,0,0,1,1.495,1.575Z" transform="translate(-223.745 -107.289)"/></g></g></g><rect class="m" width="357" height="357" transform="translate(219 606)"/></g></svg>