<svg xmlns="http://www.w3.org/2000/svg" width="357" height="357" viewBox="0 0 357 357"><defs><style>.a{fill:none;}.b{fill:#ececec;}.c{fill:#06bc99;}.d{fill:#00d8ae;}.e{fill:#00da93;}.f{fill:#52e5cc;}.g{fill:#a8a8a8;}.h{fill:#fff;}.i{fill:#00b57f;}.j{fill:#00955e;}.k{fill:#fda380;}.l{fill:#413657;}.m{fill:#f77853;}.n{fill:#e85143;}.o{fill:#1a0b42;}.p{fill:#554e72;}.q{fill:#333;}</style></defs><g transform="translate(-219 -606)"><rect class="a" width="357" height="357" transform="translate(219 606)"/><g transform="translate(-6188 -263)"><g transform="translate(6430.246 954.639)"><path class="b" d="M174.162,175.257c-10.268-33.791-56.537-44.676-83.053-19.423q-.572.544-1.142,1.107c-38.015,37.49-20.056,129.877,59.28,153.292s161.857-19.344,166.494-57.568-31.966-50.235-88.768-39.547C194.881,219.158,180.554,196.293,174.162,175.257Z" transform="translate(-35.476 -137.904)"/><path class="b" d="M316.685,175.326l1.2-6.108-5.722-1.123a13.953,13.953,0,0,0-.757-4.47l4.714-3.168-3.471-5.165-4.512,3.032a13.94,13.94,0,0,0-4.633-3.117l1.124-5.723-6.107-1.2-1.158,5.9a13.872,13.872,0,0,0-3.716.723l-3.168-4.716-5.166,3.471,3.032,4.512a13.934,13.934,0,0,0-3.116,4.632l-5-.982-1.2,6.107,5.178,1.016a13.862,13.862,0,0,0,1.1,4.712l-4.514,3.032,3.471,5.166,4.715-3.168a13.934,13.934,0,0,0,4.549,2.643l-1.131,5.757,6.108,1.2,1.226-6.241a13.839,13.839,0,0,0,3.953-1.043l3.032,4.513,5.165-3.471-3.167-4.714a13.921,13.921,0,0,0,2.075-3.167Zm-15.337-2.446a5.7,5.7,0,1,1,1.554-7.916A5.71,5.71,0,0,1,301.348,172.88Z" transform="translate(-102.252 -139.93)"/><path class="b" d="M259.816,150.451l.641-3.268-3.061-.6a7.482,7.482,0,0,0-.4-2.392l2.522-1.695-1.857-2.764-2.414,1.622a7.457,7.457,0,0,0-2.478-1.668l.6-3.062-3.267-.641-.62,3.156a7.452,7.452,0,0,0-1.988.386L245.8,137l-2.764,1.857,1.621,2.414a7.461,7.461,0,0,0-1.667,2.479l-2.676-.526-.641,3.267,2.77.543a7.442,7.442,0,0,0,.588,2.522l-2.415,1.622,1.857,2.763,2.523-1.694a7.476,7.476,0,0,0,2.434,1.414l-.605,3.08,3.268.641.656-3.339a7.428,7.428,0,0,0,2.115-.558l1.622,2.415,2.764-1.857-1.695-2.522a7.423,7.423,0,0,0,1.11-1.695Zm-8.207-1.309a3.052,3.052,0,1,1,.831-4.235A3.056,3.056,0,0,1,251.609,149.142Z" transform="translate(-89.629 -135.984)"/><path class="b" d="M45.474,235.136l.848-4.326-4.053-.8a9.9,9.9,0,0,0-.537-3.167l3.34-2.244-2.459-3.66-3.2,2.148a9.869,9.869,0,0,0-3.282-2.208l.8-4.055L32.6,215.98l-.82,4.178a9.828,9.828,0,0,0-2.632.513l-2.244-3.341-3.66,2.459,2.148,3.2a9.869,9.869,0,0,0-2.208,3.282l-3.544-.7L18.8,229.9l3.669.72a9.83,9.83,0,0,0,.779,3.338l-3.2,2.148,2.459,3.659,3.341-2.244a9.869,9.869,0,0,0,3.223,1.873l-.8,4.079,4.326.849.868-4.422a9.816,9.816,0,0,0,2.8-.739l2.148,3.2,3.659-2.459-2.244-3.339a9.861,9.861,0,0,0,1.47-2.244ZM34.608,233.4a4.041,4.041,0,1,1,1.1-5.608A4.045,4.045,0,0,1,34.608,233.4Z" transform="translate(-18.795 -161.639)"/><path class="b" d="M469.774,330.468l.849-4.327-4.053-.8a9.885,9.885,0,0,0-.537-3.167l3.34-2.244-2.459-3.66-3.2,2.148a9.873,9.873,0,0,0-3.282-2.208l.8-4.055-4.327-.848-.82,4.178a9.82,9.82,0,0,0-2.632.513l-2.244-3.341-3.66,2.458,2.148,3.2a9.866,9.866,0,0,0-2.208,3.282l-3.544-.7-.85,4.326,3.669.72a9.831,9.831,0,0,0,.779,3.338l-3.2,2.148L446.8,335.1l3.341-2.244a9.868,9.868,0,0,0,3.223,1.873l-.8,4.078,4.327.849.867-4.422a9.805,9.805,0,0,0,2.8-.739l2.148,3.2,3.659-2.459-2.244-3.339a9.864,9.864,0,0,0,1.47-2.244Zm-10.866-1.733a4.041,4.041,0,1,1,1.1-5.608A4.045,4.045,0,0,1,458.908,328.735Z" transform="translate(-154.868 -192.212)"/></g><g transform="translate(6437.563 906.85)"><g transform="translate(0 14.411)"><g transform="translate(8.596 8.194)"><path class="c" d="M83.357,239.2C72.7,228.257,62.208,216.194,56.2,207.389c-7.847-11.5-11.542-21.016-10.982-28.274a.874.874,0,0,1,1.742.134c-.979,12.686,12.275,33.229,38.345,59.458Z" transform="translate(-45.164 -178.309)"/></g><path class="d" d="M46,202.083s-5.568,4.725-13.493-5.39C32.509,196.693,43.084,191.878,46,202.083Z" transform="translate(-32.509 -175.647)"/><path class="d" d="M57.372,206.649s-5.028-5.3,4.63-13.772C62,192.877,67.4,203.167,57.372,206.649Z" transform="translate(-40.063 -174.787)"/><path class="d" d="M45.667,180.775s-6.506-3.317-.226-14.528C45.441,166.247,53.959,174.15,45.667,180.775Z" transform="translate(-35.78 -166.247)"/><path class="d" d="M61.94,227.7s-3.642,6.33-14.521-.507C47.419,227.189,55.742,219.081,61.94,227.7Z" transform="translate(-37.291 -184.682)"/><path class="e" d="M74.776,230.058s-5.868-4.348,2.178-14.366C76.954,215.692,84.049,224.894,74.776,230.058Z" transform="translate(-45.402 -182.104)"/><path class="e" d="M77.425,245.929s-3.521,6.4-14.528-.232C62.9,245.7,71.065,237.432,77.425,245.929Z" transform="translate(-42.254 -190.57)"/></g><g transform="translate(266.784)"><g transform="translate(0 8.076)"><path class="c" d="M427.243,222.613c8.947-12.384,17.563-25.849,22.219-35.437,6.083-12.526,8.349-22.476,6.735-29.574a.874.874,0,1,0-1.7.388c2.821,12.407-7.29,34.665-29.251,64.42Z" transform="translate(-425.242 -156.922)"/></g><path class="d" d="M467.508,180.689s6.2,3.861,12.562-7.3C480.07,173.387,468.9,170.167,467.508,180.689Z" transform="translate(-438.797 -153.977)"/><path class="d" d="M459.68,186.965s4.2-5.974-6.592-12.949C453.088,174.016,449.252,184.985,459.68,186.965Z" transform="translate(-433.951 -154.328)"/><path class="d" d="M468.012,159.439s5.952-4.232-1.9-14.406C466.114,145.033,458.841,154.095,468.012,159.439Z" transform="translate(-437.472 -145.033)"/><path class="d" d="M454.825,208.538s4.527,5.731,14.291-2.623C469.116,205.915,459.7,199.109,454.825,208.538Z" transform="translate(-434.729 -163.796)"/><path class="d" d="M446.236,212.548s5.17-5.158-4.253-13.894C441.983,198.654,436.308,208.794,446.236,212.548Z" transform="translate(-430.093 -162.229)"/><path class="d" d="M442.156,228.842s4.418,5.815,14.339-2.351C456.495,226.491,447.208,219.508,442.156,228.842Z" transform="translate(-430.666 -170.352)"/></g></g><g transform="translate(6446.195 939.246)"><g transform="translate(0 2.191)"><path class="c" d="M131.286,234.369V219.714l-4.986-4.629-25.42,4.629v14.655H87.867l36.159-54.375-4.986-4.629H85.894l-40.679,58.9V254.8l4.986,4.629H94.85l.084,11.807,4.986,4.629h31.365V259.434h12.738V234.369l-4.986-4.629Z" transform="translate(-45.215 -175.364)"/><path class="f" d="M139.037,254.8H126.3V271.24H94.934V254.8H45.215V234.259l40.679-58.9H119.04L82.881,229.739H95.893V215.084H126.3v14.655h12.738Z" transform="translate(-45.215 -175.364)"/></g><g transform="translate(98.338)"><path class="c" d="M240.739,178.953c-25.339,0-43.419,18.353-43.419,50.13s18.08,50.13,43.419,50.13,43.418-18.355,43.418-50.13S266.077,178.953,240.739,178.953Zm0,74.372c-6.3,0-10.958-5.752-10.958-24.243s4.657-24.244,10.958-24.244,10.957,5.753,10.957,24.244S247.039,253.326,240.739,253.326Z" transform="translate(-192.333 -174.324)"/><path class="f" d="M189.979,222.268c0-31.777,18.08-50.13,43.419-50.13s43.418,18.353,43.418,50.13S258.736,272.4,233.4,272.4,189.979,254.044,189.979,222.268Zm54.376,0c0-18.491-4.657-24.244-10.957-24.244s-10.958,5.753-10.958,24.244S227.1,246.51,233.4,246.51,244.355,240.758,244.355,222.268Z" transform="translate(-189.979 -172.138)"/></g><g transform="translate(192.154 2.191)"><path class="c" d="M414.157,234.369V219.714l-4.987-4.629-25.42,4.629v14.655H370.738L406.9,179.994l-4.986-4.629H368.765l-40.679,58.9V254.8l4.986,4.629h44.648l.084,11.807,4.987,4.629h31.365V259.434h12.738V234.369l-4.986-4.629Z" transform="translate(-328.086 -175.364)"/><path class="f" d="M421.908,254.8H409.171V271.24H377.805V254.8H328.086V234.259l40.679-58.9h33.146l-36.159,54.375h13.012V215.084h30.407v14.655h12.738Z" transform="translate(-328.086 -175.364)"/></g></g><g transform="translate(6461.443 900)"><g transform="translate(0 0)"><g transform="translate(7.551)"><g transform="translate(0 9.434)"><path class="e" d="M79.993,129.765h-.811a.406.406,0,0,1-.351-.609l.406-.7a.405.405,0,1,1,.7.4l-.054.094h.109a.406.406,0,1,1,0,.811Z" transform="translate(-78.777 -128.252)"/></g><g transform="translate(1.126 1.949)"><path class="e" d="M80.839,124.282a.4.4,0,0,1-.2-.055.405.405,0,0,1-.148-.554l.72-1.247a.406.406,0,1,1,.7.406l-.721,1.247A.406.406,0,0,1,80.839,124.282Zm1.44-2.5a.406.406,0,0,1-.351-.608l.72-1.248a.406.406,0,0,1,.7.406l-.72,1.247A.405.405,0,0,1,82.279,121.787Zm1.441-2.5a.406.406,0,0,1-.351-.608l.721-1.248a.406.406,0,0,1,.7.406l-.721,1.248A.4.4,0,0,1,83.72,119.292Z" transform="translate(-80.434 -117.234)"/></g><g transform="translate(5.447)"><path class="e" d="M88.012,115.877a.4.4,0,0,1-.351-.2l-.054-.094-.054.094a.406.406,0,0,1-.7-.406l.406-.7a.406.406,0,0,1,.7,0l.406.7a.406.406,0,0,1-.351.608Z" transform="translate(-86.795 -114.364)"/></g><g transform="translate(6.978 1.949)"><path class="e" d="M93.056,124.282a.407.407,0,0,1-.352-.2l-.72-1.247a.406.406,0,1,1,.7-.406l.72,1.247a.4.4,0,0,1-.149.554A.4.4,0,0,1,93.056,124.282Zm-1.441-2.5a.4.4,0,0,1-.351-.2l-.721-1.247a.406.406,0,0,1,.7-.406l.721,1.247a.406.406,0,0,1-.351.609Zm-1.44-2.5a.406.406,0,0,1-.352-.2l-.72-1.248a.406.406,0,0,1,.7-.406l.72,1.248a.405.405,0,0,1-.351.608Z" transform="translate(-89.049 -117.234)"/></g><g transform="translate(10.894 9.434)"><path class="e" d="M96.03,129.765h-.811a.406.406,0,1,1,0-.811h.109l-.054-.094a.405.405,0,1,1,.7-.4l.406.7a.406.406,0,0,1-.351.609Z" transform="translate(-94.813 -128.252)"/></g><g transform="translate(2.252 10.137)"><path class="e" d="M89.7,130.1H88.258a.406.406,0,0,1,0-.811H89.7a.406.406,0,1,1,0,.811Zm-2.881,0H85.377a.406.406,0,0,1,0-.811h1.441a.406.406,0,0,1,0,.811Zm-2.881,0H82.5a.406.406,0,1,1,0-.811h1.44a.406.406,0,0,1,0,.811Z" transform="translate(-82.091 -129.286)"/></g></g><g transform="translate(28.482 5.702)"><path class="g" d="M114.863,134.864a.42.42,0,0,1-.058,0,6.045,6.045,0,0,1-1.662-.488.405.405,0,1,1,.338-.737,5.242,5.242,0,0,0,1.439.422.406.406,0,0,1-.057.807Zm1.615,0a.406.406,0,0,1-.056-.807,5.266,5.266,0,0,0,1.439-.422.405.405,0,1,1,.337.737,6.039,6.039,0,0,1-1.662.488A.406.406,0,0,1,116.478,134.864Zm2.91-1.329a.406.406,0,0,1-.266-.712,5.28,5.28,0,0,0,.984-1.134.406.406,0,0,1,.682.44,6.113,6.113,0,0,1-1.134,1.308A.4.4,0,0,1,119.388,133.535Zm-7.435,0a.4.4,0,0,1-.266-.1,6.1,6.1,0,0,1-1.134-1.308.405.405,0,0,1,.682-.439,5.292,5.292,0,0,0,.983,1.134.406.406,0,0,1-.266.712Zm9.166-2.691a.418.418,0,0,1-.114-.016.407.407,0,0,1-.275-.5,5.285,5.285,0,0,0,.213-1.485.405.405,0,1,1,.81,0,6.093,6.093,0,0,1-.245,1.713A.406.406,0,0,1,121.119,130.844Zm-10.9,0a.405.405,0,0,1-.389-.291,6.093,6.093,0,0,1-.245-1.713.405.405,0,1,1,.81,0,5.285,5.285,0,0,0,.212,1.486.4.4,0,0,1-.275.5A.39.39,0,0,1,110.222,130.844Zm10.9-3.2a.405.405,0,0,1-.389-.291,5.266,5.266,0,0,0-.624-1.365.405.405,0,1,1,.681-.439,6.042,6.042,0,0,1,.72,1.575.405.405,0,0,1-.275.5A.412.412,0,0,1,121.119,127.646Zm-10.9,0a.417.417,0,0,1-.114-.016.406.406,0,0,1-.275-.5,6.045,6.045,0,0,1,.721-1.575.405.405,0,1,1,.681.439,5.253,5.253,0,0,0-.624,1.364A.407.407,0,0,1,110.223,127.645Zm9.166-2.689a.4.4,0,0,1-.266-.1,5.3,5.3,0,0,0-1.261-.812.405.405,0,1,1,.337-.737,6.072,6.072,0,0,1,1.456.937.406.406,0,0,1-.266.712Zm-7.435,0a.406.406,0,0,1-.266-.712,6.118,6.118,0,0,1,1.456-.937.406.406,0,0,1,.338.738,5.275,5.275,0,0,0-1.262.812A.4.4,0,0,1,111.954,124.954Zm4.526-1.329a.409.409,0,0,1-.058,0,5.375,5.375,0,0,0-1.5,0,.405.405,0,0,1-.114-.8,6.2,6.2,0,0,1,1.73,0,.406.406,0,0,1-.056.807Z" transform="translate(-109.589 -122.758)"/></g><g transform="translate(0 21.051)"><path class="g" d="M72.935,157.46a.406.406,0,0,1-.058,0,6.058,6.058,0,0,1-1.662-.487.406.406,0,1,1,.337-.738,5.219,5.219,0,0,0,1.439.422.406.406,0,0,1-.056.807Zm1.615,0a.406.406,0,0,1-.057-.807,5.211,5.211,0,0,0,1.439-.422.406.406,0,0,1,.337.738,6.053,6.053,0,0,1-1.662.487A.413.413,0,0,1,74.549,157.46Zm2.91-1.329a.406.406,0,0,1-.266-.712,5.276,5.276,0,0,0,.984-1.134.405.405,0,1,1,.682.439,6.092,6.092,0,0,1-1.134,1.308A.405.405,0,0,1,77.46,156.131Zm-7.436,0a.4.4,0,0,1-.265-.1,6.1,6.1,0,0,1-1.134-1.308.405.405,0,1,1,.682-.439,5.316,5.316,0,0,0,.984,1.134.406.406,0,0,1-.266.712Zm9.167-2.691a.389.389,0,0,1-.114-.016.405.405,0,0,1-.275-.5,5.277,5.277,0,0,0,.212-1.485.406.406,0,1,1,.811,0,6.069,6.069,0,0,1-.245,1.713A.405.405,0,0,1,79.19,153.44Zm-10.9,0a.406.406,0,0,1-.389-.291,6.093,6.093,0,0,1-.245-1.713.406.406,0,1,1,.811,0,5.281,5.281,0,0,0,.212,1.486.406.406,0,0,1-.275.5A.416.416,0,0,1,68.294,153.44Zm10.9-3.2a.406.406,0,0,1-.389-.291,5.254,5.254,0,0,0-.624-1.364.406.406,0,0,1,.682-.439,6.064,6.064,0,0,1,.72,1.575.406.406,0,0,1-.275.5A.416.416,0,0,1,79.19,150.242Zm-10.9,0a.4.4,0,0,1-.115-.016.405.405,0,0,1-.274-.5,6.062,6.062,0,0,1,.72-1.575.405.405,0,0,1,.682.439,5.242,5.242,0,0,0-.624,1.364A.4.4,0,0,1,68.294,150.241Zm9.165-2.689a.4.4,0,0,1-.266-.1,5.259,5.259,0,0,0-1.261-.812.406.406,0,0,1,.338-.738,6.1,6.1,0,0,1,1.456.937.406.406,0,0,1-.266.712Zm-7.434,0a.4.4,0,0,1-.266-.711,6.072,6.072,0,0,1,1.456-.937.406.406,0,0,1,.337.738,5.256,5.256,0,0,0-1.261.812A.4.4,0,0,1,70.025,147.55Zm4.525-1.329a.416.416,0,0,1-.058,0,5.37,5.37,0,0,0-1.5,0,.405.405,0,1,1-.114-.8,6.2,6.2,0,0,1,1.73,0,.406.406,0,0,1-.057.807Z" transform="translate(-67.66 -145.354)"/></g></g><g transform="translate(194.568 11.991)"><g transform="translate(0 18.045)"><g transform="translate(0 9.434)"><path class="e" d="M355.3,173.982h-.811a.406.406,0,0,1-.351-.609l.406-.7a.406.406,0,0,1,.7.406l-.054.094h.109a.406.406,0,1,1,0,.811Z" transform="translate(-354.084 -172.469)"/></g><g transform="translate(1.126 1.949)"><path class="e" d="M356.146,168.5a.4.4,0,0,1-.2-.054.4.4,0,0,1-.148-.554l.72-1.247a.406.406,0,1,1,.7.406L356.5,168.3A.405.405,0,0,1,356.146,168.5Zm1.44-2.494a.406.406,0,0,1-.351-.609l.72-1.247a.405.405,0,1,1,.7.406l-.72,1.247A.405.405,0,0,1,357.586,166Zm1.441-2.5a.406.406,0,0,1-.351-.608l.721-1.248a.405.405,0,0,1,.7.406l-.72,1.247A.4.4,0,0,1,359.027,163.509Z" transform="translate(-355.741 -161.451)"/></g><g transform="translate(5.447)"><path class="e" d="M363.319,160.094a.405.405,0,0,1-.351-.2l-.054-.094-.054.094a.406.406,0,0,1-.7-.406l.406-.7a.406.406,0,0,1,.7,0l.406.7a.406.406,0,0,1-.351.608Z" transform="translate(-362.102 -158.581)"/></g><g transform="translate(6.978 1.949)"><path class="e" d="M368.363,168.5a.406.406,0,0,1-.352-.2l-.72-1.247a.406.406,0,1,1,.7-.406l.72,1.247a.4.4,0,0,1-.149.554A.4.4,0,0,1,368.363,168.5ZM366.922,166a.4.4,0,0,1-.351-.2l-.721-1.247a.406.406,0,1,1,.7-.406l.72,1.247a.405.405,0,0,1-.35.609Zm-1.44-2.5a.405.405,0,0,1-.352-.2l-.72-1.247a.406.406,0,0,1,.7-.406l.72,1.248a.406.406,0,0,1-.351.608Z" transform="translate(-364.356 -161.451)"/></g><g transform="translate(10.894 9.434)"><path class="e" d="M371.337,173.982h-.811a.406.406,0,0,1,0-.811h.109l-.054-.094a.406.406,0,0,1,.7-.406l.406.7a.406.406,0,0,1-.351.609Z" transform="translate(-370.12 -172.469)"/></g><g transform="translate(2.252 10.137)"><path class="e" d="M365.006,174.314h-1.441a.406.406,0,1,1,0-.811h1.441a.406.406,0,1,1,0,.811Zm-2.881,0h-1.441a.406.406,0,0,1,0-.811h1.441a.406.406,0,1,1,0,.811Zm-2.881,0H357.8a.406.406,0,1,1,0-.811h1.44a.406.406,0,1,1,0,.811Z" transform="translate(-357.398 -173.503)"/></g></g><g transform="translate(29.991 3.074)"><g transform="translate(0 9.435)"><path class="e" d="M399.451,151.944h-.811a.405.405,0,0,1-.351-.608l.406-.7a.406.406,0,0,1,.7.406l-.054.094h.109a.405.405,0,0,1,0,.81Z" transform="translate(-398.234 -150.431)"/></g><g transform="translate(1.126 1.95)"><path class="e" d="M400.3,146.46a.405.405,0,0,1-.351-.608l.72-1.248a.405.405,0,0,1,.7.406l-.72,1.248A.406.406,0,0,1,400.3,146.46Zm1.441-2.5a.4.4,0,0,1-.2-.054.405.405,0,0,1-.149-.554l.721-1.247a.405.405,0,1,1,.7.4l-.72,1.248A.4.4,0,0,1,401.737,143.965Zm1.44-2.494a.405.405,0,0,1-.35-.609l.72-1.247a.406.406,0,1,1,.7.406l-.72,1.247A.405.405,0,0,1,403.177,141.471Z" transform="translate(-399.891 -139.412)"/></g><g transform="translate(5.447)"><path class="e" d="M407.469,138.055a.405.405,0,0,1-.352-.2l-.054-.094-.054.094a.406.406,0,1,1-.7-.406l.406-.7a.405.405,0,0,1,.7,0l.405.7a.406.406,0,0,1-.35.609Z" transform="translate(-406.252 -136.542)"/></g><g transform="translate(6.978 1.95)"><path class="e" d="M412.513,146.46a.407.407,0,0,1-.352-.2l-.72-1.248a.406.406,0,0,1,.7-.406l.72,1.248a.405.405,0,0,1-.351.608Zm-1.44-2.5a.406.406,0,0,1-.352-.2l-.72-1.248a.405.405,0,1,1,.7-.4l.72,1.247a.4.4,0,0,1-.149.554A.4.4,0,0,1,411.073,143.965Zm-1.441-2.494a.406.406,0,0,1-.352-.2l-.72-1.247a.406.406,0,1,1,.7-.406l.72,1.247a.406.406,0,0,1-.351.609Z" transform="translate(-408.506 -139.412)"/></g><g transform="translate(10.894 9.435)"><path class="e" d="M415.488,151.944h-.811a.405.405,0,1,1,0-.81h.109l-.054-.094a.406.406,0,0,1,.7-.406l.4.7a.405.405,0,0,1-.35.608Z" transform="translate(-414.271 -150.431)"/></g><g transform="translate(2.251 10.137)"><path class="e" d="M409.155,152.275h-1.44a.405.405,0,1,1,0-.81h1.44a.405.405,0,1,1,0,.81Zm-2.881,0h-1.44a.405.405,0,1,1,0-.81h1.44a.405.405,0,1,1,0,.81Zm-2.881,0h-1.44a.405.405,0,1,1,0-.81h1.44a.405.405,0,1,1,0,.81Z" transform="translate(-401.548 -151.465)"/></g></g><g transform="translate(9.95)"><path class="g" d="M374.006,144.123a.412.412,0,0,1-.058,0,6.034,6.034,0,0,1-1.662-.488.405.405,0,1,1,.337-.737,5.268,5.268,0,0,0,1.439.422.406.406,0,0,1-.056.807Zm1.615,0a.406.406,0,0,1-.057-.807,5.26,5.26,0,0,0,1.439-.422.405.405,0,1,1,.337.737,6.029,6.029,0,0,1-1.662.488A.422.422,0,0,1,375.62,144.123Zm2.91-1.329a.406.406,0,0,1-.266-.712,5.263,5.263,0,0,0,.984-1.134.406.406,0,0,1,.682.439,6.112,6.112,0,0,1-1.134,1.308A.4.4,0,0,1,378.531,142.794Zm-7.436,0a.4.4,0,0,1-.265-.1,6.091,6.091,0,0,1-1.134-1.308.406.406,0,0,1,.682-.439,5.313,5.313,0,0,0,.984,1.134.4.4,0,0,1-.266.711Zm9.166-2.69a.416.416,0,0,1-.114-.016.406.406,0,0,1-.275-.5,5.285,5.285,0,0,0,.212-1.486.406.406,0,0,1,.811,0,6.1,6.1,0,0,1-.245,1.714A.405.405,0,0,1,380.261,140.1Zm-10.9,0a.405.405,0,0,1-.389-.292,6.089,6.089,0,0,1-.245-1.713.406.406,0,1,1,.811,0,5.275,5.275,0,0,0,.212,1.485.406.406,0,0,1-.275.5A.392.392,0,0,1,369.365,140.1Zm10.9-3.2a.406.406,0,0,1-.389-.291,5.251,5.251,0,0,0-.624-1.365.406.406,0,0,1,.682-.439,6.067,6.067,0,0,1,.72,1.575.407.407,0,0,1-.275.5A.417.417,0,0,1,380.261,136.905Zm-10.9,0a.418.418,0,0,1-.115-.016.406.406,0,0,1-.274-.5,6.041,6.041,0,0,1,.72-1.575.406.406,0,0,1,.682.439,5.229,5.229,0,0,0-.624,1.364A.405.405,0,0,1,369.365,136.9Zm9.165-2.69a.405.405,0,0,1-.266-.1A5.282,5.282,0,0,0,377,133.3a.405.405,0,0,1,.338-.737,6.113,6.113,0,0,1,1.456.937.406.406,0,0,1-.266.712Zm-7.434,0a.406.406,0,0,1-.266-.712,6.048,6.048,0,0,1,1.456-.937.405.405,0,1,1,.337.737,5.28,5.28,0,0,0-1.261.812A.405.405,0,0,1,371.1,134.213Zm4.525-1.329a.42.42,0,0,1-.058,0,5.344,5.344,0,0,0-1.5,0,.406.406,0,0,1-.115-.8,6.18,6.18,0,0,1,1.731,0,.406.406,0,0,1-.057.807Z" transform="translate(-368.731 -132.016)"/></g></g></g><g transform="translate(6617.185 980.155)"><path class="h" d="M361.953,219.85v21.442a5.135,5.135,0,0,1-5.134,5.134H317.885l-11.754,4.217a1.494,1.494,0,0,1-1.9-1.946l4.445-11.483V219.85a5.136,5.136,0,0,1,5.138-5.134h43A5.135,5.135,0,0,1,361.953,219.85Z" transform="translate(-304.128 -214.716)"/><g transform="translate(16.574 12.751)"><path class="f" d="M326.306,229.778a3.714,3.714,0,1,1-3.714-3.714A3.714,3.714,0,0,1,326.306,229.778Z" transform="translate(-318.878 -226.063)"/><circle class="f" cx="3.714" cy="3.714" r="3.714" transform="translate(11.756)"/><path class="f" d="M347.231,229.778a3.714,3.714,0,1,1-3.714-3.714A3.714,3.714,0,0,1,347.231,229.778Z" transform="translate(-316.29 -226.063)"/></g></g><g transform="translate(6426 1011.304)"><g transform="translate(0 0)"><g transform="translate(0 75.921)"><g transform="translate(241.399 66.345)"><path class="d" d="M422.266,393.355a2.3,2.3,0,0,0,1.674-.7l.007-.008a5.358,5.358,0,0,0,1.628-3.505v-.053c-.028-8.705,10.668-8.126,14.1-18.77s-10.136-11.541-17.887-4.968c-5.572,4.725-12.261-1.876-20.361,3.635-7.033,4.783-3.116,16.561-14.652,12.879-3.683-1.177-6.982-.042-9.766,2.046a16.521,16.521,0,0,0-6.161,9.437l0,0Z" transform="translate(-370.85 -361.194)"/><g transform="translate(22.489 11.844)"><path class="i" d="M407.172,398.947,436.33,380.23a.869.869,0,1,0-.939-1.462l-31.435,20.179Z" transform="translate(-403.956 -378.63)"/></g></g><g transform="translate(39.645 7.767)"><path class="c" d="M102.688,359.558l-3.422-3.35-1.337-.054L94.142,356s-35-59.416-13.073-78.791c6.75-5.965,18.55-1.02,15.941,26.4C94.592,329.021,102.688,359.558,102.688,359.558Z" transform="translate(-73.848 -274.962)"/><g transform="translate(11.454 17.528)"><path class="j" d="M104.673,364.483l-1.337-.054c-6.11-14.4-9.194-29.861-10.725-40.716a187.72,187.72,0,0,1-1.9-22.341.6.6,0,0,1,1.209-.009,186.866,186.866,0,0,0,1.894,22.2C95.352,334.473,98.469,350.064,104.673,364.483Z" transform="translate(-90.709 -300.765)"/></g></g><path class="d" d="M90.023,364.544,86.6,365.815l-1.816.673L79.638,368.4S-.235,308.5,18.267,270.4c5.7-11.732,24.219-11.7,36.01,26.389C65.207,332.092,90.023,364.544,90.023,364.544Z" transform="translate(-15.486 -263.527)"/><g transform="translate(17.218 24.522)"><path class="i" d="M94.729,377.392l-1.816.673c-16.186-15.832-28.925-34.777-37.018-48.429A272.022,272.022,0,0,1,40.9,300.844a.875.875,0,0,1,1.611-.686,270.314,270.314,0,0,0,14.9,28.61C65.551,342.486,78.4,361.583,94.729,377.392Z" transform="translate(-40.833 -299.627)"/></g><g transform="translate(232.804 8.186)"><path class="c" d="M401.257,366.268a22.017,22.017,0,0,0-.5-4.088c-2.822-12.92,4.856-15.358,14.98-19.437s11.325-16.2,4.158-26.275,5.712-18.171.969-33.332-21.217-5.076-24.82,8.9c-2.589,10.049-15.759,7.874-20.636,20.908-4.237,11.313,9.962,21.763-6.437,26.949-5.237,1.654-8.133,5.674-9.649,10.379a23.458,23.458,0,0,0,.59,16Z" transform="translate(-358.198 -275.579)"/><g transform="translate(20.34 22.311)"><path class="j" d="M390.8,376.8l27.011-66.681a1.234,1.234,0,0,0-2.288-.925L388.14,376.8Z" transform="translate(-388.14 -308.423)"/></g></g></g><g transform="translate(35.412 0)"><g transform="translate(44.076 0)"><g transform="translate(0 87.228)"><path class="k" d="M193.358,338.342a28.22,28.22,0,0,0-1.126-8.615c-1.289-3.7-2.949-12.165-6.976-11.6-1.471.208.985,3.6.27,6.987a54.438,54.438,0,0,1-7.593-3.714c-2.711-1.711-8.255-4.394-10.831-5.618a.771.771,0,0,0-.975,1.122c.721,1.037,2.4,2.535,6.149,4.515,0,0-9.272-4.32-10.662-3.085s10.3,6.423,10.3,6.423-9.34-2.971-9.965-1.546c-.38.868,8.916,5.438,8.916,5.438s-9.026-2.038-7.218-.071c.527.573,17.386,6.936,21.615,15.606C185.267,344.187,192.4,341.5,193.358,338.342Z" transform="translate(-161.5 -315.708)"/><path class="c" d="M221.239,398.6c-14.538,0-32.068-49.779-37.9-56.721l11.349-5.853S208.83,358.6,220.7,366.6c.126.085.253.167.376.25l.885-1.921,16.555-35.945s5.414-7.735,13.665-2.96C272.214,337.625,241.35,398.6,221.239,398.6Z" transform="translate(-162.785 -316.224)"/><g transform="translate(57.913 48.709)"><path class="j" d="M225.9,381.793a.774.774,0,1,1-1.547,0,75.86,75.86,0,0,0-1.315-12.66c.126.086.253.167.376.25l.885-1.921A81.265,81.265,0,0,1,225.9,381.793Z" transform="translate(-223.034 -367.463)"/></g></g><g transform="translate(133.142 28.318)"><path class="k" d="M367.062,287.145a28.2,28.2,0,0,1-3.728-7.848c-.923-3.807-4.122-11.819-.429-13.525,1.349-.623,1.124,3.557,3.563,6.017a54.457,54.457,0,0,0,4.364-7.239c1.351-2.908,4.551-8.169,6.052-10.595a.771.771,0,0,1,1.428.413c-.044,1.262-.639,3.431-2.718,7.129,0,0,5.446-8.659,7.284-8.375s-5.171,10.984-5.171,10.984,6.235-7.562,7.533-6.7c.79.522-4.541,9.4-4.541,9.4s6.477-6.608,6.024-3.975c-.132.767-10.844,15.258-9.694,24.835C377.03,287.666,369.581,289.283,367.062,287.145Z" transform="translate(-306.392 -253.115)"/><g transform="translate(0 32.742)"><path class="d" d="M374.208,287.9c-.792,9.034,1.178,66.289-11.6,73.222-9.442,5.124-41.014-6.172-59.119-23.016a40.472,40.472,0,0,1,5.75-27.775l39.845,23.921.928.556c.16-.4.32-.814.482-1.247,5.188-13.97,11.6-45.661,11.6-45.661C366.373,288.575,371.123,288.837,374.208,287.9Z" transform="translate(-302.967 -287.904)"/></g><g transform="translate(46.113 78.403)"><path class="i" d="M358.575,346.98a.772.772,0,0,1-1.094.031c-2.475-2.343-4.3-6.366-5.517-9.9l.928.556c.16-.4.32-.814.482-1.247,1.163,3.411,2.88,7.3,5.17,9.467A.771.771,0,0,1,358.575,346.98Z" transform="translate(-351.964 -336.42)"/></g></g><g transform="translate(75.213 73.694)"><path class="d" d="M242.448,401.621c5.671-21.658-1.031-52.882-1.031-64.971a34.984,34.984,0,0,1,17.532-30.939l17.274-4.383s31.2,5.414,40.221,18.563c3.047,4.438,5.592,18.682,7.67,35.129q.124.983.247,1.973c1.869,15.23,3.349,32.063,4.457,44.629Z" transform="translate(-241.416 -301.327)"/><g transform="translate(28.618 8.251)"><path class="i" d="M272.6,324.274a.774.774,0,0,1-.136-1.535c9.437-1.694,12.253-11.966,12.28-12.069a.774.774,0,0,1,1.5.393c-.12.462-3.081,11.329-13.5,13.2A.765.765,0,0,1,272.6,324.274Z" transform="translate(-271.824 -310.094)"/></g><g transform="translate(9.024 64.456)"><path class="i" d="M292.809,394.3c-10.684,0-20.77-5.584-27.66-10.585a88.981,88.981,0,0,1-13.961-12.629.774.774,0,1,1,1.179-1,87.28,87.28,0,0,0,13.718,12.4c7.494,5.434,18.86,11.585,30.451,10.023a.774.774,0,0,1,.206,1.533A29.359,29.359,0,0,1,292.809,394.3Z" transform="translate(-251.004 -369.814)"/></g><g transform="translate(18.821 84.825)"><path class="i" d="M285.828,401.774c-13.747,0-23.726-8.592-24.15-8.962a.774.774,0,0,1,1.019-1.165c.1.087,9.983,8.581,23.147,8.581.188,0,.376,0,.565,0h.015a.774.774,0,0,1,.014,1.547C286.234,401.772,286.03,401.774,285.828,401.774Z" transform="translate(-261.414 -391.456)"/></g><g transform="translate(62.398 40.498)"><path class="i" d="M328.262,359.524a244.373,244.373,0,0,1-20.242-13.779.774.774,0,0,1,.941-1.23c.135.1,9.2,7.021,19.054,13.036Q328.139,358.534,328.262,359.524Z" transform="translate(-307.716 -344.358)"/></g></g><g transform="translate(56.366)"><circle class="l" cx="25.717" cy="25.717" r="25.717" transform="translate(0 31.636) rotate(-37.958)"/><path class="l" d="M231.97,261.239s-7.555-.105-8.411-7.188c-.729-6.027,7.094-4.039,5.305-8.431s-4.2-8.18,1.384-10.853c4.887-2.339,5.9,1.167,11.318-5.716,6.407-8.131,16.2,4.268,23.435,2.828,10.674-2.123,13.553,3.476,15.828,7.961s-.9,8.879-.9,8.879Z" transform="translate(-221.516 -223.216)"/><g transform="translate(9.83 46.821)"><path class="m" d="M239.215,274.415s-5.314-4.226-7.109.885,5.7,16.865,12.055,11.858Z" transform="translate(-231.835 -272.774)"/><g transform="translate(1.749 5.074)"><path class="n" d="M241.668,283.918a.628.628,0,0,1-.7-.291c-2.147-3.672-6.671-4.207-6.717-4.212a.627.627,0,0,1,.134-1.247c.211.023,5.193.6,7.666,4.826a.628.628,0,0,1-.225.857A.648.648,0,0,1,241.668,283.918Z" transform="translate(-233.693 -278.165)"/></g><g transform="translate(4.274 6.543)"><path class="n" d="M237.161,283.1a.627.627,0,0,1-.753-.8,5.712,5.712,0,0,1,1.8-2.428.626.626,0,1,1,.784.977,4.552,4.552,0,0,0-1.39,1.842A.625.625,0,0,1,237.161,283.1Z" transform="translate(-236.376 -279.727)"/></g></g><path class="k" d="M275.563,292.116l3.332,12.765s-3.78,6.995-8.812,8.782-9.748-3.5-9.748-3.5l-3.2-12.274Z" transform="translate(-223.494 -227.091)"/><path class="m" d="M275.563,292.116l1.479,5.664c-2.454,4.735-8.339,7.294-17.767,8.324l-2.145-8.217Z" transform="translate(-223.494 -227.091)"/><path class="k" d="M279.023,252.857a128.158,128.158,0,0,1,2.553,16.556c.087,1.3.124,2.533.1,3.653-.231,10.107-2.739,27.991-23.3,26.182-9.082-.8-15.348-9.045-19.52-18.008a94.03,94.03,0,0,1-5.814-17.136,13.772,13.772,0,0,1,3.8-13.1c9.459-9.193,21.788-9.9,30.275-8.953A13.728,13.728,0,0,1,279.023,252.857Z" transform="translate(-222.054 -224.126)"/><circle class="h" cx="4.342" cy="4.342" r="4.342" transform="translate(34.955 57.599)"/><g transform="translate(13.532 35.002)"><g transform="translate(23.136 2.778)"><path class="l" d="M260.44,269.025l.264,1.007a7.782,7.782,0,0,0,9.48,5.58l.246-.064a7.02,7.02,0,0,0,4.134-3.288,7.653,7.653,0,0,0,.791-5.857l-.311-1.19a2.782,2.782,0,0,0-1.265-1.669,2.724,2.724,0,0,0-2.073-.287l-9.31,2.43a2.725,2.725,0,0,0-1.992,2.131,2.65,2.65,0,0,0,.022,1.136A.438.438,0,0,0,260.44,269.025Zm1.1-.287a1.6,1.6,0,0,1,1.144-1.952l9.31-2.43a1.6,1.6,0,0,1,1.953,1.143l.31,1.191a6.5,6.5,0,0,1-.666,4.983,5.92,5.92,0,0,1-3.469,2.782l-.224.058a6.644,6.644,0,0,1-8.1-4.769Z" transform="translate(-260.352 -263.168)"/></g><g transform="translate(4.499 7.643)"><path class="l" d="M240.634,274.195l.263,1.007a7.782,7.782,0,0,0,9.48,5.58l.249-.064a7.015,7.015,0,0,0,4.132-3.288,7.662,7.662,0,0,0,.793-5.858l-.311-1.19a.239.239,0,0,0-.017-.05,2.644,2.644,0,0,0-.488-.956,2.729,2.729,0,0,0-2.833-.95l-9.313,2.431a2.741,2.741,0,0,0-1.786,1.487,2.665,2.665,0,0,0-.252,1.114A2.493,2.493,0,0,0,240.634,274.195Zm1.1-.286a1.6,1.6,0,0,1,1.144-1.953l9.314-2.431a1.6,1.6,0,0,1,1.953,1.144l.311,1.19a6.517,6.517,0,0,1-.666,4.983,5.922,5.922,0,0,1-3.469,2.783l-.227.059a6.653,6.653,0,0,1-8.1-4.769Z" transform="translate(-240.549 -268.337)"/></g><g transform="translate(36.867)"><path class="l" d="M281.73,260.216a13.564,13.564,0,0,0-6,2.869c-.217.185-.77.793-.794.818l.766.8c.007-.007.621-.631.872-.838a11.888,11.888,0,0,1,5.436-2.55Z" transform="translate(-274.941 -260.216)"/></g><g transform="translate(17.756 7.331)"><path class="l" d="M260.851,269.158l.09-1.131a11.594,11.594,0,0,0-3.445.309,7.643,7.643,0,0,0-2.862,1.364l.738.862a6.693,6.693,0,0,1,2.411-1.127A10.614,10.614,0,0,1,260.851,269.158Z" transform="translate(-254.635 -268.005)"/></g><g transform="translate(0 11.477)"><path class="l" d="M235.769,272.612l.287,1.1a14.716,14.716,0,0,1,4.724.066l.226-1.111A15.39,15.39,0,0,0,235.769,272.612Z" transform="translate(-235.769 -272.41)"/></g></g><path class="l" d="M249.982,273.535c.356,1.362-.058,2.65-.924,2.876s-1.857-.695-2.213-2.057.058-2.651.924-2.877S249.626,272.172,249.982,273.535Z" transform="translate(-222.881 -225.875)"/><path class="l" d="M269.5,268.44c.355,1.363-.058,2.651-.925,2.877s-1.857-.7-2.213-2.057.058-2.651.924-2.877S269.142,267.078,269.5,268.44Z" transform="translate(-224.03 -225.575)"/><path class="l" d="M240.454,269.314s3.767-6.2,9.264-7.55l1.112,2.184a21.911,21.911,0,0,0-8.394,7.364C241.489,270.632,240.795,270.489,240.454,269.314Z" transform="translate(-222.513 -225.305)"/><path class="l" d="M272.558,261.444s-6.277-3.64-11.748-2.194l.071,2.45a21.9,21.9,0,0,1,10.894,2.446C272.28,263.1,272.822,262.639,272.558,261.444Z" transform="translate(-223.711 -225.137)"/><g transform="translate(33.58 44.199)"><path class="m" d="M261.868,281.549a6.685,6.685,0,0,0,2.074-1.034.627.627,0,0,0-.752-1c-.489.365-1.713,1.057-2.372.864-.127-.037-.312-.128-.446-.487a94.654,94.654,0,0,1-2.057-9.382.627.627,0,1,0-1.235.216,92.757,92.757,0,0,0,2.118,9.605,1.913,1.913,0,0,0,1.269,1.251A2.644,2.644,0,0,0,261.868,281.549Z" transform="translate(-257.071 -269.988)"/></g><g transform="translate(37.995 66.395)"><path class="m" d="M265.266,296.236a6.566,6.566,0,0,0,2.74-1.6.627.627,0,1,0-.9-.873,5.337,5.337,0,0,1-2.157,1.26,5.076,5.076,0,0,1-2.376-.074.627.627,0,0,0-.368,1.2A6.262,6.262,0,0,0,265.266,296.236Z" transform="translate(-261.761 -293.573)"/></g><path class="l" d="M239.7,276.8c-1.112-2.381-2.407-5.49-2.509-7.231-.174-3.081,1.8-5.436.256-8.048s.644-6.436,2.713-7.513,7.481-1.33,11.908-5.048c4.226-3.553,13.04-4.1,15.215-1.362,2.632,3.317.474,4.259,6.045,7.133,2.218,1.147,1.182,5.9,1.59,8.708a18.852,18.852,0,0,0,.733,3.245l.2.68,5.4-1.41c-.509-4.388-1.387-9.143-2.221-13.1a13.73,13.73,0,0,0-11.911-10.807c-8.488-.951-20.813-.244-30.278,8.952a13.768,13.768,0,0,0-3.8,13.1,99.739,99.739,0,0,0,4.182,13.341Z" transform="translate(-222.054 -224.126)"/><g transform="translate(56.583 34.351)"><path class="k" d="M282.336,269.957a23.446,23.446,0,0,1-.771-4.3c-.159-1.99-.057-3.861,1.682-5.162,1.4-1.046,3.069-1.5,4.721-.041,4.065,3.581,4.33,17.956-3.663,16.7Z" transform="translate(-281.512 -259.524)"/><g transform="translate(2.119 4.023)"><path class="m" d="M284.8,273.1a.629.629,0,0,0,.343-.676c-.757-4.185,2.333-7.533,2.365-7.567a.627.627,0,0,0-.912-.86c-.146.154-3.557,3.83-2.687,8.65a.627.627,0,0,0,.728.505A.64.64,0,0,0,284.8,273.1Z" transform="translate(-283.763 -263.799)"/></g><g transform="translate(2.602 7.815)"><path class="m" d="M287.776,269.607a.617.617,0,0,0,.262-.238.627.627,0,0,0-.21-.861,5.732,5.732,0,0,0-2.945-.677.627.627,0,1,0,.041,1.253,4.521,4.521,0,0,1,2.253.5A.627.627,0,0,0,287.776,269.607Z" transform="translate(-284.277 -267.828)"/></g></g></g></g><g transform="translate(0 94.593)"><rect class="o" width="111.34" height="13.404" rx="2.313" transform="translate(21.143 65.899)"/><path class="l" d="M135.835,402.835l-20.928-71.359c-1.175-4.007,2.142-7.941,6.7-7.941h46.051a6.87,6.87,0,0,1,6.675,4.606l23.045,74.694Z" transform="translate(-114.668 -323.533)"/><path class="o" d="M177.647,328.142,200.5,402.221h5.262l-22.853-74.079a6.879,6.879,0,0,0-6.677-4.609h-5.263A6.879,6.879,0,0,1,177.647,328.142Z" transform="translate(-117.981 -323.533)"/><path class="p" d="M164.3,367.86c1.178,5.055-2.057,9.138-7.226,9.119a12.435,12.435,0,0,1-11.494-9.186c-1.178-5.055,2.057-9.138,7.227-9.119A12.434,12.434,0,0,1,164.3,367.86Z" transform="translate(-116.472 -325.601)"/></g></g><g transform="translate(23.972 173.93)"><path d="M5.146,0H259.422a5.144,5.144,0,0,1,5.144,5.144v0a5.144,5.144,0,0,1-5.144,5.144H5.144A5.144,5.144,0,0,1,0,5.146v0A5.146,5.146,0,0,1,5.146,0Z" transform="translate(0 0)"/><path class="q" d="M317.462,412.718v.235H52.9v-.235a4.91,4.91,0,0,1,4.91-4.911H312.551A4.911,4.911,0,0,1,317.462,412.718Z" transform="translate(-52.896 -407.807)"/></g></g></g></g></g></svg>