<svg xmlns="http://www.w3.org/2000/svg" xmlns:xlink="http://www.w3.org/1999/xlink" width="357" height="357" viewBox="0 0 357 357"><defs><style>.a{fill:none;}.b{fill:#06bc99;}.c{fill:#f5f5f5;}.d{fill:url(#a);}.e{opacity:0.2;}.f{fill:url(#c);}.g,.k{opacity:0.1;}.h{fill:#ffb227;}.i{opacity:0.3;}.j,.m{fill:#00d8ae;}.l{fill:#fff;}.m{font-size:4px;font-family:Montserrat-Medium, Montserrat;font-weight:500;}.n{fill:#fec4bb;}.o{fill:#333;}.p{fill:#f1bf65;}.q,.t{fill:#005898;}.r{fill:#ffcf78;}.s{fill:#f3bfb7;}.t{mix-blend-mode:screen;isolation:isolate;}</style><linearGradient id="a" y1="0.5" x2="1" y2="0.5" gradientUnits="objectBoundingBox"><stop offset="0" stop-color="#06bc99"/><stop offset="1" stop-color="#00d8ae"/></linearGradient><linearGradient id="c" x1="0.5" y1="1" x2="0.5" gradientUnits="objectBoundingBox"><stop offset="0" stop-color="#00d8ae"/><stop offset="1" stop-color="#06bc99"/></linearGradient></defs><g transform="translate(-219 -606)"><rect class="a" width="357" height="357" transform="translate(219 606)"/><g transform="translate(-5264.892 -855)"><g transform="translate(5507.265 1489)"><g transform="translate(12.855 285.655)"><path class="b" d="M82.244,400.273a1.1,1.1,0,0,1-1.1-1.1,1,1,0,0,1,.022-.212c.015-.072.037-.138.059-.212a1.469,1.469,0,0,1,.1-.183,1.059,1.059,0,0,1,.139-.168,1.114,1.114,0,0,1,.169-.14,1.228,1.228,0,0,1,.19-.1,1.547,1.547,0,0,1,.205-.059,1.038,1.038,0,0,1,.425,0,1.547,1.547,0,0,1,.205.059,1.689,1.689,0,0,1,.19.1,1.648,1.648,0,0,1,.169.14,1.059,1.059,0,0,1,.139.168.87.87,0,0,1,.1.183,1.222,1.222,0,0,1,.066.212,1,1,0,0,1,.021.212,1.1,1.1,0,0,1-.322.777A1.11,1.11,0,0,1,82.244,400.273Z" transform="translate(-81.145 -398.076)"/></g><g transform="translate(0 0)"><path class="b" d="M321.023,332.7a1.094,1.094,0,0,1,.4-1.5h0a1.1,1.1,0,0,1,1.5.41h0a1.094,1.094,0,0,1-.409,1.495h0a1.051,1.051,0,0,1-.542.147h0A1.092,1.092,0,0,1,321.023,332.7ZM74.809,329.868h0a1.1,1.1,0,0,1,.286-1.531h0a1.105,1.105,0,0,1,1.531.293h0a1.1,1.1,0,0,1-.293,1.523h0a1.064,1.064,0,0,1-.615.191h0A1.105,1.105,0,0,1,74.809,329.868Zm251.26-.177a1.093,1.093,0,0,1,.33-1.516h0a1.094,1.094,0,0,1,1.516.33h0a1.1,1.1,0,0,1-.329,1.517h0a1.1,1.1,0,0,1-.593.176h0A1.093,1.093,0,0,1,326.069,329.691Zm4.886-3.267a1.1,1.1,0,0,1,.242-1.538h0a1.1,1.1,0,0,1,1.538.249h0a1.1,1.1,0,0,1-.249,1.53h0a1.086,1.086,0,0,1-.644.212h0A1.1,1.1,0,0,1,330.955,326.424ZM71.718,324.718a1.1,1.1,0,0,1,.462-1.479h0a1.094,1.094,0,0,1,1.487.461h0a1.1,1.1,0,0,1-.462,1.48h0a1.061,1.061,0,0,1-.513.125h0A1.1,1.1,0,0,1,71.718,324.718ZM335.656,322.9a1.1,1.1,0,0,1,.169-1.546h0a1.1,1.1,0,0,1,1.545.168h0a1.088,1.088,0,0,1-.169,1.538h0a1.077,1.077,0,0,1-.689.248h0A1.122,1.122,0,0,1,335.656,322.9ZM69.228,319.269h0a1.1,1.1,0,0,1,.623-1.429h0a1.1,1.1,0,0,1,1.42.623h0a1.092,1.092,0,0,1-.622,1.421h0a1.094,1.094,0,0,1-.4.081h0A1.1,1.1,0,0,1,69.228,319.269Zm270.947-.133a1.091,1.091,0,0,1,.088-1.545h0a1.094,1.094,0,0,1,1.553.088h0a1.092,1.092,0,0,1-.088,1.545h0a1.076,1.076,0,0,1-.733.278h0A1.079,1.079,0,0,1,340.176,319.137Zm4.322-3.984a1.1,1.1,0,0,1,.007-1.553h0a1.1,1.1,0,0,1,1.553.007h0a1.109,1.109,0,0,1-.007,1.56h0v-.007h0a1.093,1.093,0,0,1-.777.322h0A1.082,1.082,0,0,1,344.5,315.153ZM67.338,313.578a1.094,1.094,0,0,1,.769-1.347h0a1.1,1.1,0,0,1,1.355.768h0a1.107,1.107,0,0,1-.769,1.348h0a1.054,1.054,0,0,1-.293.044h0A1.108,1.108,0,0,1,67.338,313.578Zm281.275-2.622a1.094,1.094,0,0,1-.073-1.553h0a1.1,1.1,0,0,1,1.552-.066h0a1.1,1.1,0,0,1,.074,1.553h0a1.106,1.106,0,0,1-.813.352h0A1.089,1.089,0,0,1,348.614,310.956ZM66.057,307.727h.007a1.092,1.092,0,0,1,.9-1.261h0a1.1,1.1,0,0,1,1.267.9h0a1.108,1.108,0,0,1-.908,1.267h0a1.427,1.427,0,0,1-.182.015h0A1.105,1.105,0,0,1,66.057,307.727Zm286.452-1.166a1.1,1.1,0,0,1-.146-1.553h0a1.1,1.1,0,0,1,1.545-.138h0a1.094,1.094,0,0,1,.147,1.546h0a1.077,1.077,0,0,1-.843.4h0A1.1,1.1,0,0,1,352.509,306.561ZM65.4,301.771a1.1,1.1,0,0,1,1.033-1.157h0a1.1,1.1,0,0,1,1.157,1.033h0a1.094,1.094,0,0,1-1.025,1.157H66.5A1.1,1.1,0,0,1,65.4,301.771Zm290.789.206a1.1,1.1,0,0,1-.22-1.538h0a1.1,1.1,0,0,1,1.538-.227h0a1.1,1.1,0,0,1,.22,1.538h0a1.08,1.08,0,0,1-.879.446h0A1.108,1.108,0,0,1,356.187,301.977Zm3.45-4.761a1.1,1.1,0,0,1-.3-1.524h0a1.107,1.107,0,0,1,1.53-.3h0a1.1,1.1,0,0,1,.293,1.524h0a1.091,1.091,0,0,1-.908.484h0A1.112,1.112,0,0,1,359.637,297.216ZM66.4,296.93a1.1,1.1,0,0,1-1.048-1.143h0A1.1,1.1,0,0,1,66.5,294.74h0a1.087,1.087,0,0,1,1.047,1.142h0a1.09,1.09,0,0,1-1.091,1.048H66.4Zm296.444-4.643a1.1,1.1,0,0,1-.374-1.509h0a1.1,1.1,0,0,1,1.508-.374h0a1.1,1.1,0,0,1,.374,1.508h0a1.1,1.1,0,0,1-.944.536h0A1.071,1.071,0,0,1,362.845,292.287ZM66.863,291.071a1.1,1.1,0,0,1-.923-1.253h0a1.093,1.093,0,0,1,1.252-.915h0a1.1,1.1,0,0,1,.923,1.252h0a1.106,1.106,0,0,1-1.083.93h0A.621.621,0,0,1,66.863,291.071Zm298.941-3.86a1.1,1.1,0,0,1-.447-1.486h0a1.1,1.1,0,0,1,1.494-.447h0a1.1,1.1,0,0,1,.44,1.486h.007a1.114,1.114,0,0,1-.974.579h0A1.116,1.116,0,0,1,365.8,287.211ZM67.946,285.3a1.1,1.1,0,0,1-.769-1.348h-.007a1.1,1.1,0,0,1,1.347-.777h0a1.1,1.1,0,0,1,.777,1.348h0a1.1,1.1,0,0,1-1.062.813h0A1.38,1.38,0,0,1,67.946,285.3Zm300.56-3.3a1.109,1.109,0,0,1-.519-1.464h0a1.1,1.1,0,0,1,1.464-.527h0a1.1,1.1,0,0,1,.52,1.465h0v.007h0a1.085,1.085,0,0,1-.989.624h0A1.2,1.2,0,0,1,368.506,282ZM69.675,279.682a1.1,1.1,0,0,1-.615-1.429h0a1.1,1.1,0,0,1,1.428-.615h0a1.106,1.106,0,0,1,.616,1.428h0a1.108,1.108,0,0,1-1.026.7h0A1.145,1.145,0,0,1,69.675,279.682Zm301.278-3.04a1.093,1.093,0,0,1-.594-1.435h0a1.1,1.1,0,0,1,1.436-.594h0a1.109,1.109,0,0,1,.593,1.437h0a1.1,1.1,0,0,1-1.018.681h0A1.035,1.035,0,0,1,370.953,276.642ZM72.041,274.3a1.1,1.1,0,0,1-.44-1.494h0a1.089,1.089,0,0,1,1.487-.44h0a1.1,1.1,0,0,1,.447,1.487h0a1.107,1.107,0,0,1-.974.579h0A1.12,1.12,0,0,1,72.041,274.3Zm301.073-3.127a1.1,1.1,0,0,1-.667-1.4h0a1.1,1.1,0,0,1,1.407-.667h0a1.092,1.092,0,0,1,.667,1.4h0a1.1,1.1,0,0,1-1.033.733h0A1.137,1.137,0,0,1,373.113,271.178ZM74.992,269.222a1.1,1.1,0,0,1-.3-1.523h0a1.09,1.09,0,0,1,1.524-.3h0a1.1,1.1,0,0,1,.308,1.523h0a1.114,1.114,0,0,1-.916.484h0A1.117,1.117,0,0,1,74.992,269.222Zm300-3.61a1.1,1.1,0,0,1-.733-1.37h0a1.09,1.09,0,0,1,1.363-.733h0a1.088,1.088,0,0,1,.74,1.362h0a1.1,1.1,0,0,1-1.055.784h0A1.241,1.241,0,0,1,375,265.612ZM78.376,264.417a1.1,1.1,0,0,1-.19-1.545h0a1.1,1.1,0,0,1,1.538-.19h0a1.09,1.09,0,0,1,.2,1.538h0a1.094,1.094,0,0,1-.872.431h0A1.124,1.124,0,0,1,78.376,264.417Zm3.684-4.585a1.093,1.093,0,0,1-.125-1.545h0a1.093,1.093,0,0,1,1.546-.125h0a1.094,1.094,0,0,1,.125,1.546h0a1.1,1.1,0,0,1-.835.388h0A1.082,1.082,0,0,1,82.06,259.833Zm294.524.125a1.1,1.1,0,0,1-.805-1.333h0a1.1,1.1,0,0,1,1.325-.807h0a1.1,1.1,0,0,1,.813,1.326h0a1.107,1.107,0,0,1-1.069.842h0A1.625,1.625,0,0,1,376.584,259.957ZM85.906,255.394a1.106,1.106,0,0,1-.088-1.552h0a1.1,1.1,0,0,1,1.553-.088h0a1.092,1.092,0,0,1,.088,1.546h0a1.081,1.081,0,0,1-.821.373h0A1.13,1.13,0,0,1,85.906,255.394Zm291.975-1.172A1.105,1.105,0,0,1,377,252.94h0a1.1,1.1,0,0,1,1.281-.878h0a1.088,1.088,0,0,1,.879,1.281h0v-.007h0a1.091,1.091,0,0,1-1.077.9h0A1.618,1.618,0,0,1,377.881,254.222ZM89.824,251.007a1.1,1.1,0,0,1-.1-1.553h0a1.1,1.1,0,0,1,1.552-.1h0a1.1,1.1,0,0,1,.1,1.553H91.37a1.071,1.071,0,0,1-.821.373h0A1.1,1.1,0,0,1,89.824,251.007Zm289.031-2.586a1.091,1.091,0,0,1-.944-1.23h0a1.092,1.092,0,0,1,1.23-.945h0a1.093,1.093,0,0,1,.945,1.23h0a1.1,1.1,0,0,1-1.084.952h0A.983.983,0,0,1,378.855,248.421ZM93.7,246.583a1.1,1.1,0,0,1-.139-1.546h0a1.1,1.1,0,0,1,1.552-.132h0a1.1,1.1,0,0,1,.132,1.546h0a1.1,1.1,0,0,1-.842.387h0A1.069,1.069,0,0,1,93.7,246.583Zm285.816-4A1.09,1.09,0,0,1,378.5,241.4h0a1.093,1.093,0,0,1,1.172-1.011h0a1.1,1.1,0,0,1,1.018,1.179h0a1.1,1.1,0,0,1-1.092,1.011h-.088Zm-282.1-.557a1.1,1.1,0,0,1-.212-1.538h0a1.1,1.1,0,0,1,1.538-.212h0a1.1,1.1,0,0,1,.212,1.538h0a1.093,1.093,0,0,1-.879.44h0A1.074,1.074,0,0,1,97.412,242.027Zm3.428-4.776a1.1,1.1,0,0,1-.33-1.516h0a1.092,1.092,0,0,1,1.516-.33h0a1.091,1.091,0,0,1,.33,1.516h0a1.084,1.084,0,0,1-.923.505h0A1.1,1.1,0,0,1,100.84,237.251Zm279.019-.534a1.1,1.1,0,0,1-1.077-1.128h0a1.1,1.1,0,0,1,1.121-1.069h0a1.1,1.1,0,0,1,1.076,1.12h0a1.1,1.1,0,0,1-1.1,1.077h-.021Zm-275.979-4.5a1.1,1.1,0,0,1-.476-1.48h0a1.113,1.113,0,0,1,1.487-.476h0a1.112,1.112,0,0,1,.469,1.487h0a1.107,1.107,0,0,1-.974.593h0A1.033,1.033,0,0,1,103.88,232.22Zm274.873-2.447h0a1.108,1.108,0,0,1,1.062-1.135h0a1.108,1.108,0,0,1,1.135,1.07h0a1.09,1.09,0,0,1-1.061,1.127h-.037A1.1,1.1,0,0,1,378.753,229.773ZM106.4,226.909a1.1,1.1,0,0,1-.645-1.413h0a1.106,1.106,0,0,1,1.421-.645h0a1.109,1.109,0,0,1,.637,1.42h0a1.106,1.106,0,0,1-1.033.711h0A1.007,1.007,0,0,1,106.4,226.909Zm272.025-2.951a1.091,1.091,0,0,1,1-1.18h0a1.1,1.1,0,0,1,1.187,1h0a1.1,1.1,0,0,1-1,1.186h-.094A1.092,1.092,0,0,1,378.424,223.959Zm-270.194-2.63a1.1,1.1,0,0,1-.835-1.311h0a1.087,1.087,0,0,1,1.3-.835h0a1.1,1.1,0,0,1,.842,1.3h0a1.1,1.1,0,0,1-1.077.864h0A1.322,1.322,0,0,1,108.23,221.329Zm269.563-3.157a1.092,1.092,0,0,1,.938-1.231h0a1.1,1.1,0,0,1,1.238.938h0a1.1,1.1,0,0,1-.945,1.238h0a.935.935,0,0,1-.147.007h0A1.09,1.09,0,0,1,377.793,218.172Zm-268.611-2.637a1.108,1.108,0,0,1-1.055-1.143h0a1.109,1.109,0,0,1,1.143-1.055h0a1.094,1.094,0,0,1,1.055,1.143h0a1.1,1.1,0,0,1-1.1,1.055h-.044Zm267.689-3.105a1.09,1.09,0,0,1,.871-1.282h0a1.09,1.09,0,0,1,1.282.872h0a1.1,1.1,0,0,1-.879,1.289h0a1.616,1.616,0,0,1-.2.015h0A1.091,1.091,0,0,1,376.871,212.43ZM107.82,208.746a1.1,1.1,0,0,1,.915-1.253h0a1.1,1.1,0,0,1,1.26.916h-.007a1.089,1.089,0,0,1-.916,1.252h0a1.176,1.176,0,0,1-.168.015h0A1.094,1.094,0,0,1,107.82,208.746Zm267.835-2.015a1.1,1.1,0,0,1,.812-1.325h0a1.1,1.1,0,0,1,1.326.813h0a1.1,1.1,0,0,1-.813,1.325h0a1.059,1.059,0,0,1-.256.029h0A1.1,1.1,0,0,1,375.655,206.731Zm-269.2-3.494a1.093,1.093,0,0,1,.681-1.391h0a1.1,1.1,0,0,1,1.4.681h0a1.107,1.107,0,0,1-.688,1.4h0a1.179,1.179,0,0,1-.352.059h0A1.1,1.1,0,0,1,106.458,203.237Zm267.7-2.131h0a1.1,1.1,0,0,1,.747-1.363h0a1.091,1.091,0,0,1,1.363.74h0v.007h0a1.1,1.1,0,0,1-.747,1.363h0a1.115,1.115,0,0,1-.308.044h0A1.1,1.1,0,0,1,374.16,201.106ZM104.2,197.986a1.1,1.1,0,0,1,.476-1.48h0a1.105,1.105,0,0,1,1.479.484h0a1.088,1.088,0,0,1-.476,1.473h0a1.025,1.025,0,0,1-.5.125h0A1.1,1.1,0,0,1,104.2,197.986Zm268.186-2.431a1.1,1.1,0,0,1,.681-1.4h0a1.1,1.1,0,0,1,1.4.681h0a1.1,1.1,0,0,1-.68,1.4h0a1.253,1.253,0,0,1-.359.058h0A1.106,1.106,0,0,1,372.388,195.555Zm-271.094-2.542a1.1,1.1,0,0,1,.322-1.516h0a1.093,1.093,0,0,1,1.524.322h0a1.1,1.1,0,0,1-.322,1.516h0a1.062,1.062,0,0,1-.6.176h0A1.1,1.1,0,0,1,101.294,193.013ZM370.352,190.1a1.1,1.1,0,0,1,.608-1.428h0a1.1,1.1,0,0,1,1.429.608h0a1.1,1.1,0,0,1-.608,1.435h0a1.133,1.133,0,0,1-.41.081h0A1.091,1.091,0,0,1,370.352,190.1ZM97.968,188.252a1.09,1.09,0,0,1,.221-1.531h0a1.091,1.091,0,0,1,1.538.227h0a1.084,1.084,0,0,1-.227,1.531h0a1.076,1.076,0,0,1-.652.22h0A1.08,1.08,0,0,1,97.968,188.252Zm270.076-3.494a1.094,1.094,0,0,1,.535-1.458h0a1.1,1.1,0,0,1,1.458.535h0a1.1,1.1,0,0,1-.535,1.457h0a1.156,1.156,0,0,1-.462.1h0A1.1,1.1,0,0,1,368.045,184.759ZM94.394,183.631v-.007h0a1.1,1.1,0,0,1,.184-1.538h0a1.087,1.087,0,0,1,1.538.177h0a1.1,1.1,0,0,1-.176,1.545h0a1.1,1.1,0,0,1-.681.234h0A1.1,1.1,0,0,1,94.394,183.631Zm271.08-4.1a1.093,1.093,0,0,1,.461-1.479h0a1.092,1.092,0,0,1,1.48.462h0a1.1,1.1,0,0,1-.461,1.486h0a1.147,1.147,0,0,1-.506.125h0A1.1,1.1,0,0,1,365.474,179.529ZM90.74,179.016h0a1.094,1.094,0,0,1,.183-1.538h0a1.094,1.094,0,0,1,1.538.183h0a1.087,1.087,0,0,1-.176,1.538h0a1.107,1.107,0,0,1-.681.242h0A1.1,1.1,0,0,1,90.74,179.016Zm271.907-4.577a1.092,1.092,0,0,1,.387-1.5h0a1.092,1.092,0,0,1,1.5.388h0a1.091,1.091,0,0,1-.388,1.5h0a1.091,1.091,0,0,1-.556.155h0A1.088,1.088,0,0,1,362.647,174.439Zm-275.5-.117a1.1,1.1,0,0,1,.234-1.538h0a1.1,1.1,0,0,1,1.538.234h0a1.1,1.1,0,0,1-.234,1.538h0a1.084,1.084,0,0,1-.652.212h0A1.093,1.093,0,0,1,87.144,174.322Zm272.427-4.827a1.087,1.087,0,0,1,.308-1.516h0a1.1,1.1,0,0,1,1.523.308h0a1.091,1.091,0,0,1-.315,1.523h0a1.07,1.07,0,0,1-.6.183h0A1.08,1.08,0,0,1,359.571,169.495Zm-275.8-.073a1.092,1.092,0,0,1,.337-1.516h0a1.093,1.093,0,0,1,1.516.337h0a1.094,1.094,0,0,1-.337,1.516h0a1.081,1.081,0,0,1-.585.169h0A1.1,1.1,0,0,1,83.767,169.421Zm272.478-4.7a1.1,1.1,0,0,1,.234-1.538h0a1.1,1.1,0,0,1,1.531.234h0a1.1,1.1,0,0,1-.234,1.538h0a1.063,1.063,0,0,1-.645.212h0A1.084,1.084,0,0,1,356.246,164.72Zm-275.46-.469a1.105,1.105,0,0,1,.469-1.487h0a1.1,1.1,0,0,1,1.48.469h0a1.1,1.1,0,0,1-.469,1.48h0a1.062,1.062,0,0,1-.505.125h0A1.093,1.093,0,0,1,80.786,164.251Zm271.893-4.131a1.1,1.1,0,0,1,.154-1.546h0a1.1,1.1,0,0,1,1.545.154h0a1.1,1.1,0,0,1-.153,1.546h0a1.1,1.1,0,0,1-.7.249h0A1.106,1.106,0,0,1,352.679,160.12ZM78.252,158.845a1.1,1.1,0,0,1,.593-1.442h0a1.1,1.1,0,0,1,1.436.593h0a1.1,1.1,0,0,1-.593,1.436h0a1.042,1.042,0,0,1-.418.088h0A1.107,1.107,0,0,1,78.252,158.845Zm270.625-3.135h0a1.1,1.1,0,0,1,.074-1.552h0a1.1,1.1,0,0,1,1.553.073h0a1.1,1.1,0,0,1-.074,1.552h0a1.1,1.1,0,0,1-.74.286h0A1.087,1.087,0,0,1,348.876,155.71Zm-272.69-2.468a1.1,1.1,0,0,1,.7-1.385h0a1.1,1.1,0,0,1,1.384.711h0a1.1,1.1,0,0,1-.711,1.384h0a1.05,1.05,0,0,1-.336.052h0A1.088,1.088,0,0,1,76.186,153.242Zm268.662-1.728a1.1,1.1,0,0,1-.007-1.553h0a1.1,1.1,0,0,1,1.552-.015h0a1.092,1.092,0,0,1,.007,1.553h0a1.083,1.083,0,0,1-.776.329h0A1.083,1.083,0,0,1,344.849,151.514ZM74.582,147.493a1.1,1.1,0,0,1,.82-1.319h0a1.1,1.1,0,0,1,1.319.82h0a1.1,1.1,0,0,1-.821,1.319h0a.964.964,0,0,1-.249.029h0A1.093,1.093,0,0,1,74.582,147.493Zm266.018.044a1.1,1.1,0,0,1-.1-1.553h0a1.1,1.1,0,0,1,1.553-.1h0a1.1,1.1,0,0,1,.1,1.553h0a1.092,1.092,0,0,1-.82.373h0A1.12,1.12,0,0,1,340.6,147.537Zm-4.438-3.81a1.093,1.093,0,0,1-.14-1.545h0a1.094,1.094,0,0,1,1.546-.132h0a1.094,1.094,0,0,1,.139,1.546h0a1.11,1.11,0,0,1-.842.4h0A1.072,1.072,0,0,1,336.163,143.727Zm-262.7-2.094a1.087,1.087,0,0,1,.923-1.245h0a1.1,1.1,0,0,1,1.252.922h0a1.1,1.1,0,0,1-.93,1.245h0a.6.6,0,0,1-.161.015h0A1.094,1.094,0,0,1,73.462,141.633Zm258.2-1.7h-.007a1.1,1.1,0,0,1-.117-1.553h0a1.1,1.1,0,0,1,1.552-.117h0a1.1,1.1,0,0,1,.117,1.553h0a1.115,1.115,0,0,1-.835.381h0A1.082,1.082,0,0,1,331.658,139.934ZM72.825,135.7h0a1.089,1.089,0,0,1,1.026-1.165h0a1.093,1.093,0,0,1,1.164,1.026h0a1.1,1.1,0,0,1-1.025,1.165h-.073A1.1,1.1,0,0,1,72.825,135.7Zm254.4.286a1.1,1.1,0,0,1-.044-1.553h0a1.1,1.1,0,0,1,1.552-.051h0a1.108,1.108,0,0,1,.045,1.56h0a1.1,1.1,0,0,1-.8.344h0A1.108,1.108,0,0,1,327.226,135.986Zm-4.182-4.256a1.1,1.1,0,0,1,.081-1.553h0a1.1,1.1,0,0,1,1.552.088h0a1.1,1.1,0,0,1-.08,1.553h0a1.13,1.13,0,0,1-.733.278h0A1.086,1.086,0,0,1,323.044,131.731Zm-249.282-.878a1.1,1.1,0,0,1-1.084-1.114h0a1.108,1.108,0,0,1,1.12-1.084h0a1.1,1.1,0,0,1,1.077,1.121h0a1.093,1.093,0,0,1-1.1,1.077h-.015Zm245.554-3.845h0a1.09,1.09,0,0,1,.292-1.524h0a1.1,1.1,0,0,1,1.524.286h0a1.106,1.106,0,0,1-.293,1.531h0a1.113,1.113,0,0,1-.615.19h0A1.091,1.091,0,0,1,319.317,127.007ZM74.025,124.985a1.1,1.1,0,0,1-.981-1.209h0a1.106,1.106,0,0,1,1.208-.981h0A1.1,1.1,0,0,1,75.227,124h0a1.1,1.1,0,0,1-1.092.989h0C74.1,124.992,74.063,124.985,74.025,124.985Zm242.332-3.274h0a1.1,1.1,0,0,1,.564-1.451h0a1.1,1.1,0,0,1,1.451.564h0a1.1,1.1,0,0,1-.565,1.451h0a1.054,1.054,0,0,1-.439.1h0A1.11,1.11,0,0,1,316.357,121.711ZM74.795,119.155a1.1,1.1,0,0,1-.856-1.3h0a1.1,1.1,0,0,1,1.3-.857h0a1.106,1.106,0,0,1,.857,1.3h0a1.1,1.1,0,0,1-1.077.879h0A1.117,1.117,0,0,1,74.795,119.155Zm89.613-3.142a1.1,1.1,0,0,1,1.048-1.15h0a1.092,1.092,0,0,1,1.143,1.048h0a1.1,1.1,0,0,1-1.048,1.15h-.044A1.1,1.1,0,0,1,164.407,116.013Zm150.1-.117h0a1.11,1.11,0,0,1,.865-1.3h0a1.11,1.11,0,0,1,1.3.864h0a1.1,1.1,0,0,1-.864,1.289h0a1.115,1.115,0,0,1-.219.021h0A1.1,1.1,0,0,1,314.511,115.9Zm-155.033.828a1.1,1.1,0,0,1-.915-1.26h0a1.1,1.1,0,0,1,1.253-.916h0a1.1,1.1,0,0,1,.916,1.253h0a1.1,1.1,0,0,1-1.085.93h0A1.471,1.471,0,0,1,159.478,116.724Zm10.76-1.37a1.091,1.091,0,0,1,.79-1.333h0a1.1,1.1,0,0,1,1.341.791h0a1.1,1.1,0,0,1-.791,1.333h0a1.211,1.211,0,0,1-.278.037h0A1.1,1.1,0,0,1,170.238,115.354Zm-16.641-.066a1.1,1.1,0,0,1-.7-1.385h0a1.091,1.091,0,0,1,1.385-.7h0a1.1,1.1,0,0,1,.7,1.384h0a1.1,1.1,0,0,1-1.047.762h0A1.172,1.172,0,0,1,153.6,115.288Zm22.237-1.721a1.09,1.09,0,0,1,.542-1.458h0a1.083,1.083,0,0,1,1.45.542h0a1.094,1.094,0,0,1-.542,1.457h0a1.093,1.093,0,0,1-.453.1h0A1.089,1.089,0,0,1,175.833,113.567Zm-99.662-.125a1.1,1.1,0,0,1-.7-1.385h0a1.1,1.1,0,0,1,1.392-.7h0a1.1,1.1,0,0,1,.7,1.385h0a1.089,1.089,0,0,1-1.04.761h0A1.156,1.156,0,0,1,76.172,113.442Zm71.851-.389a1.1,1.1,0,0,1-.527-1.464h0a1.1,1.1,0,0,1,1.458-.527h0a1.1,1.1,0,0,1,.527,1.465h0a1.092,1.092,0,0,1-1,.63h0A1.143,1.143,0,0,1,148.023,113.053Zm33.025-2.19a1.1,1.1,0,0,1,.322-1.516h0a1.108,1.108,0,0,1,1.524.322h0a1.1,1.1,0,0,1-.33,1.524h0a1.1,1.1,0,0,1-.593.176h0A1.094,1.094,0,0,1,181.048,110.864Zm132.885-1.018a1.093,1.093,0,0,1,1.091-1.106h0a1.1,1.1,0,0,1,1.106,1.091h0a1.108,1.108,0,0,1-1.1,1.106h0A1.1,1.1,0,0,1,313.933,109.846Zm-171.2.431a1.093,1.093,0,0,1-.4-1.5h0a1.086,1.086,0,0,1,1.494-.4h0a1.1,1.1,0,0,1,.41,1.5h0a1.1,1.1,0,0,1-.952.549h0A1.142,1.142,0,0,1,142.735,110.278Zm-64.513-2.344a1.1,1.1,0,0,1-.52-1.464h0a1.1,1.1,0,0,1,1.465-.52h0a1.1,1.1,0,0,1,.52,1.464h0a1.1,1.1,0,0,1-1,.623h0A1.042,1.042,0,0,1,78.222,107.934Zm107.631-.447a1.1,1.1,0,0,1,.147-1.552h0a1.1,1.1,0,0,1,1.546.146h0a1.1,1.1,0,0,1-.139,1.546h0a1.1,1.1,0,0,1-.7.256h0A1.125,1.125,0,0,1,185.853,107.487Zm-48.179-.308h0a1.1,1.1,0,0,1-.337-1.516h0a1.1,1.1,0,0,1,1.524-.33h0a1.1,1.1,0,0,1,.33,1.516h0a1.1,1.1,0,0,1-.923.5h0A1.039,1.039,0,0,1,137.674,107.179Zm177.592-2.116a1.1,1.1,0,0,1-.959-1.216h0a1.1,1.1,0,0,1,1.223-.959h0a1.09,1.09,0,0,1,.959,1.215h0a1.1,1.1,0,0,1-1.083.974h0A.9.9,0,0,1,315.266,105.063Zm-182.521-1.128h0a1.1,1.1,0,0,1-.3-1.523h0a1.1,1.1,0,0,1,1.523-.3h0a1.1,1.1,0,0,1,.3,1.523h0a1.1,1.1,0,0,1-.916.491h0A1.063,1.063,0,0,1,132.744,103.935Zm57.518-.337a1.107,1.107,0,0,1-.007-1.56h0a1.1,1.1,0,0,1,1.552,0h0a1.1,1.1,0,0,1,.007,1.552h0a1.109,1.109,0,0,1-.784.322h0A1.08,1.08,0,0,1,190.262,103.6ZM81,102.749a1.1,1.1,0,0,1-.285-1.524h0a1.1,1.1,0,0,1,1.53-.286h0a1.1,1.1,0,0,1,.278,1.531h0a1.1,1.1,0,0,1-.908.476h0A1.087,1.087,0,0,1,81,102.749Zm46.861-2.037a1.1,1.1,0,0,1-.337-1.516h0a1.1,1.1,0,0,1,1.524-.337h0a1.1,1.1,0,0,1,.33,1.516h0a1.086,1.086,0,0,1-.923.505h0A1.09,1.09,0,0,1,127.859,100.712Zm66.446-1.384a1.093,1.093,0,0,1-.11-1.546h0v-.007h0a1.1,1.1,0,0,1,1.552-.1h0a1.1,1.1,0,0,1,.1,1.553l.007-.008a1.114,1.114,0,0,1-.835.381h0A1.067,1.067,0,0,1,194.306,99.328Zm121.8-.081a1.1,1.1,0,0,1-.886-1.274h0a1.1,1.1,0,0,1,1.274-.886h0a1.089,1.089,0,0,1,.886,1.275h0a1.1,1.1,0,0,1-1.077.9h0A.889.889,0,0,1,316.109,99.247ZM84.587,98.1a1.1,1.1,0,0,1,.015-1.553h0a1.1,1.1,0,0,1,1.553.007h0a1.106,1.106,0,0,1-.007,1.553h0a1.11,1.11,0,0,1-.777.315h0A1.1,1.1,0,0,1,84.587,98.1Zm38.284-.374h0a1.1,1.1,0,0,1-.424-1.495h0a1.1,1.1,0,0,1,1.494-.431h0v.007h0a1.094,1.094,0,0,1,.425,1.487h0a1.086,1.086,0,0,1-.96.571h0A1.163,1.163,0,0,1,122.871,97.731Zm-5.163-2.607a1.094,1.094,0,0,1-.549-1.451h0a1.1,1.1,0,0,1,1.451-.556h0a1.1,1.1,0,0,1,.549,1.457h0a1.1,1.1,0,0,1-1,.645h0A1.091,1.091,0,0,1,117.708,95.124Zm80.391-.278a1.113,1.113,0,0,1-.168-1.553h0a1.1,1.1,0,0,1,1.546-.16h0a1.1,1.1,0,0,1,.168,1.545h0a1.1,1.1,0,0,1-.857.41h0A1.112,1.112,0,0,1,198.1,94.846ZM89.048,94.282a1.1,1.1,0,0,1,.366-1.509h0a1.1,1.1,0,0,1,1.509.366h0a1.1,1.1,0,0,1-.366,1.509h0a1.11,1.11,0,0,1-.571.161h0A1.08,1.08,0,0,1,89.048,94.282Zm228.13-.813a1.106,1.106,0,0,1-.894-1.274h0a1.107,1.107,0,0,1,1.275-.894h0a1.1,1.1,0,0,1,.893,1.274h0a1.1,1.1,0,0,1-1.083.908h0A1.669,1.669,0,0,1,317.178,93.468Zm-204.832-.418a1.108,1.108,0,0,1-.717-1.384h0a1.1,1.1,0,0,1,1.384-.711h0a1.093,1.093,0,0,1,.711,1.376h0a1.1,1.1,0,0,1-1.048.769h0A1.032,1.032,0,0,1,112.346,93.051ZM94.285,91.638a1.089,1.089,0,0,1,.732-1.37h0a1.1,1.1,0,0,1,1.37.733h0a1.1,1.1,0,0,1-.74,1.37h0a.943.943,0,0,1-.315.051h0A1.093,1.093,0,0,1,94.285,91.638Zm12.517.088a1.105,1.105,0,0,1-.923-1.253h0a1.094,1.094,0,0,1,1.253-.916h0V89.55h0a1.111,1.111,0,0,1,.922,1.26h0a1.1,1.1,0,0,1-1.083.93h0A1.308,1.308,0,0,1,106.8,91.726Zm-6.79-1.348a1.092,1.092,0,0,1,1.039-1.149h0a1.1,1.1,0,0,1,1.158,1.039h0a1.1,1.1,0,0,1-1.039,1.15h-.059A1.1,1.1,0,0,1,100.012,90.378Zm101.749-.132a1.1,1.1,0,0,1-.176-1.545h0a1.1,1.1,0,0,1,1.538-.183h0a1.1,1.1,0,0,1,.183,1.545h0a1.1,1.1,0,0,1-.864.418h0A1.1,1.1,0,0,1,201.761,90.246ZM318.123,87.66a1.1,1.1,0,0,1-.967-1.216h0a1.105,1.105,0,0,1,1.216-.966h0a1.1,1.1,0,0,1,.966,1.223h0a1.086,1.086,0,0,1-1.083.967h0A.792.792,0,0,1,318.123,87.66Zm-112.7-2.015a1.1,1.1,0,0,1-.154-1.545h0a1.089,1.089,0,0,1,1.546-.154h0a1.1,1.1,0,0,1,.154,1.546h0a1.11,1.11,0,0,1-.85.4h0A1.12,1.12,0,0,1,205.423,85.646Zm112.054-4.921a1.1,1.1,0,0,1,1.084-1.114h0a1.1,1.1,0,0,1,1.114,1.084h0a1.1,1.1,0,0,1-1.083,1.113h-.015A1.1,1.1,0,0,1,317.477,80.724ZM209.2,81.142a1.094,1.094,0,0,1-.081-1.553h0a1.091,1.091,0,0,1,1.546-.081h0a1.1,1.1,0,0,1,.088,1.553h0a1.1,1.1,0,0,1-.82.359h0A1.067,1.067,0,0,1,209.2,81.142Zm4.014-4.292a1.091,1.091,0,0,1,.015-1.552h0a1.092,1.092,0,0,1,1.553.007h0a1.1,1.1,0,0,1-.015,1.553v.007a1.1,1.1,0,0,1-.769.308h0A1.109,1.109,0,0,1,213.216,76.85ZM316.892,75.1a1.1,1.1,0,0,1,.85-1.3h0a1.1,1.1,0,0,1,1.3.85h0a1.1,1.1,0,0,1-.849,1.3h0a1.26,1.26,0,0,1-.227.022h0A1.1,1.1,0,0,1,316.892,75.1Zm-99.412-2.293a1.1,1.1,0,0,1,.109-1.552h0a1.1,1.1,0,0,1,1.553.11h0a1.108,1.108,0,0,1-.109,1.552h0a1.1,1.1,0,0,1-.719.264h0A1.109,1.109,0,0,1,217.479,72.807Zm97.669-3.061h0a1.092,1.092,0,0,1,.557-1.45h0a1.1,1.1,0,0,1,1.451.549h0a1.092,1.092,0,0,1-.557,1.451h0a1.075,1.075,0,0,1-.447.1h0A1.113,1.113,0,0,1,315.148,69.745Zm-93.165-.718a1.1,1.1,0,0,1,.205-1.538h0a1.1,1.1,0,0,1,1.538.2h0a1.1,1.1,0,0,1-.2,1.545h0a1.1,1.1,0,0,1-.674.227h0A1.093,1.093,0,0,1,221.983,69.027Zm4.724-3.494A1.1,1.1,0,0,1,227,64h0a1.1,1.1,0,0,1,1.524.293h0a1.092,1.092,0,0,1-.286,1.523h0a1.087,1.087,0,0,1-.622.19h0A1.1,1.1,0,0,1,226.708,65.533Zm85.628-.7a1.108,1.108,0,0,1,.265-1.53h0a1.094,1.094,0,0,1,1.53.264h0a1.1,1.1,0,0,1-.264,1.531h0a1.111,1.111,0,0,1-.63.2h0A1.115,1.115,0,0,1,312.336,64.837Zm-80.707-2.519a1.106,1.106,0,0,1,.382-1.508h0a1.107,1.107,0,0,1,1.508.38h0a1.107,1.107,0,0,1-.381,1.509h0a1.125,1.125,0,0,1-.564.154h0A1.1,1.1,0,0,1,231.629,62.318Zm77.031-1.809a1.1,1.1,0,0,1-.008-1.553h0a1.1,1.1,0,0,1,1.553-.007h0a1.092,1.092,0,0,1,.007,1.553h0a1.075,1.075,0,0,1-.777.322h0A1.094,1.094,0,0,1,308.66,60.509ZM236.735,59.4a1.1,1.1,0,0,1,.469-1.486h0v.007h0a1.093,1.093,0,0,1,1.48.462h0a1.1,1.1,0,0,1-.469,1.487h0a1.144,1.144,0,0,1-.506.125h0A1.107,1.107,0,0,1,236.735,59.4ZM242,56.789a1.1,1.1,0,0,1,.558-1.451h0a1.109,1.109,0,0,1,1.45.557h0a1.1,1.1,0,0,1-.557,1.451h0a1.066,1.066,0,0,1-.447.1h0A1.1,1.1,0,0,1,242,56.789Zm62.3.051h0a1.1,1.1,0,0,1-.257-1.531h0a1.1,1.1,0,0,1,1.539-.256h0a1.093,1.093,0,0,1,.249,1.531h0a1.091,1.091,0,0,1-.893.462h0A1.1,1.1,0,0,1,304.3,56.84ZM247.414,54.5a1.1,1.1,0,0,1,.637-1.414h0a1.1,1.1,0,0,1,1.42.645h0a1.1,1.1,0,0,1-.644,1.413h0a1.169,1.169,0,0,1-.388.066h0A1.1,1.1,0,0,1,247.414,54.5Zm52.01-.608h0a1.1,1.1,0,0,1-.491-1.473h0a1.108,1.108,0,0,1,1.48-.491h0A1.089,1.089,0,0,1,300.9,53.4h0a1.088,1.088,0,0,1-.982.608h0A1.053,1.053,0,0,1,299.423,53.888ZM252.95,52.533a1.107,1.107,0,0,1,.725-1.376h0a1.107,1.107,0,0,1,1.377.724h0a1.1,1.1,0,0,1-.725,1.377h0a1.028,1.028,0,0,1-.33.051h0A1.1,1.1,0,0,1,252.95,52.533Zm41.193-.821a1.094,1.094,0,0,1-.7-1.384h0a1.1,1.1,0,0,1,1.391-.7h0a1.1,1.1,0,0,1,.7,1.392h0a1.1,1.1,0,0,1-1.04.754h0A1.1,1.1,0,0,1,294.143,51.712ZM258.6,50.907a1.1,1.1,0,0,1,.813-1.325h0a1.093,1.093,0,0,1,1.325.806h0a1.1,1.1,0,0,1-.812,1.325h0a.987.987,0,0,1-.257.029h0A1.1,1.1,0,0,1,258.6,50.907Zm5.742-1.281a1.1,1.1,0,0,1,.886-1.275h0a1.1,1.1,0,0,1,1.275.894h0a1.108,1.108,0,0,1-.894,1.275h0a1.547,1.547,0,0,1-.19.015h0A1.086,1.086,0,0,1,264.34,49.625Zm24.251.652a1.1,1.1,0,0,1-.872-1.289h0a1.11,1.11,0,0,1,1.289-.872h0a1.11,1.11,0,0,1,.872,1.289h0a1.1,1.1,0,0,1-1.084.894h0A1.03,1.03,0,0,1,288.591,50.277Zm-18.45-1.553a1.1,1.1,0,0,1,.982-1.2h0a1.1,1.1,0,0,1,1.208.974h0a1.1,1.1,0,0,1-.982,1.209h0a.588.588,0,0,1-.117.007h0A1.114,1.114,0,0,1,270.14,48.724Zm12.752.791v-.007a1.09,1.09,0,0,1-1.011-1.179h0a1.093,1.093,0,0,1,1.18-1h0a1.1,1.1,0,0,1,1.011,1.179h0a1.1,1.1,0,0,1-1.1,1.011h-.081ZM276,48.271a1.109,1.109,0,0,1,1.084-1.121h0a1.091,1.091,0,0,1,1.113,1.076h0a1.093,1.093,0,0,1-1.077,1.121h-.014A1.1,1.1,0,0,1,276,48.271Z" transform="translate(-65.352 -47.15)"/></g><g transform="translate(250.214 286.767)"><path class="b" d="M373.838,401.626a1.145,1.145,0,0,1-.418-.081,1.193,1.193,0,0,1-.359-.242,1.115,1.115,0,0,1-.322-.777,1.1,1.1,0,0,1,.322-.777,1.134,1.134,0,0,1,1.553,0,1.1,1.1,0,0,1,.322.777,1.1,1.1,0,0,1-1.1,1.1Z" transform="translate(-372.739 -399.443)"/></g></g><path class="c" d="M73.051,357.977H345.527c-1.457-7.689-2.781-15.388-.47-22.637,4.3-13.5,19.875-21.049,24.008-34.6,3.683-12.077-2.886-24.773-10.182-35.075s-15.894-20.743-16.9-33.328c-.86-10.751,4.065-21.092,9.679-30.3s12.137-18.119,15.071-28.5,1.363-22.951-7.053-29.694c-10.016-8.025-24.56-4.773-37.035-1.753s-27.853,4.506-36.028-5.388c-5.232-6.332-5.566-15.313-8.985-22.781-6.823-14.908-25.693-21.515-41.75-18.206s-29.434,14.479-39.959,27.049-18.9,26.825-29.475,39.354C157.5,172.726,144.5,182.748,131,179.5c-12.1-2.913-20.232-15.715-32.536-17.584-8.811-1.339-17.741,3.626-23.026,10.8s-7.427,16.212-8.221,25.088a98.311,98.311,0,0,0,17.964,65.567c7.135,9.906,16.694,21.59,11.767,32.76-6.353,14.4-31.333,13.1-36.229,28.064-1.91,5.837.167,12.2,2.767,17.762A93.849,93.849,0,0,0,73.051,357.977Z" transform="translate(5442.911 1432.972)"/><g transform="translate(5733.27 1544.829)"><path class="d" d="M379.515,235.147c-12.059-11.612-9.345-32.03-18.434-46.09a16.4,16.4,0,0,0-6.426-6.157,8.53,8.53,0,0,0-8.571.449c-2.9,2.147-3.6,6.326-2.746,9.832s2.936,6.558,4.755,9.674c6.495,11.127,9.928,24.339,7.9,37.062-2.164,13.569-10.274,25.778-11.513,39.461-.855,9.452,1.685,18.989,5.947,27.47s10.186,16.011,16.422,23.167c-2.908-7.6-2.014-16.536-.209-24.473s5.354-15.376,9.435-22.417c4.467-7.709,9.674-15.2,11.883-23.832S385.933,241.327,379.515,235.147Z" transform="translate(-342.999 -128.054)"/><path class="e" d="M371.623,229.829c-.59,10.145-5.508,20.127-10.992,28.951-5.614,9.032-12.046,17.92-15.645,27.8-.074.566-.155,1.131-.207,1.7-.855,9.452,1.685,18.989,5.947,27.47s10.186,16.011,16.422,23.167c-2.908-7.6-2.014-16.536-.209-24.473s5.354-15.376,9.435-22.417c4.467-7.709,9.674-15.2,11.883-23.832s-2.024-17.966-8.441-24.146C375.737,240.122,373.351,235.185,371.623,229.829Z" transform="translate(-343.3 -136.957)"/><g transform="translate(6.584 0)"><path class="d" d="M384.244,314.624a243.724,243.724,0,0,1-2.208-59.083c.928-10.969,2.777-22.331,9.142-31.311,4.693-6.622,11.628-11.613,15.315-18.843,6.5-12.746,1.389-29.269,8.473-41.7,2.549-4.473,7.52-8.323,12.51-7.054,5.12,1.3,7.605,7.286,7.657,12.569.15,15.109-12.7,27.384-15.277,42.273-2.574,14.87,5.416,29.412,7.021,44.418,1.376,12.871-2.042,25.907-7.729,37.536s-13.568,22.029-21.618,32.167C391.2,324.571,385.26,320.955,384.244,314.624Z" transform="translate(-356.684 -123.296)"/><path class="e" d="M405.884,217.954c-3.8,6.639-10.257,11.452-14.7,17.727-6.365,8.98-8.214,20.343-9.142,31.311a243.743,243.743,0,0,0,.734,48.358,152.529,152.529,0,0,0,9.457,20.136,21.613,21.613,0,0,0,5.3,1.559c2.332-2.937,4.648-5.9,6.9-8.9,7.551-13.594,13.535-28.018,15.162-43.383C422.016,261.9,414.61,239.418,405.884,217.954Z" transform="translate(-356.684 -134.748)"/><path class="f" d="M369.446,317.06c-12.769-5.095-19.087-20.261-18.291-33.986s7.136-26.425,13.18-38.774,12.034-25.307,12.044-39.054c.011-15.468-7.561-29.987-9.109-45.378a59.275,59.275,0,0,1,7.153-34.541c2.308-4.14,5.529-8.286,10.149-9.347,6.733-1.547,13.292,4.51,14.94,11.219s-.218,13.718-1.964,20.4c-3.1,11.859-5.869,24.066-4.729,36.27,1.316,14.089,7.728,27.124,11.608,40.732a117.034,117.034,0,0,1-16.347,97.612C381.663,320.685,375.573,319.5,369.446,317.06Z" transform="translate(-351.088 -115.735)"/><path class="g" d="M408.278,243.141a1.463,1.463,0,0,0-1.941.725,56.577,56.577,0,0,1-13.031,17.991c.329-1.318.638-2.641.9-3.975,3.018-15.52.783-31.216-1.8-44.524q-.321-1.656-.662-3.319a87.974,87.974,0,0,0,5.59-10.414,1.465,1.465,0,0,0-2.67-1.207c-1.138,2.519-2.415,4.991-3.8,7.394-.331-1.567-.663-3.127-.993-4.663-2.181-10.173-4.435-20.694-5.318-31.18A96.77,96.77,0,0,1,384.534,153c4.446-3.976,8.767-8.188,12.841-12.536a1.465,1.465,0,0,0-2.138-2c-3.25,3.468-6.661,6.847-10.166,10.089a59.622,59.622,0,0,1,6.87-20.688,1.465,1.465,0,1,0-2.549-1.445c-6,10.59-8.7,23.714-8.052,39.048A65.822,65.822,0,0,0,373.7,157.4a1.465,1.465,0,1,0-1.947,2.189,62.855,62.855,0,0,1,9.924,11.222.14.14,0,0,0,.015.016c.932,10.464,3.153,20.866,5.311,30.932.853,3.981,1.735,8.1,2.523,12.153a149.38,149.38,0,0,1,3.186,27.611,73.9,73.9,0,0,0-11.5-16.853,1.465,1.465,0,1,0-2.168,1.969,71.021,71.021,0,0,1,13.364,21.346,1.5,1.5,0,0,0,.1.161,75.237,75.237,0,0,1-1.179,9.172,83.674,83.674,0,0,1-2.052,8.146,1.484,1.484,0,0,0-.13.449c-1.453,4.756-3.228,9.435-4.966,14.016-.957,2.526-1.941,5.131-2.867,7.725a165.469,165.469,0,0,1-12.29-29.716,1.465,1.465,0,0,0-2.8.85,168.272,168.272,0,0,0,13.795,32.632c-2.834,8.594-5.372,19.18-3.758,29.707a1.465,1.465,0,0,0,1.446,1.244,1.485,1.485,0,0,0,.224-.017,1.464,1.464,0,0,0,1.226-1.67c-1.718-11.211,1.611-22.694,4.7-31.447.976-2.762,2.037-5.561,3.065-8.269,1.74-4.587,3.515-9.271,4.985-14.06A59.489,59.489,0,0,0,409,245.081,1.465,1.465,0,0,0,408.278,243.141Z" transform="translate(-353.891 -117.584)"/></g><path class="h" d="M399.468,362.135c-6.344.352-12.81.988-19.209,1.28-6.4-.292-12.865-.928-19.209-1.28a75.773,75.773,0,0,0,10.981,45.426h16.455A75.78,75.78,0,0,0,399.468,362.135Z" transform="translate(-346.314 -161.565)"/><path class="g" d="M399.468,362.135c-6.344.352-12.81.988-19.209,1.28-6.4-.292-12.865-.928-19.209-1.28a74.514,74.514,0,0,0,.287,14.554l38.34-10.3Q399.634,364.26,399.468,362.135Z" transform="translate(-346.314 -161.565)"/><rect class="h" width="45.212" height="7.818" transform="translate(11.338 196.151)"/><rect class="i" width="45.212" height="7.818" transform="translate(11.338 196.151)"/></g><g transform="translate(5563.991 1547.866)"><rect class="j" width="187.941" height="243.082" rx="18.024" transform="translate(0 0)"/><g class="k" transform="translate(0 0)"><path class="l" d="M324.267,190.262,141.949,372.58A14.6,14.6,0,0,0,151,375.718h24.634L324.267,227.082Z" transform="translate(-136.326 -132.635)"/><path class="l" d="M135.041,346.973,322.982,159.032V134.139a14.671,14.671,0,0,0-14.671-14.672h-19.4L135.041,273.334Z" transform="translate(-135.041 -119.467)"/></g><path class="l" d="M309.147,123.966H270.389v4.226a4.947,4.947,0,0,1-4.942,4.942h-71.2a4.947,4.947,0,0,1-4.942-4.942v-4.226H150.549a11.022,11.022,0,0,0-11.009,11.009v213.74a11.021,11.021,0,0,0,11.009,11.009h158.6a11.021,11.021,0,0,0,11.009-11.009V134.975A11.022,11.022,0,0,0,309.147,123.966Z" transform="translate(-135.878 -120.304)"/><path class="e" d="M251.9,127.226a1.836,1.836,0,1,1-1.836-1.836A1.836,1.836,0,0,1,251.9,127.226Z" transform="translate(-156.093 -120.569)"/><path class="e" d="M229.229,127.226a1.836,1.836,0,1,1-1.836-1.836A1.836,1.836,0,0,1,229.229,127.226Z" transform="translate(-151.877 -120.569)"/><path class="e" d="M274.572,127.226a1.836,1.836,0,1,1-1.836-1.836A1.836,1.836,0,0,1,274.572,127.226Z" transform="translate(-160.31 -120.569)"/><g transform="translate(13.07 33.661)"><g class="k"><path d="M173.319,192.508H160.564a9.477,9.477,0,0,1-9.466-9.466V170.286a9.477,9.477,0,0,1,9.466-9.466h12.755a9.476,9.476,0,0,1,9.466,9.466v12.755A9.476,9.476,0,0,1,173.319,192.508Zm-12.755-25.1a2.878,2.878,0,0,0-2.874,2.874v12.755a2.878,2.878,0,0,0,2.874,2.874h12.755a2.877,2.877,0,0,0,2.874-2.874V170.286a2.877,2.877,0,0,0-2.874-2.874Z" transform="translate(-151.098 -160.82)"/></g><g transform="translate(38.698 1.595)"><path class="g" d="M313.706,168.561H201.846a2.891,2.891,0,0,1-2.891-2.891h0a2.891,2.891,0,0,1,2.891-2.891H313.706a2.891,2.891,0,0,1,2.891,2.891h0A2.891,2.891,0,0,1,313.706,168.561Z" transform="translate(-198.697 -162.78)"/><rect class="g" width="117.642" height="5.782" rx="2.891" transform="translate(0 11.563)"/><path class="g" d="M256.073,196.972H201.846a2.891,2.891,0,0,1-2.891-2.891h0a2.891,2.891,0,0,1,2.891-2.891h54.226a2.891,2.891,0,0,1,2.891,2.891h0A2.891,2.891,0,0,1,256.073,196.972Z" transform="translate(-198.697 -168.064)"/></g></g><g transform="translate(13.07 80.498)"><g class="k"><path d="M173.319,250.047H160.564a9.477,9.477,0,0,1-9.466-9.467V227.826a9.477,9.477,0,0,1,9.466-9.467h12.755a9.477,9.477,0,0,1,9.466,9.467V240.58A9.477,9.477,0,0,1,173.319,250.047Zm-12.755-25.1a2.878,2.878,0,0,0-2.874,2.875V240.58a2.878,2.878,0,0,0,2.874,2.875h12.755a2.878,2.878,0,0,0,2.874-2.875V227.826a2.878,2.878,0,0,0-2.874-2.875Z" transform="translate(-151.098 -218.359)"/></g><g transform="translate(38.698 1.595)"><path class="g" d="M313.706,226.1H201.846a2.891,2.891,0,0,1-2.891-2.891h0a2.891,2.891,0,0,1,2.891-2.891H313.706a2.891,2.891,0,0,1,2.891,2.891h0A2.891,2.891,0,0,1,313.706,226.1Z" transform="translate(-198.697 -220.319)"/><path class="g" d="M313.39,240.306H201.529a2.891,2.891,0,0,1-2.891-2.891h0a2.891,2.891,0,0,1,2.891-2.891H313.39a2.891,2.891,0,0,1,2.891,2.891h0A2.891,2.891,0,0,1,313.39,240.306Z" transform="translate(-198.638 -222.961)"/><rect class="g" width="60.008" height="5.782" rx="2.891" transform="translate(0.258 23.127)"/></g></g><g transform="translate(13.07 127.336)"><g class="k"><path d="M173.319,307.586H160.564a9.477,9.477,0,0,1-9.466-9.466V285.365a9.477,9.477,0,0,1,9.466-9.466h12.755a9.476,9.476,0,0,1,9.466,9.466V298.12A9.476,9.476,0,0,1,173.319,307.586Zm-12.755-25.1a2.878,2.878,0,0,0-2.874,2.874V298.12a2.878,2.878,0,0,0,2.874,2.874h12.755a2.877,2.877,0,0,0,2.874-2.874V285.365a2.877,2.877,0,0,0-2.874-2.874Z" transform="translate(-151.098 -275.899)"/></g><g transform="translate(38.698 1.595)"><path class="g" d="M313.706,283.64H201.846a2.891,2.891,0,0,1-2.891-2.891h0a2.891,2.891,0,0,1,2.891-2.891H313.706a2.891,2.891,0,0,1,2.891,2.891h0A2.891,2.891,0,0,1,313.706,283.64Z" transform="translate(-198.697 -277.858)"/><path class="g" d="M313.39,297.846H201.529a2.891,2.891,0,0,1-2.891-2.891h0a2.891,2.891,0,0,1,2.891-2.891H313.39a2.891,2.891,0,0,1,2.891,2.891h0A2.891,2.891,0,0,1,313.39,297.846Z" transform="translate(-198.638 -280.5)"/><path class="g" d="M256.073,312.051H201.846a2.891,2.891,0,0,1-2.891-2.891h0a2.891,2.891,0,0,1,2.891-2.891h54.226a2.891,2.891,0,0,1,2.891,2.891h0A2.891,2.891,0,0,1,256.073,312.051Z" transform="translate(-198.697 -283.142)"/></g></g><g transform="translate(13.07 174.173)"><g class="k"><path d="M173.319,365.126H160.564a9.477,9.477,0,0,1-9.466-9.467V342.9a9.477,9.477,0,0,1,9.466-9.467h12.755a9.477,9.477,0,0,1,9.466,9.467v12.755A9.477,9.477,0,0,1,173.319,365.126Zm-12.755-25.1a2.878,2.878,0,0,0-2.874,2.875v12.755a2.878,2.878,0,0,0,2.874,2.875h12.755a2.878,2.878,0,0,0,2.874-2.875V342.9a2.878,2.878,0,0,0-2.874-2.875Z" transform="translate(-151.098 -333.438)"/></g><g transform="translate(38.698 1.595)"><path class="g" d="M313.706,341.18H201.846a2.891,2.891,0,0,1-2.891-2.891h0a2.891,2.891,0,0,1,2.891-2.891H313.706a2.891,2.891,0,0,1,2.891,2.891h0A2.891,2.891,0,0,1,313.706,341.18Z" transform="translate(-198.697 -335.398)"/><rect class="g" width="117.642" height="5.782" rx="2.891" transform="translate(0 11.563)"/><rect class="g" width="60.008" height="5.782" rx="2.891" transform="translate(0.258 23.126)"/></g></g><g transform="translate(14.294 8.494)"><circle class="j" cx="1.785" cy="1.785" r="1.785"/><circle class="j" cx="1.785" cy="1.785" r="1.785" transform="translate(6.417)"/><circle class="j" cx="1.785" cy="1.785" r="1.785" transform="translate(12.835)"/><circle class="j" cx="1.785" cy="1.785" r="1.785" transform="translate(19.252)"/><circle class="j" cx="1.785" cy="1.785" r="1.785" transform="translate(25.669)"/></g><g transform="translate(140.626 7.243)"><rect class="j" width="10.426" height="5.762"/><rect class="j" width="1.455" height="3.107" transform="translate(11.881 4.435) rotate(180)"/></g><text class="m" transform="translate(157.892 10.367)"><tspan x="0" y="0">100%</tspan></text><path class="j" d="M190.137,209.131c-7.308,6.639-14.9,14.132-21.563,21.418a56.844,56.844,0,0,1-5.669-8.771l-8.763,2.186a86.942,86.942,0,0,0,14.833,14.943C176.048,229.345,183.065,218.694,190.137,209.131Z" transform="translate(-138.594 -136.144)"/><path class="j" d="M190.137,266.671c-7.308,6.638-14.9,14.131-21.563,21.418a56.849,56.849,0,0,1-5.669-8.772l-8.763,2.187a86.943,86.943,0,0,0,14.833,14.943C176.048,286.885,183.065,276.234,190.137,266.671Z" transform="translate(-138.594 -146.847)"/><path class="j" d="M190.137,324.21c-7.308,6.639-14.9,14.132-21.563,21.418a56.844,56.844,0,0,1-5.669-8.771l-8.763,2.186a86.941,86.941,0,0,0,14.833,14.943C176.048,344.424,183.065,333.773,190.137,324.21Z" transform="translate(-138.594 -157.549)"/></g><path class="j" d="M182.09,132.1c-4.979,8.526-9.974,17.951-14.143,26.9a56.941,56.941,0,0,1-8.039-6.666l-7.7,4.715a86.976,86.976,0,0,0,18.633,9.8C174.715,155.605,178.213,143.34,182.09,132.1Z" transform="translate(5425.758 1426.051)"/><g transform="translate(5512.501 1583.123)"><path class="n" d="M78.4,402.686l3.353-7.986,6.363,3.705-5.291,6.857Z" transform="translate(-73.017 -205.916)"/><path class="n" d="M125.1,408.787l-1.571-10.047h10.318l-1.571,10.047Z" transform="translate(-81.41 -206.668)"/><path class="n" d="M78.591,289.6c.987,2.768,1.973,5.83.91,8.569.774,1.459-.245,3.751-1.57,4.737a3.609,3.609,0,0,1-4.538-.317A5.636,5.636,0,0,1,72,299.095a13.966,13.966,0,0,1,2.686-9.711c-.034-.865.422-1.835,1.288-1.883S78.3,288.781,78.591,289.6Z" transform="translate(-71.813 -185.977)"/><path class="o" d="M110.191,196.6a6.478,6.478,0,0,1-.181-6.4,15.039,15.039,0,0,1,4.411-4.985,41.821,41.821,0,0,0,5.117-4.333,14.623,14.623,0,0,0,3.657-11.279,7.573,7.573,0,0,0-2.56-5.306c-2.51-1.909-6.309-1.009-8.645,1.11s-3.59,5.143-4.894,8.014-2.845,5.827-5.5,7.537c-1.63,1.052-3.569,1.55-5.2,2.6a9.291,9.291,0,0,0-3.543,10.825,5.377,5.377,0,0,0-.99,5.779,8.874,8.874,0,0,0,4.309,4.247,13.72,13.72,0,0,0,11.4.378,5.521,5.521,0,0,1,1.158-5.8C109.44,198.376,110.26,197.531,110.191,196.6Z" transform="translate(-75.441 -162.867)"/><path class="n" d="M158.625,172.629a4,4,0,0,1,.99-5.209c-.39-1.9.987-4.357,2.906-4.615a2.736,2.736,0,0,1,2.985,1.656,3.813,3.813,0,0,1-.129,2.134,17.951,17.951,0,0,1-4.486,7.748A7.414,7.414,0,0,1,158.625,172.629Z" transform="translate(-87.832 -162.78)"/><path class="p" d="M79.884,279.839a61.143,61.143,0,0,1,17.991-35.716c2.54-2.453,5.3-4.69,7.61-7.362a17.223,17.223,0,0,0,4.506-9.4,7.942,7.942,0,0,0-1.056-5.083,4.786,4.786,0,0,0-4.482-2.247c-5.414.765-9.968,4.776-13.49,8.959a72.118,72.118,0,0,0-16.755,47.46A11.787,11.787,0,0,0,79.884,279.839Z" transform="translate(-72.233 -173.422)"/><path class="q" d="M115.962,314.115a107.344,107.344,0,0,1-26.6,62.668,15.752,15.752,0,0,1-6.273-4.18c2.61-14.233,12.93-26.615,14.067-41.04.606-7.684-1.407-15.3-2.372-22.948s-3.211-19.138,1.293-25.393c6.717,3.516,14.9,11.9,18.805,18.4a20.476,20.476,0,0,1,2.83,6.934C118.146,311.026,116.152,311.612,115.962,314.115Z" transform="translate(-73.889 -185.182)"/><path class="i" d="M115.962,314.115a107.344,107.344,0,0,1-26.6,62.668,15.752,15.752,0,0,1-6.273-4.18c2.61-14.233,12.93-26.615,14.067-41.04.606-7.684-1.407-15.3-2.372-22.948s-3.211-19.138,1.293-25.393c6.717,3.516,14.9,11.9,18.805,18.4a20.476,20.476,0,0,1,2.83,6.934C118.146,311.026,116.152,311.612,115.962,314.115Z" transform="translate(-73.889 -185.182)"/><path class="e" d="M120.065,308.61a20.476,20.476,0,0,0-2.83-6.934c-3.817-6.354-11.722-14.5-18.351-18.142-.313.14-.613.286-.908.437-3.609,5.921-2.045,15.774-1.056,23.056q.317.574.646,1.139c3.7,6.334,8.432,12.051,11.742,18.6a32.527,32.527,0,0,1,3.709,13.266,105.982,105.982,0,0,0,5.293-25.854C118.5,311.67,120.494,311.084,120.065,308.61Z" transform="translate(-76.237 -185.24)"/><path class="q" d="M122.708,282.806a288.7,288.7,0,0,1,7,96.511H119.152c-2.935-11.8-5.593-24.853-5.477-37.017.072-7.53,1.309-15.212-.6-22.5-1.7-6.488-5.751-12.054-9.113-17.858s-6.158-12.457-4.973-19.059A50.185,50.185,0,0,1,122.708,282.806Z" transform="translate(-76.793 -184.847)"/><path class="e" d="M112.566,281.47c3.479,1.612,7.4,3.209,11.04,5.158-.3-1.275-.584-2.551-.9-3.821a50.185,50.185,0,0,0-23.722.081c-1.185,6.6,1.612,13.255,4.973,19.059s7.41,11.371,9.113,17.858c1.912,7.284.676,14.965.6,22.5-.116,12.164,2.542,25.211,5.477,37.017h4.924A214.681,214.681,0,0,0,112.566,281.47Z" transform="translate(-76.793 -184.847)"/><path class="e" d="M123.463,288.505c-.14-.625-.27-1.253-.414-1.876-.126-.544-.256-1.086-.383-1.63-2.471-.75-4.395-1.911-7.368-2.632a36.963,36.963,0,0,0-5.368-.934,51.09,51.09,0,0,0-7,.573,15.489,15.489,0,0,0-5.776,3.227c-.1.234-.2.463-.289.7-.007.019-.014.037-.02.057q-.212.6-.379,1.241l-.025.1c-.109.424-.206.857-.287,1.3l-.012.068a27.739,27.739,0,0,0-.412,4.311c0,.032,0,.063,0,.1-.011.475-.011.952,0,1.433l0,.131q.012.722.046,1.448l0,.086c.049,1,.125,2,.219,3l.007.084q.068.713.148,1.419l.02.177q.077.681.161,1.352l.027.213q.082.656.168,1.3c.011.083.022.164.033.247.035.262.07.518.1.777A42.673,42.673,0,0,0,123.463,288.505Z" transform="translate(-76.237 -184.849)"/><path class="r" d="M92.966,282.874c9.011,2.619,22.124-4.805,30.939-8.02-.7-9.323-2.807-19.081-3.51-28.4-.762-10.092-1.783-20.868-8.145-28.739-2.581-3.194-8.481-1.36-11.582,1.333s-4.807,6.633-6.076,10.54C89.632,244.869,88.658,267.392,92.966,282.874Z" transform="translate(-75.217 -172.682)"/><path class="e" d="M122.367,247.508c-.671-8.888-1.548-18.3-6.092-25.8a21.848,21.848,0,0,0-5.474,2.287c-3.49,2-6.4,5.206-9.965,7.063a78.371,78.371,0,0,0,21.572,16.889C122.4,247.8,122.378,247.653,122.367,247.508Z" transform="translate(-77.189 -173.74)"/><path class="s" d="M107.852,203.649a79.908,79.908,0,0,0-1.21,12.549c2.056.562,4.274,1.335,6.366.921a68.967,68.967,0,0,0,.6-13.015A12.611,12.611,0,0,0,107.852,203.649Z" transform="translate(-78.269 -170.356)"/><path class="e" d="M107.006,210.691a24.062,24.062,0,0,0,6.444,3.293,70.134,70.134,0,0,0,.256-9.083,5.75,5.75,0,0,0-.8-.979c-.02-.02-.046-.034-.067-.055a12.921,12.921,0,0,0-4.917-.217C107.507,205.982,107.209,208.333,107.006,210.691Z" transform="translate(-78.336 -170.357)"/><path class="n" d="M106.638,193.584a22.021,22.021,0,0,1,10.151,11.828,8.6,8.6,0,0,1-5.057,4.073,10.345,10.345,0,0,1-9.25-1.506,8.541,8.541,0,0,1-3.122-8.65C100.183,196.189,103.782,192.04,106.638,193.584Z" transform="translate(-76.87 -168.447)"/><path class="r" d="M151.524,174.928c-2.52,9.651-5.588,19.234-10.37,27.987s-11.378,16.69-19.87,21.923a22.674,22.674,0,0,1-8.593,3.438,11.383,11.383,0,0,1-8.8-2.156c-2.395-1.98-5.257-6.435-3.461-8.97,2.248-3.175,6.247-4.464,9.862-5.9a65.3,65.3,0,0,0,36.828-37.961Z" transform="translate(-77.009 -164.734)"/><path class="o" d="M110.895,194.374a1.616,1.616,0,0,1-.39,1.253,3.925,3.925,0,0,1-1.053.838,14.616,14.616,0,0,1-6.884,2.068,5.157,5.157,0,0,1,.656,4.19c.772.619,1.349,1.42,2.121,2.038a14.877,14.877,0,0,0-2.427-.958,1.352,1.352,0,0,0-1.346.02.92.92,0,0,0-.208.973,2.1,2.1,0,0,0,.616.842,6.165,6.165,0,0,0,2.74,1.447,6.911,6.911,0,0,1,.056,3.054c-2.807-.685-6.245-2.007-7.716-4.492a9.607,9.607,0,0,1-.857-5.693,14.858,14.858,0,0,1,2.494-7.895c1.691-2.229,4.742-3.618,7.372-2.664C108.146,190.148,110.529,192.2,110.895,194.374Z" transform="translate(-76.314 -167.673)"/><g transform="translate(40.317 192.072)"><rect class="q" width="13.931" height="4.796" rx="2.219"/><rect class="t" width="13.931" height="4.796" rx="2.219"/></g><g transform="translate(5.301 184.062)"><rect class="q" width="13.931" height="4.796" rx="2.219" transform="translate(2.444 0) rotate(30.636)"/><rect class="t" width="13.931" height="4.796" rx="2.219" transform="translate(2.444 0) rotate(30.636)"/></g><path class="q" d="M124.692,411.083l-3.377,5.707h21.3l-10.748-5.707Z" transform="translate(-80.998 -208.963)"/><path class="q" d="M84.194,411.073l-2.6-3.986-4.425-2.577-5.387,2.508,10.258,5.974.987.718,6.306.636Z" transform="translate(-71.785 -207.741)"/></g><path class="e" d="M276.306,406.648H208.033a2.25,2.25,0,0,1-2.25-2.251h0a2.25,2.25,0,0,1,2.25-2.25h68.273a2.251,2.251,0,0,1,2.251,2.25h0A2.251,2.251,0,0,1,276.306,406.648Z" transform="translate(5415.792 1375.822)"/></g></g></svg>