<svg xmlns="http://www.w3.org/2000/svg" width="220" height="220" viewBox="0 0 220 220"><defs><style>.a,.g{fill:#52e5cc;}.b{opacity:0.2;}.c{fill:#00d8ae;}.d{fill:#ccf7ef;}.bb,.bc,.bd,.be,.e{fill:#76f3de;}.f,.g,.m{mix-blend-mode:overlay;isolation:isolate;}.ai,.ao,.be,.h,.s{opacity:0.833;}.ah,.an,.bd,.i,.r,.v{opacity:0.667;}.ag,.am,.bc,.j,.q{opacity:0.5;}.af,.al,.bb,.k,.p{opacity:0.333;}.l{opacity:0.1;}.m,.u{opacity:0.6;}.n,.o,.p,.q,.r,.s,.t{fill:#fff;}.ab,.n{opacity:0;}.ae,.ak,.o,.z{opacity:0.167;}.aa,.ac,.u,.v,.w,.x,.y{fill:#dcdcdc;}.w{opacity:0.733;}.x{opacity:0.8;}.y{opacity:0.867;}.aa{opacity:0.933;}.ad{fill:#c5f9ff;}.ae{fill:#fcfefd;}.af{fill:#f9fdfc;}.ag{fill:#f6fcfa;}.ah{fill:#f3fbf8;}.ai{fill:#f0faf7;}.aj{fill:#edf9f5;}.ak{fill:#dcfeff;}.al{fill:#b8feff;}.am{fill:#95fdff;}.an{fill:#71fcfe;}.ao{fill:#4efcfe;}.ap{fill:#ffd5bf;}.aq{fill:#ffbf99;}.ar{fill:#5d0ca6;}.as{fill:#ffd6bf;}.at{fill:#7724ce;}.au{fill:#8c2ddf;}.av{fill:#43008d;}.aw{fill:#d38f62;}.ax{fill:#1e292e;}.ay{fill:#12191c;}.az{fill:#efb185;}.ba{fill:#37007f;}.bf{fill:none;}</style></defs><g transform="translate(-8978 -3944)"><g transform="translate(-87 15.626)"><g transform="translate(9177.577 4097.364)"><path class="a" d="M432.372,123.284l36.747,21.442-16.686,9.7,9.426,5.442-.748.435-10.18-5.877,16.694-9.7-36-21Z" transform="translate(-431.624 -123.284)"/></g><g transform="translate(9169.135 4102.27)"><path class="a" d="M447.739,137.938,428.445,149.15l-.753-.434,18.544-10.778-19.6-11.319.75-.435Z" transform="translate(-426.633 -126.185)"/></g><g transform="translate(9184.896 4093.109)"><path class="a" d="M506.037,138.563,486.1,150.153,435.952,121.2l.75-.435,49.387,28.514,18.447-10.719-10.179-5.877.748-.434Z" transform="translate(-435.952 -120.768)"/></g><g transform="translate(9191.989 4088.984)"><path class="a" d="M493.707,121.831l-24.047,13.976-29.513-17.039.755-.439,28.758,16.6L492.954,121.4Z" transform="translate(-440.147 -118.329)"/></g><g transform="translate(9103.091 3987.574)"><g class="b" transform="translate(0 63.875)"><path d="M500.2,124.917c5.174,2.985,5.211,7.836.063,10.827l-44.11,25.633c-5.148,2.992-13.53,2.992-18.705.007L391.49,134.849c-5.185-2.994-5.212-7.847-.064-10.841l44.11-25.633c5.145-2.992,13.522-2.985,18.7.007Z" transform="translate(-387.583 -96.135)"/></g><g transform="translate(9.257 52.134)"><path class="c" d="M490.807,76.022c-.008.11-.018.22-.037.33s-.047.2-.074.3-.056.216-.091.325c-.034.09-.079.176-.115.266-.049.117-.1.233-.164.35-.042.081-.095.161-.147.245q-.119.193-.259.386c-.056.076-.12.151-.181.225a6.221,6.221,0,0,1-.47.506c-.061.059-.117.12-.181.179-.11.095-.227.188-.34.281s-.2.166-.314.245c-.127.095-.262.179-.4.267s-.271.184-.419.271L450.606,101.7a11.42,11.42,0,0,1-1.045.529c-.1.047-.211.09-.318.135-.283.118-.575.23-.871.33-.107.034-.208.074-.316.108-.188.059-.382.112-.575.164-.145.041-.286.079-.435.118-.2.047-.4.088-.6.129-.142.029-.284.063-.428.086-.414.073-.834.129-1.26.176-.129.012-.264.022-.4.032q-.378.033-.751.051c-.159.007-.315.01-.472.014-.2,0-.411.005-.614,0q-.256-.005-.507-.015c-.186-.007-.375-.017-.563-.029s-.342-.029-.512-.044-.367-.039-.55-.061-.34-.046-.509-.071c-.189-.032-.379-.064-.572-.1-.156-.032-.313-.064-.47-.1-.232-.049-.457-.107-.682-.166-.13-.034-.257-.064-.384-.1-.406-.12-.805-.252-1.187-.4-.058-.022-.112-.051-.166-.073a11.42,11.42,0,0,1-1.5-.717L396.368,79.44c-2.187-1.263-3.281-2.924-3.278-4.578l-.034,13.56c-.007,1.657,1.087,3.317,3.273,4.582l38.554,22.257a11.806,11.806,0,0,0,1.5.719c.034.014.066.035.1.049s.046.014.063.02c.386.151.78.282,1.189.4.032.01.061.024.095.032.1.029.193.046.288.071.225.061.453.118.682.169.064.012.127.032.188.046.093.019.19.03.282.047.2.036.391.073.587.1.078.01.152.029.228.039s.173.017.259.029c.183.024.374.046.565.063.085.008.171.02.257.03s.167.007.247.014c.188.012.377.02.568.03.091,0,.184.012.276.014s.152,0,.227,0c.206,0,.409,0,.616,0,.1,0,.2,0,.3,0l.176-.012c.25-.012.5-.029.749-.051.1-.007.2-.008.3-.02.03,0,.064-.01.095-.012.423-.044.844-.1,1.26-.176a.45.45,0,0,0,.061-.01c.123-.02.244-.052.365-.076.2-.041.406-.081.606-.13.145-.036.289-.078.435-.117.193-.054.384-.1.575-.164l.12-.034c.068-.022.127-.051.195-.074.3-.1.59-.213.876-.331.1-.044.21-.088.311-.134a11.4,11.4,0,0,0,1.047-.529l37.008-21.508c.046-.025.09-.051.134-.079.1-.061.195-.129.288-.191.135-.086.271-.173.4-.262.11-.079.206-.166.31-.247.12-.1.237-.189.343-.284.019-.019.047-.035.064-.052.044-.041.071-.083.112-.122a6.6,6.6,0,0,0,.472-.507c.032-.037.078-.073.107-.113v-.017h0V91.9c.032-.039.052-.083.083-.122.088-.12.169-.245.245-.369.039-.059.085-.113.118-.173.015-.029.025-.058.041-.09.061-.112.11-.228.161-.342a2.141,2.141,0,0,0,.091-.2c.008-.02.012-.042.022-.064.041-.113.068-.227.1-.338.017-.074.046-.147.063-.22,0-.02,0-.041.005-.059.02-.122.029-.244.042-.365,0-.073.022-.14.022-.213a.925.925,0,0,0,0-.1l.039-13.562C490.838,75.8,490.816,75.907,490.807,76.022Z" transform="translate(-393.056 -46.966)"/><g transform="translate(0.036)"><path class="d" d="M487.547,82.509c4.352,2.512,4.365,6.577.052,9.085L450.592,113.1c-4.313,2.506-11.335,2.51-15.683,0L396.353,90.842c-4.348-2.51-4.369-6.582-.056-9.089L433.3,60.247c4.314-2.506,11.343-2.506,15.692,0Z" transform="translate(-393.077 -58.368)"/></g><g transform="translate(13.678 9.283)"><path class="c" d="M469.206,81.252c3.127,1.8,3.149,4.736.037,6.545l-26.658,15.492a12.462,12.462,0,0,1-11.306,0L403.5,87.254c-3.132-1.808-3.146-4.741-.034-6.55l26.656-15.492a12.448,12.448,0,0,1,11.3,0Z" transform="translate(-401.144 -63.856)"/></g><g transform="translate(21.252 18.76)"><path class="e" d="M459.262,82.86c2.464,1.392,2.483,3.65.027,5.043L438.282,99.835a10.031,10.031,0,0,1-8.911,0l-21.89-12.355c-2.468-1.392-2.481-3.653-.029-5.047L428.461,70.5a10.021,10.021,0,0,1,8.91,0Z" transform="translate(-405.622 -69.46)"/></g></g><g transform="translate(9.257 26.754)"><path class="c" d="M490.807,76.022c-.008.11-.018.22-.037.33s-.047.2-.074.3-.056.216-.091.325c-.034.09-.079.176-.115.266-.049.117-.1.233-.164.35-.042.081-.095.161-.147.245q-.119.193-.259.386c-.056.076-.12.151-.181.225a6.221,6.221,0,0,1-.47.506c-.061.059-.117.12-.181.179-.11.095-.227.188-.34.281s-.2.166-.314.245c-.127.095-.262.179-.4.267s-.271.184-.419.271L450.606,101.7a11.42,11.42,0,0,1-1.045.529c-.1.047-.211.09-.318.135-.283.118-.575.23-.871.33-.107.034-.208.074-.316.108-.188.059-.382.112-.575.164-.145.041-.286.079-.435.118-.2.047-.4.088-.6.129-.142.029-.284.063-.428.086-.414.073-.834.129-1.26.176-.129.012-.264.022-.4.032q-.378.033-.751.051c-.159.007-.315.01-.472.014-.2,0-.411.005-.614,0q-.256-.005-.507-.015c-.186-.007-.375-.017-.563-.029s-.342-.029-.512-.044-.367-.039-.55-.061-.34-.046-.509-.071c-.189-.032-.379-.064-.572-.1-.156-.032-.313-.064-.47-.1-.232-.049-.457-.107-.682-.166-.13-.034-.257-.064-.384-.1-.406-.12-.805-.252-1.187-.4-.058-.022-.112-.051-.166-.073a11.42,11.42,0,0,1-1.5-.717L396.368,79.44c-2.187-1.263-3.281-2.924-3.278-4.578l-.034,13.56c-.007,1.657,1.087,3.317,3.273,4.582l38.554,22.257a11.806,11.806,0,0,0,1.5.719c.034.014.066.035.1.049s.046.014.063.02c.386.151.78.282,1.189.4.032.01.061.024.095.032.1.029.193.046.288.071.225.061.453.118.682.169.064.012.127.032.188.046.093.019.19.03.282.047.2.036.391.073.587.1.078.01.152.029.228.039s.173.017.259.029c.183.024.374.046.565.063.085.008.171.02.257.03s.167.007.247.014c.188.012.377.02.568.03.091,0,.184.012.276.014s.152,0,.227,0c.206,0,.409,0,.616,0,.1,0,.2,0,.3,0l.176-.012c.25-.012.5-.029.749-.051.1-.007.2-.008.3-.02.03,0,.064-.01.095-.012.423-.044.844-.1,1.26-.176a.45.45,0,0,0,.061-.01c.123-.02.244-.052.365-.076.2-.041.406-.081.606-.13.145-.036.289-.078.435-.117.193-.054.384-.1.575-.164l.12-.034c.068-.022.127-.051.195-.074.3-.1.59-.213.876-.331.1-.044.21-.088.311-.134a11.4,11.4,0,0,0,1.047-.529l37.008-21.508c.046-.025.09-.051.134-.079.1-.061.195-.129.288-.191.135-.086.271-.173.4-.262.11-.079.206-.166.31-.247.12-.1.237-.189.343-.284.019-.019.047-.035.064-.052.044-.041.071-.083.112-.122a6.6,6.6,0,0,0,.472-.507c.032-.037.078-.073.107-.113v-.017h0V91.9c.032-.039.052-.083.083-.122.088-.12.169-.245.245-.369.039-.059.085-.113.118-.173.015-.029.025-.058.041-.09.061-.112.11-.228.161-.342a2.141,2.141,0,0,0,.091-.2c.008-.02.012-.042.022-.064.041-.113.068-.227.1-.338.017-.074.046-.147.063-.22,0-.02,0-.041.005-.059.02-.122.029-.244.042-.365,0-.073.022-.14.022-.213a.925.925,0,0,0,0-.1l.039-13.562C490.838,75.8,490.816,75.907,490.807,76.022Z" transform="translate(-393.056 -46.966)"/><g transform="translate(0.036)"><path class="d" d="M487.547,82.509c4.352,2.512,4.365,6.577.052,9.085L450.592,113.1c-4.313,2.506-11.335,2.51-15.683,0L396.353,90.842c-4.348-2.51-4.369-6.582-.056-9.089L433.3,60.247c4.314-2.506,11.343-2.506,15.692,0Z" transform="translate(-393.077 -58.368)"/></g><g transform="translate(13.678 9.283)"><path class="c" d="M469.206,81.252c3.127,1.8,3.149,4.736.037,6.545l-26.658,15.492a12.462,12.462,0,0,1-11.306,0L403.5,87.254c-3.132-1.808-3.146-4.741-.034-6.55l26.656-15.492a12.448,12.448,0,0,1,11.3,0Z" transform="translate(-401.144 -63.856)"/></g><g transform="translate(21.252 18.76)"><path class="e" d="M459.262,82.86c2.464,1.392,2.483,3.65.027,5.043L438.282,99.835a10.031,10.031,0,0,1-8.911,0l-21.89-12.355c-2.468-1.392-2.481-3.653-.029-5.047L428.461,70.5a10.021,10.021,0,0,1,8.91,0Z" transform="translate(-405.622 -69.46)"/></g></g><g transform="translate(9.257 0)"><path class="c" d="M490.807,76.022c-.008.11-.018.22-.037.33s-.047.2-.074.3-.056.216-.091.325c-.034.09-.079.176-.115.266-.049.117-.1.233-.164.35-.042.081-.095.161-.147.245q-.119.193-.259.386c-.056.076-.12.151-.181.225a6.221,6.221,0,0,1-.47.506c-.061.059-.117.12-.181.179-.11.095-.227.188-.34.281s-.2.166-.314.245c-.127.095-.262.179-.4.267s-.271.184-.419.271L450.606,101.7a11.42,11.42,0,0,1-1.045.529c-.1.047-.211.09-.318.135-.283.118-.575.23-.871.33-.107.034-.208.074-.316.108-.188.059-.382.112-.575.164-.145.041-.286.079-.435.118-.2.047-.4.088-.6.129-.142.029-.284.063-.428.086-.414.073-.834.129-1.26.176-.129.012-.264.022-.4.032q-.378.033-.751.051c-.159.007-.315.01-.472.014-.2,0-.411.005-.614,0q-.256-.005-.507-.015c-.186-.007-.375-.017-.563-.029s-.342-.029-.512-.044-.367-.039-.55-.061-.34-.046-.509-.071c-.189-.032-.379-.064-.572-.1-.156-.032-.313-.064-.47-.1-.232-.049-.457-.107-.682-.166-.13-.034-.257-.064-.384-.1-.406-.12-.805-.252-1.187-.4-.058-.022-.112-.051-.166-.073a11.42,11.42,0,0,1-1.5-.717L396.368,79.44c-2.187-1.263-3.281-2.924-3.278-4.578l-.034,13.56c-.007,1.657,1.087,3.317,3.273,4.582l38.554,22.257a11.806,11.806,0,0,0,1.5.719c.034.014.066.035.1.049s.046.014.063.02c.386.151.78.282,1.189.4.032.01.061.024.095.032.1.029.193.046.288.071.225.061.453.118.682.169.064.012.127.032.188.046.093.019.19.03.282.047.2.036.391.073.587.1.078.01.152.029.228.039s.173.017.259.029c.183.024.374.046.565.063.085.008.171.02.257.03s.167.007.247.014c.188.012.377.02.568.03.091,0,.184.012.276.014s.152,0,.227,0c.206,0,.409,0,.616,0,.1,0,.2,0,.3,0l.176-.012c.25-.012.5-.029.749-.051.1-.007.2-.008.3-.02.03,0,.064-.01.095-.012.423-.044.844-.1,1.26-.176a.45.45,0,0,0,.061-.01c.123-.02.244-.052.365-.076.2-.041.406-.081.606-.13.145-.036.289-.078.435-.117.193-.054.384-.1.575-.164l.12-.034c.068-.022.127-.051.195-.074.3-.1.59-.213.876-.331.1-.044.21-.088.311-.134a11.4,11.4,0,0,0,1.047-.529l37.008-21.508c.046-.025.09-.051.134-.079.1-.061.195-.129.288-.191.135-.086.271-.173.4-.262.11-.079.206-.166.31-.247.12-.1.237-.189.343-.284.019-.019.047-.035.064-.052.044-.041.071-.083.112-.122a6.6,6.6,0,0,0,.472-.507c.032-.037.078-.073.107-.113v-.017h0V91.9c.032-.039.052-.083.083-.122.088-.12.169-.245.245-.369.039-.059.085-.113.118-.173.015-.029.025-.058.041-.09.061-.112.11-.228.161-.342a2.141,2.141,0,0,0,.091-.2c.008-.02.012-.042.022-.064.041-.113.068-.227.1-.338.017-.074.046-.147.063-.22,0-.02,0-.041.005-.059.02-.122.029-.244.042-.365,0-.073.022-.14.022-.213a.925.925,0,0,0,0-.1l.039-13.562C490.838,75.8,490.816,75.907,490.807,76.022Z" transform="translate(-393.056 -46.966)"/><g transform="translate(0.036)"><path class="d" d="M487.547,82.509c4.352,2.512,4.365,6.577.052,9.085L450.592,113.1c-4.313,2.506-11.335,2.51-15.683,0L396.353,90.842c-4.348-2.51-4.369-6.582-.056-9.089L433.3,60.247c4.314-2.506,11.343-2.506,15.692,0Z" transform="translate(-393.077 -58.368)"/></g><g transform="translate(13.678 9.283)"><path class="c" d="M469.206,81.252c3.127,1.8,3.149,4.736.037,6.545l-26.658,15.492a12.462,12.462,0,0,1-11.306,0L403.5,87.254c-3.132-1.808-3.146-4.741-.034-6.55l26.656-15.492a12.448,12.448,0,0,1,11.3,0Z" transform="translate(-401.144 -63.856)"/></g><g transform="translate(21.252 18.76)"><path class="e" d="M459.262,82.86c2.464,1.392,2.483,3.65.027,5.043L438.282,99.835a10.031,10.031,0,0,1-8.911,0l-21.89-12.355c-2.468-1.392-2.481-3.653-.029-5.047L428.461,70.5a10.021,10.021,0,0,1,8.91,0Z" transform="translate(-405.622 -69.46)"/></g></g></g><g class="f" transform="translate(9108.689 3936.374)"><path class="g" d="M450.62,73.372c10.063,5.108,10.115,13.391.122,18.5s-26.253,5.109-36.313,0-10.114-13.393-.118-18.5S440.56,68.263,450.62,73.372Z" transform="translate(-379.864 0.555)"/><g class="h" transform="translate(20.238 52.571)"><path class="a" d="M458.133,63.715c12.7,6.046,12.771,15.852.151,21.9s-33.149,6.048-45.852,0-12.771-15.856-.149-21.9S445.43,57.667,458.133,63.715Z" transform="translate(-402.859 -59.179)"/></g><g class="i" transform="translate(13.492 35.048)"><path class="a" d="M465.644,54.058c15.346,6.987,15.429,18.316.181,25.3s-40.046,6.988-55.39,0-15.429-18.316-.181-25.3S450.3,47.071,465.644,54.058Z" transform="translate(-398.871 -48.817)"/></g><g class="j" transform="translate(6.746 17.524)"><path class="a" d="M473.155,44.4c17.99,7.925,18.085,20.777.211,28.706s-46.941,7.925-64.931,0-18.085-20.78-.211-28.706S455.167,36.474,473.155,44.4Z" transform="translate(-394.882 -38.456)"/></g><g class="k" transform="translate(0 0)"><path class="a" d="M480.668,34.744c20.632,8.866,20.742,23.24.242,32.107s-53.839,8.866-74.471,0S385.7,43.609,406.2,34.744,460.037,25.878,480.668,34.744Z" transform="translate(-390.893 -28.094)"/></g></g><g transform="translate(9125.895 3941.976)"><g transform="translate(0 0.006)"><g transform="translate(6.142)"><path class="c" d="M469.432,66.456c.9-14.7-17.53-43.633-49.089-32.589-18.058,6.32-22.274,16.5-3.093,30.527,0,0-.206,7.837,14.849,6.6,0,0,9.694-.411,16.241,4.538C455.273,80.772,469.026,73.094,469.432,66.456Z" transform="translate(-404.699 -31.411)"/></g><g transform="translate(12.009 2.613)"><path class="a" d="M409.054,40.411c.052-.051,5.021-5.089,11.8-5.382a63.948,63.948,0,0,1,7.284.288c5.6.419,12.4.646,17.963-1.691l-1.48-.67c-5.29,2.222-10.929,1.536-16.388,1.125a65.348,65.348,0,0,0-7.431-.288c-7.283.318-12.422,5.535-12.635,5.757Z" transform="translate(-408.168 -32.956)"/></g><g transform="translate(33.258 0.298)"><path class="a" d="M420.911,35.627l1.06-.174a2.263,2.263,0,0,1,.066-.675c.252-.426,2.334-1.931,7.751-2.792l-2-.4c-4.646.739-6.3,1.372-6.922,2.755A1.386,1.386,0,0,0,420.911,35.627Z" transform="translate(-420.732 -31.587)"/></g><g transform="translate(38.264 4.169)"><path class="a" d="M435.172,43.323l1.226-.885c-1.923-2.828-7.193-6.846-10.261-8.181-.634-.274-.225-.083-.876-.382l-1.569.653c.658.3,1.312.587,1.952.864A29.3,29.3,0,0,1,435.172,43.323Z" transform="translate(-423.692 -33.876)"/></g><g transform="translate(48.275 12.375)"><path class="a" d="M448.832,47.443l-.675-1.312a28.536,28.536,0,0,1-4.979-1.439,7.023,7.023,0,0,1-2.978-2.508,8.216,8.216,0,0,0-4.331-3.232,5.614,5.614,0,0,0-6.258,2.283l1.057.651a4.369,4.369,0,0,1,4.876-1.74,6.992,6.992,0,0,1,3.7,2.821,8.061,8.061,0,0,0,3.516,2.887A34.036,34.036,0,0,0,448.832,47.443Z" transform="translate(-429.611 -38.728)"/></g><g transform="translate(54.078 7.313)"><path class="a" d="M439.812,46.9c3.146-6.07-5.8-10.956-6.182-11.162l-.589,1.089c.085.046,8.258,4.511,5.669,9.5Z" transform="translate(-433.042 -35.735)"/></g><g transform="translate(54.12 19.102)"><path class="a" d="M444.459,66.191c.257-.233,5.684-4.773,3.262-9.667a17.314,17.314,0,0,0-3.815-4.852c-1.318-1.277-2.265-2.2-2.231-3.487.052-2.058-1.864-4.032-3.783-4.916-1.864-.857-3.623-.731-4.825.355l.829.92c1.16-1.049,2.819-.455,3.477-.151,1.752.807,3.1,2.459,3.065,3.76-.049,1.832,1.182,3.026,2.608,4.407a16.072,16.072,0,0,1,3.567,4.514c2.011,4.056-4.2,10.2-4.255,10.247Z" transform="translate(-433.067 -42.705)"/></g><g transform="translate(62.106 24.564)"><path class="a" d="M445.692,49.077l-.518-1.742c-3.071-2.54-7.161-.866-7.386-.778l.443,1.153C438.278,47.692,443.522,45.969,445.692,49.077Z" transform="translate(-437.789 -45.935)"/></g><g transform="translate(61.024 30.115)"><path class="a" d="M437.758,59.4c5.233-4.861,5.081-9.884,5.065-9.924l-1.3-.26h0l.14.7c.049.134-1.569,5.382-4.519,7.986Z" transform="translate(-437.149 -49.217)"/></g><path class="l" d="M448.337,73.792c-6.547-4.949-16.241-4.538-16.241-4.538-15.056,1.238-14.849-6.6-14.849-6.6-12.272-8.972-14.954-16.368-10.577-22.188a43.668,43.668,0,0,1,8.823-4.086c31.556-11.044,49.987,17.888,49.085,32.591a7.354,7.354,0,0,1-1.558,3.822C458.383,75.582,452.264,76.764,448.337,73.792Z" transform="translate(-398.553 -29.672)"/><g transform="translate(0 6.925)"><path class="a" d="M462.661,70.113c.9-14.7-13.819-42.283-49.089-32.589-7.4,2.033-22.274,16.5-3.095,30.526,0,0-.2,7.839,14.851,6.6a55.53,55.53,0,0,1,15.964,7.805C451.96,90.315,462.257,76.751,462.661,70.113Z" transform="translate(-401.067 -35.505)"/></g><g transform="translate(7.566 9.704)"><path class="d" d="M406.3,66.085l1.089.829c-.019-.032-1.285-3.682-.088-5.586.633-1,2.036-1.466,4.164-1.392l.9.034c5.015.193,8.324.32,9.963-1.625,1.077-1.28,1.263-3.261.59-6.427-1.214-5.75-.925-9.7.854-11.737,1.2-1.368,3.159-1.953,5.83-1.756,5.421.414,7.418,4.008,8.211,14.79.164,2.226,2.155,4.615,5.079,6.083,2.278,1.148,7.227,4,15.079-.978l-.416-1.186c-7.32,4.639-12.016,2.111-14.108,1.057-2.89-1.454-4.291-3.592-4.4-5.067-.731-9.928-2.439-15.409-9.351-15.935-3.076-.23-5.385.5-6.855,2.173-2.08,2.38-2.451,6.571-1.131,12.813.573,2.716.468,4.423-.33,5.371-1.248,1.48-4.489,1.36-8.97,1.184l-.9-.032c-2.593-.091-4.375.567-5.258,1.974C404.674,63.183,406.208,65.924,406.3,66.085Z" transform="translate(-405.541 -37.149)"/></g><g transform="translate(17.344 31.372)"><path class="d" d="M422.212,58.1l1.23-.118c-.82-8.58-12.008-8.022-12.12-8.01l.071,1.236C411.8,51.186,421.507,50.709,422.212,58.1Z" transform="translate(-411.322 -49.96)"/></g><g transform="translate(12.422 11.944)"><path class="d" d="M419.258,48.668l1.216-.244c-.024-.1-2.209-10.4-12.062-9.936l.061,1.236C417.3,39.28,419.18,48.286,419.258,48.668Z" transform="translate(-408.412 -38.473)"/></g><g transform="translate(10.469 13.617)"><path class="d" d="M408.444,45.557c1.4-4.761,7.115-4.857,7.176-4.859l-.014-1.236c-.064,0-6.7.112-8.35,5.747Z" transform="translate(-407.257 -39.462)"/></g><g transform="translate(39.103 24.674)"><path class="d" d="M433.666,63.406l.45-1.153c-11.983-4.675-8.23-15.374-8.064-15.827L424.89,46C424.845,46.122,420.569,58.3,433.666,63.406Z" transform="translate(-424.188 -46)"/></g><g transform="translate(39.684 35.439)"><path class="d" d="M426.736,62.445l.839-.912c-3.482-3.2-.81-8.553-.783-8.605l-1.1-.563C425.559,52.62,422.573,58.611,426.736,62.445Z" transform="translate(-424.531 -52.365)"/></g><g transform="translate(30.588 15.07)"><path class="d" d="M427.782,45.148l1.008-.715c-.041-.059-4.186-5.789-9.637-3.621l.457,1.15C424.166,40.152,427.746,45.1,427.782,45.148Z" transform="translate(-419.153 -40.321)"/></g><g transform="translate(44.153 35.199)"><path class="d" d="M429.638,69.367c5.634-.514,5.831-4.862,7.059-8.817a13.526,13.526,0,0,1,1.4-3.782,6.925,6.925,0,0,1,6.266-3.3l-.21-1.228A7.5,7.5,0,0,0,437,56.184a23.58,23.58,0,0,0-1.492,4c-1.229,3.976-3.531,8.57-8.338,9.009Z" transform="translate(-427.174 -52.223)"/></g><g transform="translate(44.602 24.273)"><path class="d" d="M427.461,52.87l1.235-.108c-.418-4.734,7.43-5.76,7.509-5.771l-.151-1.228C435.681,45.809,426.943,46.957,427.461,52.87Z" transform="translate(-427.439 -45.763)"/></g><g transform="translate(46.385 17.236)"><path class="d" d="M429.431,51.45l1.049-.649c-2.251-3.665,1.338-8.4,1.373-8.444l-.978-.754C430.7,41.82,426.73,47.065,429.431,51.45Z" transform="translate(-428.493 -41.602)"/></g><g transform="translate(3.606 19.255)"><path class="d" d="M410.508,55.8l1.116-.531c-1.142-2.4-1.806-2.865-4.005-4.4-.44-.3-.939-.653-1.525-1.072-3.054-2.188-.945-6.391-.922-6.435l-1.1-.565c-.918,1.789-1.827,5.764,1.3,8.008.594.423,1.1.775,1.541,1.082C409.059,53.377,409.507,53.688,410.508,55.8Z" transform="translate(-403.199 -42.796)"/></g><g transform="translate(0.001 24.473)"><path class="d" d="M404.224,49.761a6.567,6.567,0,0,0,3.339-1.084l-.705-1.02a4.833,4.833,0,0,1-3.274.8c-.781-.178-2.014-1.7-2.515-2.572l.115,1.94c.678,1.192,1,1.585,2.133,1.842A4.079,4.079,0,0,0,404.224,49.761Z" transform="translate(-401.068 -45.881)"/></g><g transform="translate(22.649 34.096)"><path class="d" d="M419.878,63.393c.141,0,.225-.095.345-.223.43-.45-.022-.888-.215-1.076l-.02.024c-.271-.237-.993-.885-2.931-2.667a3.486,3.486,0,0,1-1.351-2.829c.181-2.209,2.855-4,2.882-4.017l-.682-1.033c-.132.086-3.2,2.148-3.433,4.95a4.655,4.655,0,0,0,1.745,3.843c1.544,1.417,2.419,2.221,2.948,2.64.037.034.1.095.132.129l.02-.019A1.075,1.075,0,0,0,419.878,63.393Z" transform="translate(-414.459 -51.571)"/></g><g transform="translate(16.857 38.642)"><path class="d" d="M412.081,57.451a3.868,3.868,0,0,1,2.385-1.884,3.941,3.941,0,0,1,2.694.509l.678-1.035a5.157,5.157,0,0,0-3.636-.683,5.045,5.045,0,0,0-3.168,2.434Z" transform="translate(-411.034 -54.259)"/></g><g transform="translate(24.22 22.836)"><path class="d" d="M416.291,49.26c.027-.032,2.944-3.109,5.747-3.109h.032a3.409,3.409,0,0,1,2.594,1.23l.917-.83a4.644,4.644,0,0,0-3.5-1.637c-3.308.008-6.557,3.357-6.689,3.5Z" transform="translate(-415.388 -44.913)"/></g><g transform="translate(13.449 15.381)"><path class="d" d="M409.985,49.6c3.393-3.237.243-8.855.11-9.092l-1.076.612c.029.049,2.8,5.016.112,7.584Z" transform="translate(-409.019 -40.505)"/></g><g transform="translate(44.945 46.773)"><path class="d" d="M433.228,61.389l.868-.879a5.625,5.625,0,0,0-6.454-.768l.555,1.1A4.367,4.367,0,0,1,433.228,61.389Z" transform="translate(-427.642 -59.067)"/></g><g transform="translate(34.723 38.805)"><path class="d" d="M422.687,57.345c1.1-2.068,4.45-1.732,4.485-1.728l.137-1.23c-.173-.019-4.225-.433-5.711,2.378Z" transform="translate(-421.598 -54.355)"/></g></g><g class="m" transform="translate(49.193 39.602)"><path class="n" d="M430.154,59a4.176,4.176,0,1,0,4.174-4.176A4.178,4.178,0,0,0,430.154,59Z" transform="translate(-430.154 -54.823)"/><path class="o" d="M430.455,58.819a3.679,3.679,0,1,0,3.677-3.678A3.68,3.68,0,0,0,430.455,58.819Z" transform="translate(-429.946 -54.603)"/><path class="p" d="M430.755,58.643a3.184,3.184,0,1,0,3.181-3.185A3.185,3.185,0,0,0,430.755,58.643Z" transform="translate(-429.739 -54.384)"/><path class="q" d="M431.056,58.463a2.687,2.687,0,1,0,2.684-2.687A2.687,2.687,0,0,0,431.056,58.463Z" transform="translate(-429.53 -54.164)"/><path class="r" d="M431.356,58.285a2.192,2.192,0,1,0,2.189-2.192A2.19,2.19,0,0,0,431.356,58.285Z" transform="translate(-429.323 -53.945)"/><path class="s" d="M431.656,58.107a1.7,1.7,0,1,0,1.693-1.7A1.694,1.694,0,0,0,431.656,58.107Z" transform="translate(-429.116 -53.725)"/><path class="t" d="M431.957,57.928a1.2,1.2,0,1,0,1.2-1.2A1.2,1.2,0,0,0,431.957,57.928Z" transform="translate(-428.908 -53.505)"/></g><g class="m" transform="translate(3.776 22.911)"><path class="n" d="M403.3,49.13a4.175,4.175,0,1,0,4.174-4.176A4.177,4.177,0,0,0,403.3,49.13Z" transform="translate(-403.3 -44.954)"/><path class="o" d="M403.6,48.953a3.678,3.678,0,1,0,3.675-3.682A3.678,3.678,0,0,0,403.6,48.953Z" transform="translate(-403.092 -44.735)"/><path class="p" d="M403.9,48.774a3.185,3.185,0,1,0,3.181-3.185A3.185,3.185,0,0,0,403.9,48.774Z" transform="translate(-402.885 -44.515)"/><path class="q" d="M404.2,48.6a2.688,2.688,0,1,0,2.684-2.689A2.687,2.687,0,0,0,404.2,48.6Z" transform="translate(-402.677 -44.295)"/><path class="r" d="M404.5,48.417a2.192,2.192,0,1,0,2.188-2.192A2.189,2.189,0,0,0,404.5,48.417Z" transform="translate(-402.469 -44.075)"/><path class="s" d="M404.8,48.238a1.7,1.7,0,1,0,1.693-1.7A1.694,1.694,0,0,0,404.8,48.238Z" transform="translate(-402.262 -43.856)"/><path class="t" d="M405.1,48.061a1.2,1.2,0,1,0,1.2-1.2A1.2,1.2,0,0,0,405.1,48.061Z" transform="translate(-402.054 -43.636)"/></g><g class="m" transform="translate(20.307 20.304)"><path class="n" d="M413.074,47.588a4.177,4.177,0,1,0,4.177-4.176A4.179,4.179,0,0,0,413.074,47.588Z" transform="translate(-413.074 -43.412)"/><circle class="o" cx="3.68" cy="3.68" r="3.68" transform="translate(0.509 0.537)"/><path class="p" d="M413.676,47.232a3.184,3.184,0,1,0,3.183-3.185A3.185,3.185,0,0,0,413.676,47.232Z" transform="translate(-412.658 -42.973)"/><path class="q" d="M413.977,47.052a2.687,2.687,0,1,0,2.684-2.687A2.686,2.686,0,0,0,413.977,47.052Z" transform="translate(-412.45 -42.753)"/><path class="r" d="M414.277,46.875a2.192,2.192,0,1,0,2.19-2.192A2.192,2.192,0,0,0,414.277,46.875Z" transform="translate(-412.242 -42.533)"/><path class="s" d="M414.578,46.7a1.7,1.7,0,1,0,1.693-1.7A1.694,1.694,0,0,0,414.578,46.7Z" transform="translate(-412.034 -42.314)"/><path class="t" d="M414.879,46.517a1.2,1.2,0,1,0,1.2-1.2A1.2,1.2,0,0,0,414.879,46.517Z" transform="translate(-411.826 -42.094)"/></g><g class="m" transform="translate(41.49)"><path class="n" d="M425.6,35.583a4.175,4.175,0,1,0,4.172-4.176A4.176,4.176,0,0,0,425.6,35.583Z" transform="translate(-425.599 -31.407)"/><path class="o" d="M425.9,35.4a3.679,3.679,0,1,0,3.677-3.68A3.68,3.68,0,0,0,425.9,35.4Z" transform="translate(-425.392 -31.188)"/><path class="p" d="M426.2,35.227a3.185,3.185,0,1,0,3.181-3.185A3.184,3.184,0,0,0,426.2,35.227Z" transform="translate(-425.184 -30.968)"/><path class="q" d="M426.5,35.048a2.688,2.688,0,1,0,2.684-2.689A2.687,2.687,0,0,0,426.5,35.048Z" transform="translate(-424.976 -30.749)"/><path class="r" d="M426.8,34.869a2.192,2.192,0,1,0,2.189-2.192A2.191,2.191,0,0,0,426.8,34.869Z" transform="translate(-424.768 -30.529)"/><path class="s" d="M427.1,34.691a1.7,1.7,0,1,0,1.693-1.7A1.694,1.694,0,0,0,427.1,34.691Z" transform="translate(-424.561 -30.309)"/><path class="t" d="M427.4,34.512a1.2,1.2,0,1,0,1.2-1.2A1.2,1.2,0,0,0,427.4,34.512Z" transform="translate(-424.353 -30.089)"/></g><g class="m" transform="translate(57.459 11.769)"><path class="n" d="M435.041,42.54a4.175,4.175,0,1,0,4.174-4.174A4.177,4.177,0,0,0,435.041,42.54Z" transform="translate(-435.041 -38.366)"/><path class="o" d="M435.342,42.363a3.678,3.678,0,1,0,3.677-3.68A3.679,3.679,0,0,0,435.342,42.363Z" transform="translate(-434.833 -38.147)"/><path class="p" d="M435.643,42.184A3.183,3.183,0,1,0,438.823,39,3.182,3.182,0,0,0,435.643,42.184Z" transform="translate(-434.625 -37.927)"/><path class="q" d="M435.942,42.007a2.688,2.688,0,1,0,2.686-2.689A2.687,2.687,0,0,0,435.942,42.007Z" transform="translate(-434.418 -37.708)"/><path class="r" d="M436.243,41.828a2.192,2.192,0,1,0,2.188-2.192A2.189,2.189,0,0,0,436.243,41.828Z" transform="translate(-434.21 -37.488)"/><path class="s" d="M436.544,41.65a1.7,1.7,0,1,0,1.693-1.7A1.692,1.692,0,0,0,436.544,41.65Z" transform="translate(-434.002 -37.268)"/><path class="t" d="M436.845,41.472a1.2,1.2,0,1,0,1.2-1.2A1.2,1.2,0,0,0,436.845,41.472Z" transform="translate(-433.794 -37.049)"/></g></g><g transform="translate(9080 3971.441)"><g transform="translate(0.204 18.642)"><g transform="translate(0 28.28)"><path class="u" d="M374.919,77.9a2.069,2.069,0,0,0-.012,3.361c1.141.927,2.007,1.466,3.168.529s2.606-3.907,1.465-4.834S376.07,76.971,374.919,77.9Z" transform="translate(-374.051 -76.572)"/></g><g class="h" transform="translate(0 23.585)"><path class="v" d="M374.919,75a2.067,2.067,0,0,0-.012,3.359c1.141.927,2.173,1.378,3.332.441s2.366-3.662,1.224-4.588S376.07,74.07,374.919,75Z" transform="translate(-374.051 -73.796)"/></g><g class="i" transform="translate(0 18.884)"><path class="w" d="M374.919,72.1a2.067,2.067,0,0,0-.012,3.359c1.141.927,2.339,1.29,3.5.353s2.122-3.416.981-4.343S376.07,71.175,374.919,72.1Z" transform="translate(-374.051 -71.016)"/></g><g class="j" transform="translate(0 14.176)"><path class="x" d="M374.919,69.207a2.067,2.067,0,0,0-.012,3.359,2.765,2.765,0,0,0,3.665.266c1.15-.927,1.882-3.169.741-4.1S376.07,68.28,374.919,69.207Z" transform="translate(-374.051 -68.233)"/></g><g class="k" transform="translate(0 9.46)"><path class="y" d="M374.919,66.316a2.067,2.067,0,0,0-.012,3.359,2.978,2.978,0,0,0,3.831.178c1.152-.927,1.64-2.924.5-3.851S376.07,65.39,374.919,66.316Z" transform="translate(-374.051 -65.444)"/></g><g class="z" transform="translate(0 4.735)"><path class="aa" d="M374.919,63.429a2.069,2.069,0,0,0-.012,3.361,3.209,3.209,0,0,0,4,.088,2.332,2.332,0,0,0,.257-3.606A3.589,3.589,0,0,0,374.919,63.429Z" transform="translate(-374.051 -62.651)"/></g><g class="ab"><path class="ac" d="M374.919,60.546a2.067,2.067,0,0,0-.012,3.359,3.448,3.448,0,0,0,4.164,0,2.071,2.071,0,0,0,.013-3.359A3.468,3.468,0,0,0,374.919,60.546Z" transform="translate(-374.051 -59.851)"/></g></g><path class="a" d="M377.069,49.261c1.735-1,3.151-.2,3.156,1.8a6.917,6.917,0,0,1-3.137,5.436c-1.74,1.006-3.152.2-3.158-1.8A6.9,6.9,0,0,1,377.069,49.261Z" transform="translate(-373.93 -48.829)"/><g transform="translate(0 45.99)"><path class="a" d="M377.069,76.452c1.735-1,3.151-.2,3.156,1.8a6.92,6.92,0,0,1-3.137,5.436c-1.74,1-3.152.2-3.158-1.8A6.9,6.9,0,0,1,377.069,76.452Z" transform="translate(-373.93 -76.021)"/></g><path class="ad" d="M376.649,96.124V54.145l.005,0a3.82,3.82,0,0,0,1.735-3.009c0-1.106-.785-1.551-1.745-1a3.824,3.824,0,0,0-1.737,3.009c0,1.006.653,1.458,1.5,1.113V96.294a3.853,3.853,0,0,0-1.5,2.84c0,1.106.785,1.553,1.747,1a3.817,3.817,0,0,0,1.735-3.007C378.388,96.017,377.608,95.574,376.649,96.124Z" transform="translate(-373.255 -48.089)"/></g><g transform="translate(9096.795 4016.9)"><g transform="translate(0.205 18.642)"><g transform="translate(0 28.28)"><path class="u" d="M384.85,104.775a2.068,2.068,0,0,0-.013,3.361c1.143.927,2.009,1.466,3.168.529s2.606-3.907,1.465-4.834S386,103.848,384.85,104.775Z" transform="translate(-383.981 -103.451)"/></g><g class="h" transform="translate(0 23.585)"><path class="v" d="M384.85,101.877a2.066,2.066,0,0,0-.013,3.359c1.143.927,2.173,1.378,3.334.441s2.364-3.662,1.223-4.588S386,100.95,384.85,101.877Z" transform="translate(-383.981 -100.675)"/></g><g class="i" transform="translate(0 18.884)"><path class="w" d="M384.85,98.98a2.066,2.066,0,0,0-.013,3.359c1.143.927,2.341,1.29,3.5.353s2.121-3.416.981-4.343S386,98.054,384.85,98.98Z" transform="translate(-383.981 -97.896)"/></g><g class="j" transform="translate(0 14.176)"><path class="x" d="M384.85,96.086a2.066,2.066,0,0,0-.013,3.359,2.765,2.765,0,0,0,3.665.266c1.152-.927,1.884-3.169.741-4.1S386,95.159,384.85,96.086Z" transform="translate(-383.981 -95.112)"/></g><g class="k" transform="translate(0 9.46)"><path class="y" d="M384.85,93.2a2.066,2.066,0,0,0-.013,3.359,2.983,2.983,0,0,0,3.832.178c1.15-.927,1.641-2.924.5-3.851S386,92.269,384.85,93.2Z" transform="translate(-383.981 -92.323)"/></g><g class="z" transform="translate(0 4.735)"><path class="aa" d="M384.85,90.308a2.068,2.068,0,0,0-.013,3.361,3.212,3.212,0,0,0,4,.088,2.333,2.333,0,0,0,.257-3.606A3.589,3.589,0,0,0,384.85,90.308Z" transform="translate(-383.981 -89.53)"/></g><g class="ab"><path class="ac" d="M384.85,87.425a2.066,2.066,0,0,0-.013,3.359,3.445,3.445,0,0,0,4.164,0,2.071,2.071,0,0,0,.015-3.359A3.468,3.468,0,0,0,384.85,87.425Z" transform="translate(-383.981 -86.73)"/></g></g><path class="a" d="M387,76.14c1.737-1,3.151-.2,3.158,1.8a6.914,6.914,0,0,1-3.139,5.436c-1.74,1.006-3.152.2-3.158-1.8A6.9,6.9,0,0,1,387,76.14Z" transform="translate(-383.86 -75.708)"/><g transform="translate(0 45.99)"><path class="a" d="M387,103.331c1.737-1,3.151-.2,3.158,1.8a6.923,6.923,0,0,1-3.139,5.437c-1.74,1-3.152.195-3.158-1.8A6.9,6.9,0,0,1,387,103.331Z" transform="translate(-383.86 -102.9)"/></g><path class="ad" d="M386.581,123V81.024l0,0a3.82,3.82,0,0,0,1.735-3.009c0-1.108-.785-1.551-1.745-1a3.824,3.824,0,0,0-1.737,3.009c0,1.006.653,1.458,1.5,1.113v42.036a3.849,3.849,0,0,0-1.5,2.84c0,1.106.786,1.553,1.747,1A3.817,3.817,0,0,0,388.319,124C388.318,122.9,387.538,122.453,386.581,123Z" transform="translate(-383.185 -74.969)"/></g><g transform="translate(9215.617 3990.106)"><g transform="translate(7.191 76.838)"><path class="n" d="M464.256,108.674c-7.849,4.555-7.819,11.834-.09,16.329s20.341,4.561,28.2,0c7.792-4.5,7.834-11.822.091-16.329C484.7,104.172,472.048,104.172,464.256,108.674Z" transform="translate(-458.369 -105.298)"/></g><g class="h" transform="translate(5.992 64.033)"><path class="ae" d="M463.9,101.307c-8.321,4.823-8.291,12.542-.095,17.31s21.564,4.832,29.895,0c8.26-4.768,8.306-12.534.1-17.31C485.574,96.532,472.16,96.532,463.9,101.307Z" transform="translate(-457.661 -97.726)"/></g><g class="i" transform="translate(4.794 51.227)"><path class="af" d="M463.548,93.938c-8.795,5.094-8.761,13.253-.1,18.293,8.674,5.047,22.786,5.1,31.591,0,8.729-5.04,8.776-13.246.1-18.293C486.448,88.892,472.277,88.892,463.548,93.938Z" transform="translate(-456.952 -90.154)"/></g><g class="j" transform="translate(3.595 38.419)"><path class="ag" d="M463.192,86.571c-9.265,5.363-9.231,13.963-.1,19.274s24.007,5.371,33.286,0c9.2-5.311,9.246-13.958.108-19.274C487.321,81.251,472.389,81.251,463.192,86.571Z" transform="translate(-456.243 -82.581)"/></g><g class="k" transform="translate(2.397 25.613)"><path class="ah" d="M462.838,79.2c-9.737,5.634-9.7,14.673-.11,20.258s25.23,5.639,34.98,0c9.665-5.585,9.718-14.672.113-20.258C488.2,73.612,472.5,73.612,462.838,79.2Z" transform="translate(-455.535 -75.009)"/></g><g class="z" transform="translate(1.198 12.806)"><path class="ai" d="M462.484,71.834c-10.21,5.9-10.171,15.382-.117,21.239,10.07,5.86,26.453,5.908,36.677,0,10.134-5.857,10.188-15.385.12-21.239C489.069,65.971,472.618,65.971,462.484,71.834Z" transform="translate(-454.826 -67.437)"/></g><g class="ab" transform="translate(0 0)"><path class="aj" d="M462.13,64.465c-10.682,6.173-10.643,16.092-.122,22.221s27.674,6.178,38.371,0c10.6-6.129,10.658-16.1.125-22.221C489.944,58.331,472.73,58.331,462.13,64.465Z" transform="translate(-454.118 -59.865)"/></g></g><g transform="translate(9208.669 4016.251)"><path class="a" d="M450.821,105.659l-.813-1.483,14.554-7.96.211-20.892,1.691.017-.221,21.883Z" transform="translate(-450.009 -75.324)"/></g><g transform="translate(9214.7 4002.155)"><g transform="translate(4.783 3.338)"><g class="j"><path class="ad" d="M461.174,69.619a10.488,10.488,0,0,0-4.771,8.26c.01,3.034,2.155,4.257,4.8,2.728a10.483,10.483,0,0,0,4.764-8.248C465.959,69.317,463.812,68.094,461.174,69.619Z" transform="translate(-456.403 -68.963)"/></g><g class="j" transform="translate(1.115 1.835)"><path class="ad" d="M460.722,70.552a8.046,8.046,0,0,0-3.66,6.335c.007,2.327,1.651,3.264,3.682,2.092a8.047,8.047,0,0,0,3.653-6.327C464.39,70.319,462.746,69.382,460.722,70.552Z" transform="translate(-457.062 -70.048)"/></g><g class="j" transform="translate(2.29 3.348)"><path class="ad" d="M460.243,71.285a5.466,5.466,0,0,0-2.486,4.3c.005,1.583,1.123,2.219,2.5,1.422a5.47,5.47,0,0,0,2.483-4.3C462.738,71.126,461.62,70.49,460.243,71.285Z" transform="translate(-457.757 -70.943)"/></g></g><g class="f"><path class="n" d="M453.575,76.771a9.782,9.782,0,1,0,9.781-9.782A9.781,9.781,0,0,0,453.575,76.771Z" transform="translate(-453.575 -66.989)"/><path class="ak" d="M454.279,76.353a8.621,8.621,0,1,0,8.619-8.62A8.62,8.62,0,0,0,454.279,76.353Z" transform="translate(-453.089 -66.475)"/><path class="al" d="M454.984,75.935a7.459,7.459,0,1,0,7.455-7.458A7.456,7.456,0,0,0,454.984,75.935Z" transform="translate(-452.601 -65.96)"/><path class="am" d="M455.688,75.518a6.3,6.3,0,1,0,6.29-6.3A6.294,6.294,0,0,0,455.688,75.518Z" transform="translate(-452.114 -65.446)"/><path class="an" d="M456.393,75.1a5.136,5.136,0,1,0,5.126-5.136A5.13,5.13,0,0,0,456.393,75.1Z" transform="translate(-451.627 -64.932)"/><path class="ao" d="M457.1,74.683a3.974,3.974,0,1,0,3.961-3.974A3.965,3.965,0,0,0,457.1,74.683Z" transform="translate(-451.14 -64.418)"/><path class="a" d="M457.8,74.265a2.813,2.813,0,1,0,2.8-2.811A2.8,2.8,0,0,0,457.8,74.265Z" transform="translate(-450.653 -63.903)"/></g></g><g transform="translate(9219.843 4001.352)"><g transform="translate(4.638 10.583)"><path class="ap" d="M465.928,75.326a16.009,16.009,0,0,0-2.173-1.942c-.479-.2-2.5-1.1-4.079-.255-.863.457.184.917,1.578,1.265a2.054,2.054,0,0,1,1.7,1.071,7.226,7.226,0,0,0,1.811,1.837C465.258,77.631,465.928,75.326,465.928,75.326Z" transform="translate(-459.356 -72.772)"/><path class="aq" d="M464.665,77.014a8.562,8.562,0,0,0-2.055-1.427c-.915-.272-.726-1.279-1.355-1.434-1.082-.271-1.969-.641-1.892-.984.807.267,1.573-.614,3.354.7a13.792,13.792,0,0,1,2.437,2.725C464.9,76.987,464.856,77.142,464.665,77.014Z" transform="translate(-459.358 -72.53)"/><path class="ap" d="M464.622,75.98s-2.647-.671-3.416-1-1.179-.863-.988-.937,2.527.749,2.584-.132C462.828,73.443,464.262,75.8,464.622,75.98Z" transform="translate(-458.796 -72.026)"/><path class="ar" d="M482.439,73.993s1.7,2.506-1.955,4.034-10.8,3.54-12.622,2.635a40.9,40.9,0,0,1-5.579-4.26s1.847-.661,1.456-2.28L469.9,77.1S481.3,72.212,482.439,73.993Z" transform="translate(-457.337 -72.198)"/></g><path class="ar" d="M469.7,76.664s9.89-5.794,12.011-2.846c0,0,1.945,2.447-.651,8.57s-3.574,12.018-1.778,16.62c0,0-11.94,1.583-13.258-2.038-.984-2.7,2.309-10.036.611-11.475-1.586-1.345-1.109-4.744,1.089-6.3S469.7,76.664,469.7,76.664Z" transform="translate(-450.337 -62.044)"/><g transform="translate(19.578)"><path class="as" d="M468.391,70.279c-.594,7.076,2.2,5.881,2.55,7.345.052.206.034.188-.232,1.7-.069,1.04,4.737.863,4.629-.619-.041-.5-.176-2.219-.176-2.219a25.747,25.747,0,0,1,.027-3.746c.572-2.784-1.2-3-2.679-4.318S468.633,67.434,468.391,70.279Z" transform="translate(-468.112 -65.713)"/><path class="at" d="M478.691,70.889a1.033,1.033,0,0,0-.036-.178c-.188-1.049-.962-2.148-2.586-3.3a5.764,5.764,0,0,0-6.637.347,2.8,2.8,0,0,0-.932.945,5.759,5.759,0,0,0-.308,1.7,4.877,4.877,0,0,0,.453,2.182,2.618,2.618,0,0,0,1.2,1.194.639.639,0,0,1,.191-.276c.337-.264.9-.054,1.252.668.318.636.04,2.248.423,2.584a3.05,3.05,0,0,0,3.981.335C475.848,76.972,479.388,73.779,478.691,70.889Z" transform="translate(-468.192 -66.514)"/><path class="au" d="M476.839,67.494c0-.225-.908,0-1.137.232-1.361,2.041-2.953,2.95-5.223,2.493a4.159,4.159,0,0,1-2.18-1.38,8.341,8.341,0,0,0-.106.947,4.877,4.877,0,0,0,.453,2.182,2.618,2.618,0,0,0,1.2,1.194.639.639,0,0,1,.191-.276c.337-.264.9-.054,1.252.668.318.636.04,2.248.423,2.584a3.05,3.05,0,0,0,3.981.335,11.858,11.858,0,0,0,1.972-2.287A14.131,14.131,0,0,0,476.839,67.494Z" transform="translate(-468.192 -65.902)"/><path class="at" d="M473.95,79.176c0-3.863,1.365-7.722-.457-11.352-.1-.11-.215-.369-.392-.565a.65.65,0,0,0-.641.472c-.357,1.133.885,2.085.9,3.078.007.337.093.661.117,1a10.934,10.934,0,0,1-.11,1.659,8.412,8.412,0,0,1-.9,3.423,5.81,5.81,0,0,0-.35,3.332,6.3,6.3,0,0,0,1.505,3.917,5.827,5.827,0,0,0,2.657,1.869,2.425,2.425,0,0,0,.891-.015A8.994,8.994,0,0,1,473.95,79.176Z" transform="translate(-465.531 -66)"/><path class="au" d="M477.864,77.833a16.517,16.517,0,0,0-.638-4.845,10.561,10.561,0,0,0-2.351-4.614,3.629,3.629,0,0,0-2.207-1.115c.178.2.288.455.392.565,1.821,3.629.457,7.489.457,11.352a8.995,8.995,0,0,0,3.223,6.816c.391-.069.77-.2,1.16-.277C478.554,85.579,477.838,79,477.864,77.833Z" transform="translate(-465.098 -66)"/></g><g transform="translate(0 14.781)"><g transform="translate(0 4.72)"><path class="ap" d="M460.849,82.736s-1.952-.23-2.564-1.128a9.472,9.472,0,0,1-1.622-2.649c-.144-.793.034-1.057.638-.844a10.88,10.88,0,0,1,2.938,2.253,2.348,2.348,0,0,0,1.258.9C461.781,81.407,461.913,82.42,460.849,82.736Z" transform="translate(-456.616 -78.045)"/><g transform="translate(0.455 0.008)"><path class="aq" d="M461.311,81.263a2.348,2.348,0,0,1-1.258-.9,10.881,10.881,0,0,0-2.938-2.253.856.856,0,0,0-.23-.063c.445.555,1.2,1.505,1.882,2.315a5.951,5.951,0,0,0,2.706,1.625A.668.668,0,0,0,461.311,81.263Z" transform="translate(-456.885 -78.05)"/></g></g><g transform="translate(4.219)"><path class="av" d="M475.119,75.733c-.727-.605-2.292-1-3.626,1.135s-4.4,7.157-4.4,7.157l-7.846-1.106a1.365,1.365,0,0,1-.132,1.957s7.125,4.073,9.25,3.311S478.106,78.222,475.119,75.733Z" transform="translate(-459.111 -75.254)"/></g></g><g class="b" transform="translate(7.534 68.14)"><path d="M465.414,109.3c-5.766,3.327-5.794,8.717-.066,12.047s15.039,3.33,20.8,0,5.8-8.72.069-12.047S471.178,105.97,465.414,109.3Z" transform="translate(-461.071 -106.804)"/></g><g transform="translate(18.415 33.604)"><path class="aw" d="M475.656,86.384s3.518,2.835,1.569,9.441-2.457,6.342-1.864,8.412c.447,1.558,2.052,4.763,1.893,7.535-.129,2.2-.489,3.462-.971,7-.614,4.492-.479,3.54.113,5.431.666,2.128-3.152,3.993-4.37,3.815s1.476-1.15,1.287-4.876-2.239-14.531-3.273-16.886-2.794-14.624-2.5-18.374A9.12,9.12,0,0,0,475.656,86.384Z" transform="translate(-467.504 -86.384)"/><path class="ax" d="M470.186,111.818l-.03-.01Z" transform="translate(-465.671 -68.809)"/><path class="ay" d="M472.252,109.75l.538,3.83.241.542-.33-4.364Z" transform="translate(-464.222 -70.232)"/><path class="ax" d="M474.926,108.273c-.516.025-.962.7-1.8,2.373-.343.692-1.4,2.459-2.385,1.838-.118-.074.208-.519.208-.519s-1.539-.326-1.7.135,1.008,2.554,2.579,2.339,1.881-1.945,2.217-2.6c.68-1.324.509,1.4,1.473-1.243A2.179,2.179,0,0,0,474.926,108.273Z" transform="translate(-466.308 -71.253)"/><path class="ay" d="M471.173,113.415a1.7,1.7,0,0,1-.989-.169c.35.2,1.3-.468,1.938-1.671a4.69,4.69,0,0,1,2.009-1.82l.281.288c-.218.643-.225-.492-1.022.776C472.995,111.439,472.743,113.2,471.173,113.415Z" transform="translate(-465.652 -70.229)"/><path class="ax" d="M473.518,109.515l-.406,5.581-.885-.436-.139-5.723Z" transform="translate(-464.336 -70.794)"/><path class="ay" d="M472.757,115.554l.606-.441s.343-4.874-.172-5.965c-.447-.944-.59-.874-.59-.874Z" transform="translate(-463.982 -71.254)"/></g><g transform="translate(15.177 35.431)"><path class="az" d="M473.475,87.878s3.029,3.895.742,10.394-2.777,6.209-2.288,8.307c.367,1.576,1.806,4.862,1.505,7.623-.237,2.183-.66,3.43-1.324,6.939-.842,4.451-.66,3.513-.164,5.427.561,2.161-3.357,3.831-4.56,3.591s1.534-1.074,1.534-4.8-1.5-14.623-2.4-17.031-1.167-17.127-.685-20.86A6.125,6.125,0,0,0,473.475,87.878Z" transform="translate(-465.59 -87.464)"/><path class="ax" d="M466.619,113.527l-.029-.014Z" transform="translate(-464.899 -69.457)"/><path class="ay" d="M468.785,111.565l.347,3.855.211.548-.1-4.373Z" transform="translate(-463.382 -70.804)"/><path class="ax" d="M471.616,110.106c-.516,0-1,.648-1.92,2.28-.382.673-1.522,2.385-2.478,1.712-.115-.079.235-.506.235-.506s-1.522-.4-1.7.049.873,2.6,2.454,2.468,1.979-1.843,2.346-2.481c.746-1.287.436,1.424,1.536-1.162A2.188,2.188,0,0,0,471.616,110.106Z" transform="translate(-465.492 -71.813)"/><path class="ay" d="M467.595,115.087a1.722,1.722,0,0,1-.978-.216c.337.213,1.324-.4,2.018-1.573a4.7,4.7,0,0,1,2.106-1.715l.264.3c-.255.631-.2-.5-1.064.722C469.518,113.2,469.174,114.954,467.595,115.087Z" transform="translate(-464.88 -70.792)"/><path class="ax" d="M470.123,111.4l-.684,5.549-.865-.479.152-5.721Z" transform="translate(-463.527 -71.371)"/><path class="ay" d="M469.086,117.387l.621-.409s.592-4.852.132-5.965c-.4-.966-.541-.907-.541-.907Z" transform="translate(-463.174 -71.813)"/></g><path class="av" d="M478.814,85.33s-8.017,6.1-12.754,1.082a88.064,88.064,0,0,0-1.087,17.214c.3,7.761,1.084,9.146,1.084,9.146s9.87,1.806,13.659-3.337c0,0-1.926-4.066-.78-7.5S483.049,92.142,478.814,85.33Z" transform="translate(-450.88 -53.508)"/><path class="ba" d="M466.057,113.1s-.78-1.385-1.084-9.146a88.064,88.064,0,0,1,1.087-17.214c4.737,5.016,12.862-1.886,12.862-1.886.391.306.614,2.344.9,2.711-.693,1.375-3.587,1.7-5.373,2.3-2.99,1-6.088,5.426-5.759,10.185.238,3.421,1.081,9.958,1.534,13.358A24.386,24.386,0,0,1,466.057,113.1Z" transform="translate(-450.88 -53.836)"/></g><g transform="translate(9239.765 4086.413)"><g transform="translate(2.856 4.315)"><path class="e" d="M475.077,119.859a1.267,1.267,0,0,1,.012,2.4,4.572,4.572,0,0,1-4.142,0c-1.013-.587-1.135-1.493-.362-2.153a2.158,2.158,0,0,1,.347-.244,2.806,2.806,0,0,1,.425-.2A4.631,4.631,0,0,1,475.077,119.859Z" transform="translate(-470.084 -119.36)"/></g><g class="f" transform="translate(0)"><path class="n" d="M468.4,122.593a5.783,5.783,0,1,0,5.781-5.784A5.785,5.785,0,0,0,468.4,122.593Z" transform="translate(-468.395 -116.809)"/><path class="ak" d="M468.811,122.347a5.1,5.1,0,1,0,5.094-5.1A5.1,5.1,0,0,0,468.811,122.347Z" transform="translate(-468.107 -116.506)"/><path class="bb" d="M469.228,122.1a4.41,4.41,0,1,0,4.407-4.409A4.409,4.409,0,0,0,469.228,122.1Z" transform="translate(-467.819 -116.201)"/><path class="bc" d="M469.644,121.852a3.724,3.724,0,1,0,3.721-3.724A3.723,3.723,0,0,0,469.644,121.852Z" transform="translate(-467.532 -115.897)"/><path class="bd" d="M470.061,121.606a3.036,3.036,0,1,0,3.032-3.037A3.034,3.034,0,0,0,470.061,121.606Z" transform="translate(-467.243 -115.593)"/><path class="be" d="M470.477,121.359a2.35,2.35,0,1,0,2.346-2.351A2.349,2.349,0,0,0,470.477,121.359Z" transform="translate(-466.956 -115.289)"/><path class="e" d="M470.894,121.111a1.662,1.662,0,1,0,1.659-1.663A1.661,1.661,0,0,0,470.894,121.111Z" transform="translate(-466.668 -114.985)"/></g></g><g transform="translate(9238.324 4098.928)"><g transform="translate(2.856 4.315)"><path class="e" d="M475.077,119.859a1.267,1.267,0,0,1,.012,2.4,4.572,4.572,0,0,1-4.142,0c-1.013-.587-1.135-1.493-.362-2.153a2.158,2.158,0,0,1,.347-.244,2.806,2.806,0,0,1,.425-.2A4.631,4.631,0,0,1,475.077,119.859Z" transform="translate(-470.084 -119.36)"/></g><g class="f"><path class="n" d="M468.4,122.593a5.783,5.783,0,1,0,5.781-5.784A5.785,5.785,0,0,0,468.4,122.593Z" transform="translate(-468.395 -116.809)"/><path class="ak" d="M468.811,122.347a5.1,5.1,0,1,0,5.094-5.1A5.1,5.1,0,0,0,468.811,122.347Z" transform="translate(-468.107 -116.506)"/><path class="bb" d="M469.228,122.1a4.41,4.41,0,1,0,4.407-4.409A4.409,4.409,0,0,0,469.228,122.1Z" transform="translate(-467.819 -116.201)"/><path class="bc" d="M469.644,121.852a3.724,3.724,0,1,0,3.721-3.724A3.723,3.723,0,0,0,469.644,121.852Z" transform="translate(-467.532 -115.897)"/><path class="bd" d="M470.061,121.606a3.036,3.036,0,1,0,3.032-3.037A3.034,3.034,0,0,0,470.061,121.606Z" transform="translate(-467.243 -115.593)"/><path class="be" d="M470.477,121.359a2.35,2.35,0,1,0,2.346-2.351A2.349,2.349,0,0,0,470.477,121.359Z" transform="translate(-466.956 -115.289)"/><path class="e" d="M470.894,121.111a1.662,1.662,0,1,0,1.659-1.663A1.661,1.661,0,0,0,470.894,121.111Z" transform="translate(-466.668 -114.985)"/></g></g><g transform="translate(9202.066 4127.934)"><g transform="translate(2.856 4.315)"><path class="e" d="M475.077,119.859a1.267,1.267,0,0,1,.012,2.4,4.572,4.572,0,0,1-4.142,0c-1.013-.587-1.135-1.493-.362-2.153a2.158,2.158,0,0,1,.347-.244,2.806,2.806,0,0,1,.425-.2A4.631,4.631,0,0,1,475.077,119.859Z" transform="translate(-470.084 -119.36)"/></g><g class="f" transform="translate(0 0)"><path class="n" d="M468.4,122.593a5.783,5.783,0,1,0,5.781-5.784A5.785,5.785,0,0,0,468.4,122.593Z" transform="translate(-468.395 -116.809)"/><path class="ak" d="M468.811,122.347a5.1,5.1,0,1,0,5.094-5.1A5.1,5.1,0,0,0,468.811,122.347Z" transform="translate(-468.107 -116.506)"/><path class="bb" d="M469.228,122.1a4.41,4.41,0,1,0,4.407-4.409A4.409,4.409,0,0,0,469.228,122.1Z" transform="translate(-467.819 -116.201)"/><path class="bc" d="M469.644,121.852a3.724,3.724,0,1,0,3.721-3.724A3.723,3.723,0,0,0,469.644,121.852Z" transform="translate(-467.532 -115.897)"/><path class="bd" d="M470.061,121.606a3.036,3.036,0,1,0,3.032-3.037A3.034,3.034,0,0,0,470.061,121.606Z" transform="translate(-467.243 -115.593)"/><path class="be" d="M470.477,121.359a2.35,2.35,0,1,0,2.346-2.351A2.349,2.349,0,0,0,470.477,121.359Z" transform="translate(-466.956 -115.289)"/><path class="e" d="M470.894,121.111a1.662,1.662,0,1,0,1.659-1.663A1.661,1.661,0,0,0,470.894,121.111Z" transform="translate(-466.668 -114.985)"/></g></g><g transform="translate(9163.995 4119.474)"><g transform="translate(2.856 4.315)"><path class="e" d="M475.077,119.859a1.267,1.267,0,0,1,.012,2.4,4.572,4.572,0,0,1-4.142,0c-1.013-.587-1.135-1.493-.362-2.153a2.158,2.158,0,0,1,.347-.244,2.806,2.806,0,0,1,.425-.2A4.631,4.631,0,0,1,475.077,119.859Z" transform="translate(-470.084 -119.36)"/></g><g class="f" transform="translate(0 0)"><path class="n" d="M468.4,122.593a5.783,5.783,0,1,0,5.781-5.784A5.785,5.785,0,0,0,468.4,122.593Z" transform="translate(-468.395 -116.809)"/><path class="ak" d="M468.811,122.347a5.1,5.1,0,1,0,5.094-5.1A5.1,5.1,0,0,0,468.811,122.347Z" transform="translate(-468.107 -116.506)"/><path class="bb" d="M469.228,122.1a4.41,4.41,0,1,0,4.407-4.409A4.409,4.409,0,0,0,469.228,122.1Z" transform="translate(-467.819 -116.201)"/><path class="bc" d="M469.644,121.852a3.724,3.724,0,1,0,3.721-3.724A3.723,3.723,0,0,0,469.644,121.852Z" transform="translate(-467.532 -115.897)"/><path class="bd" d="M470.061,121.606a3.036,3.036,0,1,0,3.032-3.037A3.034,3.034,0,0,0,470.061,121.606Z" transform="translate(-467.243 -115.593)"/><path class="be" d="M470.477,121.359a2.35,2.35,0,1,0,2.346-2.351A2.349,2.349,0,0,0,470.477,121.359Z" transform="translate(-466.956 -115.289)"/><path class="e" d="M470.894,121.111a1.662,1.662,0,1,0,1.659-1.663A1.661,1.661,0,0,0,470.894,121.111Z" transform="translate(-466.668 -114.985)"/></g></g></g><rect class="bf" width="220" height="220" transform="translate(8978 3944)"/></g></svg>