<svg xmlns="http://www.w3.org/2000/svg" xmlns:xlink="http://www.w3.org/1999/xlink" width="220" height="220" viewBox="0 0 220 220"><defs><style>.a{fill:#ccf7ef;}.b{fill:#00d8ae;}.c,.e{fill:#76f3de;}.c{opacity:0.3;mix-blend-mode:screen;}.c,.u{isolation:isolate;}.d{fill:#06bc99;}.f{fill:#80b4d6;}.g{fill:#9dc8eb;}.h{fill:#28225e;}.i,.u{fill:#b7b7b7;}.j{fill:#ffb591;}.k{fill:#37007f;}.l{fill:#460689;}.m{fill:#5d0ca6;}.n{fill:#efb185;}.o{fill:#de9460;}.p{fill:#88a2ca;}.q{fill:#c0c8ce;}.r{fill:#dde3e8;}.s{fill:#fff;}.t{fill:url(#a);}.u{opacity:0.5;mix-blend-mode:multiply;}.v{fill:#6112a8;}.w{fill:#ff8671;}.x{fill:url(#b);}.y{fill:#e0e0e0;}.z{fill:#2c3673;}.aa{fill:none;}</style><linearGradient id="a" x1="1.736" y1="1.584" x2="0.312" y2="0.241" gradientUnits="objectBoundingBox"><stop offset="0" stop-color="#fff"/><stop offset="0.216" stop-color="#fff" stop-opacity="0.761"/><stop offset="0.604" stop-color="#fff" stop-opacity="0.357"/><stop offset="0.874" stop-color="#fff" stop-opacity="0.098"/><stop offset="1" stop-color="#fff" stop-opacity="0"/></linearGradient><linearGradient id="b" x1="1.787" y1="1.566" x2="0.322" y2="0.239" xlink:href="#a"/></defs><g transform="translate(-8816 -3944)"><g transform="translate(-7 -183)"><g transform="translate(8839 4142)"><g transform="translate(0 0)"><path class="a" d="M48.488,261.084l94.1,54.327,94.272-54.428-94.184-54.175Z" transform="translate(-48.488 -125.411)"/><g transform="translate(7.15)"><g transform="translate(0 66.159)"><path class="b" d="M64.06,223.823l87.034,50.249,87.2-50.343-87.115-50.109Z" transform="translate(-64.06 -173.621)"/><path class="c" d="M85.479,230.505l77.282-44.536,77.271,44.447-77.354,44.661Z" transform="translate(-75.644 -180.299)"/><path class="d" d="M64.06,282.953V300.28l87.034,50.249V333.2Z" transform="translate(-64.06 -232.751)"/><path class="d" d="M340.8,282.75l-87.2,50.342v17.326l87.2-50.342Z" transform="translate(-166.573 -232.641)"/></g><g transform="translate(45.087)"><g transform="translate(74.895 80.785)"><path class="b" d="M337.176,229.684l.751-.257s-.582-9.04-4.8-15.944c-3.911-6.406-6.919-8.009-6.919-8.009l-.849.47S334.309,214.132,337.176,229.684Z" transform="translate(-325.362 -205.475)"/><path class="d" d="M325.362,206.5s9.785,6.6,11.814,23.739c-4.084-4.514-8.093-8.164-11.814-8.534Z" transform="translate(-325.362 -206.028)"/></g><g transform="translate(56.64 46.859)"><path class="a" d="M309.3,220.075c.021,4.5-5.234,8.164-11.737,8.193s-11.792-3.591-11.813-8.086l-.145-31.935,23.549-.107.138,31.683C309.3,219.906,309.3,219.991,309.3,220.075Z" transform="translate(-285.606 -162.174)"/><path class="b" d="M309.155,157.555s-3.559,4.794-11.756,4.831-11.793-4.724-11.793-4.724,1-16.976,11.658-26.073C308,140.589,309.155,157.555,309.155,157.555Z" transform="translate(-285.606 -131.589)"/><path class="d" d="M309.155,157.555s-3.559,4.794-11.756,4.831-11.793-4.724-11.793-4.724c3.208,2.731,13.355,5.314,15.934-2.232s-4.276-23.842-4.276-23.842C308,140.589,309.155,157.555,309.155,157.555Z" transform="translate(-285.606 -131.589)"/><path class="d" d="M309.5,263.113c.02,4.5-5.234,8.164-11.737,8.193s-11.792-3.591-11.813-8.086l-.024-5.3c.021,4.5,5.308,8.116,11.813,8.087,6.38-.029,11.559-3.561,11.732-7.941l.022,4.792C309.493,262.944,309.5,263.028,309.5,263.113Z" transform="translate(-285.777 -199.914)"/><path class="b" d="M309.486,260.941c0,.085,0,.17-.005.253-.173,4.38-5.352,7.912-11.732,7.941-6.5.029-11.792-3.591-11.813-8.087l-.014-3.125c.021,4.5,5.308,8.116,11.813,8.087,6.38-.029,11.559-3.561,11.732-7.941l.012,2.621C309.483,260.772,309.485,260.857,309.486,260.941Z" transform="translate(-285.777 -199.914)"/><path class="e" d="M309.486,243.644c0,.084,0,.169-.005.252-.173,4.38-5.352,7.912-11.732,7.941-6.5.029-11.792-3.591-11.813-8.087l-.014-3.125c.021,4.5,5.308,8.116,11.813,8.086,6.38-.029,11.559-3.561,11.732-7.941l.012,2.621C309.483,243.474,309.485,243.559,309.486,243.644Z" transform="translate(-285.777 -190.56)"/><path class="e" d="M309.486,227.811c0,.085,0,.169-.005.252-.173,4.38-5.352,7.912-11.732,7.942-6.5.029-11.792-3.591-11.813-8.087l-.014-3.125c.021,4.5,5.308,8.116,11.813,8.086,6.38-.029,11.559-3.561,11.732-7.941l.012,2.621C309.483,227.642,309.485,227.727,309.486,227.811Z" transform="translate(-285.777 -181.997)"/></g><g transform="translate(21.384)"><path class="a" d="M254.617,200.555c.039,8.689-10.116,15.778-22.683,15.836s-22.791-6.94-22.831-15.629l-.28-61.722,45.514-.207.266,61.235C254.612,200.227,254.617,200.391,254.617,200.555Z" transform="translate(-208.823 -88.648)"/><path class="b" d="M254.337,79.722s-6.878,9.265-22.722,9.337-22.793-9.131-22.793-9.131,1.931-32.809,22.531-50.392C252.112,46.932,254.337,79.722,254.337,79.722Z" transform="translate(-208.823 -29.537)"/><path class="d" d="M254.337,79.722s-6.878,9.265-22.722,9.337-22.793-9.131-22.793-9.131c6.2,5.279,25.812,10.272,30.795-4.313s-8.264-46.079-8.264-46.079C252.112,46.932,254.337,79.722,254.337,79.722Z" transform="translate(-208.823 -29.537)"/><path class="d" d="M254.994,283.735c.039,8.689-10.116,15.779-22.683,15.836s-22.791-6.94-22.83-15.629l-.047-10.237c.039,8.689,10.26,15.686,22.831,15.629,12.33-.056,22.339-6.882,22.673-15.348l.042,9.262C254.988,283.408,254.993,283.572,254.994,283.735Z" transform="translate(-209.153 -161.591)"/><path class="b" d="M254.975,279.538c0,.164,0,.328-.01.488-.334,8.466-10.344,15.292-22.673,15.348-12.571.057-22.791-6.94-22.831-15.629l-.028-6.04c.039,8.689,10.26,15.686,22.831,15.629,12.33-.056,22.339-6.882,22.673-15.348l.023,5.065C254.969,279.21,254.974,279.374,254.975,279.538Z" transform="translate(-209.153 -161.591)"/><path class="e" d="M254.85,252.116c0,.164,0,.328-.01.488-.334,8.466-10.344,15.292-22.674,15.348-12.571.057-22.791-6.94-22.83-15.629l-.028-6.04c.039,8.689,10.259,15.686,22.83,15.629,12.33-.056,22.339-6.882,22.674-15.348l.023,5.065C254.845,251.789,254.85,251.952,254.85,252.116Z" transform="translate(-209.086 -146.76)"/><path class="e" d="M254.718,222.862c0,.164,0,.328-.01.487-.334,8.466-10.344,15.293-22.674,15.349-12.571.057-22.791-6.94-22.83-15.629l-.028-6.04c.039,8.689,10.259,15.686,22.83,15.629,12.33-.056,22.339-6.882,22.674-15.348l.023,5.065C254.712,222.535,254.717,222.7,254.718,222.862Z" transform="translate(-209.014 -130.939)"/></g><g transform="translate(7.145 64.21)"><path class="a" d="M201.506,257.863c.021,4.5-5.234,8.164-11.736,8.193s-11.792-3.591-11.813-8.086l-.145-31.936,23.549-.107.138,31.684C201.5,257.693,201.506,257.778,201.506,257.863Z" transform="translate(-177.812 -199.961)"/><path class="b" d="M201.361,195.342s-3.559,4.794-11.756,4.831-11.793-4.724-11.793-4.724,1-16.975,11.658-26.073C200.21,178.377,201.361,195.342,201.361,195.342Z" transform="translate(-177.812 -169.376)"/><path class="d" d="M201.361,195.342s-3.559,4.794-11.756,4.831-11.793-4.724-11.793-4.724c3.208,2.732,13.355,5.315,15.934-2.231s-4.276-23.842-4.276-23.842C200.21,178.377,201.361,195.342,201.361,195.342Z" transform="translate(-177.812 -169.376)"/><path class="d" d="M201.7,300.9c.02,4.5-5.235,8.164-11.737,8.193s-11.792-3.591-11.813-8.087l-.024-5.3c.021,4.5,5.308,8.116,11.813,8.086,6.38-.029,11.559-3.561,11.732-7.941l.022,4.793C201.7,300.732,201.7,300.816,201.7,300.9Z" transform="translate(-177.983 -237.702)"/><path class="b" d="M201.692,298.729c0,.085,0,.169-.005.252-.173,4.38-5.352,7.912-11.732,7.941-6.5.03-11.792-3.591-11.813-8.086l-.014-3.125c.021,4.5,5.308,8.116,11.813,8.086,6.38-.029,11.559-3.561,11.732-7.941l.012,2.621C201.689,298.56,201.691,298.645,201.692,298.729Z" transform="translate(-177.983 -237.702)"/><path class="e" d="M201.692,281.893c0,.084,0,.169-.005.252-.173,4.38-5.352,7.912-11.732,7.941-6.5.029-11.792-3.591-11.813-8.087l-.014-3.125c.021,4.5,5.308,8.116,11.813,8.087,6.38-.029,11.559-3.561,11.732-7.941l.012,2.62C201.689,281.723,201.691,281.808,201.692,281.893Z" transform="translate(-177.983 -228.596)"/><path class="e" d="M201.692,266.914c0,.085,0,.169-.005.252-.173,4.38-5.352,7.912-11.732,7.941-6.5.03-11.792-3.591-11.813-8.086l-.014-3.125c.021,4.5,5.308,8.116,11.813,8.086,6.38-.029,11.559-3.561,11.732-7.941l.012,2.621C201.689,266.745,201.691,266.829,201.692,266.914Z" transform="translate(-177.983 -220.495)"/></g><g transform="translate(44.997 63.54)"><ellipse class="d" cx="9.958" cy="12.937" rx="9.958" ry="12.937"/><ellipse class="b" cx="9.958" cy="12.937" rx="9.958" ry="12.937" transform="translate(0.987)"/><path class="d" d="M283.574,183.657c0,5.935-3.7,10.743-8.27,10.743-.127,0-.253,0-.381-.015a.091.091,0,0,1-.045,0c-4.368-.287-7.845-4.98-7.845-10.728s3.477-10.442,7.845-10.728a.091.091,0,0,1,.045,0c.127-.011.254-.015.381-.015C279.874,172.913,283.574,177.721,283.574,183.657Z" transform="translate(-263.918 -170.619)"/><path class="f" d="M282.768,183.671c0,5.748-3.476,10.441-7.845,10.728a.091.091,0,0,1-.045,0,4.309,4.309,0,0,1-.489-.056c-4.137-.585-7.356-5.14-7.356-10.672s3.219-10.087,7.356-10.672a4.21,4.21,0,0,1,.489-.056.092.092,0,0,1,.045,0C279.292,173.23,282.768,177.923,282.768,183.671Z" transform="translate(-263.918 -170.634)"/><path class="g" d="M281.743,183.74c0,5.532-3.219,10.083-7.352,10.672-4.137-.585-7.356-5.14-7.356-10.672s3.219-10.087,7.356-10.672C278.523,173.657,281.743,178.208,281.743,183.74Z" transform="translate(-263.918 -170.703)"/></g><g transform="translate(0 99.463)"><path class="b" d="M163.09,273.135l-.838-.286s.649-10.076,5.347-17.771c4.359-7.14,7.712-8.927,7.712-8.927l.946.523S166.284,255.8,163.09,273.135Z" transform="translate(-162.252 -246.152)"/><path class="d" d="M177.243,247.292s-10.906,7.355-13.167,26.46c4.552-5.031,9.02-9.1,13.167-9.512Z" transform="translate(-163.238 -246.769)"/></g></g><g transform="translate(89.626 61.861)"><g transform="translate(0 6.498)"><path class="h" d="M269.34,257.926a1.037,1.037,0,0,0,.2,0,1.025,1.025,0,0,0,.9-1.137l-9.14-77.468a1.024,1.024,0,0,0-2.033.24l9.14,77.468A1.024,1.024,0,0,0,269.34,257.926Z" transform="translate(-259.251 -178.414)"/></g><g transform="translate(13.81)"><path class="h" d="M299.326,243.019a1,1,0,0,0,.2,0,1.024,1.024,0,0,0,.9-1.137l-9.051-76.712a1.024,1.024,0,1,0-2.034.24l9.051,76.712A1.024,1.024,0,0,0,299.326,243.019Z" transform="translate(-289.327 -164.261)"/></g><g transform="translate(1.195 4.804)"><path class="h" d="M262.8,183.05a1.02,1.02,0,0,0,.52-.1l12.971-6.28a1.024,1.024,0,1,0-.893-1.843l-12.97,6.28a1.024,1.024,0,0,0,.372,1.943Z" transform="translate(-261.855 -174.724)"/><g transform="translate(1.389 11.178)"><path class="h" d="M265.831,207.462a1.019,1.019,0,0,0,.519-.1l13.111-6.348a1.024,1.024,0,0,0-.892-1.843l-13.111,6.348a1.024,1.024,0,0,0,.373,1.943Z" transform="translate(-264.88 -199.069)"/></g><g transform="translate(2.779 22.453)"><path class="h" d="M268.857,231.988a1.021,1.021,0,0,0,.52-.1l13.051-6.32a1.024,1.024,0,1,0-.893-1.843l-13.051,6.319a1.024,1.024,0,0,0,.372,1.943Z" transform="translate(-267.907 -223.623)"/></g><g transform="translate(4.169 33.745)"><path class="h" d="M271.884,256.534a1.02,1.02,0,0,0,.519-.1l12.957-6.274a1.024,1.024,0,1,0-.892-1.843l-12.957,6.274a1.024,1.024,0,0,0,.373,1.943Z" transform="translate(-270.933 -248.215)"/></g><g transform="translate(5.558 45.039)"><path class="h" d="M274.91,281.084a1.021,1.021,0,0,0,.52-.1l12.856-6.224a1.024,1.024,0,0,0-.892-1.843l-12.856,6.225a1.024,1.024,0,0,0,.373,1.943Z" transform="translate(-273.96 -272.813)"/></g><g transform="translate(6.948 56.278)"><path class="h" d="M277.937,305.566a1.024,1.024,0,0,0,.519-.1l12.873-6.233a1.024,1.024,0,0,0-.892-1.843l-12.873,6.233a1.024,1.024,0,0,0,.373,1.943Z" transform="translate(-276.987 -297.288)"/></g><g transform="translate(8.338 67.553)"><path class="h" d="M280.964,330.093a1.019,1.019,0,0,0,.519-.1l12.813-6.2a1.024,1.024,0,0,0-.892-1.843l-12.813,6.2a1.024,1.024,0,0,0,.373,1.943Z" transform="translate(-280.013 -321.844)"/></g></g></g></g></g><g transform="translate(138.329 78.312)"><path class="i" d="M382.757,351.76c-5.147,2.975-10.34,5.877-15.5,8.828,2.534,1.482,6.72,2.452,11.459,2.452,7.735,0,14-2.58,14-5.763C392.72,354.673,388.521,352.474,382.757,351.76Z" transform="translate(-359.217 -282.117)"/><g transform="translate(3.194 43.86)"><path class="h" d="M376.405,358.833a.89.89,0,0,0-.621.7,7,7,0,0,0-.1,1.253v1.877a2.285,2.285,0,0,0,1.438.722l.3-.176s2.43,1.755,3.575,1.9c1.494.192,3.046-.435,1.851-1.9-1.128-1.386-2.832-1.98-3.306-3.077a1.249,1.249,0,0,0-.212-.358A2.727,2.727,0,0,0,376.405,358.833Z" transform="translate(-366.969 -329.738)"/><path class="j" d="M377.5,353.6l-.222,3.029a2.356,2.356,0,0,0,2.235.367L380,353.7A4.494,4.494,0,0,0,377.5,353.6Z" transform="translate(-367.833 -326.885)"/><path class="k" d="M362.009,295.609l8.157,6.435a4.2,4.2,0,0,1,1.332,3.284c-.584,5.042-1.111,11.909-1.729,14.9,0,.016-.008.033-.012.053-.049.23-.094.45-.139.664-.025.111-.049.217-.07.32-.172.8-.671,3.325-.671,3.325a5.283,5.283,0,0,1-3.153-.356s.208-6.286.332-9.258c.111-2.723.222-6.726.337-7.484-4.482-3.013-8.475-5.812-9.686-7.393A19.068,19.068,0,0,1,362.009,295.609Z" transform="translate(-356.705 -295.609)"/></g><g transform="translate(13.362 36.566)"><path class="h" d="M396.323,348.447a.889.889,0,0,0-.621.7,7,7,0,0,0-.1,1.253v1.877a2.287,2.287,0,0,0,1.439.722l.3-.176s2.43,1.755,3.575,1.9c1.493.192,3.045-.435,1.851-1.9-1.128-1.386-2.832-1.98-3.306-3.076a1.238,1.238,0,0,0-.212-.358A2.727,2.727,0,0,0,396.323,348.447Z" transform="translate(-387.909 -316.827)"/><path class="j" d="M397.42,343.211l-.222,3.028a2.354,2.354,0,0,0,2.235.367l.49-3.293A4.489,4.489,0,0,0,397.42,343.211Z" transform="translate(-388.772 -313.974)"/><path class="k" d="M382.784,279.725l8.5,8.959a4.2,4.2,0,0,1,1.333,3.284c-.584,5.042-1.111,11.909-1.73,14.9,0,.017-.008.033-.012.053-.049.229-.094.45-.139.663-.025.11-.049.217-.07.319-.172.8-.672,3.325-.672,3.325a5.291,5.291,0,0,1-3.153-.356s.209-6.286.332-9.259c.111-2.723.412-7.077.527-7.834-4.732-3.55-7.032-6.353-8.855-7.918C380.726,283.28,382.784,279.725,382.784,279.725Z" transform="translate(-378.848 -279.725)"/></g><path class="k" d="M355.651,285.984V288.6c0,1.021,1.291,1.951,2.175,1.44l11.715-6.945a2.13,2.13,0,0,0,.852-1.475V279c0-1.02-.8-3.178-1.681-2.668l-12.872,6.256C355.43,282.828,355.651,285.51,355.651,285.984Z" transform="translate(-352.908 -241.284)"/><g transform="translate(14.741 12.389)"><path class="l" d="M381.852,227.071s3.255.855,3.945,6.35c1.145,9.127,3.328,19.009,3.944,19.026a7.222,7.222,0,0,0-2.373.783,55.32,55.32,0,0,1-3.666-8.489C381.635,237.173,381.988,231.237,381.852,227.071Z" transform="translate(-381.852 -227.071)"/></g><path class="m" d="M369.714,231.819v19.26a3.887,3.887,0,0,1-1.29.84c-8.215,4.274-9.674,4.735-12.028,5.247-1.048.228-1.515-.338-1.408-1.894.428-6.209-.906-21.958.042-23.342.753-1.1,2.732-2.133,5.6-3.775a9.262,9.262,0,0,1,6.708-1.2C368.744,227.287,369.551,228.179,369.714,231.819Z" transform="translate(-352.416 -214.513)"/><g transform="translate(7.193)"><path class="n" d="M371.365,222.955l-.905,4.107c-1.8.8-3.036.345-3.935-.867l.906-4.107A3.482,3.482,0,0,1,371.365,222.955Z" transform="translate(-366.014 -211.842)"/><path class="o" d="M371.9,225.659l-.367,1.664c-2.665.1-3.335-3.587-3.335-3.587Z" transform="translate(-366.922 -212.878)"/><path class="n" d="M367.391,205.855l-.8,3.642a5.357,5.357,0,0,0,2.066,5.512,9.957,9.957,0,0,0,3.411,1.617,2.523,2.523,0,0,0,3.049-1.917l1.664-7.545S371.276,202.949,367.391,205.855Z" transform="translate(-365.979 -202.655)"/><path class="h" d="M378.211,202.962c-.131,1.859-2.187,1.822-2.187,1.822a11.245,11.245,0,0,0-4.9-.761c-.123.565-.577.884-1.13,1.3a.947.947,0,0,0-.221.25.029.029,0,0,1,0,.012c-.057.217-.979,3.649-.63,4.914a1.605,1.605,0,0,0,.164.381,4.706,4.706,0,0,1,2.915-1.593,3.186,3.186,0,0,1,2.08.561c.565-.1.778.164.778.164.32.675-.319,1.454-.319,1.454a.8.8,0,0,0-.647-.508c-.426-.057-.819-.147-1.724-.336-.618-.127-1.659.651-2.256,1.155a4.411,4.411,0,0,0,3,.966c1.3-.229,1.486-.925,1.486-.925s.1,3.006-2.776,3.132-4.623-2.829-4.648-4a17.18,17.18,0,0,1,1.253-4.189l0,0,.2-.639-.856.663c-1.212,1.06-1.421,3.57-1.421,3.57-1.634-1.163-.745-5.479-.475-7.166a1.887,1.887,0,0,1,1.6-1.781c1.785-2.473,6.634-.675,7.694-.762C376.327,200.549,378.342,201.1,378.211,202.962Z" transform="translate(-365.413 -200.089)"/><path class="n" d="M369.407,212.39s-1.66-1.462-2.351-.154c-.537,1.017-.185,3.323,1.243,3.281Z" transform="translate(-366.172 -206.364)"/></g><g transform="translate(4.777 31.587)"><g transform="translate(0 7.27)"><path class="p" d="M367.824,296.759l-7.383-4.215a.571.571,0,0,1,0-1l8.675-4.867a.572.572,0,0,1,.547-.007l7.408,3.918a.572.572,0,0,1,.024,1l-8.7,5.164A.57.57,0,0,1,367.824,296.759Z" transform="translate(-360.153 -285.738)"/><path class="q" d="M367.824,294.864l-7.383-4.215a.571.571,0,0,1,0-.995l8.675-4.867a.572.572,0,0,1,.547-.007l7.408,3.918a.572.572,0,0,1,.024,1l-8.7,5.164A.572.572,0,0,1,367.824,294.864Z" transform="translate(-360.153 -284.714)"/><path class="r" d="M360.166,297.434v-.817l7.634,4.206.422,1.585-7.738-4.427A.632.632,0,0,1,360.166,297.434Z" transform="translate(-360.16 -291.151)"/></g><path class="r" d="M376.791,277.267v9.418a.835.835,0,0,0,.843.835h1.625v-.815l11.855-6.843a.84.84,0,0,0,.418-.725v-8.911h.765v-1.343h-1.613a.788.788,0,0,0-.405.111l-13.071,7.547A.835.835,0,0,0,376.791,277.267Z" transform="translate(-369.151 -268.883)"/><path class="s" d="M393.761,268.995l-13.07,7.546a.836.836,0,0,0-.418.724v9.418a.836.836,0,0,0,1.254.724l13.07-7.546a.836.836,0,0,0,.418-.724v-9.418A.836.836,0,0,0,393.761,268.995Z" transform="translate(-371.034 -268.881)"/><path class="q" d="M395.555,288.436c0,.737.429,1.337.965,1.34s.974-.594.977-1.331-.429-1.338-.965-1.34S395.559,287.7,395.555,288.436Z" transform="translate(-379.299 -278.737)"/></g><g transform="translate(0 17.417)"><path class="l" d="M352.362,238.021s-3.778,10.192-2.249,15.524c1.3,4.52,7.78,8.88,11.056,9.761a15.867,15.867,0,0,0,1-2.156s-4.933-2.246-7.823-9.248c-1.484-3.6,1.3-9.351,1.3-9.351S356.113,238.4,352.362,238.021Z" transform="translate(-349.748 -238.021)"/><path class="j" d="M374.62,290.546l1,.488V288.39Z" transform="translate(-363.2 -265.262)"/></g><path class="t" d="M382.167,251.64h-1.612a.766.766,0,0,0-.4.11L367.079,259.3a.839.839,0,0,0-.418.725v8.554l-8.6-9.849c.188-12.356,7.939-18.835,20.318-21.728Z" transform="translate(-354.244 -220.053)"/></g><g transform="translate(33.518 24.416)"><ellipse class="u" cx="12.484" cy="4.372" rx="12.484" ry="4.372" transform="translate(0 75.047)"/><g transform="translate(4.374 43.276)"><path class="s" d="M131.733,247.387a.891.891,0,0,0-.621.7,7,7,0,0,0-.1,1.253v1.877a2.286,2.286,0,0,0,1.438.722l.3-.176s2.43,1.755,3.575,1.9c1.494.192,3.046-.435,1.851-1.9-1.128-1.386-2.832-1.98-3.306-3.077a1.237,1.237,0,0,0-.212-.358A2.727,2.727,0,0,0,131.733,247.387Z" transform="translate(-131.011 -214.984)"/><path class="j" d="M132.829,242.151l-.222,3.029a2.356,2.356,0,0,0,2.235.367l.489-3.293A4.5,4.5,0,0,0,132.829,242.151Z" transform="translate(-131.874 -212.131)"/><g transform="translate(0.302)"><path class="k" d="M131.669,208.891a5.333,5.333,0,0,0,3.157.352s.5-2.523.667-3.325c.021-.1.045-.209.07-.32.045-.213.09-.434.139-.663,0-.02.008-.037.012-.053.7-3.4,1.728-8.857,2.33-13.152v-14.6a7.348,7.348,0,0,0-5.139.745V191.55c-.115.758-.794,5.356-.905,8.079C131.878,202.6,131.669,208.891,131.669,208.891Z" transform="translate(-131.669 -176.959)"/></g></g><g transform="translate(13.86 40.627)"><path class="s" d="M152.393,243.279a.891.891,0,0,0-.621.7,7,7,0,0,0-.1,1.253v1.877a2.286,2.286,0,0,0,1.438.722l.3-.176s2.43,1.755,3.574,1.9c1.494.192,3.046-.435,1.851-1.9-1.128-1.386-2.832-1.98-3.306-3.077a1.222,1.222,0,0,0-.212-.358A2.727,2.727,0,0,0,152.393,243.279Z" transform="translate(-151.671 -210.113)"/><path class="j" d="M153.489,238.043l-.222,3.029a2.356,2.356,0,0,0,2.235.367l.489-3.293A4.491,4.491,0,0,0,153.489,238.043Z" transform="translate(-152.534 -207.26)"/><g transform="translate(0.34)"><path class="k" d="M152.412,203.986a3.988,3.988,0,0,0,3.116.25s.565-3.284.737-4.087c.021-.1.045-.209.07-.32.041-.2.09-.426.139-.663,0-.02.008-.037.012-.053.024-.118.049-.237.073-.36.7-3.419,1.675-8.644,2.256-12.792v-14.6a7.348,7.348,0,0,0-5.139.745V185.78c-.115.758-.794,5.356-.9,8.079C152.649,196.832,152.412,203.986,152.412,203.986Z" transform="translate(-152.412 -171.189)"/></g></g><path class="k" d="M134.208,169.985V172.6c0,1.02,1.291,1.95,2.175,1.44l11.715-6.945a2.133,2.133,0,0,0,.852-1.476v-2.612c0-1.021-.8-3.178-1.681-2.668L134.4,166.593C133.986,166.829,134.208,169.511,134.208,169.985Z" transform="translate(-128.334 -124.652)"/><g transform="translate(17.872 13.023)"><path class="l" d="M160.409,111.072s4.065,1.25,3.724,6.778,1.945,7.42,7.778,7.166a3.842,3.842,0,0,0-.237,2.525,13.482,13.482,0,0,1-6.859-.478C159.606,124.983,160.545,115.238,160.409,111.072Z" transform="translate(-160.409 -111.072)"/></g><path class="v" d="M148.271,115.821v19.26a3.9,3.9,0,0,1-1.29.84c-8.215,4.274-9.674,4.734-12.029,5.246-1.048.228-1.515-.338-1.407-1.894.428-6.209-.906-21.958.042-23.342.754-1.1,2.731-2.133,5.6-3.775a9.264,9.264,0,0,1,6.708-1.2C147.3,111.288,148.107,112.18,148.271,115.821Z" transform="translate(-127.842 -97.881)"/><g transform="translate(10.265)"><path class="n" d="M150.758,105.785l-.6,4.163c-1.735.935-3,.572-3.989-.57l.6-4.163A3.483,3.483,0,0,1,150.758,105.785Z" transform="translate(-145.103 -94.674)"/><path class="w" d="M151.113,108.656l-.241,1.687c-2.092-.473-3.594-3.327-3.594-3.327Z" transform="translate(-145.7 -95.855)"/><path class="n" d="M145.626,88.86l-.528,3.692a5.357,5.357,0,0,0,2.473,5.342,9.958,9.958,0,0,0,3.523,1.357,2.523,2.523,0,0,0,2.9-2.14l1.094-7.648S149.283,85.672,145.626,88.86Z" transform="translate(-144.491 -85.346)"/><path class="h" d="M154.262,87.027s2.051-.12,2.042-1.983-2.06-2.265-3.187-2.089c-1.051.164-6.022-1.261-7.616,1.337a1.889,1.889,0,0,0-1.459,1.894c-.141,1.7-.7,6.074,1.013,7.111,0,0,.018-2.516,1.148-3.665l.8-.727-.215.949h0a.943.943,0,0,0,1.026-.749,2.082,2.082,0,0,1,.476-1.092c.517-.455.947-.807,1.029-1.381A11.22,11.22,0,0,1,154.262,87.027Z" transform="translate(-143.841 -82.71)"/><path class="n" d="M147.787,95.511s-1.765-1.334-2.356.022c-.46,1.055.2,3.655,1.638,3.135Z" transform="translate(-144.623 -89.316)"/></g><g transform="translate(8.954 5.235)"><path class="x" d="M164.287,109.62,161.3,94.112c-12.379,2.889-20.131,9.369-20.316,21.726l8.138,10.068Z" transform="translate(-140.986 -94.112)"/><g transform="translate(7.954 15.438)"><path class="r" d="M174.376,128.57a1.176,1.176,0,0,1-.032.781l-5.152,13.091a1.2,1.2,0,0,1-.9.735l-5.437.914-2.393.407-.114.089.069.505-1.276-.5-.11-.041a1.185,1.185,0,0,1-.634-1.52l5.189-13.3a1.182,1.182,0,0,1,.932-.74l8.563-1.244a1.219,1.219,0,0,1,.579.06l.069.028,1.272.5Z" transform="translate(-158.309 -127.733)"/><path class="s" d="M177.111,130.441l-5.154,13.091a1.184,1.184,0,0,1-.9.733l-8.6,1.451a1.183,1.183,0,0,1-1.3-1.6l5.19-13.3a1.184,1.184,0,0,1,.932-.741l8.561-1.242A1.183,1.183,0,0,1,177.111,130.441Z" transform="translate(-159.805 -128.323)"/></g><path class="r" d="M177.3,146.026c-.378.961-.2,1.929.394,2.164s1.385-.354,1.763-1.315.2-1.929-.394-2.164S177.677,145.066,177.3,146.026Z" transform="translate(-160.517 -121.45)"/></g><g transform="translate(3.001 18.038)"><path class="l" d="M130.765,122.007s-3.687,7.4-2.514,14.2,11.925,3.515,14.813,2.184l-.951-2.508s-7.177.973-8.548.051c-1.127-.758-.5-4.595.256-7.1a7.053,7.053,0,0,0,.012-4.229C133.376,123.208,132.488,121.85,130.765,122.007Z" transform="translate(-128.02 -121.994)"/><path class="j" d="M158.71,149.98a4.624,4.624,0,0,1,1.451-1.525c.922-.563,1.51-.41,1.536-.23s-.973.665-.973.973,2.746-.871,3.25-.691.563,2.79-.512,3.379a11.44,11.44,0,0,1-3.8.6Z" transform="translate(-144.618 -136.092)"/></g><g transform="translate(30.486 26.961)"><path class="j" d="M192.38,141.976a.33.33,0,0,0-.253-.548l-.241.612A.521.521,0,0,0,192.38,141.976Z" transform="translate(-190.046 -141.428)"/><path class="j" d="M188.058,146.119a.429.429,0,0,0,.093.043l-.005.011a2.219,2.219,0,0,0,.718.243c.732.1,1.7-2.083,1.432-2.519a1.05,1.05,0,0,0-.462-.346s-.048-.022-.124-.053a2.159,2.159,0,0,0-.277-.093c-.21-.052-.447-.067-.56.079C188.641,143.776,187.43,145.732,188.058,146.119Z" transform="translate(-187.879 -142.478)"/></g></g><g transform="translate(20.038 105.216)"><ellipse class="i" cx="14.005" cy="5.762" rx="14.005" ry="5.762" transform="translate(9.521 72.957)"/><path class="h" d="M138.535,265.46s1.67,3.879,1.325,6.64a19.566,19.566,0,0,0,1.2,8.929c1.068,2.741,1.425,4.454.632,5.747s-9.629-1.692-11.661-2.3-1.107-7.553-.8-9.941-1.053-8.86-1.053-8.86Z" transform="translate(-111.626 -262.348)"/><g transform="translate(22.404 43.498)"><path class="s" d="M147.764,423.8a.889.889,0,0,1,.624.7,6.968,6.968,0,0,1,.107,1.253c.006,1.228.009,1.877.009,1.877a2.288,2.288,0,0,1-1.435.728l-.3-.174s-2.422,1.766-3.565,1.919c-1.493.2-3.048-.422-1.86-1.894,1.122-1.391,2.823-1.993,3.292-3.092a1.249,1.249,0,0,1,.21-.359A2.727,2.727,0,0,1,147.764,423.8Z" transform="translate(-140.92 -391.421)"/><path class="j" d="M152.346,418.571l.236,3.027a2.354,2.354,0,0,1-2.233.377l-.5-3.29A4.493,4.493,0,0,1,152.346,418.571Z" transform="translate(-145.746 -388.57)"/><g transform="translate(0.742)"><path class="k" d="M149.055,385.326a5.331,5.331,0,0,1-3.155.366s-.507-2.52-.683-3.322c-.021-.1-.046-.209-.071-.319-.046-.213-.092-.434-.142-.663,0-.02-.008-.037-.012-.053-.72-3.4-1.768-8.849-2.39-13.142l-.066-14.6a7.348,7.348,0,0,1,5.142.722l-.417,13.653c.118.757.918,5.535,1.041,8.258C148.438,379.2,149.055,385.326,149.055,385.326Z" transform="translate(-142.535 -353.416)"/></g></g><g transform="translate(14.926 40.867)"><path class="s" d="M131.477,419.789a.89.89,0,0,1,.624.7,6.969,6.969,0,0,1,.107,1.252c.006,1.229.009,1.877.009,1.877a2.289,2.289,0,0,1-1.435.728l-.3-.174s-2.422,1.766-3.565,1.918c-1.493.2-3.048-.421-1.86-1.894,1.122-1.391,2.823-1.993,3.292-3.092a1.238,1.238,0,0,1,.21-.359A2.727,2.727,0,0,1,131.477,419.789Z" transform="translate(-124.633 -386.619)"/><path class="j" d="M136.059,414.556l.236,3.027a2.355,2.355,0,0,1-2.233.377l-.5-3.291A4.489,4.489,0,0,1,136.059,414.556Z" transform="translate(-129.459 -383.768)"/><g transform="translate(0.671)"><path class="k" d="M132.647,380.485a3.987,3.987,0,0,1-3.115.264s-.58-3.282-.756-4.083c-.021-.1-.046-.208-.071-.319-.042-.2-.092-.425-.142-.663,0-.021-.009-.037-.013-.053-.025-.118-.05-.237-.075-.36-.716-3.416-1.714-8.637-2.314-12.782l-.066-14.6a6.263,6.263,0,0,1,4.8.673l.409,13.721c.118.757.819,5.353.942,8.075C132.377,373.332,132.647,380.485,132.647,380.485Z" transform="translate(-126.095 -347.686)"/></g></g><path class="k" d="M138.88,345.165l-.227,3.654c0,1.02-3.43-.311-4.316-.817l-7.421-4.354a2.133,2.133,0,0,1-.859-1.472l-.012-2.613c0-1.02.783-3.182,1.67-2.675l8.708,4.514C136.835,341.637,139.031,341.992,138.88,345.165Z" transform="translate(-110.471 -300.938)"/><g transform="translate(0 14.228)"><path class="j" d="M103.681,317.818a2.317,2.317,0,0,0-2.255.157c-.9.776-.232,2.815.289,2.867a10.2,10.2,0,0,0,2.214-.5S104.653,318.723,103.681,317.818Z" transform="translate(-96.917 -304.767)"/><g transform="translate(6.764)"><path class="l" d="M117.5,289.669s-2.327.08-2.327,5.915c0,5.538-2.479,7.364-8.313,7.137a3.843,3.843,0,0,1,.248,2.524,13.478,13.478,0,0,0,6.857-.509C119.163,302.632,117.382,293.835,117.5,289.669Z" transform="translate(-106.859 -289.669)"/></g><g transform="translate(0 11.985)"><path class="s" d="M97.3,318.041v3.447c0,.575-1.158,1.041-2.586,1.041s-2.586-.466-2.586-1.041v-3.447Z" transform="translate(-92.128 -316.999)"/><g transform="translate(4.003 1.759)"><path class="s" d="M102.12,322.111a1.255,1.255,0,1,1,1.276-1.255A1.267,1.267,0,0,1,102.12,322.111Zm0-2a.748.748,0,1,0,.769.748A.759.759,0,0,0,102.12,320.108Z" transform="translate(-100.845 -319.601)"/></g><path class="y" d="M97.3,316.813c0,.575-1.158,1.041-2.586,1.041s-2.586-.466-2.586-1.041,1.158-1.042,2.586-1.042S97.3,316.237,97.3,316.813Z" transform="translate(-92.127 -315.771)"/><path class="h" d="M97.357,317.2a.193.193,0,0,1-.05.117,4.382,4.382,0,0,1-4.425,0,.193.193,0,0,1-.05-.117c0-.253.859-.718,2.262-.718S97.357,316.943,97.357,317.2Z" transform="translate(-92.508 -316.153)"/><path class="z" d="M97.365,317.588a4.382,4.382,0,0,1-4.425,0,4.379,4.379,0,0,1,4.425,0Z" transform="translate(-92.567 -316.429)"/></g><path class="j" d="M104.745,319.116s-.78.209-.614.721.523.2.523.2.934.015,1.076-.357-.358-1.591-.358-1.591Z" transform="translate(-98.606 -305.042)"/></g><path class="m" d="M126.251,292.974l.088,19.259a3.824,3.824,0,0,0,1.293.834c4.712,2.364,7.211,4.063,9.568,4.564,1.049.223,1.913.071,1.8-1.485-.456-6.207.772-22.971-.315-24.586-.742-1.1-1.7-1.535-3.363-2.294a9.765,9.765,0,0,0-6.925-.4C126.755,289.25,126.462,290.4,126.251,292.974Z" transform="translate(-110.582 -274.762)"/><g transform="translate(16.328)"><g transform="translate(0.694 2.302)"><path class="n" d="M136.223,281.8l.019,4.129c1.561,1.143,2.843.96,3.956-.018l-.019-4.129A3.42,3.42,0,0,0,136.223,281.8Z" transform="translate(-132.997 -273.14)"/><path class="n" d="M136.24,284.931l.007,1.672c2.1-.178,3.944-2.752,3.944-2.752Z" transform="translate(-133.007 -274.596)"/><path class="n" d="M138.48,266.171l-.488,3.629a5.26,5.26,0,0,1-3.764,4.386,6.859,6.859,0,0,1-3.691.341c-.538-.151-.884-.864-1.124-2.066a12.124,12.124,0,0,1-.207-2.767l.176-5.481S135.876,262.181,138.48,266.171Z" transform="translate(-129.198 -263.696)"/></g><path class="h" d="M135.751,264.954c1.022-.186,1.073,2.564,0,3.2s-1.163,5.356-.168,5.6c4.013.975,4.185-7.084,2.981-11.15a4.492,4.492,0,0,0-4.328-3.554c-2.023-.7-4.644-.389-5.835.832-.012.012-.029.024-.045.041a2.151,2.151,0,0,0-.536.942c-.012.066-.021.127-.029.184-.405,1.748.512,4.107.623,3.628a1.7,1.7,0,0,1,1.572-1.495c.549.807,1.72,2.219,3.227,2.158a1.362,1.362,0,0,0,.782-.237,6.55,6.55,0,0,0,.225,2.378S134.16,265.244,135.751,264.954Z" transform="translate(-127.687 -258.683)"/><path class="h" d="M127.952,263.366c-.057.23.041-.2,0,0Z" transform="translate(-127.821 -261.186)"/></g><g transform="translate(26.862 12.728)"><path class="l" d="M151.223,292.251s5.115,3.914,8.182,3.5c0,0,2.8-1.3,4.743-2.423s3.868-2.245,3.868-2.245l.738,1.87s-5.342,5.319-8.267,6.14-8.157-1.192-8.157-1.192A4.511,4.511,0,0,1,151.223,292.251Z" transform="translate(-150.629 -288.934)"/><path class="j" d="M188.335,288.552s-.252-.484-.077-.775a2.7,2.7,0,0,1,.815-.768c.154-.058.819-.018.768.289,0,0,1.621-1.172,2.03-.835.29.239-1.04,1.228-1.04,1.228a2.091,2.091,0,0,1,.734,1.433c-.034.785-1.007.751-1.007.751s-1.023.7-1.484.546S188.335,288.552,188.335,288.552Z" transform="translate(-170.946 -286.402)"/></g></g></g></g><rect class="aa" width="220" height="220" transform="translate(8816 3944)"/></g></svg>