<svg xmlns="http://www.w3.org/2000/svg" width="220" height="220" viewBox="0 0 220 220"><defs><style>.a{fill:#52e5cc;}.b,.q{mix-blend-mode:overlay;isolation:isolate;}.aw,.ax,.ay,.az,.ba,.c,.r,.s,.t,.u,.v,.w{fill:#fff;}.ak,.c{opacity:0;}.d{fill:#dcfeff;}.ab,.ai,.d,.r{opacity:0.167;}.e{fill:#b8feff;}.ad,.ag,.e,.s{opacity:0.333;}.f{fill:#95fdff;}.ae,.af,.f,.t{opacity:0.5;}.g{fill:#71fcfe;}.ac,.ah,.g,.u{opacity:0.667;}.h{fill:#4efcfe;}.aa,.aj,.h,.v{opacity:0.833;}.i{fill:#2afbfe;}.j{opacity:0.2;}.k{fill:#00d8ae;}.l{fill:#ccf7ef;}.m{fill:#5c697c;}.n{fill:#cbcfda;}.o{fill:#c5f9ff;}.p{fill:#f3e7e0;}.ax,.q{opacity:0.6;}.x{fill:#cb83ff;}.y{fill:#06bc99;}.aw,.z{opacity:0.4;}.ab{fill:#fcfefd;}.ad{fill:#f9fdfc;}.af{fill:#f6fcfa;}.ah{fill:#f3fbf8;}.aj{fill:#f0faf7;}.al{fill:#edf9f5;}.am{fill:#e6a376;}.an{fill:#460689;}.ao{fill:#111114;}.ap{fill:#37007f;}.aq{fill:#43008d;}.ar{fill:#5d0ca6;}.as{fill:#efb185;}.at{fill:#dd9569;}.au{fill:#8c2ddf;}.av{fill:#def0f9;}.ay{opacity:0.7;}.az{opacity:0.8;}.ba{opacity:0.9;}.bb{fill:none;}</style></defs><g transform="translate(-8727 -3604)"><g transform="translate(-105 399)"><g transform="translate(8846 3305.348)"><g transform="translate(5.669)"><path class="a" d="M290.783,96.068c35.133,20.283,35.308,53.278.408,73.563s-91.863,20.281-126.989,0-35.328-53.28-.423-73.563S255.655,75.787,290.783,96.068ZM165.175,169.063c34.581,19.964,90.677,19.964,125.03,0,34.369-19.971,34.184-52.462-.4-72.428s-90.684-19.97-125.047,0-34.175,52.458.414,72.428Z" transform="translate(-137.726 -80.857)"/><g transform="translate(72.912 42.23)"><path class="a" d="M206.472,106.886c6.6,3.807,6.64,10,.078,13.813s-17.254,3.809-23.848,0-6.627-10.006-.077-13.813S199.872,103.075,206.472,106.886Zm-22.793,13.246c6.053,3.5,15.876,3.5,21.892,0s5.982-9.184-.073-12.678-15.878-3.5-21.891,0-5.982,9.186.071,12.678Z" transform="translate(-177.732 -104.028)"/></g><g transform="translate(57.989 33.586)"><path class="a" d="M223.734,104.673c12.433,7.179,12.506,18.862.146,26.046s-32.532,7.179-44.966,0-12.5-18.867-.146-26.046S211.29,97.488,223.734,104.673ZM179.9,130.146c11.89,6.866,31.171,6.866,42.985,0s11.763-18.04-.129-24.905-31.189-6.867-43.007,0-11.745,18.038.151,24.905Z" transform="translate(-169.544 -99.285)"/></g><g transform="translate(44.199 25.599)"><path class="a" d="M239.677,102.627c17.832,10.294,17.936,27.047.213,37.346s-46.644,10.3-64.476,0-17.923-27.052-.21-37.346S221.84,92.328,239.677,102.627Zm-63.286,36.779c17.29,9.982,45.341,9.982,62.517,0s17.085-26.23-.2-36.21-45.338-9.984-62.517,0-17.088,26.228.2,36.21Z" transform="translate(-161.977 -94.903)"/></g><g transform="translate(28.327 16.404)"><path class="a" d="M258.033,100.27c24.043,13.884,24.178,36.471.283,50.355s-62.887,13.88-86.928,0-24.171-36.473-.283-50.355S233.982,86.386,258.033,100.27Zm-85.67,49.788c23.5,13.571,61.624,13.567,84.972,0s23.225-35.649-.277-49.22-61.622-13.567-84.971,0-23.227,35.651.275,49.22Z" transform="translate(-153.269 -89.858)"/></g><g transform="translate(13.715 7.94)"><path class="a" d="M274.921,98.1c29.764,17.181,29.917,45.137.348,62.324s-77.828,17.181-107.59,0-29.921-45.143-.359-62.322S245.159,80.917,274.921,98.1ZM168.658,159.86c29.215,16.869,76.6,16.869,105.626,0s28.884-44.321-.335-61.188-76.616-16.869-105.644,0-28.867,44.317.354,61.188Z" transform="translate(-145.251 -85.214)"/></g></g><g transform="translate(0 45.926)"><g class="b"><path class="c" d="M134.616,113.27a7.213,7.213,0,1,0,7.208-7.214A7.213,7.213,0,0,0,134.616,113.27Z" transform="translate(-134.616 -106.056)"/><path class="d" d="M135.1,112.922a6.356,6.356,0,1,0,6.352-6.357A6.356,6.356,0,0,0,135.1,112.922Z" transform="translate(-134.22 -105.637)"/><path class="e" d="M135.58,112.574a5.5,5.5,0,1,0,5.495-5.5A5.5,5.5,0,0,0,135.58,112.574Z" transform="translate(-133.823 -105.219)"/><path class="f" d="M136.061,112.227a4.644,4.644,0,1,0,4.638-4.644A4.644,4.644,0,0,0,136.061,112.227Z" transform="translate(-133.427 -104.8)"/><path class="g" d="M136.544,111.878a3.786,3.786,0,1,0,3.782-3.785A3.785,3.785,0,0,0,136.544,111.878Z" transform="translate(-133.03 -104.38)"/><path class="h" d="M137.026,111.531a2.93,2.93,0,1,0,2.923-2.929A2.929,2.929,0,0,0,137.026,111.531Z" transform="translate(-132.634 -103.962)"/><path class="i" d="M137.508,111.183a2.073,2.073,0,1,0,2.067-2.072A2.071,2.071,0,0,0,137.508,111.183Z" transform="translate(-132.237 -103.543)"/></g><g transform="translate(3.558 5.382)"><path class="a" d="M142.8,109.63c1.433.827,1.442,2.167.015,2.994a5.7,5.7,0,0,1-5.165-.005c-1.267-.731-1.418-1.863-.454-2.685a2.851,2.851,0,0,1,.434-.3,3.473,3.473,0,0,1,.53-.255A5.779,5.779,0,0,1,142.8,109.63Z" transform="translate(-136.568 -109.009)"/></g></g><g transform="translate(26.566 69.355)"><g class="b" transform="translate(0 0)"><path class="c" d="M134.616,113.27a7.213,7.213,0,1,0,7.208-7.214A7.213,7.213,0,0,0,134.616,113.27Z" transform="translate(-134.616 -106.056)"/><path class="d" d="M135.1,112.922a6.356,6.356,0,1,0,6.352-6.357A6.356,6.356,0,0,0,135.1,112.922Z" transform="translate(-134.22 -105.637)"/><path class="e" d="M135.58,112.574a5.5,5.5,0,1,0,5.495-5.5A5.5,5.5,0,0,0,135.58,112.574Z" transform="translate(-133.823 -105.219)"/><path class="f" d="M136.061,112.227a4.644,4.644,0,1,0,4.638-4.644A4.644,4.644,0,0,0,136.061,112.227Z" transform="translate(-133.427 -104.8)"/><path class="g" d="M136.544,111.878a3.786,3.786,0,1,0,3.782-3.785A3.785,3.785,0,0,0,136.544,111.878Z" transform="translate(-133.03 -104.38)"/><path class="h" d="M137.026,111.531a2.93,2.93,0,1,0,2.923-2.929A2.929,2.929,0,0,0,137.026,111.531Z" transform="translate(-132.634 -103.962)"/><path class="i" d="M137.508,111.183a2.073,2.073,0,1,0,2.067-2.072A2.071,2.071,0,0,0,137.508,111.183Z" transform="translate(-132.237 -103.543)"/></g><g transform="translate(3.558 5.382)"><path class="a" d="M142.8,109.63c1.433.827,1.442,2.167.015,2.994a5.7,5.7,0,0,1-5.165-.005c-1.267-.731-1.418-1.863-.454-2.685a2.851,2.851,0,0,1,.434-.3,3.473,3.473,0,0,1,.53-.255A5.779,5.779,0,0,1,142.8,109.63Z" transform="translate(-136.568 -109.009)"/></g></g><g transform="translate(49.811 81.689)"><g class="b" transform="translate(0 0)"><path class="c" d="M134.616,113.27a7.213,7.213,0,1,0,7.208-7.214A7.213,7.213,0,0,0,134.616,113.27Z" transform="translate(-134.616 -106.056)"/><path class="d" d="M135.1,112.922a6.356,6.356,0,1,0,6.352-6.357A6.356,6.356,0,0,0,135.1,112.922Z" transform="translate(-134.22 -105.637)"/><path class="e" d="M135.58,112.574a5.5,5.5,0,1,0,5.495-5.5A5.5,5.5,0,0,0,135.58,112.574Z" transform="translate(-133.823 -105.219)"/><path class="f" d="M136.061,112.227a4.644,4.644,0,1,0,4.638-4.644A4.644,4.644,0,0,0,136.061,112.227Z" transform="translate(-133.427 -104.8)"/><path class="g" d="M136.544,111.878a3.786,3.786,0,1,0,3.782-3.785A3.785,3.785,0,0,0,136.544,111.878Z" transform="translate(-133.03 -104.38)"/><path class="h" d="M137.026,111.531a2.93,2.93,0,1,0,2.923-2.929A2.929,2.929,0,0,0,137.026,111.531Z" transform="translate(-132.634 -103.962)"/><path class="i" d="M137.508,111.183a2.073,2.073,0,1,0,2.067-2.072A2.071,2.071,0,0,0,137.508,111.183Z" transform="translate(-132.237 -103.543)"/></g><g transform="translate(3.558 5.382)"><path class="a" d="M142.8,109.63c1.433.827,1.442,2.167.015,2.994a5.7,5.7,0,0,1-5.165-.005c-1.267-.731-1.418-1.863-.454-2.685a2.851,2.851,0,0,1,.434-.3,3.473,3.473,0,0,1,.53-.255A5.779,5.779,0,0,1,142.8,109.63Z" transform="translate(-136.568 -109.009)"/></g></g><g transform="translate(118.123 84.535)"><g class="b" transform="translate(0)"><path class="c" d="M134.616,113.27a7.213,7.213,0,1,0,7.208-7.214A7.213,7.213,0,0,0,134.616,113.27Z" transform="translate(-134.616 -106.056)"/><path class="d" d="M135.1,112.922a6.356,6.356,0,1,0,6.352-6.357A6.356,6.356,0,0,0,135.1,112.922Z" transform="translate(-134.22 -105.637)"/><path class="e" d="M135.58,112.574a5.5,5.5,0,1,0,5.495-5.5A5.5,5.5,0,0,0,135.58,112.574Z" transform="translate(-133.823 -105.219)"/><path class="f" d="M136.061,112.227a4.644,4.644,0,1,0,4.638-4.644A4.644,4.644,0,0,0,136.061,112.227Z" transform="translate(-133.427 -104.8)"/><path class="g" d="M136.544,111.878a3.786,3.786,0,1,0,3.782-3.785A3.785,3.785,0,0,0,136.544,111.878Z" transform="translate(-133.03 -104.38)"/><path class="h" d="M137.026,111.531a2.93,2.93,0,1,0,2.923-2.929A2.929,2.929,0,0,0,137.026,111.531Z" transform="translate(-132.634 -103.962)"/><path class="i" d="M137.508,111.183a2.073,2.073,0,1,0,2.067-2.072A2.071,2.071,0,0,0,137.508,111.183Z" transform="translate(-132.237 -103.543)"/></g><g transform="translate(3.558 5.382)"><path class="a" d="M142.8,109.63c1.433.827,1.442,2.167.015,2.994a5.7,5.7,0,0,1-5.165-.005c-1.267-.731-1.418-1.863-.454-2.685a2.851,2.851,0,0,1,.434-.3,3.473,3.473,0,0,1,.53-.255A5.779,5.779,0,0,1,142.8,109.63Z" transform="translate(-136.568 -109.009)"/></g></g><g transform="translate(164.139 71.252)"><g class="b"><path class="c" d="M134.616,113.27a7.213,7.213,0,1,0,7.208-7.214A7.213,7.213,0,0,0,134.616,113.27Z" transform="translate(-134.616 -106.056)"/><path class="d" d="M135.1,112.922a6.356,6.356,0,1,0,6.352-6.357A6.356,6.356,0,0,0,135.1,112.922Z" transform="translate(-134.22 -105.637)"/><path class="e" d="M135.58,112.574a5.5,5.5,0,1,0,5.495-5.5A5.5,5.5,0,0,0,135.58,112.574Z" transform="translate(-133.823 -105.219)"/><path class="f" d="M136.061,112.227a4.644,4.644,0,1,0,4.638-4.644A4.644,4.644,0,0,0,136.061,112.227Z" transform="translate(-133.427 -104.8)"/><path class="g" d="M136.544,111.878a3.786,3.786,0,1,0,3.782-3.785A3.785,3.785,0,0,0,136.544,111.878Z" transform="translate(-133.03 -104.38)"/><path class="h" d="M137.026,111.531a2.93,2.93,0,1,0,2.923-2.929A2.929,2.929,0,0,0,137.026,111.531Z" transform="translate(-132.634 -103.962)"/><path class="i" d="M137.508,111.183a2.073,2.073,0,1,0,2.067-2.072A2.071,2.071,0,0,0,137.508,111.183Z" transform="translate(-132.237 -103.543)"/></g><g transform="translate(3.558 5.382)"><path class="a" d="M142.8,109.63c1.433.827,1.442,2.167.015,2.994a5.7,5.7,0,0,1-5.165-.005c-1.267-.731-1.418-1.863-.454-2.685a2.851,2.851,0,0,1,.434-.3,3.473,3.473,0,0,1,.53-.255A5.779,5.779,0,0,1,142.8,109.63Z" transform="translate(-136.568 -109.009)"/></g></g><g transform="translate(177.897 39.942)"><g class="b" transform="translate(0)"><path class="c" d="M134.616,113.27a7.213,7.213,0,1,0,7.208-7.214A7.213,7.213,0,0,0,134.616,113.27Z" transform="translate(-134.616 -106.056)"/><path class="d" d="M135.1,112.922a6.356,6.356,0,1,0,6.352-6.357A6.356,6.356,0,0,0,135.1,112.922Z" transform="translate(-134.22 -105.637)"/><path class="e" d="M135.58,112.574a5.5,5.5,0,1,0,5.495-5.5A5.5,5.5,0,0,0,135.58,112.574Z" transform="translate(-133.823 -105.219)"/><path class="f" d="M136.061,112.227a4.644,4.644,0,1,0,4.638-4.644A4.644,4.644,0,0,0,136.061,112.227Z" transform="translate(-133.427 -104.8)"/><path class="g" d="M136.544,111.878a3.786,3.786,0,1,0,3.782-3.785A3.785,3.785,0,0,0,136.544,111.878Z" transform="translate(-133.03 -104.38)"/><path class="h" d="M137.026,111.531a2.93,2.93,0,1,0,2.923-2.929A2.929,2.929,0,0,0,137.026,111.531Z" transform="translate(-132.634 -103.962)"/><path class="i" d="M137.508,111.183a2.073,2.073,0,1,0,2.067-2.072A2.071,2.071,0,0,0,137.508,111.183Z" transform="translate(-132.237 -103.543)"/></g><g transform="translate(3.558 5.382)"><path class="a" d="M142.8,109.63c1.433.827,1.442,2.167.015,2.994a5.7,5.7,0,0,1-5.165-.005c-1.267-.731-1.418-1.863-.454-2.685a2.851,2.851,0,0,1,.434-.3,3.473,3.473,0,0,1,.53-.255A5.779,5.779,0,0,1,142.8,109.63Z" transform="translate(-136.568 -109.009)"/></g></g></g><g class="j" transform="translate(8877.871 3316.994)"><path d="M152.1,131.3l39.675,22.055c2.511,1.389,7.549,1.183,10.082-.217C219.4,143.443,271.07,114.6,271.07,114.6c2.537-1.411,2.55-3.663.042-5.058l-40.1-22.3Z" transform="translate(-152.103 -87.247)"/></g><g transform="translate(8912.142 3334.362)"><path class="k" d="M274.715,112.445a2.053,2.053,0,0,1-1.207,1.71l-2.143,1.232-.013-2.712-4.267-2.482-4.2,2.422,2.4,1.394,1.8-1.042,1.877,1.094-1.8,1.035-4.281-2.48v.149l-2.043-1.188a6.631,6.631,0,0,0-.731-1.72l1.36-.786-.011-2.774-4.268-2.488-.962.56v-1.112l-4.272-2.482-.957.545v-1.1l-4.276-2.484-4.192,2.417,0,.676-.587-.335-4.194,2.422v.678l-.587-.346-4.192,2.424v.68L232.4,106l-4.2,2.424v.667l-.576-.334-4.2,2.424v.669l-.58-.335-4.2,2.424,0,.669-.574-.335-4.2,2.422.007.678-.587-.339-4.194,2.417v.678l-.58-.337-4.2,2.419.006.678-.585-.339-4.2,2.422v.671l-.576-.343-4.2,2.426v.673l-.578-.334-4.2,2.422v.669l-.581-.337-4.185,2.42h0l0,.676-.585-.337-4.2,2.42.013,2.488-2.16-1.245-4.2,2.426v2.544l-1.99-1.163a2.057,2.057,0,0,1-1.2-1.684l.009,2.779a2.057,2.057,0,0,0,1.2,1.684l24.4,14.179a6.512,6.512,0,0,0,5.858,0l71.145-41.08a2.066,2.066,0,0,0,1.214-1.7C274.728,114.3,274.725,113.369,274.715,112.445Z" transform="translate(-170.907 -95.991)"/><g transform="translate(0.007)"><path class="l" d="M273.526,111.651,249.133,97.479a6.46,6.46,0,0,0-5.859,0l-71.145,41.067c-1.613.933-1.626,2.462-.022,3.4l24.4,14.174a6.456,6.456,0,0,0,5.852,0l71.145-41.071C275.126,114.11,275.133,112.588,273.526,111.651Z" transform="translate(-170.911 -96.777)"/><g transform="translate(6.643 3.772)"><path class="m" d="M213.341,103.5a.962.962,0,0,1-.476-.129l-2.431-1.412a.945.945,0,0,1,0-1.628l2.36-1.356a.935.935,0,0,1,.937,0l2.431,1.414a.932.932,0,0,1,0,1.626l-2.347,1.358A.9.9,0,0,1,213.341,103.5Z" transform="translate(-145.427 -98.846)"/><path class="n" d="M213.607,99.026l2.429,1.412a.8.8,0,0,1,0,1.4l-2.355,1.361a.8.8,0,0,1-.8-.005l-2.437-1.411a.807.807,0,0,1,0-1.4l2.353-1.358A.818.818,0,0,1,213.607,99.026Z" transform="translate(-145.367 -98.786)"/><path class="m" d="M210.869,104.922a.883.883,0,0,1-.47-.129l-2.431-1.407a.926.926,0,0,1-.474-.815.947.947,0,0,1,.474-.815l2.349-1.354a.89.89,0,0,1,.465-.128.906.906,0,0,1,.477.128l2.426,1.409a.926.926,0,0,1,.474.817.942.942,0,0,1-.474.813l-2.353,1.352A.871.871,0,0,1,210.869,104.922Z" transform="translate(-147.463 -97.671)"/><path class="n" d="M211.131,100.46l2.433,1.407a.806.806,0,0,1-.007,1.4l-2.344,1.358a.811.811,0,0,1-.811,0l-2.433-1.409a.8.8,0,0,1,0-1.392l2.351-1.36A.8.8,0,0,1,211.131,100.46Z" transform="translate(-147.402 -97.61)"/><path class="m" d="M208.394,106.352a.955.955,0,0,1-.474-.126l-2.428-1.414a.927.927,0,0,1-.472-.809.945.945,0,0,1,.472-.818l2.349-1.358a1.039,1.039,0,0,1,.468-.124,1,1,0,0,1,.479.128l2.426,1.414a.924.924,0,0,1,.468.811.94.94,0,0,1-.468.813l-2.353,1.358A.955.955,0,0,1,208.394,106.352Z" transform="translate(-149.498 -96.496)"/><path class="n" d="M208.655,101.885l2.433,1.411a.81.81,0,0,1,0,1.4l-2.355,1.36a.809.809,0,0,1-.807,0l-2.428-1.412a.8.8,0,0,1,0-1.392l2.353-1.361A.8.8,0,0,1,208.655,101.885Z" transform="translate(-149.437 -96.436)"/><path class="m" d="M213.578,106.5a.977.977,0,0,1-.478-.126l-2.428-1.409a.943.943,0,0,1-.467-.815.927.927,0,0,1,.467-.809l2.357-1.363a.936.936,0,0,1,.47-.126.946.946,0,0,1,.47.126l2.428,1.412a.948.948,0,0,1,.47.82.932.932,0,0,1-.476.8l-2.349,1.36A.977.977,0,0,1,213.578,106.5Z" transform="translate(-145.232 -96.376)"/><path class="n" d="M213.834,102.031l2.439,1.414a.8.8,0,0,1-.011,1.394l-2.349,1.356a.811.811,0,0,1-.8,0l-2.428-1.412a.806.806,0,0,1,0-1.394l2.351-1.358A.8.8,0,0,1,213.834,102.031Z" transform="translate(-145.172 -96.315)"/><path class="m" d="M218.762,106.643a.951.951,0,0,1-.474-.128l-2.428-1.409a.941.941,0,0,1,0-1.628l2.355-1.358a.951.951,0,0,1,.939,0l2.428,1.412a.94.94,0,0,1,0,1.624l-2.347,1.358A.981.981,0,0,1,218.762,106.643Z" transform="translate(-140.967 -96.254)"/><path class="n" d="M219.031,102.175l2.424,1.414a.808.808,0,0,1,0,1.394L219.1,106.34a.8.8,0,0,1-.8,0l-2.431-1.411a.807.807,0,0,1,0-1.394l2.351-1.36A.831.831,0,0,1,219.031,102.175Z" transform="translate(-140.906 -96.195)"/><path class="m" d="M206.028,107.839a.721.721,0,0,1-.344-.091l-2.938-1.71a.684.684,0,0,1-.339-.589.67.67,0,0,1,.344-.6l2.865-1.648a.62.62,0,0,1,.335-.095.66.66,0,0,1,.343.095l2.943,1.706a.687.687,0,0,1,0,1.183l-2.867,1.653A.7.7,0,0,1,206.028,107.839Z" transform="translate(-151.647 -95.338)"/><path class="n" d="M206.164,103.257l2.943,1.71a.552.552,0,0,1,0,.953l-2.865,1.651a.54.54,0,0,1-.545,0l-2.942-1.71a.549.549,0,0,1,0-.953l2.858-1.651A.552.552,0,0,1,206.164,103.257Z" transform="translate(-151.586 -95.278)"/><path class="m" d="M216.283,108.071a.952.952,0,0,1-.468-.126l-2.437-1.412a.941.941,0,0,1-.461-.811.93.93,0,0,1,.468-.815l2.346-1.354a.919.919,0,0,1,.47-.126.971.971,0,0,1,.476.126l2.428,1.407a.946.946,0,0,1,0,1.633l-2.349,1.352A1.016,1.016,0,0,1,216.283,108.071Z" transform="translate(-143.002 -95.078)"/><path class="n" d="M216.55,103.608l2.428,1.409a.81.81,0,0,1,0,1.4l-2.344,1.352a.818.818,0,0,1-.815,0l-2.429-1.409a.811.811,0,0,1,0-1.4l2.355-1.354A.809.809,0,0,1,216.55,103.608Z" transform="translate(-142.943 -95.018)"/><path class="m" d="M203.558,109.268a.621.621,0,0,1-.341-.095l-2.945-1.7a.687.687,0,0,1,0-1.185l2.869-1.657a.707.707,0,0,1,.341-.093.734.734,0,0,1,.346.093l2.942,1.713a.668.668,0,0,1,.341.59.676.676,0,0,1-.341.589l-2.874,1.653A.593.593,0,0,1,203.558,109.268Z" transform="translate(-153.682 -94.167)"/><path class="n" d="M203.7,104.683l2.94,1.706a.555.555,0,0,1,0,.957L203.771,109a.553.553,0,0,1-.552,0l-2.938-1.706a.549.549,0,0,1,0-.951l2.867-1.659A.553.553,0,0,1,203.7,104.683Z" transform="translate(-153.622 -94.105)"/><path class="m" d="M213.807,109.5a.977.977,0,0,1-.476-.126l-2.42-1.405a.941.941,0,0,1,0-1.629l2.351-1.356a.9.9,0,0,1,.468-.126.946.946,0,0,1,.474.129l2.422,1.4a.926.926,0,0,1,.47.818.95.95,0,0,1-.47.811l-2.357,1.356A.933.933,0,0,1,213.807,109.5Z" transform="translate(-145.037 -93.903)"/><path class="n" d="M214.075,105.034l2.426,1.409a.8.8,0,0,1-.007,1.392l-2.346,1.36a.828.828,0,0,1-.813,0l-2.42-1.405a.808.808,0,0,1,0-1.394l2.357-1.361A.811.811,0,0,1,214.075,105.034Z" transform="translate(-144.977 -93.844)"/><path class="m" d="M201.026,110.669a.811.811,0,0,1-.394-.106l-2.717-1.582a.782.782,0,0,1-.4-.689.79.79,0,0,1,.4-.687l2.637-1.524a.858.858,0,0,1,.406-.1.809.809,0,0,1,.394.1l2.719,1.578a.8.8,0,0,1,0,1.38l-2.645,1.524A.83.83,0,0,1,201.026,110.669Z" transform="translate(-155.668 -92.98)"/><path class="n" d="M201.23,106.138l2.717,1.578a.656.656,0,0,1,0,1.143l-2.648,1.527a.643.643,0,0,1-.662,0l-2.719-1.58a.661.661,0,0,1,.005-1.145l2.645-1.524A.669.669,0,0,1,201.23,106.138Z" transform="translate(-155.608 -92.92)"/><path class="m" d="M203.737,114.1a.758.758,0,0,1-.4-.113l-2.714-1.571a.8.8,0,0,1,.005-1.38l9.738-5.623a.778.778,0,0,1,.4-.106.82.82,0,0,1,.4.106l2.71,1.58a.779.779,0,0,1,.4.687.787.787,0,0,1-.4.689l-9.743,5.621A.792.792,0,0,1,203.737,114.1Z" transform="translate(-153.439 -93.534)"/><path class="n" d="M211.038,105.472l2.716,1.571a.668.668,0,0,1,0,1.148l-9.745,5.621a.667.667,0,0,1-.665,0l-2.712-1.575a.656.656,0,0,1,0-1.143l9.738-5.624A.646.646,0,0,1,211.038,105.472Z" transform="translate(-153.38 -93.474)"/><path class="m" d="M196.086,113.524a.8.8,0,0,1-.4-.1l-2.723-1.582a.8.8,0,0,1,.005-1.376l2.639-1.525a.793.793,0,0,1,.791,0l2.723,1.576a.8.8,0,0,1,.4.691.787.787,0,0,1-.4.689l-2.639,1.524A.825.825,0,0,1,196.086,113.524Z" transform="translate(-159.737 -90.631)"/><path class="n" d="M196.277,109l2.717,1.578a.659.659,0,0,1,0,1.145l-2.641,1.522a.655.655,0,0,1-.663,0l-2.716-1.58a.66.66,0,0,1,0-1.143l2.635-1.525A.664.664,0,0,1,196.277,109Z" transform="translate(-159.675 -90.571)"/><path class="m" d="M201.265,113.675a.774.774,0,0,1-.4-.108l-2.716-1.582a.781.781,0,0,1-.4-.689.771.771,0,0,1,.4-.683l2.639-1.525a.835.835,0,0,1,.4-.108.782.782,0,0,1,.4.108l2.717,1.576a.781.781,0,0,1,.392.687.8.8,0,0,1-.392.687l-2.646,1.529A.793.793,0,0,1,201.265,113.675Z" transform="translate(-155.474 -90.51)"/><path class="n" d="M201.466,109.141l2.712,1.575a.662.662,0,0,1,0,1.148l-2.645,1.527a.668.668,0,0,1-.663-.005l-2.71-1.575a.661.661,0,0,1,0-1.146l2.645-1.524A.675.675,0,0,1,201.466,109.141Z" transform="translate(-155.412 -90.449)"/><path class="m" d="M212.737,115.945a.933.933,0,0,1-.457-.129l-3.842-2.224,2.05-1.192-3.3-1.919a.9.9,0,0,1-.457-.791.909.909,0,0,1,.457-.793l3.073-1.772a.906.906,0,0,1,.461-.124.9.9,0,0,1,.454.124l8.513,4.948-6.488,3.747A.991.991,0,0,1,212.737,115.945Z" transform="translate(-148.093 -92.137)"/><path class="n" d="M210.268,107.18a.777.777,0,0,1,.776,0l4.278,2.49,2.685,1.558,1.354.786-6.293,3.631a.783.783,0,0,1-.782,0l-3.643-2.112,2.05-1.192-3.5-2.036a.784.784,0,0,1,0-1.352Z" transform="translate(-148.032 -92.076)"/><path class="m" d="M193.615,114.955a.846.846,0,0,1-.41-.108l-2.71-1.582a.775.775,0,0,1-.4-.685.791.791,0,0,1,.4-.689l2.645-1.522a.789.789,0,0,1,.394-.108.822.822,0,0,1,.4.108l2.714,1.58a.793.793,0,0,1,0,1.376l-2.637,1.524A.837.837,0,0,1,193.615,114.955Z" transform="translate(-161.772 -89.456)"/><path class="n" d="M193.808,110.424l2.717,1.582a.666.666,0,0,1,0,1.146l-2.643,1.52a.673.673,0,0,1-.663,0l-2.717-1.584a.657.657,0,0,1,0-1.143l2.639-1.522A.67.67,0,0,1,193.808,110.424Z" transform="translate(-161.713 -89.396)"/><path class="m" d="M198.794,115.106a.78.78,0,0,1-.4-.111l-2.717-1.578a.8.8,0,0,1,.006-1.378l2.646-1.525a.778.778,0,0,1,.789,0l2.719,1.576a.787.787,0,0,1,.394.687.774.774,0,0,1-.4.687L199.191,115A.816.816,0,0,1,198.794,115.106Z" transform="translate(-157.508 -89.337)"/><path class="n" d="M198.991,110.568l2.717,1.578a.665.665,0,0,1,0,1.145l-2.646,1.529a.659.659,0,0,1-.663-.005l-2.712-1.575a.661.661,0,0,1,0-1.146l2.635-1.525A.676.676,0,0,1,198.991,110.568Z" transform="translate(-157.447 -89.276)"/><path class="m" d="M198.367,113.891l4.226-2.44,4.294,2.494-4.223,2.439Z" transform="translate(-154.971 -88.478)"/><path class="n" d="M202.472,111.536l4.025,2.339-3.954,2.288-4.029-2.342Z" transform="translate(-154.85 -88.408)"/><path class="m" d="M191.134,116.385a.82.82,0,0,1-.4-.108l-2.719-1.58a.8.8,0,0,1,0-1.378l2.639-1.522a.8.8,0,0,1,.8,0l2.71,1.582a.783.783,0,0,1,.4.689.8.8,0,0,1-.4.689l-2.632,1.52A.854.854,0,0,1,191.134,116.385Z" transform="translate(-163.809 -88.281)"/><path class="n" d="M191.333,111.857l2.716,1.578a.663.663,0,0,1-.005,1.145l-2.637,1.524a.682.682,0,0,1-.663,0l-2.716-1.582a.665.665,0,0,1,0-1.148l2.641-1.52A.658.658,0,0,1,191.333,111.857Z" transform="translate(-163.747 -88.22)"/><path class="m" d="M196.315,116.532a.781.781,0,0,1-.4-.109l-2.712-1.575a.791.791,0,0,1-.394-.691.779.779,0,0,1,.394-.685l2.648-1.527a.782.782,0,0,1,.39-.109.8.8,0,0,1,.4.109l2.714,1.577a.788.788,0,0,1,.4.689.8.8,0,0,1-.4.691l-2.637,1.525A.819.819,0,0,1,196.315,116.532Z" transform="translate(-159.543 -88.162)"/><path class="n" d="M196.517,112l2.716,1.58a.66.66,0,0,1,0,1.145l-2.646,1.527a.657.657,0,0,1-.66-.007l-2.712-1.575a.664.664,0,0,1,0-1.148L195.853,112A.673.673,0,0,1,196.517,112Z" transform="translate(-159.482 -88.1)"/><path class="m" d="M195.92,115.305l4.235-2.446,4.29,2.5-4.229,2.445Z" transform="translate(-156.983 -87.32)"/><path class="n" d="M200.034,112.946l4.028,2.342-3.966,2.29-4.029-2.344Z" transform="translate(-156.862 -87.248)"/><path class="m" d="M188.666,117.814a.828.828,0,0,1-.4-.1l-2.719-1.586a.8.8,0,0,1,0-1.38l2.646-1.527a.822.822,0,0,1,.4-.1.8.8,0,0,1,.4.111L191.7,114.8a.793.793,0,0,1,0,1.374l-2.643,1.536A.9.9,0,0,1,188.666,117.814Z" transform="translate(-165.842 -87.107)"/><path class="n" d="M188.862,113.277l2.716,1.582a.659.659,0,0,1,0,1.146l-2.643,1.525a.653.653,0,0,1-.667,0l-2.719-1.58a.664.664,0,0,1,.005-1.146l2.643-1.527A.676.676,0,0,1,188.862,113.277Z" transform="translate(-165.783 -87.047)"/><path class="m" d="M193.842,117.96a.793.793,0,0,1-.4-.108l-2.714-1.582a.783.783,0,0,1-.392-.685.8.8,0,0,1,.392-.691l2.646-1.522a.773.773,0,0,1,.793,0l2.714,1.58a.8.8,0,0,1,0,1.376l-2.639,1.524A.779.779,0,0,1,193.842,117.96Z" transform="translate(-161.578 -86.987)"/><path class="n" d="M194.044,113.426,196.758,115a.67.67,0,0,1-.005,1.148l-2.639,1.525a.654.654,0,0,1-.665-.005l-2.712-1.577a.663.663,0,0,1,0-1.146l2.644-1.525A.677.677,0,0,1,194.044,113.426Z" transform="translate(-161.519 -86.926)"/><path class="m" d="M208.421,119.936a.923.923,0,0,1-.457-.126l-2.477-1.44a.9.9,0,0,1,.009-1.58l6.313-3.647a.906.906,0,0,1,.456-.122.864.864,0,0,1,.456.128l2.471,1.438a.873.873,0,0,1,.456.789.894.894,0,0,1-.456.787l-6.315,3.652A.9.9,0,0,1,208.421,119.936Z" transform="translate(-149.492 -87.186)"/><path class="n" d="M212.6,113.2l2.473,1.442a.779.779,0,0,1-.009,1.349l-6.315,3.645a.775.775,0,0,1-.78,0l-2.473-1.442a.775.775,0,0,1,0-1.347l6.319-3.651A.8.8,0,0,1,212.6,113.2Z" transform="translate(-149.43 -87.126)"/><path class="m" d="M197.369,119.01a.882.882,0,0,1-.452-.118l-2.506-1.46a.9.9,0,0,1,0-1.558l2.431-1.4a.915.915,0,0,1,.9,0l2.5,1.456a.9.9,0,0,1,0,1.558l-2.429,1.407A.883.883,0,0,1,197.369,119.01Z" transform="translate(-158.589 -86.092)"/><path class="n" d="M197.62,114.532l2.5,1.449a.766.766,0,0,1,0,1.327l-2.424,1.407a.783.783,0,0,1-.775,0l-2.5-1.454a.768.768,0,0,1,0-1.33l2.428-1.4A.752.752,0,0,1,197.62,114.532Z" transform="translate(-158.529 -86.031)"/><path class="m" d="M186.093,119.193a.992.992,0,0,1-.5-.131l-2.306-1.34a1.008,1.008,0,0,1,.009-1.746l2.213-1.276a1.063,1.063,0,0,1,.5-.135,1.026,1.026,0,0,1,.508.137l2.295,1.332a1.006,1.006,0,0,1,0,1.742l-2.216,1.285A1.031,1.031,0,0,1,186.093,119.193Z" transform="translate(-167.784 -85.916)"/><path class="n" d="M186.4,114.759l2.289,1.33a.872.872,0,0,1,0,1.515l-2.216,1.279a.876.876,0,0,1-.877,0l-2.3-1.332a.879.879,0,0,1,.005-1.518l2.213-1.279A.886.886,0,0,1,186.4,114.759Z" transform="translate(-167.722 -85.856)"/><path class="m" d="M191.272,119.336a1.026,1.026,0,0,1-.508-.135l-2.285-1.33a.981.981,0,0,1-.5-.873,1,1,0,0,1,.5-.873l2.218-1.279a1.031,1.031,0,0,1,1.013,0l2.287,1.33a1.008,1.008,0,0,1-.005,1.746l-2.216,1.283A1.026,1.026,0,0,1,191.272,119.336Z" transform="translate(-163.517 -85.796)"/><path class="n" d="M191.588,114.9l2.276,1.33a.875.875,0,0,1,0,1.516l-2.214,1.279a.88.88,0,0,1-.877,0l-2.289-1.329a.876.876,0,0,1,0-1.515L190.7,114.9A.89.89,0,0,1,191.588,114.9Z" transform="translate(-163.457 -85.736)"/><path class="m" d="M194.92,120.42a.93.93,0,0,1-.459-.12l-2.493-1.458a.876.876,0,0,1-.445-.778.889.889,0,0,1,.445-.78l2.429-1.4a.9.9,0,0,1,.9,0l2.5,1.453a.9.9,0,0,1,0,1.56l-2.431,1.4A.88.88,0,0,1,194.92,120.42Z" transform="translate(-160.6 -84.931)"/><path class="n" d="M195.175,115.938l2.5,1.453a.768.768,0,0,1,0,1.329l-2.429,1.405a.765.765,0,0,1-.767,0l-2.5-1.46a.769.769,0,0,1,0-1.327l2.428-1.4A.788.788,0,0,1,195.175,115.938Z" transform="translate(-160.541 -84.871)"/><path class="m" d="M183.617,120.621a1.018,1.018,0,0,1-.51-.139l-2.285-1.329a1.011,1.011,0,0,1,0-1.746l2.214-1.283a1.054,1.054,0,0,1,.5-.133,1.027,1.027,0,0,1,.5.137l2.3,1.33a1,1,0,0,1,.5.878,1.011,1.011,0,0,1-.5.875l-2.22,1.27A.966.966,0,0,1,183.617,120.621Z" transform="translate(-169.815 -84.743)"/><path class="n" d="M183.922,116.186l2.289,1.332a.876.876,0,0,1,0,1.515L184,120.311a.882.882,0,0,1-.882-.005l-2.287-1.329a.874.874,0,0,1,0-1.513l2.213-1.278A.869.869,0,0,1,183.922,116.186Z" transform="translate(-169.756 -84.682)"/><path class="m" d="M188.8,120.767a1.013,1.013,0,0,1-.507-.135L186,119.3a1.009,1.009,0,0,1,.005-1.75l2.216-1.281a1.031,1.031,0,0,1,1.01,0l2.291,1.332a1,1,0,0,1,.5.873.989.989,0,0,1-.51.873l-2.216,1.281A1.015,1.015,0,0,1,188.8,120.767Z" transform="translate(-165.555 -84.621)"/><path class="n" d="M189.1,116.329l2.293,1.33a.875.875,0,0,1,0,1.511l-2.222,1.283a.867.867,0,0,1-.877,0l-2.289-1.33a.874.874,0,0,1,0-1.513l2.218-1.281A.878.878,0,0,1,189.1,116.329Z" transform="translate(-165.494 -84.561)"/><path class="m" d="M192.429,121.805a1.036,1.036,0,0,1-.514-.135l-2.28-1.329a1.009,1.009,0,0,1,0-1.746l2.222-1.279a.979.979,0,0,1,.5-.131,1.043,1.043,0,0,1,.51.131l2.278,1.325a1.016,1.016,0,0,1,0,1.75l-2.224,1.279A.97.97,0,0,1,192.429,121.805Z" transform="translate(-162.565 -83.761)"/><path class="n" d="M192.746,117.375l2.282,1.327a.877.877,0,0,1-.007,1.516l-2.213,1.281a.888.888,0,0,1-.878,0l-2.284-1.327a.877.877,0,0,1,0-1.52l2.22-1.278A.874.874,0,0,1,192.746,117.375Z" transform="translate(-162.506 -83.703)"/><path class="m" d="M181.143,122.045a1.044,1.044,0,0,1-.508-.129l-2.293-1.338a1.013,1.013,0,0,1,.007-1.746l2.213-1.276a1.019,1.019,0,0,1,1.013,0l2.291,1.332a1,1,0,0,1,.5.875,1.013,1.013,0,0,1-.509.873l-2.216,1.276A1.022,1.022,0,0,1,181.143,122.045Z" transform="translate(-171.85 -83.566)"/><path class="n" d="M181.448,117.614l2.293,1.332a.872.872,0,0,1-.006,1.515l-2.214,1.276a.873.873,0,0,1-.875,0l-2.293-1.334a.874.874,0,0,1,0-1.513l2.218-1.279A.894.894,0,0,1,181.448,117.614Z" transform="translate(-171.792 -83.505)"/><path class="m" d="M186.323,122.193a1.073,1.073,0,0,1-.508-.133l-2.28-1.332a1.007,1.007,0,0,1,0-1.748l2.213-1.276a.969.969,0,0,1,.507-.135.937.937,0,0,1,.5.137l2.289,1.33a1.007,1.007,0,0,1-.007,1.746l-2.211,1.278A1.065,1.065,0,0,1,186.323,122.193Z" transform="translate(-167.587 -83.446)"/><path class="n" d="M186.631,117.758l2.287,1.334a.876.876,0,0,1,0,1.513l-2.213,1.279a.884.884,0,0,1-.878,0l-2.289-1.329a.876.876,0,0,1,.007-1.516l2.209-1.279A.879.879,0,0,1,186.631,117.758Z" transform="translate(-167.525 -83.387)"/><path class="m" d="M189.988,123.223a1.054,1.054,0,0,1-.51-.137l-2.289-1.329a1,1,0,0,1-.5-.875.988.988,0,0,1,.507-.871l2.214-1.279a.986.986,0,0,1,.5-.135,1.029,1.029,0,0,1,.507.135l2.287,1.329a1.006,1.006,0,0,1,.5.875,1.024,1.024,0,0,1-.5.877l-2.216,1.274A1.017,1.017,0,0,1,189.988,123.223Z" transform="translate(-164.576 -82.6)"/><path class="n" d="M190.289,118.789l2.287,1.329a.874.874,0,0,1-.006,1.515l-2.209,1.278a.867.867,0,0,1-.877,0l-2.291-1.33a.878.878,0,0,1,0-1.513l2.216-1.278A.864.864,0,0,1,190.289,118.789Z" transform="translate(-164.514 -82.54)"/><path class="m" d="M177.853,123.949a1.045,1.045,0,0,1-.5-.131l-2.293-1.334a1.016,1.016,0,0,1,0-1.751l2.22-1.278a1,1,0,0,1,.5-.137,1.009,1.009,0,0,1,.51.137l2.289,1.338a.991.991,0,0,1,.509.869,1,1,0,0,1-.512.877l-2.214,1.279A1.049,1.049,0,0,1,177.853,123.949Z" transform="translate(-174.556 -82.007)"/><path class="n" d="M178.16,119.51l2.289,1.332a.873.873,0,0,1,0,1.513l-2.214,1.283a.874.874,0,0,1-.88,0l-2.291-1.329a.88.88,0,0,1,0-1.518l2.218-1.278A.879.879,0,0,1,178.16,119.51Z" transform="translate(-174.496 -81.946)"/><path class="m" d="M187.534,124.632a1.027,1.027,0,0,1-.5-.139l-2.284-1.327a.992.992,0,0,1-.5-.873,1,1,0,0,1,.5-.871l2.211-1.278a1.014,1.014,0,0,1,1.017,0l2.28,1.325a1,1,0,0,1,.5.878.99.99,0,0,1-.5.869l-2.214,1.281A1.036,1.036,0,0,1,187.534,124.632Z" transform="translate(-166.586 -81.439)"/><path class="n" d="M187.842,120.2l2.287,1.325a.877.877,0,0,1,0,1.516l-2.207,1.278a.874.874,0,0,1-.88-.005l-2.284-1.321a.871.871,0,0,1,0-1.513l2.211-1.279A.876.876,0,0,1,187.842,120.2Z" transform="translate(-166.528 -81.378)"/><path class="m" d="M197.526,129.225a.911.911,0,0,1-.456-.12l-2.5-1.454a.9.9,0,0,1,0-1.558l17.834-10.3a.917.917,0,0,1,.456-.118.9.9,0,0,1,.448.122l2.5,1.456a.88.88,0,0,1,.447.78.894.894,0,0,1-.447.78l-17.835,10.3A.885.885,0,0,1,197.526,129.225Z" transform="translate(-158.458 -85.007)"/><path class="n" d="M213.191,115.851l2.5,1.453a.764.764,0,0,1-.007,1.327l-17.832,10.3a.766.766,0,0,1-.765,0l-2.5-1.454a.767.767,0,0,1,0-1.33l17.832-10.3A.782.782,0,0,1,213.191,115.851Z" transform="translate(-158.4 -84.946)"/><path class="m" d="M180.558,127.033a1,1,0,0,1-.5-.139l-2.289-1.329a1,1,0,0,1-.5-.871,1,1,0,0,1,.5-.873l8.014-4.631a1.038,1.038,0,0,1,.5-.133,1.011,1.011,0,0,1,.508.14l2.289,1.327a.991.991,0,0,1,.5.877,1.006,1.006,0,0,1-.5.869l-8.019,4.624A.964.964,0,0,1,180.558,127.033Z" transform="translate(-172.328 -82.221)"/><path class="n" d="M186.667,119.254l2.285,1.33a.871.871,0,0,1,0,1.509l-8.01,4.624a.862.862,0,0,1-.878,0l-2.291-1.329a.877.877,0,0,1,.007-1.515l8.016-4.626A.86.86,0,0,1,186.667,119.254Z" transform="translate(-172.267 -82.16)"/><path class="m" d="M183.271,127.956a1.011,1.011,0,0,1-.507-.133l-2.291-1.332a.97.97,0,0,1-.5-.871.99.99,0,0,1,.5-.873L186,121.559a.98.98,0,0,1,.5-.133,1.014,1.014,0,0,1,.5.133l2.287,1.327a1.016,1.016,0,0,1,0,1.751l-5.517,3.186A1.035,1.035,0,0,1,183.271,127.956Z" transform="translate(-170.096 -80.273)"/><path class="n" d="M186.884,121.618l2.285,1.329a.873.873,0,0,1,0,1.513l-5.52,3.188a.867.867,0,0,1-.877,0l-2.289-1.329a.88.88,0,0,1,0-1.518l5.522-3.182A.871.871,0,0,1,186.884,121.618Z" transform="translate(-170.038 -80.213)"/><path class="m" d="M193.516,128.233a.908.908,0,0,1-.448-.12l-2.5-1.451a.9.9,0,0,1,0-1.562l5.154-2.98a.921.921,0,0,1,.448-.118.9.9,0,0,1,.459.124l2.5,1.449a.9.9,0,0,1,0,1.56l-5.158,2.978A.925.925,0,0,1,193.516,128.233Z" transform="translate(-161.755 -79.799)"/><path class="n" d="M196.5,122.179l2.5,1.454a.767.767,0,0,1,0,1.329l-5.156,2.978a.766.766,0,0,1-.765,0l-2.508-1.451a.775.775,0,0,1,0-1.332l5.161-2.974A.764.764,0,0,1,196.5,122.179Z" transform="translate(-161.695 -79.739)"/><path class="m" d="M188.7,131.274a.954.954,0,0,1-.5-.139l-2.291-1.323a1.012,1.012,0,0,1,0-1.75l6.126-3.541a1.032,1.032,0,0,1,.507-.133,1,1,0,0,1,.5.135l2.289,1.33a1.011,1.011,0,0,1,.5.873.993.993,0,0,1-.51.869l-6.122,3.539A.983.983,0,0,1,188.7,131.274Z" transform="translate(-165.628 -77.837)"/><path class="n" d="M192.924,124.579l2.285,1.329a.874.874,0,0,1,0,1.515l-6.127,3.539a.894.894,0,0,1-.877,0l-2.285-1.327a.876.876,0,0,1,0-1.518l6.127-3.541A.885.885,0,0,1,192.924,124.579Z" transform="translate(-165.57 -77.776)"/><path class="m" d="M216.044,105.068a.9.9,0,0,1-.472-.131l-2.42-1.407a.931.931,0,0,1-.47-.816.941.941,0,0,1,.47-.811l2.347-1.354a.98.98,0,0,1,.468-.126.9.9,0,0,1,.47.131l2.431,1.4a.944.944,0,0,1-.005,1.629l-2.349,1.356A.957.957,0,0,1,216.044,105.068Z" transform="translate(-143.196 -97.55)"/><path class="n" d="M216.32,100.6l2.422,1.407a.813.813,0,0,1,0,1.4l-2.357,1.356a.813.813,0,0,1-.8,0l-2.431-1.411a.806.806,0,0,1,.005-1.4L215.5,100.6A.826.826,0,0,1,216.32,100.6Z" transform="translate(-143.136 -97.488)"/><path class="m" d="M211.1,107.922a.936.936,0,0,1-.476-.124l-2.426-1.409a.937.937,0,0,1-.47-.813.928.928,0,0,1,.479-.815l2.351-1.358a.936.936,0,0,1,.467-.124.974.974,0,0,1,.47.124l2.426,1.412a.939.939,0,0,1,0,1.628l-2.351,1.354A.932.932,0,0,1,211.1,107.922Z" transform="translate(-147.269 -95.199)"/><path class="n" d="M211.371,103.464l2.419,1.405a.8.8,0,0,1,0,1.4l-2.349,1.356a.8.8,0,0,1-.809,0l-2.428-1.405a.81.81,0,0,1,0-1.4l2.362-1.358A.8.8,0,0,1,211.371,103.464Z" transform="translate(-147.209 -95.139)"/><path class="m" d="M223.892,109.953a.958.958,0,0,1-.465-.128l-2.466-1.431a.924.924,0,0,1,0-1.593l2.388-1.378a.916.916,0,0,1,.461-.124.952.952,0,0,1,.468.124l2.46,1.433a.926.926,0,0,1,0,1.595l-2.393,1.376A.816.816,0,0,1,223.892,109.953Z" transform="translate(-136.76 -93.537)"/><path class="n" d="M224.149,105.48l2.466,1.434a.79.79,0,0,1,0,1.361l-2.388,1.376a.778.778,0,0,1-.791,0l-2.466-1.431a.788.788,0,0,1,0-1.363l2.393-1.378A.768.768,0,0,1,224.149,105.48Z" transform="translate(-136.701 -93.478)"/><path class="m" d="M221.421,111.376a.965.965,0,0,1-.477-.131l-2.426-1.416a.94.94,0,0,1,0-1.626l2.355-1.351a.876.876,0,0,1,.461-.133.935.935,0,0,1,.479.133l2.428,1.409a.933.933,0,0,1,.465.815.922.922,0,0,1-.47.813l-2.353,1.36A.936.936,0,0,1,221.421,111.376Z" transform="translate(-138.779 -92.37)"/><path class="n" d="M221.688,106.9l2.429,1.414a.8.8,0,0,1,0,1.392l-2.346,1.358a.814.814,0,0,1-.813,0l-2.435-1.412a.811.811,0,0,1,0-1.4l2.358-1.354A.8.8,0,0,1,221.688,106.9Z" transform="translate(-138.721 -92.308)"/><path class="m" d="M219.032,109.953a.9.9,0,0,1-.454-.128l-2.471-1.431a.92.92,0,0,1,0-1.593l2.391-1.378a.9.9,0,0,1,.461-.124.941.941,0,0,1,.461.124l2.464,1.433a.924.924,0,0,1,0,1.595l-2.391,1.376A.852.852,0,0,1,219.032,109.953Z" transform="translate(-140.755 -93.537)"/><path class="n" d="M219.3,105.48l2.462,1.434a.784.784,0,0,1,0,1.361l-2.388,1.376a.775.775,0,0,1-.789,0l-2.466-1.429a.787.787,0,0,1,0-1.365l2.391-1.378A.775.775,0,0,1,219.3,105.48Z" transform="translate(-140.696 -93.478)"/><path class="m" d="M198.562,112.1a.771.771,0,0,1-.4-.111l-2.717-1.578a.772.772,0,0,1-.4-.689.787.787,0,0,1,.4-.689l2.643-1.52a.782.782,0,0,1,.4-.108.794.794,0,0,1,.4.109l2.71,1.58a.79.79,0,0,1,0,1.372l-2.641,1.525A.8.8,0,0,1,198.562,112.1Z" transform="translate(-157.702 -91.807)"/><path class="n" d="M198.754,107.567l2.719,1.582a.661.661,0,0,1-.005,1.143l-2.643,1.524a.665.665,0,0,1-.662,0l-2.714-1.582a.66.66,0,0,1,0-1.141l2.639-1.525A.658.658,0,0,1,198.754,107.567Z" transform="translate(-157.64 -91.747)"/><path class="m" d="M219.022,112.749a1.034,1.034,0,0,1-.468-.12l-2.428-1.412a.936.936,0,0,1-.465-.816.925.925,0,0,1,.465-.811l2.353-1.363a.987.987,0,0,1,.474-.124.957.957,0,0,1,.468.128l2.435,1.416a.933.933,0,0,1-.011,1.62l-2.349,1.363A1,1,0,0,1,219.022,112.749Z" transform="translate(-140.745 -91.233)"/><path class="n" d="M219.3,108.285l2.424,1.412a.807.807,0,0,1,0,1.4l-2.355,1.356a.8.8,0,0,1-.807,0l-2.428-1.411a.81.81,0,0,1,0-1.4l2.355-1.358A.8.8,0,0,1,219.3,108.285Z" transform="translate(-140.685 -91.173)"/><path class="m" d="M203.255,111.071l4.24-2.444,4.288,2.494-4.23,2.442Z" transform="translate(-150.95 -90.801)"/><path class="n" d="M207.375,108.709l4.021,2.345-3.963,2.29L203.4,111Z" transform="translate(-150.829 -90.733)"/><path class="m" d="M200.81,112.479l4.226-2.443,4.3,2.5-4.233,2.439Z" transform="translate(-152.961 -89.642)"/><path class="n" d="M204.914,110.122l4.037,2.347-3.966,2.285-4.027-2.346Z" transform="translate(-152.839 -89.571)"/><path class="m" d="M213.187,117.262a.952.952,0,0,1-.463-.124l-2.473-1.44a.918.918,0,0,1,0-1.584l6.612-3.818a.919.919,0,0,1,.456-.122.909.909,0,0,1,.461.122l2.479,1.442a.889.889,0,0,1,.45.791.9.9,0,0,1-.45.787l-6.619,3.822A.925.925,0,0,1,213.187,117.262Z" transform="translate(-145.567 -89.528)"/><path class="n" d="M217.654,110.351l2.479,1.438a.782.782,0,0,1,0,1.352l-6.621,3.824a.786.786,0,0,1-.776,0l-2.473-1.443a.778.778,0,0,1,0-1.349l6.61-3.822A.787.787,0,0,1,217.654,110.351Z" transform="translate(-145.507 -89.468)"/><path class="m" d="M191.638,125.483a1.045,1.045,0,0,1-.5-.133l-2.3-1.341a1.006,1.006,0,0,1,.005-1.746l2.719-1.571,2.8,1.633a.991.991,0,0,1,.5.869,1.007,1.007,0,0,1-.5.875l-2.218,1.281A1.042,1.042,0,0,1,191.638,125.483Z" transform="translate(-163.221 -80.877)"/><path class="n" d="M191.5,120.778l2.732,1.589a.874.874,0,0,1,0,1.513l-2.209,1.285a.9.9,0,0,1-.884,0l-2.295-1.34a.872.872,0,0,1,0-1.511l2.655-1.533Z" transform="translate(-163.161 -80.806)"/><path class="m" d="M194.1,124.038a.88.88,0,0,1-.447-.122l-2.51-1.456a.908.908,0,0,1,0-1.564l2.426-1.4a.875.875,0,0,1,.45-.122.863.863,0,0,1,.452.122l2.508,1.456a.9.9,0,0,1,0,1.562l-2.428,1.4A.894.894,0,0,1,194.1,124.038Z" transform="translate(-161.277 -81.961)"/><path class="n" d="M194.351,119.551l2.506,1.454a.766.766,0,0,1,0,1.332l-2.428,1.4a.764.764,0,0,1-.769,0l-2.511-1.454a.772.772,0,0,1,.007-1.332l2.424-1.4A.79.79,0,0,1,194.351,119.551Z" transform="translate(-161.219 -81.899)"/><path class="m" d="M196.548,122.625a.89.89,0,0,1-.454-.124l-2.5-1.451a.9.9,0,0,1,0-1.56l2.429-1.4a.868.868,0,0,1,.457-.124.837.837,0,0,1,.448.124l2.508,1.454a.9.9,0,0,1,.447.784.889.889,0,0,1-.447.773l-2.442,1.407A.885.885,0,0,1,196.548,122.625Z" transform="translate(-159.267 -83.121)"/><path class="n" d="M196.8,118.138l2.508,1.458a.764.764,0,0,1,0,1.327l-2.433,1.409a.764.764,0,0,1-.769,0l-2.5-1.456a.767.767,0,0,1,0-1.33l2.431-1.407A.778.778,0,0,1,196.8,118.138Z" transform="translate(-159.209 -83.061)"/><path class="m" d="M198.971,121.229a.9.9,0,0,1-.457-.122l-2.508-1.456a.9.9,0,0,1,0-1.558l2.433-1.407a.918.918,0,0,1,.9,0l2.511,1.458a.9.9,0,0,1,0,1.558l-2.442,1.405A.877.877,0,0,1,198.971,121.229Z" transform="translate(-157.282 -84.27)"/><path class="n" d="M199.219,116.74l2.508,1.46a.771.771,0,0,1,0,1.33l-2.433,1.4a.771.771,0,0,1-.773,0l-2.508-1.46a.768.768,0,0,1,0-1.329l2.437-1.405A.791.791,0,0,1,199.219,116.74Z" transform="translate(-157.222 -84.209)"/><path class="m" d="M201.492,119.772a.861.861,0,0,1-.45-.126l-2.508-1.454a.882.882,0,0,1-.445-.78.871.871,0,0,1,.445-.778l2.431-1.4a.907.907,0,0,1,.448-.124.862.862,0,0,1,.452.129l2.5,1.449a.9.9,0,0,1,0,1.56l-2.422,1.4A.88.88,0,0,1,201.492,119.772Z" transform="translate(-155.199 -85.47)"/><path class="n" d="M201.739,115.286l2.5,1.454a.768.768,0,0,1,0,1.327l-2.426,1.4a.76.76,0,0,1-.767,0l-2.506-1.458a.767.767,0,0,1,0-1.329l2.431-1.4A.762.762,0,0,1,201.739,115.286Z" transform="translate(-155.141 -85.408)"/><path class="m" d="M203.913,118.372a.875.875,0,0,1-.454-.124l-2.5-1.454a.9.9,0,0,1,0-1.562l2.428-1.4a.906.906,0,0,1,.45-.117.872.872,0,0,1,.456.122l2.506,1.454a.892.892,0,0,1,.448.78.908.908,0,0,1-.452.784l-2.429,1.392A.856.856,0,0,1,203.913,118.372Z" transform="translate(-153.212 -86.616)"/><path class="n" d="M204.159,113.889l2.5,1.456a.767.767,0,0,1,0,1.33l-2.428,1.4a.769.769,0,0,1-.767,0l-2.508-1.458a.763.763,0,0,1,0-1.325l2.426-1.4A.773.773,0,0,1,204.159,113.889Z" transform="translate(-153.152 -86.557)"/><path class="m" d="M206.351,116.959a.883.883,0,0,1-.448-.124l-2.484-1.442a.909.909,0,0,1,0-1.58l2.4-1.385a.906.906,0,0,1,.459-.126.867.867,0,0,1,.454.126l2.488,1.44a.914.914,0,0,1,0,1.582l-2.4,1.385A.9.9,0,0,1,206.351,116.959Z" transform="translate(-151.193 -87.778)"/><path class="n" d="M206.6,112.48l2.486,1.442a.775.775,0,0,1,0,1.347l-2.406,1.391a.784.784,0,0,1-.78,0l-2.484-1.445a.778.778,0,0,1,.007-1.349l2.4-1.385A.774.774,0,0,1,206.6,112.48Z" transform="translate(-151.133 -87.717)"/><path class="m" d="M208.77,115.562a.94.94,0,0,1-.457-.118L205.83,114a.911.911,0,0,1,.005-1.584l2.406-1.383a.9.9,0,0,1,.917,0l2.484,1.44a.924.924,0,0,1,0,1.584l-2.411,1.389A.905.905,0,0,1,208.77,115.562Z" transform="translate(-149.208 -88.928)"/><path class="n" d="M209.028,111.083l2.48,1.447a.778.778,0,0,1-.005,1.349l-2.406,1.387a.777.777,0,0,1-.776,0l-2.484-1.445a.781.781,0,0,1,0-1.349l2.413-1.389A.772.772,0,0,1,209.028,111.083Z" transform="translate(-149.145 -88.868)"/><path class="m" d="M186.2,130.182a1.042,1.042,0,0,1-.508-.133l-3-1.746a.527.527,0,0,1-.266-.461.546.546,0,0,1,.266-.461l8.728-5.038a1.032,1.032,0,0,1,.507-.138,1.078,1.078,0,0,1,.507.138l2.293,1.334a1.009,1.009,0,0,1,.5.873,1,1,0,0,1-.5.871l-8.019,4.627A1.02,1.02,0,0,1,186.2,130.182Z" transform="translate(-168.086 -79.632)"/><path class="n" d="M191.423,122.395a.89.89,0,0,1,.877,0l2.295,1.338a.875.875,0,0,1,0,1.513l-8.016,4.624a.883.883,0,0,1-.88,0l-3-1.748a.4.4,0,0,1,0-.683Z" transform="translate(-168.025 -79.57)"/></g><g transform="translate(6.775 3.551)"><path class="k" d="M213.607,98.834l2.429,1.412a.8.8,0,0,1,0,1.4L213.682,103a.8.8,0,0,1-.8,0l-2.437-1.422a.8.8,0,0,1,0-1.392l2.353-1.356A.8.8,0,0,1,213.607,98.834Z" transform="translate(-145.5 -98.725)"/><path class="k" d="M211.131,100.263l2.433,1.412a.8.8,0,0,1-.007,1.394l-2.344,1.356a.825.825,0,0,1-.811,0l-2.433-1.407a.807.807,0,0,1,0-1.4l2.351-1.358A.8.8,0,0,1,211.131,100.263Z" transform="translate(-147.535 -97.549)"/><path class="k" d="M208.655,101.694l2.433,1.411a.807.807,0,0,1,0,1.394l-2.355,1.361a.818.818,0,0,1-.807,0l-2.428-1.414a.8.8,0,0,1,0-1.4l2.353-1.356A.768.768,0,0,1,208.655,101.694Z" transform="translate(-149.569 -96.376)"/><path class="k" d="M213.834,101.837l2.439,1.416a.8.8,0,0,1-.011,1.389L213.913,106a.776.776,0,0,1-.8,0l-2.428-1.409a.807.807,0,0,1,0-1.4l2.351-1.356A.794.794,0,0,1,213.834,101.837Z" transform="translate(-145.304 -96.255)"/><path class="k" d="M219.031,101.983l2.424,1.411a.805.805,0,0,1,0,1.391l-2.357,1.363a.8.8,0,0,1-.8,0l-2.431-1.414a.805.805,0,0,1,0-1.392l2.351-1.361A.831.831,0,0,1,219.031,101.983Z" transform="translate(-141.038 -96.134)"/><path class="k" d="M206.164,103.066l2.943,1.71a.547.547,0,0,1,0,.948l-2.865,1.655a.549.549,0,0,1-.545,0l-2.942-1.71a.55.55,0,0,1,0-.955l2.858-1.648A.526.526,0,0,1,206.164,103.066Z" transform="translate(-151.718 -95.217)"/><path class="k" d="M216.55,103.413l2.428,1.411a.806.806,0,0,1,0,1.4l-2.344,1.358a.822.822,0,0,1-.815,0l-2.429-1.409a.813.813,0,0,1,0-1.4l2.355-1.354A.809.809,0,0,1,216.55,103.413Z" transform="translate(-143.075 -94.958)"/><path class="k" d="M203.7,104.492l2.94,1.706a.551.551,0,0,1,0,.951l-2.869,1.655a.553.553,0,0,1-.552,0l-2.938-1.708a.552.552,0,0,1,0-.955l2.867-1.649A.545.545,0,0,1,203.7,104.492Z" transform="translate(-153.754 -94.043)"/><path class="k" d="M214.075,104.841l2.426,1.407a.8.8,0,0,1-.007,1.4L214.148,109a.81.81,0,0,1-.813,0l-2.42-1.407a.81.81,0,0,1,0-1.4l2.357-1.354A.811.811,0,0,1,214.075,104.841Z" transform="translate(-145.109 -93.782)"/><path class="k" d="M201.23,105.945l2.717,1.577a.659.659,0,0,1,0,1.146l-2.648,1.527a.656.656,0,0,1-.662,0l-2.719-1.578a.663.663,0,0,1,.005-1.146l2.645-1.524A.652.652,0,0,1,201.23,105.945Z" transform="translate(-155.741 -92.86)"/><path class="k" d="M211.038,105.27l2.716,1.58a.663.663,0,0,1,0,1.143l-9.745,5.624a.667.667,0,0,1-.665,0l-2.712-1.578a.659.659,0,0,1,0-1.146l9.738-5.623A.676.676,0,0,1,211.038,105.27Z" transform="translate(-153.513 -93.413)"/><path class="k" d="M196.277,108.8l2.717,1.582a.656.656,0,0,1,0,1.141l-2.641,1.525a.659.659,0,0,1-.663,0l-2.716-1.576a.665.665,0,0,1,0-1.148l2.635-1.52A.659.659,0,0,1,196.277,108.8Z" transform="translate(-159.807 -90.51)"/><path class="k" d="M201.466,108.95l2.712,1.575a.659.659,0,0,1,0,1.145l-2.645,1.525a.664.664,0,0,1-.663,0l-2.71-1.575a.661.661,0,0,1,0-1.146l2.645-1.524A.648.648,0,0,1,201.466,108.95Z" transform="translate(-155.545 -90.389)"/><path class="k" d="M210.268,106.988a.76.76,0,0,1,.776,0l4.278,2.488,2.685,1.56,1.354.784-6.293,3.629a.779.779,0,0,1-.782,0l-3.643-2.114,2.05-1.186-3.5-2.039a.78.78,0,0,1,0-1.347Z" transform="translate(-148.164 -92.016)"/><path class="k" d="M193.808,110.226l2.717,1.586a.663.663,0,0,1,0,1.143l-2.643,1.522a.646.646,0,0,1-.663,0L190.5,112.9a.659.659,0,0,1,0-1.145l2.639-1.525A.7.7,0,0,1,193.808,110.226Z" transform="translate(-161.845 -89.334)"/><path class="k" d="M198.991,110.375l2.717,1.58a.663.663,0,0,1,0,1.143l-2.646,1.527a.655.655,0,0,1-.663,0l-2.712-1.58a.659.659,0,0,1,0-1.145l2.635-1.525A.667.667,0,0,1,198.991,110.375Z" transform="translate(-157.579 -89.215)"/><path class="k" d="M202.472,111.339l4.025,2.344-3.954,2.286-4.029-2.34Z" transform="translate(-154.982 -88.349)"/><path class="k" d="M191.333,111.661l2.716,1.578a.661.661,0,0,1-.005,1.143l-2.637,1.522a.655.655,0,0,1-.663,0l-2.716-1.578a.662.662,0,0,1,0-1.145l2.641-1.52A.65.65,0,0,1,191.333,111.661Z" transform="translate(-163.879 -88.159)"/><path class="k" d="M196.517,111.8l2.716,1.578a.66.66,0,0,1,0,1.145l-2.646,1.525a.657.657,0,0,1-.66,0l-2.712-1.578a.662.662,0,0,1,0-1.146l2.641-1.524A.655.655,0,0,1,196.517,111.8Z" transform="translate(-159.615 -88.04)"/><path class="k" d="M200.034,112.751l4.028,2.344-3.966,2.292-4.029-2.348Z" transform="translate(-156.994 -87.188)"/><path class="k" d="M188.862,113.086l2.716,1.578a.659.659,0,0,1,0,1.146l-2.643,1.525a.645.645,0,0,1-.667,0l-2.719-1.58a.661.661,0,0,1,.005-1.143l2.643-1.527A.65.65,0,0,1,188.862,113.086Z" transform="translate(-165.915 -86.987)"/><path class="k" d="M194.044,113.232l2.714,1.582a.667.667,0,0,1-.005,1.145l-2.639,1.525a.654.654,0,0,1-.665,0l-2.712-1.58a.66.66,0,0,1,0-1.143l2.644-1.527A.655.655,0,0,1,194.044,113.232Z" transform="translate(-161.651 -86.867)"/><path class="k" d="M212.6,113l2.473,1.44a.782.782,0,0,1-.009,1.352l-6.315,3.649a.793.793,0,0,1-.78,0L205.493,118a.779.779,0,0,1,0-1.351L211.812,113A.794.794,0,0,1,212.6,113Z" transform="translate(-149.562 -87.065)"/><path class="k" d="M197.62,114.334l2.5,1.453a.771.771,0,0,1,0,1.332l-2.424,1.4a.8.8,0,0,1-.775,0l-2.5-1.458a.765.765,0,0,1,0-1.327l2.428-1.4A.76.76,0,0,1,197.62,114.334Z" transform="translate(-158.661 -85.971)"/><path class="k" d="M186.4,114.563l2.289,1.33a.872.872,0,0,1,0,1.515l-2.216,1.279a.867.867,0,0,1-.877,0l-2.3-1.332a.879.879,0,0,1,.005-1.518l2.213-1.274A.886.886,0,0,1,186.4,114.563Z" transform="translate(-167.854 -85.794)"/><path class="k" d="M191.588,114.709l2.276,1.329a.872.872,0,0,1,0,1.513l-2.214,1.279a.876.876,0,0,1-.877,0l-2.289-1.329a.877.877,0,0,1,0-1.516l2.216-1.279A.9.9,0,0,1,191.588,114.709Z" transform="translate(-163.589 -85.674)"/><path class="k" d="M195.175,115.747l2.5,1.453a.769.769,0,0,1,0,1.33l-2.429,1.4a.769.769,0,0,1-.767,0l-2.5-1.46a.769.769,0,0,1,0-1.327l2.428-1.4A.77.77,0,0,1,195.175,115.747Z" transform="translate(-160.673 -84.811)"/><path class="k" d="M183.922,115.991l2.289,1.33a.876.876,0,0,1,0,1.515L184,120.116a.877.877,0,0,1-.882,0l-2.287-1.332a.877.877,0,0,1,0-1.516l2.213-1.276A.869.869,0,0,1,183.922,115.991Z" transform="translate(-169.888 -84.621)"/><path class="k" d="M189.1,116.136l2.293,1.332a.878.878,0,0,1,0,1.515l-2.222,1.285a.889.889,0,0,1-.877,0l-2.289-1.336a.874.874,0,0,1,0-1.513l2.218-1.283A.861.861,0,0,1,189.1,116.136Z" transform="translate(-165.626 -84.502)"/><path class="k" d="M192.746,117.183l2.282,1.325a.876.876,0,0,1-.007,1.515l-2.213,1.279a.879.879,0,0,1-.878,0l-2.284-1.329a.872.872,0,0,1,0-1.515l2.22-1.279A.874.874,0,0,1,192.746,117.183Z" transform="translate(-162.638 -83.642)"/><path class="k" d="M181.448,117.42l2.293,1.329a.872.872,0,0,1-.006,1.515l-2.214,1.281a.881.881,0,0,1-.875,0l-2.293-1.329a.879.879,0,0,1,0-1.518l2.218-1.274A.88.88,0,0,1,181.448,117.42Z" transform="translate(-171.924 -83.444)"/><path class="k" d="M186.631,117.565l2.287,1.334a.874.874,0,0,1,0,1.511l-2.213,1.281a.888.888,0,0,1-.878,0l-2.289-1.33a.877.877,0,0,1,.007-1.516l2.209-1.278A.884.884,0,0,1,186.631,117.565Z" transform="translate(-167.658 -83.325)"/><path class="k" d="M190.289,118.594l2.287,1.329a.875.875,0,0,1-.006,1.516l-2.209,1.278a.863.863,0,0,1-.877,0l-2.291-1.327a.881.881,0,0,1,0-1.516l2.216-1.278A.855.855,0,0,1,190.289,118.594Z" transform="translate(-164.647 -82.48)"/><path class="k" d="M178.16,119.317l2.289,1.334a.871.871,0,0,1,0,1.511l-2.214,1.279a.883.883,0,0,1-.88,0l-2.291-1.332a.877.877,0,0,1,0-1.515l2.218-1.281A.888.888,0,0,1,178.16,119.317Z" transform="translate(-174.628 -81.884)"/><path class="k" d="M187.842,120.007l2.287,1.327a.876.876,0,0,1,0,1.515l-2.207,1.276a.874.874,0,0,1-.88,0l-2.284-1.327a.873.873,0,0,1,0-1.515l2.211-1.276A.867.867,0,0,1,187.842,120.007Z" transform="translate(-166.66 -81.317)"/><path class="k" d="M213.191,115.652l2.5,1.454a.765.765,0,0,1-.007,1.329l-17.832,10.3a.757.757,0,0,1-.765,0l-2.5-1.456a.764.764,0,0,1,0-1.327l17.832-10.3A.805.805,0,0,1,213.191,115.652Z" transform="translate(-158.532 -84.884)"/><path class="k" d="M186.667,119.054l2.285,1.33a.879.879,0,0,1,0,1.518l-8.01,4.622a.871.871,0,0,1-.878,0l-2.291-1.33a.875.875,0,0,1,.007-1.513l8.016-4.627A.881.881,0,0,1,186.667,119.054Z" transform="translate(-172.399 -82.099)"/><path class="k" d="M186.884,121.423l2.285,1.329a.876.876,0,0,1,0,1.516l-5.52,3.182a.876.876,0,0,1-.877,0l-2.289-1.325a.879.879,0,0,1,0-1.516l5.522-3.188A.875.875,0,0,1,186.884,121.423Z" transform="translate(-170.17 -80.153)"/><path class="k" d="M196.5,121.987l2.5,1.453a.763.763,0,0,1,0,1.325l-5.156,2.978a.766.766,0,0,1-.765,0l-2.508-1.454a.77.77,0,0,1,0-1.327l5.161-2.98A.759.759,0,0,1,196.5,121.987Z" transform="translate(-161.827 -79.679)"/><path class="k" d="M192.924,124.383l2.285,1.332a.876.876,0,0,1,0,1.516l-6.127,3.536a.876.876,0,0,1-.877,0l-2.285-1.327a.874.874,0,0,1,0-1.516l6.127-3.541A.876.876,0,0,1,192.924,124.383Z" transform="translate(-165.702 -77.717)"/><path class="k" d="M216.32,100.414l2.422,1.407a.811.811,0,0,1,0,1.4l-2.357,1.35a.786.786,0,0,1-.8,0l-2.431-1.405a.806.806,0,0,1,.005-1.4l2.344-1.356A.8.8,0,0,1,216.32,100.414Z" transform="translate(-143.268 -97.429)"/><path class="k" d="M211.371,103.268l2.419,1.411a.8.8,0,0,1,0,1.392l-2.349,1.36a.821.821,0,0,1-.809,0l-2.428-1.411a.805.805,0,0,1,0-1.392l2.362-1.361A.819.819,0,0,1,211.371,103.268Z" transform="translate(-147.341 -95.077)"/><path class="k" d="M224.149,105.284l2.466,1.434a.788.788,0,0,1,0,1.36l-2.388,1.381a.787.787,0,0,1-.791,0l-2.466-1.434a.785.785,0,0,1,0-1.36l2.393-1.381A.785.785,0,0,1,224.149,105.284Z" transform="translate(-136.833 -93.417)"/><path class="k" d="M221.688,106.71l2.429,1.416a.8.8,0,0,1,0,1.392l-2.346,1.356a.814.814,0,0,1-.813,0l-2.435-1.416a.807.807,0,0,1,0-1.392l2.358-1.358A.821.821,0,0,1,221.688,106.71Z" transform="translate(-138.853 -92.246)"/><path class="k" d="M219.3,105.284l2.462,1.434a.782.782,0,0,1,0,1.36l-2.388,1.381a.783.783,0,0,1-.789,0l-2.466-1.434a.782.782,0,0,1,0-1.36l2.391-1.381A.792.792,0,0,1,219.3,105.284Z" transform="translate(-140.828 -93.417)"/><path class="k" d="M198.754,107.374l2.719,1.578a.667.667,0,0,1-.005,1.15l-2.643,1.52a.674.674,0,0,1-.662,0l-2.714-1.58a.663.663,0,0,1,0-1.145l2.639-1.525A.667.667,0,0,1,198.754,107.374Z" transform="translate(-157.772 -91.685)"/><path class="k" d="M219.3,108.089l2.424,1.418a.8.8,0,0,1,0,1.389l-2.355,1.361a.818.818,0,0,1-.807,0l-2.428-1.412a.807.807,0,0,1,0-1.392l2.355-1.363A.807.807,0,0,1,219.3,108.089Z" transform="translate(-140.817 -91.112)"/><path class="k" d="M207.375,108.515l4.021,2.341-3.963,2.293-4.031-2.342Z" transform="translate(-150.961 -90.672)"/><path class="k" d="M204.914,109.928l4.037,2.344-3.966,2.288-4.027-2.348Z" transform="translate(-152.971 -89.51)"/><path class="k" d="M217.654,110.159l2.479,1.44a.782.782,0,0,1,0,1.352l-6.621,3.815a.768.768,0,0,1-.776,0l-2.473-1.436a.78.78,0,0,1,0-1.35l6.61-3.82A.779.779,0,0,1,217.654,110.159Z" transform="translate(-145.639 -89.407)"/><path class="k" d="M191.5,120.585l2.732,1.587a.877.877,0,0,1,0,1.516l-2.209,1.279a.9.9,0,0,1-.884,0l-2.295-1.338a.874.874,0,0,1,0-1.513l2.655-1.529Z" transform="translate(-163.293 -80.744)"/><path class="k" d="M194.351,119.356l2.506,1.458a.763.763,0,0,1,0,1.329l-2.428,1.4a.755.755,0,0,1-.769,0l-2.511-1.456a.769.769,0,0,1,.007-1.329l2.424-1.4A.785.785,0,0,1,194.351,119.356Z" transform="translate(-161.351 -81.838)"/><path class="k" d="M196.8,117.944l2.508,1.458a.766.766,0,0,1,0,1.329l-2.433,1.407a.772.772,0,0,1-.769,0l-2.5-1.453a.765.765,0,0,1,0-1.329l2.431-1.409A.769.769,0,0,1,196.8,117.944Z" transform="translate(-159.341 -83)"/><path class="k" d="M199.219,116.549l2.508,1.46a.768.768,0,0,1,0,1.327l-2.433,1.405a.775.775,0,0,1-.773,0l-2.508-1.456a.768.768,0,0,1,0-1.329l2.437-1.407A.768.768,0,0,1,199.219,116.549Z" transform="translate(-157.354 -84.149)"/><path class="k" d="M201.739,115.091l2.5,1.453a.771.771,0,0,1,0,1.33l-2.426,1.4a.76.76,0,0,1-.767,0l-2.506-1.456a.765.765,0,0,1,0-1.327l2.431-1.4A.762.762,0,0,1,201.739,115.091Z" transform="translate(-155.273 -85.347)"/><path class="k" d="M204.159,113.7l2.5,1.453a.77.77,0,0,1,0,1.334l-2.428,1.4a.769.769,0,0,1-.767,0l-2.508-1.458a.765.765,0,0,1,0-1.327l2.426-1.4A.747.747,0,0,1,204.159,113.7Z" transform="translate(-153.284 -86.496)"/><path class="k" d="M206.6,112.286l2.486,1.438a.78.78,0,0,1,0,1.352l-2.406,1.389a.775.775,0,0,1-.78,0l-2.484-1.44a.782.782,0,0,1,.007-1.352l2.4-1.383A.765.765,0,0,1,206.6,112.286Z" transform="translate(-151.265 -87.656)"/><path class="k" d="M209.028,110.891l2.48,1.443a.778.778,0,0,1-.005,1.349l-2.406,1.389a.769.769,0,0,1-.776,0l-2.484-1.44a.784.784,0,0,1,0-1.352l2.413-1.389A.763.763,0,0,1,209.028,110.891Z" transform="translate(-149.277 -88.807)"/><path class="k" d="M191.423,122.2a.863.863,0,0,1,.877,0l2.295,1.33a.876.876,0,0,1,0,1.515l-8.016,4.627a.887.887,0,0,1-.88-.005l-3-1.742a.4.4,0,0,1,0-.685Z" transform="translate(-168.157 -79.509)"/></g></g></g><g transform="translate(8871.417 3221)"><g transform="translate(41.217 80.55)"><g transform="translate(0 16.782)"><path class="o" d="M178.824,126.041l-4.03-3.374a10.045,10.045,0,0,1-3.618-7.739V87.981h1.279v26.948a8.8,8.8,0,0,0,3.155,6.758l4.524,3.8Z" transform="translate(-171.177 -87.981)"/></g><path class="p" d="M181.909,113.3h-.015v.9l-6.5-5.137-.034-.037.66-.386.127.109Z" transform="translate(-167.739 -54.211)"/><path class="o" d="M181.909,113.538h-.015v.9l-6.5-5.137-.034-.037v-.92l.437.352.222.182.127.109Z" transform="translate(-167.739 -54.452)"/><path class="a" d="M217.431,119.319l-32.4,18.541-5.765-4.555-.128-.109-.222-.18h-.057l-.381-.334-3.632-3.047-.131-.109a8.693,8.693,0,0,1-3.158-6.643V96.765l.59-.31,20.137-11.147,7.183-6.536h1.283v26.946c0,.16,0,.326.015.474a8.722,8.722,0,0,0,3.14,6.279,4.715,4.715,0,0,0,.439.312C206.165,113.975,211.653,116.622,217.431,119.319Z" transform="translate(-170.863 -78.773)"/><path class="a" d="M200.767,101.09l-29.208,16.689V93.609c2.056-2.021,3.581-3.379,3.785-3.157.472.569,19.111-4.613,25.408-5.475v15.639C200.752,100.777,200.752,100.942,200.767,101.09Z" transform="translate(-170.863 -73.67)"/><path class="o" d="M178.959,119.561l32.4-18.541v.912l-32.413,18.526Z" transform="translate(-164.788 -60.474)"/><path class="a" d="M204.347,100.408l-29.5,16.851-.131-.109a8.693,8.693,0,0,1-3.158-6.643l29.208-16.689a8.721,8.721,0,0,0,3.14,6.279A4.71,4.71,0,0,0,204.347,100.408Z" transform="translate(-170.863 -66.398)"/></g><path class="a" d="M255.482,36.7l-.7.137h-.009l-1.467.29c.029.155.055.319.084.481a9.283,9.283,0,0,1,.086,1.329l-.14,15.362-.359,52.4c-.027,4.1-2.548,8.83-5.633,10.584l-94.207,54.21c-.047.029-.1.058-.16.089l.724,2.619-3.209-1.883a4.551,4.551,0,0,1-1.906-3.822c-.02-.231-.02-.468-.02-.713l.512-67.644v-.113a14.105,14.105,0,0,1,2.973-8.189,9.5,9.5,0,0,1,2.661-2.4L248.9,35.223a3.6,3.6,0,0,1,3.523-.321v-.009l2.657,1.575Z" transform="translate(-148.562 -34.577)"/><path class="a" d="M253.51,36.467l-.3.365H253.2l-1.383.771L153.7,93.354l-3.23-1.524a9.5,9.5,0,0,1,2.661-2.4l94.194-54.21a3.6,3.6,0,0,1,3.523-.321v-.009Z" transform="translate(-146.989 -34.577)"/><path class="a" d="M159.166,69.549l-3.507,8.621-6.816-3.877V74.18a14.105,14.105,0,0,1,2.973-8.189Z" transform="translate(-148.331 -8.737)"/><path class="o" d="M256.085,40.448l-.066,6.753v.011l-.078,8.6-.357,52.394c-.024,4.086-2.557,8.828-5.648,10.585l-34.5,19.565-37.067,21.01-.86.516L155.743,173c-2.519,1.434-4.629.43-5.309-2.227a6.473,6.473,0,0,1-.2-1.3c-.015-.233-.015-.47-.015-.716l.057-7.711.142-19.864.3-40.183c.036-4.1,2.564-8.838,5.646-10.585L195.23,68.381l.078-.044,13.29-7.89,16.838-10.006h.013l19.463-11.048,5.639-3.195c2.061-1.163,3.842-.705,4.806.944A6.662,6.662,0,0,1,256.085,40.448Z" transform="translate(-147.201 -33.775)"/><g transform="translate(6.644 7.809)"><path class="a" d="M250.7,38.863v69.009c-19.2,11.214-19.248,11.238-60.831,35.547-10.808,6.321,1.369-.8-37.656,22V96.41c54.86-32.075,81.67-47.721,97.787-57.133Z" transform="translate(-152.206 -38.86)"/><path class="k" d="M249.289,39.673v67.435l-97.082,56.738v1.579l98.482-57.552V38.861Z" transform="translate(-152.207 -38.861)"/><path class="k" d="M152.207,134.624,250.69,77.072l-1.4-.765-97.082,56.738Z" transform="translate(-152.207 -8.06)"/></g></g><g class="q" transform="translate(8987.886 3310.145)"><path class="c" d="M212.466,88.45a4.96,4.96,0,1,0,4.959-4.961A4.964,4.964,0,0,0,212.466,88.45Z" transform="translate(-212.466 -83.489)"/><path class="r" d="M212.8,88.211a4.371,4.371,0,1,0,4.37-4.372A4.373,4.373,0,0,0,212.8,88.211Z" transform="translate(-212.194 -83.201)"/><path class="s" d="M213.128,87.973a3.783,3.783,0,1,0,3.782-3.784A3.783,3.783,0,0,0,213.128,87.973Z" transform="translate(-211.921 -82.913)"/><path class="t" d="M213.46,87.734a3.193,3.193,0,1,0,3.189-3.195A3.192,3.192,0,0,0,213.46,87.734Z" transform="translate(-211.648 -82.625)"/><path class="u" d="M213.791,87.493a2.6,2.6,0,1,0,2.6-2.6A2.6,2.6,0,0,0,213.791,87.493Z" transform="translate(-211.376 -82.337)"/><path class="v" d="M214.123,87.255a2.015,2.015,0,1,0,2.01-2.016A2.011,2.011,0,0,0,214.123,87.255Z" transform="translate(-211.103 -82.05)"/><path class="w" d="M214.454,87.016a1.426,1.426,0,1,0,1.42-1.427A1.422,1.422,0,0,0,214.454,87.016Z" transform="translate(-210.831 -81.762)"/></g><g transform="translate(9001.067 3330.302)"><path class="x" d="M225.927,95.169c1.434.829,1.443,2.169.015,3a5.7,5.7,0,0,1-5.163-.007c-1.265-.731-1.42-1.863-.454-2.683a2.856,2.856,0,0,1,.434-.306,3.558,3.558,0,0,1,.53-.253A5.774,5.774,0,0,1,225.927,95.169Z" transform="translate(-219.699 -94.549)"/></g><g transform="translate(8902.665 3318.21)"><path class="a" d="M166.576,164.911l-.869-1.6c.262-.142,26.154-14.2,36.032-21.522,15.229-11.289,4.33-52.985,4.219-53.4l1.761-.468c.47,1.762,11.32,43.32-4.894,55.338C192.841,150.651,166.839,164.769,166.576,164.911Z" transform="translate(-165.707 -87.914)"/></g><g transform="translate(8960.087 3326.836)"><path class="a" d="M202.855,122.788a2.507,2.507,0,0,1-1.363-.406c-4.781-3.036-4.339-25.3-4.2-29.735l1.823.056c-.3,9.862.337,26.221,3.359,28.14a.792.792,0,0,0,.884-.022c6.457-3.279,37.568-22.7,37.882-22.9l.964,1.546c-1.281.8-31.492,19.662-38.018,22.979A2.91,2.91,0,0,1,202.855,122.788Z" transform="translate(-197.214 -92.647)"/></g><g class="b" transform="translate(8997.379 3325.205)"><path class="c" d="M217.675,98.966a7.213,7.213,0,1,0,7.21-7.214A7.215,7.215,0,0,0,217.675,98.966Z" transform="translate(-217.675 -91.752)"/><path class="d" d="M218.157,98.618a6.356,6.356,0,1,0,6.353-6.357A6.355,6.355,0,0,0,218.157,98.618Z" transform="translate(-217.279 -91.333)"/><path class="e" d="M218.639,98.272a5.5,5.5,0,1,0,5.495-5.5A5.5,5.5,0,0,0,218.639,98.272Z" transform="translate(-216.882 -90.915)"/><path class="f" d="M219.121,97.923a4.643,4.643,0,1,0,4.638-4.644A4.641,4.641,0,0,0,219.121,97.923Z" transform="translate(-216.486 -90.496)"/><path class="g" d="M219.6,97.574a3.786,3.786,0,1,0,3.782-3.785A3.783,3.783,0,0,0,219.6,97.574Z" transform="translate(-216.089 -90.076)"/><path class="h" d="M220.085,97.228a2.93,2.93,0,1,0,2.923-2.931A2.928,2.928,0,0,0,220.085,97.228Z" transform="translate(-215.693 -89.659)"/><path class="i" d="M220.567,96.879a2.073,2.073,0,1,0,2.067-2.072A2.071,2.071,0,0,0,220.567,96.879Z" transform="translate(-215.296 -89.239)"/></g><g transform="translate(8888.844 3240.406)"><g transform="translate(5.214 52.291)"><path class="y" d="M182.331,73.915l.009,1.97L160.988,88.213l0-1.972Z" transform="translate(-160.985 -73.915)"/></g><g transform="translate(40.988 31.863)"><path class="y" d="M210.972,62.707l.036,14.069L180.659,94.3l-.045-14.066Z" transform="translate(-180.613 -62.707)"/></g><g transform="translate(37.887 27.079)"><path class="l" d="M178.912,80.728l35.764-20.646.087,31.255L179,111.981Zm33.495-1.793-.036-14.068L182.012,82.392l.046,14.066,30.349-17.524Z" transform="translate(-178.912 -60.082)"/></g><g transform="translate(37.873 21.461)"><path class="l" d="M214.673,57v2.367L178.911,80.014l-.007-2.369Z" transform="translate(-178.904 -57)"/></g><g transform="translate(5.263 70.029)"><path class="y" d="M182.362,83.648,182.4,97.6l-21.36,12.327-.032-13.948Z" transform="translate(-161.012 -83.648)"/></g><g transform="translate(2.858 36.808)"><path class="l" d="M159.692,81.167,186.966,65.42l.133,48.02-27.271,15.745Zm23.8,31.424-.042-13.95L162.1,110.969l.031,13.948,21.36-12.326Zm-.111-39.471-.009-1.976-21.36,12.328.013,1.974L183.378,73.12Zm.026,9.752-.009-1.97L162.049,93.228l0,1.972L183.4,82.873Zm.013,4.434,0-1.968-21.357,12.33.007,1.972,21.351-12.333Zm-.029-9.756-.005-1.97L162.029,87.91l.005,1.97,21.353-12.33Z" transform="translate(-159.692 -65.42)"/></g><path class="k" d="M158.124,89.636,235.05,45.224l.17,60.354L158.3,149.986Zm30.265,40.417-.133-48.02L160.982,97.779l.137,48.019,27.271-15.745Zm43.473-26.494L231.775,72.3,196.011,92.949,196.1,124.2l35.76-20.644Zm-.137-49.291-.016-5.318L159.925,90.392l.013,5.32,71.788-41.445Zm.015,5.028,0-2.367L195.969,77.574l.005,2.367L231.74,59.3Zm.011,4.434-.005-2.364L195.98,82.014l.015,2.366L231.751,63.73Zm.015,5.322V66.684L196,87.332,196,89.7l35.762-20.648Z" transform="translate(-158.124 -45.224)"/><g transform="translate(37.857 16.142)"><path class="l" d="M214.659,54.081l.007,2.364L178.91,77.093l-.014-2.365Z" transform="translate(-178.895 -54.081)"/></g><g transform="translate(2.838 23.399)"><path class="y" d="M159.685,83.079l38.984-22.5-.01-2.512L159.681,80.568Z" transform="translate(-159.681 -58.063)"/></g><g transform="translate(1.801 3.725)"><path class="l" d="M230.913,52.586l-.016-5.318L159.112,88.711l.013,5.32Zm-1.429-3.168.009,2.51-15.435,8.91,0-2.513,15.43-8.907ZM199.128,66.942l.009,2.511-38.984,22.5,0-2.511,38.979-22.5Z" transform="translate(-159.112 -47.268)"/></g><g transform="translate(56.744 5.873)"><path class="y" d="M204.687,48.446l.01,2.512-15.435,8.911,0-2.512Z" transform="translate(-189.258 -48.446)"/></g><g transform="translate(37.845 11.705)"><path class="l" d="M214.656,51.646l0,2.366L178.895,74.66l-.006-2.369Z" transform="translate(-178.889 -51.646)"/></g><g class="z" transform="translate(5.223 56.727)"><path class="a" d="M182.347,76.349l0,1.969L161,90.65l-.007-1.971Z" transform="translate(-160.99 -76.349)"/></g><g transform="translate(5.194 46.968)"><path class="y" d="M182.328,70.995l.005,1.97L160.98,85.295l-.006-1.97Z" transform="translate(-160.974 -70.995)"/></g><g class="z" transform="translate(5.175 42.533)"><path class="a" d="M182.322,68.561l.011,1.976L160.976,82.863l-.012-1.974Z" transform="translate(-160.963 -68.561)"/></g></g><g transform="translate(8975.36 3287.155)"><g transform="translate(0 0)"><g transform="translate(7.748 82.803)"><path class="c" d="M216.191,119.946c-8.46,4.908-8.427,12.752-.1,17.595s21.918,4.917,30.387,0c8.4-4.842,8.444-12.738.1-17.595C238.22,115.095,224.585,115.095,216.191,119.946Z" transform="translate(-209.846 -116.308)"/></g><g class="aa" transform="translate(6.456 69.003)"><path class="ab" d="M215.864,112.593c-8.969,5.2-8.936,13.518-.1,18.656s23.237,5.207,32.215,0c8.9-5.138,8.951-13.507.106-18.656C239.216,107.45,224.764,107.45,215.864,112.593Z" transform="translate(-209.137 -108.736)"/></g><g class="ac" transform="translate(5.165 55.202)"><path class="ad" d="M215.536,105.242c-9.477,5.49-9.441,14.281-.108,19.713s24.553,5.5,34.041,0c9.408-5.431,9.457-14.274.113-19.713C240.213,99.8,224.94,99.8,215.536,105.242Z" transform="translate(-208.428 -101.163)"/></g><g class="ae" transform="translate(3.874 41.402)"><path class="af" d="M215.209,97.89c-9.986,5.779-9.947,15.047-.113,20.77s25.871,5.787,35.868,0c9.913-5.723,9.966-15.041.118-20.77C241.209,92.158,225.118,92.158,215.209,97.89Z" transform="translate(-207.72 -93.591)"/></g><g class="ag" transform="translate(2.583 27.6)"><path class="ah" d="M214.882,90.537c-10.494,6.071-10.454,15.811-.12,21.83s27.19,6.076,37.7,0c10.418-6.02,10.472-15.812.124-21.83C242.206,84.512,225.3,84.512,214.882,90.537Z" transform="translate(-207.012 -86.019)"/></g><g class="ai" transform="translate(1.291 13.8)"><path class="aj" d="M214.556,83.184c-11,6.363-10.961,16.578-.126,22.889s28.506,6.366,39.522,0c10.921-6.311,10.979-16.58.129-22.889C243.2,76.867,225.473,76.867,214.556,83.184Z" transform="translate(-206.303 -78.446)"/></g><g class="ak"><path class="al" d="M214.227,75.833c-11.511,6.652-11.466,17.342-.131,23.946,11.353,6.609,29.824,6.658,41.35,0,11.426-6.6,11.486-17.347.135-23.946C244.2,69.222,225.651,69.222,214.227,75.833Z" transform="translate(-205.594 -70.875)"/></g></g><g transform="translate(2.623 1.768)"><path class="am" d="M219.8,81.843s-4.11-3.386-5.911-2.932-2.417-.1-2.712.521c-.979,2.074,3.251,4.609,8.123,4.27C219.3,83.7,220.817,82.623,219.8,81.843Z" transform="translate(-203.745 -66.067)"/><path class="an" d="M221.181,87.139a6.107,6.107,0,0,1-1.225-2.242,1.6,1.6,0,0,1,.875-2.182L231.5,79.527c2.149-.877,4.361-1.143,5.808-.346h0c1.848,1.033,2.1,3.98-.663,5.043C236.644,84.223,223.013,88.512,221.181,87.139Z" transform="translate(-196.542 -66.202)"/><g transform="translate(13.974 14.825)"><path class="an" d="M227.645,85.658c.959-1.387.031-3.337-1.5-4.044l-10.363-1.635a5.345,5.345,0,0,1-.064,1.837c-.514,1.351-1.013,1.4-1.013,1.4S225.487,88.786,227.645,85.658Z" transform="translate(-214.701 -79.979)"/></g><g transform="translate(6.009 41.171)"><path class="ao" d="M226.325,118.211s-2.112.7-1.34,1.779,3.66,2.411,4.146,3.093,3.091,2.965,3.7,2.6,2.4-.313,1.575-3.3S229.2,117.556,226.325,118.211Z" transform="translate(-198.416 -74.987)"/><path class="ap" d="M234.133,94.435s3.208,5.138,1.544,12.929-1.019,18.707-1.019,18.707,1.536,13.946.39,16.487a6.3,6.3,0,0,1-6.86-.539l-2.617-25.842-1.112-18.991S232.148,96.183,234.133,94.435Z" transform="translate(-198.71 -94.435)"/><path class="aq" d="M225.463,113.388l-.873-14.9,2.978-.665s1.79,13.377.875,16.547c-.718,2.49,1.741,18.118,1.7,25.924a6.184,6.184,0,0,1-2.065-1.066Z" transform="translate(-198.602 -91.647)"/><path class="ao" d="M221.061,120.429s-1.033,2.231-2.978,1.31-.594-1.431-4.755-3.512-2.889-3.962-2.535-4.336c.82-.858,3.324.968,4.239,1.414a24.048,24.048,0,0,0,3.06,1.013l3.589,3.7Z" transform="translate(-210.331 -78.618)"/><path class="ap" d="M238.712,96.45s2.431,6.588-1.584,9.317-8.442,7.729-9.517,9.955-6.977,20.11-6.977,20.11-4.312,1.751-7.494-1.36c0,0,4.668-20.947,6.353-23.753s9.226-16.078,9.226-16.078A25.445,25.445,0,0,0,238.712,96.45Z" transform="translate(-208.02 -94.266)"/><path class="aq" d="M213.14,134.393s4.668-20.947,6.353-23.753c1.575-2.615,8.236-14.336,9.125-15.9l2.943,5.322s-5.222,6.16-6.233,8.019c-.953,1.742-7.605,18.26-8.972,28.02A6.322,6.322,0,0,1,213.14,134.393Z" transform="translate(-208.02 -94.187)"/></g><path class="ar" d="M236.765,78.716s3.24.273,1.7,6.208-2.28,12.375-2.038,14.531a68.929,68.929,0,0,0,2,9.279s.521,4.494-10.024,8.034c0,0-8.792.7-7.7-5.311a80.211,80.211,0,0,0,.7-17.886c-.363-2.267-1.983-6.736,3.412-10.168S233.176,78.716,236.765,78.716Z" transform="translate(-195.868 -66.193)"/><path class="an" d="M221.4,90.927a80.209,80.209,0,0,1-.7,17.886c-.755,4.172,3.224,5.338,5.736,5.293.647-2.7.024-8.052,1.533-13.944,1.863-7.279.217-11.845-1.245-15.565-.95-2.413-2.4-2.388-3.457-2.668C219.764,85.153,221.079,88.911,221.4,90.927Z" transform="translate(-195.868 -63.55)"/><g transform="translate(29.752)"><g transform="translate(0.103)"><path class="as" d="M230.5,77.414a9.883,9.883,0,0,0,.361,4.837c.8,1.73-6.095,2.841-6.162,1.278a6.8,6.8,0,0,0-.018-5.734C223.919,76.166,230.5,77.414,230.5,77.414Z" transform="translate(-222.42 -67.64)"/><path class="at" d="M230.533,81.866a8.887,8.887,0,0,1-.432-4.318l-5.121,2.211v.015c.184.053,3.487,1.126,4.064,3.631C230.1,83.043,230.823,82.5,230.533,81.866Z" transform="translate(-222.126 -67.154)"/><path class="as" d="M224.8,73.067A12.91,12.91,0,0,0,223.651,78c.082,2.5-.31,2.976-.224,4.082a2.726,2.726,0,0,0,.454,1.662c.711.787,2.24,1.154,4.385.5,2.588-.791,5.471-4.186,4.575-7.451S228.767,70.7,224.8,73.067Z" transform="translate(-223.414 -71.561)"/><path class="am" d="M232.182,80.248c-.844-2.942-3.162-6.547-3.127-6.729a8.106,8.106,0,0,0-1.706-1.329,5.607,5.607,0,0,0-2.891.875,14.338,14.338,0,0,0-.632,1.695c.565.727,1.75,1.584,1.9,2.182a7.663,7.663,0,0,1-.476,4.378c-.457.9,1.092,2.344.7,3.144a.176.176,0,0,0-.02.108,7.027,7.027,0,0,0,1.994-.33A7.406,7.406,0,0,0,232.182,80.248Z" transform="translate(-223.076 -71.56)"/><path class="au" d="M223.82,72.211a3.338,3.338,0,0,0,1.644,3.514c1.294.745,1.046,2.927.957,3.332a10.251,10.251,0,0,0-.441,2.464c.286.478,1.412-.878,1.9-.751,1.243.328.68,1.5-.54,2.685-1.3,1.259,1.875,2,3.419.991.829-.536,1.135-.869,2.3-2.907,1.688-2.969,1.979-6.64-1.449-8.816S225.967,73.232,223.82,72.211Z" transform="translate(-223.123 -71.845)"/><path class="au" d="M230.762,84.446c.829-.536,1.135-.869,2.3-2.907,1.688-2.969,1.979-6.64-1.449-8.816s-5.643.508-7.79-.512a3.366,3.366,0,0,0-.036.919c1.112.255,4.148,1.066,4.861,2.462.882,1.719,1.994,1.248,1.788,3.308-.2,1.983.153,4.616-3.184,5.542A3.249,3.249,0,0,0,230.762,84.446Z" transform="translate(-223.122 -71.845)"/></g><path class="av" d="M225.99,80.7l-2.632,1.772s7.086,2.44,9.311-.889a2.03,2.03,0,0,0-1.119-2.511S231.148,81.868,225.99,80.7Z" transform="translate(-223.358 -65.903)"/></g><path class="am" d="M214.775,85.984s-2.732-4.575-4.58-4.751-2.242-.909-2.73-.423c-1.618,1.624,1.511,5.435,6.215,6.756C213.679,87.566,215.473,87.062,214.775,85.984Z" transform="translate(-207.034 -64.606)"/><path class="an" d="M216.411,93.119c-.733-.352-1.617-1.977-1.617-1.977a1.592,1.592,0,0,1,.456-2.3l9.895-5.109c1.948-1.258,4.075-1.928,5.644-1.414h0c2.008.674,2.8,3.523.279,5.079C231.068,87.394,218.465,94.128,216.411,93.119Z" transform="translate(-200.918 -63.376)"/><g transform="translate(5.017 20.145)"><path class="an" d="M221.15,92.24c1.371-.984,1.154-3.133-.051-4.314L211.886,82.9a5.294,5.294,0,0,1-.676,1.71c-.939,1.1-1.423.973-1.423.973S218.064,94.458,221.15,92.24Z" transform="translate(-209.786 -82.898)"/></g></g></g><g transform="translate(8907.196 3260.849)"><g transform="translate(0 0)"><path class="aw" d="M192.193,59.811c13.354-7.709,24.222-1.529,24.265,13.828S205.7,107.688,192.351,115.4s-24.223,1.529-24.267-13.828S178.828,67.526,192.193,59.811Z" transform="translate(-168.084 -56.494)"/><g class="aa" transform="translate(5.415 1.101)"><path class="t" d="M197.289,60.707c14.527-8.387,26.356-1.662,26.4,15.047s-11.7,37.049-26.23,45.436-26.358,1.664-26.405-15.045S182.747,69.1,197.289,60.707Z" transform="translate(-171.055 -57.098)"/></g><g class="ac" transform="translate(10.83 2.201)"><path class="ax" d="M202.383,61.6c15.707-9.069,28.49-1.8,28.543,16.264s-12.65,40.049-28.357,49.116-28.49,1.8-28.543-16.264S186.664,70.679,202.383,61.6Z" transform="translate(-174.026 -57.701)"/></g><g class="ae" transform="translate(16.246 3.302)"><path class="ay" d="M207.478,62.5c16.88-9.747,30.624-1.934,30.679,17.484s-13.6,43.048-30.48,52.794S177.053,134.711,177,115.3,190.581,72.254,207.478,62.5Z" transform="translate(-176.998 -58.305)"/></g><g class="ag" transform="translate(21.661 4.403)"><path class="az" d="M212.573,63.4c18.06-10.425,32.758-2.067,32.819,18.7s-14.546,46.048-32.6,56.473c-18.074,10.434-32.76,2.067-32.819-18.7S194.5,73.83,212.573,63.4Z" transform="translate(-179.969 -58.909)"/></g><g class="ai" transform="translate(27.076 5.504)"><path class="ba" d="M217.669,64.293c19.233-11.107,34.893-2.2,34.956,19.92S237.132,133.26,217.9,144.365c-19.251,11.114-34.893,2.2-34.956-19.919S198.417,75.405,217.669,64.293Z" transform="translate(-182.94 -59.513)"/></g><g class="ak" transform="translate(32.49 6.605)"><path class="w" d="M222.765,65.189c20.411-11.785,37.027-2.337,37.092,21.14s-16.441,52.048-36.852,63.829c-20.429,11.8-37.027,2.338-37.094-21.136S202.336,76.983,222.765,65.189Z" transform="translate(-185.911 -60.117)"/></g></g><g class="q" transform="translate(62.541 54.081)"><path class="c" d="M202.4,90.5a4.337,4.337,0,1,0,4.336-4.336A4.338,4.338,0,0,0,202.4,90.5Z" transform="translate(-202.399 -86.167)"/><path class="r" d="M202.689,90.295a3.821,3.821,0,1,0,3.82-3.822A3.822,3.822,0,0,0,202.689,90.295Z" transform="translate(-202.16 -85.915)"/><path class="s" d="M202.978,90.085a3.307,3.307,0,1,0,3.3-3.306A3.306,3.306,0,0,0,202.978,90.085Z" transform="translate(-201.923 -85.664)"/><path class="t" d="M203.268,89.877a2.792,2.792,0,1,0,2.788-2.792A2.79,2.79,0,0,0,203.268,89.877Z" transform="translate(-201.684 -85.412)"/><path class="u" d="M203.558,89.667a2.277,2.277,0,1,0,2.273-2.276A2.275,2.275,0,0,0,203.558,89.667Z" transform="translate(-201.446 -85.16)"/><path class="v" d="M203.848,89.459A1.761,1.761,0,1,0,205.6,87.7,1.757,1.757,0,0,0,203.848,89.459Z" transform="translate(-201.207 -84.909)"/><path class="w" d="M204.137,89.25A1.248,1.248,0,1,0,205.378,88,1.242,1.242,0,0,0,204.137,89.25Z" transform="translate(-200.969 -84.657)"/></g><g class="q" transform="translate(15.371 36.745)"><path class="c" d="M176.518,80.993a4.336,4.336,0,1,0,4.334-4.338A4.338,4.338,0,0,0,176.518,80.993Z" transform="translate(-176.518 -76.655)"/><path class="r" d="M176.807,80.785a3.822,3.822,0,1,0,3.82-3.824A3.823,3.823,0,0,0,176.807,80.785Z" transform="translate(-176.28 -76.403)"/><path class="s" d="M177.1,80.574a3.307,3.307,0,1,0,3.3-3.306A3.307,3.307,0,0,0,177.1,80.574Z" transform="translate(-176.042 -76.151)"/><path class="t" d="M177.386,80.364a2.792,2.792,0,1,0,2.788-2.79A2.792,2.792,0,0,0,177.386,80.364Z" transform="translate(-175.804 -75.899)"/><path class="u" d="M177.676,80.156a2.277,2.277,0,1,0,2.273-2.276A2.275,2.275,0,0,0,177.676,80.156Z" transform="translate(-175.566 -75.647)"/><path class="v" d="M177.966,79.947a1.761,1.761,0,1,0,1.757-1.761A1.759,1.759,0,0,0,177.966,79.947Z" transform="translate(-175.327 -75.396)"/><path class="w" d="M178.255,79.739a1.248,1.248,0,1,0,1.243-1.247A1.244,1.244,0,0,0,178.255,79.739Z" transform="translate(-175.089 -75.144)"/></g><g class="q" transform="translate(32.542 34.037)"><path class="c" d="M185.939,79.5a4.337,4.337,0,1,0,4.336-4.336A4.338,4.338,0,0,0,185.939,79.5Z" transform="translate(-185.939 -75.169)"/><path class="r" d="M186.228,79.3a3.823,3.823,0,1,0,3.822-3.822A3.823,3.823,0,0,0,186.228,79.3Z" transform="translate(-185.701 -74.917)"/><path class="s" d="M186.519,79.087a3.306,3.306,0,1,0,3.3-3.306A3.308,3.308,0,0,0,186.519,79.087Z" transform="translate(-185.462 -74.666)"/><path class="t" d="M186.808,78.879a2.792,2.792,0,1,0,2.788-2.792A2.792,2.792,0,0,0,186.808,78.879Z" transform="translate(-185.224 -74.414)"/><path class="u" d="M187.1,78.67a2.276,2.276,0,1,0,2.273-2.276A2.275,2.275,0,0,0,187.1,78.67Z" transform="translate(-184.986 -74.161)"/><path class="v" d="M187.388,78.461a1.761,1.761,0,1,0,1.757-1.761A1.759,1.759,0,0,0,187.388,78.461Z" transform="translate(-184.747 -73.91)"/><path class="w" d="M187.678,78.253a1.246,1.246,0,1,0,1.239-1.247A1.243,1.243,0,0,0,187.678,78.253Z" transform="translate(-184.509 -73.658)"/></g><g class="q" transform="translate(54.54 12.95)"><path class="c" d="M198.009,67.937a4.337,4.337,0,1,0,4.336-4.338A4.338,4.338,0,0,0,198.009,67.937Z" transform="translate(-198.009 -63.599)"/><path class="r" d="M198.3,67.727a3.822,3.822,0,1,0,3.82-3.822A3.823,3.823,0,0,0,198.3,67.727Z" transform="translate(-197.771 -63.347)"/><path class="s" d="M198.588,67.517a3.307,3.307,0,1,0,3.3-3.306A3.306,3.306,0,0,0,198.588,67.517Z" transform="translate(-197.533 -63.096)"/><path class="t" d="M198.877,67.309a2.792,2.792,0,1,0,2.79-2.792A2.792,2.792,0,0,0,198.877,67.309Z" transform="translate(-197.295 -62.844)"/><path class="u" d="M199.167,67.1a2.277,2.277,0,1,0,2.275-2.278A2.276,2.276,0,0,0,199.167,67.1Z" transform="translate(-197.056 -62.592)"/><path class="v" d="M199.457,66.891a1.762,1.762,0,1,0,1.757-1.762A1.759,1.759,0,0,0,199.457,66.891Z" transform="translate(-196.818 -62.341)"/><path class="w" d="M199.747,66.683a1.247,1.247,0,1,0,1.241-1.248A1.243,1.243,0,0,0,199.747,66.683Z" transform="translate(-196.579 -62.089)"/></g><g class="q" transform="translate(71.125 25.174)"><path class="c" d="M207.109,74.642a4.337,4.337,0,1,0,4.336-4.336A4.338,4.338,0,0,0,207.109,74.642Z" transform="translate(-207.109 -70.306)"/><path class="r" d="M207.4,74.432a3.822,3.822,0,1,0,3.822-3.82A3.824,3.824,0,0,0,207.4,74.432Z" transform="translate(-206.871 -70.054)"/><path class="s" d="M207.688,74.224a3.307,3.307,0,1,0,3.3-3.306A3.307,3.307,0,0,0,207.688,74.224Z" transform="translate(-206.633 -69.803)"/><path class="t" d="M207.978,74.014a2.791,2.791,0,1,0,2.788-2.79A2.79,2.79,0,0,0,207.978,74.014Z" transform="translate(-206.394 -69.551)"/><path class="u" d="M208.268,73.806a2.276,2.276,0,1,0,2.273-2.276A2.274,2.274,0,0,0,208.268,73.806Z" transform="translate(-206.156 -69.299)"/><path class="v" d="M208.558,73.6a1.761,1.761,0,1,0,1.757-1.762A1.757,1.757,0,0,0,208.558,73.6Z" transform="translate(-205.917 -69.048)"/><path class="w" d="M208.848,73.389a1.246,1.246,0,1,0,1.241-1.247A1.241,1.241,0,0,0,208.848,73.389Z" transform="translate(-205.679 -68.796)"/></g></g></g><rect class="bb" width="220" height="220" transform="translate(8727 3604)"/></g></svg>