<svg xmlns="http://www.w3.org/2000/svg" width="220" height="220" viewBox="0 0 220 220"><defs><style>.a,.e{opacity:0.2;}.as,.b{opacity:0.5;}.c{fill:#ccf7ef;}.d{fill:#c5f9ff;}.f{fill:#8fedff;}.g{fill:#52e5cc;}.h{fill:#65d2e0;}.i{fill:#06bc99;}.j{fill:#1b67cb;}.k{fill:#4acbf1;}.l{fill:#61f2f9;}.m{fill:#d9ffff;}.au,.n{opacity:0.833;}.at,.o{opacity:0.667;}.ar,.p{opacity:0.333;}.aq,.q{opacity:0.167;}.ap,.r{opacity:0;}.s{fill:#fdcde7;}.t{fill:#dad5eb;}.u{fill:#b7dcef;}.v{fill:#94e4f3;}.w{fill:#70ecf6;}.x{fill:#4df3fa;}.y{fill:#2afbfe;}.z{opacity:0.85;}.aa{fill:#4afcfe;opacity:0.849;}.ab{opacity:0.7;}.ac{fill:#6afcfe;opacity:0.698;}.ad{opacity:0.55;}.ae{fill:#8bfdff;opacity:0.548;}.af{opacity:0.4;}.ag{fill:#abfeff;opacity:0.397;}.ah{opacity:0.25;}.ai{fill:#cbfeff;opacity:0.246;}.aj,.an{opacity:0.1;}.ak{fill:#ebffff;opacity:0.095;}.al,.ao{isolation:isolate;}.am{fill:#00d8ae;}.ao{opacity:0.6;mix-blend-mode:overlay;}.ap,.aq,.ar,.as,.at,.au,.av{fill:#fff;}.aw{fill:#111114;}.ax{fill:#37007f;}.ay{fill:#43008d;}.az{fill:#e6a376;}.ba{fill:#460689;}.bb{fill:#5d0ca6;}.bc{fill:#efb185;}.bd{fill:#dd9569;}.be{fill:#8c2ddf;}.bf{fill:#def0f9;}.bg{fill:#feffff;}.bh{fill:#f2b78f;}.bi{fill:#9a45f4;}.bj{fill:#b4b9bc;}.bk{fill:#7d8183;}.bl{fill:#e3e5e5;}.bm{fill:#bdbbbb;}.bn{fill:#d2d0d0;}.bo{fill:#d5dfe6;}.bp{fill:#e9f0f4;}.bq{fill:none;}</style></defs><g transform="translate(-149 -907)"><g transform="translate(135.14 535.529)"><g class="a" transform="translate(186.873 549.354)"><path d="M140.425,475.96c7.913,4.447,8.037,11.806.28,16.431s-20.465,4.77-28.38.319-8.037-11.812-.276-16.437S132.512,471.507,140.425,475.96Z" transform="translate(-106.309 -472.711)"/></g><g class="b" transform="translate(19.86 401.339)"><g transform="translate(0 44.564)"><g transform="translate(32.998 1.953)"><path class="c" d="M76.193,423.729c2.859-1.7,5.216.336,7.4,5.975L36.94,457.159c9.237-5.749,8.238-19.34,10.345-27.605A14.242,14.242,0,0,1,53.13,421c2.736-1.621,5.5-1.026,6.315,3.234,1.546,8.048,1.457,18.732,5.946,16.076,4.474-2.653,6.144-12.374,9.364-15.459A7.638,7.638,0,0,1,76.193,423.729Z" transform="translate(-36.94 -420.174)"/></g><path class="c" d="M42.653,420.028c7.162,5.819,2.676,41.991,9.749,38.341,0,0-34.647,20.368-32.441,19.062,3.257-1.932,6.717-7.278,7.527-18.805,1.115-15.871,5.753-35.65,11.371-38.975A3.075,3.075,0,0,1,42.653,420.028Z" transform="translate(-19.86 -419.163)"/></g><g transform="translate(75.398)"><path class="d" d="M81.68,396.963c7.166,5.819,2.68,41.985,9.75,38.333,0,0-34.647,20.372-32.443,19.066,3.257-1.932,6.717-7.28,7.529-18.805,1.115-15.871,5.751-35.652,11.373-38.975A3.071,3.071,0,0,1,81.68,396.963Z" transform="translate(-58.887 -396.096)"/></g></g><path class="e" d="M214.2,491.692,103.4,428.5a10.524,10.524,0,0,0-9.54.068l-56.2,33.065c-2.637,1.548-2.62,4.018.021,5.523l5.253,3,8.869,5.058a38.911,38.911,0,0,0-14.53,4.768c-11.408,6.8-11.225,17.617.408,24.157s30.3,6.335,41.708-.467c4.02-2.4,6.569-5.294,7.714-8.329l53.261,30.372,8.13,4.639a10.5,10.5,0,0,0,9.522-.083l56.2-33.063C216.843,495.66,216.84,493.193,214.2,491.692Z" transform="translate(8.366 34.41)"/><g transform="translate(54.023 457.987)"><path class="f" d="M37.543,442.8a2.247,2.247,0,0,0,.11.626.108.108,0,0,1,.017.06,2.685,2.685,0,0,0,.305.566.5.5,0,0,1,.062.095,3.612,3.612,0,0,0,.495.531c.126.11.282.209.431.315.129.085.238.18.381.263l4.751,2.687.108,7.938L39.456,453.2a.3.3,0,0,0-.081-.044c-.106-.071-.189-.143-.29-.211a5.036,5.036,0,0,1-.44-.321.106.106,0,0,1-.037-.035,3.048,3.048,0,0,1-.388-.4,1,1,0,0,1-.07-.095c-.023-.033-.043-.064-.06-.093-.043-.062-.087-.114-.12-.17-.062-.114-.12-.232-.17-.344a.136.136,0,0,1-.008-.056.414.414,0,0,1-.025-.062,1.455,1.455,0,0,1-.066-.226,2.61,2.61,0,0,1-.048-.346v-.054c-.031-2.3-.058-4.615-.095-6.92l-.014-.962Z" transform="translate(-37.543 -409.215)"/><path class="f" d="M93.86,489.164a7.38,7.38,0,0,0,1.209.512c.147.05.3.091.456.137.2.052.4.1.6.139.247.048.5.095.75.124.058,0,.118.019.176.023.34.031.684.048,1.03.046.054,0,.1,0,.147,0a9.392,9.392,0,0,0,1.018-.069c.048,0,.1-.01.145-.017a8.776,8.776,0,0,0,.985-.178c.05-.012.108-.031.162-.046a7.2,7.2,0,0,0,.854-.267c.044-.015.095-.031.143-.046a8.418,8.418,0,0,0,.916-.452l50.619-29.984a3.053,3.053,0,0,0,1.77-2.531l.108,7.938a3.045,3.045,0,0,1-1.768,2.537L102.567,497a6.911,6.911,0,0,1-.873.431.14.14,0,0,1-.048.019c-.046.017-.1.029-.147.048-.178.068-.35.135-.543.193-.1.029-.2.052-.307.079-.052.015-.108.025-.164.044s-.106.027-.162.039c-.2.044-.4.079-.6.112l-.213.023c-.054.012-.108.016-.162.023s-.143.019-.213.025c-.2.015-.4.035-.6.039-.066,0-.128,0-.187,0h-.164c-.095,0-.182,0-.269,0-.23,0-.452-.019-.678-.043a.251.251,0,0,1-.079-.014,1.317,1.317,0,0,1-.172-.015c-.174-.019-.35-.042-.52-.068-.083-.012-.151-.042-.222-.05-.211-.048-.412-.095-.616-.147-.1-.031-.213-.043-.321-.075-.048-.019-.089-.041-.139-.056a7.663,7.663,0,0,1-1.2-.518l-7.339-4.158L86.513,485Z" transform="translate(8.094 -396.404)"/><g transform="translate(0)"><path class="d" d="M39.309,456.483c-2.369,1.4-2.351,3.63.035,4.981l4.751,2.687,88.056,49.863,7.347,4.163a9.47,9.47,0,0,0,8.593-.1L198.709,488.1c2.369-1.406,2.355-3.63-.031-4.981L98.528,426.407a9.471,9.471,0,0,0-8.6.091Z" transform="translate(-37.543 -425.418)"/></g><path class="g" d="M100.114,427.32l88.062,49.861L128.99,512.242,40.934,462.378Z" transform="translate(-34.383 -423.645)"/><g transform="translate(21.037 12.964)"><path class="h" d="M48.88,442.894c-.636.379-.643,1.128.3,1.6a2.281,2.281,0,0,0,2.114.216l18.4-10.728c.636-.373-.2-1.234-.838-1.6a2.532,2.532,0,0,0-2.293.025Z" transform="translate(-48.432 -432.128)"/></g><g transform="translate(21.571 13.437)"><path class="f" d="M49.186,443.138c-.638.375-.636.978,0,1.333a2.556,2.556,0,0,0,2.3-.027L69.18,433.969a.708.708,0,0,0-.015-1.335,2.538,2.538,0,0,0-2.293.027Z" transform="translate(-48.709 -432.373)"/></g><g transform="translate(6.551 38.733)"><path class="i" d="M40.934,445.467l.107,7.939L129.1,503.27l-.115-7.939Z" transform="translate(-40.934 -445.467)"/></g><g transform="translate(124.614 71.048)"><path class="f" d="M103.638,463.17c-2.133,1.263-2.123,3.282.025,4.5a8.559,8.559,0,0,0,7.755-.091c2.139-1.267,2.135-3.279-.012-4.494A8.558,8.558,0,0,0,103.638,463.17Z" transform="translate(-102.045 -462.194)"/></g></g><g transform="translate(76.171 469.31)"><path class="j" d="M49.007,462.443l64.26,36.771,53.154-31.16-64.256-36.775Z" transform="translate(-49.007 -431.279)"/></g><g transform="translate(81.064 472.132)"><path class="k" d="M51.54,461.312l58.92,33.715,48.732-28.568L100.278,432.74Z" transform="translate(-51.54 -432.74)"/></g><g transform="translate(84.483 474.106)"><path class="l" d="M53.31,460.522,108.5,492.1l45.647-26.757L98.962,433.762Z" transform="translate(-53.31 -433.762)"/></g><g transform="translate(87.871 416.333)"><path class="m" d="M55.412,459.584l50.752,29.043,41.978-24.609L97.395,434.975Z" transform="translate(-54.739 -374.858)"/><g class="n" transform="translate(0.561 50.096)"><path class="m" d="M55.354,454.4l50.752,29.043,41.978-24.61L97.337,429.788Z" transform="translate(-55.354 -429.788)"/></g><g class="o" transform="translate(0.449 40.078)"><path class="m" d="M55.3,449.212l50.752,29.043,41.978-24.609L97.279,424.6Z" transform="translate(-55.296 -424.602)"/></g><g class="b" transform="translate(0.337 30.058)"><path class="m" d="M55.238,444.026l50.752,29.043,41.978-24.61L97.221,419.416Z" transform="translate(-55.238 -419.416)"/></g><g class="p" transform="translate(0.224 20.038)"><path class="m" d="M55.18,438.839l50.752,29.043,41.978-24.61L97.162,414.229Z" transform="translate(-55.18 -414.229)"/></g><g class="q" transform="translate(0.112 10.02)"><path class="m" d="M55.122,433.653,105.873,462.7l41.978-24.609L97.1,409.044Z" transform="translate(-55.122 -409.044)"/></g><g class="r"><path class="m" d="M55.063,428.467l50.752,29.043,41.978-24.61L97.046,403.857Z" transform="translate(-55.063 -403.857)"/></g></g><g transform="translate(166.097 466.325)"><path class="s" d="M100.36,432.564l-2.054,1.75a.318.318,0,0,1-.421,0l-2.112-1.7a.75.75,0,0,1-.014-1.045l2.058-1.752a.311.311,0,0,1,.419,0l2.11,1.7A.756.756,0,0,1,100.36,432.564Z" transform="translate(-95.555 -429.734)"/><g class="n" transform="translate(0.024 2.124)"><path class="s" d="M100.374,433.665l-2.056,1.75a.316.316,0,0,1-.421,0l-2.11-1.706a.75.75,0,0,1-.015-1.045l2.058-1.75a.31.31,0,0,1,.421,0l2.108,1.7A.756.756,0,0,1,100.374,433.665Z" transform="translate(-95.567 -430.833)"/></g><g class="o" transform="translate(0.048 4.25)"><path class="s" d="M100.385,434.764l-2.054,1.75a.323.323,0,0,1-.423.006l-2.11-1.706a.754.754,0,0,1-.015-1.047l2.058-1.748a.31.31,0,0,1,.421-.006l2.11,1.7A.756.756,0,0,1,100.385,434.764Z" transform="translate(-95.579 -431.934)"/></g><g class="b" transform="translate(0.072 6.374)"><path class="s" d="M100.4,435.865l-2.054,1.748a.316.316,0,0,1-.423.006l-2.108-1.706a.754.754,0,0,1-.017-1.047l2.058-1.748a.314.314,0,0,1,.421-.006l2.11,1.7A.756.756,0,0,1,100.4,435.865Z" transform="translate(-95.592 -433.033)"/></g><g class="p" transform="translate(0.096 8.498)"><path class="s" d="M100.411,436.966l-2.056,1.748a.316.316,0,0,1-.421.006l-2.11-1.706a.752.752,0,0,1-.015-1.047l2.058-1.748a.31.31,0,0,1,.421-.006l2.108,1.7A.756.756,0,0,1,100.411,436.966Z" transform="translate(-95.604 -434.133)"/></g><g class="q" transform="translate(0.12 10.624)"><path class="s" d="M100.422,438.065l-2.054,1.746a.314.314,0,0,1-.423.008l-2.11-1.7a.758.758,0,0,1-.015-1.049l2.058-1.748a.314.314,0,0,1,.421-.008l2.11,1.706A.756.756,0,0,1,100.422,438.065Z" transform="translate(-95.617 -435.233)"/></g><g class="r" transform="translate(0.144 12.747)"><path class="s" d="M100.434,439.166l-2.054,1.746a.312.312,0,0,1-.423.008l-2.108-1.706a.756.756,0,0,1-.017-1.049l2.058-1.746a.31.31,0,0,1,.421-.008l2.11,1.706A.756.756,0,0,1,100.434,439.166Z" transform="translate(-95.629 -436.332)"/></g><g class="q" transform="translate(0.12 10.624)"><path class="t" d="M100.422,438.065l-2.054,1.746a.314.314,0,0,1-.423.008l-2.11-1.7a.758.758,0,0,1-.015-1.049l2.058-1.748a.314.314,0,0,1,.421-.008l2.11,1.706A.756.756,0,0,1,100.422,438.065Z" transform="translate(-95.617 -435.233)"/></g><g class="p" transform="translate(0.096 8.498)"><path class="u" d="M100.411,436.966l-2.056,1.748a.316.316,0,0,1-.421.006l-2.11-1.706a.752.752,0,0,1-.015-1.047l2.058-1.748a.31.31,0,0,1,.421-.006l2.108,1.7A.756.756,0,0,1,100.411,436.966Z" transform="translate(-95.604 -434.133)"/></g><g class="b" transform="translate(0.072 6.374)"><path class="v" d="M100.4,435.865l-2.056,1.748a.314.314,0,0,1-.421.006l-2.11-1.706a.752.752,0,0,1-.015-1.047l2.058-1.748a.311.311,0,0,1,.419-.006l2.11,1.7A.756.756,0,0,1,100.4,435.865Z" transform="translate(-95.592 -433.033)"/></g><g class="o" transform="translate(0.048 4.25)"><path class="w" d="M100.385,434.764l-2.054,1.75a.323.323,0,0,1-.423.006l-2.11-1.706a.754.754,0,0,1-.015-1.047l2.058-1.748a.31.31,0,0,1,.421-.006l2.11,1.7A.756.756,0,0,1,100.385,434.764Z" transform="translate(-95.579 -431.934)"/></g><g class="n" transform="translate(0.024 2.124)"><path class="x" d="M100.374,433.665l-2.056,1.75a.316.316,0,0,1-.421,0l-2.11-1.706a.75.75,0,0,1-.015-1.045l2.058-1.75a.31.31,0,0,1,.421,0l2.108,1.7A.756.756,0,0,1,100.374,433.665Z" transform="translate(-95.567 -430.833)"/></g><path class="y" d="M100.36,432.564l-2.054,1.75a.318.318,0,0,1-.421,0l-2.112-1.7a.75.75,0,0,1-.014-1.045l2.058-1.752a.311.311,0,0,1,.419,0l2.11,1.7A.756.756,0,0,1,100.36,432.564Z" transform="translate(-95.555 -429.734)"/><g class="z" transform="translate(0.024 2.094)"><path class="aa" d="M100.374,433.648,98.318,435.4a.318.318,0,0,1-.421,0l-2.11-1.706a.75.75,0,0,1-.015-1.045l2.056-1.75a.314.314,0,0,1,.423-.006l2.108,1.7A.754.754,0,0,1,100.374,433.648Z" transform="translate(-95.567 -430.818)"/></g><g class="ab" transform="translate(0.048 4.19)"><path class="ac" d="M100.385,434.733l-2.056,1.75a.318.318,0,0,1-.421,0l-2.11-1.7a.751.751,0,0,1-.015-1.045l2.056-1.752a.318.318,0,0,1,.423-.006l2.11,1.7A.756.756,0,0,1,100.385,434.733Z" transform="translate(-95.579 -431.903)"/></g><g class="ad" transform="translate(0.071 6.285)"><path class="ae" d="M100.4,435.817l-2.054,1.75a.318.318,0,0,1-.423.006l-2.11-1.706a.754.754,0,0,1-.015-1.047l2.056-1.748a.316.316,0,0,1,.423-.008l2.11,1.706A.756.756,0,0,1,100.4,435.817Z" transform="translate(-95.591 -432.987)"/></g><g class="af" transform="translate(0.094 8.379)"><path class="ag" d="M100.409,436.9l-2.054,1.75a.316.316,0,0,1-.423.008l-2.11-1.71a.749.749,0,0,1-.015-1.043l2.056-1.748a.314.314,0,0,1,.423-.01l2.11,1.708A.753.753,0,0,1,100.409,436.9Z" transform="translate(-95.603 -434.071)"/></g><g class="ah" transform="translate(0.118 10.475)"><path class="ai" d="M100.421,437.986l-2.054,1.75a.319.319,0,0,1-.423.006l-2.11-1.706a.756.756,0,0,1-.015-1.047l2.056-1.748a.318.318,0,0,1,.423-.01l2.11,1.708A.754.754,0,0,1,100.421,437.986Z" transform="translate(-95.616 -435.156)"/></g><g class="aj" transform="translate(0.141 12.569)"><path class="ak" d="M100.433,439.07l-2.054,1.75a.316.316,0,0,1-.423.008l-2.11-1.71a.751.751,0,0,1-.015-1.043l2.056-1.748a.316.316,0,0,1,.423-.012l2.11,1.71A.751.751,0,0,1,100.433,439.07Z" transform="translate(-95.628 -436.24)"/></g></g><g transform="translate(93.602 463.091)"><path class="s" d="M62.837,430.894l-2.056,1.748a.319.319,0,0,1-.425,0l-2.108-1.706a.753.753,0,0,1-.015-1.045l2.059-1.748a.3.3,0,0,1,.417-.006l2.112,1.7A.758.758,0,0,1,62.837,430.894Z" transform="translate(-58.03 -428.06)"/><g class="n" transform="translate(0.023 2.126)"><path class="s" d="M62.849,431.994l-2.056,1.746a.314.314,0,0,1-.423.006l-2.11-1.706a.754.754,0,0,1-.014-1.047l2.058-1.746a.309.309,0,0,1,.419-.008l2.112,1.706A.76.76,0,0,1,62.849,431.994Z" transform="translate(-58.042 -429.161)"/></g><g class="o" transform="translate(0.047 4.25)"><path class="s" d="M62.86,433.094l-2.054,1.748a.317.317,0,0,1-.425,0l-2.11-1.706a.753.753,0,0,1-.014-1.045l2.058-1.748a.305.305,0,0,1,.419-.006l2.112,1.706A.756.756,0,0,1,62.86,433.094Z" transform="translate(-58.054 -430.26)"/></g><g class="b" transform="translate(0.071 6.376)"><path class="s" d="M62.872,434.192l-2.054,1.748a.317.317,0,0,1-.425.006l-2.11-1.7a.757.757,0,0,1-.014-1.047l2.058-1.75a.313.313,0,0,1,.419-.006l2.112,1.706A.756.756,0,0,1,62.872,434.192Z" transform="translate(-58.067 -431.361)"/></g><g class="p" transform="translate(0.096 8.501)"><path class="s" d="M62.885,435.291,60.83,437.04a.316.316,0,0,1-.423.008l-2.11-1.706a.758.758,0,0,1-.014-1.049l2.058-1.748a.313.313,0,0,1,.419-.006l2.112,1.706A.756.756,0,0,1,62.885,435.291Z" transform="translate(-58.079 -432.461)"/></g><g class="q" transform="translate(0.12 10.627)"><path class="s" d="M62.9,436.39l-2.054,1.752a.321.321,0,0,1-.425.006l-2.11-1.706a.757.757,0,0,1-.014-1.047l2.058-1.752a.313.313,0,0,1,.419,0l2.112,1.7A.753.753,0,0,1,62.9,436.39Z" transform="translate(-58.092 -433.561)"/></g><g class="r" transform="translate(0.143 12.752)"><path class="s" d="M62.909,437.489l-2.054,1.75a.316.316,0,0,1-.423.008l-2.112-1.706a.76.76,0,0,1-.014-1.049l2.058-1.75a.318.318,0,0,1,.419,0l2.112,1.706A.753.753,0,0,1,62.909,437.489Z" transform="translate(-58.104 -434.661)"/></g><g class="q" transform="translate(0.12 10.627)"><path class="t" d="M62.9,436.39l-2.054,1.752a.321.321,0,0,1-.425.006l-2.11-1.706a.757.757,0,0,1-.014-1.047l2.058-1.752a.313.313,0,0,1,.419,0l2.112,1.7A.753.753,0,0,1,62.9,436.39Z" transform="translate(-58.092 -433.561)"/></g><g class="p" transform="translate(0.096 8.501)"><path class="u" d="M62.885,435.291,60.83,437.04a.316.316,0,0,1-.423.008l-2.11-1.706a.758.758,0,0,1-.014-1.049l2.058-1.748a.313.313,0,0,1,.419-.006l2.112,1.706A.756.756,0,0,1,62.885,435.291Z" transform="translate(-58.079 -432.461)"/></g><g class="b" transform="translate(0.071 6.376)"><path class="v" d="M62.874,434.192l-2.056,1.748a.317.317,0,0,1-.425.006l-2.108-1.7a.756.756,0,0,1-.015-1.047l2.059-1.75a.313.313,0,0,1,.419-.006l2.11,1.706A.756.756,0,0,1,62.874,434.192Z" transform="translate(-58.067 -431.361)"/></g><g class="o" transform="translate(0.047 4.25)"><path class="w" d="M62.86,433.094l-2.054,1.748a.317.317,0,0,1-.425,0l-2.11-1.706a.753.753,0,0,1-.014-1.045l2.058-1.748a.305.305,0,0,1,.419-.006l2.112,1.706A.756.756,0,0,1,62.86,433.094Z" transform="translate(-58.054 -430.26)"/></g><g class="n" transform="translate(0.023 2.126)"><path class="x" d="M62.849,431.994l-2.056,1.746a.314.314,0,0,1-.423.006l-2.11-1.706a.754.754,0,0,1-.014-1.047l2.058-1.746a.309.309,0,0,1,.419-.008l2.112,1.706A.76.76,0,0,1,62.849,431.994Z" transform="translate(-58.042 -429.161)"/></g><path class="y" d="M62.837,430.894l-2.056,1.748a.319.319,0,0,1-.425,0l-2.108-1.706a.753.753,0,0,1-.015-1.045l2.059-1.748a.3.3,0,0,1,.417-.006l2.112,1.7A.758.758,0,0,1,62.837,430.894Z" transform="translate(-58.03 -428.06)"/><g class="z" transform="translate(0.023 2.096)"><path class="aa" d="M62.849,431.977l-2.056,1.75a.318.318,0,0,1-.423,0l-2.11-1.706a.751.751,0,0,1-.014-1.045l2.056-1.748a.312.312,0,0,1,.421-.01l2.112,1.706A.76.76,0,0,1,62.849,431.977Z" transform="translate(-58.042 -429.145)"/></g><g class="ab" transform="translate(0.047 4.19)"><path class="ac" d="M62.86,433.063l-2.054,1.748a.319.319,0,0,1-.425,0l-2.11-1.706a.753.753,0,0,1-.014-1.045l2.056-1.748a.308.308,0,0,1,.421-.006l2.112,1.7A.758.758,0,0,1,62.86,433.063Z" transform="translate(-58.054 -430.229)"/></g><g class="ad" transform="translate(0.071 6.286)"><path class="ae" d="M62.872,434.146l-2.054,1.748a.319.319,0,0,1-.425.006l-2.11-1.706a.753.753,0,0,1-.014-1.045l2.056-1.75a.314.314,0,0,1,.421-.008l2.112,1.706A.76.76,0,0,1,62.872,434.146Z" transform="translate(-58.066 -431.314)"/></g><g class="af" transform="translate(0.094 8.382)"><path class="ag" d="M62.884,435.23l-2.054,1.752a.321.321,0,0,1-.425,0l-2.11-1.7a.753.753,0,0,1-.014-1.045l2.056-1.752a.316.316,0,0,1,.421-.006l2.112,1.7A.758.758,0,0,1,62.884,435.23Z" transform="translate(-58.078 -432.399)"/></g><g class="ah" transform="translate(0.117 10.476)"><path class="ai" d="M62.9,436.315l-2.054,1.748a.317.317,0,0,1-.425,0l-2.11-1.7a.753.753,0,0,1-.014-1.045l2.056-1.75a.314.314,0,0,1,.421-.008l2.112,1.706A.758.758,0,0,1,62.9,436.315Z" transform="translate(-58.09 -433.483)"/></g><g class="aj" transform="translate(0.141 12.572)"><path class="ak" d="M62.908,437.4l-2.054,1.752a.318.318,0,0,1-.423,0l-2.112-1.7a.755.755,0,0,1-.014-1.045l2.054-1.752a.321.321,0,0,1,.423-.008l2.112,1.706A.758.758,0,0,1,62.908,437.4Z" transform="translate(-58.103 -434.568)"/></g></g><g transform="translate(149.314 462.467)"><path class="s" d="M91.673,430.569l-2.054,1.75a.31.31,0,0,1-.421,0l-2.114-1.706a.749.749,0,0,1-.012-1.043l2.056-1.752a.31.31,0,0,1,.421,0l2.11,1.7A.76.76,0,0,1,91.673,430.569Z" transform="translate(-86.867 -427.737)"/><g class="n" transform="translate(0.024 2.125)"><path class="s" d="M91.687,431.669l-2.054,1.75a.312.312,0,0,1-.423,0L87.1,431.717a.753.753,0,0,1-.012-1.045l2.056-1.75a.312.312,0,0,1,.423,0l2.108,1.7A.757.757,0,0,1,91.687,431.669Z" transform="translate(-86.88 -428.837)"/></g><g class="o" transform="translate(0.047 4.25)"><path class="s" d="M91.7,432.769l-2.054,1.752a.316.316,0,0,1-.423,0l-2.114-1.7a.753.753,0,0,1-.012-1.045l2.058-1.752a.31.31,0,0,1,.421,0l2.11,1.7A.76.76,0,0,1,91.7,432.769Z" transform="translate(-86.892 -429.937)"/></g><g class="b" transform="translate(0.071 6.375)"><path class="s" d="M91.71,433.869l-2.054,1.75a.314.314,0,0,1-.423,0l-2.112-1.706a.753.753,0,0,1-.013-1.045l2.057-1.75a.31.31,0,0,1,.421,0l2.11,1.7A.756.756,0,0,1,91.71,433.869Z" transform="translate(-86.904 -431.037)"/></g><g class="p" transform="translate(0.095 8.502)"><path class="s" d="M91.724,434.968l-2.054,1.75a.319.319,0,0,1-.423,0l-2.114-1.706a.753.753,0,0,1-.012-1.045l2.056-1.75a.316.316,0,0,1,.423,0l2.11,1.7A.759.759,0,0,1,91.724,434.968Z" transform="translate(-86.917 -432.138)"/></g><g class="q" transform="translate(0.119 10.627)"><path class="s" d="M91.736,436.068l-2.054,1.75a.316.316,0,0,1-.423,0l-2.112-1.706a.749.749,0,0,1-.014-1.043l2.058-1.752a.314.314,0,0,1,.421,0l2.11,1.7A.758.758,0,0,1,91.736,436.068Z" transform="translate(-86.929 -433.238)"/></g><g class="r" transform="translate(0.143 12.752)"><path class="s" d="M91.747,437.168l-2.054,1.75a.314.314,0,0,1-.421,0l-2.114-1.706a.753.753,0,0,1-.014-1.045l2.058-1.75a.316.316,0,0,1,.423,0l2.108,1.706A.753.753,0,0,1,91.747,437.168Z" transform="translate(-86.941 -434.338)"/></g><g class="q" transform="translate(0.119 10.627)"><path class="t" d="M91.736,436.068l-2.054,1.75a.316.316,0,0,1-.423,0l-2.112-1.706a.749.749,0,0,1-.014-1.043l2.058-1.752a.314.314,0,0,1,.421,0l2.11,1.7A.758.758,0,0,1,91.736,436.068Z" transform="translate(-86.929 -433.238)"/></g><g class="p" transform="translate(0.095 8.502)"><path class="u" d="M91.724,434.968l-2.054,1.75a.319.319,0,0,1-.423,0l-2.114-1.706a.753.753,0,0,1-.012-1.045l2.056-1.75a.316.316,0,0,1,.423,0l2.11,1.7A.759.759,0,0,1,91.724,434.968Z" transform="translate(-86.917 -432.138)"/></g><g class="b" transform="translate(0.072 6.375)"><path class="v" d="M91.712,433.869l-2.054,1.75a.314.314,0,0,1-.423,0l-2.114-1.706a.753.753,0,0,1-.012-1.045l2.056-1.75a.31.31,0,0,1,.421,0l2.11,1.7A.758.758,0,0,1,91.712,433.869Z" transform="translate(-86.905 -431.037)"/></g><g class="o" transform="translate(0.047 4.25)"><path class="w" d="M91.7,432.769l-2.054,1.752a.316.316,0,0,1-.423,0l-2.114-1.7a.753.753,0,0,1-.012-1.045l2.058-1.752a.31.31,0,0,1,.421,0l2.11,1.7A.76.76,0,0,1,91.7,432.769Z" transform="translate(-86.892 -429.937)"/></g><g class="n" transform="translate(0.024 2.125)"><path class="x" d="M91.687,431.669l-2.054,1.75a.312.312,0,0,1-.423,0L87.1,431.717a.753.753,0,0,1-.012-1.045l2.056-1.75a.312.312,0,0,1,.423,0l2.108,1.7A.757.757,0,0,1,91.687,431.669Z" transform="translate(-86.88 -428.837)"/></g><path class="y" d="M91.673,430.569l-2.054,1.75a.31.31,0,0,1-.421,0l-2.114-1.706a.749.749,0,0,1-.012-1.043l2.056-1.752a.31.31,0,0,1,.421,0l2.11,1.7A.76.76,0,0,1,91.673,430.569Z" transform="translate(-86.867 -427.737)"/><g class="z" transform="translate(0.024 2.096)"><path class="aa" d="M91.687,431.652l-2.054,1.75a.312.312,0,0,1-.423,0L87.1,431.7a.756.756,0,0,1-.012-1.047l2.054-1.752a.319.319,0,0,1,.425,0l2.108,1.7A.758.758,0,0,1,91.687,431.652Z" transform="translate(-86.88 -428.822)"/></g><g class="ab" transform="translate(0.047 4.19)"><path class="ac" d="M91.7,432.738l-2.054,1.75a.312.312,0,0,1-.423,0l-2.114-1.706a.753.753,0,0,1-.012-1.045l2.054-1.75a.315.315,0,0,1,.425,0l2.11,1.7A.76.76,0,0,1,91.7,432.738Z" transform="translate(-86.892 -429.906)"/></g><g class="ad" transform="translate(0.07 6.286)"><path class="ae" d="M91.711,433.821l-2.054,1.75a.312.312,0,0,1-.423,0l-2.114-1.7a.753.753,0,0,1-.012-1.045l2.054-1.752a.316.316,0,0,1,.423,0l2.112,1.7A.757.757,0,0,1,91.711,433.821Z" transform="translate(-86.904 -430.991)"/></g><g class="af" transform="translate(0.093 8.38)"><path class="ag" d="M91.723,434.905l-2.054,1.75a.312.312,0,0,1-.423,0l-2.114-1.7a.753.753,0,0,1-.012-1.045l2.054-1.754a.319.319,0,0,1,.425,0l2.11,1.706A.755.755,0,0,1,91.723,434.905Z" transform="translate(-86.916 -432.075)"/></g><g class="ah" transform="translate(0.118 10.476)"><path class="ai" d="M91.734,435.99l-2.054,1.75a.312.312,0,0,1-.423,0l-2.112-1.7A.753.753,0,0,1,87.132,435l2.054-1.752a.319.319,0,0,1,.425,0l2.11,1.7A.758.758,0,0,1,91.734,435.99Z" transform="translate(-86.928 -433.16)"/></g><g class="aj" transform="translate(0.141 12.571)"><path class="ak" d="M91.746,437.074l-2.054,1.75a.312.312,0,0,1-.423,0l-2.112-1.7a.753.753,0,0,1-.014-1.045l2.052-1.754a.322.322,0,0,1,.427,0l2.11,1.706A.755.755,0,0,1,91.746,437.074Z" transform="translate(-86.94 -434.244)"/></g></g><g transform="translate(111.859 484.168)"><g transform="translate(0)"><path class="s" d="M72.286,441.8l-2.056,1.752a.316.316,0,0,1-.423,0L67.7,441.85a.755.755,0,0,1-.015-1.045l2.056-1.75a.312.312,0,0,1,.423,0l2.11,1.706A.749.749,0,0,1,72.286,441.8Z" transform="translate(-67.48 -438.97)"/><g class="n" transform="translate(0.024 2.125)"><path class="s" d="M72.3,442.9l-2.054,1.748a.312.312,0,0,1-.423,0l-2.112-1.706a.753.753,0,0,1-.014-1.043l2.056-1.752a.314.314,0,0,1,.421,0l2.112,1.706A.754.754,0,0,1,72.3,442.9Z" transform="translate(-67.493 -440.07)"/></g><g class="o" transform="translate(0.048 4.25)"><path class="s" d="M72.312,444l-2.056,1.75a.312.312,0,0,1-.423,0l-2.11-1.706a.753.753,0,0,1-.015-1.045l2.056-1.75a.312.312,0,0,1,.423,0l2.11,1.706A.751.751,0,0,1,72.312,444Z" transform="translate(-67.505 -441.17)"/></g><g class="b" transform="translate(0.071 6.375)"><path class="s" d="M72.324,445.1l-2.056,1.75a.316.316,0,0,1-.423,0l-2.11-1.706a.753.753,0,0,1-.015-1.045l2.056-1.75a.314.314,0,0,1,.423-.006l2.11,1.706A.754.754,0,0,1,72.324,445.1Z" transform="translate(-67.517 -442.27)"/></g><g class="p" transform="translate(0.096 8.499)"><path class="s" d="M72.337,446.2l-2.056,1.747a.312.312,0,0,1-.423,0l-2.11-1.706a.753.753,0,0,1-.015-1.045l2.056-1.75a.31.31,0,0,1,.421,0l2.112,1.706A.756.756,0,0,1,72.337,446.2Z" transform="translate(-67.53 -443.369)"/></g><g class="q" transform="translate(0.119 10.626)"><path class="s" d="M72.349,447.3l-2.056,1.75a.316.316,0,0,1-.423,0l-2.11-1.706a.753.753,0,0,1-.015-1.045l2.056-1.75a.312.312,0,0,1,.423,0l2.11,1.706A.751.751,0,0,1,72.349,447.3Z" transform="translate(-67.542 -444.47)"/></g><g class="r" transform="translate(0.143 12.75)"><path class="s" d="M72.36,448.4,70.3,450.151a.312.312,0,0,1-.423,0l-2.11-1.706a.753.753,0,0,1-.015-1.043l2.058-1.752a.314.314,0,0,1,.421,0l2.11,1.706A.756.756,0,0,1,72.36,448.4Z" transform="translate(-67.554 -445.57)"/></g><g class="q" transform="translate(0.119 10.626)"><path class="t" d="M72.349,447.3l-2.056,1.75a.316.316,0,0,1-.423,0l-2.11-1.706a.753.753,0,0,1-.015-1.045l2.056-1.75a.312.312,0,0,1,.423,0l2.11,1.706A.751.751,0,0,1,72.349,447.3Z" transform="translate(-67.542 -444.47)"/></g><g class="p" transform="translate(0.096 8.499)"><path class="u" d="M72.337,446.2l-2.056,1.747a.312.312,0,0,1-.423,0l-2.11-1.706a.753.753,0,0,1-.015-1.045l2.056-1.75a.31.31,0,0,1,.421,0l2.112,1.706A.756.756,0,0,1,72.337,446.2Z" transform="translate(-67.53 -443.369)"/></g><g class="b" transform="translate(0.072 6.375)"><path class="v" d="M72.323,445.1l-2.056,1.75a.314.314,0,0,1-.421,0l-2.112-1.706a.755.755,0,0,1-.014-1.045l2.054-1.75a.314.314,0,0,1,.423-.006l2.112,1.706A.756.756,0,0,1,72.323,445.1Z" transform="translate(-67.518 -442.27)"/></g><g class="o" transform="translate(0.048 4.25)"><path class="w" d="M72.312,444l-2.056,1.75a.312.312,0,0,1-.423,0l-2.11-1.706a.753.753,0,0,1-.015-1.045l2.056-1.75a.312.312,0,0,1,.423,0l2.11,1.706A.751.751,0,0,1,72.312,444Z" transform="translate(-67.505 -441.17)"/></g><g class="n" transform="translate(0.024 2.125)"><path class="x" d="M72.3,442.9l-2.054,1.748a.312.312,0,0,1-.423,0l-2.112-1.706a.753.753,0,0,1-.014-1.043l2.056-1.752a.314.314,0,0,1,.421,0l2.112,1.706A.754.754,0,0,1,72.3,442.9Z" transform="translate(-67.493 -440.07)"/></g><path class="y" d="M72.286,441.8l-2.056,1.752a.316.316,0,0,1-.423,0L67.7,441.85a.755.755,0,0,1-.015-1.045l2.056-1.75a.312.312,0,0,1,.423,0l2.11,1.706A.749.749,0,0,1,72.286,441.8Z" transform="translate(-67.48 -438.97)"/><g class="z" transform="translate(0.024 2.094)"><path class="aa" d="M72.3,442.888l-2.054,1.748a.318.318,0,0,1-.423.006l-2.112-1.706a.757.757,0,0,1-.014-1.047l2.056-1.748a.308.308,0,0,1,.421-.006l2.112,1.706A.754.754,0,0,1,72.3,442.888Z" transform="translate(-67.493 -440.054)"/></g><g class="ab" transform="translate(0.048 4.19)"><path class="ac" d="M72.312,443.969l-2.056,1.752a.316.316,0,0,1-.423,0l-2.11-1.706a.753.753,0,0,1-.015-1.045l2.056-1.75a.312.312,0,0,1,.423,0l2.11,1.706A.749.749,0,0,1,72.312,443.969Z" transform="translate(-67.505 -441.139)"/></g><g class="ad" transform="translate(0.071 6.285)"><path class="ae" d="M72.322,445.057l-2.056,1.748a.316.316,0,0,1-.421.006l-2.11-1.706a.756.756,0,0,1-.015-1.047l2.056-1.748a.31.31,0,0,1,.423-.006l2.11,1.706A.752.752,0,0,1,72.322,445.057Z" transform="translate(-67.517 -442.223)"/></g><g class="af" transform="translate(0.094 8.379)"><path class="ag" d="M72.336,446.141l-2.056,1.748a.321.321,0,0,1-.423.008l-2.11-1.706a.758.758,0,0,1-.015-1.049l2.056-1.747a.308.308,0,0,1,.423-.008l2.11,1.708A.751.751,0,0,1,72.336,446.141Z" transform="translate(-67.529 -443.307)"/></g><g class="ah" transform="translate(0.117 10.475)"><path class="ai" d="M72.348,447.224l-2.056,1.75a.318.318,0,0,1-.423.006l-2.11-1.706a.756.756,0,0,1-.015-1.047l2.056-1.75a.312.312,0,0,1,.423,0l2.11,1.706A.751.751,0,0,1,72.348,447.224Z" transform="translate(-67.541 -444.392)"/></g><g class="aj" transform="translate(0.141 12.57)"><path class="ak" d="M72.359,448.31,70.3,450.058a.321.321,0,0,1-.423.008l-2.108-1.706a.758.758,0,0,1-.017-1.049l2.058-1.747a.306.306,0,0,1,.421-.008l2.11,1.708A.751.751,0,0,1,72.359,448.31Z" transform="translate(-67.553 -445.476)"/></g></g></g><g transform="translate(85.301 417.525)"><g class="al"><g transform="translate(0 27.119)"><path class="g" d="M53.733,418.512l.079,5.517,54.2,30.692-.077-5.517Z" transform="translate(-53.733 -418.512)"/></g><g transform="translate(54.205 30.692)"><path class="i" d="M81.791,447.48,81.868,453l45.779-27.123-.079-5.513Z" transform="translate(-81.791 -420.361)"/></g><path class="am" d="M53.733,431.593l54.205,30.692,45.777-27.119L99.51,404.475Z" transform="translate(-53.733 -404.475)"/></g></g><g transform="translate(85.896 390.471)"><g transform="translate(0 0.166)"><g transform="translate(8.305)"><path class="am" d="M147.5,438.127c1-20.194-24.738-59.633-67.9-43.986-24.694,8.955-30.327,23-3.781,41.96,0,0-.16,10.765,20.494,8.829,0,0,13.3-.713,22.362,5.985C128.284,458,147.045,447.246,147.5,438.127Z" transform="translate(-58.34 -390.557)"/></g><g transform="translate(16.251 3.387)"><path class="c" d="M63.682,403.1c.073-.073,6.816-7.065,16.122-7.573a86.862,86.862,0,0,1,10.005.286c7.7.491,17.024.7,24.634-2.6l-2.046-.895c-7.225,3.137-14.978,2.28-22.48,1.8a89.071,89.071,0,0,0-10.21-.278c-9.99.543-16.962,7.792-17.254,8.093Z" transform="translate(-62.453 -392.31)"/></g><g transform="translate(45.34 0.335)"><path class="c" d="M77.765,396.383l1.453-.257a3.1,3.1,0,0,1,.079-.923c.344-.585,3.174-2.691,10.6-3.959l-2.747-.514c-6.37,1.088-8.64,1.982-9.463,3.887A1.907,1.907,0,0,0,77.765,396.383Z" transform="translate(-77.51 -390.73)"/></g><g transform="translate(52.229 5.659)"><path class="c" d="M96.974,406.3l1.671-1.238c-2.687-3.852-9.984-9.281-14.219-11.066-.871-.371-.307-.114-1.206-.514l-2.144.922c.908.4,1.81.784,2.691,1.159C87.944,397.325,94.572,402.856,96.974,406.3Z" transform="translate(-81.076 -393.486)"/></g><g transform="translate(66.129 16.724)"><path class="c" d="M114.754,410.955l-.947-1.793a39.519,39.519,0,0,1-6.856-1.9,9.676,9.676,0,0,1-4.127-3.4c-1.41-1.683-3.012-3.6-6-4.37a7.7,7.7,0,0,0-8.555,3.23l1.461.879a5.982,5.982,0,0,1,6.665-2.463c2.457.63,3.752,2.181,5.12,3.819a11.1,11.1,0,0,0,4.874,3.9A46.74,46.74,0,0,0,114.754,410.955Z" transform="translate(-88.271 -399.213)"/></g><g transform="translate(73.994 9.749)"><path class="c" d="M101.789,410.832c4.229-8.387-8.133-14.953-8.661-15.229l-.786,1.5c.114.06,11.41,6.068,7.932,12.961Z" transform="translate(-92.342 -395.603)"/></g><g transform="translate(74.23 25.902)"><path class="c" d="M108.451,436.073c.352-.325,7.735-6.64,4.335-13.328a23.808,23.808,0,0,0-5.315-6.6c-1.826-1.729-3.141-2.981-3.118-4.751.046-2.823-2.62-5.506-5.268-6.69-2.569-1.151-4.984-.949-6.621.562l1.151,1.248c1.578-1.457,3.866-.663,4.778-.261,2.415,1.084,4.291,3.329,4.264,5.114-.043,2.517,1.667,4.134,3.646,6.014a21.994,21.994,0,0,1,4.967,6.144c2.821,5.535-5.6,14.059-5.682,14.13Z" transform="translate(-92.464 -403.964)"/></g><g transform="translate(85.275 33.264)"><path class="c" d="M109.069,412.022l-.736-2.386c-4.256-3.441-9.849-1.082-10.152-.951l.626,1.578C98.869,410.233,106.044,407.783,109.069,412.022Z" transform="translate(-98.181 -407.775)"/></g><g transform="translate(83.998 40.888)"><path class="c" d="M98.382,425.76c7.108-6.754,6.822-13.643,6.8-13.7l-1.781-.34h0l.2.962c.068.185-2.071,7.415-6.084,11.033Z" transform="translate(-97.52 -411.721)"/></g><path class="an" d="M118.676,448.063c-9.063-6.7-22.362-5.985-22.362-5.985-20.654,1.936-20.494-8.829-20.494-8.829-16.982-12.129-20.778-22.24-14.86-30.3A59.975,59.975,0,0,1,73.011,397.2c43.152-15.649,68.9,23.79,67.894,43.988a10.115,10.115,0,0,1-2.083,5.272C132.5,450.36,124.114,452.081,118.676,448.063Z" transform="translate(-50.029 -387.704)"/><g transform="translate(0 9.643)"><path class="g" d="M138.866,442.527c1-20.2-19.626-57.84-67.9-43.988-10.127,2.909-30.326,23-3.777,41.956,0,0-.16,10.769,20.488,8.837A76.115,76.115,0,0,1,109.715,459.8C124.483,470.428,138.412,451.647,138.866,442.527Z" transform="translate(-54.041 -395.548)"/></g><g transform="translate(10.56 13.4)"><path class="c" d="M60.585,437.564l1.513,1.119c-.029-.043-1.826-5.035-.207-7.668.852-1.381,2.77-2.042,5.7-1.974l1.233.031c6.891.187,11.437.313,13.653-2.382,1.464-1.777,1.685-4.5.713-8.833-1.758-7.878-1.42-13.307.991-16.13,1.627-1.9,4.312-2.728,7.979-2.5,7.446.483,10.247,5.392,11.5,20.179.255,3.052,3.027,6.306,7.065,8.274,3.143,1.54,9.984,5.377,20.687-1.576l-.591-1.619c-9.978,6.482-16.464,3.081-19.352,1.671-3.989-1.955-5.946-4.868-6.118-6.889-1.153-13.622-3.584-21.12-13.083-21.734-4.225-.269-7.384.769-9.376,3.089-2.824,3.3-3.263,9.057-1.362,17.608.835,3.719.713,6.062-.363,7.376-1.694,2.056-6.145,1.936-12.3,1.766l-1.242-.031c-3.564-.087-6,.846-7.189,2.794C58.319,433.6,60.467,437.341,60.585,437.564Z" transform="translate(-59.507 -397.493)"/></g><g transform="translate(23.915 43.345)"><path class="c" d="M81.5,424.005l1.685-.176C81.928,412.06,66.573,413,66.42,413.019l.116,1.69C67.1,414.674,80.411,413.87,81.5,424.005Z" transform="translate(-66.42 -412.992)"/></g><g transform="translate(16.861 16.744)"><path class="c" d="M77.817,413.063l1.663-.352c-.035-.143-3.192-14.248-16.711-13.456l.1,1.694C74.987,400.2,77.7,412.541,77.817,413.063Z" transform="translate(-62.769 -399.223)"/></g><g transform="translate(14.29 18.953)"><path class="c" d="M63.076,408.846c1.847-6.559,9.694-6.781,9.778-6.781l-.041-1.7c-.089,0-9.192.253-11.375,8.019Z" transform="translate(-61.438 -400.367)"/></g><g transform="translate(53.756 33.813)"><path class="c" d="M95.08,431.822l.6-1.592c-16.52-6.236-11.534-20.979-11.311-21.6l-1.6-.566C82.7,408.225,77.016,425,95.08,431.822Z" transform="translate(-81.866 -408.059)"/></g><g transform="translate(54.722 48.573)"><path class="c" d="M85.476,429.52l1.142-1.267c-4.834-4.339-1.25-11.727-1.211-11.8l-1.522-.755C83.709,416.051,79.7,424.325,85.476,429.52Z" transform="translate(-82.366 -415.699)"/></g><g transform="translate(41.855 20.727)"><path class="c" d="M87.622,407.813l1.37-1c-.058-.075-5.833-7.882-13.286-4.818l.645,1.571C82.576,401.018,87.572,407.753,87.622,407.813Z" transform="translate(-75.706 -401.285)"/></g><g transform="translate(61.043 47.939)"><path class="c" d="M89.027,439.128c7.724-.8,7.933-6.766,9.555-12.214.57-1.955.935-3.914,1.859-5.218,2.958-4.163,5.632-4.453,8.557-4.627l-.307-1.683a10.27,10.27,0,0,0-9.754,5.527,31.9,31.9,0,0,0-1.988,5.514c-1.627,5.479-4.718,11.814-11.31,12.5Z" transform="translate(-85.638 -415.371)"/></g><g transform="translate(61.331 33.054)"><path class="c" d="M85.826,417.556l1.692-.17c-.645-6.493,10.11-8.021,10.22-8.041l-.224-1.679C97,407.734,85.024,409.447,85.826,417.556Z" transform="translate(-85.787 -407.666)"/></g><g transform="translate(63.667 23.458)"><path class="c" d="M88.336,416.246l1.435-.91c-3.153-5,1.7-11.545,1.752-11.615L90.172,402.7C89.938,403,84.561,410.261,88.336,416.246Z" transform="translate(-86.997 -402.699)"/></g><g transform="translate(4.923 26.915)"><path class="c" d="M66.768,422.235l1.524-.744c-1.6-3.286-2.523-3.908-5.564-5.977-.6-.408-1.3-.879-2.112-1.441-4.227-2.962-1.4-8.761-1.362-8.825l-1.524-.759c-1.233,2.469-2.423,7.936,1.913,10.969.817.574,1.524,1.049,2.129,1.468C64.743,418.941,65.361,419.358,66.768,422.235Z" transform="translate(-56.59 -404.488)"/></g><g transform="translate(0.001 34.148)"><path class="c" d="M58.431,413.512A9.109,9.109,0,0,0,63,411.972l-.987-1.393c-.023.019-2.322,1.619-4.482,1.144-1.074-.234-2.792-2.3-3.489-3.491l.184,2.66c.951,1.627,1.395,2.16,2.96,2.494A5.618,5.618,0,0,0,58.431,413.512Z" transform="translate(-54.042 -408.232)"/></g><g transform="translate(31.322 46.954)"><path class="c" d="M77.8,431.06c.189,0,.3-.128.468-.305.587-.63-.042-1.223-.311-1.476l-.027.035c-.377-.325-1.376-1.2-4.065-3.619a4.791,4.791,0,0,1-1.9-3.86c.213-3.039,3.858-5.541,3.893-5.562l-.949-1.412c-.184.126-4.37,3-4.639,6.849a6.383,6.383,0,0,0,2.454,5.249c2.144,1.928,3.358,3.016,4.092,3.582.048.044.141.128.182.176l.027-.025A1.459,1.459,0,0,0,77.8,431.06Z" transform="translate(-70.254 -414.861)"/></g><g transform="translate(23.397 53.278)"><path class="c" d="M67.6,422.566a5.323,5.323,0,0,1,3.248-2.631,5.4,5.4,0,0,1,3.705.665l.912-1.437a7.162,7.162,0,0,0-5-.879,6.939,6.939,0,0,0-4.31,3.393Z" transform="translate(-66.152 -418.134)"/></g><g transform="translate(33.277 31.424)"><path class="c" d="M72.52,412.879c.039-.044,4-4.312,7.846-4.358h.043a4.689,4.689,0,0,1,3.582,1.65l1.244-1.155a6.369,6.369,0,0,0-4.836-2.193c-4.546.064-8.953,4.71-9.132,4.909Z" transform="translate(-71.266 -406.822)"/></g><g transform="translate(18.331 21.439)"><path class="c" d="M64.989,414.14c4.6-4.5.2-12.161.01-12.486l-1.468.858c.041.068,3.924,6.845.269,10.409Z" transform="translate(-63.53 -401.654)"/></g><g transform="translate(62.055 64.031)"><path class="c" d="M93.857,426.845l1.18-1.223a7.728,7.728,0,0,0-8.875-.951l.782,1.5A5.99,5.99,0,0,1,93.857,426.845Z" transform="translate(-86.162 -423.7)"/></g><g transform="translate(47.927 53.211)"><path class="c" d="M80.354,422.265c1.48-2.854,6.082-2.446,6.132-2.438l.166-1.694c-.236-.023-5.8-.527-7.8,3.354Z" transform="translate(-78.849 -418.1)"/></g></g><g class="ao" transform="translate(67.833 54.256)"><path class="ap" d="M89.153,424.355a5.733,5.733,0,1,0,5.664-5.8A5.732,5.732,0,0,0,89.153,424.355Z" transform="translate(-89.153 -418.555)"/><path class="aq" d="M89.515,424.048a5.052,5.052,0,1,0,4.99-5.112A5.049,5.049,0,0,0,89.515,424.048Z" transform="translate(-88.815 -418.2)"/><path class="ar" d="M89.877,423.739a4.37,4.37,0,1,0,4.314-4.422A4.367,4.367,0,0,0,89.877,423.739Z" transform="translate(-88.478 -417.844)"/><path class="as" d="M90.238,423.433A3.69,3.69,0,1,0,93.88,419.7,3.685,3.685,0,0,0,90.238,423.433Z" transform="translate(-88.142 -417.488)"/><path class="at" d="M90.6,423.126a3.01,3.01,0,1,0,2.969-3.045A3,3,0,0,0,90.6,423.126Z" transform="translate(-87.805 -417.133)"/><path class="au" d="M90.961,422.819a2.329,2.329,0,1,0,2.293-2.357A2.321,2.321,0,0,0,90.961,422.819Z" transform="translate(-87.468 -416.778)"/><path class="av" d="M91.322,422.511a1.648,1.648,0,1,0,1.621-1.667A1.642,1.642,0,0,0,91.322,422.511Z" transform="translate(-87.131 -416.422)"/></g><g class="ao" transform="translate(5.219 32.039)"><path class="ap" d="M56.743,412.851a5.734,5.734,0,1,0,5.672-5.8A5.739,5.739,0,0,0,56.743,412.851Z" transform="translate(-56.743 -407.055)"/><path class="aq" d="M57.105,412.544a5.052,5.052,0,1,0,5-5.108A5.057,5.057,0,0,0,57.105,412.544Z" transform="translate(-56.405 -406.7)"/><path class="ar" d="M57.466,412.237a4.373,4.373,0,1,0,4.324-4.42A4.376,4.376,0,0,0,57.466,412.237Z" transform="translate(-56.069 -406.345)"/><path class="as" d="M57.828,411.932a3.691,3.691,0,1,0,3.647-3.732A3.693,3.693,0,0,0,57.828,411.932Z" transform="translate(-55.732 -405.989)"/><path class="at" d="M58.189,411.624a3.011,3.011,0,1,0,2.973-3.043A3.012,3.012,0,0,0,58.189,411.624Z" transform="translate(-55.395 -405.633)"/><path class="au" d="M58.551,411.319a2.33,2.33,0,1,0,2.3-2.357A2.326,2.326,0,0,0,58.551,411.319Z" transform="translate(-55.058 -405.277)"/><path class="av" d="M58.912,411.011a1.65,1.65,0,1,0,1.625-1.667A1.647,1.647,0,0,0,58.912,411.011Z" transform="translate(-54.721 -404.921)"/></g><g class="ao" transform="translate(27.881 28.204)"><path class="ap" d="M68.473,410.866a5.731,5.731,0,1,0,5.666-5.8A5.734,5.734,0,0,0,68.473,410.866Z" transform="translate(-68.473 -405.07)"/><path class="aq" d="M68.834,410.561a5.051,5.051,0,1,0,4.994-5.11A5.056,5.056,0,0,0,68.834,410.561Z" transform="translate(-68.136 -404.715)"/><path class="ar" d="M69.2,410.251a4.37,4.37,0,1,0,4.318-4.418A4.369,4.369,0,0,0,69.2,410.251Z" transform="translate(-67.799 -404.359)"/><path class="as" d="M69.558,409.947a3.689,3.689,0,1,0,3.644-3.732A3.686,3.686,0,0,0,69.558,409.947Z" transform="translate(-67.462 -404.004)"/><path class="at" d="M69.919,409.64A3.008,3.008,0,1,0,72.89,406.6,3.007,3.007,0,0,0,69.919,409.64Z" transform="translate(-67.125 -403.648)"/><path class="au" d="M70.281,409.33a2.327,2.327,0,1,0,2.3-2.353A2.325,2.325,0,0,0,70.281,409.33Z" transform="translate(-66.788 -403.292)"/><path class="av" d="M70.643,409.026a1.646,1.646,0,0,0,3.292-.039,1.646,1.646,0,1,0-3.292.039Z" transform="translate(-66.45 -402.938)"/></g><g class="ao" transform="translate(56.645)"><path class="ap" d="M83.362,396.271a5.733,5.733,0,1,0,5.666-5.8A5.734,5.734,0,0,0,83.362,396.271Z" transform="translate(-83.362 -390.471)"/><path class="aq" d="M83.724,395.963a5.052,5.052,0,1,0,4.992-5.11A5.052,5.052,0,0,0,83.724,395.963Z" transform="translate(-83.024 -390.115)"/><path class="ar" d="M84.085,395.654a4.372,4.372,0,1,0,4.318-4.42A4.375,4.375,0,0,0,84.085,395.654Z" transform="translate(-82.688 -389.76)"/><path class="as" d="M84.447,395.349a3.691,3.691,0,1,0,3.644-3.733A3.687,3.687,0,0,0,84.447,395.349Z" transform="translate(-82.351 -389.404)"/><path class="at" d="M84.809,395.041A3.009,3.009,0,1,0,87.778,392,3.005,3.005,0,0,0,84.809,395.041Z" transform="translate(-82.013 -389.048)"/><path class="au" d="M85.17,394.733a2.329,2.329,0,1,0,2.3-2.353A2.329,2.329,0,0,0,85.17,394.733Z" transform="translate(-81.677 -388.692)"/><path class="av" d="M85.532,394.425a1.648,1.648,0,1,0,1.621-1.663A1.645,1.645,0,0,0,85.532,394.425Z" transform="translate(-81.339 -388.336)"/></g><g class="ao" transform="translate(78.75 15.915)"><path class="ap" d="M94.8,404.505a5.733,5.733,0,1,0,5.67-5.8A5.736,5.736,0,0,0,94.8,404.505Z" transform="translate(-94.804 -398.709)"/><path class="aq" d="M95.166,404.2a5.051,5.051,0,1,0,4.994-5.106A5.05,5.05,0,0,0,95.166,404.2Z" transform="translate(-94.466 -398.353)"/><path class="ar" d="M95.527,403.892a4.372,4.372,0,1,0,4.322-4.42A4.371,4.371,0,0,0,95.527,403.892Z" transform="translate(-94.13 -397.998)"/><path class="as" d="M95.889,403.586a3.69,3.69,0,1,0,3.646-3.733A3.688,3.688,0,0,0,95.889,403.586Z" transform="translate(-93.793 -397.643)"/><path class="at" d="M96.251,403.278a3.009,3.009,0,1,0,2.971-3.043A3.007,3.007,0,0,0,96.251,403.278Z" transform="translate(-93.455 -397.287)"/><path class="au" d="M96.613,402.973a2.328,2.328,0,1,0,2.3-2.357A2.324,2.324,0,0,0,96.613,402.973Z" transform="translate(-93.118 -396.932)"/><path class="av" d="M96.975,402.665A1.647,1.647,0,1,0,98.6,401,1.642,1.642,0,0,0,96.975,402.665Z" transform="translate(-92.78 -396.576)"/></g></g><g transform="translate(44.917 430.347)"><g transform="translate(6.355 42.287)"><path class="aw" d="M45.46,455.956s2.175.7,1.395,1.808-3.725,2.517-4.217,3.218-3.134,3.079-3.761,2.709-2.467-.294-1.65-3.365S42.5,455.319,45.46,455.956Z" transform="translate(-35.279 -411.719)"/><path class="ax" d="M38.1,433s-3.232,5.305-1.437,13.278,1.262,19.169,1.262,19.169-1.416,14.319-.211,16.912a6.459,6.459,0,0,0,7.028-.634l2.388-26.531.922-19.485S40.153,434.77,38.1,433Z" transform="translate(-36.119 -433)"/><path class="ay" d="M43.987,452.173l.723-15.286-3.06-.645s-1.685,13.736-.709,16.976c.765,2.548-1.576,18.6-1.445,26.607a6.45,6.45,0,0,0,2.1-1.121Z" transform="translate(-32.977 -429.979)"/><path class="aw" d="M50.807,458.443s1.086,2.28,3.07,1.314.593-1.476,4.838-3.657,2.915-4.1,2.548-4.474c-.852-.871-3.4,1.03-4.331,1.5A25.03,25.03,0,0,1,53.8,454.2l-3.636,3.837Z" transform="translate(-23.026 -415.853)"/><path class="ax" d="M40,435.082s-2.417,6.785,1.733,9.534,8.746,7.83,9.874,10.1S59,475.26,59,475.26s4.44,1.743,7.67-1.484c0,0-5.027-21.425-6.791-24.28s-9.644-16.385-9.644-16.385A26.059,26.059,0,0,1,40,435.082Z" transform="translate(-33.15 -432.897)"/><path class="ay" d="M62.771,473.69s-5.027-21.425-6.791-24.28c-1.644-2.668-8.609-14.611-9.538-16.207L43.485,438.7s5.425,6.256,6.484,8.147c1,1.777,8.008,18.639,9.523,28.631A6.49,6.49,0,0,0,62.771,473.69Z" transform="translate(-29.255 -432.811)"/></g><g transform="translate(0 13.131)"><path class="az" d="M41.5,418.09s3.518-.423,2.1,5.037a54.311,54.311,0,0,1-4.542,11.037s-2.892,10.91-2.84,12.913a3.586,3.586,0,0,0,.518,1.789,2.951,2.951,0,0,1,.234,2.094,2.873,2.873,0,0,0,.238,1.683.428.428,0,0,1-.5.667,2.38,2.38,0,0,1-.858-2.083s-.386.533-.512,3.19c-.05,1.124-1,1.474-2.1-.137a7.821,7.821,0,0,1-.1-4.72,11.239,11.239,0,0,0,.537-3.75c.064-1.453-.2-9.2,1.547-15.479C36.134,427.065,38.564,417.84,41.5,418.09Z" transform="translate(-32.83 -417.746)"/><path class="ba" d="M41.969,417.96c-4.783-1.078-8.678,14.9-8.81,19.087,0,0,1.491.867,5.095-.05C38.254,437,47.477,419.195,41.969,417.96Z" transform="translate(-32.523 -417.908)"/><path class="ba" d="M33.313,428.11l-.319,10.409a4.241,4.241,0,0,0,4.032-.068L38.5,427.5Z" transform="translate(-32.676 -408.971)"/></g><path class="bb" d="M38.285,417.791s-3.319.317-1.671,6.385,2.481,12.662,2.257,14.878a71.138,71.138,0,0,1-1.945,9.538s-.485,4.615,10.371,8.126c0,0,9.024.618,7.84-5.537a82.217,82.217,0,0,1-.922-18.334c.348-2.328,1.957-6.932-3.613-10.388S41.963,417.751,38.285,417.791Z" transform="translate(-29.731 -404.887)"/><path class="ba" d="M49.147,430.026a82.218,82.218,0,0,0,.922,18.334c.821,4.268-3.248,5.51-5.821,5.494-.694-2.759-.118-8.259-1.731-14.287-1.994-7.44-.361-12.142,1.1-15.971.943-2.486,2.434-2.475,3.514-2.778C50.758,424.087,49.454,427.954,49.147,430.026Z" transform="translate(-24.665 -402.065)"/><g transform="translate(8.357)"><path class="bc" d="M38.994,416.565a10.14,10.14,0,0,1-.315,4.965c-.8,1.781,6.285,2.84,6.335,1.236a6.968,6.968,0,0,1-.046-5.879C45.732,415.208,38.994,416.565,38.994,416.565Z" transform="translate(-35.795 -406.512)"/><path class="bd" d="M38.7,421.077a9.11,9.11,0,0,0,.4-4.434l5.276,2.206v.015c-.185.056-3.561,1.2-4.127,3.769C39.161,422.276,38.412,421.722,38.7,421.077Z" transform="translate(-35.775 -405.956)"/><path class="bc" d="M46.353,412.3a13.249,13.249,0,0,1,1.231,5.044c-.052,2.562.354,3.049.278,4.185a2.783,2.783,0,0,1-.446,1.71c-.721.815-2.282,1.207-4.49.562-2.664-.781-5.659-4.231-4.78-7.589S42.256,409.917,46.353,412.3Z" transform="translate(-36.378 -410.809)"/><path class="az" d="M38.262,419.757c.831-3.025,3.168-6.75,3.128-6.939a8.633,8.633,0,0,1,1.735-1.379,5.793,5.793,0,0,1,2.975.864,14.971,14.971,0,0,1,.668,1.731c-.572.752-1.775,1.646-1.926,2.26a7.858,7.858,0,0,0,.539,4.484c.477.912-1.093,2.415-.684,3.228a.2.2,0,0,1,.023.114,7.21,7.21,0,0,1-2.048-.317A7.593,7.593,0,0,1,38.262,419.757Z" transform="translate(-36.124 -410.807)"/><path class="be" d="M47.821,411.428a3.424,3.424,0,0,1-1.646,3.622c-1.318.782-1.037,3.016-.945,3.431A10.273,10.273,0,0,1,45.711,421c-.286.495-1.457-.883-1.957-.746-1.273.35-.682,1.544.583,2.747,1.347,1.275-1.9,2.075-3.5,1.057-.854-.541-1.173-.881-2.386-2.96-1.766-3.022-2.108-6.783,1.383-9.051S45.63,412.5,47.821,411.428Z" transform="translate(-37.155 -411.111)"/><path class="be" d="M40.841,424.058c-.854-.541-1.173-.881-2.386-2.96-1.766-3.022-2.108-6.783,1.383-9.051s5.792.452,7.983-.62a3.408,3.408,0,0,1,.05.945c-1.14.274-4.244,1.138-4.961,2.581-.883,1.774-2.029,1.3-1.793,3.41.222,2.034-.1,4.739,3.331,5.649A3.335,3.335,0,0,1,40.841,424.058Z" transform="translate(-37.155 -411.111)"/><path class="bf" d="M45.152,419.722l2.72,1.785s-7.237,2.585-9.559-.8a2.083,2.083,0,0,1,1.119-2.589S39.878,420.98,45.152,419.722Z" transform="translate(-36.201 -404.584)"/></g><g transform="translate(19.634 18.437)"><path class="az" d="M54.169,439.627c-.224,1.874-.444,1.98-.885,1.856-2.137-.6-3.982-4.179-3.966-4.571a3.613,3.613,0,0,0-.33-1.766c-.031-.068-.073-.143-.118-.226l2.229-.974a8.825,8.825,0,0,0,1.507,2.038A5.509,5.509,0,0,1,54.169,439.627Z" transform="translate(-37.515 -408.267)"/><path class="bb" d="M44.4,420.812c-4.214,1.793,2.175,16.076,4.443,19.418l5.338,8.638a3.837,3.837,0,0,0,3-2.268l-4.836-8.939C52.145,436.5,49.091,418.816,44.4,420.812Z" transform="translate(-42.993 -420.655)"/></g></g><g transform="translate(168.138 481.777)"><path class="ba" d="M108.716,444.111A3.07,3.07,0,0,0,105.9,447.3c-.112,3.049,1.764,16.4,4.809,19.244s3.42-3.381,3.42-3.381S113.519,443.784,108.716,444.111Z" transform="translate(-87.958 -431.792)"/><path class="bc" d="M116.017,457.837s3.64.954,6.23.087,2-.989,1.828-1.389c-.361-.858-3.705-.867-4.306-1.072s.556-.614.84-1.018.9-.858.707-1.009-.694-.332-1.681.344a20.192,20.192,0,0,1-3.42,1.52Z" transform="translate(-78.526 -423.231)"/><path class="ba" d="M124.028,455.28a6.5,6.5,0,0,0-.311,1.631,3.715,3.715,0,0,0,.394,1.932s-12.206,1.555-15.154-.216c0,0-2.629-4.768,1.978-5.655Z" transform="translate(-85.801 -423.531)"/><path class="ba" d="M112.13,466.433a1.741,1.741,0,0,1-.972-.381.276.276,0,0,0-.044-.019l-.008-.021a2.94,2.94,0,0,1-.4-.317c-3.045-2.846-4.921-16.2-4.809-19.244a3.727,3.727,0,0,1,.33-1.428c.74,3.462,4.215,19.339,5.6,19.715,1.271.344,10.7.458,14.1.491a3.687,3.687,0,0,0,.338,1.02S116.179,467.528,112.13,466.433Z" transform="translate(-87.958 -430.938)"/><g transform="translate(6.272 37.438)"><path class="aw" d="M114.58,475.759s-.659,2.419,1.039,3a14.965,14.965,0,0,1,3.756,1.8c.657.506,7.975,3.522,8.856,2.046s-1.308-3.108-1.866-3.611-5.57-4.739-5.57-4.739Z" transform="translate(-86.254 -441.127)"/><path class="aw" d="M111.555,477.964s-.655,2.415,1.047,3.008a14.538,14.538,0,0,1,3.752,1.795c.659.51,7.973,3.518,8.852,2.05s-1.312-3.109-1.862-3.615-5.568-4.735-5.568-4.735Z" transform="translate(-89.072 -439.073)"/><path class="ay" d="M110.173,457.111s17.979,11.026,18.525,13.875.626,19.671.626,19.671-4.554,2.019-6.77.815l-2.027-15.826s-14.167-10.21-14.787-10.587S110.173,457.111,110.173,457.111Z" transform="translate(-94.424 -457.111)"/><path class="ax" d="M105.74,462.767c.62.377,14.787,10.587,14.787,10.587l2.027,15.826a6.172,6.172,0,0,0,4.065.079c-.682-4.8-2.216-15.38-2.755-18.064-.707-3.5-15.2-11.626-15.2-11.626l-2.9,2.774C105.678,462.57,105.659,462.721,105.74,462.767Z" transform="translate(-94.424 -454.819)"/><path class="ay" d="M115.631,457.332s-1.992,6.155-3.052,7.5c0,0,14.352,7.4,15.125,11.033s1.839,19.259,1.839,19.259a8.933,8.933,0,0,1-7.48.641s-1.733-11.986-1.955-16.812c0,0-21.64-5.471-20.179-17.3C99.928,461.652,108.224,464.845,115.631,457.332Z" transform="translate(-99.857 -456.905)"/><path class="ax" d="M120.1,476.581c.222,4.826,1.955,16.812,1.955,16.812a9.594,9.594,0,0,0,2.106.464c-.141-1.872-.321-4.335-.547-7.577-.848-12.1-2.712-11.849-2.712-11.849-13.759-6.026-16.593-11.893-16.593-11.893l-4.426-2.656C99.213,471.291,120.1,476.581,120.1,476.581Z" transform="translate(-99.849 -454.53)"/></g><path class="bb" d="M106.806,445.433s-6.769,3.547-6.932,4.076-1.916,1.81.672,7.764c0,0,3.454,6.46,1.833,12.973a41.023,41.023,0,0,1-1.8,5.759s3.072,4.447,11.532,1.229a12.229,12.229,0,0,0,5.419-4.913,44.135,44.135,0,0,1,.133-12.048c.991-6.5,1.493-14.932-2.2-16.006C115.461,444.268,114.516,443.144,106.806,445.433Z" transform="translate(-94.252 -431.899)"/><path class="bg" d="M104.337,443.647s4.979,2.55,2.815,6.308l2.341,1.252S111.7,444.65,104.337,443.647Z" transform="translate(-89.411 -432.22)"/><path class="bc" d="M102.678,442.3s2.119,3.136.493,5.294c-.912,1.2,1.294,4.011,5,3.738,0,0,1.65-.421,1.476-1.022-.4-1.362.139-2.135.721-3.188S102.678,442.3,102.678,442.3Z" transform="translate(-90.957 -433.471)"/><path class="bd" d="M103.025,447.5a.956.956,0,0,0-.191.491,6.96,6.96,0,0,1,4.042-1.567l-3.568-3.86c-.137-.064-.255-.112-.357-.162l-.1.344C103.367,443.743,104.237,445.9,103.025,447.5Z" transform="translate(-90.812 -433.377)"/><path class="bh" d="M107.412,448.637c-.373-2.162.139-2.135.721-3.188.16-.292-.35-.781-1.173-1.345a2.549,2.549,0,0,0-.593.688,6.62,6.62,0,0,0-1.2,4.874,3.42,3.42,0,0,0,.769-.008C106.38,449.588,107.526,449.306,107.412,448.637Z" transform="translate(-88.722 -431.793)"/><g transform="translate(10.328 0.074)"><path class="bc" d="M102.406,444.666s.952,4.177,3.852,6.045c2.571,1.652,5.556,2.724,6.066-.328.41-2.43,1.528-8.607-.622-9.822-2.774-1.563-3.806-3.518-6.984-2.307C104.719,438.254,101.093,439.968,102.406,444.666Z" transform="translate(-101.806 -437.672)"/><path class="az" d="M102.406,444.038a9.406,9.406,0,0,0,3.841,6.1,12.064,12.064,0,0,0,2.43,1.26,11.625,11.625,0,0,1-2.548-2.475c-1.059-1.2,1.544-.765-.265-3.841-.611-1.045,2.353.278,3.014.251,3.926-.139,3.607-2.388,3.675-3.335a6.585,6.585,0,0,0-.338-1.159l-.381-.717c-.044-.064-.089-.131-.131-.187a13.542,13.542,0,0,0-1.292-1.381c-1.681.052-6.46.211-6.557.234-.068.023-.873,1.144-1.625,2.21A6.432,6.432,0,0,0,102.406,444.038Z" transform="translate(-101.805 -437.043)"/><path class="bi" d="M104.327,448.8a7.563,7.563,0,0,1-2.156-7.081,4.911,4.911,0,0,1,4.289-3.87c1.787-.23,5.226-.158,6.628,3.439.437,1.113.176,3.588-4.256,2.486-.638-.162-2.32-.361-2.906.182a2.311,2.311,0,0,0-.348,2.407c.261.746-.4.833-.5.674s-.964-2.289-1.754-1.441C102.614,446.357,104.246,448.654,104.327,448.8Z" transform="translate(-101.957 -437.77)"/><path class="be" d="M104.327,448.064c-.081-.143-1.714-2.44-1-3.2.79-.848,1.663,1.287,1.754,1.441s.757.071.5-.674a2.311,2.311,0,0,1,.348-2.407c.533-.491,2.009-.261,2.906-.182-.742-.46-2.2-.607-2.739-1.826a4.316,4.316,0,0,0-2.635-2.656,5.051,5.051,0,0,0-1.287,2.426A7.563,7.563,0,0,0,104.327,448.064Z" transform="translate(-101.957 -437.038)"/></g><path class="bg" d="M103.7,444.51a6.463,6.463,0,0,0,5.029,4.641l-1.173,2.958S99.93,448.4,103.7,444.51Z" transform="translate(-90.983 -431.416)"/><path class="ba" d="M99.874,447.045c-.166.527-1.916,1.81.672,7.764,0,0,2.915,6.416,1.509,12.921-.6,2.792-.912,2.119-1.945,4.5-.6,1.358,2.291,3.418,5.112,3.638,1.414-3.456,1.014-3.423,1.58-7.2.767-5.17.139-9.407-4.146-14.534-3.765-4.509-2.224-6.3-2.32-7.5C100.065,446.821,99.9,446.965,99.874,447.045Z" transform="translate(-94.252 -429.434)"/><path class="bi" d="M112.437,441.321s.7,4.015-4.451,2.614a5.9,5.9,0,0,1-3.634-3.022,2.33,2.33,0,0,0-1.7-1.418s1.345-1.951,4.884-1.748c1.66.1,3.41,1.7,3.829,1.955S111.131,441.658,112.437,441.321Z" transform="translate(-90.978 -437.733)"/><g transform="translate(13.199 31.979)"><g transform="translate(0 5.562)"><g class="al"><g transform="translate(0 8.245)"><path class="bj" d="M103.487,461.432l-.044.645,9.444,6.573.05-.645Z" transform="translate(-103.443 -461.432)"/></g><g transform="translate(9.444 6.577)"><path class="bk" d="M108.382,468.809l-.05.645,17.414-8.237.048-.649Z" transform="translate(-108.331 -460.568)"/></g><g transform="translate(0.044)"><path class="bl" d="M103.466,465.409l9.45,6.573,17.412-8.241-9.441-6.577Z" transform="translate(-103.466 -457.164)"/></g></g></g><g transform="translate(8.689)"><g class="al"><g transform="translate(0 8.611)"><path class="bm" d="M111.434,459.383l-.7-.641-2.79,11.743.7.641Z" transform="translate(-107.94 -458.742)"/></g><g transform="translate(2.79)"><path class="bn" d="M128.288,454.923l-.7-.638-18.2,8.611.7.641Z" transform="translate(-109.384 -454.285)"/></g><g transform="translate(0.705 0.638)"><path class="bo" d="M111.094,463.23l-2.788,11.743,18.2-8.618,2.788-11.739Z" transform="translate(-108.305 -454.615)"/></g><g transform="translate(3.493 0.638)"><path class="bp" d="M109.748,463.23h0l15.411,3.124,2.788-11.739Z" transform="translate(-109.748 -454.615)"/></g></g></g></g><g transform="translate(0 16.595)"><path class="bc" d="M105.317,462.945s3.423,4.038,7.492,3.97c0,0,.18-1.026-1.5-1.721a3.134,3.134,0,0,1-2.056-2.349c.052-.2,1.443-.071,2.059,0s1.509-.626.027-.983-3.922-1.393-5.427-1.333C105.912,460.53,104.187,461.821,105.317,462.945Z" transform="translate(-88.855 -433.083)"/><path class="bb" d="M105.048,446.322s-3.431.17-4.751,2.925-4.917,15.745-3.257,19.561,16.135,8.263,16.135,8.263a4.105,4.105,0,0,1,1.184-4.022l-11.823-7.633S107.99,448.146,105.048,446.322Z" transform="translate(-96.611 -446.322)"/><path class="bb" d="M100.655,465.043l11.823,7.633a4.317,4.317,0,0,0-.638.771c-2.871-1.6-12.316-6.912-13.112-8.365-.871-1.575,4.212-16.112,5.008-18.361C105.228,450.554,100.655,465.043,100.655,465.043Z" transform="translate(-94.73 -445.95)"/></g></g></g><rect class="bq" width="220" height="220" transform="translate(149 907)"/></g></svg>