<svg xmlns="http://www.w3.org/2000/svg" width="357" height="357" viewBox="0 0 357 357"><defs><style>.a{fill:none;}.b{opacity:0.2;}.c,.e,.f,.g,.h,.i,.j,.o{fill:#52e5cc;}.d,.o{mix-blend-mode:overlay;isolation:isolate;}.e,.t,.w{opacity:0;}.ad,.f,.s,.x{opacity:0.167;}.ae,.g,.r,.y{opacity:0.333;}.af,.h,.n,.z{opacity:0.5;}.aa,.ag,.i,.q{opacity:0.667;}.ab,.ah,.j,.p{opacity:0.833;}.k{fill:#ccf7ef;}.l{fill:#333;}.m{fill:#1d8fbc;}.u{fill:#fcfdfd;}.v{fill:#c5f9ff;}.w{fill:#fff;}.x{fill:#dbfeff;}.y{fill:#b8feff;}.z{fill:#95fdff;}.aa{fill:#71fcfe;}.ab{fill:#4efcfe;}.ac{fill:#2afbfe;}.ad{fill:#fcfefd;}.ae{fill:#f9fdfc;}.af{fill:#f6fcfa;}.ag{fill:#f3fbf8;}.ah{fill:#f0faf7;}.ai{fill:#edf9f5;}.aj{fill:#111114;}.ak{fill:#efb185;}.al{fill:#e6a376;}.am{fill:#5d0ca6;}.an{fill:#43008d;}.ao{fill:#dd9569;}.ap{fill:#8c2ddf;}.aq{fill:#9a45f4;}.ar{fill:#9dbcc9;}.as{fill:#f1b287;}</style></defs><g transform="translate(-219 -396)"><rect class="a" width="357" height="357" transform="translate(219 396)"/><g transform="translate(-8496 -581)"><g transform="translate(8476.056 859.072)"><g transform="translate(271.944 166.928)"><g class="b" transform="translate(13.917 103.737)"><path d="M276.925,294.668l78.08,45.366c4.94,2.869,14.85,2.445,19.837-.439,34.505-19.932,136.183-79.267,136.183-79.267,5-2.9,5.015-7.541.073-10.4l-78.907-45.868Z" transform="translate(-276.925 -204.057)"/></g><g transform="translate(147.928 172.407)"><g transform="translate(122.669 20.51)"><path class="c" d="M376.127,236.7c1.676.972,1.693,2.554.02,3.526a6.778,6.778,0,0,1-5.753.17,2.41,2.41,0,0,1-.327-.17,3.3,3.3,0,0,1-.869-.71c-.743-.922-.461-2.051.849-2.816A6.718,6.718,0,0,1,376.127,236.7Z" transform="translate(-368.794 -235.976)"/></g><g transform="translate(103.473 24.053)"><path class="c" d="M382.393,237.954a2.41,2.41,0,0,0,.327.17l-19.963,11.6-.109-1.106-.724.022,19.6-11.394A3.3,3.3,0,0,0,382.393,237.954Z" transform="translate(-361.924 -237.244)"/></g><g transform="translate(129.936 5.991)"><path class="c" d="M378.723,231.508c1.685.975,1.69,2.556.02,3.523a6.791,6.791,0,0,1-5.325.346,4.607,4.607,0,0,1-.751-.346,3.227,3.227,0,0,1-.6-.439c-1.051-.961-.861-2.244.584-3.085A6.7,6.7,0,0,1,378.723,231.508Z" transform="translate(-371.396 -230.779)"/></g><g transform="translate(104.255 36.531)"><path class="c" d="M362.226,241.725l-.022-.011.049,0Z" transform="translate(-362.204 -241.71)"/></g><g transform="translate(51.907 1.514)"><path class="c" d="M390.662,255.773l-1.132.656.68.4-46.742-26.99,1.132-.657Z" transform="translate(-343.468 -229.177)"/></g><g transform="translate(97.969 9.804)"><path class="c" d="M393.943,232.929l-32.631,18.963-.679-.391-.679-.394,1.132-.657,31.5-18.306a3.227,3.227,0,0,0,.6.439A4.607,4.607,0,0,0,393.943,232.929Z" transform="translate(-359.954 -232.144)"/></g><g transform="translate(84.695 35.425)"><path class="c" d="M374.7,241.314l.109,1.106-.049,0-19.38.629-.071,0-.109-1.109.42-.014,18.357-.6Z" transform="translate(-355.203 -241.314)"/></g><g transform="translate(38.098 9.548)"><path class="c" d="M385.542,258.548l-.42.014.109,1.109-46.706-26.966,1.124-.654Z" transform="translate(-338.525 -232.052)"/></g><g transform="translate(61.65 50.621)"><path class="c" d="M346.96,246.753l.027.021-.033.023Z" transform="translate(-346.955 -246.753)"/></g><g transform="translate(58.703 50.561)"><path class="c" d="M348.853,246.791l-.005.044-1.021,11.226-.008.025-1.918-.06.038-.417.971-10.623.025-.254Z" transform="translate(-345.9 -246.731)"/></g><g transform="translate(13.809 23.653)"><path class="c" d="M329.832,237.762l1.138-.662,46.709,26.968-1.918-.06-.025.254Z" transform="translate(-329.832 -237.101)"/></g><g transform="translate(26.901 16.049)"><path class="c" d="M406.943,275.542a4.534,4.534,0,0,0-.62.3,3.323,3.323,0,0,0-.511.363l-71.294-41.169,1.132-.657Z" transform="translate(-334.518 -234.379)"/></g><g transform="translate(0 31.684)"><path class="c" d="M372.079,266.567l-1.13.66-46.06-26.593,1.124-.659Z" transform="translate(-324.89 -239.975)"/></g><g transform="translate(97.463 56.784)"><path class="c" d="M367.093,249.686c1.69.972,1.7,2.548.02,3.523a6.692,6.692,0,0,1-6.071,0c-1.489-.866-1.665-2.2-.536-3.157a3.323,3.323,0,0,1,.511-.363,4.534,4.534,0,0,1,.62-.3A6.825,6.825,0,0,1,367.093,249.686Z" transform="translate(-359.773 -248.959)"/></g><g transform="translate(60.621 61.891)"><path class="c" d="M346.595,250.787l.017.014-.025.011Z" transform="translate(-346.587 -250.787)"/></g><g transform="translate(39.326 61.436)"><path class="c" d="M358.38,250.624l-.039.419,1.919.059-19.943,11.589a4,4,0,0,0-.6-.43,4.983,4.983,0,0,0-.752-.349Z" transform="translate(-338.965 -250.624)"/></g><g transform="translate(32.753 72.342)"><path class="c" d="M343.937,255.259a4,4,0,0,1,.6.43c1.056.967.863,2.249-.578,3.09a6.678,6.678,0,0,1-6.077-.006c-1.687-.972-1.693-2.542-.022-3.515a6.778,6.778,0,0,1,5.325-.349A4.983,4.983,0,0,1,343.937,255.259Z" transform="translate(-336.612 -254.527)"/></g><g transform="translate(14.566 58.276)"><path class="c" d="M364.083,250.281l-32.62,18.957a3.567,3.567,0,0,0-.6-.436,5.2,5.2,0,0,0-.757-.349l31.494-18.3,1.129-.659Z" transform="translate(-330.103 -249.493)"/></g><g transform="translate(7.993 76.857)"><path class="c" d="M335.08,256.872a3.567,3.567,0,0,1,.6.436c1.048.961.855,2.249-.589,3.085a6.689,6.689,0,0,1-6.074,0c-1.685-.972-1.693-2.548-.025-3.52a6.823,6.823,0,0,1,5.328-.349A5.2,5.2,0,0,1,335.08,256.872Z" transform="translate(-327.75 -256.143)"/></g><g class="d" transform="translate(3.809 69.536)"><path class="e" d="M326.253,262.008a8.483,8.483,0,1,0,8.48-8.485A8.481,8.481,0,0,0,326.253,262.008Z" transform="translate(-326.253 -253.523)"/><path class="f" d="M326.622,261.391a7.477,7.477,0,1,0,7.474-7.477A7.473,7.473,0,0,0,326.622,261.391Z" transform="translate(-325.591 -252.822)"/><path class="g" d="M326.992,260.773a6.468,6.468,0,1,0,6.462-6.468A6.463,6.463,0,0,0,326.992,260.773Z" transform="translate(-324.927 -252.12)"/><path class="h" d="M327.361,260.157a5.461,5.461,0,1,0,5.454-5.462A5.455,5.455,0,0,0,327.361,260.157Z" transform="translate(-324.265 -251.42)"/><path class="i" d="M327.731,259.54a4.454,4.454,0,1,0,4.445-4.454A4.445,4.445,0,0,0,327.731,259.54Z" transform="translate(-323.602 -250.719)"/><path class="j" d="M328.1,258.922a3.446,3.446,0,1,0,3.437-3.445A3.437,3.437,0,0,0,328.1,258.922Z" transform="translate(-322.94 -250.018)"/><path class="c" d="M328.47,258.306a2.439,2.439,0,1,0,2.428-2.439A2.427,2.427,0,0,0,328.47,258.306Z" transform="translate(-322.276 -249.318)"/></g><g class="d" transform="translate(28.569 65.024)"><path class="e" d="M335.115,260.388a8.482,8.482,0,1,0,8.477-8.48A8.485,8.485,0,0,0,335.115,260.388Z" transform="translate(-335.115 -251.908)"/><path class="f" d="M335.485,259.773a7.475,7.475,0,1,0,7.468-7.474A7.476,7.476,0,0,0,335.485,259.773Z" transform="translate(-334.451 -251.207)"/><path class="g" d="M335.854,259.155a6.468,6.468,0,1,0,6.462-6.465A6.469,6.469,0,0,0,335.854,259.155Z" transform="translate(-333.789 -250.505)"/><path class="h" d="M336.224,258.538a5.459,5.459,0,1,0,5.451-5.457A5.458,5.458,0,0,0,336.224,258.538Z" transform="translate(-333.125 -249.804)"/><path class="i" d="M336.593,257.92a4.454,4.454,0,1,0,4.445-4.448A4.453,4.453,0,0,0,336.593,257.92Z" transform="translate(-332.464 -249.102)"/><path class="j" d="M336.963,257.305a3.445,3.445,0,1,0,3.437-3.442A3.444,3.444,0,0,0,336.963,257.305Z" transform="translate(-331.8 -248.401)"/><path class="c" d="M337.332,256.688a2.438,2.438,0,1,0,2.428-2.434A2.436,2.436,0,0,0,337.332,256.688Z" transform="translate(-331.138 -247.699)"/></g><g class="d" transform="translate(93.272 50.451)"><path class="e" d="M358.273,255.177a8.485,8.485,0,1,0,8.485-8.485A8.483,8.483,0,0,0,358.273,255.177Z" transform="translate(-358.273 -246.692)"/><path class="f" d="M358.643,254.56a7.477,7.477,0,1,0,7.474-7.477A7.473,7.473,0,0,0,358.643,254.56Z" transform="translate(-357.609 -245.991)"/><path class="g" d="M359.013,253.944a6.469,6.469,0,1,0,6.465-6.471A6.467,6.467,0,0,0,359.013,253.944Z" transform="translate(-356.945 -245.291)"/><path class="h" d="M359.383,253.326a5.461,5.461,0,1,0,5.454-5.462A5.456,5.456,0,0,0,359.383,253.326Z" transform="translate(-356.282 -244.589)"/><path class="i" d="M359.753,252.71a4.454,4.454,0,1,0,4.445-4.456A4.451,4.451,0,0,0,359.753,252.71Z" transform="translate(-355.618 -243.89)"/><path class="j" d="M360.122,252.093a3.448,3.448,0,1,0,3.439-3.448A3.443,3.443,0,0,0,360.122,252.093Z" transform="translate(-354.956 -243.188)"/><path class="c" d="M360.492,251.475a2.439,2.439,0,1,0,2.428-2.439A2.437,2.437,0,0,0,360.492,251.475Z" transform="translate(-354.292 -242.487)"/></g><g class="d" transform="translate(118.485 14.517)"><path class="e" d="M367.3,242.316a8.484,8.484,0,1,0,8.482-8.485A8.481,8.481,0,0,0,367.3,242.316Z" transform="translate(-367.297 -233.831)"/><path class="f" d="M367.667,241.7a7.477,7.477,0,1,0,7.474-7.477A7.473,7.473,0,0,0,367.667,241.7Z" transform="translate(-366.633 -233.13)"/><path class="g" d="M368.037,241.083a6.468,6.468,0,1,0,6.465-6.471A6.463,6.463,0,0,0,368.037,241.083Z" transform="translate(-365.97 -232.43)"/><path class="h" d="M368.407,240.465A5.461,5.461,0,1,0,373.861,235,5.456,5.456,0,0,0,368.407,240.465Z" transform="translate(-365.306 -231.729)"/><path class="i" d="M368.777,239.848a4.452,4.452,0,1,0,4.445-4.454A4.448,4.448,0,0,0,368.777,239.848Z" transform="translate(-364.642 -231.027)"/><path class="j" d="M369.147,239.232a3.445,3.445,0,1,0,3.437-3.448A3.438,3.438,0,0,0,369.147,239.232Z" transform="translate(-363.978 -230.327)"/><path class="c" d="M369.517,238.614a2.438,2.438,0,1,0,2.428-2.439A2.428,2.428,0,0,0,369.517,238.614Z" transform="translate(-363.314 -229.626)"/></g><g class="d" transform="translate(125.749)"><path class="e" d="M369.9,237.115a8.484,8.484,0,1,0,8.485-8.48A8.488,8.488,0,0,0,369.9,237.115Z" transform="translate(-369.897 -228.635)"/><path class="f" d="M370.267,236.5a7.475,7.475,0,1,0,7.474-7.471A7.477,7.477,0,0,0,370.267,236.5Z" transform="translate(-369.233 -227.934)"/><path class="g" d="M370.637,235.881a6.468,6.468,0,1,0,6.465-6.465A6.468,6.468,0,0,0,370.637,235.881Z" transform="translate(-368.57 -227.234)"/><path class="h" d="M371.006,235.264a5.461,5.461,0,1,0,5.459-5.457A5.46,5.46,0,0,0,371.006,235.264Z" transform="translate(-367.907 -226.532)"/><path class="i" d="M371.376,234.646a4.454,4.454,0,1,0,4.451-4.448A4.452,4.452,0,0,0,371.376,234.646Z" transform="translate(-367.244 -225.831)"/><path class="j" d="M371.746,234.03a3.446,3.446,0,1,0,3.442-3.442A3.444,3.444,0,0,0,371.746,234.03Z" transform="translate(-366.58 -225.131)"/><path class="c" d="M372.115,233.413a2.439,2.439,0,1,0,2.433-2.434A2.434,2.434,0,0,0,372.115,233.413Z" transform="translate(-365.918 -224.43)"/></g></g><g transform="translate(22.497 103.338)"><path class="c" d="M280.5,287.157c1.09,4.068,70.972,41.264,70.972,41.264,4.518,2.632,13.587,2.224,18.155-.436,31.594-18.233,123.887-72.093,123.887-72.093,4.546-2.632,5.926-9.438,1.422-12.059l-72.8-39.92S270.178,249.084,280.5,287.157Z" transform="translate(-279.996 -203.914)"/></g><g transform="translate(22.489 100.426)"><path class="k" d="M279.993,285.825l71.484,41.543c4.518,2.615,13.587,2.23,18.155-.411,31.594-18.253,124.686-72.573,124.686-72.573,4.563-2.657,4.59-6.9.061-9.525l-72.241-41.988Z" transform="translate(-279.993 -202.872)"/></g><path class="c" d="M275.582,250.775c.064-.525.148-1.062.268-1.612.05-.151.075-.3.123-.467a11.829,11.829,0,0,1,.536-1.629,1.1,1.1,0,0,1,.067-.271c.2-.447.416-.908.651-1.336.134-.224.221-.405.366-.617a8.606,8.606,0,0,1,.712-1.017,2.326,2.326,0,0,1,.19-.293,8.776,8.776,0,0,1,1.073-1.162c.12-.095.182-.151.3-.251a7.6,7.6,0,0,1,1.3-.933L406.7,168.719a7.133,7.133,0,0,1,1.467-.623,3.732,3.732,0,0,1,.5-.134,3.84,3.84,0,0,1,.671-.129,3.547,3.547,0,0,1,.606-.034h.441a5.722,5.722,0,0,1,.9.142l-3.573-.877a2.772,2.772,0,0,0-.617-.12h-.285a3.686,3.686,0,0,0-.45-.017h-.293a2.964,2.964,0,0,0-.3.031c-.187.028-.416.073-.648.12a1.163,1.163,0,0,0-.324.059c-.061.017-.156.045-.187.095a5.369,5.369,0,0,0-1.475.6L277.593,240.314a7.289,7.289,0,0,0-1.294.95l-.257.207a12.661,12.661,0,0,0-1.1,1.185,2.032,2.032,0,0,0-.184.249c-.128.162-.293.335-.43.528-.117.165-.176.394-.3.559a5.855,5.855,0,0,0-.36.581c-.05.109-.112.2-.159.3a7.667,7.667,0,0,0-.486,1.157c-.039.05-.07.1-.087.12v.022a7.053,7.053,0,0,0-.425,1.277c-.056.142-.056.307-.1.43s-.064.274-.089.377a2.309,2.309,0,0,0-.115.5,8.582,8.582,0,0,0-.17,1.159.579.579,0,0,1-.048.184v.07c-.042.556-.042,1.118-.042,1.682,0,.034.031.084.031.115a11.5,11.5,0,0,0,.265,2.115l22.7,99.434,3.015,1.746-22.17-100.314a13.379,13.379,0,0,1-.263-2.135c0-.606,0-1.238.031-1.852A.421.421,0,0,0,275.582,250.775Z" transform="translate(-271.944 -166.928)"/><g transform="translate(3.555 0.859)"><path class="k" d="M404.417,168.168c4.085-2.366,8.376-.075,9.547,5.144L434.3,266.8,294.93,351.4l-21.424-97.006c-1.157-5.214,1.257-11.366,5.381-13.755Z" transform="translate(-273.216 -167.235)"/></g><path class="l" d="M275.076,248.058l132.76-75.764,17.6,80.307-131,80.35Z" transform="translate(-266.325 -157.302)"/><g transform="translate(43.069 113.524)"><path class="c" d="M456.176,232.127,329.6,305.209l-42.236-24.578L413.906,207.56Zm-96.518,51.929,58.953-34.019-5.689-3.3-58.933,34,5.669,3.316Zm37.464-46.511-5.219,3.02,5.688,3.3,5.227-3.012-5.7-3.311Zm18.37-4.018,5.225-2.992-5.694-3.339-5.214,3.037,5.683,3.294Zm-71.615,41.356,5.214-3.023-5.686-3.308-5.227,3.023,5.7,3.308ZM361.3,258.22l-5.211,3.006,5.683,3.325,5.222-3.031-5.694-3.3Zm-35.307,27L331.2,282.2l-5.7-3.314-5.214,3.023,5.7,3.308ZM384.9,251.2l-5.7-3.328-5.2,3.029,5.711,3.308L384.9,251.2Zm.293-6.767-5.241,3.031,5.683,3.294,5.228-3.026-5.669-3.3Zm-71.154,47.671,5.225-3.012-5.719-3.311-5.208,3.023,5.7,3.3ZM421.48,230.1l5.186-3.037-5.688-3.314-5.205,3.04,5.708,3.311Zm-54.225,24.682-5.2,3.015,5.663,3.3,5.228-3.031-5.694-3.286Zm36.31-14.372,5.208-3-5.694-3.308-5.219,3.023,5.705,3.288Zm-54.208,24.707-5.205,3.015,5.694,3.3,5.208-3.02-5.7-3.3Zm-17.415,16.646,5.222-3.015-5.708-3.28-5.216,3,5.7,3.3Zm9.815,12.632,5.216-3.006-5.658-3.3-5.228,3.02,5.669,3.289Zm81.634-56.29,5.225-3.006-5.675-3.311-5.236,3.037,5.686,3.28Zm-54.164,24.715-5.236,3.026,5.672,3.272,5.216-2.99-5.652-3.308Zm20.01-29.856-5.23,3.009,5.672,3.3,5.211-3.029-5.652-3.277Zm18.351-4.048,5.205-3.012-5.658-3.291-5.219,3.015,5.672,3.289ZM381.9,255.488l5.686,3.314,5.241-3.017-5.68-3.3-5.247,3.006Zm-4.915-8.9-5.658-3.288-5.241,3.017,5.691,3.305,5.208-3.034Zm28.057-4.448-5.236,3.012,5.683,3.305,5.236-3.02-5.683-3.3Zm26.241.59,5.23-3.02-5.691-3.3-5.225,3,5.686,3.319Zm-77.885,10.9-5.216,3.04,5.7,3.286,5.205-3.029-5.691-3.3ZM333.87,289.8l5.2-3-5.655-3.319-5.225,3.037,5.677,3.283Zm17.89-10.343,5.247-3-5.7-3.291-5.23,3.017,5.68,3.275Zm-15.8-9.175,5.219-3.015-5.686-3.3-5.194,3.006,5.661,3.305Zm-17.9,10.332,5.2-3.029-5.652-3.288-5.236,3.029,5.691,3.288Zm59.218-40.778-5.225,3.023,5.677,3.3,5.228-3.006-5.68-3.319ZM339.835,286.38l5.219-3.045-5.672-3.283-5.239,3.009,5.691,3.319Zm-15.808-9.189,5.236-3.02-5.7-3.314-5.219,3.037,5.68,3.3Zm51.157-17.806-5.25,3.006,5.694,3.3,5.222-3.026-5.666-3.277Zm20.457-23.562,5.23-3-5.686-3.291-5.211,2.992,5.666,3.3Zm-36.254,14.358-5.228,3.04,5.663,3.28,5.236-3.026-5.672-3.294Zm52.06-5.163L416.675,242,411,238.7l-5.23,3.023,5.68,3.3Zm-18.34,4.018-5.242,3.026,5.677,3.286,5.233-3.02-5.669-3.291Zm26.219.581,5.244-3.034-5.658-3.288-5.244,3.017,5.658,3.305Zm-62.051,20.1-5.219,3.006,5.677,3.294L362.95,273l-5.675-3.283Zm-15.814-9.2-5.219,3.009,5.68,3.325,5.244-3.02-5.705-3.314ZM329.81,301.3l5.225-3.048-5.655-3.283-5.247,3.012,5.677,3.319Zm107.428-62.032,5.239-3.006-5.675-3.3-5.225,3.009,5.661,3.3Zm-7.882-4.6,5.219-3.006L428.9,228.35l-5.228,3.029,5.686,3.3ZM321.917,296.693l5.233-3.012-5.689-3.3-5.208,3.015,5.663,3.3Zm91.622-71.2,5.23-3.009-5.68-3.311-5.214,3.012,5.663,3.308Zm-65.823,65.465,5.255-3.031-5.688-3.289-5.242,3.02,5.675,3.3ZM306.1,287.509l5.242-3-5.658-3.3-5.241,3.012,5.658,3.286Zm121.35-60.883,5.191-3.006-5.686-3.308-5.236,3.015,5.73,3.3Zm-72.123,35.053-5.188,3,5.683,3.283,5.191-2.987-5.686-3.3ZM337.907,278.3l5.211-3.006-5.7-3.3-5.205,3.009,5.7,3.294Zm71.64-41.337,5.183-3-5.68-3.3-5.216,3,5.714,3.3ZM391.144,241l-5.2,2.987,5.7,3.336,5.186-3.026-5.686-3.3Zm-71.118,47.637,5.2-3-5.686-3.3-5.2,3.012,5.686,3.286Zm58.905-33.98-5.711-3.333-5.169,3.012,5.677,3.3,5.2-2.976Zm-66.815,29.4,5.172-3.006-5.649-3.289-5.219,2.978,5.7,3.316Zm123.205-52.831,5.208-3.012-5.68-3.283-5.208,3,5.68,3.291ZM327.888,293.262l5.216-3.009-5.669-3.3-5.222,3.006,5.674,3.305Zm71.176-47.682-5.233,3.034,5.68,3.3,5.227-3.006-5.675-3.33Zm2.554-13.207,5.219-3.012-5.7-3.283-5.177,3,5.658,3.291ZM383.231,236.4l-5.188,3,5.655,3.319,5.216-3.018-5.683-3.305ZM353.7,287.509l5.227-3-5.669-3.3-5.216,3.012,5.658,3.286Zm89.524-51.686,5.225-3-5.691-3.291-5.183,2.992,5.649,3.3Zm-97.44,47.089,5.244-3.012-5.683-3.294-5.214,3.006,5.652,3.3Zm71.629-41.339,5.233-3.012-5.686-3.3-5.208,2.987,5.661,3.322Zm-87.4,32.15,5.208-3.009-5.7-3.286-5.194,3.006,5.686,3.289Zm5.772,24.12,5.225-3.02-5.652-3.305-5.211,3.012,5.638,3.314Zm11.637-40.764-5.174,3.018,5.672,3.275,5.2-3.012-5.7-3.28Zm77.924-10.95,5.191-2.973-5.677-3.3-5.2,3,5.688,3.269Zm-54.326,3.906-5.677-3.3-5.194,3.012,5.661,3.3,5.211-3.017Zm4.923,8.89,5.666,3.333,5.205-3.045-5.647-3.283-5.225,3Zm43.583-36.875,5.233-3.031-5.691-3.283-5.194,3,5.652,3.311Zm-56.276,44.209-5.216,3.012,5.68,3.308,5.2-3.012-5.666-3.308Zm5.384-29.138-5.208,3.034,3.931,2.269,5.214-3.02-3.937-2.283Zm-37.788,21.8-5.244,3,3.942,2.313,5.227-3.017-3.925-2.3Zm73.576-42.482-5.191,3,3.934,2.327,5.242-3.034-3.984-2.3Zm-21.854,12.637-5.233,3.029,3.984,2.269,5.18-3-3.931-2.3Zm7.949-4.588-5.236,3.031,3.965,2.291,5.225-3.026-3.953-2.3Zm-81.575,47.081-5.188,3.031,3.925,2.28,5.233-3.02-3.97-2.291ZM301,276.185l-5.236,3L299.7,281.5l5.211-3.029L301,276.185Zm20.6-7.348,5.205-2.99-3.951-2.325-5.2,3.015,3.945,2.3Zm89.518-51.68,5.2-3.012-3.951-2.277-5.194,3,3.948,2.285ZM360.65,241.722l-5.191,3,3.928,2.313,5.214-3.009-3.951-2.3Z" transform="translate(-287.359 -207.56)"/></g><g transform="translate(142.805 170.047)"><path class="m" d="M324.423,237.887c-1.8,1.056-1.836,2.772-.011,3.825l11.888,6.87a7.3,7.3,0,0,0,6.6.045l16.138-9.343c1.791-1.056,1.811-2.766,0-3.825l-11.866-6.9a7.494,7.494,0,0,0-6.6,0Z" transform="translate(-323.056 -227.79)"/></g><g transform="translate(142.805 170.601)"><path class="l" d="M324.423,238.11c-1.8,1.053-1.836,2.777-.011,3.8l11.888,6.884a7.218,7.218,0,0,0,6.6.034l16.138-9.326c1.791-1.045,1.811-2.763,0-3.836l-11.866-6.89a7.332,7.332,0,0,0-6.6,0Z" transform="translate(-323.056 -227.989)"/></g><g class="n" transform="translate(64.114 97.095)"><g transform="translate(40.087 2.779)"><path class="k" d="M357.069,207.239c3.473-2.009,6.289.475,8.846,7.312l-56.675,32.5c11.226-6.815,10.206-23.232,12.861-33.176,1.263-4.719,4.213-8.533,7.169-10.24,3.322-1.919,6.652-1.168,7.58,3.987,1.755,9.74,1.5,22.628,6.957,19.48s7.583-14.847,11.508-18.53A9.445,9.445,0,0,1,357.069,207.239Z" transform="translate(-309.239 -202.674)"/></g><path class="k" d="M323.182,202.756c8.564,7.116,2.663,50.71,11.246,46.4,0,0-42.091,24.117-39.414,22.572,3.962-2.288,8.206-8.7,9.343-22.6,1.559-19.136,7.421-42.946,14.249-46.888A3.722,3.722,0,0,1,323.182,202.756Z" transform="translate(-294.891 -201.68)"/></g><g transform="translate(34.297 58.813)"><g transform="translate(0 54.676)"><g transform="translate(41.539 2.879)"><path class="c" d="M348.644,213.306c3.6-2.081,6.516.492,9.167,7.58l-58.724,33.678c11.628-7.063,10.57-24.073,13.319-34.377,1.313-4.889,4.37-8.843,7.438-10.609,3.437-1.989,6.89-1.21,7.848,4.132,1.819,10.089,1.556,23.444,7.208,20.184s7.859-15.384,11.927-19.2A9.964,9.964,0,0,1,348.644,213.306Z" transform="translate(-299.087 -208.578)"/></g><path class="c" d="M313.53,208.664c8.876,7.373,2.758,52.543,11.659,48.076,0,0-43.619,24.992-40.842,23.388,4.1-2.369,8.5-9.01,9.678-23.413,1.618-19.832,7.689-44.5,14.769-48.581A3.838,3.838,0,0,1,313.53,208.664Z" transform="translate(-284.219 -207.547)"/></g><g transform="translate(94.911)"><path class="c" d="M347.5,189.093c8.874,7.379,2.76,52.546,11.654,48.079,0,0-43.611,24.989-40.839,23.385,4.1-2.367,8.508-9.008,9.678-23.411,1.615-19.829,7.692-44.5,14.769-48.581A3.841,3.841,0,0,1,347.5,189.093Z" transform="translate(-318.19 -187.978)"/></g></g><g transform="translate(59.487 15.045)"><g class="d"><path class="o" d="M370.485,225.776c14.473,7.345,14.548,19.256.173,26.613s-37.758,7.345-52.225,0-14.548-19.267-.173-26.613S356.02,218.428,370.485,225.776Z" transform="translate(-267.592 -86.292)"/><g class="p" transform="translate(33.281 111.642)"><path class="c" d="M380.249,218.482c17.261,8.279,17.353,21.7.2,29.988s-45.039,8.279-62.3,0-17.353-21.709-.2-29.988S362.991,210.2,380.249,218.482Z" transform="translate(-305.147 -212.271)"/></g><g class="q" transform="translate(26.625 89.314)"><path class="c" d="M390.013,211.19c20.052,9.209,20.158,24.143.235,33.363s-52.323,9.209-72.375,0-20.158-24.154-.237-33.363S369.96,201.979,390.013,211.19Z" transform="translate(-302.765 -204.279)"/></g><g class="n" transform="translate(19.968 66.984)"><path class="c" d="M399.777,203.9c22.841,10.142,22.961,26.587.265,36.738s-59.606,10.142-82.45,0-22.964-26.6-.268-36.738S376.934,193.752,399.777,203.9Z" transform="translate(-300.382 -196.287)"/></g><g class="r" transform="translate(13.313 44.657)"><path class="c" d="M409.538,196.6c25.632,11.075,25.769,29.032.3,40.116s-66.887,11.075-92.522,0-25.771-29.04-.3-40.116S383.9,185.527,409.538,196.6Z" transform="translate(-298 -188.296)"/></g><g class="s" transform="translate(6.657 22.329)"><path class="c" d="M419.3,189.311c28.42,12.006,28.571,31.474.33,43.488s-74.171,12.008-102.6,0-28.574-31.482-.335-43.488S390.873,177.3,419.3,189.311Z" transform="translate(-295.618 -180.304)"/></g><g class="t"><path class="u" d="M429.066,182.017c31.208,12.939,31.376,33.919.36,46.866s-81.455,12.939-112.672,0-31.379-33.927-.369-46.866S397.846,169.078,429.066,182.017Z" transform="translate(-293.235 -172.313)"/></g></g></g></g><g transform="translate(459.874 230.653)"><g transform="translate(7.901 5.515)"><g class="n"><path class="v" d="M349.914,192.794c-4.375,2.526-7.893,8.622-7.879,13.646s3.56,7.032,7.929,4.507,7.885-8.614,7.868-13.626S354.275,190.274,349.914,192.794Z" transform="translate(-342.035 -191.71)"/></g><g class="n" transform="translate(1.841 3.033)"><path class="v" d="M348.737,193.627a13.29,13.29,0,0,0-6.043,10.466c.011,3.844,2.727,5.392,6.082,3.456a13.294,13.294,0,0,0,6.035-10.452C354.8,193.244,352.084,191.694,348.737,193.627Z" transform="translate(-342.694 -192.795)"/></g><g class="n" transform="translate(3.783 5.531)"><path class="v" d="M347.5,194.255a9.031,9.031,0,0,0-4.107,7.113c.008,2.612,1.855,3.663,4.132,2.347a9.037,9.037,0,0,0,4.1-7.1C351.617,193.992,349.77,192.942,347.5,194.255Z" transform="translate(-343.389 -193.69)"/></g></g><g class="d"><path class="w" d="M339.207,205.9a16.159,16.159,0,1,0,16.157-16.16A16.159,16.159,0,0,0,339.207,205.9Z" transform="translate(-339.207 -189.736)"/><path class="x" d="M339.911,204.721a14.241,14.241,0,1,0,14.238-14.241A14.24,14.24,0,0,0,339.911,204.721Z" transform="translate(-337.944 -188.401)"/><path class="y" d="M340.616,203.545a12.321,12.321,0,1,0,12.313-12.321A12.317,12.317,0,0,0,340.616,203.545Z" transform="translate(-336.679 -187.067)"/><path class="z" d="M341.32,202.37a10.4,10.4,0,1,0,10.394-10.4A10.4,10.4,0,0,0,341.32,202.37Z" transform="translate(-335.416 -185.732)"/><path class="aa" d="M342.025,201.194a8.484,8.484,0,1,0,8.469-8.482A8.476,8.476,0,0,0,342.025,201.194Z" transform="translate(-334.152 -184.397)"/><path class="ab" d="M342.729,200.02a6.566,6.566,0,1,0,6.546-6.563A6.556,6.556,0,0,0,342.729,200.02Z" transform="translate(-332.889 -183.061)"/><path class="ac" d="M343.434,198.845a4.646,4.646,0,1,0,4.624-4.644A4.634,4.634,0,0,0,343.434,198.845Z" transform="translate(-331.624 -181.726)"/></g></g><g transform="translate(435.458 257.88)"><g transform="translate(7.901 5.517)"><g class="n"><path class="v" d="M341.175,202.538c-4.375,2.529-7.893,8.622-7.879,13.648s3.557,7.032,7.929,4.507,7.885-8.614,7.868-13.629S345.536,200.021,341.175,202.538Z" transform="translate(-333.296 -201.455)"/></g><g class="n" transform="translate(1.841 3.032)"><path class="v" d="M340,203.371a13.3,13.3,0,0,0-6.043,10.469c.011,3.844,2.727,5.392,6.082,3.453a13.289,13.289,0,0,0,6.035-10.449C346.061,202.989,343.343,201.441,340,203.371Z" transform="translate(-333.955 -202.541)"/></g><g class="n" transform="translate(3.78 5.53)"><path class="v" d="M338.759,204a9.042,9.042,0,0,0-4.11,7.113c.008,2.612,1.855,3.666,4.135,2.347a9.035,9.035,0,0,0,4.1-7.1C342.88,203.74,341.033,202.687,338.759,204Z" transform="translate(-334.649 -203.435)"/></g></g><g class="d"><path class="w" d="M330.468,215.641a16.159,16.159,0,1,0,16.158-16.16A16.157,16.157,0,0,0,330.468,215.641Z" transform="translate(-330.468 -199.481)"/><path class="x" d="M331.172,214.464a14.241,14.241,0,1,0,14.235-14.238A14.237,14.237,0,0,0,331.172,214.464Z" transform="translate(-329.205 -198.145)"/><path class="y" d="M331.877,213.291A12.321,12.321,0,1,0,344.19,200.97,12.315,12.315,0,0,0,331.877,213.291Z" transform="translate(-327.94 -196.81)"/><path class="z" d="M332.581,212.116a10.4,10.4,0,1,0,10.391-10.4A10.4,10.4,0,0,0,332.581,212.116Z" transform="translate(-326.677 -195.475)"/><path class="aa" d="M333.285,210.941a8.485,8.485,0,1,0,8.471-8.482A8.476,8.476,0,0,0,333.285,210.941Z" transform="translate(-325.414 -194.14)"/><path class="ab" d="M333.99,209.765a6.566,6.566,0,1,0,6.546-6.563A6.554,6.554,0,0,0,333.99,209.765Z" transform="translate(-324.15 -192.806)"/><path class="ac" d="M334.694,208.59a4.646,4.646,0,1,0,4.627-4.644A4.635,4.635,0,0,0,334.694,208.59Z" transform="translate(-322.887 -191.471)"/></g></g><g transform="translate(445.259 233.633)"><g transform="translate(11.877 126.937)"><path class="w" d="M347.956,241.814c-12.972,7.524-12.922,19.549-.148,26.976s33.6,7.535,46.581,0c12.877-7.426,12.944-19.53.159-26.976C381.724,234.376,360.822,234.376,347.956,241.814Z" transform="translate(-338.227 -236.236)"/></g><g class="p" transform="translate(9.898 105.782)"><path class="ad" d="M347.832,234.579c-13.752,7.968-13.7,20.72-.156,28.6s35.617,7.982,49.38,0c13.651-7.876,13.721-20.706.168-28.6C383.629,226.692,361.472,226.692,347.832,234.579Z" transform="translate(-337.519 -228.664)"/></g><g class="q" transform="translate(7.918 84.626)"><path class="ae" d="M347.706,227.343c-14.529,8.415-14.473,21.893-.165,30.219,14.325,8.34,37.64,8.427,52.183,0,14.425-8.326,14.5-21.882.176-30.219C385.534,219.008,362.123,219.008,347.706,227.343Z" transform="translate(-336.81 -221.092)"/></g><g class="n" transform="translate(5.938 63.469)"><path class="af" d="M347.584,220.11c-15.311,8.86-15.249,23.067-.176,31.84,15.1,8.787,39.663,8.874,54.985,0,15.2-8.773,15.277-23.059.184-31.84C387.442,211.322,362.772,211.322,347.584,220.11Z" transform="translate(-336.101 -213.519)"/></g><g class="r" transform="translate(3.959 42.313)"><path class="ag" d="M347.46,212.873c-16.09,9.307-16.026,24.24-.184,33.466,15.864,9.234,41.68,9.315,57.785,0,15.97-9.226,16.054-24.238.19-33.466C389.347,203.639,363.422,203.639,347.46,212.873Z" transform="translate(-335.393 -205.947)"/></g><g class="s" transform="translate(1.98 21.155)"><path class="ah" d="M347.334,205.637c-16.867,9.754-16.8,25.414-.193,35.089,16.633,9.681,43.7,9.762,60.587,0,16.744-9.676,16.834-25.414.2-35.089C391.252,195.954,364.073,195.954,347.334,205.637Z" transform="translate(-334.685 -198.374)"/></g><g class="t"><path class="ai" d="M347.211,198.4c-17.65,10.2-17.577,26.585-.2,36.71,17.4,10.131,45.723,10.206,63.387,0,17.518-10.125,17.61-26.59.207-36.71C393.158,188.269,364.721,188.269,347.211,198.4Z" transform="translate(-333.976 -190.803)"/></g></g><g transform="translate(448.823 241.471)"><path class="aj" d="M361.715,247.88s2.347,3.761-.911,4.66-2.277-1.14-9.365.648-6.258-2.2-6.1-3.017,3.244-1.953,4.8-2.355,7.734-1.836,7.734-1.836l3.78.7Z" transform="translate(-317.353 -99.654)"/><g transform="translate(25.764)"><path class="ak" d="M352.866,205.094s-.553-4.945-1.081-5.873-2.651-4.954-6.275-5.577c-1.958-.338-.858,1.724.95,4.037.838,1.048,1.668,1.648,1.405,3.886a15.074,15.074,0,0,0,.612,5.261C348.848,207.98,352.866,205.094,352.866,205.094Z" transform="translate(-344.473 -193.608)"/><path class="al" d="M348.36,206.55c-.372-1.151-.567-3.576-1.523-4.9-1.123-1.593.453-2.987-.386-4.034-1.4-1.8-2.364-3.509-1.819-3.97.972,1.45,3.325.992,4.557,5.35a28.877,28.877,0,0,1,.5,7.482C348.765,206.791,348.5,207,348.36,206.55Z" transform="translate(-344.465 -193.541)"/><path class="ak" d="M349.578,203.779s-3.425-4.431-4.266-5.92-.807-2.892-.4-2.772,3.132,4.4,4.333,3.045C349.891,197.417,349.234,203.033,349.578,203.779Z" transform="translate(-344.183 -190.968)"/><path class="am" d="M381.414,220.667s-.419,6.2-8.25,4.046-21.933-7.9-23.738-11.668-3.641-13.925-3.641-13.925,3.808,1.266,5.239-1.841l6.194,12.578S381.808,216.348,381.414,220.667Z" transform="translate(-342.119 -187.022)"/><path class="am" d="M379.5,220.667c.394-4.319-24.2-10.81-24.2-10.81l-6.194-12.578a3.375,3.375,0,0,1-2.258,1.939c.648,3.219,1.931,8.988,3.2,11.628,1.8,3.775,15.906,9.516,23.737,11.673a8.474,8.474,0,0,0,5.1.109A5.39,5.39,0,0,0,379.5,220.667Z" transform="translate(-340.205 -187.022)"/></g><path class="aj" d="M355.515,241.6s-2.948.447-2.232,2.137,4.093,4.286,4.535,5.353,3.213,4.9,4.1,4.54,3.2.182,2.939-4.185S359.427,241.422,355.515,241.6Z" transform="translate(-303.105 -107.527)"/><path class="am" d="M365.628,221.014s.05,25.3.05,28.146,3.185,25.3,1.271,35.1c0,0-5.518,5.54-10.4,0,0,0-1.556-28.1-2.973-34.438s-.939-25.746-.939-25.746Z" transform="translate(-304.192 -144.442)"/><path class="am" d="M363.929,224.613s-1.266,16.331-2.559,32.533c0,0-.813,32.153-1.576,36.78,0,0-10.374,2.576-11.4-2.313,0,0,.265-28.294,0-34.2s-.874-22.41,1.472-31.929C352.192,215.963,363.929,224.613,363.929,224.613Z" transform="translate(-312.164 -144.445)"/><path class="an" d="M356.555,288.618c.763-4.627,1.576-36.78,1.576-36.78.874-10.908,1.724-21.86,2.188-27.867l-6.407,1.57s-4.616,12.12-3.911,30.3c.55,14.068.774,27.906.852,33.452A26.026,26.026,0,0,0,356.555,288.618Z" transform="translate(-308.924 -139.138)"/><path class="an" d="M362.638,284.14c1.914-9.8-1.271-32.251-1.271-35.1,0-2.713-.045-25.78-.05-27.962l-5.56,4.278s-1.774,18.091,0,28.392c1.6,9.377.573,27.618,1.352,32.851A8.845,8.845,0,0,0,362.638,284.14Z" transform="translate(-299.881 -144.324)"/><path class="an" d="M375.047,204.886s4.965,2.484,2.148,10.919-4.792,13.9-4.627,17.049,1.322,13.735,1.987,15.889c0,0,.824,6.954-15.062,11.089,0,0-13.078,1.327-10.93-7.278s2.984-22.511,2.646-25.827c-.321-3.308-2.308-9.921,5.965-14.392S369.758,204.553,375.047,204.886Z" transform="translate(-311.799 -173.417)"/><path class="am" d="M371.384,205c-3.892.956-7.9,3.674-14.21,7.088-8.273,4.47-6.286,11.084-5.965,14.392.338,3.316-.489,17.216-2.646,25.827-1.724,6.907,6.353,7.415,9.611,7.351C372.776,249.522,371.482,223.231,371.384,205Z" transform="translate(-311.799 -173.171)"/><path class="ak" d="M361.953,203.729s-.567,4.753,1.059,7.734c1.484,2.693-9.706,5.149-9.969,2.651a10.734,10.734,0,0,0-.584-9.2C351.039,202.377,361.953,203.729,361.953,203.729Z" transform="translate(-304.611 -176.097)"/><path class="ao" d="M362.109,210.744c-1.213-2.2-1.213-5.4-1.126-6.887l-8.178,4.051.011.022c.293.07,5.817,1.467,7,5.434C361.5,212.678,362.648,211.728,362.109,210.744Z" transform="translate(-303.761 -175.222)"/><path class="ak" d="M352.478,200.08a20.356,20.356,0,0,0-1.389,8.021c.36,4-.229,4.808.017,6.583a4.363,4.363,0,0,0,.908,2.623c1.238,1.19,3.775,1.626,7.228.366,4.171-1.523,8.547-7.253,6.773-12.4S358.754,195.883,352.478,200.08Z" transform="translate(-306.921 -185.059)"/><path class="al" d="M365.467,210.832c-1.671-4.632-5.823-10.192-5.784-10.489a12.71,12.71,0,0,0-2.92-1.964,9.346,9.346,0,0,0-4.649,1.69,23.634,23.634,0,0,0-.869,2.78c.995,1.106,3.023,2.372,3.322,3.316a12.071,12.071,0,0,1-.344,7.066c-.665,1.486,2.009,3.663,1.447,4.979a.4.4,0,0,0-.017.179,11.632,11.632,0,0,0,3.224-.726A12.056,12.056,0,0,0,365.467,210.832Z" transform="translate(-306.558 -185.049)"/><path class="ap" d="M352.305,198.234c-1.436.626-1.967,5.163,1.674,6.949,2.188,1.067,1.992,4.593,1.889,5.253s-.754,3.629-.481,4.007c.514.738,2.227-1.551,3.045-1.391,2.056.4,1.254,2.33-.623,4.356-2,2.149,3.263,3.031,5.7,1.254,1.288-.939,1.774-1.506,3.47-4.889,2.473-4.923,3.154-12.229-3.23-14.009C357.641,198.06,355.661,196.775,352.305,198.234Z" transform="translate(-306.617 -186.449)"/><path class="aq" d="M362.871,218.849c1.288-.939,1.774-1.506,3.47-4.889,2.473-4.923,3.325-10.832-2.509-13.992-5.817-3.16-10.137-2.836-12.168-1.545-.307.2-.274,5.065,6.868,6.418,3.068.59,3.383,1.81,3.255,5.135-.126,3.213.693,7.4-4.683,9.212C359.1,220.626,361.915,219.542,362.871,218.849Z" transform="translate(-305.976 -186.637)"/><path class="ar" d="M355.264,208.716l-3.819,2.445s11.514,3.881,14.833-1.685a3.23,3.23,0,0,0-2.073-3.923S363.817,210.082,355.264,208.716Z" transform="translate(-306.201 -172.179)"/><g transform="translate(0 29.478)"><path class="as" d="M344.06,211.1s-2.816-3.221-2.71-4.322-1.4-1.584-1.394-.268a6.308,6.308,0,0,0,.721,2.612s-3.775-3.316-3.065-4.674-3.124,2.428-2.221,4.725,1.461,4.987,7.633,5.823A4.731,4.731,0,0,0,344.06,211.1Z" transform="translate(-335.251 -204.159)"/><path class="am" d="M377.727,212.54s2.392,5.487-5.272,7.141-20.756,3.817-23.995,1.4c-3.219-2.422-11.327-10.176-11.327-10.176s3.738-1.143,3.573-4.431l12.361,7.661S376.117,208.67,377.727,212.54Z" transform="translate(-331.876 -200.01)"/><path class="am" d="M375.678,212.54c-1.609-3.87-24.659,1.593-24.659,1.593l-12.361-7.661a3.657,3.657,0,0,1-.383,1.861c3.817,2.92,10.93,8.262,12.863,8.882,2.364.76,20.578-2.1,24.883-2.794A5.282,5.282,0,0,0,375.678,212.54Z" transform="translate(-329.827 -200.01)"/></g></g></g></g></g></svg>