<svg xmlns="http://www.w3.org/2000/svg" xmlns:xlink="http://www.w3.org/1999/xlink" width="357" height="357" viewBox="0 0 357 357"><defs><style>.a{fill:none;}.aq,.b{mix-blend-mode:overlay;}.aq,.b,.t{isolation:isolate;}.c{fill:#fff;}.ax,.c{opacity:0;}.aq,.d,.e,.f,.g,.h,.j{fill:#52e5cc;}.av,.d,.k{opacity:0.167;}.au,.e,.l{opacity:0.333;}.at,.f,.m{opacity:0.5;}.as,.g,.n{opacity:0.667;}.ar,.h,.o{opacity:0.833;}.i{fill:#2afbfe;}.k{fill:#dcfeff;}.l{fill:#b8feff;}.m{fill:#95fdff;}.n{fill:#71fcfe;}.o{fill:#4efcfe;}.p{opacity:0.2;}.q{fill:#41c0fd;}.r{fill:#06bc99;}.s{fill:#ccf7ef;}.u{clip-path:url(#a);}.v{fill:#b8387b;}.w{fill:#0a1014;}.x{fill:#111114;}.y{fill:#5d0ca6;}.z{fill:#1d1d21;}.aa{fill:#161619;}.ab{fill:#43008d;}.ac{fill:#feffff;}.ad{fill:#efb185;}.ae{fill:#dd9569;}.af{fill:#f2b78f;}.ag{fill:#e6a376;}.ah{fill:#9a45f4;}.ai{fill:#8c2ddf;}.aj{fill:#b4b9bc;}.ak{fill:#7d8183;}.al{fill:#e3e5e5;}.am{fill:#bdbbbb;}.an{fill:#d2d0d0;}.ao{fill:#d5dfe6;}.ap{fill:#e9f0f4;}.aw{fill:#d4f7fd;}.ay{fill:#fcfdfd;}.az{fill:#95ecdd;}.ba{fill:#e6fffa;}</style><clipPath id="a"><path class="a" d="M230.625,365.673c.006-.755.006-1.51.006-2.265h0C230.631,364.163,230.631,364.918,230.625,365.673Z" transform="translate(-230.625 -363.408)"/></clipPath></defs><g transform="translate(-790 -396)"><rect class="a" width="357" height="357" transform="translate(790 396)"/><g transform="translate(-7886 -405)"><g transform="translate(8708 972.597)"><g transform="translate(63.762 63.323)"><g class="b"><path class="c" d="M180.73,358.643a15.5,15.5,0,1,0,15.5-15.514A15.508,15.508,0,0,0,180.73,358.643Z" transform="translate(-180.73 -343.129)"/><path class="d" d="M181.38,357.486a13.664,13.664,0,1,0,13.658-13.669A13.664,13.664,0,0,0,181.38,357.486Z" transform="translate(-179.492 -341.821)"/><path class="e" d="M182.03,356.329A11.822,11.822,0,1,0,193.847,344.5,11.824,11.824,0,0,0,182.03,356.329Z" transform="translate(-178.255 -340.511)"/><path class="f" d="M182.68,355.175a9.981,9.981,0,1,0,9.973-9.984A9.98,9.98,0,0,0,182.68,355.175Z" transform="translate(-177.017 -339.203)"/><path class="g" d="M183.33,354.019a8.139,8.139,0,1,0,8.131-8.14A8.135,8.135,0,0,0,183.33,354.019Z" transform="translate(-175.779 -337.893)"/><path class="h" d="M183.98,352.862a6.3,6.3,0,1,0,6.287-6.3A6.294,6.294,0,0,0,183.98,352.862Z" transform="translate(-174.542 -336.585)"/><path class="i" d="M184.63,351.706a4.456,4.456,0,1,0,4.446-4.452A4.449,4.449,0,0,0,184.63,351.706Z" transform="translate(-173.304 -335.275)"/></g><g transform="translate(7.657 11.579)"><path class="j" d="M196.747,348.446c3.084,1.783,3.1,4.658.029,6.438a12.206,12.206,0,0,1-11.085-.012c-2.733-1.571-3.049-4-.984-5.773a7.983,7.983,0,0,1,.924-.653,9.292,9.292,0,0,1,1.15-.549A12.46,12.46,0,0,1,196.747,348.446Z" transform="translate(-183.367 -347.116)"/></g></g><g transform="translate(0 22.155)"><g class="b"><path class="c" d="M158.774,344.467a15.5,15.5,0,1,0,15.5-15.514A15.51,15.51,0,0,0,158.774,344.467Z" transform="translate(-158.774 -328.953)"/><g transform="translate(1.888 1.998)"><path class="k" d="M159.424,343.31a13.664,13.664,0,1,0,13.658-13.669A13.665,13.665,0,0,0,159.424,343.31Z" transform="translate(-159.424 -329.641)"/><path class="l" d="M160.074,342.155a11.822,11.822,0,1,0,11.817-11.828A11.822,11.822,0,0,0,160.074,342.155Z" transform="translate(-158.186 -328.335)"/><path class="m" d="M160.724,341a9.981,9.981,0,1,0,9.973-9.984A9.979,9.979,0,0,0,160.724,341Z" transform="translate(-156.949 -327.025)"/><path class="n" d="M161.374,339.845a8.139,8.139,0,1,0,8.131-8.143A8.135,8.135,0,0,0,161.374,339.845Z" transform="translate(-155.711 -325.717)"/><path class="o" d="M162.024,338.691a6.3,6.3,0,1,0,6.287-6.3A6.294,6.294,0,0,0,162.024,338.691Z" transform="translate(-154.473 -324.409)"/><path class="i" d="M162.674,337.534a4.456,4.456,0,1,0,4.446-4.458A4.451,4.451,0,0,0,162.674,337.534Z" transform="translate(-153.236 -323.101)"/></g></g><g transform="translate(7.656 11.574)"><path class="j" d="M174.791,334.27c3.084,1.78,3.093,4.661.029,6.435a12.189,12.189,0,0,1-11.085-.012c-2.733-1.565-3.049-4-.987-5.768a7.8,7.8,0,0,1,.923-.656,9.254,9.254,0,0,1,1.15-.546A12.431,12.431,0,0,1,174.791,334.27Z" transform="translate(-161.41 -332.939)"/></g></g><path class="j" d="M327.919,436.528c-10.414,6.058-27.435,6.058-37.93.006L174.3,369.741c-10.489-6.046-10.53-15.9-.1-21.966l43.509-25.28-2.018-1.17-43.5,25.286c-11.52,6.688-11.456,17.607.128,24.289L288,437.693c11.6,6.691,30.4,6.679,41.926-.017l43.483-25.268-2-1.159Z" transform="translate(-149.613 -321.324)"/><g transform="translate(78.578 28.524)"><rect class="j" width="103.453" height="2.749" transform="translate(0 50.868) rotate(-29.452)"/></g></g><g transform="translate(8732.168 829)"><g class="p" transform="translate(0 101.001)"><path d="M345.474,373.665,280.5,411.418l-65.384-37.753,64.966-37.753Z" transform="translate(-215.119 -335.912)"/></g><g transform="translate(16.235)"><g transform="translate(48.619 28.071)"><path class="j" d="M286.073,310.8l-.323,113.8-48.3,28.071.322-113.792Z" transform="translate(-237.451 -310.799)"/></g><g transform="translate(0 28.071)"><path class="q" d="M269.65,338.875l-.322,113.792L220.709,424.6l.319-113.8Z" transform="translate(-220.709 -310.799)"/></g><g transform="translate(0 28.071)"><path class="r" d="M269.65,338.875l-.322,113.792L220.709,424.6l.319-113.8Z" transform="translate(-220.709 -310.799)"/></g><g transform="translate(5.607 43.153)"><path class="s" d="M260.366,337.631l-.247,87.723L222.64,403.715l.247-87.723Z" transform="translate(-222.64 -315.992)"/></g><g transform="translate(0.319)"><path class="s" d="M317.741,329.2l-48.3,28.076L220.819,329.2l48.306-28.071Z" transform="translate(-220.819 -301.133)"/></g><path class="r" d="M222.269,319.672l2.361,1.237,40.139,22.353v12.722l-42.5-23.284Z" transform="translate(-217.738 -265.833)"/><path class="r" d="M221.636,328.084,224,329.315l40.138,22.353V364.4l-42.5-23.289Z" transform="translate(-218.944 -249.816)"/><path class="r" d="M221.258,336.092l2.361,1.231,40.141,22.353V372.4l-42.5-23.284Z" transform="translate(-219.663 -234.569)"/></g><g transform="translate(68.3 40.98)"><g class="p" transform="translate(0 101.001)"><path d="M345.474,373.665,280.5,411.418l-65.384-37.753,64.966-37.753Z" transform="translate(-215.119 -335.912)"/></g><g transform="translate(16.235)"><g transform="translate(48.619 28.071)"><path class="j" d="M286.073,310.8l-.323,113.8-48.3,28.071.322-113.792Z" transform="translate(-237.451 -310.799)"/></g><g transform="translate(0 28.071)"><path class="q" d="M269.65,338.875l-.322,113.792L220.709,424.6l.319-113.8Z" transform="translate(-220.709 -310.799)"/></g><g transform="translate(0 28.071)"><path class="r" d="M269.65,338.875l-.322,113.792L220.709,424.6l.319-113.8Z" transform="translate(-220.709 -310.799)"/></g><g transform="translate(5.607 43.153)"><path class="s" d="M260.366,337.631l-.247,87.723L222.64,403.715l.247-87.723Z" transform="translate(-222.64 -315.992)"/></g><g transform="translate(0.319)"><path class="s" d="M317.741,329.2l-48.3,28.076L220.819,329.2l48.306-28.071Z" transform="translate(-220.819 -301.133)"/></g><path class="r" d="M222.269,319.672l2.361,1.237,40.139,22.353v12.722l-42.5-23.284Z" transform="translate(-217.738 -265.833)"/><path class="r" d="M221.636,328.084,224,329.315l40.138,22.353V364.4l-42.5-23.289Z" transform="translate(-218.944 -249.816)"/><path class="r" d="M221.258,336.092l2.361,1.231,40.141,22.353V372.4l-42.5-23.284Z" transform="translate(-219.663 -234.569)"/></g></g><g transform="translate(139.46 84.961)"><g class="p" transform="translate(0 101.001)"><path d="M345.474,373.665,280.5,411.418l-65.384-37.753,64.966-37.753Z" transform="translate(-215.119 -335.912)"/></g><g transform="translate(16.235)"><g transform="translate(48.619 28.071)"><path class="j" d="M286.073,310.8l-.323,113.8-48.3,28.071.322-113.792Z" transform="translate(-237.451 -310.799)"/></g><g transform="translate(0 28.071)"><path class="q" d="M269.65,338.875l-.322,113.792L220.709,424.6l.319-113.8Z" transform="translate(-220.709 -310.799)"/></g><g transform="translate(0 28.071)"><path class="r" d="M269.65,338.875l-.322,113.792L220.709,424.6l.319-113.8Z" transform="translate(-220.709 -310.799)"/></g><g transform="translate(5.607 43.153)"><path class="s" d="M260.366,337.631l-.247,87.723L222.64,403.715l.247-87.723Z" transform="translate(-222.64 -315.992)"/></g><g transform="translate(0.319)"><path class="s" d="M317.741,329.2l-48.3,28.076L220.819,329.2l48.306-28.071Z" transform="translate(-220.819 -301.133)"/></g><path class="r" d="M222.269,319.672l2.361,1.237,40.139,22.353v12.722l-42.5-23.284Z" transform="translate(-217.738 -265.833)"/><path class="r" d="M221.636,328.084,224,329.315l40.138,22.353V364.4l-42.5-23.289Z" transform="translate(-218.944 -249.816)"/><path class="r" d="M221.258,336.092l2.361,1.231,40.141,22.353V372.4l-42.5-23.284Z" transform="translate(-219.663 -234.569)"/></g></g></g><g transform="translate(8822.58 1012.063)"><g class="t" transform="translate(94.079 82.749)"><g class="u"><g class="t" transform="translate(-0.049 -0.305)"><path class="v" d="M231.366,363.3l-.009,2.558a3.972,3.972,0,0,0-.706.311.188.188,0,0,0-.044.029l.006-2.564.049-.029a3.665,3.665,0,0,1,.7-.3Z" transform="translate(-230.608 -363.303)"/></g></g></g><path class="w" d="M203.04,367.032s4.24,3.557,3.345,7.277c0,0-1.42,1.5-2.744-1.156S200.905,366.948,203.04,367.032Z" transform="translate(-191.164 -273.762)"/><path class="x" d="M213.451,380.088s-6.409,2.2-7.487.113a19.794,19.794,0,0,0-3.038-4.516c-.8-.758-6.084-9.647-4.35-11.076,1.751-1.406,4.278,1.112,5.036,1.731s8.823,6.868,8.823,6.868Z" transform="translate(-198.23 -279.171)"/><path class="y" d="M257.887,360s-22.448,12.871-27.539,17.244c-4.217,3.624-27.571,14.8-27.571,14.8a27.3,27.3,0,0,1,1.9,7.225s21.339-.308,34.767-12.638c0,0,45.054-9.386,41.209-32.63C280.65,354,265.792,356.685,257.887,360Z" transform="translate(-189.571 -298.568)"/><path class="z" d="M202.9,374.945c-.706-.68-4.96-7.792-4.638-10.339a2.379,2.379,0,0,1,2.66,1.684,78.988,78.988,0,0,0,4.89,9.177c.508.642,3.409,3.45,2.945,4.867-1.278.084-2.416-.1-2.82-.874A19.793,19.793,0,0,0,202.9,374.945Z" transform="translate(-198.202 -278.43)"/><path class="aa" d="M222.144,370.463s.537,8.16-1.629,8.825a18.809,18.809,0,0,0-4.824,2.114c-.845.618-10.19,4.1-11.23,2.2s1.786-3.868,2.506-4.487,8.55-8.643,8.55-8.643Z" transform="translate(-186.803 -267.226)"/><path class="ab" d="M262.419,357.722S241.713,364.36,236.3,369.6s-28.66,26.064-28.66,26.064,7.272-2.053,9.145,4.037l29.659-21.865a58.307,58.307,0,0,0,27.952-2.268c7.556-2.576,6.47-16.1,6.456-17.221S262.419,357.722,262.419,357.722Z" transform="translate(-180.311 -291.688)"/><path class="ab" d="M232.111,341.721a4.866,4.866,0,0,1,4.083,5.367c-.163,4.838-4.635,25.721-9.772,29.868s-5.015-5.73-5.015-5.73S224.552,340.661,232.111,341.721Z" transform="translate(-154.098 -322.004)"/><path class="y" d="M242.084,343.694s12.18,6.836,12.453,7.675,1.679,1.493-2.323,10.963A30.519,30.519,0,0,0,251.13,381c1.554,5.962,1.313,7.975,1.313,7.975s-4.734,10.141-18.2,5.19c-2.712-1-10.3-8.247-11.683-11.224,0,0,4.275-5.259,2.6-15.54s-2.637-23.63,3.2-25.408C228.357,341.992,229.841,340.2,242.084,343.694Z" transform="translate(-151.903 -322.311)"/><path class="ac" d="M233.595,341.139s-7.844,4.127-4.342,10.045l-3.7,2.03S221.943,342.867,233.595,341.139Z" transform="translate(-147.206 -323.061)"/><path class="ad" d="M237.676,339.705s-3.3,5.015-.685,8.4c1.461,1.893-1.978,6.374-7.853,6.017,0,0-2.631-.648-2.361-1.594.613-2.166-.258-3.386-1.2-5.036C224.651,345.833,237.676,339.705,237.676,339.705Z" transform="translate(-146.252 -325.791)"/><path class="ae" d="M233.491,347.9a1.64,1.64,0,0,1,.314.775c-2.2-2.239-6.438-2.41-6.438-2.41l5.587-6.177c.218-.1.4-.192.563-.27l.171.549C232.884,341.945,231.545,345.374,233.491,347.9Z" transform="translate(-142.752 -325.585)"/><path class="af" d="M226.776,348.837c.552-3.441-.258-3.386-1.2-5.036-.25-.456.552-1.249,1.835-2.161a4.115,4.115,0,0,1,.958,1.077c2.277,3.511,2.265,6.255,1.992,7.713a5.545,5.545,0,0,1-1.223,0C228.434,350.324,226.608,349.9,226.776,348.837Z" transform="translate(-146.251 -322.105)"/><g transform="translate(75.678 0.117)"><path class="ad" d="M241.116,345.742s-1.429,6.627-5.994,9.644c-4.04,2.666-8.75,4.417-9.61-.415-.694-3.833-2.579-13.6.81-15.563,4.365-2.524,5.968-5.646,11.018-3.784C237.341,335.625,243.114,338.273,241.116,345.742Z" transform="translate(-224.15 -334.753)"/><path class="ag" d="M240.689,344.349a14.926,14.926,0,0,1-5.971,9.734,18.655,18.655,0,0,1-3.83,2.024,17.882,17.882,0,0,0,3.99-3.964c1.652-1.922-2.451-1.179.357-6.087.95-1.673-3.723.482-4.774.453-6.226-.151-5.756-3.708-5.875-5.221a11.42,11.42,0,0,1,.508-1.838l.59-1.135a3.6,3.6,0,0,1,.212-.3,21.187,21.187,0,0,1,2.015-2.225c2.669.064,10.243.227,10.394.267.1.023,1.409,1.786,2.617,3.47A10.335,10.335,0,0,1,240.689,344.349Z" transform="translate(-223.723 -333.36)"/><path class="ah" d="M238.531,352.37s5.036-4.629,3.287-11.271a7.751,7.751,0,0,0-6.871-6.041c-2.826-.34-8.268-.168-10.434,5.547-.671,1.789-.218,5.7,6.784,3.874,1.008-.259,3.671-.616,4.609.238a3.654,3.654,0,0,1,.6,3.8c-.4,1.191.645,1.316.79,1.066s1.5-3.642,2.762-2.315C241.194,348.467,238.65,352.137,238.531,352.37Z" transform="translate(-224.289 -334.954)"/><path class="ai" d="M233.936,350.846c.119-.232,2.663-3.9,1.522-5.1-1.266-1.327-2.617,2.059-2.762,2.315s-1.191.125-.79-1.066a3.654,3.654,0,0,0-.6-3.8c-.851-.775-3.186-.38-4.609-.238,1.165-.746,3.482-1,4.307-2.936,1.1-2.6,2.666-3.813,4.13-4.266a8.081,8.081,0,0,1,2.085,3.822C238.972,346.217,233.936,350.846,233.936,350.846Z" transform="translate(-219.694 -333.431)"/></g><path class="ac" d="M234.361,342.037a10.215,10.215,0,0,1-7.879,7.437l1.914,4.679S240.4,348.13,234.361,342.037Z" transform="translate(-144.435 -321.351)"/><path class="ah" d="M224.394,340.682s-1.034,6.395,7.1,4.074a9.359,9.359,0,0,0,5.7-4.85,3.7,3.7,0,0,1,2.663-2.28s-2.161-3.075-7.76-2.678c-2.637.186-5.37,2.75-6.046,3.165S226.467,341.2,224.394,340.682Z" transform="translate(-148.492 -334.914)"/><path class="ad" d="M223.582,358.256s-5.852,1.095-9.854-.569-3.032-1.8-2.73-2.4c.674-1.316,5.95-.953,6.926-1.214s-.813-1.025-1.214-1.7-1.321-1.446-1-1.679c.311-.215,1.127-.436,2.611.743a31.953,31.953,0,0,0,5.236,2.791Z" transform="translate(-174.537 -305.204)"/><path class="ab" d="M215.175,353.028a9.849,9.849,0,0,1,.317,2.6,5.808,5.808,0,0,1-.845,3.006s19.115,3.83,23.97,1.374c0,0,4.7-7.237-2.483-9.159Z" transform="translate(-166.971 -304.57)"/><g transform="translate(36.977 48.1)"><g transform="translate(5.529 8.338)"><g class="t"><g transform="translate(26.877 12.354)"><path class="aj" d="M236.508,358.6l.081.987L222.2,369.844l-.082-1Z" transform="translate(-222.121 -358.602)"/></g><g transform="translate(0 10.255)"><path class="ak" d="M239.743,370.221l.082,1-26.867-12.354-.092-.987Z" transform="translate(-212.866 -357.879)"/></g><path class="al" d="M254.13,366.7l-14.387,10.244L212.866,364.6l14.386-10.255Z" transform="translate(-212.866 -354.348)"/></g></g><g class="t"><g transform="translate(28.085 12.904)"><path class="am" d="M220.633,356.918l1.072-1,4.484,17.98-1.072.993Z" transform="translate(-220.633 -355.92)"/></g><path class="an" d="M210.962,352.475l1.072-1,28.085,12.9-1.072,1Z" transform="translate(-210.962 -351.477)"/><g transform="translate(0 0.998)"><path class="ao" d="M239.047,364.724l4.484,17.974-28.085-12.909-4.484-17.969Z" transform="translate(-210.962 -351.82)"/></g><g transform="translate(0 0.998)"><path class="ap" d="M239.047,364.724h0l-23.6,5.065-4.484-17.969Z" transform="translate(-210.962 -351.82)"/></g></g></g><path class="aa" d="M216.785,375.006s-.363-5.959-9.145-4.037A9.134,9.134,0,0,0,216.785,375.006Z" transform="translate(-180.311 -266.989)"/><path class="ad" d="M233,361.741s-6.459,5.335-12.79,4.086c0,0,.006-1.652,2.823-2.256a4.957,4.957,0,0,0,3.86-3.093c-.017-.34-2.219-.523-3.212-.572s-2.169-1.391.232-1.548,6.505-1.063,8.837-.552C232.748,357.806,235.083,360.3,233,361.741Z" transform="translate(-156.381 -291.619)"/><path class="ab" d="M247.291,344.51A4.863,4.863,0,0,1,252.8,348.4c1.278,4.67,3.27,25.933-.383,31.431s-27.475,8.375-27.475,8.375a6.512,6.512,0,0,0-.72-6.607l20.572-8.6S239.769,345.759,247.291,344.51Z" transform="translate(-148.734 -316.735)"/></g><g transform="translate(8712.768 902.113)"><path class="aq" d="M236.7,348.411c14.4,7.312,14.465,19.155.168,26.468s-37.547,7.3-51.936,0-14.465-19.155-.168-26.468S222.317,341.107,236.7,348.411Z" transform="translate(-134.376 -209.698)"/><g class="ar" transform="translate(33.096 111.026)"><path class="j" d="M246.5,341.46c17.169,8.239,17.253,21.586.2,29.825s-44.789,8.233-61.955,0-17.256-21.586-.2-29.825S229.338,333.227,246.5,341.46Z" transform="translate(-171.812 -335.284)"/></g><g class="as" transform="translate(26.477 88.823)"><path class="j" d="M256.3,334.51c19.939,9.162,20.044,24.011.232,33.176s-52.035,9.159-71.977,0-20.044-24.014-.232-33.176S236.359,325.351,256.3,334.51Z" transform="translate(-169.533 -327.639)"/></g><g class="at" transform="translate(19.858 66.617)"><path class="j" d="M266.1,327.56c22.716,10.089,22.835,26.442.264,36.533s-59.275,10.086-81.993,0-22.835-26.444-.267-36.533S243.381,317.471,266.1,327.56Z" transform="translate(-167.254 -319.992)"/></g><g class="au" transform="translate(13.238 44.41)"><path class="j" d="M275.9,320.607c25.489,11.018,25.625,28.875.3,39.893s-66.521,11.015-92.012,0-25.625-28.875-.3-39.893S250.405,309.591,275.9,320.607Z" transform="translate(-164.974 -312.345)"/></g><g class="av" transform="translate(6.62 22.206)"><path class="aw" d="M285.7,313.657c28.262,11.944,28.413,31.3.328,43.244s-73.763,11.942-102.031,0-28.416-31.3-.334-43.244S257.425,301.715,285.7,313.657Z" transform="translate(-162.695 -304.7)"/></g><g class="ax"><path class="ay" d="M295.5,306.706c31.036,12.871,31.2,33.731.36,46.6s-81.009,12.868-112.053,0-31.2-33.731-.366-46.6S264.446,293.835,295.5,306.706Z" transform="translate(-160.416 -297.053)"/></g></g><g transform="translate(8719.559 908.859)"><path class="az" d="M248.7,434.862c-.525-.6-1.065-1.175-1.609-1.728-.158-.151-.3-.3-.457-.454-.251-.232-.5-.47-.75-.7-.187-.158-.367-.328-.541-.48-.264-.238-.541-.457-.817-.673-.174-.145-.348-.29-.521-.428-.312-.232-.612-.451-.92-.666-.148-.106-.306-.225-.46-.319-.451-.315-.924-.611-1.4-.888-.525-.293-1.03-.55-1.554-.8-.132-.068-.264-.125-.393-.18-.286-.132-.56-.235-.846-.341-.4-.158-.795-.3-1.188-.409-.254-.074-.5-.151-.76-.213-.222-.058-.451-.1-.682-.151-.306-.058-.605-.106-.9-.138-.171-.013-.331-.038-.5-.045a10.285,10.285,0,0,0-1.081-.026h-.257a10.1,10.1,0,0,0-1.242.158c-.1.019-.209.045-.309.071a8.5,8.5,0,0,0-.924.27c-.093.032-.2.061-.29.1a7.62,7.62,0,0,0-1.11.528l17.224-10.006a.285.285,0,0,1,.09-.052,6.29,6.29,0,0,1,.846-.422c.058-.022.116-.039.174-.055.1-.039.18-.071.28-.1.151-.048.293-.113.434-.155.167-.045.332-.084.5-.113.1-.026.193-.051.3-.071.058-.007.106-.026.155-.032a8.276,8.276,0,0,1,1.03-.126h.322c.257-.013.521-.019.792-.013.093.013.2.026.277.032.18.019.348.032.521.058a3.786,3.786,0,0,1,.467.048c.135.013.283.058.422.084.229.042.463.087.7.148.125.026.241.045.373.084s.257.087.38.126c.389.119.779.251,1.178.409.154.058.28.087.431.151s.286.125.431.193c.125.058.257.116.389.177q.758.357,1.558.811c.473.27.936.566,1.4.872.155.109.306.222.463.335.3.219.611.428.911.66.18.138.354.283.534.428.27.219.534.438.8.666.183.164.361.325.541.489.257.225.505.46.75.7.093.087.187.164.267.245a2.348,2.348,0,0,0,.19.209c.528.528,1.046,1.081,1.551,1.638l7.631-4.435a1.094,1.094,0,0,1,.126-.077,12.749,12.749,0,0,1,1.171-.573c.077-.032.174-.048.251-.08.135-.058.27-.093.4-.145.193-.071.383-.145.6-.209.241-.067.486-.119.731-.167.132-.032.258-.064.4-.1.061-.01.126-.029.187-.042.492-.08.972-.138,1.467-.171.029-.006.071,0,.1-.006.145-.007.283,0,.422,0,.357-.007.714-.026,1.081-.007.132,0,.274.026.4.039.258.019.509.048.76.074.228.026.454.032.685.071.18.026.377.08.573.119.344.064.682.138,1.036.225.193.045.37.065.56.113.348.1.708.209,1.052.328.093.026.183.052.27.081.534.177,1.065.38,1.609.6.161.061.331.145.5.219s.341.151.515.235c.27.119.534.238.8.37l5.931-3.447a1.541,1.541,0,0,0,.158-.087,1.383,1.383,0,0,1,.193-.087,9.134,9.134,0,0,1,1.023-.5,1.59,1.59,0,0,1,.2-.1.62.62,0,0,1,.174-.061c.415-.17.84-.322,1.268-.454a.066.066,0,0,0,.048-.019h.006a12.748,12.748,0,0,1,1.406-.319c.064-.019.116-.032.167-.045a1.435,1.435,0,0,1,.229-.019c.418-.071.827-.119,1.258-.158.071,0,.138-.019.219-.026a.334.334,0,0,0,.08,0c.525-.029,1.069-.029,1.616-.01a1.328,1.328,0,0,1,.161,0c.074,0,.145.016.219.022.608.032,1.229.09,1.867.177h.019l.01.013a22.455,22.455,0,0,1,2.327.5,1.066,1.066,0,0,0,.138.026c.035.007.058.026.087.032.5.132,1,.283,1.522.457a2.3,2.3,0,0,0,.261.106c.428.145.859.3,1.291.492.048.013.1.032.151.048.1.045.193.1.286.135.47.2.927.409,1.39.634.161.074.328.158.5.251.608.3,1.2.608,1.809.962.888.515,1.757,1.075,2.629,1.664.29.2.56.415.84.612.583.422,1.165.843,1.725,1.287.328.258.65.541.978.8.505.428,1.014.862,1.519,1.307.325.309.66.618.991.927.245.238.5.457.743.7.161.158.306.335.47.5.708.721,1.41,1.464,2.085,2.23.183.206.393.4.566.608a3.531,3.531,0,0,1,.238.283c.367.422.711.869,1.075,1.3.3.383.628.753.937,1.149.087.119.177.245.27.364.254.328.492.666.753,1.007.27.389.579.772.85,1.175.158.206.3.434.434.647.222.322.444.647.653.969.18.277.38.541.55.824.254.4.483.8.731,1.2.174.27.341.541.505.811.071.132.148.258.232.383.463.785.908,1.583,1.32,2.382a.617.617,0,0,1,.068.113c.064.116.116.235.174.348l.991,1.934c.1.229.2.46.3.679.132.29.264.586.4.876s.28.589.409.885q.309.729.592,1.445l.312.756c.035.113.09.219.126.325.341.882.66,1.767.962,2.662h0v0a.825.825,0,0,0,.029.112c.064.193.116.383.174.57.229.731.47,1.458.666,2.176.035.126.058.251.09.37.132.512.248,1.007.37,1.5.116.467.248.924.338,1.384.029.126.048.251.068.377.2.982.354,1.957.5,2.929.035.229.087.467.122.7,0,.039,0,.077.01.119.145,1.149.248,2.308.3,3.444.36.328.715.66,1.062,1.007a1.365,1.365,0,0,1,.113.119c.579.573,1.136,1.175,1.677,1.793a.746.746,0,0,1,.122.125c.125.138.232.283.351.428.283.338.573.685.85,1.03.077.087.148.177.225.27.116.158.228.319.344.476.2.258.4.521.586.792.074.113.158.216.235.322.129.184.235.351.357.528.161.232.315.47.473.7.068.1.138.2.2.3.138.212.27.438.4.66.132.206.257.409.38.615.039.077.087.138.129.216.187.312.348.621.528.933.077.158.171.309.251.467a.456.456,0,0,0,.058.087c.264.505.512,1,.76,1.5l.016.045c.045.1.093.2.145.3.177.4.367.779.534,1.175.026.061.045.132.074.187.09.209.174.422.264.637.1.251.206.509.306.753.045.1.068.2.109.3.09.251.183.5.273.753.068.2.151.4.219.611.035.119.071.244.109.37.093.29.171.579.264.872.058.183.116.367.167.547.035.119.064.232.093.348.1.377.187.747.267,1.117.042.183.106.367.135.541a1.788,1.788,0,0,0,.045.222c.142.74.274,1.487.376,2.23a.07.07,0,0,0,.013.052c.035.357.071.727.1,1.088.013.2.042.4.052.6.042.592.061,1.162.061,1.728-.019,6.034-1.548,11-4.9,12.951L333.9,516.409c3.353-1.947,4.876-6.913,4.9-12.947,0-.566-.019-1.133-.061-1.719-.006-.225-.048-.451-.068-.679-.029-.351-.058-.7-.1-1.062-.1-.74-.232-1.487-.383-2.243-.048-.245-.113-.5-.174-.753-.08-.373-.174-.743-.27-1.113-.08-.3-.161-.6-.251-.9s-.174-.592-.277-.888c-.1-.319-.216-.64-.325-.959-.09-.261-.174-.505-.274-.763q-.2-.526-.415-1.062c-.084-.206-.164-.422-.264-.634-.187-.435-.386-.876-.586-1.3-.058-.122-.106-.238-.171-.364-.267-.554-.534-1.094-.824-1.641-.077-.145-.174-.286-.251-.431-.206-.389-.431-.785-.65-1.165-.126-.206-.257-.409-.38-.615-.206-.328-.406-.653-.615-.981-.158-.225-.309-.451-.46-.686-.2-.293-.389-.563-.6-.846s-.383-.541-.6-.8c-.183-.248-.364-.492-.557-.737-.283-.351-.563-.7-.853-1.036-.161-.184-.319-.37-.47-.56q-.816-.922-1.68-1.792c-.389-.383-.776-.76-1.178-1.117-.045-1.139-.148-2.3-.293-3.456-.042-.254-.09-.505-.132-.769-.138-.985-.3-1.973-.505-2.967-.113-.583-.264-1.168-.4-1.754-.119-.508-.235-1-.367-1.512-.225-.818-.473-1.635-.731-2.459-.074-.225-.145-.454-.206-.673-.348-1.023-.718-2.05-1.11-3.067-.113-.271-.229-.534-.328-.8-.312-.766-.644-1.529-.982-2.282-.135-.3-.27-.6-.412-.911-.4-.85-.818-1.69-1.255-2.52-.068-.145-.138-.3-.222-.441-.505-.956-1.039-1.912-1.593-2.848-.174-.283-.344-.56-.512-.843-.425-.669-.837-1.339-1.268-1.992-.225-.325-.444-.666-.669-.985-.412-.611-.85-1.207-1.284-1.805-.257-.338-.5-.685-.756-1.023-.4-.515-.8-1.007-1.207-1.5-.348-.435-.708-.882-1.068-1.3-.264-.315-.541-.6-.811-.907-.689-.766-1.384-1.506-2.1-2.23-.4-.4-.8-.792-1.2-1.181-.328-.315-.666-.631-.994-.93-.5-.447-1-.882-1.519-1.31-.322-.267-.644-.544-.969-.8-.57-.444-1.146-.866-1.731-1.287-.274-.2-.557-.415-.834-.6-.875-.6-1.748-1.165-2.639-1.667-.608-.357-1.2-.673-1.8-.975-.174-.087-.341-.167-.512-.251-.46-.212-.911-.428-1.361-.615-.158-.071-.312-.138-.467-.2-.425-.174-.843-.331-1.274-.483-.087-.032-.18-.074-.27-.106-.505-.17-1.023-.322-1.513-.46-.087-.026-.161-.039-.241-.061a20.324,20.324,0,0,0-2.34-.492c-.631-.1-1.258-.158-1.88-.193-.119-.006-.258-.013-.38-.013a15.027,15.027,0,0,0-1.616.007c-.1.006-.18.019-.27.026-.113.007-.209.029-.312.035L273.4,432c-.756-.422-1.49-.789-2.227-1.126-.171-.077-.338-.158-.521-.232-.7-.315-1.413-.592-2.1-.824-.084-.032-.171-.051-.258-.084-.55-.174-1.091-.319-1.619-.444-.351-.09-.7-.158-1.04-.222-.1-.019-.187-.029-.283-.042l-14.553,8.448c-.274-.373-.55-.737-.837-1.094-.328-.421-.657-.824-1.007-1.226C248.868,435.052,248.778,434.956,248.7,434.862Z" transform="translate(-224.261 -415.893)"/><g transform="translate(0 10.006)"><path class="ba" d="M301.367,422.874c-10.508-6.073-19.693-4.757-24.575,2.227-10.669-5.993-19.658-3.434-22.606,5.474a32.236,32.236,0,0,0-9.565-8.947c-9.333-5.384-16.928-1.075-16.964,9.655-.029,10.135,6.72,22.361,15.332,28.218l83.722,48.571.676.39c10.363,5.568,14.772-1.622,14.808-11.9.029-9.259-5.368-20.179-12.732-26.854C328.678,452.174,316.419,431.554,301.367,422.874Z" transform="translate(-227.657 -419.002)"/></g></g></g></g></svg>