<svg xmlns="http://www.w3.org/2000/svg" xmlns:xlink="http://www.w3.org/1999/xlink" width="357" height="357" viewBox="0 0 357 357"><defs><style>.a{fill:none;}.b{opacity:0.2;}.bs,.c,.j{opacity:0.5;}.d{fill:#ccf7ef;}.br,.bs,.bt,.ce,.e{fill:#52e5cc;}.f{mix-blend-mode:overlay;}.f,.p{isolation:isolate;}.at,.g{fill:#fff;}.ay,.g{opacity:0;}.h{fill:#dbfeff;}.ax,.h{opacity:0.167;}.i{fill:#b8feff;}.aw,.i{opacity:0.333;}.j{fill:#95fdff;}.k{fill:#71fcfe;}.av,.k{opacity:0.667;}.l{fill:#4efcfe;}.au,.l{opacity:0.833;}.m{fill:#2afbfe;}.n{fill:#778489;}.o{fill:#abbec5;}.q{clip-path:url(#a);}.r{fill:#738085;}.s{fill:#78858a;}.t{fill:#7c8a8f;}.u{fill:#818f94;}.v{fill:#859499;}.w{fill:#8a999e;}.x{fill:#8e9da3;}.y{fill:#93a2a8;}.z{fill:#97a7ad;}.aa{fill:#9bacb3;}.ab{fill:#a0b1b8;}.ac{clip-path:url(#b);}.ad{fill:#376a80;}.ae{fill:#396e85;}.af{fill:#3b7189;}.ag{fill:#3d758d;}.ah{fill:#3f7992;}.ai{fill:#417c96;}.aj{fill:#43809b;}.ak{fill:#44849f;}.al{fill:#35667c;}.am{fill:#336377;}.an{fill:#315f73;}.ao{fill:#336277;}.ap{fill:#8979cc;}.aq{fill:#498dab;}.ar{fill:#333;}.as{fill:#06bc99;}.az{fill:#fdcde7;}.ba{fill:#dad5eb;}.bb{fill:#b7dcef;}.bc{fill:#94e4f3;}.bd{fill:#70ecf6;}.be{fill:#4df3fa;}.bf{opacity:0.85;}.bg{fill:#4afcfe;opacity:0.849;}.bh,.bt{opacity:0.7;}.bi{fill:#6afcfe;opacity:0.698;}.bj{opacity:0.55;}.bk{fill:#8bfdff;opacity:0.548;}.bl,.br{opacity:0.4;}.bm{fill:#abfeff;opacity:0.397;}.bn{opacity:0.25;}.bo{fill:#cbfeff;opacity:0.246;}.bp{opacity:0.1;}.bq{fill:#ebffff;opacity:0.095;}.bu{fill:#111114;}.bv{fill:#efb185;}.bw{fill:#e6a376;}.bx{fill:#5d0ca6;}.by{fill:#43008d;}.bz{fill:#dd9569;}.ca{fill:#8c2ddf;}.cb{fill:#9a45f4;}.cc{fill:#9dbcc9;}.cd{fill:#f1b287;}.ce{opacity:0.3;}</style><clipPath id="a"><path class="a" d="M117.919,231.675A3.059,3.059,0,0,1,119.7,234.2l.011-6.124a3.062,3.062,0,0,0-1.787-2.514q-.007,3.048-.009,6.11,0-3.058.009-6.11a9.65,9.65,0,0,0-8.756-.034c0,2.03,0,4.076-.009,6.112.009-2.037,0-4.082.009-6.112a3.083,3.083,0,0,0-1.834,2.534l-.018,6.123a3.1,3.1,0,0,1,1.843-2.546A9.657,9.657,0,0,1,117.919,231.675Z" transform="translate(-107.32 -224.495)"/></clipPath><clipPath id="b"><path class="a" d="M107.338,226.065l-.018,6.11a3.083,3.083,0,0,0,1.787,2.532,9.606,9.606,0,0,0,8.751.043A3.116,3.116,0,0,0,119.7,232.2c0-2.037,0-4.078.011-6.124a3.138,3.138,0,0,1-1.85,2.557,9.654,9.654,0,0,1-8.744-.036A3.1,3.1,0,0,1,107.338,226.065Z" transform="translate(-107.32 -226.065)"/></clipPath></defs><g transform="translate(-790 -396)"><rect class="a" width="357" height="357" transform="translate(790 396)"/><g transform="translate(-8437 -769)"><g transform="translate(9246 1238)"><path class="b" d="M38.088,244.315,127.211,193.4a9.373,9.373,0,0,1,8.5.039l119.185,70c2.332,1.38,2.314,3.578-.052,4.928l-89.113,50.906a9.357,9.357,0,0,1-8.5-.041l-119.181-70C35.706,247.865,35.731,245.66,38.088,244.315Z" transform="translate(-5.41 -115.41)"/><g class="c" transform="translate(0 0)"><g transform="translate(0 51.437)"><g transform="translate(39.079 2.709)"><path class="d" d="M86.528,186.8c3.384-1.959,6.13.461,8.624,7.128L39.906,225.614c10.942-6.644,9.947-22.646,12.533-32.338,1.232-4.6,4.107-8.319,6.99-9.981,3.239-1.873,6.487-1.139,7.39,3.887,1.712,9.49,1.466,22.055,6.78,18.989S80.993,191.7,84.821,188.1A9.239,9.239,0,0,1,86.528,186.8Z" transform="translate(-39.906 -182.352)"/></g><path class="d" d="M50.291,182.209c8.349,6.937,2.593,49.433,10.963,45.231,0,0-41.03,23.51-38.421,22,3.86-2.228,8-8.474,9.1-22.025,1.523-18.655,7.24-41.867,13.895-45.706A3.626,3.626,0,0,1,50.291,182.209Z" transform="translate(-22.713 -181.161)"/></g><g transform="translate(89.293)"><path class="d" d="M89.573,159.583c8.349,6.935,2.6,49.431,10.965,45.228,0,0-41.032,23.507-38.421,22,3.857-2.23,8-8.476,9.1-22.028,1.523-18.655,7.237-41.864,13.895-45.7A3.613,3.613,0,0,1,89.573,159.583Z" transform="translate(-61.997 -158.531)"/></g></g><g transform="translate(9.231 141.015)"><g transform="translate(0 3.31)"><g transform="translate(52.063 10.934)"><path class="e" d="M97.619,226.836l-47.94,27.972L71.448,267.46l-12.295,7.1.974.566,13.28-7.663L51.631,254.8l46.962-27.4Z" transform="translate(-49.679 -226.836)"/></g><g transform="translate(84.457 17.333)"><path class="e" d="M63.931,244.984,89.1,259.611l.982-.567L65.89,244.984l25.576-14.767-.978-.566Z" transform="translate(-63.931 -229.651)"/></g><g transform="translate(0 5.383)"><path class="e" d="M26.774,247.609,52.79,262.728,118.2,224.96l-.978-.566L52.8,261.591,28.733,247.609l13.28-7.669-.978-.567Z" transform="translate(-26.774 -224.394)"/></g><g transform="translate(12.304)"><path class="e" d="M32.187,226.594l31.369,18.233,38.5-22.227-.984-.574L63.557,243.685,33.169,226.028Z" transform="translate(-32.187 -222.026)"/></g></g><g transform="translate(103.373 43.059)"><g class="f"><path class="g" d="M87.346,247.059a7.546,7.546,0,1,1-7.542-7.546A7.543,7.543,0,0,1,87.346,247.059Z" transform="translate(-72.253 -239.513)"/><path class="h" d="M85.935,246.591a6.649,6.649,0,1,1-6.644-6.651A6.645,6.645,0,0,1,85.935,246.591Z" transform="translate(-71.763 -238.969)"/><path class="i" d="M84.528,246.12a5.753,5.753,0,1,1-5.748-5.753A5.751,5.751,0,0,1,84.528,246.12Z" transform="translate(-71.274 -238.426)"/><path class="j" d="M83.121,245.651a4.857,4.857,0,1,1-4.853-4.857A4.857,4.857,0,0,1,83.121,245.651Z" transform="translate(-70.785 -237.882)"/><path class="k" d="M81.714,245.183a3.962,3.962,0,1,1-3.957-3.962A3.959,3.959,0,0,1,81.714,245.183Z" transform="translate(-70.296 -237.339)"/><path class="l" d="M80.307,244.714a3.066,3.066,0,1,1-3.062-3.066A3.064,3.064,0,0,1,80.307,244.714Z" transform="translate(-69.808 -236.795)"/><path class="m" d="M78.9,244.243a2.168,2.168,0,1,1-2.162-2.168A2.166,2.166,0,0,1,78.9,244.243Z" transform="translate(-69.317 -236.252)"/></g><g transform="translate(3.724 5.63)"><path class="e" d="M75.02,242.638c-1.5.866-1.507,2.268-.016,3.135a5.955,5.955,0,0,0,5.405-.007c1.321-.764,1.48-1.948.473-2.8a3.075,3.075,0,0,0-.452-.323,3.8,3.8,0,0,0-.557-.264A6.048,6.048,0,0,0,75.02,242.638Z" transform="translate(-73.891 -241.99)"/></g></g><g transform="translate(53.692 53.934)"><g class="f"><path class="g" d="M87.346,247.059a7.546,7.546,0,1,1-7.542-7.546A7.543,7.543,0,0,1,87.346,247.059Z" transform="translate(-72.253 -239.513)"/><path class="h" d="M85.935,246.591a6.649,6.649,0,1,1-6.644-6.651A6.645,6.645,0,0,1,85.935,246.591Z" transform="translate(-71.763 -238.969)"/><path class="i" d="M84.528,246.12a5.753,5.753,0,1,1-5.748-5.753A5.751,5.751,0,0,1,84.528,246.12Z" transform="translate(-71.274 -238.426)"/><path class="j" d="M83.121,245.651a4.857,4.857,0,1,1-4.853-4.857A4.857,4.857,0,0,1,83.121,245.651Z" transform="translate(-70.785 -237.882)"/><path class="k" d="M81.714,245.183a3.962,3.962,0,1,1-3.957-3.962A3.959,3.959,0,0,1,81.714,245.183Z" transform="translate(-70.296 -237.339)"/><path class="l" d="M80.307,244.714a3.066,3.066,0,1,1-3.062-3.066A3.064,3.064,0,0,1,80.307,244.714Z" transform="translate(-69.808 -236.795)"/><path class="m" d="M78.9,244.243a2.168,2.168,0,1,1-2.162-2.168A2.166,2.166,0,0,1,78.9,244.243Z" transform="translate(-69.317 -236.252)"/></g><g transform="translate(3.724 5.63)"><path class="e" d="M75.02,242.638c-1.5.866-1.507,2.268-.016,3.135a5.955,5.955,0,0,0,5.405-.007c1.321-.764,1.48-1.948.473-2.8a3.075,3.075,0,0,0-.452-.323,3.8,3.8,0,0,0-.557-.264A6.048,6.048,0,0,0,75.02,242.638Z" transform="translate(-73.891 -241.99)"/></g></g><g transform="translate(6.5 16.854)"><g class="f"><path class="g" d="M87.346,247.059a7.546,7.546,0,1,1-7.542-7.546A7.543,7.543,0,0,1,87.346,247.059Z" transform="translate(-72.253 -239.513)"/><path class="h" d="M85.935,246.591a6.649,6.649,0,1,1-6.644-6.651A6.645,6.645,0,0,1,85.935,246.591Z" transform="translate(-71.763 -238.969)"/><path class="i" d="M84.528,246.12a5.753,5.753,0,1,1-5.748-5.753A5.751,5.751,0,0,1,84.528,246.12Z" transform="translate(-71.274 -238.426)"/><path class="j" d="M83.121,245.651a4.857,4.857,0,1,1-4.853-4.857A4.857,4.857,0,0,1,83.121,245.651Z" transform="translate(-70.785 -237.882)"/><path class="k" d="M81.714,245.183a3.962,3.962,0,1,1-3.957-3.962A3.959,3.959,0,0,1,81.714,245.183Z" transform="translate(-70.296 -237.339)"/><path class="l" d="M80.307,244.714a3.066,3.066,0,1,1-3.062-3.066A3.064,3.064,0,0,1,80.307,244.714Z" transform="translate(-69.808 -236.795)"/><path class="m" d="M78.9,244.243a2.168,2.168,0,1,1-2.162-2.168A2.166,2.166,0,0,1,78.9,244.243Z" transform="translate(-69.317 -236.252)"/></g><g transform="translate(3.724 5.63)"><path class="e" d="M75.02,242.638c-1.5.866-1.507,2.268-.016,3.135a5.955,5.955,0,0,0,5.405-.007c1.321-.764,1.48-1.948.473-2.8a3.075,3.075,0,0,0-.452-.323,3.8,3.8,0,0,0-.557-.264A6.048,6.048,0,0,0,75.02,242.638Z" transform="translate(-73.891 -241.99)"/></g></g><g transform="translate(4.815 0)"><g class="f"><path class="g" d="M87.346,247.059a7.546,7.546,0,1,1-7.542-7.546A7.543,7.543,0,0,1,87.346,247.059Z" transform="translate(-72.253 -239.513)"/><path class="h" d="M85.935,246.591a6.649,6.649,0,1,1-6.644-6.651A6.645,6.645,0,0,1,85.935,246.591Z" transform="translate(-71.763 -238.969)"/><path class="i" d="M84.528,246.12a5.753,5.753,0,1,1-5.748-5.753A5.751,5.751,0,0,1,84.528,246.12Z" transform="translate(-71.274 -238.426)"/><path class="j" d="M83.121,245.651a4.857,4.857,0,1,1-4.853-4.857A4.857,4.857,0,0,1,83.121,245.651Z" transform="translate(-70.785 -237.882)"/><path class="k" d="M81.714,245.183a3.962,3.962,0,1,1-3.957-3.962A3.959,3.959,0,0,1,81.714,245.183Z" transform="translate(-70.296 -237.339)"/><path class="l" d="M80.307,244.714a3.066,3.066,0,1,1-3.062-3.066A3.064,3.064,0,0,1,80.307,244.714Z" transform="translate(-69.808 -236.795)"/><path class="m" d="M78.9,244.243a2.168,2.168,0,1,1-2.162-2.168A2.166,2.166,0,0,1,78.9,244.243Z" transform="translate(-69.317 -236.252)"/></g><g transform="translate(3.724 5.63)"><path class="e" d="M75.02,242.638c-1.5.866-1.507,2.268-.016,3.135a5.955,5.955,0,0,0,5.405-.007c1.321-.764,1.48-1.948.473-2.8a3.075,3.075,0,0,0-.452-.323,3.8,3.8,0,0,0-.557-.264A6.048,6.048,0,0,0,75.02,242.638Z" transform="translate(-73.891 -241.99)"/></g></g></g><g transform="translate(43.45 65.766)"><path class="n" d="M41.836,235.939l-.007,6.12,84.863-48.48.011-6.114Z" transform="translate(-41.829 -187.464)"/></g><g transform="translate(128.313 65.766)"><path class="o" d="M79.175,187.464l-.011,6.114,101.262,59.469,0-6.114Z" transform="translate(-79.164 -187.464)"/></g><g class="p" transform="translate(192.312 149.938)"><g class="q" transform="translate(0)"><g class="p" transform="translate(0 -0.006)"><path class="r" d="M107.338,227.726l-.018,6.11a3.1,3.1,0,0,1,1.843-2.532,5.945,5.945,0,0,1,.9-.423l0-6.121a7.048,7.048,0,0,0-.893.432,3.083,3.083,0,0,0-1.834,2.534Z" transform="translate(-107.32 -224.153)"/><path class="s" d="M108.529,224.9l0,6.121a7.451,7.451,0,0,1,.75-.255l.007-6.114c-.252.068-.5.155-.755.248Z" transform="translate(-105.783 -224.292)"/><path class="t" d="M108.864,224.736l-.007,6.114c.207-.057.425-.111.643-.157l.016-6.11a6.593,6.593,0,0,0-.652.152Z" transform="translate(-105.363 -224.377)"/><path class="u" d="M109.156,224.646l-.016,6.11c.211-.039.414-.075.623-.1l.011-6.119c-.209.03-.418.064-.618.111Z" transform="translate(-105.003 -224.439)"/><path class="v" d="M109.425,224.568l-.011,6.119c.2-.025.4-.048.607-.064l0-6.114c-.2.014-.407.036-.6.059Z" transform="translate(-104.654 -224.473)"/><path class="w" d="M109.686,224.529l0,6.114c.2-.018.4-.027.607-.03l.011-6.121c-.2.007-.4.02-.614.036Z" transform="translate(-104.314 -224.493)"/><path class="x" d="M109.959,224.493l-.011,6.121c.216,0,.416,0,.634,0l.016-6.114c-.211-.009-.43-.009-.639-.009Z" transform="translate(-103.975 -224.493)"/><path class="y" d="M110.243,224.5l-.016,6.114c.232.009.464.032.686.05l.016-6.112c-.227-.02-.459-.041-.686-.052Z" transform="translate(-103.619 -224.488)"/><path class="z" d="M110.545,224.52l-.016,6.112c.275.027.527.068.789.1l.016-6.1a6.934,6.934,0,0,0-.789-.114Z" transform="translate(-103.235 -224.459)"/><path class="aa" d="M110.892,224.57l-.016,6.1a10.674,10.674,0,0,1,1.166.309l.014-6.119a8.381,8.381,0,0,0-1.164-.293Z" transform="translate(-102.793 -224.395)"/><path class="ab" d="M111.4,224.7l-.014,6.119a6.969,6.969,0,0,1,1.35.6c.023.014.052.027.075.043l.007-6.119a.24.24,0,0,0-.073-.036,6.585,6.585,0,0,0-1.346-.6Z" transform="translate(-102.14 -224.231)"/><path class="aa" d="M112.023,224.981l-.007,6.119a4.5,4.5,0,0,1,.78.586l.014-6.117a4.486,4.486,0,0,0-.786-.589Z" transform="translate(-101.342 -223.872)"/><path class="z" d="M112.373,225.24l-.014,6.117a4.4,4.4,0,0,1,.38.4l.007-6.11a2.962,2.962,0,0,0-.373-.409Z" transform="translate(-100.905 -223.542)"/><path class="y" d="M112.533,225.42l-.007,6.11c.1.136.173.257.25.377l.007-6.114a2.482,2.482,0,0,0-.25-.373Z" transform="translate(-100.693 -223.313)"/><path class="x" d="M112.643,225.584l-.007,6.114a3.592,3.592,0,0,1,.161.355l.009-6.117a1.973,1.973,0,0,0-.164-.352Z" transform="translate(-100.553 -223.104)"/><path class="w" d="M112.716,225.739l-.009,6.117a1.649,1.649,0,0,1,.093.341l.014-6.105a2.3,2.3,0,0,0-.1-.352Z" transform="translate(-100.462 -222.907)"/><path class="v" d="M112.762,225.894,112.748,232a1.441,1.441,0,0,1,.045.366l.011-6.121c-.009-.118-.025-.234-.043-.35Z" transform="translate(-100.41 -222.709)"/><path class="u" d="M112.779,226.048l-.011,6.121v.055l.011-6.124v-.052Z" transform="translate(-100.385 -222.513)"/></g></g></g><g class="p" transform="translate(192.312 153.506)"><g class="ac" transform="translate(0)"><g class="p"><path class="ad" d="M107.338,226.065l-.018,6.11a.111.111,0,0,0,.011.064l.007-6.117v-.057Z" transform="translate(-107.32 -226.065)"/><path class="ae" d="M107.332,226.09l-.007,6.117a1.956,1.956,0,0,0,.03.361l.016-6.121a1.546,1.546,0,0,1-.039-.357Z" transform="translate(-107.314 -226.033)"/><path class="af" d="M107.354,226.247l-.016,6.121c.03.109.064.225.1.341l.011-6.114a2.3,2.3,0,0,1-.1-.348Z" transform="translate(-107.297 -225.833)"/><path class="ag" d="M107.4,226.4l-.011,6.114a2.35,2.35,0,0,0,.159.355l.016-6.114a2.257,2.257,0,0,1-.164-.355Z" transform="translate(-107.238 -225.639)"/><path class="ah" d="M107.47,226.556l-.016,6.114a2.991,2.991,0,0,0,.245.371l.014-6.117a2.777,2.777,0,0,1-.243-.368Z" transform="translate(-107.149 -225.44)"/><path class="ai" d="M107.576,226.718l-.014,6.117a3.489,3.489,0,0,0,.391.418l.007-6.114a4.544,4.544,0,0,1-.384-.421Z" transform="translate(-107.012 -225.234)"/><path class="aj" d="M107.741,226.9l-.007,6.114a4.576,4.576,0,0,0,.777.577l.011-6.112a4.82,4.82,0,0,1-.782-.58Z" transform="translate(-106.793 -224.998)"/><path class="ak" d="M108.087,227.158l-.011,6.112a.393.393,0,0,0,.068.045,7.677,7.677,0,0,0,1.352.607l.016-6.121a8.239,8.239,0,0,1-1.355-.593c-.027-.023-.052-.036-.07-.05Z" transform="translate(-106.358 -224.674)"/><path class="aj" d="M108.717,227.441l-.016,6.121a9.187,9.187,0,0,0,1.177.289l.007-6.114a7.845,7.845,0,0,1-1.168-.3Z" transform="translate(-105.562 -224.313)"/><path class="ai" d="M109.226,227.571l-.007,6.114a6.338,6.338,0,0,0,.789.114l.009-6.112c-.266-.03-.534-.068-.791-.116Z" transform="translate(-104.902 -224.148)"/><path class="ah" d="M109.575,227.622l-.009,6.112c.23.018.455.05.686.052l.007-6.112c-.234-.014-.464-.027-.684-.052Z" transform="translate(-104.461 -224.083)"/><path class="ag" d="M109.875,227.645l-.007,6.112c.207.014.418.014.627.009l.016-6.119c-.214,0-.423,0-.636,0Z" transform="translate(-104.076 -224.054)"/><path class="af" d="M110.16,227.662l-.016,6.119c.2,0,.407-.016.6-.032l.014-6.117c-.193.014-.4.03-.6.03Z" transform="translate(-103.725 -224.069)"/><path class="ae" d="M110.424,227.669l-.014,6.117c.2-.018.409-.041.607-.068l.009-6.112c-.191.03-.4.048-.6.064Z" transform="translate(-103.386 -224.105)"/><path class="ad" d="M110.686,227.662l-.009,6.112c.207-.025.411-.064.621-.1V227.56c-.2.036-.4.073-.611.1Z" transform="translate(-103.046 -224.162)"/><path class="al" d="M110.95,227.646v6.119c.2-.05.425-.1.639-.157l.016-6.117c-.216.059-.434.109-.655.155Z" transform="translate(-102.699 -224.248)"/><path class="am" d="M111.247,227.635l-.016,6.117c.259-.077.511-.157.755-.25L112,227.38a7.4,7.4,0,0,1-.757.255Z" transform="translate(-102.341 -224.391)"/><path class="an" d="M111.581,229.046l-.018,6.121a6.743,6.743,0,0,0,.893-.425,3.116,3.116,0,0,0,1.846-2.548l.011-6.124a3.138,3.138,0,0,1-1.85,2.557,6.826,6.826,0,0,1-.882.418Z" transform="translate(-101.919 -226.057)"/></g></g></g><g transform="translate(144.712 125.235)"><path class="ao" d="M86.393,262.1l-.015,6.12,84.863-48.478,0-6.114Z" transform="translate(-86.379 -213.627)"/></g><g transform="translate(192.327 149.938)"><path class="ap" d="M109.166,225.529c-2.432,1.387-2.455,3.653-.055,5.069a9.654,9.654,0,0,0,8.744.036c2.434-1.391,2.471-3.666.064-5.071A9.645,9.645,0,0,0,109.166,225.529Z" transform="translate(-107.327 -224.495)"/></g><g transform="translate(43.45 114.241)"><path class="aq" d="M41.836,208.791l-.007,6.12,101.262,59.467.015-6.12Z" transform="translate(-41.829 -208.791)"/></g><g transform="translate(43.457 65.766)"><path class="ar" d="M41.832,235.939,143.1,295.406l84.853-48.472L126.7,187.464Z" transform="translate(-41.832 -187.464)"/></g><g transform="translate(67.488 80.326)"><path class="as" d="M52.4,229.831l75.117,44.107,62.944-35.956L115.354,193.87Z" transform="translate(-52.404 -193.87)"/></g><g transform="translate(73.241 83.654)"><path class="e" d="M54.935,228.3l68.873,40.44,57.71-32.967-68.868-40.445Z" transform="translate(-54.935 -195.334)"/></g><g transform="translate(77.262 85.979)"><path class="d" d="M56.7,227.238l64.509,37.88,54.055-30.879-64.5-37.882Z" transform="translate(-56.705 -196.357)"/></g><path class="e" d="M36.732,209.262a.253.253,0,0,1,.016.052,2.173,2.173,0,0,0,.291.568c.018.036.036.059.059.1a3.063,3.063,0,0,0,.477.525,5.255,5.255,0,0,0,.436.336c.12.082.223.17.348.25l119.2,70-.011,6.112-119.19-70c-.023-.014-.045-.03-.068-.041h0c-.109-.064-.186-.139-.284-.207a4.465,4.465,0,0,1-.441-.332l-.032-.032a2.9,2.9,0,0,1-.375-.4.674.674,0,0,0-.136-.2c-.034-.061-.077-.116-.107-.166a2.951,2.951,0,0,1-.159-.343c0-.018,0-.034-.009-.05a.166.166,0,0,1-.02-.068,1.275,1.275,0,0,1-.061-.221,2.036,2.036,0,0,1-.039-.348l0-6.108v-.057A2.068,2.068,0,0,0,36.732,209.262Z" transform="translate(-5.006 -94.743)"/><path class="d" d="M127.539,185.715a9.352,9.352,0,0,1,8.492.041l119.192,70c2.334,1.368,2.3,3.575-.059,4.917l-89.109,50.918a9.406,9.406,0,0,1-8.5-.041l-119.2-70c-2.328-1.373-2.309-3.578.057-4.926ZM149.73,298.906l84.854-48.474L133.328,190.963,48.46,239.439,149.73,298.906Zm58.13-17.632c2.434-1.391,2.471-3.666.064-5.071a9.65,9.65,0,0,0-8.756-.034c-2.43,1.387-2.453,3.653-.052,5.069a9.654,9.654,0,0,0,8.744.036Z" transform="translate(-5.004 -125.198)"/><path class="e" d="M89.833,270.385a6.369,6.369,0,0,0,1.18.518c.15.059.3.1.452.148.2.052.4.109.6.145.243.059.489.1.732.134.061.009.125.016.182.025.33.036.664.052,1,.064h.177a9.166,9.166,0,0,0,1-.057c.055,0,.1-.007.15-.007.311-.039.634-.1.955-.164l.191-.048c.28-.068.541-.15.8-.241.057-.02.114-.034.173-.055a8.047,8.047,0,0,0,.918-.423l89.109-50.918a2.99,2.99,0,0,0,1.793-2.462c-.009,2.032-.011,4.082-.011,6.114a3,3,0,0,1-1.789,2.471l-89.118,50.9a6.144,6.144,0,0,1-.871.414.2.2,0,0,1-.045.014c-.05.02-.1.03-.159.055-.17.059-.341.125-.523.175a2.252,2.252,0,0,1-.3.066,1,1,0,0,1-.182.043c-.045.011-.1.032-.155.041-.189.045-.391.07-.589.1-.07.014-.152.02-.216.03a1.029,1.029,0,0,0-.15.011,1.484,1.484,0,0,1-.216.025c-.2.016-.4.027-.6.032a1.361,1.361,0,0,1-.189-.007,1.1,1.1,0,0,1-.15,0c-.089,0-.184.007-.275,0-.225-.018-.441-.025-.668-.05-.023,0-.05-.009-.073-.009-.064-.011-.114-.014-.168-.025-.173-.018-.348-.041-.525-.075-.075-.011-.136-.039-.211-.057-.2-.041-.4-.1-.6-.148a3.18,3.18,0,0,1-.323-.084.98.98,0,0,1-.141-.066,6.519,6.519,0,0,1-1.175-.521Z" transform="translate(62.716 -84.039)"/><g transform="translate(192.327 150.566)"><path class="at" d="M109.166,225.8c-2.432,1.389-2.455,3.655-.055,5.069a9.627,9.627,0,0,0,8.744.034c2.434-1.387,2.471-3.666.064-5.069A9.666,9.666,0,0,0,109.166,225.8Z" transform="translate(-107.327 -224.772)"/></g><g transform="translate(82.039 18.009)"><path class="d" d="M58.806,225.972l59.324,34.835,49.711-28.4-59.319-34.835Z" transform="translate(-58.806 -126.839)"/><g class="au" transform="translate(0 58.945)"><path class="d" d="M58.806,220.785,118.13,255.62l49.711-28.4-59.319-34.835Z" transform="translate(-58.806 -192.387)"/></g><g class="av" transform="translate(0 47.156)"><path class="d" d="M58.806,215.6l59.324,34.835,49.711-28.4L108.521,187.2Z" transform="translate(-58.806 -187.2)"/></g><g class="c" transform="translate(0 35.367)"><path class="d" d="M58.806,210.412l59.324,34.835,49.711-28.4-59.319-34.835Z" transform="translate(-58.806 -182.014)"/></g><g class="aw" transform="translate(0 23.578)"><path class="d" d="M58.806,205.226l59.324,34.835,49.711-28.4-59.319-34.835Z" transform="translate(-58.806 -176.827)"/></g><g class="ax" transform="translate(0 11.789)"><path class="d" d="M58.806,200.04l59.324,34.835,49.711-28.4-59.319-34.835Z" transform="translate(-58.806 -171.641)"/></g><g class="ay"><path class="d" d="M58.806,194.853l59.324,34.834,49.711-28.4-59.319-34.836Z" transform="translate(-58.806 -166.454)"/></g></g><g transform="translate(154.009 72.572)"><path class="az" d="M96.117,193.821l-2.439,2.032a.375.375,0,0,1-.5,0l-2.462-2.037a.884.884,0,0,1,0-1.23l2.441-2.03a.363.363,0,0,1,.5,0l2.459,2.03A.892.892,0,0,1,96.117,193.821Z" transform="translate(-90.469 -190.458)"/><g class="au" transform="translate(0 2.5)"><path class="az" d="M96.117,194.922l-2.439,2.03a.372.372,0,0,1-.5,0l-2.462-2.034a.887.887,0,0,1,0-1.232l2.441-2.032a.367.367,0,0,1,.5,0l2.459,2.034A.889.889,0,0,1,96.117,194.922Z" transform="translate(-90.469 -191.558)"/></g><g class="av" transform="translate(0 5.002)"><path class="az" d="M96.117,196.021l-2.439,2.03a.372.372,0,0,1-.5,0l-2.462-2.034a.887.887,0,0,1,0-1.232l2.441-2.032a.372.372,0,0,1,.5,0l2.459,2.034A.889.889,0,0,1,96.117,196.021Z" transform="translate(-90.469 -192.659)"/></g><g class="c" transform="translate(0 7.502)"><path class="az" d="M96.117,197.121l-2.439,2.03a.37.37,0,0,1-.5,0l-2.462-2.034a.887.887,0,0,1,0-1.232l2.441-2.032a.372.372,0,0,1,.5,0l2.459,2.034A.889.889,0,0,1,96.117,197.121Z" transform="translate(-90.469 -193.759)"/></g><g class="aw" transform="translate(0 10.002)"><path class="az" d="M96.117,198.221l-2.439,2.03a.37.37,0,0,1-.5,0l-2.462-2.034a.887.887,0,0,1,0-1.232l2.441-2.032a.372.372,0,0,1,.5,0l2.459,2.034A.889.889,0,0,1,96.117,198.221Z" transform="translate(-90.469 -194.859)"/></g><g class="ax" transform="translate(0 12.503)"><path class="az" d="M96.117,199.321l-2.439,2.03a.37.37,0,0,1-.5,0l-2.462-2.034a.887.887,0,0,1,0-1.232l2.441-2.032a.372.372,0,0,1,.5,0l2.459,2.034A.889.889,0,0,1,96.117,199.321Z" transform="translate(-90.469 -195.959)"/></g><g class="ay" transform="translate(0 15.003)"><path class="az" d="M96.117,200.421l-2.439,2.03a.37.37,0,0,1-.5,0l-2.462-2.034a.887.887,0,0,1,0-1.232l2.441-2.032a.372.372,0,0,1,.5,0l2.459,2.034A.889.889,0,0,1,96.117,200.421Z" transform="translate(-90.469 -197.059)"/></g><g class="ax" transform="translate(0 12.503)"><path class="ba" d="M96.117,199.321l-2.439,2.03a.37.37,0,0,1-.5,0l-2.462-2.034a.887.887,0,0,1,0-1.232l2.441-2.032a.372.372,0,0,1,.5,0l2.459,2.034A.889.889,0,0,1,96.117,199.321Z" transform="translate(-90.469 -195.959)"/></g><g class="aw" transform="translate(0 10.002)"><path class="bb" d="M96.117,198.221l-2.439,2.03a.37.37,0,0,1-.5,0l-2.462-2.034a.887.887,0,0,1,0-1.232l2.441-2.032a.372.372,0,0,1,.5,0l2.459,2.034A.889.889,0,0,1,96.117,198.221Z" transform="translate(-90.469 -194.859)"/></g><g class="c" transform="translate(0 7.502)"><path class="bc" d="M96.117,197.121l-2.439,2.03a.37.37,0,0,1-.5,0l-2.462-2.034a.887.887,0,0,1,0-1.232l2.441-2.032a.372.372,0,0,1,.5,0l2.459,2.034A.889.889,0,0,1,96.117,197.121Z" transform="translate(-90.469 -193.759)"/></g><g class="av" transform="translate(0 5.002)"><path class="bd" d="M96.117,196.021l-2.439,2.03a.372.372,0,0,1-.5,0l-2.462-2.034a.887.887,0,0,1,0-1.232l2.441-2.032a.372.372,0,0,1,.5,0l2.459,2.034A.889.889,0,0,1,96.117,196.021Z" transform="translate(-90.469 -192.659)"/></g><g class="au" transform="translate(0 2.5)"><path class="be" d="M96.117,194.922l-2.439,2.03a.372.372,0,0,1-.5,0l-2.462-2.034a.887.887,0,0,1,0-1.232l2.441-2.032a.367.367,0,0,1,.5,0l2.459,2.034A.889.889,0,0,1,96.117,194.922Z" transform="translate(-90.469 -191.558)"/></g><path class="m" d="M96.117,193.821l-2.439,2.032a.375.375,0,0,1-.5,0l-2.462-2.037a.884.884,0,0,1,0-1.23l2.441-2.03a.363.363,0,0,1,.5,0l2.459,2.03A.892.892,0,0,1,96.117,193.821Z" transform="translate(-90.469 -190.458)"/><g class="bf" transform="translate(0 2.466)"><path class="bg" d="M96.117,194.9l-2.439,2.032a.37.37,0,0,1-.5,0L90.719,194.9a.884.884,0,0,1,0-1.23l2.441-2.032a.367.367,0,0,1,.5,0l2.459,2.032A.889.889,0,0,1,96.117,194.9Z" transform="translate(-90.469 -191.543)"/></g><g class="bh" transform="translate(0 4.93)"><path class="bi" d="M96.117,195.99l-2.439,2.03a.372.372,0,0,1-.5,0l-2.462-2.034a.887.887,0,0,1,0-1.232l2.441-2.03a.365.365,0,0,1,.5,0l2.459,2.034A.889.889,0,0,1,96.117,195.99Z" transform="translate(-90.469 -192.627)"/></g><g class="bj" transform="translate(0 7.396)"><path class="bk" d="M96.117,197.074l-2.439,2.032a.37.37,0,0,1-.5,0l-2.462-2.034a.884.884,0,0,1,0-1.23l2.441-2.032a.37.37,0,0,1,.5,0l2.459,2.034A.889.889,0,0,1,96.117,197.074Z" transform="translate(-90.469 -193.712)"/></g><g class="bl" transform="translate(0 9.862)"><path class="bm" d="M96.117,198.159l-2.439,2.03a.37.37,0,0,1-.5,0l-2.462-2.034a.884.884,0,0,1,0-1.23l2.439-2.032a.373.373,0,0,1,.5,0l2.459,2.034A.889.889,0,0,1,96.117,198.159Z" transform="translate(-90.469 -194.797)"/></g><g class="bn" transform="translate(0 12.326)"><path class="bo" d="M96.117,199.243l-2.439,2.03a.367.367,0,0,1-.5,0l-2.462-2.034a.884.884,0,0,1,0-1.23l2.439-2.032a.373.373,0,0,1,.5,0l2.459,2.037A.886.886,0,0,1,96.117,199.243Z" transform="translate(-90.469 -195.881)"/></g><g class="bp" transform="translate(0 14.792)"><path class="bq" d="M96.117,200.328l-2.439,2.03a.37.37,0,0,1-.5,0l-2.462-2.034a.884.884,0,0,1,0-1.23l2.439-2.032a.375.375,0,0,1,.5,0l2.459,2.037A.889.889,0,0,1,96.117,200.328Z" transform="translate(-90.469 -196.966)"/></g></g><g transform="translate(78.967 19.425)"><g class="p"><g transform="translate(0 31.3)"><path class="e" d="M57.455,180.847l.019,6.49,63.365,36.823-.019-6.49Z" transform="translate(-57.455 -180.847)"/></g><g transform="translate(63.364 36.823)"><path class="as" d="M85.331,214.577l.019,6.49,54.214-31.3-.019-6.489Z" transform="translate(-85.331 -183.277)"/></g><path class="d" d="M57.455,198.377,120.819,235.2l54.214-31.3-63.366-36.823Z" transform="translate(-57.455 -167.077)"/></g></g><g transform="translate(187.923 42.109)"><path class="b" d="M167.77,237.458c9.34,5.389,9.385,14.131.111,19.525s-24.378,5.394-33.713,0-9.39-14.136-.107-19.525S158.432,232.059,167.77,237.458Z" transform="translate(-88.61 -111.858)"/><path class="br" d="M131.829,216.532s-17.891-8.424-20.359-27.592l-1.287,13.4s0,15.547,21.966,23.951Z" transform="translate(-110.183 -168.467)"/><path class="br" d="M129.111,183.578l-.018,4.63s11.865-4.075,33.4-2.23v-4A81.86,81.86,0,0,0,129.111,183.578Z" transform="translate(-86.11 -178.598)"/><path class="bs" d="M110.656,231.454c2.966-5.73,10.433-14.156,18.457-18.493,8.24-4.455,18.846-8.962,29.242-10.24l-.13-17.9c-10.4,1.275-20.271,4.114-28.51,8.571C112.891,202.487,108.629,215.463,110.656,231.454Z" transform="translate(-110.175 -173.708)"/><path class="bs" d="M188.831,232.764c4.171-15.538-.284-28.624-16.734-38.816a77.13,77.13,0,0,0-20.487-8.615L151,204.9a77.055,77.055,0,0,1,20.489,8.617C179.386,218.405,186.183,226.77,188.831,232.764Z" transform="translate(-58.221 -173.059)"/><path class="bs" d="M167.831,205.481l.6-19.568a107.948,107.948,0,0,0-34.263-.716l-.609,19.566A107.862,107.862,0,0,1,167.831,205.481Z" transform="translate(-80.423 -174.55)"/><path class="bs" d="M189.228,198.3c-3.446,7.028-13.056,17.4-22.9,22.985a89.828,89.828,0,0,1-15.086,6.7l.191,23.532a89.647,89.647,0,0,0,15.086-6.7C187.178,233.112,190.8,216.253,189.228,198.3Z" transform="translate(-57.918 -156.548)"/><path class="bt" d="M136.952,189.6s-16.091,4.376-23.473,13.8v-8.9s6.146-6.274,23.473-12.818Z" transform="translate(-105.987 -177.709)"/><path class="bt" d="M147.618,179.933V188.6s16.666.627,37.146,14.515V192.207S172.03,183.438,147.618,179.933Z" transform="translate(-62.528 -179.933)"/><g transform="translate(24.229 16.611)"><path class="bu" d="M144.232,241.157s1.909,3.059-.741,3.791-1.853-.927-7.619.53-5.092-1.789-4.96-2.455,2.637-1.589,3.9-1.918,6.292-1.491,6.292-1.491l3.075.564Z" transform="translate(-108.142 -120.569)"/><g transform="translate(20.959)"><path class="bv" d="M136.891,196.585a27.079,27.079,0,0,0-.877-4.776c-.427-.764-2.159-4.032-5.105-4.539-1.6-.275-.7,1.4.771,3.287a3.378,3.378,0,0,1,1.146,3.159,12.264,12.264,0,0,0,.5,4.28C133.624,198.933,136.891,196.585,136.891,196.585Z" transform="translate(-130.063 -187.241)"/><path class="bw" d="M133.227,197.777c-.3-.936-.461-2.907-1.239-3.987-.914-1.3.368-2.428-.316-3.28-1.141-1.466-1.921-2.855-1.478-3.232.791,1.18,2.7.807,3.707,4.355a23.48,23.48,0,0,1,.409,6.087C133.554,197.973,133.343,198.141,133.227,197.777Z" transform="translate(-130.057 -187.194)"/><path class="bv" d="M134.247,195.792s-2.787-3.6-3.471-4.816-.657-2.355-.325-2.257S133,192.3,133.977,191.2C134.5,190.614,133.968,195.183,134.247,195.792Z" transform="translate(-129.857 -185.368)"/><path class="bx" d="M160.361,209.94s-.343,5.042-6.712,3.289-17.843-6.424-19.312-9.492-2.962-11.329-2.962-11.329,3.1,1.03,4.262-1.5l5.039,10.233S160.682,206.424,160.361,209.94Z" transform="translate(-128.393 -182.566)"/><path class="bx" d="M159,209.94c.321-3.516-19.684-8.794-19.684-8.794l-5.039-10.233a2.745,2.745,0,0,1-1.839,1.575c.53,2.619,1.573,7.312,2.6,9.46,1.464,3.073,12.94,7.742,19.312,9.5a6.9,6.9,0,0,0,4.151.089A4.422,4.422,0,0,0,159,209.94Z" transform="translate(-127.035 -182.566)"/></g><path class="bu" d="M140.669,235.23s-2.4.364-1.816,1.741,3.33,3.485,3.689,4.355,2.614,3.987,3.339,3.694,2.6.145,2.391-3.4S143.851,235.089,140.669,235.23Z" transform="translate(-98.031 -126.157)"/><path class="bx" d="M148.783,214.647s.041,20.582.041,22.9,2.591,20.582,1.034,28.556c0,0-4.489,4.505-8.458,0,0,0-1.266-22.86-2.418-28.017s-.764-20.946-.764-20.946Z" transform="translate(-98.803 -152.353)"/><path class="bx" d="M146.573,217.574s-1.03,13.288-2.082,26.469c0,0-.661,26.156-1.282,29.922,0,0-8.44,2.1-9.274-1.882,0,0,.216-23.019,0-27.829s-.711-18.232,1.2-25.974C137.024,210.537,146.573,217.574,146.573,217.574Z" transform="translate(-104.459 -152.354)"/><path class="by" d="M140.91,270.2c.62-3.766,1.282-29.922,1.282-29.922.711-8.876,1.4-17.786,1.78-22.673l-5.212,1.28s-3.755,9.858-3.182,24.646c.448,11.445.63,22.7.693,27.215A21.091,21.091,0,0,0,140.91,270.2Z" transform="translate(-102.16 -148.588)"/><path class="by" d="M146.8,266.017c1.557-7.974-1.034-26.237-1.034-28.556,0-2.2-.036-20.971-.041-22.748L141.2,218.2s-1.443,14.715,0,23.1c1.3,7.626.466,22.469,1.1,26.726A7.2,7.2,0,0,0,146.8,266.017Z" transform="translate(-95.743 -152.269)"/><path class="by" d="M155.654,198.515s4.041,2.021,1.75,8.885-3.9,11.306-3.764,13.868,1.073,11.174,1.616,12.929c0,0,.671,5.655-12.254,9.019,0,0-10.642,1.08-8.892-5.921s2.428-18.314,2.152-21.012-1.878-8.071,4.853-11.708S151.353,198.244,155.654,198.515Z" transform="translate(-104.2 -172.913)"/><path class="bx" d="M152.676,198.633c-3.166.777-6.424,2.989-11.561,5.767-6.73,3.637-5.114,9.017-4.853,11.708s-.4,14.006-2.153,21.012c-1.4,5.621,5.167,6.033,7.817,5.98C153.808,234.856,152.755,213.467,152.676,198.633Z" transform="translate(-104.2 -172.739)"/><path class="bv" d="M145.75,197.3s-.461,3.869.861,6.292c1.207,2.193-7.9,4.191-8.11,2.157a8.732,8.732,0,0,0-.475-7.485C136.871,196.195,145.75,197.3,145.75,197.3Z" transform="translate(-99.099 -174.815)"/><path class="bz" d="M145.966,203.094a11.4,11.4,0,0,1-.916-5.6l-6.655,3.294.009.018c.241.057,4.732,1.193,5.7,4.421C145.473,204.665,146.405,203.892,145.966,203.094Z" transform="translate(-98.498 -174.192)"/><path class="bv" d="M137.8,193.4a16.578,16.578,0,0,0-1.127,6.526c.293,3.248-.186,3.91.014,5.353a3.568,3.568,0,0,0,.736,2.137c1.009.966,3.073,1.323,5.883.3,3.391-1.239,6.953-5.9,5.51-10.088S142.907,189.982,137.8,193.4Z" transform="translate(-100.739 -181.174)"/><path class="bw" d="M148.407,202.143c-1.359-3.769-4.737-8.292-4.707-8.533a10.221,10.221,0,0,0-2.375-1.6,7.594,7.594,0,0,0-3.782,1.377,19.045,19.045,0,0,0-.7,2.259c.807.9,2.459,1.93,2.7,2.7a9.83,9.83,0,0,1-.28,5.751c-.541,1.207,1.634,2.978,1.177,4.048a.324.324,0,0,0-.014.145,9.531,9.531,0,0,0,2.623-.589A9.826,9.826,0,0,0,148.407,202.143Z" transform="translate(-100.481 -181.167)"/><path class="ca" d="M135.649,191.049c-1.087-.666,2.184,5.2,5.146,6.651,1.78.871,1.621,3.737,1.537,4.276s-.614,2.953-.391,3.257c.416.6,1.812-1.259,2.478-1.132,1.673.325,1.021,1.9-.507,3.544-1.63,1.748,2.655,2.468,4.639,1.021,1.048-.764,1.443-1.225,2.823-3.978,2.012-4.005,2.566-9.949-2.628-11.4C143.773,191.906,138.62,192.884,135.649,191.049Z" transform="translate(-102.264 -182.46)"/><path class="cb" d="M148.439,208.637c1.048-.764,1.443-1.225,2.823-3.978,2.012-4.005,2.7-8.812-2.041-11.383s-8.249.13-13.683-2.255a15.892,15.892,0,0,0,9.372,6.219c2.5.48,2.753,1.475,2.646,4.178-.1,2.616.564,6.026-3.807,7.494C145.371,210.085,147.662,209.2,148.439,208.637Z" transform="translate(-102.153 -182.431)"/><path class="cc" d="M140.143,201.761l-3.107,1.989s9.367,3.157,12.067-1.373a2.63,2.63,0,0,0-1.689-3.191S147.1,202.871,140.143,201.761Z" transform="translate(-100.228 -172.035)"/><g transform="translate(0 23.982)"><path class="cd" d="M128.008,203.438s-2.291-2.621-2.207-3.516-1.137-1.287-1.132-.218a5.148,5.148,0,0,0,.586,2.128s-3.071-2.7-2.5-3.8-2.539,1.975-1.8,3.844,1.189,4.06,6.21,4.737A3.849,3.849,0,0,0,128.008,203.438Z" transform="translate(-120.842 -197.792)"/><path class="bx" d="M155.749,205.041s1.943,4.466-4.289,5.812-16.888,3.1-19.521,1.137-9.215-8.281-9.215-8.281,3.039-.927,2.907-3.605l10.056,6.233S154.439,201.893,155.749,205.041Z" transform="translate(-118.447 -194.848)"/><path class="bx" d="M154.295,205.041c-1.309-3.148-20.062,1.3-20.062,1.3L124.177,200.1a2.97,2.97,0,0,1-.311,1.514c3.1,2.375,8.892,6.721,10.465,7.228,1.921.616,16.741-1.709,20.243-2.273A4.3,4.3,0,0,0,154.295,205.041Z" transform="translate(-116.993 -194.848)"/></g></g><path class="bs" d="M110.886,198.3c-2.53,20.128,1.782,36.1,22.8,47.733a95.063,95.063,0,0,0,20.43,8.174V230.675a95.067,95.067,0,0,1-20.43-8.176C123.6,216.919,114.434,205.406,110.886,198.3Z" transform="translate(-110.115 -156.548)"/><path class="ce" d="M170.771,235.843V212.27a139.709,139.709,0,0,1-39.391,2.539v23.519A139.746,139.746,0,0,0,170.771,235.843Z" transform="translate(-83.199 -138.768)"/></g></g></g></g></svg>