<svg xmlns="http://www.w3.org/2000/svg" width="357" height="357" viewBox="0 0 357 357"><defs><style>.a{fill:none;}.b{opacity:0.2;}.ae,.c,.w,.x,.y{fill:#52e5cc;}.d{fill:#96aac9;}.e{fill:#06bc99;}.f{isolation:isolate;}.g{fill:#00d8ae;}.h{fill:#f7f7f7;}.ad,.i,.y{opacity:0.5;}.j{fill:#ccf7ef;}.k,.m,.o,.p,.r,.t,.v{fill:#fff;}.k{opacity:0.6;}.l{opacity:0.833;}.m,.n{opacity:0.667;}.o{opacity:0.733;}.p{opacity:0.8;}.q{opacity:0.333;}.r{opacity:0.867;}.s{opacity:0.167;}.t{opacity:0.933;}.u{opacity:0;}.w{opacity:0.7;}.x{opacity:0.4;}.z{fill:#6afce5;}.aa{opacity:0.1;}.ab{fill:#53d5ea;}.ac,.ae{opacity:0.3;}.ad{fill:#d4fcf4;}.af{fill:#2afbfe;}.ag{fill:#460689;}.ah{fill:#efb185;}.ai{fill:#111114;}.aj{fill:#43008d;}.ak{fill:#37007f;}.al{fill:#5d0ca6;}.am{fill:#feffff;}.an{fill:#dd9569;}.ao{fill:#f2b78f;}.ap{fill:#e6a376;}.aq{fill:#9a45f4;}.ar{fill:#8c2ddf;}.as{fill:#b4b9bc;}.at{fill:#7d8183;}.au{fill:#e3e5e5;}.av{fill:#bdbbbb;}.aw{fill:#d2d0d0;}.ax{fill:#d5dfe6;}.ay{fill:#e9f0f4;}.az{fill:#e8a476;}.ba{fill:#db9669;}.bb{fill:#f1b287;}</style></defs><g transform="translate(-219 -396)"><rect class="a" width="357" height="357" transform="translate(219 396)"/><g transform="translate(-109.963 45.086)"><g class="b" transform="translate(394.906 545.096)"><path d="M577.277,459.4c42.212,24.378,42.433,63.887.512,88.247-41.946,24.384-110.151,24.384-152.373,0s-42.449-63.881-.5-88.259C466.844,435.021,535.059,435.021,577.277,459.4Z" transform="translate(-393.604 -441.113)"/></g><g transform="translate(411.251 512.891)"><g transform="translate(0.074)"><path class="c" d="M565.057,447.014c38.16,22.026,38.366,57.74.448,79.775s-99.576,22.032-137.733,0-38.36-57.749-.452-79.775S526.9,424.979,565.057,447.014Z" transform="translate(-399.021 -430.487)"/></g><g transform="translate(19.083 9.043)"><path class="d" d="M538.916,446.713c-14.782-8.538-34.317-13.242-55.009-13.242s-40.182,4.7-54.873,13.242c-15.334,8.914-23.763,20.992-23.742,34.017,0,.294.006.6.021.891.394,12.757,8.911,24.563,24.072,33.326,14.785,8.529,34.323,13.236,55.009,13.236s40.182-4.707,54.879-13.242c14.934-8.681,23.317-20.371,23.72-33.01.012-.33.015-.664.015-1C562.994,467.824,554.438,455.676,538.916,446.713Zm16.134,36.129c.015,10.063-7.01,19.7-19.777,27.112-13.994,8.135-32.419,12.2-50.878,12.2s-36.926-4.064-51.023-12.206c-12.957-7.477-20.1-17.192-20.114-27.333,0-.336.006-.667.015-.994-.009-.3-.015-.6-.015-.9-.015-10.066,7-19.7,19.777-27.121,14-8.132,32.422-12.194,50.872-12.194s36.938,4.068,51.026,12.206c12.957,7.477,20.1,17.186,20.116,27.333,0,.312-.009.628-.021.952v.018C555.041,482.227,555.05,482.533,555.05,482.842Z" transform="translate(-405.293 -433.471)"/><g transform="translate(0 1.906)"><path class="e" d="M562.994,480.653c-.394-12.757-8.911-24.563-24.078-33.316C524.134,438.8,504.6,434.1,483.907,434.1s-40.182,4.7-54.873,13.242c-14.934,8.678-23.32,20.365-23.72,33-.015.339-.021.67-.021,1.009.021,13.106,8.575,25.257,24.093,34.214,14.785,8.532,34.323,13.239,55.009,13.239s40.182-4.707,54.879-13.242c15.328-8.911,23.757-20.986,23.735-34.01C563.009,481.256,563.006,480.959,562.994,480.653Zm-149.721-.309c.44-9.708,7.417-18.944,19.762-26.118,14-8.138,32.422-12.2,50.872-12.2s36.938,4.068,51.026,12.206c12.551,7.241,19.653,16.582,20.1,26.384v.018c.012.315.021.621.021.931.015,10.063-7.01,19.7-19.777,27.112-13.994,8.135-32.419,12.2-50.878,12.2s-36.926-4.065-51.023-12.206c-12.957-7.477-20.1-17.192-20.114-27.333C413.258,481,413.264,480.671,413.273,480.343Z" transform="translate(-405.293 -434.1)"/></g></g><g transform="translate(0 56.135)"><g class="f"><g class="f"><path class="g" d="M593.858,449.563l-.07,23.775c-.049,14.346-9.478,28.67-28.309,39.615-37.911,22.029-99.579,22.029-137.736,0-19.2-11.087-28.794-25.642-28.746-40.169l.076-23.775c-.039,14.527,9.548,29.079,28.749,40.166,38.157,22.032,99.822,22.032,137.733,0C584.386,478.227,593.821,463.908,593.858,449.563Z" transform="translate(-398.997 -449.008)"/></g></g></g></g><g transform="translate(401.849 389.914)"><g transform="translate(53.848 154.938)"><path class="h" d="M497.34,449.357c19.216,11.1,19.322,29.109.212,40.215s-50.178,11.093-69.394,0c-19.238-11.105-19.341-29.115-.242-40.215S478.109,438.258,497.34,449.357Z" transform="translate(-413.661 -441.032)"/></g><g class="i" transform="translate(42.792 147.925)"><path class="h" d="M512.544,448.925c23.547,13.591,23.672,35.656.261,49.259s-61.483,13.6-85.031.006c-23.569-13.609-23.693-35.674-.3-49.265C450.888,435.316,488.975,435.316,512.544,448.925Z" transform="translate(-410.013 -438.718)"/></g><g transform="translate(63.514 158.496)"><path class="j" d="M484.047,448.892c15.437,8.914,15.519,23.372.173,32.289s-40.3,8.914-55.727,0c-15.449-8.917-15.531-23.375-.2-32.289S468.6,439.978,484.047,448.892Z" transform="translate(-416.85 -442.206)"/></g><g transform="translate(69.599 47.13)"><g transform="translate(0 114.534)"><path class="k" d="M428.7,448.894c-13.121,7.614-13.07,19.786-.146,27.3,12.942,7.535,34.008,7.626,47.147,0,13.027-7.517,13.1-19.759.152-27.3C462.878,441.371,441.727,441.371,428.7,448.894Z" transform="translate(-418.858 -443.251)"/></g><g class="l" transform="translate(0 95.445)"><path class="m" d="M428.7,442.6c-13.121,7.611-13.07,19.786-.146,27.3,12.942,7.538,34.008,7.623,47.147,0,13.027-7.517,13.1-19.759.152-27.3C462.878,435.073,441.727,435.073,428.7,442.6Z" transform="translate(-418.858 -436.954)"/></g><g class="n" transform="translate(0 76.355)"><path class="o" d="M428.7,436.3c-13.121,7.6-13.07,19.777-.146,27.3,12.942,7.538,34.008,7.614,47.147,0,13.027-7.523,13.1-19.765.152-27.3C462.878,428.772,441.727,428.772,428.7,436.3Z" transform="translate(-418.858 -430.655)"/></g><g class="i" transform="translate(0 57.266)"><path class="p" d="M428.7,430.006c-13.121,7.6-13.07,19.777-.146,27.3,12.942,7.538,34.008,7.611,47.147,0,13.027-7.523,13.1-19.765.152-27.3C462.878,422.474,441.727,422.474,428.7,430.006Z" transform="translate(-418.858 -424.357)"/></g><g class="q" transform="translate(0 38.18)"><path class="r" d="M428.7,423.707c-13.121,7.6-13.07,19.777-.146,27.3,12.942,7.535,34.008,7.6,47.147,0,13.027-7.526,13.1-19.768.152-27.3C462.878,416.178,441.727,416.178,428.7,423.707Z" transform="translate(-418.858 -418.06)"/></g><g class="s" transform="translate(0 19.089)"><path class="t" d="M428.7,417.413c-13.121,7.587-13.07,19.771-.146,27.3,12.942,7.535,34.008,7.6,47.147,0,13.027-7.532,13.1-19.774.152-27.3C462.878,409.878,441.727,409.878,428.7,417.413Z" transform="translate(-418.858 -411.761)"/></g><g class="u"><path class="v" d="M428.7,411.115c-13.121,7.583-13.07,19.774-.146,27.3,12.942,7.535,34.008,7.6,47.147,0,13.027-7.529,13.1-19.771.152-27.3C462.878,403.58,441.727,403.58,428.7,411.115Z" transform="translate(-418.858 -405.464)"/></g></g><path class="w" d="M477.556,400.678s-2.955,20.192-24.608,31.764v18.665s23.732-13.312,24.924-27.267Z" transform="translate(-280.022 -368.053)"/><path class="x" d="M428.727,442.006s-27.133-12.776-30.88-41.849L395.9,420.486s0,23.575,33.319,36.326Z" transform="translate(-395.895 -369.109)"/><path class="x" d="M417.429,395.043l-.027,7.023s18-6.18,50.654-3.383v-6.062S445.472,387.941,417.429,395.043Z" transform="translate(-352.215 -387.489)"/><path class="y" d="M396.61,466.2c4.5-8.7,15.825-21.481,27.988-28.052,12.5-6.756,28.588-13.594,44.355-15.534l-.2-27.142c-15.764,1.94-30.737,6.244-43.237,13C400,422.269,393.537,441.952,396.61,466.2Z" transform="translate(-395.88 -378.62)"/><path class="y" d="M499.688,467.992c6.332-23.566-.43-43.409-25.375-58.867a116.975,116.975,0,0,0-31.073-13.07l-.918,29.676a116.878,116.878,0,0,1,31.073,13.07C485.37,446.211,495.678,458.9,499.688,467.992Z" transform="translate(-301.605 -377.442)"/><path class="y" d="M474.46,427.06l.915-29.676a163.553,163.553,0,0,0-51.972-1.091l-.918,29.676A163.573,163.573,0,0,1,474.46,427.06Z" transform="translate(-341.892 -380.149)"/><g transform="translate(35.377 25.204)"><g transform="translate(11.468)"><path class="e" d="M532.193,463.655c1.676-27.445-32.722-81.457-91.638-60.841-33.707,11.8-41.582,30.8-5.774,56.985,0,0-.385,14.634,27.721,12.324,0,0,18.1-.77,30.319,8.472C505.766,490.376,531.439,476.042,532.193,463.655Z" transform="translate(-411.351 -398.229)"/></g><g transform="translate(22.42 4.876)"><path class="z" d="M416.622,413.756c.094-.091,9.369-9.5,22.026-10.048a121.68,121.68,0,0,1,13.606.533c10.46.788,23.138,1.212,33.529-3.155l-2.764-1.249c-9.875,4.149-20.4,2.87-30.595,2.1a122.926,122.926,0,0,0-13.876-.54c-13.591.594-23.181,10.339-23.584,10.751Z" transform="translate(-414.964 -399.838)"/></g><g transform="translate(62.091 0.554)"><path class="z" d="M428.381,405.953l1.982-.324a4.541,4.541,0,0,1,.124-1.261c.476-.794,4.359-3.6,14.47-5.21l-3.731-.746c-8.677,1.379-11.772,2.558-12.921,5.144A2.587,2.587,0,0,0,428.381,405.953Z" transform="translate(-428.052 -398.412)"/></g><g transform="translate(71.437 7.782)"><path class="z" d="M452.565,418.437l2.288-1.658c-3.592-5.274-13.424-12.782-19.153-15.267-1.179-.515-.421-.155-1.64-.715l-2.925,1.219c1.231.57,2.449,1.094,3.64,1.615C440.429,406.089,449.349,413.715,452.565,418.437Z" transform="translate(-431.136 -400.797)"/></g><g transform="translate(90.126 23.104)"><path class="z" d="M473.185,422.119l-1.267-2.452a52.676,52.676,0,0,1-9.293-2.688c-2.479-.9-3.977-2.734-5.565-4.677-1.885-2.313-4.031-4.941-8.075-6.032a10.458,10.458,0,0,0-11.684,4.264l1.97,1.206a8.142,8.142,0,0,1,9.1-3.243c3.337.9,5.071,3.019,6.9,5.262,1.712,2.1,3.486,4.274,6.565,5.392A63.8,63.8,0,0,0,473.185,422.119Z" transform="translate(-437.302 -405.852)"/></g><g transform="translate(100.959 13.647)"><path class="z" d="M453.509,423.576c5.877-11.336-10.833-20.453-11.539-20.844l-1.094,2.037c.148.085,15.419,8.426,10.584,17.743Z" transform="translate(-440.876 -402.732)"/></g><g transform="translate(101.037 35.662)"><path class="z" d="M462.164,453.834c.485-.433,10.62-8.9,6.1-18.043a32.154,32.154,0,0,0-7.123-9.057c-2.458-2.388-4.234-4.1-4.168-6.514.1-3.84-3.476-7.529-7.062-9.181-3.476-1.6-6.762-1.355-9,.667l1.543,1.713c2.167-1.955,5.259-.846,6.5-.279,3.27,1.509,5.78,4.6,5.719,7.023-.094,3.416,2.2,5.647,4.862,8.223a29.97,29.97,0,0,1,6.662,8.429c3.749,7.572-7.835,19.038-7.941,19.125Z" transform="translate(-440.902 -409.995)"/></g><g transform="translate(115.941 45.856)"><path class="z" d="M460.574,419.228l-.964-3.255c-5.735-4.743-13.37-1.616-13.791-1.452l.837,2.155C446.734,416.64,456.527,413.421,460.574,419.228Z" transform="translate(-445.819 -413.358)"/></g><g transform="translate(113.922 56.217)"><path class="z" d="M446.29,435.793c9.772-9.081,9.49-18.452,9.454-18.528l-2.41-.488h0l.255,1.315c.091.249-2.928,10.045-8.435,14.906Z" transform="translate(-445.153 -416.777)"/></g><path class="aa" d="M492.811,475.276c-12.221-9.241-30.319-8.472-30.319-8.472-28.106,2.31-27.721-12.324-27.721-12.324-22.9-16.74-27.918-30.552-19.747-41.421a81.505,81.505,0,0,1,16.476-7.626c58.9-20.617,93.311,33.4,91.635,60.841a13.809,13.809,0,0,1-2.91,7.138C511.564,478.616,500.143,480.816,492.811,475.276Z" transform="translate(-399.872 -392.91)"/><g transform="translate(0 12.928)"><path class="c" d="M522.553,467.1c1.679-27.448-25.8-78.932-91.638-60.838-13.809,3.795-41.585,30.807-5.78,56.985,0,0-.379,14.634,27.727,12.318,0,0,16.091,4.471,29.8,14.57C502.582,504.818,521.8,479.491,522.553,467.1Z" transform="translate(-407.567 -402.495)"/></g><g transform="translate(83.903 87.313)"><path class="ab" d="M445.672,431.378l1.631-1.646a10.506,10.506,0,0,0-12.054-1.434l1.037,2.067A8.124,8.124,0,0,1,445.672,431.378Z" transform="translate(-435.249 -427.036)"/></g><g class="ac" transform="translate(0 18.116)"><g transform="translate(23.193 4.183)"><path class="e" d="M435.466,424.61l2.267-.449c-.039-.2-4.119-19.422-22.514-18.547l.115,2.3C431.814,407.088,435.323,423.9,435.466,424.61Z" transform="translate(-415.219 -405.586)"/></g><g transform="translate(14.127)"><path class="e" d="M413.631,458.226l2.037,1.546c-.033-.064-2.4-6.871-.161-10.43,1.176-1.873,3.8-2.737,7.771-2.6l1.682.067c9.366.361,15.54.6,18.595-3.031,2.016-2.391,2.364-6.092,1.112-12-2.273-10.739-1.734-18.11,1.591-21.917,2.237-2.552,5.9-3.646,10.881-3.273,10.123.77,13.848,7.483,15.325,27.612.309,4.155,4.031,8.611,9.484,11.354,4.258,2.149,13.494,7.462,28.155-1.831l-.779-2.207c-13.667,8.659-22.432,3.937-26.339,1.976-5.4-2.716-8.008-6.708-8.211-9.466-1.367-18.528-4.553-28.764-17.458-29.743-5.741-.43-10.051.931-12.794,4.056-3.886,4.446-4.58,12.266-2.116,23.917,1.07,5.068.876,8.256-.612,10.03-2.334,2.764-8.381,2.537-16.746,2.213l-1.688-.067c-4.841-.17-8.162,1.061-9.814,3.689C410.609,452.8,413.474,457.926,413.631,458.226Z" transform="translate(-412.228 -404.206)"/></g><g transform="translate(32.383 40.45)"><path class="e" d="M438.58,432.746l2.294-.221c-1.531-16.019-22.42-14.976-22.623-14.952l.13,2.307C419.142,419.841,437.261,418.952,438.58,432.746Z" transform="translate(-418.251 -417.552)"/></g><g transform="translate(19.544 7.306)"><path class="e" d="M416.23,418c2.61-8.9,13.288-9.069,13.394-9.075l-.018-2.3c-.124,0-12.5.2-15.591,10.72Z" transform="translate(-414.015 -406.617)"/></g><g transform="translate(72.999 27.944)"><path class="e" d="M449.348,445.921l.843-2.149c-22.375-8.732-15.367-28.7-15.058-29.546l-2.173-.8C432.881,413.656,424.894,436.383,449.348,445.921Z" transform="translate(-431.651 -413.426)"/></g><g transform="translate(74.085 48.037)"><path class="e" d="M436.127,438.874l1.567-1.7c-6.5-5.98-1.513-15.958-1.461-16.061l-2.055-1.058C433.933,420.534,428.35,431.721,436.127,438.874Z" transform="translate(-432.01 -420.055)"/></g><g transform="translate(57.103 10.016)"><path class="e" d="M442.523,416.516l1.879-1.331c-.079-.112-7.823-10.808-17.995-6.759l.852,2.149C435.77,407.193,442.45,416.428,442.523,416.516Z" transform="translate(-426.407 -407.511)"/></g><g transform="translate(82.43 47.594)"><path class="e" d="M439.367,451.916c10.508-.967,10.881-9.081,13.172-16.464.809-2.646,1.331-5.3,2.61-7.056,4.086-5.619,7.72-5.974,11.7-6.168l-.394-2.291a14,14,0,0,0-13.345,7.365,44.072,44.072,0,0,0-2.785,7.471c-2.295,7.417-6.6,15.994-15.564,16.81Z" transform="translate(-434.763 -419.909)"/></g><g transform="translate(83.265 27.199)"><path class="e" d="M435.08,426.447l2.3-.209c-.77-8.838,13.879-10.751,14.024-10.769l-.282-2.288C450.422,413.262,434.113,415.411,435.08,426.447Z" transform="translate(-435.038 -413.18)"/></g><g transform="translate(86.594 14.056)"><path class="e" d="M437.883,427.23l1.967-1.212c-4.207-6.838,2.494-15.676,2.558-15.764l-1.825-1.409C440.266,409.256,432.849,419.043,437.883,427.23Z" transform="translate(-436.137 -408.844)"/></g><g transform="translate(6.733 17.827)"><path class="e" d="M423.43,434.36l2.088-.994c-2.134-4.489-3.37-5.347-7.477-8.208-.818-.561-1.749-1.218-2.849-2-5.7-4.083-1.761-11.933-1.722-12.009l-2.055-1.061c-1.719,3.343-3.413,10.763,2.434,14.955,1.106.785,2.055,1.443,2.876,2.019C420.729,429.841,421.563,430.423,423.43,434.36Z" transform="translate(-409.788 -410.088)"/></g><g transform="translate(0 27.572)"><path class="e" d="M413.459,420.547a12.147,12.147,0,0,0,6.235-2.031l-1.315-1.9c-.03.021-3.18,2.158-6.116,1.485-1.455-.333-3.752-3.167-4.7-4.8l.215,3.622c1.273,2.225,1.864,2.955,3.986,3.434A7.53,7.53,0,0,0,413.459,420.547Z" transform="translate(-407.567 -413.303)"/></g><g transform="translate(42.285 45.53)"><path class="e" d="M431.636,441.3c.258,0,.415-.179.646-.415.8-.84-.046-1.658-.4-2.006l-.039.042c-.5-.44-1.852-1.652-5.471-4.974-1.816-1.67-2.667-3.452-2.519-5.286.33-4.122,5.322-7.465,5.377-7.5l-1.273-1.937c-.245.161-5.989,4.016-6.41,9.247-.206,2.583.888,4.992,3.258,7.171,2.879,2.646,4.516,4.149,5.5,4.931.064.057.188.176.249.236l.03-.03A2.061,2.061,0,0,0,431.636,441.3Z" transform="translate(-421.518 -419.228)"/></g><g transform="translate(31.471 54.019)"><path class="e" d="M419.908,427.985a7.216,7.216,0,0,1,4.446-3.516,7.413,7.413,0,0,1,5.031.952l1.264-1.928a9.567,9.567,0,0,0-6.783-1.279,9.429,9.429,0,0,0-5.916,4.546Z" transform="translate(-417.95 -422.029)"/></g><g transform="translate(45.213 24.51)"><path class="e" d="M424.175,420.41c.052-.055,5.5-5.8,10.727-5.8h.061a6.364,6.364,0,0,1,4.846,2.291l1.706-1.546a8.693,8.693,0,0,0-6.544-3.061c-6.174.018-12.239,6.268-12.488,6.535Z" transform="translate(-422.484 -412.293)"/></g><g transform="translate(25.112 10.598)"><path class="e" d="M417.652,424.676c6.335-6.05.461-16.528.2-16.973l-2,1.143c.049.088,5.235,9.36.209,14.155Z" transform="translate(-415.852 -407.703)"/></g><g transform="translate(64.823 54.327)"><path class="e" d="M430.991,427.709c2.052-3.861,8.3-3.234,8.371-3.228l.255-2.291c-.321-.033-7.887-.815-10.663,4.434Z" transform="translate(-428.954 -422.13)"/></g></g><path class="ad" d="M522.551,456.165c-.755,12.391-19.028,35.9-35.99,25.421a206.067,206.067,0,0,0-33.7-16.955c-28.106,2.316-27.727-12.318-27.727-12.318-22.547-16.485-19.874-33.292-11.369-44.434-5.7,17.883,13.063,33.31,18.913,39.721,6.4,7.023,14.2,5.5,24.03,4.377s8.662,4.231,32.152,11.627c19.468,6.132,30.455-7.95,33.653-12.96A42.166,42.166,0,0,1,522.551,456.165Z" transform="translate(-407.565 -378.631)"/></g><path class="y" d="M396.942,410.809c-3.837,30.522,2.7,54.751,34.577,72.386a144.094,144.094,0,0,0,30.992,12.4V459.9a144.1,144.1,0,0,1-30.992-12.4C416.219,439.039,402.325,421.575,396.942,410.809Z" transform="translate(-395.769 -347.477)"/><path class="y" d="M500.2,410.809c-5.222,10.654-19.8,26.385-34.735,34.85a136.508,136.508,0,0,1-22.878,10.163l.288,35.69a134.963,134.963,0,0,0,22.881-10.163C497.094,463.6,502.589,438.027,500.2,410.809Z" transform="translate(-301.057 -347.477)"/><path class="ae" d="M479.744,462.443v-35.75A211.874,211.874,0,0,1,420,430.542v35.671A212.142,212.142,0,0,0,479.744,462.443Z" transform="translate(-346.93 -315.217)"/><path class="w" d="M435.24,403.912s-24.4,6.638-35.6,20.929v-13.5s9.323-9.514,35.6-19.444Z" transform="translate(-388.281 -385.88)"/><path class="w" d="M438.474,389.914v13.154s25.269.946,56.334,22.017V408.527S475.491,395.23,438.474,389.914Z" transform="translate(-309.418 -389.914)"/><path class="af" d="M401.308,420.675a64.669,64.669,0,0,1,5.932-4.322,126.851,126.851,0,0,1,16.94-9.4c3.658-1.664,7.68-3.331,12.024-4.883a128.293,128.293,0,0,1,13.894-4.119,147.6,147.6,0,0,1,15.255-2.825,145.863,145.863,0,0,1,15.979-1.155,143.741,143.741,0,0,1,16,.715c2.637.209,5.225.664,7.793.979,2.564.367,5.062.909,7.541,1.355a138.041,138.041,0,0,1,14.021,3.664c2.213.634,4.325,1.373,6.35,2.131s4.028,1.391,5.874,2.191c3.695,1.567,7.114,2.931,10,4.45,2.916,1.452,5.492,2.634,7.511,3.825,4.068,2.292,6.4,3.607,6.4,3.607s-2.4-1.173-6.6-3.216c-2.061-1.088-4.689-2.149-7.653-3.461-2.943-1.364-6.407-2.552-10.108-4.028-1.852-.74-3.852-1.3-5.883-2s-4.143-1.373-6.359-1.934c-4.377-1.279-9.069-2.31-13.927-3.328-2.452-.4-4.925-.931-7.459-1.261-2.537-.285-5.092-.709-7.7-.894a142.73,142.73,0,0,0-15.77-.564,140.114,140.114,0,0,0-30.831,3.637,152.265,152.265,0,0,0-25.851,8.262c-3.643,1.594-6.98,3.092-9.86,4.577-2.895,1.467-5.362,2.846-7.356,4.043C403.457,419.087,401.308,420.675,401.308,420.675Z" transform="translate(-384.901 -381.715)"/><path class="af" d="M406.19,430.477s2.143,1.361,6.1,3.334a135.635,135.635,0,0,0,16.888,7.008c3.589,1.185,7.5,2.428,11.712,3.407,4.195,1.034,8.684,1.888,13.342,2.561a129.113,129.113,0,0,0,14.455,1.279,124.356,124.356,0,0,0,14.961-.509l3.746-.33,3.719-.527c2.482-.291,4.919-.824,7.347-1.3a125.988,125.988,0,0,0,14.006-3.771c4.456-1.54,8.738-3.107,12.678-4.883,1-.433,1.973-.858,2.937-1.273.946-.476,1.864-.943,2.776-1.391,1.812-.936,3.619-1.74,5.25-2.695,3.264-1.906,6.353-3.5,8.911-5.219,2.591-1.658,4.907-3.031,6.671-4.365l5.7-4s-1.979,1.585-5.443,4.355c-1.7,1.422-3.955,2.907-6.477,4.707-2.479,1.858-5.5,3.616-8.744,5.622-1.619,1.006-3.413,1.879-5.213,2.879-.906.485-1.831.976-2.761,1.485-.964.449-1.94.912-2.928,1.379a115.9,115.9,0,0,1-12.733,5.238,129.969,129.969,0,0,1-14.2,3.98c-2.458.5-4.931,1.067-7.453,1.391l-3.783.567-3.813.373a124.314,124.314,0,0,1-15.225.37,131.016,131.016,0,0,1-14.676-1.446,110.471,110.471,0,0,1-13.464-2.907c-4.237-1.118-8.141-2.5-11.724-3.795a119.919,119.919,0,0,1-16.667-7.808A62.258,62.258,0,0,1,406.19,430.477Z" transform="translate(-374.986 -333.268)"/><path class="af" d="M526.57,424.795a31.468,31.468,0,0,1-2.079,4.516,52.828,52.828,0,0,1-3.061,4.844,32.821,32.821,0,0,1-2.118,2.825c-.8.952-1.567,2.022-2.54,2.983-.946.982-1.94,2.006-2.958,3.064-1.039,1.055-2.234,2-3.392,3.055a81.9,81.9,0,0,1-7.826,5.992q-2.2,1.314-4.468,2.67a42.7,42.7,0,0,1-4.674,2.564,92.06,92.06,0,0,1-9.924,4.431c-1.706.627-3.419,1.255-5.119,1.882-1.716.594-3.48,1-5.2,1.494-1.722.479-3.437.952-5.125,1.415-1.682.5-3.41.709-5.074,1.07-3.346.609-6.562,1.349-9.666,1.652-3.1.318-6.029.615-8.732.888a57.777,57.777,0,0,1-7.4.4c-2.2.039-4.125.076-5.707.1-3.158.03-4.965.042-4.965.042l4.947-.476c1.57-.136,3.477-.306,5.668-.5s4.656-.373,7.32-.815c2.673-.391,5.562-.806,8.623-1.255a44.487,44.487,0,0,0,4.653-.912c1.585-.33,3.2-.676,4.846-1.024,1.637-.379,3.343-.609,5-1.118q2.491-.727,5.028-1.476c1.688-.512,3.416-.934,5.1-1.537l5-1.913a90.2,90.2,0,0,0,9.793-4.21A41.012,41.012,0,0,0,497.13,453c1.485-.867,2.961-1.719,4.41-2.558q2.064-1.423,4.055-2.795c.661-.461,1.343-.888,1.97-1.355.609-.5,1.221-.988,1.813-1.464,1.185-.982,2.392-1.87,3.452-2.852,1.045-.994,2.055-1.961,3.031-2.882,1-.894,1.776-1.937,2.634-2.813a30.5,30.5,0,0,0,2.273-2.628,53.182,53.182,0,0,0,3.349-4.565c.824-1.334,1.494-2.379,1.867-3.137C526.388,425.216,526.57,424.795,526.57,424.795Z" transform="translate(-333.64 -319.072)"/></g><g transform="translate(547.239 525.722)"><path class="ag" d="M457.754,441.13a4.816,4.816,0,0,0-4.474,4.956c-.23,4.783,2.479,25.757,7.2,30.273s5.422-5.244,5.422-5.244S465.292,440.691,457.754,441.13Z" transform="translate(-424.765 -421.713)"/><path class="ah" d="M463.277,457.472s5.7,1.564,9.775.249,3.149-1.516,2.891-2.143c-.555-1.352-5.8-1.428-6.738-1.758s.882-.955,1.337-1.582,1.425-1.331,1.13-1.573-1.085-.533-2.646.515a31.705,31.705,0,0,1-5.4,2.319Z" transform="translate(-404.434 -402.808)"/><path class="ag" d="M480.313,453.864a10.106,10.106,0,0,0-.518,2.552,5.854,5.854,0,0,0,.582,3.037s-19.174,2.225-23.769-.6c0,0-4.04-7.526,3.2-8.838Z" transform="translate(-420.261 -403.665)"/><path class="ag" d="M462.7,475.717a2.766,2.766,0,0,1-1.519-.615.427.427,0,0,0-.07-.03l-.009-.036a5.446,5.446,0,0,1-.618-.5c-4.725-4.516-7.435-25.491-7.2-30.273a5.84,5.84,0,0,1,.543-2.234c1.1,5.441,6.271,30.413,8.444,31.028,1.991.561,16.776.9,22.1,1.018a5.685,5.685,0,0,0,.512,1.6S469.035,477.5,462.7,475.717Z" transform="translate(-424.765 -419.886)"/><g transform="translate(9.713 58.844)"><path class="ai" d="M461.707,473.636s-1.076,3.777,1.579,4.728a23.123,23.123,0,0,1,5.865,2.895c1.015.8,12.442,5.662,13.855,3.364s-2-4.9-2.864-5.7-8.656-7.529-8.656-7.529Z" transform="translate(-417.774 -419.085)"/><path class="ai" d="M458.657,475.806s-1.073,3.777,1.591,4.734a23.152,23.152,0,0,1,5.856,2.883c1.021.812,12.442,5.662,13.848,3.37s-2-4.9-2.855-5.7-8.656-7.529-8.656-7.529Z" transform="translate(-423.963 -414.677)"/><path class="aj" d="M460.061,454.135s28.012,17.61,28.818,22.093.639,30.864.639,30.864-7.183,3.092-10.639,1.161l-2.9-24.863s-22.047-16.267-23.011-16.864S460.061,454.135,460.061,454.135Z" transform="translate(-435.248 -454.135)"/><path class="ak" d="M452.967,461.552c.964.6,23.011,16.864,23.011,16.864l2.9,24.863c1.67.937,4.207.688,6.374.2-.982-7.547-3.2-24.172-4-28.385-1.046-5.5-23.648-18.507-23.648-18.507l-4.6,4.3C452.873,461.236,452.843,461.473,452.967,461.552Z" transform="translate(-435.247 -449.161)"/><path class="aj" d="M471.911,454.355s-3.234,9.614-4.919,11.718c0,0,22.387,11.851,23.532,17.577s2.546,30.243,2.546,30.243a14.013,14.013,0,0,1-11.748.87s-2.5-18.825-2.767-26.409c0,0-33.853-8.956-31.355-27.5C447.2,460.856,460.16,466.012,471.911,454.355Z" transform="translate(-447.068 -453.688)"/><path class="ak" d="M478.536,483.361c.264,7.584,2.767,26.409,2.767,26.409a15.4,15.4,0,0,0,3.3.77c-.188-2.943-.427-6.807-.721-11.9-1.118-19-4.049-18.634-4.049-18.634-21.477-9.69-25.824-18.95-25.824-18.95l-6.9-4.243C445.862,474.7,478.536,483.361,478.536,483.361Z" transform="translate(-447.049 -448.696)"/></g><path class="al" d="M458.627,443.138s-10.681,5.447-10.948,6.268-3.037,2.807.918,12.2c0,0,5.307,10.2,2.652,20.386a63.553,63.553,0,0,1-2.931,9s4.74,7.035,18.074,2.131c2.691-.988,7.214-4.665,8.587-7.614a69.187,69.187,0,0,1,.421-18.9c1.664-10.181,2.607-23.4-3.176-25.148C472.224,441.462,470.76,439.679,458.627,443.138Z" transform="translate(-438.532 -421.963)"/><path class="am" d="M451.733,440.629s7.765,4.089,4.307,9.945l3.649,2.007S463.272,442.332,451.733,440.629Z" transform="translate(-427.88 -422.722)"/><path class="ah" d="M450.09,439.268s3.267,4.959.673,8.317c-1.449,1.864,1.964,6.317,7.784,5.956,0,0,2.594-.639,2.331-1.582-.6-2.143.258-3.349,1.188-4.986S450.09,439.268,450.09,439.268Z" transform="translate(-431.216 -425.486)"/><path class="an" d="M450.515,447.372a1.5,1.5,0,0,0-.3.77c2.188-2.228,6.365-2.391,6.365-2.391l-5.529-6.116c-.212-.1-.4-.185-.555-.261l-.173.539C451.121,441.473,452.446,444.874,450.515,447.372Z" transform="translate(-430.969 -425.273)"/><path class="ao" d="M456.1,448.224c-.546-3.4.258-3.349,1.188-4.986.255-.455-.539-1.237-1.819-2.131a3.846,3.846,0,0,0-.94,1.067c-2.258,3.467-2.243,6.186-1.97,7.632a6.2,6.2,0,0,0,1.209,0C454.471,449.7,456.272,449.272,456.1,448.224Z" transform="translate(-426.444 -421.751)"/><g transform="translate(16.743 0.118)"><path class="ah" d="M449.967,445.439s1.421,6.571,5.938,9.554c4.007,2.634,8.669,4.368,9.52-.415.688-3.8,2.552-13.467-.8-15.415-4.322-2.5-5.907-5.589-10.911-3.74C453.71,435.422,447.991,438.044,449.967,445.439Z" transform="translate(-449.052 -434.558)"/><path class="ap" d="M449.968,444.022a14.762,14.762,0,0,0,5.919,9.635,19.2,19.2,0,0,0,3.792,2.019,18.028,18.028,0,0,1-3.955-3.931c-1.64-1.9,2.434-1.17-.349-6.026-.936-1.658,3.686.473,4.722.446,6.162-.149,5.7-3.683,5.826-5.168a10.578,10.578,0,0,0-.509-1.825l-.585-1.125c-.07-.106-.139-.212-.206-.3a20.783,20.783,0,0,0-2-2.188c-2.634.052-10.135.218-10.287.255-.106.027-1.391,1.776-2.588,3.437A9.993,9.993,0,0,0,449.968,444.022Z" transform="translate(-449.052 -433.141)"/><path class="aq" d="M453.009,452s-4.992-4.58-3.255-11.151a7.7,7.7,0,0,1,6.8-5.992c2.807-.33,8.2-.155,10.336,5.5.664,1.761.212,5.637-6.72,3.831-1-.267-3.634-.609-4.565.236a3.629,3.629,0,0,0-.585,3.764c.4,1.179-.649,1.3-.791,1.055s-1.473-3.61-2.725-2.3C450.363,448.139,452.882,451.773,453.009,452Z" transform="translate(-449.387 -434.76)"/><path class="ar" d="M453.009,450.456c-.127-.23-2.646-3.865-1.509-5.05,1.252-1.312,2.582,2.049,2.725,2.3s1.188.124.791-1.055a3.629,3.629,0,0,1,.585-3.764c.849-.764,3.158-.373,4.565-.236-1.158-.74-3.449-.994-4.268-2.913-1.091-2.567-2.631-3.771-4.086-4.213a7.916,7.916,0,0,0-2.058,3.783C448.017,445.876,453.009,450.456,453.009,450.456Z" transform="translate(-449.387 -433.212)"/></g><path class="am" d="M451.7,441.48a10.13,10.13,0,0,0,7.811,7.365l-1.894,4.622S445.725,447.515,451.7,441.48Z" transform="translate(-431.353 -420.993)"/><path class="ag" d="M447.679,444.2c-.267.831-3.037,2.807.918,12.2,0,0,4.462,10.117,2.143,20.292-1,4.368-1.47,3.316-3.134,7.029-.958,2.119,3.534,5.4,7.956,5.789,2.279-5.4,1.652-5.347,2.607-11.26,1.294-8.093.385-14.752-6.253-22.869-5.826-7.147-3.374-9.92-3.5-11.806A2.262,2.262,0,0,0,447.679,444.2Z" transform="translate(-438.532 -416.753)"/><path class="aq" d="M465.42,440.444s1.018,6.316-7.029,4.034a9.274,9.274,0,0,1-5.647-4.81,3.65,3.65,0,0,0-2.637-2.255s2.146-3.043,7.689-2.658c2.607.191,5.319,2.725,5.977,3.14S463.365,440.947,465.42,440.444Z" transform="translate(-431.18 -434.721)"/><g transform="translate(20.527 50.644)"><g transform="translate(0 8.507)"><g class="f"><g transform="translate(0 12.627)"><path class="as" d="M450.716,458.4l-.08,1.018,14.7,10.478.089-1.018Z" transform="translate(-450.636 -458.402)"/></g><g transform="translate(14.702 10.484)"><path class="at" d="M455.575,470.316l-.089,1.018,27.462-12.621.089-1.018Z" transform="translate(-455.486 -457.695)"/></g><g transform="translate(0.08)"><path class="au" d="M450.662,466.863l14.711,10.478,27.462-12.621-14.7-10.484Z" transform="translate(-450.662 -454.236)"/></g></g></g><g transform="translate(13.527)"><g class="f"><g transform="translate(0 13.184)"><path class="av" d="M460.773,456.8l-1.089-1.018L455.1,474.154l1.1,1.018Z" transform="translate(-455.099 -455.779)"/></g><g transform="translate(4.585)"><path class="aw" d="M486.406,452.442l-1.1-1.012-28.7,13.183,1.089,1.018Z" transform="translate(-456.611 -451.43)"/></g><g transform="translate(1.095 1.012)"><path class="ax" d="M460.039,464.953l-4.579,18.375,28.7-13.2,4.582-18.363Z" transform="translate(-455.46 -451.764)"/></g><g transform="translate(5.674 1.012)"><path class="ay" d="M456.971,464.953h0l24.123,5.174,4.582-18.363Z" transform="translate(-456.971 -451.764)"/></g></g></g></g><g transform="translate(0 25.9)"><path class="ah" d="M452.72,461.3s5.3,6.392,11.684,6.356c0,0,.3-1.6-2.328-2.722a4.93,4.93,0,0,1-3.182-3.725c.088-.312,2.264-.088,3.231.042s2.379-.952.061-1.546-6.129-2.249-8.493-2.185C453.692,457.524,450.965,459.521,452.72,461.3Z" transform="translate(-427.072 -414.312)"/><path class="al" d="M457.448,443.266s-5.389.206-7.508,4.5-7.99,24.621-5.453,30.634,25.169,13.248,25.169,13.248a6.445,6.445,0,0,1,1.931-6.292l-18.416-12.181S462.03,446.179,457.448,443.266Z" transform="translate(-443.863 -443.266)"/><path class="al" d="M449.059,472.362l18.416,12.181a6.83,6.83,0,0,0-1.018,1.2c-4.474-2.552-19.2-11.066-20.423-13.354-1.337-2.488,6.889-25.2,8.181-28.718C456.488,449.712,449.059,472.362,449.059,472.362Z" transform="translate(-439.751 -442.449)"/></g></g><g transform="translate(392.963 530.935)"><path d="M403.825,472.027s-.309,3.9-1.979,6.01-9.447,7.02-8.85,9.156,6.2,2.24,9.684-1.361,4.416-4.162,5.913-4.5,3.61-2.255,2.01-5.525C410.6,475.8,405.8,474.515,403.825,472.027Z" transform="translate(-392.963 -364.166)"/><path d="M408.133,474.4s-.576,4.067-2.473,6.177-10.369,6.711-9.884,8.99,6.344,2.77,10.236-.77,4.907-4.068,6.492-4.325,3.937-2.131,2.482-5.65C414.986,478.824,410.033,477.151,408.133,474.4Z" transform="translate(-387.292 -359.342)"/><path class="ak" d="M427.742,455.148s-28.082,15.743-29.785,20.708c-2.437,7.117-1.982,11.948-.8,29.594l-.079,4.149s3.607,2.931,7.538.949c1.215-.609-.033-12.23,1.922-18.695,0,0,.615-7.677.018-9.714,0,0,22.659-7.862,27.958-12.724C439.808,464.568,427.742,455.148,427.742,455.148Z" transform="translate(-386.397 -398.446)"/><path class="aj" d="M445.195,460.11s4.468,10.1-7.429,16.246c-12.618,6.511-25.969,14.391-25.969,14.391s.346,7.968-.646,12.8c-1.343,6.508-3.313,15-3.313,15s-5.41,2.182-8.462-.782c0,0-.288-31.289,3.389-34.811s22.062-17.51,22.062-17.51l-3.531-10.3Z" transform="translate(-379.951 -398.446)"/><path class="ak" d="M433.611,473.36c-12.618,6.51-25.969,14.391-25.969,14.391s.346,7.968-.646,12.8c-1.343,6.507-2.294,14.7-2.294,14.7a16.623,16.623,0,0,1-3.286.682c1.867-8.4,2.7-27.091,3.555-30.537,1.064-4.261,14.376-8.82,23.839-13.821a18.952,18.952,0,0,0,9.89-14.949l2.34.491S445.508,467.213,433.611,473.36Z" transform="translate(-375.796 -395.451)"/><path class="aj" d="M396.6,504.877c-1.173-17.655-.676-21.9,1.761-29.021,1.7-4.965,29.785-20.708,29.785-20.708a38.226,38.226,0,0,1,3.283,2.979c-7.577,3.734-25.736,13.167-29.125,19.529-3.889,7.3-.976,27.645-1.37,33.471a18.509,18.509,0,0,1-4.089-1.03Z" transform="translate(-386.804 -398.446)"/><path class="ah" d="M408.957,453.233s-3.946-.664-5.65.758-3.034,1.876-3.777,3.361c-.746,1.47.14,2.243,1.449,2.173a12.981,12.981,0,0,0,5.453-2,4.835,4.835,0,0,1,2.958-1.061C410.033,456.358,410.848,454.451,408.957,453.233Z" transform="translate(-380.178 -402.651)"/><path class="ag" d="M420.848,443.083c-1.919-.218-5.013.876-4.9,5.98.127,5.11.615,19.4.615,19.4s-13.224,3.928-14.673,4.628a3.507,3.507,0,0,1,2.016,3.965s15.291.3,18.037-3.367S428.713,443.971,420.848,443.083Z" transform="translate(-374.841 -423.002)"/><path class="al" d="M435.058,453.513s-4.583-7.929-22.793-10.527c0,0-2.9-1.212-2.628,8.217.046,1.355-1.367,3.677-2.322,4.9s-3.486,5.95,2.061,11.6c0,0,2.143,8.4-.418,13.824-2.294,4.85,9.687,9.584,19.883,8.608,1.252-.124,4.037-.955,2.937-5.316-1.1-4.38-3.686-12.042-1.643-20.1S436.428,457.608,435.058,453.513Z" transform="translate(-366.68 -423.248)"/><path class="ag" d="M423.949,449.621c1.37,4.095-2.867,3.143-4.922,11.205s.546,15.719,1.643,20.1c1.1,4.362-1.685,5.192-2.937,5.316a32.133,32.133,0,0,1-5.125.042c3.577-7.832-1-22.029-1.227-29.873-.242-8.3,7.283-11.551,7.283-11.557C422.646,447.366,423.949,449.621,423.949,449.621Z" transform="translate(-355.571 -419.355)"/><g transform="translate(43.44)"><path class="aq" d="M412.7,441.561s1.194,9.411,1.764,18.386a3.006,3.006,0,0,1-3.692,2.955s-6.81-10.645-1.364-21.2a10.121,10.121,0,0,1,15.061-3.119Z" transform="translate(-407.295 -436.438)"/><g transform="translate(3.475 12.204)"><path class="az" d="M408.442,445.729s3.264,3.807,1.761,7.9c-.409,1.137-1.431,5.753,5.565,3.84,0,0,7.265-3.707,5.077-5.9-1.464-1.452-2.879-3.564-.77-11.1Z" transform="translate(-408.442 -440.467)"/><path class="ba" d="M419.854,451.038a1.213,1.213,0,0,1,.367.727,13.1,13.1,0,0,1-11.29-3.325l8.641-7.714h0s.443.3,1.106.8C417.189,447.777,418.5,449.69,419.854,451.038Z" transform="translate(-407.451 -439.939)"/></g><path class="bb" d="M411.031,438.57s-1.879.652-1.925,6.238c0,.624-.994,1.44-1.246,2.973-.258,1.561-.576,7.771,3.028,8.429,2.61.461,9.063-1.194,11.2-7.483C424.233,442.459,418.853,434.4,411.031,438.57Z" transform="translate(-406.44 -434.447)"/><path class="aq" d="M408.93,442.454s16.028,5.844,4.028,26.5c0,0,8.359.8,12.066-6.392,1.785-3.47,1.07-10.448.524-17.1,0,0-1.864-10.242-10.43-8.69C415.119,436.771,409.448,438.945,408.93,442.454Z" transform="translate(-403.975 -436.094)"/><path class="aq" d="M411.718,442.8s-2.81-.521-4.161,4.634c0,0,.433-14.561,14.227-10.169C421.784,437.266,413.57,437.675,411.718,442.8Z" transform="translate(-406.764 -436.441)"/><path class="bb" d="M412.032,443.063s.973-3.092,2.752-2.143c.567.291,1.176.934.318,2.522-.843,1.6-2.6,3.049-4,2.876Z" transform="translate(-399.564 -427.71)"/></g><g transform="translate(9.666 49.38)"><g transform="translate(4.712 7.098)"><g class="f"><g transform="translate(22.889 10.526)"><path class="as" d="M417.51,458.547l.071.84-12.251,8.732-.071-.841Z" transform="translate(-405.259 -458.547)"/></g><g transform="translate(0 8.738)"><path class="at" d="M420.6,468.477l.071.841L397.781,458.8l-.074-.841Z" transform="translate(-397.707 -457.957)"/></g><path class="au" d="M432.847,465.6,420.6,474.331l-22.889-10.52,12.251-8.738Z" transform="translate(-397.707 -455.074)"/></g></g><g class="f"><g transform="translate(23.922 10.993)"><path class="av" d="M404.045,457.206l.915-.847,3.812,15.315-.906.847Z" transform="translate(-404.045 -456.359)"/></g><path class="aw" d="M396.152,453.579l.912-.847,23.925,10.993-.915.847Z" transform="translate(-396.152 -452.732)"/><g transform="translate(0 0.847)"><path class="ax" d="M420.075,464l3.821,15.315-23.925-11-3.818-15.309Z" transform="translate(-396.152 -453.012)"/></g><g transform="translate(0 0.847)"><path class="ay" d="M420.075,464h0l-20.1,4.316-3.818-15.309Z" transform="translate(-396.152 -453.012)"/></g></g></g><g transform="translate(39.088 28.155)"><path class="ah" d="M414.323,455.609s-3.962.54-5.183,2.388-2.919,3.822-3.195,5.444.094,2.161,1.328,1.725a22.931,22.931,0,0,0,5.892-4.713,4.774,4.774,0,0,1,2.516-1.87C416.272,458.279,416.494,456.218,414.323,455.609Z" transform="translate(-405.859 -425.665)"/><path class="ba" d="M415.051,457.593a4.774,4.774,0,0,0-2.516,1.87,22.93,22.93,0,0,1-5.892,4.713,4.185,4.185,0,0,1-.473.112c.882-1.155,2.391-3.11,3.737-4.765a12.189,12.189,0,0,1,5.453-3.428A1.365,1.365,0,0,1,415.051,457.593Z" transform="translate(-405.229 -424.677)"/><path class="al" d="M427.995,445.767c-1.919-.261-5.025.776-5.01,5.889s.23,19.4.23,19.4-13.288,3.689-14.761,4.359a2.784,2.784,0,0,1,1.909,3.51S425.682,480,428.5,476.391C431.313,472.772,435.839,446.8,427.995,445.767Z" transform="translate(-400.59 -445.73)"/><path class="al" d="M408.454,475.409c1.473-.67,14.761-4.359,14.761-4.359s-.212-14.285-.23-19.4,3.092-6.15,5.01-5.889a3.285,3.285,0,0,1,1.373.5l.133.2s-4.365,2.467-4.056,11.784,4.374,14.452-3.283,16.049c-4.565.949-9.069,1.9-11.984,2.516A3.184,3.184,0,0,0,408.454,475.409Z" transform="translate(-400.59 -445.73)"/></g></g></g></g></svg>