<svg xmlns="http://www.w3.org/2000/svg" xmlns:xlink="http://www.w3.org/1999/xlink" width="260" height="260" viewBox="0 0 260 260"><defs><style>.a{fill:#a5dcf0;}.b{clip-path:url(#a);}.c{fill:#ccf7ef;}.d{fill:#d8edee;}.e{fill:#fff;}.f{fill:#f05a2a;}.g{fill:#f8ec3a;}.h,.l{fill:none;}.h{stroke:#403f41;stroke-linecap:round;stroke-miterlimit:10;stroke-width:2px;}.i{fill:#a6a8ab;}.j{fill:#221f1f;}.k{fill:#403f41;}</style><clipPath id="a"><path class="a" d="M171.576,88.723a103.56,103.56,0,1,0,103.562,103.56A103.56,103.56,0,0,0,171.576,88.723Z" transform="translate(-68.018 -88.723)"/></clipPath></defs><g transform="translate(-219 -606)"><g transform="translate(245.218 619.838)"><g class="b" transform="translate(0 25.933)"><path class="c" d="M188.789,88.723A120.774,120.774,0,1,0,309.565,209.5,120.774,120.774,0,0,0,188.789,88.723Z" transform="translate(-85.134 -88.723)"/><g transform="translate(-15.238 121.475)"><path class="d" d="M412.326,444.058a18.01,18.01,0,0,0-34.336-7.285,15.518,15.518,0,0,0-22.867,2.474,17.521,17.521,0,1,0-.588,32.722c-.014.066-.031.131-.044.2a16.76,16.76,0,0,0,2.857,13.127A121.093,121.093,0,0,0,412.326,444.058Z" transform="translate(-196.494 -372.875)"/><path class="d" d="M109.243,420.52a14.23,14.23,0,1,0,9.319-26.557c.1-.18.211-.365.309-.55A14.788,14.788,0,0,0,99.741,373a12.969,12.969,0,0,0-20.126-6.062,12.528,12.528,0,0,0-7.977-4.245,120.337,120.337,0,0,0,27.418,57.53,12.878,12.878,0,0,0,6.143-2.9A14.207,14.207,0,0,0,109.243,420.52ZM93.159,395.293c0-.419-.031-.839-.074-1.258.219.376.46.732.714,1.086C93.582,395.172,93.368,395.23,93.159,395.293Z" transform="translate(-71.638 -342.23)"/><path class="d" d="M275.646,324.172l-15.712,88.961,48.691-2.939L290.1,323.24Z" transform="translate(-162.272 -323.24)"/><path class="d" d="M330.649,452.6a8.087,8.087,0,0,0-3.895-9.945,11.834,11.834,0,1,0-19.966-11.9,12.052,12.052,0,0,0-.546,2.072,12.847,12.847,0,0,0-1.622-.724,12.625,12.625,0,0,0-11.3,22.377,10.876,10.876,0,0,0-.705,16.107,12.46,12.46,0,0,0-.982,2.071,12.283,12.283,0,1,0,23.593,1.8c.045.016.088.035.133.051a11.781,11.781,0,0,0,13.069-18.619A8.057,8.057,0,0,0,330.649,452.6Z" transform="translate(-175.628 -371.237)"/><path class="d" d="M476.726,367.332a12,12,0,0,0-1.115,1.8,12.171,12.171,0,0,0-1.326-1.154A12.492,12.492,0,0,0,457.132,385.9a10.76,10.76,0,0,0-5.313,15.042,12.151,12.151,0,0,0,9.716,21.032,120.383,120.383,0,0,0,28.833-58.511A11.714,11.714,0,0,0,476.726,367.332Z" transform="translate(-252.725 -342.213)"/><path class="d" d="M255.3,439.424a10.95,10.95,0,0,0,1.409-2.962c1.577-5.193-.879-10.536-5.484-11.932-4.168-1.268-8.668,1.135-10.654,5.453-3.876-.121-7.644,2.7-8.96,7.031a9.818,9.818,0,0,0,1.887,9.45,7.109,7.109,0,0,0-4.171,4.639c-1.1,3.619.612,7.342,3.82,8.317a5.437,5.437,0,0,0,.854.179c-.007.024-.019.048-.025.073-1.183,3.894.659,7.9,4.112,8.95s7.213-1.259,8.4-5.153a8.21,8.21,0,0,0,.35-2.107c.089.03.174.061.264.088,5.523,1.677,11.534-2.014,13.424-8.244C262.247,447.509,259.93,441.664,255.3,439.424Z" transform="translate(-147.377 -371.832)"/><path class="d" d="M185.983,477.377a17.522,17.522,0,1,0-6.689-32.036c0-.067,0-.134,0-.2a16.807,16.807,0,0,0-31.548-7.612,11.534,11.534,0,0,0-16.682,9.132,16.89,16.89,0,0,0-13.657.9,121.054,121.054,0,0,0,54.066,39.221c.219,0,.439.011.661.005A15.52,15.52,0,0,0,185.983,477.377Z" transform="translate(-93.667 -374.041)"/><path class="e" d="M411.076,464.651a18.016,18.016,0,0,0-25.586,2.908,15.513,15.513,0,0,0-22.84-2.706,17.522,17.522,0,1,0-7.895,31.761c-.029.061-.059.121-.087.183a16.754,16.754,0,0,0-1.479,7.064A120.918,120.918,0,0,0,411.076,464.651Z" transform="translate(-198.446 -389.359)"/><path class="e" d="M115.738,438.907c.061-.031.119-.06.18-.092a16.806,16.806,0,0,0-7.456-31.584A11.535,11.535,0,0,0,92.78,396.47a16.884,16.884,0,0,0-16.948-14.912,120.946,120.946,0,0,0,48.05,68.244,17.573,17.573,0,0,0-8.145-10.9Z" transform="translate(-73.657 -351.31)"/><path class="e" d="M282.651,356.891l-12.188,62.221,37.768-2.054-14.37-60.819Z" transform="translate(-167.34 -339.123)"/><path class="e" d="M315.223,491.58c.045.015.088.034.133.051a11.78,11.78,0,0,0,13.069-18.619,8.085,8.085,0,0,0-1.67-13.226,11.834,11.834,0,1,0-19.966-11.9,11.885,11.885,0,0,0-.546,2.072,12.785,12.785,0,0,0-1.622-.724,12.625,12.625,0,0,0-11.3,22.377,10.878,10.878,0,0,0-.7,16.108,12.254,12.254,0,0,0-.473,11.651c.793.015,1.586.03,2.382.03a121.586,121.586,0,0,0,20.36-1.717A12.222,12.222,0,0,0,315.223,491.58Z" transform="translate(-175.628 -379.482)"/><path class="e" d="M489.33,383.879a12.5,12.5,0,0,0-9.416,12.236,10.762,10.762,0,0,0-13.571,8.385,12.39,12.39,0,0,0-2.24.351,12.154,12.154,0,0,0,3.662,23.915,120.452,120.452,0,0,0,23.709-45.234A12.721,12.721,0,0,0,489.33,383.879Z" transform="translate(-256.134 -352.26)"/><path class="e" d="M263.5,454.011a10.933,10.933,0,0,0,.247-3.27c-.4-5.414-4.611-9.514-9.412-9.16-4.343.319-7.677,4.179-7.975,8.923-3.66,1.282-6.161,5.266-5.828,9.784a9.819,9.819,0,0,0,5.162,8.138,7.113,7.113,0,0,0-2.222,5.83c.277,3.772,3.215,6.63,6.558,6.384a5.615,5.615,0,0,0,.863-.141c0,.025,0,.05,0,.077.3,4.06,3.46,7.136,7.06,6.869s6.275-3.771,5.977-7.83a8.285,8.285,0,0,0-.431-2.092c.092-.005.184-.006.276-.013,5.757-.424,10.035-6.03,9.558-12.524C272.9,459.052,268.631,454.434,263.5,454.011Z" transform="translate(-152.92 -380.192)"/><path class="e" d="M207.308,505.627a17.524,17.524,0,1,0-9.953-32.257c0-.067,0-.134,0-.2a16.806,16.806,0,0,0-31.547-7.612,11.534,11.534,0,0,0-16.682,9.131,16.846,16.846,0,0,0-9.125-.7,120.412,120.412,0,0,0,63.834,31.868c.071-.149.146-.294.211-.446A17.668,17.668,0,0,0,207.308,505.627Z" transform="translate(-104.543 -387.532)"/><path class="e" d="M306.012,511.515A17.44,17.44,0,0,0,297,514.292c0-.068,0-.134,0-.2a16.807,16.807,0,0,0-31.548-7.613,11.534,11.534,0,0,0-16.682,9.131,16.881,16.881,0,0,0-19.327,5.735,121.1,121.1,0,0,0,88.41-5.646A17.456,17.456,0,0,0,306.012,511.515Z" transform="translate(-147.594 -407.23)"/></g><path class="e" d="M418.694,201.609a6.026,6.026,0,0,0-1.331.425,7.021,7.021,0,0,0-.106-.79,6.888,6.888,0,0,0-12.756-2.075,6.155,6.155,0,0,0-10.447,3.206,6.827,6.827,0,0,0-7.825,5.235H425.87a6.022,6.022,0,0,0-7.176-6ZM405,207.215c.064-.084.127-.17.186-.256.128.155.265.3.405.446C405.4,207.332,405.2,207.27,405,207.215Z" transform="translate(-238.3 -140.362)"/><path class="e" d="M179.942,253.277a4.735,4.735,0,0,0-1.039.332,5.167,5.167,0,0,0-.083-.617,5.378,5.378,0,0,0-9.958-1.621,4.806,4.806,0,0,0-8.157,2.5,5.328,5.328,0,0,0-6.109,4.087h30.948a4.6,4.6,0,0,0-.088-.971A4.7,4.7,0,0,0,179.942,253.277Zm-10.691,4.376c.05-.065.1-.132.145-.2.1.121.206.237.316.349C169.562,257.745,169.406,257.7,169.251,257.653Z" transform="translate(-126.807 -165.859)"/></g><g transform="translate(57.317)"><g transform="translate(33.936 140.886)"><path class="f" d="M294.075,360.661c4.783-11.994,15.59-27.136,15.417-33.94s-8.041-16.271-16.684-16.052-16.025,9.954-15.849,16.877S294.075,360.661,294.075,360.661Z" transform="translate(-276.956 -310.665)"/><path class="g" d="M296.558,352.49c3.908-9.8,12.742-22.176,12.6-27.737s-6.571-13.3-13.635-13.119-13.1,8.135-12.953,13.792S296.558,352.49,296.558,352.49Z" transform="translate(-279.657 -311.13)"/><path class="e" d="M299.075,343.005c3.011-7.553,9.817-17.089,9.71-21.373s-5.065-10.246-10.508-10.11-10.092,6.27-9.981,10.629S299.075,343.005,299.075,343.005Z" transform="translate(-282.414 -311.076)"/></g><g transform="translate(30.42 144.328)"><path class="f" d="M276.538,350.08c4.852-7.084,14.069-15.338,14.948-19.778s-2.848-11.729-8.488-12.847-11.848,4.126-12.745,8.642S276.538,350.08,276.538,350.08Z" transform="translate(-270.177 -317.302)"/><path class="g" d="M279.77,344.774c3.963-5.791,11.5-12.535,12.217-16.164s-2.329-9.587-6.938-10.5-9.682,3.371-10.414,7.062S279.77,344.774,279.77,344.774Z" transform="translate(-272.292 -317.632)"/><path class="e" d="M283.225,338.61c3.054-4.464,8.861-9.66,9.414-12.455s-1.794-7.387-5.345-8.091-7.462,2.6-8.026,5.443S283.225,338.61,283.225,338.61Z" transform="translate(-274.53 -317.623)"/></g><g transform="translate(41.877 142.683)"><path class="f" d="M304.627,333.941c-.027-5.456,1.807-13.1.661-15.735s-5.727-5.1-9.076-3.643-4.7,6.438-3.536,9.119S304.627,333.941,304.627,333.941Z" transform="translate(-292.266 -314.13)"/><path class="g" d="M303.921,330.847c-.02-4.458,1.477-10.7.54-12.859s-4.68-4.167-7.418-2.977-3.838,5.26-2.887,7.454S303.921,330.847,303.921,330.847Z" transform="translate(-293.014 -314.384)"/><path class="e" d="M303.011,327.246c-.015-3.435,1.139-8.247.417-9.909s-3.608-3.21-5.717-2.294-2.96,4.054-2.225,5.744S303.011,327.246,303.011,327.246Z" transform="translate(-293.691 -314.438)"/></g><g transform="translate(0 0)"><path class="e" d="M304.207,85.374c-24.12,31.949-33.007,4.345-46.34,4.442-6.983.052-12.059,28.775-46.342-4.442a46.341,46.341,0,1,1,92.681,0Z" transform="translate(-211.526 -39.033)"/><path class="e" d="M211.526,109.325c5.08,28.91,19.045,32.448,26.662,62.669,16.538,11.009,15.268,8.468,41.9,2.171,3.8-27.814,24.12-44.59,24.12-64.839C305.476,79.063,215.337,84.993,211.526,109.325Z" transform="translate(-211.526 -62.984)"/><g transform="translate(25.397 55.147)"><path class="h" d="M260.492,145.358s8.784,20.165,11.437,27.645,2.731,25.341,2.731,25.341" transform="translate(-260.492 -145.358)"/><path class="h" d="M334.28,145.359S325.5,165.524,322.845,173s-2.731,25.341-2.731,25.341" transform="translate(-289.19 -145.358)"/></g><path class="i" d="M272.618,276.169v14.3c0,4.4,2.853,7.963,6.375,7.961h19.12c3.513,0,6.367-3.564,6.367-7.961v-14.3Z" transform="translate(-240.932 -153.175)"/><path class="j" d="M257.315,242.351v23.188a7.962,7.962,0,0,0,7.958,7.962h31.82a7.962,7.962,0,0,0,7.958-7.962V242.351Z" transform="translate(-233.566 -136.897)"/><g transform="translate(29.452 56.45)"><path class="h" d="M277.553,153.934c0,3.352-2.071,6.068-4.623,6.068s-4.62-2.717-4.62-6.068,2.067-6.062,4.62-6.063S277.553,150.589,277.553,153.934Z" transform="translate(-268.31 -147.871)"/><path class="h" d="M295.377,153.935c0,3.352-2.067,6.068-4.624,6.067s-4.622-2.716-4.622-6.067,2.071-6.062,4.623-6.062S295.378,150.589,295.377,153.935Z" transform="translate(-276.888 -147.872)"/><path class="h" d="M313.207,153.935c0,3.352-2.071,6.068-4.624,6.067s-4.625-2.716-4.626-6.067,2.071-6.062,4.626-6.062S313.207,150.59,313.207,153.935Z" transform="translate(-285.468 -147.872)"/><path class="h" d="M331.034,153.935c0,3.352-2.067,6.068-4.62,6.068s-4.623-2.717-4.623-6.068,2.069-6.063,4.624-6.062S331.034,150.589,331.034,153.935Z" transform="translate(-294.052 -147.872)"/></g><path class="c" d="M268.1,51.847c11.435-8.439,31.837-1.262,39.394,4.229,10.505,7.631,18.26,24.482,17.048,35.378s-5.819,16.642-10.1,26.782c-1.524,3.605,5.209-10.988-2.976-30.663-6.11-14.682-23.773-18.429-35.484-19.782C267.788,66.843,256.73,60.243,268.1,51.847Z" transform="translate(-236.417 -43.336)"/><path class="k" d="M304.957,252.917a1.117,1.117,0,0,1-1.088,1.145H254.851a1.116,1.116,0,0,1-1.087-1.144v-1.989a1.117,1.117,0,0,1,1.087-1.145h49.018a1.119,1.119,0,0,1,1.089,1.145Z" transform="translate(-231.857 -140.475)"/><path class="k" d="M304.958,266.111a1.12,1.12,0,0,1-1.089,1.146H254.851a1.119,1.119,0,0,1-1.087-1.146v-1.988a1.118,1.118,0,0,1,1.087-1.145h49.018a1.117,1.117,0,0,1,1.088,1.145Z" transform="translate(-231.857 -146.825)"/><path class="k" d="M305.174,279.3a1.118,1.118,0,0,1-1.088,1.145H255.068a1.118,1.118,0,0,1-1.09-1.145v-1.988a1.12,1.12,0,0,1,1.09-1.148h49.017a1.119,1.119,0,0,1,1.089,1.147Z" transform="translate(-231.96 -153.175)"/></g></g></g><rect class="l" width="260" height="260" transform="translate(219 606)"/></g></svg>