<svg xmlns="http://www.w3.org/2000/svg" width="24" height="24" viewBox="0 0 24 24"><defs><style>.a{fill:#333;}.b{fill:none;}</style></defs><g transform="translate(-155 -3409)"><g transform="translate(158 3410)"><path class="a" d="M92.331,10.6a5.127,5.127,0,0,0,3.747-1.552A5.127,5.127,0,0,0,97.629,5.3a5.128,5.128,0,0,0-1.552-3.746,5.3,5.3,0,0,0-7.493,0A5.127,5.127,0,0,0,87.032,5.3a5.127,5.127,0,0,0,1.553,3.747A5.128,5.128,0,0,0,92.331,10.6Zm0,0" transform="translate(-83.292 0)"/><path class="a" d="M18.31,253.606a13.088,13.088,0,0,0-.178-1.39,10.952,10.952,0,0,0-.342-1.4,6.9,6.9,0,0,0-.575-1.3,4.917,4.917,0,0,0-.866-1.129A3.82,3.82,0,0,0,15.1,247.6a4.3,4.3,0,0,0-1.589-.288,1.613,1.613,0,0,0-.861.365c-.258.168-.56.363-.9.578a5.141,5.141,0,0,1-1.161.511,4.507,4.507,0,0,1-2.84,0,5.128,5.128,0,0,1-1.16-.511c-.334-.213-.636-.408-.9-.579a1.611,1.611,0,0,0-.861-.365,4.3,4.3,0,0,0-1.589.288A3.817,3.817,0,0,0,2,248.386a4.92,4.92,0,0,0-.866,1.129,6.917,6.917,0,0,0-.575,1.3,10.978,10.978,0,0,0-.342,1.4,13.04,13.04,0,0,0-.178,1.391c-.029.421-.044.858-.044,1.3a3.653,3.653,0,0,0,1.085,2.764,3.906,3.906,0,0,0,2.8,1.02H14.474a3.905,3.905,0,0,0,2.8-1.02,3.652,3.652,0,0,0,1.085-2.764c0-.443-.015-.88-.044-1.3Zm0,0" transform="translate(0 -236.689)"/></g><rect class="b" width="24" height="24" transform="translate(155 3409)"/></g></svg>